<svg id="Capa_1" data-name="Capa 1" xmlns="http://www.w3.org/2000/svg" viewBox="0 0 598.72 863.8"><defs><style>.cls-1{fill:#862e88;fill-rule:evenodd;}</style></defs><title>cartes-bg</title><path class="cls-1" d="M212.14,597.38c-10.51-1.09-13.33-7-13.49-15.32,0-2.29,1.23-3.74,3.38-4.56A13.46,13.46,0,0,1,218,582.66c2.25,3.56,1.23,7.15.33,10.75a12,12,0,0,1-.8,1.94c3.11.71,6.09,1.21,8.95,2.09,2,.6,3.77,1.69,3.81,4.19s-1.54,3.61-3.5,4.5a21.48,21.48,0,0,1-11.19,1.7c-5-.51-6.68-3.15-4.95-7.74a23.52,23.52,0,0,1,1.53-2.71"/><path class="cls-1" d="M331,618.25c-3.15-4.23-2.19-8.32-.7-12.16,1.63-4.21,8.46-5.38,12.32-2.12a24.21,24.21,0,0,1,5.36,6.45c2.21,3.92-2.09,10.45-6.78,10.63a39.12,39.12,0,0,1-4.57-.38,13.47,13.47,0,0,1,1.08,2.44c.83,3.78-.29,6.68-3,8.09-3,1.57-9.07.46-11.57-2.13a7.75,7.75,0,0,1-.94-8.67,4.59,4.59,0,0,1,4.67-2.57l4.15.42"/><path class="cls-1" d="M315.21,639.79a55.41,55.41,0,0,1,6.09,1.12c3.27.94,4.29,2.66,3.76,6a8.59,8.59,0,0,1-5,6.94c-5.34,2.49-10.66,3.13-15.87-.26-2.71-1.77-3.2-3.51-1.73-6.31,2.62-5,6.61-7.84,12.71-7.46"/><path class="cls-1" d="M160.1,577.22c0-6.07,1.93-8,7.54-7.31a20.73,20.73,0,0,1,7.6,2.39,9.54,9.54,0,0,1,3.14,13.4c-1.32,2.17-3.2,3.22-5.58,2.45a53.88,53.88,0,0,1-8.66-3.71c-3-1.64-4.44-4.34-4-7.22"/><path class="cls-1" d="M275.23,640.37c-.55-3.94,1.52-6.91,4.6-9.38s6.51-1.87,9.09,1c3.25,3.59,5.09,7.28,2.91,12.08a9.4,9.4,0,0,1-14.33,3.65c-2.59-1.9-2.23-4.56-2.27-7.34"/><path class="cls-1" d="M194.68,593.34c3.13,1,6.47,1.57,9.34,3,4.34,2.19,4.42,6.52.56,9.37a14.8,14.8,0,0,1-13.94,2.41c-3.89-1.23-5.78-3.47-5.45-6.56.48-4.45,3.25-7.3,7.38-7.57l1.91-.1c.06-.19.13-.38.2-.57"/><path class="cls-1" d="M427.2,613.75c.17-6.78,7.59-11.83,14.42-9.78a18.5,18.5,0,0,1,3.48,1.51c2,1.07,4,2.21,3.79,4.84s-1.28,5.08-4,6.41c-4.64,2.25-9.58,2.13-14.5,1.48-2.42-.32-3.3-2.18-3.18-4.46"/><path class="cls-1" d="M404.51,613.1a16,16,0,0,1,9.44,3.49A3.31,3.31,0,0,1,415,621.1c-2.26,4.62-6.62,6.27-11.31,6.45-2.86.11-5.85-1.12-8.63-2.14-1.72-.63-3.49-1.75-3.16-4.12s.81-4.71,3.5-5.58c3-1,6-1.75,9.07-2.61"/><path class="cls-1" d="M457.61,656c0,3.65-.52,7.11-4,9.33-2.61,1.65-5.34,2.95-8.47,1.42s-4.3-4.58-4.31-7.72c0-4.3,2.44-7.62,5.94-10,2.5-1.72,5.23-.76,7.69.43,2.7,1.3,3.22,2.57,3.17,6.57"/><path class="cls-1" d="M313.57,622.6c-4.8.08-7.69-2.68-9.8-6.35-1.39-2.42-.73-4.74,1.57-6.61a13.19,13.19,0,0,1,9.74-3c4.64.41,7.77,3.17,8,7.15s-3.18,8-7.65,8.67c-.62.09-1.26.12-1.89.18"/><path class="cls-1" d="M369.45,613.82c-.33,3-3,5.56-5.73,7.48a22.19,22.19,0,0,1-8.71,3.37c-3.86.69-5.9-1.73-5.38-5.57a12,12,0,0,1,3.38-6.48c2.68-3,6.25-4.32,10-5.16,3.52-.8,6.59,2.11,6.48,6.36"/><path class="cls-1" d="M143.55,639.46c-8-.34-12.44-4.82-12.38-12.33,0-3.32,1.23-4.48,4.61-4.42,5.06.09,9.17,2.52,12.92,5.4,2.86,2.18,1.84,5.4,1.08,8.19-.65,2.35-3,3.31-6.23,3.16"/><path class="cls-1" d="M467.32,655c-.09-4.1.77-5.35,4.06-6.6,3.59-1.37,8-1,9.74,1.4,2.09,2.86,4,5.88,2.6,9.81-1.26,3.62-3.91,6-7.47,6-4,0-7.6-2.59-8.43-6.24a30.91,30.91,0,0,1-.5-4.36"/><path class="cls-1" d="M152.34,650.67c0-5.36,3-8.44,8.46-8.46s9.57,3.32,9.63,7.61c.07,4.87-3.21,8-8.41,8.07-6.06.07-9.65-2.61-9.68-7.22"/><path class="cls-1" d="M493.06,654.9c-.56-3.87,1.28-7.22,4.31-10,3.79-3.46,10.7-1.65,12.09,3.08a5.89,5.89,0,0,1,.35,1.34c.27,6-8,12.67-14.14,11.49-1.65-.31-2.61-1.06-2.61-2.75V654.9"/><path class="cls-1" d="M356.43,658.62a25.49,25.49,0,0,1-4.49-.78c-2.08-.65-4.35-1.4-4.47-4.14a7.07,7.07,0,0,1,2.9-6.48c3.07-2.25,9.88-2.54,13.2-.62.27.16.48.41.74.58,2.58,1.61,5.3,3.16,4.13,6.85-1.06,3.37-4.16,3.94-7.1,4.55a30,30,0,0,1-4.91,0"/><path class="cls-1" d="M439.2,597.91c-4.46-.06-7.6-2.59-7.5-6,.18-6.4,3.22-9.71,8.84-9.61,4.32.08,8.77,3.59,8.73,6.88,0,5.45-4,8.86-10.07,8.77"/><path class="cls-1" d="M210.8,628.72a15.45,15.45,0,0,1-10.7-5.52,7.27,7.27,0,0,1-1.64-6.08c.38-2.63,1.67-3.83,4.37-4.08,5.13-.48,11.29,2.85,13.49,7.28s-.41,8.63-5.52,8.4"/><path class="cls-1" d="M381.05,623.65c-2.24-.68-4.65-1-6.68-2.1-4.14-2.13-4.45-7.1-.79-9.9a12,12,0,0,1,12.54-1.47,6,6,0,0,1,3.62,6.8,7.73,7.73,0,0,1-6.19,6.23,17,17,0,0,1-2.37,0l-.13.43"/><path class="cls-1" d="M405.08,651.16c0,3.89-1.7,6.68-4.52,7.4-3.35.86-9.22-.82-10.56-3s-.4-7.82,1.77-10.08a7.35,7.35,0,0,1,7.81-2.2,8.08,8.08,0,0,1,5.5,7.89"/><path class="cls-1" d="M136.37,664a13.29,13.29,0,0,1-1.2,3.64c-1,1.64-2.76,1.74-4.66,1.15a17.93,17.93,0,0,1-9.31-6.87c-1.74-2.41-1.38-5-.47-7.55.66-1.82,2.5-2.3,4.34-2.2,3.53.19,10.11,5.5,11,8.81a24.55,24.55,0,0,1,.32,3"/><path class="cls-1" d="M193.53,662.72c-2-.21-3.12-.28-4.22-.45-4.3-.67-6.16-2.52-5.92-5.81s3.26-6.33,6.66-6a31,31,0,0,1,9.91,2.84c3.27,1.57,2.92,6.33-.44,7.79a34.76,34.76,0,0,1-6,1.6"/><path class="cls-1" d="M415.91,609c-2.4,0-5.1.21-6.42-2.1-1.5-2.62,0-5.08,1.56-7.26a11.07,11.07,0,0,1,12.39-3.56,3.72,3.72,0,0,1,1.95,2.25c1.38,5.85-2.3,10.36-8.53,10.67h-.95"/><path class="cls-1" d="M465.67,643.73c-2.05-.22-3.18-.24-4.27-.47-3.27-.7-4.31-2.06-4.46-5.64s.81-5.15,4-5.92,6.21-1.24,9.35.36c2,1,3.6,2.11,3.55,4.45s-.54,4.78-3.13,5.82a39.47,39.47,0,0,1-5.05,1.4"/><path class="cls-1" d="M394.39,598.14c4.28.78,7.58,2.3,9.86,5.26,1.67,2.16,1.46,4.71.17,7-1.08,1.92-3.25,2.4-6.4,1.44a20.07,20.07,0,0,1-5.19-2.26c-3.88-2.54-4.38-6.6-1.25-10a9.09,9.09,0,0,1,2.81-1.5"/><path class="cls-1" d="M425.19,399.83c8.94,5.43,9.65,5.57,16.92,3.25,1.16,3.17,2.13,6.22.71,9.67a12.61,12.61,0,0,0-.44,9.07c.85,2.44-.39,4-2.59,4.65a11.29,11.29,0,0,1-4.66.39c-6.33-.82-10.05-5-12.81-10.07-1-1.86-1.26-4.05.69-6a8.46,8.46,0,0,0,2.2-6.87c-.09-1.33,0-2.66,0-4.13"/><path class="cls-1" d="M447.61,392.11l3.13-1.07c4.27,5.61,10.11,7.74,16.93,6.57,4.54,7.45.15,15.49-8.25,16a14,14,0,0,1-11.2-4.14c-3.08-3.07-3.91-6.47-2.19-10.56.82-1.92,1-4.1,1.58-6.79"/><path class="cls-1" d="M429,463.34h9.75c3,1.47,5.37,2.63,7.74,3.84a5.87,5.87,0,0,1,2.29,1.44c2.5,3.78-1.26,11.52-5.87,11.94a30.13,30.13,0,0,1-7.16-.27c-6-.9-8.81-4.66-8.08-10.49.26-2.14.86-4.23,1.33-6.46"/><path class="cls-1" d="M469.45,334.31c-5.27-.33-8.85-2.41-11.42-6-1.43-2-1.91-4.48-.38-6.52,2-2.64,4.68-5.29,8.24-4.69,4.37.74,8.9,1.39,12.24,5.19,4,4.61,1.44,9.27-2.83,10.7a53.9,53.9,0,0,1-5.85,1.35"/><path class="cls-1" d="M390.22,355.41c4.81.77,7.3,4,9,8a6.34,6.34,0,0,1-1.19,7.3c-4.74,5.26-9.85,6.31-16.13,3.09a4.91,4.91,0,0,1-3-4.83c0-2-.2-3.9-.32-5.91,7-2.12,7.07-2.17,11.55-7.66"/><path class="cls-1" d="M367.63,380.05c.23-1.65.4-2.86.57-4.1l8.61-2.87a16.59,16.59,0,0,0,12.14,6c2.8.1,5.76,4.17,5.77,7.05,0,3.49-1.93,5.66-5.79,6.1a34.73,34.73,0,0,1-6.2-.05,3.13,3.13,0,0,1-3.09-2.38c-1.79-5.53-5.93-8.56-12-9.76"/><path class="cls-1" d="M158.44,269c-4.18,6.21.14,9.84,4,13.57-4.75,5.63-7.34,6.36-13.78,3.48a25.42,25.42,0,0,1-6.42-3.87c-2.7-2.39-2.75-5.16-.35-7.81,4.25-4.69,9.43-7,16.52-5.37"/><path class="cls-1" d="M472.93,379.29c4.67,6.54,2.58,12.47-5,14.88-5.81,1.85-10,.92-13.28-3a7.17,7.17,0,0,1-.42-8.22,7.65,7.65,0,0,1,8.16-3c3.5,1,4.11,1,10.53-.69"/><path class="cls-1" d="M278.61,458.61c1-2.39,2.54-6.15,4.19-10.14a65.17,65.17,0,0,1,6.94-2c3-.58,5.11,1.15,6.95,3.19,1.56,1.73,2.53,3.69,1.22,5.9-3.07,5.23-6.84,9.7-12.28,10.63l-7-7.54"/><path class="cls-1" d="M446,273.55c8.06.42,9.48,6,10.34,11.39.54,3.33-2.17,5-4.58,6.44-2.61,1.61-5.39,1.92-8-.18-3.85-3.12-6.33-6.89-6.05-11.89l8.28-5.76"/><path class="cls-1" d="M210.8,256.72h9.13a28.68,28.68,0,0,1,2.89,12.4,5.48,5.48,0,0,1-3,4.91,10.82,10.82,0,0,1-10.89-.16c-3.12-2.11-4-7.05-1.91-10.39,1.29-2.08,2.39-4.27,3.77-6.76"/><path class="cls-1" d="M457,373c3-3.43,3.52-7.35,1.71-11.72l3.37-1.86c3.44,1.24,6.45,2.75,9.65,3.36a5.47,5.47,0,0,1,4.76,4.47c.68,2.69.28,5.25-2,7.23-5.27,4.57-12.53,4-17.49-1.48"/><path class="cls-1" d="M256.15,487.18c-6.27,0-9.82-2.52-11.34-8.5a3.92,3.92,0,0,1,1.45-3.43,41.62,41.62,0,0,1,7.72-3.56,5.67,5.67,0,0,1,6.24,1,12.05,12.05,0,0,0,1.47,1.18c4.23,3,4.93,4.51,3.73,8.23-.95,3-3.74,4.76-7.84,5-.47,0-.95,0-1.43,0"/><path class="cls-1" d="M196.71,347.86c6.37-.89,6.37-.89,10.4-3.88.65.86,1.76,1.66,1.88,2.59.72,5.28.64,5.29,3.07,8.29-.72,2.45-1.37,5-2.23,7.45-1.06,3-2.22,3.59-5.38,3-7.75-1.52-11.44-9.83-7.74-17.42"/><path class="cls-1" d="M212.58,503.39c.13,7.56-2.84,10.14-9.47,9.38a33.4,33.4,0,0,1-4.71-.68c-4.46-1.18-6.31-5.4-4.24-9.41,2.93-5.65,12.24-7.25,16.74-2.71a9.4,9.4,0,0,1,1.68,3.42"/><path class="cls-1" d="M238,200.93c-1.05,3.48-1.95,6.54-2.91,9.59a5.31,5.31,0,0,1-5.43,3.75,23.16,23.16,0,0,1-8.31-1.59c-3.91-1.65-4.82-6.41-2.31-9.9a10.29,10.29,0,0,1,7.68-4.18A19.55,19.55,0,0,1,238,200.93"/><path class="cls-1" d="M372.7,430.37l-3.77-9.09c2.05-.61,4.62-.91,6.62-2.11s3.54-3.35,5.78-5.57c1,.28,2.63.72,4.26,1.22,4,1.23,5.34,3,5.25,7.11a7,7,0,0,1-5.38,6.8c-4.31.83-8.72,1.14-12.76,1.64"/><path class="cls-1" d="M444.68,326.58l8.2-.52a73,73,0,0,1,3.68,7.17c2.17,5.61-1.35,10.38-7.54,10.4-3.71,0-6.76-1.72-9.47-3.92-1.95-1.59-1.81-3.36,0-5.13,3.6-3.58,3.6-3.58,5.16-8"/><path class="cls-1" d="M187.26,217.84a68.77,68.77,0,0,0,3.54,7.24,65.86,65.86,0,0,0,5,6.15c-1.07,2.86-3.65,4-7,3.75-4.63-.36-9.21-1-12.6-4.6-2.58-2.77-2.48-4.08-.19-7.19,2.66-3.62,6.37-4.84,11.22-5.35"/><path class="cls-1" d="M430.14,482.81c3.22.29,5.74.48,8.25.74,3.57.36,5.7,2.18,5.81,5.58.1,3.18.53,7.05-3,8.66a10.34,10.34,0,0,1-10.73-1.48c-1.49-1.1-3.2-1.94-5.07-3-1.73-4.84,3.82-6.76,4.76-10.46"/><path class="cls-1" d="M397.86,308.58c4.27-1.87,7.53-3.36,10.84-4.71a7.78,7.78,0,0,1,3.1-.51c2.53.07,5.05.3,8.15.51-.95,3.79-1.85,7.74-3,11.63-.47,1.64-1.89,2.25-3.7,2.37a17.59,17.59,0,0,1-12.85-4.14c-1.46-1.24-1.87-3.65-2.57-5.15"/><path class="cls-1" d="M270.31,563.53c-4.86.12-9.37-2.93-7.7-9,.62-2.24.62-4.45,2.75-6.15a6.3,6.3,0,0,1,6.63-1.2,9.84,9.84,0,0,1,6.23,5.47c2.38,6.17.61,10.66-7.91,10.86"/><path class="cls-1" d="M413.27,351.42c1.51-2.47,3-4.86,4.32-7.1l10.8.51a3.66,3.66,0,0,1,1.37.24c1.93.94,4.15,6.13,3.75,8.65-.49,3-2.09,4.38-5.87,5-1.88.29-3.75.66-5.32.94l-9.05-8.22"/><path class="cls-1" d="M351.29,306.92c-.53-5.84-3.64-9.51-8.21-12.33l4.32-6.73A14.73,14.73,0,0,1,358.79,291c3.54,2.69,4.41,5.43,2.5,9.36a10.72,10.72,0,0,1-10,6.54"/><path class="cls-1" d="M351,419.33c2.05-7.36-2.21-11.86-7.34-16.05,1.35-1.84,2.84-2,4.9-1.31a31,31,0,0,0,6.5,1.3c6.95.8,10.8,7.74,7.52,13.73-1.85,3.39-3.8,4.22-7.75,3.27-1.19-.28-2.38-.58-3.83-.94"/><path class="cls-1" d="M260.5,510.18l-8.65-6.86c.11-1,.65-2.61.35-4-.83-3.94,2.09-5.34,4.72-6.53s5.71-1.53,8.36,1c4.18,4,4.49,8.45.35,12.51a48.15,48.15,0,0,1-5.13,3.94"/><path class="cls-1" d="M419.4,465.43c1.1-.8,2-1.42,2.87-2.1.7-.55,1.34-1.19,2.85-2.55.08,3,.46,5.08.11,7.06-.69,4-1.2,7.78,1.22,11.62,1.72,2.71-.3,6.93-3.5,7.35a20.94,20.94,0,0,1-8.87-.78c-3.88-1.25-4-4.46-2.71-7.77,9.71-4.05,10.53-5.31,8-12.83"/><path class="cls-1" d="M327,454.74l9.62-2.77a40.63,40.63,0,0,1,5,3.13,7.86,7.86,0,0,1,2.64,3.63c.74,2.81-2.53,7.76-5.83,9.45-2.47,1.26-7.12.5-9.32-1.79a6,6,0,0,1-1.35-3.21c-.19-1.36.19-2.78.08-4.15a37.38,37.38,0,0,0-.86-4.29"/><path class="cls-1" d="M441.35,373.54c4.32,2.51,8.54,3.28,13.23.87l2.87,3.27c-4.27,2-7.1,4.61-7.47,9.17-.16,2.09-2.13,2.91-3.91,2.46a24.43,24.43,0,0,1-7.85-3.06c-3.93-2.7-3.62-7.61.21-10.5l2.92-2.21"/><path class="cls-1" d="M415.82,437c9.7-1.08,10.66-1.77,12.56-9.15l5.75,2c.29,1.12.51,2.16.84,3.18,2.22,6.88-1.36,12-8.79,12.44a15.08,15.08,0,0,1-5.18-.59c-5.17-1.65-6.43-2.56-5.18-7.89"/><path class="cls-1" d="M446.81,427.45c4.09-.24,7.33-.49,10.56-.61s4.89,2,6.46,4.08c2.59,3.42,2.13,5.24-1.5,7.56A12.22,12.22,0,0,1,446,435.07c-2-3-.62-5.56.81-7.62"/><path class="cls-1" d="M221.72,519.64c0,6.1-3.15,9.15-8.15,9.25-4.84.1-9.08-3.47-9.14-7.6a4.81,4.81,0,0,1,2.54-4.63c2.17-1.27,4.12-2.94,6.4-3.93,1.21-.53,3.65-.54,4.25.2a46.17,46.17,0,0,1,4.1,6.71"/><path class="cls-1" d="M221,530.43c4.31-4.43,4.66-5.13,5.71-11.29,2.12.19,4.27.37,6.42.58,3,.28,5.92,3.92,5.52,6.85-.58,4.17-6.92,9.81-11.16,9.9-4.71.1-5.71-.8-6.49-6"/><path class="cls-1" d="M260.39,328.85a3.63,3.63,0,0,1-.7-.48c-5.4-4.56-4.3-10.53,2.42-12.87,2.67-.92,5.36-1.79,8.09-2.51,3.13-.84,4.74-.06,7,3-5.22,5.66-5.22,5.66-6.5,10.08l-10.27,2.74"/><path class="cls-1" d="M457.14,344.61l5.3,3.74c-.28.93-.63,1.9-.86,2.9-.67,3-1.07,6.55-4.87,7.21-4.46.79-8.94.27-12.64-2.75a3.66,3.66,0,0,1-1.12-4.62c1-2.26,2.13-4.46,5.21-4.83,2.79-.33,5.53-1,9-1.65"/><path class="cls-1" d="M411.8,524l-6.05-7.79A17.28,17.28,0,0,1,416.92,510c.31,0,.62-.17.93-.2,3.69-.39,7.1,1.15,8.06,3.63,1,2.73-.75,6.87-3.82,8.7-3.4,2-7,2.76-10.29,1.89"/><path class="cls-1" d="M426.51,287.14c1.55-.91,2.95-1.64,4.23-2.52,1.12-.78,2.1-1.73,3.09-2.56,2,4.29,4,8.29,5.74,12.36,1.36,3.13.4,5.7-2.48,7.44-3.4,2.05-8.41,1.63-12.21-1.22,1.9-4.27,3.41-8.77,1.63-13.5"/><path class="cls-1" d="M403,367.61c.69-6-3-9.94-7.21-14.44,1.64.15,2.45.18,3.25.31,2.51.39,5.07,1.37,7.49,1.11,4.72-.49,7.53,2.08,10,5.09,2.61,3.2-1,9.67-5.5,10.22-2.38.29-4.46-.28-8-2.29"/><path class="cls-1" d="M369.72,400.05c6.53-1.83,6.53-1.83,9.9-5.77a12.7,12.7,0,0,1,9.55,4.23c3.79,4.12,3.37,8.77-1.28,11.87-3.24,2.16-6.3,1.38-8-2.16-2-4.14-5.64-6.45-10.15-8.17"/><path class="cls-1" d="M342.21,389.36l7.3-5.4a59.26,59.26,0,0,1,7.05,2.46c3.89,1.88,5.81,7,4.15,10.2-1.9,3.71-7,5.32-11.13,3.34-1-.47-2.23-1.71-2.21-2.58.07-3.71-1.86-6.07-5.16-8"/><path class="cls-1" d="M292.49,443.25c0-7.73,0-7.73-7.41-14.34,4.5-5,7.89-6.1,12.19-4.19,4.61,2,5.85,7.35,5,11.94-.74,4.21-4.05,6.4-9.82,6.59"/><path class="cls-1" d="M371.42,492.63l-4.8-4.43c1-2.37,2.69-4.65,2.82-7s-1.35-4.62-2.17-7.11c2.05-.29,4.23-.67,6.43-.89,3.18-.3,5.76.89,7.1,3.69s2.05,6.11-.33,8.78a33.29,33.29,0,0,1-9.05,7"/><path class="cls-1" d="M417.8,371.66c1.62-5.9,6.13-7.51,11.26-8.14,4.13-.51,8.56,2.32,9.6,6.18a3.67,3.67,0,0,1-.74,2.91c-5.23,5.92-15,5.42-20.12-.95"/><path class="cls-1" d="M256.91,312.79c-5.17,4.3-4,9.29-2.46,14.85-1,.31-2.29,1.12-3.22.86a42.65,42.65,0,0,1-8.34-3.2,5.18,5.18,0,0,1-2.09-3.47,12.71,12.71,0,0,1,2.2-9.26c1.5-2.22,5.35-3.05,8.18-2,1.79.64,3.53,1.38,5.73,2.25"/><path class="cls-1" d="M387.28,251.1c5.48.06,8.9,3.57,11.66,7.51,2.24,3.19-.6,8-4.59,8.19a16,16,0,0,1-10.75-3.05c-3.27-2.43-3.17-5.64,0-8.33a35.12,35.12,0,0,0,3.69-4.32"/><path class="cls-1" d="M371.07,348.27c-2.26-3.59-4.87-7.09-10.07-7.84.62-2.22,1.18-4.22,1.65-5.88,3.4-.31,6.49-.65,9.59-.85a18.24,18.24,0,0,1,5.67.05,5.55,5.55,0,0,1,2.25,9.37c-2.47,2.38-5.18,4.51-9.09,5.15"/><path class="cls-1" d="M399.59,350.59c2.75-8.45,2.75-8.45.17-14.08l7.17-2.72c1.47.73,3.26,1.67,5.09,2.54,2.75,1.32,3.57,2.69,3.17,5.46-1.1,7.78-7.93,11.63-15.6,8.8"/><path class="cls-1" d="M270.34,418.73c1.33,2.93,2.59,5.73,3.85,8.54,1.76,3.92,1.41,5.27-2,7.84-3.19,2.38-6.18,2.49-9.11.21-1.59-1.23-3.06-2.63-4.93-4.26,4.17-3,5.56-7.24,5.45-12.33Z"/><path class="cls-1" d="M363.43,318.07c4-.73,7.77-.84,11.22,1.43,4,2.65,4.46,6.2.77,9.14a21.52,21.52,0,0,1-6.19,3.42c-3.34,1.17-8-1-9.09-4.25a6.52,6.52,0,0,1,.48-3.94,62.86,62.86,0,0,1,2.81-5.8"/><path class="cls-1" d="M255.45,342.49c2.77,1.73,5.1,3.31,7.55,4.69,2.26,1.27,3.62,3.35,3.46,5.55a6.59,6.59,0,0,1-4.65,5.95,9.6,9.6,0,0,1-9.78-2c-2.61-2.3-3-5.23-1.86-8.51,1-2.92,2-5.61,5.28-5.64"/><path class="cls-1" d="M244.3,263.82c4.54,1.17,8.71,1.06,12.67-1.64.48,2.15.88,3.92,1.08,4.84-1.72,3.35-3.41,6-4.39,8.78a3.57,3.57,0,0,1-4.31,2.69,14.71,14.71,0,0,1-9.36-5.17c-1.51-1.7-1.1-3.49.21-5.09,1.19-1.44,2.55-2.75,4.1-4.41"/><path class="cls-1" d="M263.63,400.64c5.07-.23,8,2.68,11.19,5.22,1.6,1.29,1.71,2.81.87,4.55-2.49,5.12-10.7,6.9-15.17,3.27a6.82,6.82,0,0,1-.68-9.54c1.16-1.25,2.52-2.33,3.79-3.5"/><path class="cls-1" d="M366.34,299.06c-1.09-3.49-2-6.49-3.08-9.8a42.09,42.09,0,0,0,3.33-3.55c2.33-3,4.12-4,7-3.08,3.06,1,5.23,2.88,5.65,6.24a8.9,8.9,0,0,1-7.85,9.95c-1.72.23-3.48.17-5.05.24"/><path class="cls-1" d="M400.3,434.33c-2.06-2.35-3.91-4.44-5.75-6.53-.19.2-.38.41-.58.61.11-2.13.39-4.27.3-6.39s.13-4.14,2.39-5c2.52-1,5.35-1.92,7.61.28a24.22,24.22,0,0,1,4.35,5.95c1.21,2.31.47,4.51-1.69,6.15l-6.63,5"/><path class="cls-1" d="M242.71,260.15a35.86,35.86,0,0,0,.78-4.88,23.53,23.53,0,0,0-.66-4.16c4.44-.84,8.25-2.52,9.67-7.23l5.35,2.07c2.36,4.58,2.49,8.53-1.6,12.25s-8.35,3.91-13.54,1.95"/><path class="cls-1" d="M422.84,304.35l11.54,2c1.07,1.84,2.16,3.7,3.23,5.56,1.5,2.58,1.08,4.24-1.61,5.75a10.91,10.91,0,0,1-8.26,1.35c-5.62-1.39-7.64-4.53-6.33-10,.4-1.64,1-3.24,1.43-4.74"/><path class="cls-1" d="M310.81,362.68c-6.25,0-9.95-3.69-9.81-8.57.08-3.18,4.22-6,8.07-5.32a25.83,25.83,0,0,1,6.33,2,6.23,6.23,0,0,1,4,5.4c.12,2.35-1.56,3.71-3.43,4.62a40,40,0,0,1-5.11,1.85"/><path class="cls-1" d="M257.13,461.22c-.3,4.16-3.22,6-5.79,8a14.4,14.4,0,0,1-12.14,2.94c-3-.64-3.72-1.86-2.58-4.61,2.93-7.09,9-9.85,16.51-7.47,1.31.41,2.64.77,4,1.17"/><path class="cls-1" d="M383.6,236.53c-.41-3.64-.63-6.85-1.16-10-.6-3.63,1.82-6.81,5.93-7.42,4.65-.69,6.71.72,7.29,5,1.14,8.41-4.13,13.71-12.06,12.44"/><path class="cls-1" d="M333.83,386.17a10.87,10.87,0,0,1,.51-2.3,11.71,11.71,0,0,0,0-10.33c-1.12-2.33-.45-3.76,1.39-5.09,2.21.49,4.42.85,6.51,1.52a7.34,7.34,0,0,1,3.09,2c4.35,4.78,3.52,9.79-2.15,13.13a11.11,11.11,0,0,1-9.31,1.11"/><path class="cls-1" d="M264.77,284.39l8.31-3.44,2.85,3.49c-1.72,4.06-3.45,8.12-5.31,12.49-1.61.56-4,1.25-6.21,2.2-2.53,1.07-5,1-6.09-.56-1.27-1.93-.11-3.36,1-5,1.92-2.78,3.46-5.81,5.43-9.18"/><path class="cls-1" d="M297.58,473.89l-9.69-5.37a65.85,65.85,0,0,0,7.56-5.5c2.38-2.22,4.18-5,6.19-7.52,4.63,1.3,6.73,4.07,5.83,8.1-1.27,5.64-4.74,9.31-9.89,10.29"/><path class="cls-1" d="M414.13,444.94l5.72,3.11c-1.13,3.62-2.87,7.35.45,10.65-2.47,3.21-4.76,3.92-8.73,2.94-5.59-1.37-8.16-4.89-7.89-10.6,3.75-1.18,7.95-2,10.45-6.1"/><path class="cls-1" d="M381.78,298.91c.6-4.3,1.13-8.21,1.74-12.6,1.68,0,4-.63,5.6.13a26.92,26.92,0,0,1,7.58,5.42c2,2.1,1.34,4.95-.88,7.07-3.84,3.67-10.13,3.46-14,0"/><path class="cls-1" d="M408.44,246.9c1.74-4.51,5.19-6.2,8.56-6.94,2.68-.59,5.79.58,8.69,1.06.34.06.65.65.86,1,1.28,2.46.14,7.39-2.14,9.39-2.83,2.48-6.62,2.92-9.58.82-2.26-1.61-4.26-3.57-6.39-5.38"/><path class="cls-1" d="M253.13,448.45a30.54,30.54,0,0,1-5-1.27c-3.19-1.42-3.66-2.83-2.54-6.19.34-1,.58-2.08.87-3.12.81-2.88,3.52-4.95,6.34-4.06a23,23,0,0,1,7.78,4.15c2.84,2.43,2.19,6.38-1.1,8.19a40.55,40.55,0,0,1-6.34,2.3"/><path class="cls-1" d="M160.92,289.25c3.88,5.32,8.82,6.9,14.9,6.66.15,1.54.29,3,.4,4.13L165,302.88A9.91,9.91,0,0,1,154.15,299a4.1,4.1,0,0,1,.7-5.45c1.75-1.49,3.78-2.68,6.07-4.27"/><path class="cls-1" d="M338.1,313.13l-4.65-8.2,3.4-8c6.15-.89,11.9,3.95,11.27,9.85-.66,6.21-4.26,8.32-10,6.39"/><path class="cls-1" d="M307.84,456.13c-1.72-3-3.26-5.14-4.18-7.49-1.07-2.7,1.12-6.36,4.28-7.95,4.85-2.45,12.11.66,13.57,5.81.79,2.76-.13,4.25-3.1,4.14-4.18-.15-7.47,1.15-10.57,5.49"/><path class="cls-1" d="M241,234c1.8.29,3.82.18,5.37,1,3,1.49,3.85,4.44,3,8-.68,2.76-3,4.59-6.16,4.91-.31,0-.63,0-1,0-7.58.18-10.94-5.06-7.5-11.69a3,3,0,0,1,3.35-1.95c.94.13,1.9.12,2.85.17,0-.14,0-.28.07-.41"/><path class="cls-1" d="M214.49,207.57c.42,5.12,4.41,7.34,8.62,9.2a9,9,0,0,1-10.22,6.93c-4.23-.67-7.77-4.69-7.38-8.36.52-4.87,3.62-7.63,9-7.77"/><path class="cls-1" d="M205.66,223.66c-1,2.23-1.55,4.71-4.76,4.52s-6-.75-7.29-4.15c-.82-2.17-2-4.2-3-6.29-1.36-2.75-1-4.11,1.63-5.88,2.2-1.48,6.39-1.67,8.56-.12a3.52,3.52,0,0,1,1.48,2.56c-.34,3.64,1.09,6.61,3.41,9.36"/><path class="cls-1" d="M279.93,335c-2.43,2.62-4.89,5-7,7.65-2.9,3.54-9.49,1.33-11.31-1.35a2.33,2.33,0,0,1-.58-1.23,11.85,11.85,0,0,1,5.25-9.43c2.31-1.65,5.61-1.21,8.3.83.88.66,1.79,1.28,2.71,1.89s1.61,1,2.67,1.64"/><path class="cls-1" d="M357.48,506.26c-.28-5.1-3.53-7.57-6.72-10.87,1.37-1.11,2.73-2.13,4-3.25,1.73-1.55,8-2.72,10.18-1.8,2.52,1.08,3.36,3.26,3.5,5.65a7.94,7.94,0,0,1-4.6,8,59.27,59.27,0,0,1-6.35,2.25"/><path class="cls-1" d="M404.65,271l-5-3.1a8.2,8.2,0,0,0,2.83-8c-.61-3.69,2.15-6.68,5.86-6.95a6.56,6.56,0,0,1,6.88,6.3c0,2.57-.61,5-2.86,6.6-2.54,1.8-5.2,3.45-7.72,5.12"/><path class="cls-1" d="M339.72,352c2.93-.24,5.44,1.12,7.85,2.66s4.31,3.25,3.7,6.42a8.06,8.06,0,0,1-6.53,6,18.72,18.72,0,0,1-5.69-.07,5.12,5.12,0,0,1-3.44-7.22c1.28-2.45,2.57-4.9,4.11-7.81"/><path class="cls-1" d="M479,347.48a8.6,8.6,0,0,1,1.4,1.52c4.21,6.39,3.86,9-5.06,11.15a10,10,0,0,1-8.86-2.62c-1.23-1.11-1.83-3.22-2.05-4.95-.29-2.33.89-3.22,3.38-3.53,3.41-.42,6.8-.94,11.19-1.57"/><path class="cls-1" d="M284.32,373.43c.51,2.23-.83,3.62-3.21,4.54a18.78,18.78,0,0,0-3.66,2.09,6.57,6.57,0,0,1-7.38.17c-2-1.48-2.47-4-1.71-6.64,1.3-4.51,5.52-5.77,9.1-7.31,3.16-1.35,6.84,2.62,6.86,7.15"/><path class="cls-1" d="M407.75,320.27c7.39.45,7.39.45,11.32-2.16,1.92,1.44,4.32,2.35,4.1,5.56a12.93,12.93,0,0,1-4.43,9.38c-1.91,1.64-7.77.9-9.29-1.13-.64-.85-.53-2.25-.69-3.42-.35-2.65-.66-5.31-1-8.23"/><path class="cls-1" d="M354.56,539.74l4.36-12.82a8.82,8.82,0,0,1,10,5c1.32,3.21-.48,8.58-3.81,10.13-1.41.66-3.38.4-5.07.27-2.41-.19-4.8-.67-5.5-2.61"/><path class="cls-1" d="M371,501.43c5-5.68,9.56-6.57,16-3.49,4.13,2,4.55,5.95.94,8.93-3.21,2.66-9.5,2.4-12.83-.69a55.12,55.12,0,0,1-4.11-4.75"/><path class="cls-1" d="M356.14,343.26c7.17-.6,11.31,2.45,11.29,8,0,1-.27,2.38-.95,2.88-3.57,2.58-7.41,4.66-11.8,4.34-1.7-2.18-3.12-4-4.73-6.1,5.28-.79,5.95-4.74,6.19-9.12"/><path class="cls-1" d="M186.22,250.09c2.33.32,4.22.88,6.07.78,3.18-.18,4.55,1.42,5.48,4s1.56,5.27-.32,7.5-4.59,2.6-7.42,1.51A27.59,27.59,0,0,1,185.2,262c-2.65-1.67-2.9-3.53-1.28-6.24a24.47,24.47,0,0,0,1.5-2.87,26.68,26.68,0,0,0,.8-2.8"/><path class="cls-1" d="M290.38,439.28c0,6.08-4.46,8.57-9.89,5.56-7.68-4.27-7.92-5.49-2.23-12.06a3.74,3.74,0,0,1,1.81-1.32c3.52-.69,10.87,2.49,10.31,7.82"/><path class="cls-1" d="M353.25,531c-.29,6.65-4.92,9.32-10.17,6.66a14.88,14.88,0,0,1-3.57-2.25c-1.76-1.66-4.05-3.27-3.31-6.11.44-1.67,5.42-4.21,7.57-4,3.06.26,6,1,8.08,3.38a11.12,11.12,0,0,1,1.4,2.35"/><path class="cls-1" d="M382,347c3.35-2.48,3-6,3.14-9.18l8.78-3c.81,1.28,1.74,2.7,2.62,4.16,2.17,3.59,2,6.72-.49,9.91-1.53,1.94-5.62,2.47-8.88,1C385.49,349,383.9,348,382,347"/><path class="cls-1" d="M398.31,247.13a8,8,0,0,1-6.59-2.74c-1.84-2-1.71-4.78.62-6a47.92,47.92,0,0,1,9.25-3.67,5.92,5.92,0,0,1,6.72,3.24c.86,2,.1,4.29-2,6.11-2.8,2.42-4.48,3.08-8,3"/><path class="cls-1" d="M206.28,288.28c2.63-3.48,3.41-6.83.71-10l12,.64c1.11.91,2.54,2.08,4.14,3.37.14,4.18-1.7,7.19-6,8.7s-7.61,0-10.88-2.72"/><path class="cls-1" d="M411.36,287.51l6.34-2.9c5.92,1.63,7.89,4.58,6.57,10-1.14,4.75-6,7.25-11.73,6.2-.39-4.41-.77-8.75-1.18-13.32"/><path class="cls-1" d="M374.13,465.25c-.1,3.37-1.9,5.46-4.78,5.92-6,.94-12.29-4-11.71-9.27a4.27,4.27,0,0,1,1.34-2.74c4.1-3.09,13.48-.13,14.95,4.64a6.86,6.86,0,0,1,.2,1.45"/><path class="cls-1" d="M215,468.06c5.41-6.66,12.76-6.7,20-7.92.83,3.16-1.12,5.27-2.53,7.28-1.95,2.79-4.35,5.52-8.14,5.91-2,.21-4.39.15-6-.78s-2.33-3-3.35-4.49"/><path class="cls-1" d="M443.88,295.74c2.78.69,5.18.74,6.8,1.85a9.45,9.45,0,0,1,3.17,5c.78,2.64-2.84,8-5.52,9-3.87,1.36-7.62-.65-10.52-5.84a10.9,10.9,0,0,0,6.07-10"/><path class="cls-1" d="M395.23,378.48c4.57-6.53,10.37-5.42,16.16-3.56,3.81,1.23,4.4,4.45,1.62,7.23a10.52,10.52,0,0,1-15.3-.25,39.52,39.52,0,0,1-2.48-3.42"/><path class="cls-1" d="M389.65,318.57l8.46-3.26c4,1.65,5.79,5.84,7.39,9.67,1.82,4.36-1.9,8.37-6.8,8.07a29.67,29.67,0,0,1-3.67-.74c.94-5.45-.52-10.12-5.38-13.74"/><path class="cls-1" d="M422.43,449.42l12.68-2.3,3.24,2.89c-.45,3.31-.86,6.34-1.34,9.93-5.22.54-10.14-.47-14.28-4.06-2.38-2.07-1.56-4.43-.3-6.46"/><path class="cls-1" d="M386.13,480.36c-1.33-5.34-4.47-8.73-10.13-10a17.55,17.55,0,0,0,1.06-2.65c.64-2.87,1.84-5.69,5.1-5.92,3.43-.24,6.46,1.61,8.67,4.14,1.55,1.78,1.29,4,.26,6.09-.65,1.35-1.55,2.88-1.39,4.23.29,2.47-1,3.29-3.57,4.15"/><path class="cls-1" d="M348,325.92c-1.17-3.44-2.21-6.47-3.25-9.5,1.45-1.52,3-3.22,4.66-4.86a3.61,3.61,0,0,1,1.52-1c4.15-1,9.47,4,8.61,8.06-1.22,5.73-5.08,8.15-11.54,7.34"/><path class="cls-1" d="M442.53,428.37c-1.91,9.5,4.15,13.77,15.17,16.08a11,11,0,0,1-2,2.31c-5,3.07-10.24,3-15.45.51-2-1-3.26-2.44-2.29-4.87a17.61,17.61,0,0,0,.25-12.1l4.33-1.93"/><path class="cls-1" d="M418.68,415.38c1.75,2.88,3.48,5.47,5,8.19,2.32,4.29-1.52,10.18-6.47,9.88a29.72,29.72,0,0,1-5.26-1.32c4.17-6.09,1.31-11-2.07-16.21l8.84-.54"/><path class="cls-1" d="M247.76,376.1c5.15.13,8.91-2.49,11.64-6.58,4.5,2.28,5.67,5.33,3.88,9.85-1.86,4.69-7.86,7.59-12.33,6.28l-3.19-9.55"/><path class="cls-1" d="M253.51,535.19c0-2.09-.17-3.46,2.16-3.86a22.22,22.22,0,0,0,6.09-2.28c2.86-1.46,5.46-1.38,7.83.6a5.22,5.22,0,0,1,1.51,6.67,15.39,15.39,0,0,1-3.36,4.91c-1.94,1.78-4.39,1.62-5.71-.39-2-3.06-5-4.53-8.52-5.65"/><path class="cls-1" d="M278.48,450.78c0,4.07-4.17,8.39-8.35,8.65-2.05.13-4.13.1-6.16.41s-2.92-.73-3.32-2.41c-.67-2.84.43-4.89,3.23-6.34,1.53-.79,2.89-2,4.5-2.53a25.64,25.64,0,0,1,6.79-1.44c2.29-.11,3.32,1.49,3.31,3.66"/><path class="cls-1" d="M378.5,523.24c-1.38-3.32-3.48-5.92-7.58-6.57.11-2.79.14-5.35,2.72-6.77,3.58.77,6.93,1.61,10.33,2.16a5.48,5.48,0,0,1,4.78,3.91c.68,2.08-.62,3.28-2,4.75-2.18,2.34-4.68,2.89-8.27,2.52"/><path class="cls-1" d="M397.68,288.32,402.8,285c6,3.31,8.39,8.56,6.29,13.35-2,4.48-7.42,6.58-13.26,4.7,4.58-4.38,6.52-9.16,1.85-14.69"/><path class="cls-1" d="M462,336.26c4.14,0,7.61.21,11-.08,2.28-.19,3.69.5,4.61,2.36a5,5,0,0,1-1.19,5.91c-3.76,3.11-12.65,2.63-15.91-.88-1.83-2-1.28-4.42,1.46-7.31"/><path class="cls-1" d="M456.2,306.11c.24-1.13.47-2.17.64-2.95,3.48-.45,7.06-.18,9.87-1.48s4.83-4.15,7.44-6.55a6.1,6.1,0,0,1,2.68,6.78c-.88,3.66-2.94,6.48-6.91,7.53-5,1.31-9.42.09-13.72-3.33"/><path class="cls-1" d="M311.13,466.21c-.39-2.65-.83-5-1-7.48a4.19,4.19,0,0,1,.71-2.55c1.8-2.65,6.13-3.58,9.46-2.14a6.31,6.31,0,0,1,3.66,7.29,16.14,16.14,0,0,1-1.5,3.89c-.77,1.49-1.88,2.38-3.86,1.73a18,18,0,0,0-3.77-.47c-1.24-.11-2.48-.18-3.66-.27"/><path class="cls-1" d="M208.94,225.85c4.1.24,5.2,2.89,6,5.83,1.14,4.25.47,6.07-3.16,8.57-3,2.08-6,2.05-9.32-.11-2.94-1.9-3.36-4-1.14-6.55a9.79,9.79,0,0,1,2.92-2.3c3.55-1.82,3.58-1.76,4.7-5.44"/><path class="cls-1" d="M285.89,331.61c-3.74.13-9.34-3.73-10.06-6.55a3.68,3.68,0,0,1,.54-3,37.2,37.2,0,0,1,5.29-4.55c1.62-1.19,3.11-1.06,4.43.78,1,1.37,2.52,2.35,3.65,3.63,2.53,2.84,2.56,4-.08,6.73a29.18,29.18,0,0,1-3.77,3"/><path class="cls-1" d="M375,252l-5.94-6.47L367,247a30.46,30.46,0,0,1,1.86-5.58c1.16-2.08,3-3.83,5.75-3.47a6.11,6.11,0,0,1,5.39,4.07,37.05,37.05,0,0,1,1.26,6.8c.23,2-.94,3.22-2.83,3.78-1.36.4-2.76.69-4.14,1L375,252"/><path class="cls-1" d="M255.51,280.75l4.53,2.91c.17,5.42-2.48,9.15-7,10-3.28.6-5.39-.32-7.24-3.16-1.42-2.16-1.41-6,.22-7.86a4.32,4.32,0,0,1,2.41-1.08c2.15-.34,4.34-.5,7.11-.79"/><path class="cls-1" d="M264.71,516.47a3.28,3.28,0,0,1,2.69-3.61,10.39,10.39,0,0,1,8.27.72c2.2,1.2,4.6,2.81,4.4,5.58-.22,2.94-2.42,5-5,6.32s-8.35-1.25-9.23-3.94a50.67,50.67,0,0,1-1.1-5.07"/><path class="cls-1" d="M441.22,261c3.09,2.31,4.14,5,3.08,8.13-1.34,4-3.94,5.89-8.82,6.36a39.6,39.6,0,0,0-3-3.48,29.85,29.85,0,0,0-3.3-2.41l2.16-6.26,9.88-2.34"/><path class="cls-1" d="M290.75,487.35c1.22-.77,2.72-1.62,4.11-2.6,2.95-2.1,6.18-2,8.4.46a6.49,6.49,0,0,1-.05,8.45,13.42,13.42,0,0,1-7.79,4.47l-3.34-2c-.45-3-.88-5.78-1.33-8.81"/><path class="cls-1" d="M404.83,411.79l-12.48,3.84c-.39-.41-1.37-1.4-2.45-2.51a15.44,15.44,0,0,0,5.46-9.58c.62-4,5.69-5,8.6-2.14,3.26,3.21,3.38,5.22.87,10.39"/><path class="cls-1" d="M339.8,263.58c-1.59-1.1-2.6-1.83-3.65-2.51a7.7,7.7,0,0,1-2.38-10.82A3.77,3.77,0,0,1,335,249c3.93-2.07,10.59.65,11.6,4.92a5.47,5.47,0,0,1-1,4.16,56.81,56.81,0,0,1-5.86,5.54"/><path class="cls-1" d="M183.58,238.3l13.08-1.65c.85,1.47,1.75,3.39,3,5.11,1.75,2.47,1.48,4.21-1.17,5.55-3.47,1.76-12,.24-14.24-2.8a5.66,5.66,0,0,1-.64-6.21"/><path class="cls-1" d="M425.42,394.36c-5.4,5.05-13,5.4-18,1.08-1.44-1.26-2.66-2.66-2-4.84a4.13,4.13,0,0,1,4.85-2.93c4.84,1,10.26.9,14,5a14.7,14.7,0,0,1,1.13,1.72"/><path class="cls-1" d="M248.37,216.84a20.26,20.26,0,0,1-.78,3.68c-1.19,2.83-2.54,5.59-3.85,8.37a4.87,4.87,0,0,1-5.54,2.58c-2.31-.55-2.92-1.57-2.84-4.56,0-1.06.32-2.29-.11-3.16-1.24-2.54-.52-4.37,1.46-6.17.47-.43.32-1.5.44-2.15l11.22,1.41"/><path class="cls-1" d="M384.75,458.66a72.91,72.91,0,0,1,4.21-7.17c2.35-3.17,5-3.86,7.73-2.47,3,1.54,5,5.77,3.57,8.66-.91,1.8-2.77,3.21-4.37,4.62-2.1,1.85-3.75.05-5.5-.87s-3.66-1.8-5.64-2.77"/><path class="cls-1" d="M347.45,461.29l7.88-4.34c0,4.95.09,9.18,0,13.4-.09,3-1,3.83-4,3.93a19.93,19.93,0,0,1-4.76-.38c-4.12-.9-5.1-3.42-2.81-6.8,1.28-1.91,2.49-3.86,3.74-5.81"/><path class="cls-1" d="M287,376.73c-.5-5.06.31-7,3.38-8.41,2.74-1.26,9.38-.41,11.39,1.45a4.51,4.51,0,0,1,0,6.91,8.81,8.81,0,0,1-11,1.57c-1.1-.58-2.32-.95-3.75-1.52"/><path class="cls-1" d="M205.16,291.91c-7.11,8.2-4.19,14.07,3.83,18.23a34.83,34.83,0,0,0-3.2,2.29c-2.94,2.65-6.34,3.07-9.48,1.07-2.81-1.8-3.12-4.12-.85-6.52,5.78-6.11,5.95-7.76,1.6-15a21.87,21.87,0,0,1-1-2.3c3.2,1.61,7.06-2.42,9.06,2.26"/><path class="cls-1" d="M342.39,421.67c-3.33-.16-6.27-1.09-8.24-3.92a6.1,6.1,0,0,1,9.48-7.68,22.49,22.49,0,0,1,3.34,4.49c2.15,3.84,0,7.15-4.58,7.11"/><path class="cls-1" d="M377.51,330.24c3.25-2.5,2.8-5.88,2.67-9.35a15,15,0,0,0,3.52-.43c2.72-1,4.61,0,6.27,2,1.94,2.27,3,4.8,2.06,7.74-1.28,4-5.47,5.56-9.2,3.39-1.62-.94-3.19-2-5.32-3.31"/><path class="cls-1" d="M322.39,422.05c-2.33,0-4.42-.25-5.17-3a10.81,10.81,0,0,0-1.68-2.77c-2.05-3.12-1.64-4.72,1.72-6.6,5-2.81,11.45.16,11.84,5.45.33,4.52-2,6.93-6.71,6.89"/><path class="cls-1" d="M321.44,439.67a15.85,15.85,0,0,0-14.65-2c-.73-5.19.72-8.64,4.21-10.21,2.6-1.17,8.52.45,10.85,3s2.23,5.06-.41,9.27"/><path class="cls-1" d="M217.13,227.38l10.36-7.48c2.39.66,3.93,2.49,3.78,5.8a21.93,21.93,0,0,0,.66,5c.58,3-.25,4.23-3.26,4.08a40.69,40.69,0,0,1-7.08-1.09,3.77,3.77,0,0,1-2.1-1.61,50.19,50.19,0,0,1-2.36-4.7"/><path class="cls-1" d="M343.63,493.1c-.12-3.13-3.32-4.87-3.11-8.13.15-2.19-.27-4.44,2.41-5.41s5.48-1.56,8,.63a7.36,7.36,0,0,1,2.09,8.42c-1.25,3.07-4.82,4.91-9.4,4.49"/><path class="cls-1" d="M156.67,306.28l6.51.73c1,5.23,2,10,3,15-2.51,2.56-7.72,2.91-10.55.39a3.25,3.25,0,0,1-.72-4.57c2.32-3.45,2.56-7.17,1.8-11.59"/><path class="cls-1" d="M166.31,327.42a15.76,15.76,0,0,1-1.82,1.45c-3.59,1.9-7.27,3.65-10.78,5.69-2.61,1.52-4.59.21-6.59-1a4.6,4.6,0,0,1-2.52-5c.65-4.58,1.48-5.78,5.26-7,2.67,1.85,4.82,4,7.45,5s5.46.59,9,.86"/><path class="cls-1" d="M378,444c1.71.45,3.95.41,5,1.47,1.79,1.81,2,4.48,1.4,7a5.36,5.36,0,0,1-7.31,3.77,21,21,0,0,1-5.24-3.09c-1.84-1.43-2.72-3.22-1.58-5.7a4.72,4.72,0,0,1,5.22-3.06c.79.07,1.59,0,2.38,0,0-.13.09-.26.13-.39"/><path class="cls-1" d="M335.75,546c.56-3.23,1.92-4.58,5.49-4.75a46.25,46.25,0,0,1,9.42.23c1.45.24,2.94,1.75,3.87,3,1.13,1.57.48,3.45-1,4.58a15.56,15.56,0,0,1-6,3.18,54.38,54.38,0,0,0-5.39-3.72,60.16,60.16,0,0,0-6.41-2.56"/><path class="cls-1" d="M286.32,392.18a43.21,43.21,0,0,1-6.47-1.37c-2.67-1-3.72-3.58-2-5.6a18,18,0,0,1,6.17-4.76c2.67-1.22,8.52,2.15,9.15,4.86.69,3-1,7.16-6.81,6.87"/><path class="cls-1" d="M320.27,396.1l-3.77-6.38a10.18,10.18,0,0,0,1.39-2.73,4.42,4.42,0,0,1,4-3.95c2.73-.4,5.47-.29,7.67,1.6,1.81,1.54,1.82,4.36.23,6.8-1.09,1.67-2.23,3.32-3.48,5.18l-6.06-.52"/><path class="cls-1" d="M189.47,290.93c1.61,2,3.08,3.85,4.49,5.71,1.14,1.5,2.33,3,1.34,5.06s-2.93,2-4.88,2.05c-3.48.12-6.68-.44-9.27-2.88-2.2-2.08-2.24-3.75-.24-6a11.11,11.11,0,0,1,8.56-3.9"/><path class="cls-1" d="M392.71,430.51l4.2,3.83c-.72,1.9-1.56,3-1.4,3.87,1,5.92-2.63,8.45-7.7,10.06-1.15-1.93-2.41-4-3.41-5.7.44-3.19.81-6,1.21-8.92l7.1-3.14"/><path class="cls-1" d="M219.4,331.38c-1.19,2.74-2.23,5-3.15,7.24-1.17,2.91-4.09,4.14-6.31,2a20.88,20.88,0,0,1-5.11-7.59c-1.23-3.36,1.44-5.55,5.25-5.52s7.15.85,9.32,3.86"/><path class="cls-1" d="M336.61,274.88c-4.37-.34-7.1,2.05-10.09,4.94-.86-1.15-2-2-2.14-3-.46-3-1.08-6.12-.67-9.06.52-3.66,3.05-4.71,6.71-3.6,4.4,1.33,6.23,4.33,6.19,10.7"/><path class="cls-1" d="M336.63,330.13a44.09,44.09,0,0,1-4.42-1.13c-2.84-1.05-4.52-4.3-3-6.67a9.9,9.9,0,0,1,7.17-4.82,6.55,6.55,0,0,1,6.72,3.49c2,3.34,1.63,5.29-1.84,7.34a28.37,28.37,0,0,1-4.67,1.79"/><path class="cls-1" d="M262.37,464.12c3.56.22,6.68.39,9.81.61a12.54,12.54,0,0,1,2.81.41,5.16,5.16,0,0,1,4,4.68c.17,2.17-1.2,3.77-3.86,4.65-3.12,1-6,.13-8.58-1.47-1.06-.65-1.93-1.6-2.95-2.32-3.45-2.41-3.49-2.53-1.2-6.56"/><path class="cls-1" d="M357.26,521.38c-4.55-.26-6.48-2-6.29-5.73s2.78-6,6.86-6a12.68,12.68,0,0,1,4.18.54c4.47,1.6,5.23,5.15,1.93,8.44-2.41,2.4-3.67,2.92-6.68,2.75"/><path class="cls-1" d="M320.31,348.28a33.26,33.26,0,0,0,3.71-3.07c1.5-1.63,3.27-1.72,5.21-1.34,4.45.86,6.25,3.29,5.41,7.6a33.57,33.57,0,0,1-1.86,5.09,48.78,48.78,0,0,0-5-.53,30.83,30.83,0,0,0-4.07.48c-1.14-2.78-2.21-5.4-3.36-8.23"/><path class="cls-1" d="M284,268.75c1.16,1.52,2.12,2.83,3.14,4.11,1.79,2.24,2,4.31.58,6.38a5.88,5.88,0,0,1-6.37,2.07,10.55,10.55,0,0,1-6.67-6.22c-1.2-3,.51-5.29,2.7-7.27l6.62.93"/><path class="cls-1" d="M352.48,260.71c4.09.54,7.71.7,11.15,1.54,5.9,1.44,7.48,5.23,4.72,10.5A16.35,16.35,0,0,1,366.6,275l-8.53-1.49c-.38-2.27-.4-4.64-1.24-6.7-.77-1.9-2.41-3.46-4.35-6.1"/><path class="cls-1" d="M446,411.26c4.85,4.79,10.46,5.54,16.5,5,.28,4.63-2.84,6.47-5.89,8-3.51,1.7-6.88.61-9.75-1.79-3.61-3-2.55-6.61-.86-11.15"/><path class="cls-1" d="M229.48,429.5c4.26,2.94,10.09,2.77,13.1,7.79-.73,2.18-.4,5.15-4,5.78a10.78,10.78,0,0,1-9.64-2.77c-2-1.84-1.69-7,.55-10.8"/><path class="cls-1" d="M248.19,520.24c-5.3,0-7.25-1.59-7.76-5.45-.34-2.65.87-4.22,3.66-4.75,1.86-.36,3.7-.84,5.58-1.06a5.68,5.68,0,0,1,6.12,3.43c1.54,3,.66,5.4-2.64,6.6a37.13,37.13,0,0,1-5,1.23"/><path class="cls-1" d="M139.5,355.07c.88,3.13,1.69,6,2.75,9.76-.43,1.41-2,2.49-4.36,1.36a80.7,80.7,0,0,1-9.1-4.95c-2.42-1.55-3.14-3.77-2.36-5.47s3.92-3.07,6.22-2.57c2.46.54,4.87,1.32,6.85,1.87"/><path class="cls-1" d="M345.93,281.28l10.77-4.57c-.07-.26-.13-.52-.2-.79,2,.41,4.07.67,6,1.26,2.12.63,3,2.12,2.49,4.34-.94,4.51-4.2,6.31-8.61,5-2.88-.86-5.9-1.21-9.32-1.88l-1.16-3.35"/><path class="cls-1" d="M336.93,508.32c-1.6-5.3-4.83-8.35-10.81-8.24v-3.86c2.25-2.15,4.27-3.82,6-5.75a4.76,4.76,0,0,1,6.21-1.08c1.69,1,3,4.25,1.78,5.69-3.26,4-2.91,8.5-3.15,13.24"/><path class="cls-1" d="M229.26,250.22,236.2,253c2.64,1.07,3.76,2.74,3.32,4.92a5.23,5.23,0,0,1-5.26,4.47,12.56,12.56,0,0,1-9-3.56c-3.28-3.34-2.26-6.83,2.32-8.1.75-.2,1.49-.45,1.71-.52"/><path class="cls-1" d="M442.69,361c3.6.22,6.84.05,9.88.7,4.31.91,5.34,5.19,2.25,8.25a14.17,14.17,0,0,1-1.5,1.15,8.56,8.56,0,0,1-9,1.16c-3.29-1.41-1.52-4.68-2.43-7-.38-1,.41-2.36.82-4.27"/><path class="cls-1" d="M287.94,537.31c0-.08-.12-.68-.29-1.25-1.13-3.67-.83-4.85,1.73-6.77,2.95-2.22,5.91-2.55,8.34-.93a6.25,6.25,0,0,1,2.53,7.37c-.72,2.25-2.11,4.3-3.26,6.56l-9.05-5"/><path class="cls-1" d="M191.45,414.27l-.6-3.49,7.8-3a98.83,98.83,0,0,1,9.41,3.92c3.35,1.76,3.36,3.74.5,6.09-3.51,2.89-4.82,2.85-8.46-.22-2.61-2.21-3.47-2.54-8.65-3.32"/><path class="cls-1" d="M341.71,268.11a62.91,62.91,0,0,0,6.05-3.67c1.78-1.37,3.17-1,4.67.24a7,7,0,0,1-1.68,11.64,14.24,14.24,0,0,1-2.27.7c-5.58,1.44-6.2,1-6.53-4.68-.08-1.38-.16-2.76-.24-4.23"/><path class="cls-1" d="M172.87,319h4.23l5.76,7.39.67-.39c.14,1.65.28,3.29.41,4.87-6,2.34-12.32.7-15.65-3.89,1.43-2.5,2.85-5,4.58-8"/><path class="cls-1" d="M281.05,512.05a38,38,0,0,1,6.15-.4,4.72,4.72,0,0,1,4.4,4.24,9.17,9.17,0,0,1-3.6,9c-1.81,1.46-3.6,3-5.82,4.78l-4.82-1.56c6.65-7.59,6.92-8.7,3.69-16"/><path class="cls-1" d="M418.42,272.35c-.56-.72-1.09-1.5-1.73-2.18s-1.4-1.25-2.53-2.25c3.66-3.06,4.48-7.15,3.92-11.76l4.93-.56c1.69,2.32,3.47,4.46,4.89,6.81,1.34,2.19-.82,6.2-3.86,7.57-1.58.71-3.2,1.35-5.62,2.37"/><path class="cls-1" d="M354.91,340.88a14,14,0,0,0-10.32-5.58c-1.36-.12-2.59-1.83-4.11-3,2.21-1.68,3.93-3,5.46-4.15,2.29.16,4.32.4,6.35.42,3.26,0,6.47,2,7,4.36.7,3-.94,6-4.42,7.93"/><path class="cls-1" d="M134.81,307.68c-.07-3.4,2.2-5,5.51-4s6.36,2.35,8.16,5.58c.89,1.6,1.64,3.13.62,4.74a6,6,0,0,1-5.52,3.07c-3.21-.19-8.7-6.17-8.77-9.37"/><path class="cls-1" d="M381.75,538.36c-3.37-1.62-5.71-2.86-8.16-3.87-1.57-.66-2.19-2.09-.9-2.67,4.15-1.83,7.49-6,12.84-4.62a13,13,0,0,1,3.54,1.19c2.3,1.44,2.34,4.85-.26,6.65-2.25,1.56-5,2.4-7.06,3.32"/><path class="cls-1" d="M291.28,349.45c-4.6-.42-8.1-1.87-10.24-5.67-1.52-2.69-.57-5.44,2.32-7.09a5.77,5.77,0,0,1,7.08,1.37,49.54,49.54,0,0,0,3.71,4.22c1.39,1.35,2.24,3,1.18,4.53-.85,1.21-2.66,1.78-4.05,2.64"/><path class="cls-1" d="M219,310.35c1,1.67,2.07,3.37,3.11,5.06-.46,3.4-1.81,6-5.56,7.14-3,.88-6.27.35-7.68-1.71-1.31-1.9-.62-6.34,1.33-8.1a10.31,10.31,0,0,1,8.8-2.39"/><path class="cls-1" d="M339.53,502.13c.22-.44.54-2.61,1.7-3.17,2.7-1.31,5.83-1.73,8.6.23a13.06,13.06,0,0,1,2.35,2.29c3.29,3.89,2,7.41-3,8.52-5.26,1.16-9.76-1.95-9.63-7.87"/><path class="cls-1" d="M178.44,490.14c2.81.65,5.48,1.05,8,1.89,3.25,1.1,5.14,4,4.47,6.22-1,3.23-4.14,4.9-7.93,4.19-6.75-1.26-8.83-6.35-4.54-12.3"/><path class="cls-1" d="M364.4,396c-.58-2.37-1.23-4.73-1.71-7.12a4.8,4.8,0,0,1,6.36-5.6,9.9,9.9,0,0,1,6.21,5.44,5.25,5.25,0,0,1-3,6.94,16.23,16.23,0,0,1-7.89.34"/><path class="cls-1" d="M296.21,383.1c4.05-1.84,7.24-4,11.32-3a12.11,12.11,0,0,1,3.12,1c2.88,1.55,3.81,3.21,3.34,5.51-.39,1.93-2.57,3.42-5.43,3.73-3.68.4-7.05-.33-9.65-3a23.86,23.86,0,0,1-2.7-4.24"/><path class="cls-1" d="M235.61,275.37c-2.08,1-3.93,1.83-5.76,2.73-3.44,1.69-3.63,1.67-7.43-1.35,3.08-3.48,5.15-7.49,4.05-12.24l11.73.81c-2.34,2.79-3.76,6.12-2.59,10.05"/><path class="cls-1" d="M335.15,292.57c-1.82-1.64-3.3-3-4.84-4.37-3.2-2.77-3.52-4.48-1.21-6.93,2.94-3.11,6.51-3.67,9.21-1.38,2.31,1.95,3.68,4.46,2.88,7.39a6.68,6.68,0,0,1-6,5.29"/><path class="cls-1" d="M222.71,369l7.66-5.81,4.1,1.19c3,.86,5.27,2.8,5.19,4.73-.13,2.94-2.39,4.13-4.83,5.1A9.17,9.17,0,0,1,222.71,369"/><path class="cls-1" d="M314.69,334.41a31.61,31.61,0,0,1,4.16,1.16c4.1,1.69,4.84,4.87,2,8.13a5.79,5.79,0,0,1-6.52,1.72c-2.55-.86-5.87-.53-6.84-4.16s-.11-5.41,3.44-6.36a30.75,30.75,0,0,1,3.78-.49"/><path class="cls-1" d="M370.77,357.94c.22-1,.51-2,.68-3,.63-3.77,1.61-4.87,5-5.49,3.77-.69,8.25,1,9.68,3.49.89,1.55.06,2.63-.86,3.71-3.6,4.24-8.84,4.73-14.48,1.28"/><path class="cls-1" d="M242.48,280.09c-.48,4.91-.88,9-1.3,13.18-3.12.64-7.24-1.61-8.83-5.2-1.76-3.95-.83-7.1,2.61-9.33,1.79-1.17,3.43-1.47,5.24-.1a23.64,23.64,0,0,0,2.28,1.45"/><path class="cls-1" d="M297.51,421.67l-3.27-.47a53.37,53.37,0,0,0-2-6.63c-.91-2-4.47-2-4.63-5.24,3.84-1.11,8.26-1.51,9.6-6.07,5.54,1.72,6.11,2.8,4,7.49-.68,1.52-1.63,2.93-2.39,4.42a12,12,0,0,0-1.23,2.95,19.29,19.29,0,0,0-.05,3.55"/><path class="cls-1" d="M327.66,330.23c3,.84,5.59,1.54,8.15,2.23,3.21.86,5.22,3.87,4.39,6.6s-3.75,4-7.22,3.06c-.91-.26-1.82-.54-2.74-.76s-1.84-.34-2.68-.5c-.88-2.37-1.72-4.63-2.82-7.61l2.92-3"/><path class="cls-1" d="M249.8,217.3a11,11,0,0,1,.82-1.89c1.17-1.77,2.6-3.4,3.61-5.24a7.66,7.66,0,0,1,6.06-4,49,49,0,0,1,6.84-.07c1.34,4.52,1.36,4.54-1.73,6.51-2.38,1.52-4.67,3.3-7.27,4.33-2.35.92-5.06,1-7.61,1.4l-.72-1.08"/><path class="cls-1" d="M189,480c.5-4.61-1.89-8-5.36-10.69,3.87-4.06,11.67-3.77,14.44.58a5.82,5.82,0,0,1,.43,4.31c-1.06,3.55-4.15,5.32-9.51,5.8"/><path class="cls-1" d="M278.82,414.47a24,24,0,0,1,5.23.08,14.33,14.33,0,0,1,5.47,2.39c1.82,1.41,1.5,3.24-.44,4.63A29.34,29.34,0,0,1,285,424c-4.22,2.07-10-.82-10.77-5.32-.43-2.6,1.63-4.59,4.59-4.19"/><path class="cls-1" d="M392,284.13c-1-3.52-1.81-6.2-2.8-9.57,1.75-2.83,5.19-3.52,9-3.28a3.59,3.59,0,0,1,2,1c2,2,2,6.55.05,9.08-2.61,3.39-5.13,4.1-8.29,2.77"/><path class="cls-1" d="M268.55,241.58c-4.05,2.39-8.14,2-12.08.72-3.3-1.13-3.07-5,.32-7.28,2.36-1.55,4.81-3,7.33-4.49,1.27,1.41,3.18,2.76,3.91,4.56s.39,4.22.52,6.49"/><path class="cls-1" d="M256.57,366.57c-4.71,6-7.73,6.94-13.14,4.75q-.69-4.47-1.38-8.88l7.59-3.33c4.17.85,2.41,6.48,6.93,7.46"/><path class="cls-1" d="M299.31,422.05c.55-5.44,2.53-7.55,6.95-7.41,4.14.12,7,3.44,7,8.16l-8,5.44-6-6.19"/><path class="cls-1" d="M352,248.14c-.16-1.38-.54-2.34-.33-3.15a8,8,0,0,0-1.32-7c-1.51-2.2-.89-3.59,1.59-4.63,2.78-1.16,8,.82,10,3.77,1.23,1.83.5,4.65-2,7a14.84,14.84,0,0,1-7.92,4"/><path class="cls-1" d="M418.07,376.18c4.81,2.76,9.46,3.86,14.76,2.41.15,2.65.29,4.89.41,7.1l-5.13,3.69-11.55-6.17,1.51-7"/><path class="cls-1" d="M231.28,302.34c1.06,4.66,4.84,5.86,8.44,7.4-.55,3.41-3.07,4.4-5.91,5-3.09.65-6,.45-8.48-1.79-3.41-3.09-2.64-7.5,1.67-9.34a40.63,40.63,0,0,1,4.28-1.26"/><path class="cls-1" d="M361.87,361c4.64-2.29,8.86-.67,12.67,2.64,2.44,2.11,2.45,4.68.11,6.82a7.61,7.61,0,0,1-7.48,2,4.37,4.37,0,0,1-2.5-2.31c-1.07-2.81-1.79-5.75-2.8-9.15"/><path class="cls-1" d="M305.3,527.74c-2.5-1.6-4.77-2.94-6.9-4.47a3.7,3.7,0,0,1-1.38-2.2c-.6-3.72,4.54-7.79,8.2-6.55a8,8,0,0,1,5.51,6.4c.53,2.69-1.48,4.23-3.27,5.74a9,9,0,0,1-2.16,1.08"/><path class="cls-1" d="M358,487.84c-1.51-3.64-2.83-6.83-4.25-10.24l5.86-6.39c1.13,1.21,2.21,2.55,3.49,3.68,2.37,2.08,4.23,4.38,3.3,7.67-.78,2.76-4.93,5.14-8.4,5.28"/><path class="cls-1" d="M360.26,308.6c1.72-1.28,3.15-2.47,4.7-3.5,2.16-1.43,4.5-2.35,7.22-1.74,2.18.48,3.95,1.38,4.2,3.81s-.19,4.18-2.59,5.46c-4.55,2.43-9.94,1.87-12.58-1.64a9.17,9.17,0,0,1-.95-2.39"/><path class="cls-1" d="M261.45,218.75c2.76-1.32,5.09-2.62,7.55-3.57,3.09-1.2,7.41,1.34,8.55,4.8.79,2.41-1,5.46-4.12,6.29a15.28,15.28,0,0,1-5.56,0c-2.23-.27-2.85-1.85-3.27-3.88-.23-1.14-1.7-2-3.15-3.63"/><path class="cls-1" d="M469,286.94c2.54,5.87,1.27,10.45-3.7,12.49-2.19.9-4.93.74-7.41.68-3-.07-3-3.24-5.13-4.45a10.62,10.62,0,0,1,7-3.39c1.77-.15,3.49-1.35,5.11-2.28a47.69,47.69,0,0,0,4.1-3.05"/><path class="cls-1" d="M294.21,480.05c-.14,2.87-3.59,5.23-7.38,5-3.52-.17-6.78-3.3-6.76-6.49,0-2.73,3.86-5.31,7.8-5.22a6.31,6.31,0,0,1,6.34,6.67"/><path class="cls-1" d="M175.82,259.61c.38,1.51.75,2.68,1,3.88.72,3.83-1.91,6.75-5.87,6.36a16.84,16.84,0,0,1-4.61-1.19c-2.94-1.17-3.43-2.32-2.59-5.35a4.59,4.59,0,0,1,.15-.44c.62-1.69.8-3.91,2-4.9.78-.63,3.11.6,4.77.9s3.14.46,5.15.74"/><path class="cls-1" d="M432.93,389.44a76.26,76.26,0,0,1,8.32,4c2.76,1.75,2.74,4,.35,6.18a8.65,8.65,0,0,1-7,2.38c-2.52-.31-4.74-1.55-5.39-4-.84-3.15-.4-6.18,3.72-8.55"/><path class="cls-1" d="M238.79,509.8c-.65,2.33-1.27,4.51-2,7.23-3.07-.38-6-.55-8.91-1.18a5.05,5.05,0,0,1-4.06-4.61c-.25-2.33,1.27-3.59,3.37-4.44,1.29-.52,2.5-1.26,3.79-1.93l7.84,4.93"/><path class="cls-1" d="M321.73,373c.1,3.63-1.81,5.81-4.86,5.31-3.46-.56-6.87-1.86-8.61-5.1a9.39,9.39,0,0,1-.55-4.83,3.14,3.14,0,0,1,1.77-2c2.75-1.22,10.3,1.71,11.6,4.42a11.48,11.48,0,0,1,.65,2.18"/><path class="cls-1" d="M316.36,538.46c.69-1.52,1.08-2.35,1.43-3.18,1.78-4.19,4.44-5.41,8.79-4,3.25,1,5.7,4.54,4.84,7-1,2.86-5.52,5-8.57,3.76a63.8,63.8,0,0,1-6.49-3.52"/><path class="cls-1" d="M444.06,254.21c4.9.62,8.1,3.38,10.69,6.67,2,2.58.69,5.39-.84,7.79s-3.75,2.52-6.56,1.85c-.23-4.32.13-8.9-4.9-11.49l1.61-4.82"/><path class="cls-1" d="M289.6,569.42c-6.17,1.07-8.76.09-11.3-4.12,1-1.89,2-3.75,3-5.63,1.7-3.27,7-3.7,9.07-.62,1.48,2.18,2.83,4.47.67,7.13a12.49,12.49,0,0,0-1.44,3.24"/><path class="cls-1" d="M388.82,510.58c1.4-2,2.55-3.61,3.75-5.22a5.63,5.63,0,0,1,6.65-2.21c2.74.8,2.94,2.84,2.9,5.13-.11,5.49-2.25,7.37-9.26,7.82l-4-5.52"/><path class="cls-1" d="M320.91,482.71c1.47-2.1,2.37-3.18,3-4.38,1.17-2.1,2-4.46.65-6.64s-.09-3.09,1.86-4.58a112.77,112.77,0,0,1,7.66,8.56c1.91,2.61-.84,7.44-4.35,7.68-2.63.19-5.32-.35-8.86-.64"/><path class="cls-1" d="M319.48,306.67c6.62-1.16,10.46-.13,12.12,3.15,2.27,4.47-1.86,6.25-4.11,9.08l-9-4.11c.32-2.58.65-5.27,1-8.12"/><path class="cls-1" d="M395.77,466.67l7.83-5c3.59,1.34,7.33,2.55,10.88,4.16a5.34,5.34,0,0,1,2.75,3.29c.15.79-1.42,2.17-2.51,2.82a12.64,12.64,0,0,1-4.05,1.22c-1.47.3-2.8.11-3.66-1.39-2.12-3.69-5.32-5.1-9.62-4.17a3.18,3.18,0,0,1-1.34-.27c-.09,0-.12-.26-.28-.66"/><path class="cls-1" d="M358.89,438.77c5.41,2.38,7.4,6.23,5.94,10.54-1.35,4-5.25,5.93-10.19,5.07l-2.24-6.85c3-1.8,6.17-4.13,6.49-8.76"/><path class="cls-1" d="M246.24,424.8c-.06,2.83-2.61,5.2-6,5.36a12.67,12.67,0,0,1-4.21-.68c-3.45-1.06-4.87-2.53-4.61-4.5.32-2.52,3.64-5.23,6.52-5.21a36.34,36.34,0,0,1,4.29.37c3,.39,4.11,1.66,4.05,4.66"/><path class="cls-1" d="M406.65,483c3.73,6.15,9.43,7.45,16.09,6.87-.31,2-.54,3.48-.76,4.86-3.16,1.56-6.09,3.58-9.52,1.68a25,25,0,0,1-4.57-3.73c-.66-.62-.93-1.61-1.53-2.3-2.83-3.26-2.85-3.24.29-7.38"/><path class="cls-1" d="M441.75,451.83h13.94c.37,3,1.19,6.52-2.79,8.84a8.14,8.14,0,0,1-9.39-.57c-2.85-2.33-3.36-4.55-1.76-8.27"/><path class="cls-1" d="M320.28,303c-2.56-3.1-1-6.45-1.35-9.54-.07-.64,1.55-1.84,2.59-2.15,3.19-1,6.5.54,8.57,3.56,1.76,2.57,1.42,4.37-1.45,8.13Z"/><path class="cls-1" d="M216.14,240.45l3.23-4.07,10.72,1.72c1.44,5.46.15,8.32-4.31,9.65-3.53,1.05-7.37-1.8-9.64-7.3"/><path class="cls-1" d="M277.44,546.78l-7.06-3.32c2.78-3.55,5.18-7.29,4.33-12.39a9.81,9.81,0,0,1,8.06,3.5c2.12,2.55,2,4.44-.35,6.94-1.58,1.69-3.18,3.36-5,5.27"/><path class="cls-1" d="M196.58,321.07c-3.68,4-10.11,4.49-13.6,1a4.83,4.83,0,0,1-.92-3.73c.41-2.44,3-4.73,5.14-4.82,3.16-.15,6,.54,7.68,3.5a40.41,40.41,0,0,1,1.7,4.07"/><path class="cls-1" d="M353.3,258.25v-4.33c2.74-1.19,5.49-2.35,8.21-3.57,3.55-1.6,7.25-.21,8.24,3.43.51,1.86.36,3.9.53,6.3-3.27-.69-6-1.47-8.72-1.77a80.67,80.67,0,0,0-8.26-.06"/><path class="cls-1" d="M432.28,333.1l-6.88-4.7c.19-1.77.42-3.87.67-6.27h11.42c1.76,1.86,3.11,4.2,1.79,7.21-1.39,3.2-4.17,4-7,3.76"/><path class="cls-1" d="M196,365.42a43.84,43.84,0,0,0-6.11,1.65c-3.19,1.39-6.23.42-8.28-3a5.42,5.42,0,0,1,1.79-7,6.14,6.14,0,0,1,8.52,1.21c1.57,2.27,2.76,4.8,4.08,7.13"/><path class="cls-1" d="M173,315.16c-3.73,0-6.23-2-6.21-4.93,0-3.73,3.47-6.66,7.68-6.57,3.78.08,5.64,2.3,5.5,6.55-.08,2.62-3.4,5-7,5"/><path class="cls-1" d="M180.53,484.84c-2.73-3.63-5.21-6.95-7.71-10.3l5.79-4.32c6.17,3,8.06,5.69,7.23,10.49-.57,3.32-2,4.27-5.31,4.13"/><path class="cls-1" d="M405.45,282.45v-9.51c4.78-2.85,7.09-3,9.24-.57s2,7.4-.3,9.87-5.35,2.5-8.94.21"/><path class="cls-1" d="M325.93,451c-.64-3.29-1.16-6-1.72-8.86l3-2.12c3.24-2.36,6.19-2,8.58,1.15,2.24,2.93,1.81,5.84-1.44,8-2.52,1.67-5.29,2.83-8.38,1.83"/><path class="cls-1" d="M399.26,446.41c.72-3.19,1.41-6.26,2.22-9.81.68-.28,1.78-.83,2.94-1.21,2.45-.81,4.83-.57,6.51,1.44s1,4.08.14,6.11a8.14,8.14,0,0,1-11.81,3.47"/><path class="cls-1" d="M366.34,417.17c.33-8.06,2.15-6.07-3.93-14.42,4.45-.9,7.81,1.19,10.81,3.63s3.33,5.77,1.69,8.36-4.31,3.4-8.57,2.43"/><path class="cls-1" d="M241.22,528.89a9.07,9.07,0,0,1,8.15,2.75,3.17,3.17,0,0,1,.54,4.19A9.31,9.31,0,0,1,238.5,540a3.81,3.81,0,0,1-1.34-5.87c1.25-1.77,2.65-3.45,4.06-5.26"/><path class="cls-1" d="M372.6,275.13c3.82-5.05,1-10.23,1.93-15.11a20.22,20.22,0,0,0,.13-2.5l2.23-.18c1.89,4.19,3.51,8.1,5.41,11.88,1.06,2.13,1.35,4.16,0,6.08s-3.39,1.43-5.26,1.14a37.49,37.49,0,0,1-4.41-1.31"/><path class="cls-1" d="M358.92,429.24c.17,3.82-2.36,5.54-5.33,4.54a35.14,35.14,0,0,0-5.86-1.55c-3.21-.51-4.35-2.2-3.18-5.13,1.84-4.62,8.63-5.59,12.23-1.61a16.34,16.34,0,0,1,2.14,3.75"/><path class="cls-1" d="M337.89,345.53l6.56-7.22c2.5.43,5.6.74,7.62,3.68a5.34,5.34,0,0,1,.7,5.66c-.91,1.91-2.82,1.84-4.57,1.68-3.83-.36-8.13.3-10.31-3.8"/><path class="cls-1" d="M315.21,480.24c-1.88-.3-3.47-.46-5-.82a3.83,3.83,0,0,1-3.21-3.56c-.21-1.76.47-2.81,2-3.81,3.88-2.61,8.38-2.68,11.38.06,2.79,2.54,2.3,5.93-1.22,7.4a16.51,16.51,0,0,1-3.91.73"/><path class="cls-1" d="M253.29,233c-1.83-1-4.51-1.54-5.31-3-1.09-2.05.42-4.27,2.24-6.07,2.51-2.51,5.16-3.24,8.54-1.89s4.08,3.65,2.15,6.6c-1.3,2-4.65,3.75-7.62,4.41"/><path class="cls-1" d="M173.26,232.31l6.29,4.26a3.08,3.08,0,0,1,.08,1.1c-.56,2.27-.15,5.07-3.65,5.68-3,.53-8.39-1.21-9.94-3.43a4.45,4.45,0,0,1,2.51-6.69c1.51-.4,3.07-.61,4.71-.92"/><path class="cls-1" d="M165.42,365.64c-.14,2.49-.25,4.44-.37,6.48-5,2.48-11.2,1.8-15-1.86-.6-.57-1.29-1.74-1.05-2.28a3.35,3.35,0,0,1,2.28-1.82,24.43,24.43,0,0,0,8.71-1.83c1.37-.59,3.68.84,5.42,1.31"/><path class="cls-1" d="M276.78,347.79c3.17,3.06,6.38,4.85,10.35,5.26,1.92.2,2.47,1.8,2.53,3.42a4.74,4.74,0,0,1-4,4.54c-3,.19-5.65.08-7.79-3s-3.56-6-1.09-10.18"/><path class="cls-1" d="M306,555.17c.22-2.93.28-5.37.67-7.77.14-.92,1.14-2.5,1.58-2.45a28,28,0,0,1,8.09,1.71c1.79.79,1.8,5.09.56,7.32-1.35,2.45-3.78,3.5-6.92,2.75a28,28,0,0,1-4-1.56"/><path class="cls-1" d="M138.91,415.22c-5,1.77-7.53,1-10.28-2.83-3.59-4.94-2.93-7,2.85-9.37,2-.85,3.93-2.29,6.18.23-1.1,3.83-3.34,8.05,1.25,12"/><path class="cls-1" d="M165.25,480.76c3.91-.36,6.28,1.47,8.21,3.77,2.25,2.7.55,6.52-3.06,6.86a11,11,0,0,1-9-3.35c-1.56-1.56-.93-3.44-.37-5.22.75-2.39,3-1.83,4.23-2.06"/><path class="cls-1" d="M430.1,244.54c4.78-.64,7.1.44,8,3.67,1.22,4.54-.06,8-3.32,9-3.5,1.12-5.51,0-7.49-3.82l2.85-8.88"/><path class="cls-1" d="M244.76,213.55c-4.47,0-6.32-1.3-6.24-4.46.09-3.84,2.47-6.54,5.76-6.54,4,0,7.53,2.68,7.31,5.62a5.71,5.71,0,0,1-6.83,5.38"/><path class="cls-1" d="M290.57,306a7.87,7.87,0,0,1-8.65,7.88,4.17,4.17,0,0,1-3.94-3.46c-.54-2.46.5-6.35,2.19-6.65,2.58-.44,5-1.88,7.87-1.07,2,.55,2.6,1.54,2.53,3.3"/><path class="cls-1" d="M329.4,435.76a37.27,37.27,0,0,0-1.48-4.79,32.26,32.26,0,0,0-2.45-3.86c2.44-4.29,6.81-5,9.75-1.43a13.61,13.61,0,0,1,2.83,5.17c.9,3.54-1.52,5.77-5.3,5.32l-3.35-.41"/><path class="cls-1" d="M143.34,340.51v8.33c-3.32,1.93-9.52,1.56-12.23-.89-1.52-1.37-1.24-3.15-.58-4.73s1.71-3.4,4.16-3a36,36,0,0,0,4.24.6,43,43,0,0,0,4.41-.3"/><path class="cls-1" d="M243.09,495c3.37,0,6,2.37,6.34,4.94.32,2.35-1,3.64-3.16,4.5-4.43,1.8-7.11,1.41-9.8-1.59-1.88-2.08-1.84-4,.55-5.38a42.18,42.18,0,0,1,6.07-2.47"/><path class="cls-1" d="M218.74,369.47c1.55,2.23,2.71,4.17,4.16,5.88,1.13,1.32,1.68,2.56,1,4.19a4.25,4.25,0,0,1-3.93,2.9,21,21,0,0,1-4.25-.42c-2.15-.38-3.93-1.39-4.69-3.47-.87-2.37.85-3.76,2.42-5.06,1.79-1.49,3.71-2.83,5.28-4"/><path class="cls-1" d="M214.07,407.57c4.53-3.18,8.65-1.85,12.5.62,3.13,2,2.76,4.91-.67,6.19a16,16,0,0,1-5.05,1c-5.67.14-7.49-2-6.78-7.84"/><path class="cls-1" d="M200.13,478.26c3-3.34,1.16-9.23,7.67-11.5a8.19,8.19,0,0,0,1.75,2.42c2.08,1.42,3.84,3.13,3.23,5.63-.7,2.91-3.06,4.59-6.08,5.26a6.6,6.6,0,0,1-6.57-1.81"/><path class="cls-1" d="M256.38,451.28c-3.64,3.63-7.81,5.76-13.12,4.75-4.16-.8-5.55-2.45-5.67-6.62,0-.91,0-1.83,0-2.77,2.21-1.39,4-1.39,5.81.68,3.39,3.81,8.11,3.86,13,4"/><path class="cls-1" d="M376.71,233.65l-7.6,2.69c-1.43-1.23-3-2.47-4.47-3.87s-1.53-2.95.16-4.34c.36-.3.74-.59,1.08-.91,1.91-1.79,3.52-4.05,6.85-2.44s4.62,3.83,4.36,7.87a4.16,4.16,0,0,1-.38,1"/><path class="cls-1" d="M383.3,491.65c1.09-2.22,2.33-4.34,3.18-6.6a5.94,5.94,0,0,1,4.73-4.11c1.53-.27,4,2.38,4.78,4.71s.54,4.29-1.5,5.88a9.83,9.83,0,0,1-11.19.12"/><path class="cls-1" d="M419.1,282.62c.13-2.24.21-3.6.3-5,.19-3.18,1.08-4.25,4.25-5.18,2.92-.85,5.66-.05,7.22,2.1,2.06,2.85-.79,8-5,8.56-2.08.27-4.28-.3-6.76-.51"/><path class="cls-1" d="M460.49,286.69l-5-12.93,4.1-3.29c3.21,1.15,6.32,3.15,7,7.22.84,4.75-3.06,6.59-6.16,9"/><path class="cls-1" d="M254,551.33a10.49,10.49,0,0,1-8.85-4.81c-1-1.45-.87-2.69,1-3.74,5.17-2.83,8.54-2.45,11.48,1.62,1,1.42,2,2.88,1,4.64a4.51,4.51,0,0,1-4.65,2.29"/><path class="cls-1" d="M262.76,255.54h8.76c.36,3.34.7,6.49,1,9.53-4.38,1.74-8.8,1.24-10.94-1.05-1.62-1.74-1.17-5.1,1.15-8.48"/><path class="cls-1" d="M178.84,357.19c-.4,2.48-1.7,3.64-4.41,3.88-2,.17-3.88,1.18-5.74,2-2.66,1.15-4.89.45-6.18-2.12-1.43-2.85-.92-4.94,1.83-6.16,2.4-1.07,4.72-2,7.48,0,1.93,1.36,4.65,1.66,7,2.43"/><path class="cls-1" d="M167.86,401v-9c4.2-2.1,6.73-1.55,9.25,2,.09.12.17.26.25.39,1.13,1.8,3.19,3.54,1.8,5.81-1.48,2.44-4.26,2.5-6.84,2.18a27,27,0,0,1-4.46-1.33"/><path class="cls-1" d="M226.84,282.84c.16,5.92,2.4,10.33,7.85,12.62,0,.54,0,.89-.1,1.1-.49.8-1.06,1.55-1.6,2.31-.17-.34-.35-.69-.52-1-2.76,0-5.52,0-8.28,0-.94,0-1.94.56-2.81.38-1.29-.27-3.07-.65-3.6-1.56-.86-1.45.63-2.46,2-3.16,4.27-2.23,6-6.05,7.1-10.67"/><path class="cls-1" d="M176.4,363.3l6.46,7c-.52,2.26-1.06,4.6-4.46,4.69-3.59.09-7.88-1.93-8.88-4.44-.88-2.2.1-4.05,1.9-5.22a27.24,27.24,0,0,1,5-2.06"/><path class="cls-1" d="M423.36,498.39c3.47.42,7,3.05,7.33,5.51a6.77,6.77,0,0,1-1,4.25c-.84,1.38-2.32,1-3.79.36a25.89,25.89,0,0,0-5.45-1.44,4.12,4.12,0,0,1-3.6-3.73c-.38-2.15,1.14-2.94,2.9-3.55,1.44-.5,2.85-1.11,3.58-1.4"/><path class="cls-1" d="M329.75,486.83c-.29,5.56-3.13,7.3-8.26,5.22-2-.82-4.21-1.31-6.43-2a.51.51,0,0,1-.2-.24c-.66-2-2.07-4.23,0-6,1.83-1.58,3.9-.17,5.84.41,3,.92,6,1.74,9.06,2.61"/><path class="cls-1" d="M198.93,447.5a74.35,74.35,0,0,1,13.95-.21c1.59.13,2.4,1.26,2.28,2.95-.29,4.11-5,7.28-8.92,5.88a4.38,4.38,0,0,1-1.75-1.4c-1.71-2.14-3.36-4.34-5.56-7.22"/><path class="cls-1" d="M168.22,420.81l8-9.78c-.33.06.44-.07,1.2-.25,3.37-.8,7.12,1.48,7.61,4.65a4.37,4.37,0,0,1-4.88,4.88c-2-.16-4.08-.89-6.09-.81a30.38,30.38,0,0,0-5.82,1.31"/><path class="cls-1" d="M433.22,335.71c.86.29,2.14.45,2.19.78.69,4.46,3.79,6.94,8,8.74-3.2,4.14-6.09,8-2.14,12.77l-3,3.4-3.07-1.76c.6-1.32,1.23-2.51,1.69-3.76a9.41,9.41,0,0,0-2.29-10.34c-2.9-2.9-3.13-5.82-1.47-9.83"/><path class="cls-1" d="M203.44,263c-.75,4.65-1.24,8.09-1.91,11.5-.38,2-1.9,2.82-3.91,2.57-2.54-.32-5.19-.71-6.48-3.24-.93-1.82.2-3.32,1.5-4.53,2.81-2.61,6.2-4.22,10.8-6.3"/><path class="cls-1" d="M152,251.31c1.86,2.29,3.1,4.27,4.8,5.74a3.4,3.4,0,0,1,1.05,4.09c-.54,1.75-1.64,3.05-3.65,3.11a8.53,8.53,0,0,1-7.72-3.74,4.09,4.09,0,0,1,.78-5.49,55.76,55.76,0,0,1,4.74-3.71"/><path class="cls-1" d="M273.63,241.64c-.76-3.95-1.32-6.9-1.89-9.85,2.72-2.09,5.24-1.27,7.72.49s4.23,4.16,4.38,7.27c.09,2-.93,3.28-3.17,3-2.46-.25-4.91-.66-7-1"/><path class="cls-1" d="M285.65,406.25a13.79,13.79,0,0,1-1.87-.15c-2.69-.46-4.55-2.05-4.64-3.91s1.91-4.69,3.87-5.34a12,12,0,0,1,2.79-.55c4.37-.38,6.1,1,6.26,4.77s-1.4,5.23-6.41,5.18"/><path class="cls-1" d="M165.3,284.72l10.4-2A32.84,32.84,0,0,1,178,287c1.25,3.36-.24,5.43-3.89,5.65a10.94,10.94,0,0,1-7.54-2.27c-2.32-1.78-2.44-2.58-1.24-5.66"/><path class="cls-1" d="M451.37,314.56c-.31-.19-.14-.14-.05,0,1.26,1.71,3.27,3.35,2,5.7s-3.79,3.64-6.69,3.78a4.07,4.07,0,0,1-4.06-1.86,42.47,42.47,0,0,0-2.77-3.51l1.58-4.09Z"/><path class="cls-1" d="M233,401.17c-3-.24-5.13-1.44-6.36-3.83s.35-4.5,1.6-6.39c1-1.55,3.87-1.65,5.58-.43.88.64,1.58,1.5,2.42,2.2,1.73,1.44,3.66,3,2.57,5.4s-3.69,2.66-5.81,3.05"/><path class="cls-1" d="M373,537a26.49,26.49,0,0,1,3.56,1.71c3,1.94,3.51,5.3.72,7.41-1.85,1.41-4.56,1.95-7,2.42-2.22.44-4.52.16-5.62-1.89L373,537"/><path class="cls-1" d="M224.51,489c-2.57-.07-7.61-3.51-8.48-5.8-.79-2.09,1.34-5.47,3.46-4.95,3.14.76,6.66,1.27,8.65,4.25a6.8,6.8,0,0,1,1,3.43c.08,2.47-1.08,3.15-4.65,3.07"/><path class="cls-1" d="M302.93,540.34l3.08-9.4a9.06,9.06,0,0,1,7.87-.16,3.17,3.17,0,0,1,1.71,2.33c-.2,5.61-6.95,9.51-12.66,7.23"/><path class="cls-1" d="M309.57,512.3a24.91,24.91,0,0,1,2.1-2.31c1.88-1.63,4-2.55,6.54-1.48a5.2,5.2,0,0,1,3.39,5.11c.09,2.86-.83,5.11-3.6,6.5a2.87,2.87,0,0,1-4.11-1c-1.45-2.17-2.79-4.4-4.32-6.82"/><path class="cls-1" d="M189.87,267.65c-2,2.85-3.74,5.42-5.65,7.85a4.37,4.37,0,0,1-6.27.91c-1.77-1.24-1.78-3.44-.23-5.75s2.69-4.43,4.09-6.76l8.06,3.75"/><path class="cls-1" d="M139.57,419.13c1.12.56,2.21,1.15,3.33,1.67,4.7,2.15,5.23,3.07,4.35,7.76-.48,2.55-1.58,3.37-4.29,3-3.05-.4-5.34-1.84-6.41-4.79-1.2-3.31.29-5.61,3-7.64"/><path class="cls-1" d="M317.86,330.92c-5.84-.13-6.11-.34-5.94-5a17.91,17.91,0,0,1,.9-4.48,3.24,3.24,0,0,1,1.43-1.73c1.86-1,7.89,1.94,8.85,4.2s-.65,5.8-3.38,6.78a5.2,5.2,0,0,1-1.86.22"/><path class="cls-1" d="M242.74,330.24c-2.39,3.22-5.06,5.46-9.23,4.88-3.51-.48-4.35-2.25-2.58-5.11,2.91-4.74,3-5.22,1.81-10.85a7.08,7.08,0,0,1,1.34-.27,11.84,11.84,0,0,1,1.66.28c-.22,5.06,1.85,8.93,7,11.07"/><path class="cls-1" d="M213.7,242.86l7,7.85c-1.92,2.87-3.47,3.45-7.51,2.61-4.28-.9-7.09-3.24-7.69-7.83l8.24-2.63"/><path class="cls-1" d="M169.08,246l12,.62c.06.08.23.21.22.33-.22,2.59,1.05,5.75-2.4,7.21s-6.87.32-9.93-1.36c-.77-.43-1.19-2.06-1.16-3.13s.75-2.3,1.25-3.67"/><path class="cls-1" d="M156.87,338.67c.71,1.11,1.43,2.12,2,3.19,1.66,2.95,1.32,5.46-.92,7-1.69,1.18-6.56.52-8-1.27a15.21,15.21,0,0,1-2.23-4c-.89-2.42.43-4.21,3.06-4.45,1.87-.18,3.74-.33,6-.52"/><path class="cls-1" d="M203.43,428c.4-1.61.77-3.08,1.1-4.36,4.63-2.85,8.69-1.39,12.65.85a4.23,4.23,0,0,1,1.72,5.25c-.69,1.53-2.91,2.22-4.94,1.41-1.77-.7-3.42-1.7-5.23-2.26a39.79,39.79,0,0,0-5.3-.89"/><path class="cls-1" d="M350.69,375,347,369.82a34.59,34.59,0,0,0,4.14-3.37,39,39,0,0,0,3.2-4.6c3.43,0,6.47,2.44,6.46,5.44a3.52,3.52,0,0,1-1.42,2.53c-2.69,1.79-5.55,3.36-8.64,5.17"/><path class="cls-1" d="M282.46,286.19c3.82,5.74,3.74,8.84-.14,12.54a4,4,0,0,1-6.73-1.78c-1.19-4.07,2.18-9.5,6.87-10.76"/><path class="cls-1" d="M172.21,456.37l2-4.53h7.92c.66,2.93,1.28,5.75,1.93,8.57.35,1.53.14,2.91-1.6,3.37-1.55.41-3.05.4-4.3-1.1-1.79-2.15-3.83-4.09-5.95-6.31"/><path class="cls-1" d="M200.59,425.35c-2.45,3.66-5.27,5-9,4.32-4.55-.83-5.85-2-6.57-5.85,6.21-4,11.54-3.51,15.61,1.53"/><path class="cls-1" d="M237.52,377.22a66.58,66.58,0,0,1,5.55,4.51c2.45,2.44,1.82,4.52-1.54,5.41-3,.79-5.95,1.16-8.67-.81s-2.78-5.06,0-6.92a33.78,33.78,0,0,1,4.67-2.19"/><path class="cls-1" d="M410.56,412.38c1.58-4.07.65-7.81-2.11-11.31l12.85,1.44c.61,7-3.66,11.15-10.74,9.87"/><path class="cls-1" d="M281.48,497.72a69.9,69.9,0,0,1-7.59-2.05c-1.29-.5-2.28-1.75-3.29-2.58,3-1.77,5.63-3.23,8.15-4.81,1.75-1.1,5.51-1.25,6.75.08,1.62,1.74.62,3.46-.41,5.09a22.74,22.74,0,0,1-1.88,2.69,13.78,13.78,0,0,1-1.73,1.58"/><path class="cls-1" d="M255.47,401.46l-8.69-4.72c-.49-1.9-1.09-4.23-1.71-6.59,3.68-2.47,6.51-1.56,11.44,3.75,2.19,2.36,1.94,4.25-1,7.56"/><path class="cls-1" d="M186.59,486.56c5.88-4.91,10.35-5.26,15.77-1.18-.14,2.25-1.53,3.91-3.27,5.28-2.26,1.79-4.56,1.68-6.89-.07-1.76-1.31-3.56-2.56-5.61-4"/><path class="cls-1" d="M250.69,424a21.88,21.88,0,0,1,0-3.24,5.2,5.2,0,0,1,5.5-4.14c2.94.28,4.78,2.15,4.15,5.1a11.62,11.62,0,0,1-3.12,6c-1.06,1-3.62,1-5.3.63-2.48-.56-1.26-2.73-1.26-4.32"/><path class="cls-1" d="M156.64,458.73c-4.93,2.63-9.6,2.18-12.54-1.16-1.49-1.68-2.09-3.55-.75-5.49s3.3-1.51,5.15-.87a27.5,27.5,0,0,1,4.82,2c2.1,1.21,3.8,2.84,3.32,5.56"/><path class="cls-1" d="M185.86,393.69c1.35.37,3.11.4,4.19,1.25a18.83,18.83,0,0,1,4.63,5.13c1,1.78-.53,4.61-2.71,5.24-3.17.9-6.25.76-8.53-1.41l2.42-10.21"/><path class="cls-1" d="M326,566.05c-4,0-5.91-1.79-5.38-5.19a3.56,3.56,0,0,1,.65-1.65c2.2-2.58,8.3-3.23,11.06-1.24,2,1.41,2.27,2.94.73,4.73a9.1,9.1,0,0,1-7.06,3.35"/><path class="cls-1" d="M215.86,439a10.91,10.91,0,0,1-12.52,4.2,3.63,3.63,0,0,1-2.07-4.94,4.82,4.82,0,0,1,4.86-3.09c3.65.17,7.18.93,9.73,3.83"/><path class="cls-1" d="M206.45,485.42c6.73-1.77,8.58,3.65,12.26,6.1-2.67,3.93-4,4.45-7.86,3.24a25.07,25.07,0,0,1-2.64-1.06c-3.1-1.39-3.55-2.21-2.79-5.35a28.73,28.73,0,0,1,1-2.93"/><path class="cls-1" d="M284.1,508.58c.95-2.73.11-6,3.54-7.92,1.32-.72,2.14-2.47,4-1.53,2.15,1.08,4.18,2.41,4.2,5.13a6.61,6.61,0,0,1-2.83,5.91l-8.92-1.59"/><path class="cls-1" d="M245.41,404.81a31.49,31.49,0,0,1,4.11,2.14c1.51,1,2.58,2.82,1.5,4.41a6.6,6.6,0,0,1-4.12,2.57c-1.78.23-3.72-.56-5.57-1a3.89,3.89,0,0,1-3.17-4.52c.2-2.43,1.91-3.38,4.31-3.36.64,0,1.27-.1,2.94-.24"/><path class="cls-1" d="M216.52,302.87l-1.91,3.22c-3.23-.24-5.94-1.08-7.83-3.8-1.77-2.56-1.85-4.08-.48-6.4s3.38-1.74,5.4-1.27l1.25.29,3.57,8"/><path class="cls-1" d="M138.6,385.8c-1.13,4.35-3.39,6.23-7.49,6.37-2.93.09-5.27-1.55-6.21-4.76a3.87,3.87,0,0,1,.55-3.24,4.14,4.14,0,0,1,3.3-1.06c3.23.66,6.36,1.7,9.85,2.69"/><path class="cls-1" d="M265.53,396.91a51.06,51.06,0,0,1-2.25-6.82,4.54,4.54,0,0,1,1-3.61c.59-.59,2.52-.61,3.4-.12,3.23,1.79,6.17,4,6,8.19-.1,2.41-1,3.29-3.5,3.28a18.48,18.48,0,0,1-3.32-.31,4.48,4.48,0,0,1-1.31-.61"/><path class="cls-1" d="M248,297.48c-.58,3.34-1,6-1.53,8.84-3.87,1.27-6.87-.75-9.69-2.53-2.06-1.3-1.15-5.31,1.56-5.94,3-.7,6.31-1.54,9.66-.37"/><path class="cls-1" d="M224.5,431.05c.1,9.25.1,9.25,3.94,13.55-2.74,2.53-7.32,2.82-9.58.42a3.9,3.9,0,0,1-.78-2.88c.33-2.37,1-4.71,1.59-7.5l4.83-3.59"/><path class="cls-1" d="M348,445.56c-1.64-.29-2.92-.4-4.12-.75-2.49-.73-3.35-2.35-2.83-5s1.55-3.41,4.35-3a21.85,21.85,0,0,1,6.76,1.79c3,1.53,2.92,3.86,0,5.59a18.55,18.55,0,0,1-4.13,1.38"/><path class="cls-1" d="M375,316l6-8.29a6.08,6.08,0,0,1,6.17,2.66c2.13,3,1.5,5.71-2.09,6.94S377.89,318.7,375,316"/><path class="cls-1" d="M393.33,476.89c.82-1.41,1.67-2.86,2.51-4.32a4.19,4.19,0,0,1,6-1.72c2,1.09,4.07,4.64,3.52,6.72a4.68,4.68,0,0,1-2.26,2.67c-3.47,1.66-7.27.27-9.74-3.35"/><path class="cls-1" d="M274.45,254.46c.09-.16.44-1.71,1-1.8,1.63-.24,3.74-.42,4.95.38a11.93,11.93,0,0,1,4.11,4.93,5.28,5.28,0,0,1-.6,4.6c-.64.81-2.91.92-4.26.6-3.65-.87-5.13-3.33-5.22-8.71"/><path class="cls-1" d="M187.68,327.42c9-.22,11.55-2.14,13.46-9.76,2.89.26,1.4,2.42,1.74,3.73.37,1.47.79,2.92,1.24,4.56a20.93,20.93,0,0,0-2.2,2.8c-1,1.79-2.54,2-4.41,2-3-.08-6,0-9.41,0-.12-.88-.26-2-.42-3.28"/><path class="cls-1" d="M367.85,437.57c3.26-4.71,11-5.48,14.51-1.62,1.53,1.67.22,4.54-2.54,5.22-4.73,1.16-8.64-.32-12-3.6"/><path class="cls-1" d="M230,495.61c-.22,1.85-.5,3.21-.52,4.58a3.53,3.53,0,0,1-3.41,3.77c-2.21,0-4.47-.92-6.65-1.6-.3-.1-.47-1.12-.42-1.69a7.57,7.57,0,0,1,4-6.43c2.63-1.42,4.82-.41,7,1.37"/><path class="cls-1" d="M329.24,368.82h-4.36l.81-.85-6-5.78c3-3.25,7.16-4.72,9.73-2.93,2.27,1.57,2.3,5.25-.15,9.56"/><path class="cls-1" d="M150.28,292.91c-.17,1.69-.27,2.74-.4,3.79-.53,4.3-2,5.23-6.31,4-.45-.12-.89-.3-1.34-.47-3.08-1.18-4.47-2.64-4.13-4.35s2.92-4.08,5.26-4.07a45.26,45.26,0,0,1,6.92,1.06"/><path class="cls-1" d="M231.3,358.33c-1-2.23-3.05-4.33-.21-6.92,3.74,1.68,7.72,3.09,12.15,2.61.71-.08,2.08.67,2.19,1.21a3.45,3.45,0,0,1-.8,2.81,7.51,7.51,0,0,1-7.44,1.79c-1.81-.55-3.67-.94-5.89-1.5"/><path class="cls-1" d="M158.43,406.66c4.35-.2,6.37,3.06,9.18,4.88,1.68,1.08,1.07,2.7-.26,4-2.62,2.5-6.74,2.29-10.93-.66.37-1.26.82-2.55,1.14-3.88s.55-2.71.87-4.31"/><path class="cls-1" d="M393.53,500.75l-2.15-3.66c2.46-1.57,4.84-3.27,7.4-4.64a5.43,5.43,0,0,1,3.93-.64c1,.41,1.73,2,2.13,3.15a6.48,6.48,0,0,1-.06,3.21c-.39,1.9-1.42,2.89-3.71,2.64a71.61,71.61,0,0,0-7.54-.06"/><path class="cls-1" d="M216.06,355.87l7.15.34c.48.51.76.69.88,1,2.14,4.6,1.16,6.75-3.89,7.89-2.06.47-4.37,1.12-6.46-1,.71-2.52,1.46-5.14,2.32-8.18"/><path class="cls-1" d="M325.36,517.65,336,511.58c2.85,1.22,3.89,2.57,3.4,4.69-.65,2.8-3.24,5.15-5.85,5-3.14-.16-6.38-.3-8.22-3.64"/><path class="cls-1" d="M200.42,394.52c5.37-1,8.67,1.2,9,6.43.15,2.6-1.3,4.31-3.72,4.38-3.29.1-5.18-1.28-5.23-3.89-.05-2.27,0-4.55,0-6.92"/><path class="cls-1" d="M145.67,403.35a6,6,0,0,1,5.75,6.21,4.45,4.45,0,0,1-4.47,4c-3.3,0-6.34-2.8-6.25-5.75s2-4.49,5-4.43"/><path class="cls-1" d="M293,393.48l3.18-4.1c2.27,1.14,4.47,2.33,6.75,3.35,2.71,1.22,3.47,3.63,1.56,5.86-1.74,2.05-3.88,3.22-6.09,2.1-2-2.66-3.64-4.86-5.4-7.21"/><path class="cls-1" d="M158.09,442.59c-3.68-.37-6.17-1.84-7.67-4.63-1.25-2.35-.28-3.77,2.43-4,3.68-.26,6.77,1.33,9.77,3a2.23,2.23,0,0,1,0,4.07,30.39,30.39,0,0,1-4.49,1.51"/><path class="cls-1" d="M232.87,406c3.09,1.14,1,3.09,1.51,4.39s.87,2.94,1.41,4.85c-1.73,1.58-3.57,3.46-5.62,5.1s-1.07,5-3.54,6.43c-1.91-3-3.58-5.59-5.06-7.92,2.67-1,6.06-1.76,9-3.39,3.52-2,2.46-5.82,2.35-9.46"/><path class="cls-1" d="M146.2,436.09a37.62,37.62,0,0,1,1.29,4.71,32.93,32.93,0,0,1,0,4.55c-3.67,1.39-6.72,1.09-8.36-.93s-1.39-4.12-.49-6.17c1.44-3.28,4.45-2.25,7.52-2.16"/><path class="cls-1" d="M142.18,388.47c1.71,1.85,3.59,3.65,5.16,5.68a2.34,2.34,0,0,1-1.11,3.84,22.89,22.89,0,0,1-7.32,1.3c-1,0-2.43-1.5-2.83-2.6-.29-.8.61-2.2,1.31-3.09,1.23-1.56,2.72-2.94,4.79-5.13"/><path class="cls-1" d="M424.69,331.27c2.08,1.72,4.44,3.29,4.25,6.57-.17,2.75-1.18,4-4,4.08a14.44,14.44,0,0,1-5.53-.78,2.61,2.61,0,0,1-.72-4.52c1.94-1.76,3.92-3.48,6-5.35"/><path class="cls-1" d="M391.21,315.91c0-6.82-3.3-10.94-11.55-11.5-.44-1.08-.93-2.27-1.81-4.4,4.84,2.81,9,4.66,13.75,4.1a1.36,1.36,0,0,1,.88.28c2.47,1.93,3,4.73,3,7.51.06,2.35-1.71,3.42-4.32,4"/><path class="cls-1" d="M309.15,559.85h6c2.91,3.66,2.9,5.43,0,7.89-2.23,1.91-5.56,2.08-7.34.35s-1.16-5.1,1.32-8.24"/><path class="cls-1" d="M172.42,383.63c-2.73,1.52-4.43,2.67-6.28,3.45a5.82,5.82,0,0,1-6.35-2c-1.16-2-.1-3.64,1.1-5.08a29.48,29.48,0,0,1,3.69-3.2l7.84,6.82"/><path class="cls-1" d="M146.56,466.38c3.92-1.25,7,.18,10.05,1.24a4,4,0,0,1,2.3,5,4.3,4.3,0,0,1-5.55,2.22c-3.42-1.63-6.47-3.8-6.8-8.43"/><path class="cls-1" d="M325.85,511.89a14.44,14.44,0,0,0-11-6.87c3.75-1,6.45-1.67,9.15-2.33a5.54,5.54,0,0,1,1.9-.14c2.26.23,4.72.53,5.55,2.93.89,2.59-1.37,3.85-3.15,5.14a22.13,22.13,0,0,1-2.49,1.27"/><path class="cls-1" d="M154.1,379.06c-.31,2.21-.66,4.61-1,7-6.61,1.43-10.29-5-7.58-11.89l8.58,4.89"/><path class="cls-1" d="M165.9,425.29c-2.46,3.68-3.33,3.78-11,1.35-.8-3.05-1.58-6.06-2.49-9.53,4.36,3.18,10.78,2.6,13.48,8.18"/><path class="cls-1" d="M398.61,386.59l4.56,1.8v8.2l-9.26,2.73-2.52-4c4.18-1.61,7-4.08,7.22-8.74"/><path class="cls-1" d="M361.19,435.2c3-4.5,1.38-8.28-1.06-12.13l3.35-2c3.24,2.62,6.58,4.94,5.27,9.57-1,3.49-2.9,4.66-7.56,4.59"/><path class="cls-1" d="M140.19,372.13c-.56,2.41-1.1,4.77-1.66,7.2-4.52.79-7.11-1.66-9.38-4.53-1.51-1.92-1-3.77.69-5.33l10.35,2.66"/><path class="cls-1" d="M406.91,521.68c-.52,2.42-1.6,4.17-4.23,4.41-3.07.29-6.09,0-8.52-2-1.7-1.44-.31-4.89,2.37-5.14,3.7-.35,7.65-.62,10.38,2.77"/><path class="cls-1" d="M358.83,381.75c-3.21,0-5.94-1.22-6.12-2.66s2.36-4.8,4.41-5.76c2.45-1.15,7.21,1.22,7.64,3.82s-2.34,4.63-5.93,4.6"/><path class="cls-1" d="M230.37,449.19a11.72,11.72,0,0,1,2.15,2c1.4,2.12.07,5.24-2.48,5.18a31.64,31.64,0,0,1-8.73-1.7c-1.77-.57-1.68-1.07-1.44-4.75l10.5-.72"/><path class="cls-1" d="M385.06,276.4c.58.35.93.46,1.1.69,1.14,1.51,3.42,2.71,1.63,5.09-1.34,1.78-4.7,2.47-7,1.46a1.77,1.77,0,0,1-.4-.24c-3.25-2.92-7-4.07-11.37-2.76-.33-3.77.3-4.36,3.14-3.29a25.79,25.79,0,0,0,3.06,1.24c3.67.87,7.26,1.17,9.79-2.19"/><path class="cls-1" d="M288.11,552.23a21.3,21.3,0,0,1-2.88-.6c-2.22-.75-2.7-2-1.54-3.88a17.08,17.08,0,0,1,2.07-2.53c2.66-3,4.15-3,7-.41,1.32,1.23,2.32,2.53,1.64,4.46s-2.14,2.58-4,2.83c-.62.09-1.26.08-2.28.13"/><path class="cls-1" d="M160.52,270.29a64.84,64.84,0,0,0,6.68,2.57,42.3,42.3,0,0,0,5.63.74c1.21,4.38-.19,6.25-4.46,6.12-3.79-.11-6.24-2.27-7.94-5.19-.55-.95,0-2.5.09-4.24"/><path class="cls-1" d="M194.27,386.74c.45-1.68.94-3.44,1.38-5.07,6.77-1.23,7.89-.56,10.32,5.89-4.1,3-8.09,2.78-11.7-.82"/><path class="cls-1" d="M262.92,307c-5.48,2.3-10.54.6-12.34-3.76-.77-1.88.37-4,3.2-5.8,3,4.61,3,4.61,8.46,6,.2,1.06.43,2.22.68,3.56"/><path class="cls-1" d="M275.46,362.58c-8.8,4.63-10.15,4.65-13.31,0a13,13,0,0,0,9.64-8.9c1.31,3.17,2.43,5.91,3.67,8.92"/><path class="cls-1" d="M335.74,401.41c-1.21,0-1.53,0-1.85,0-1.95-.12-4-.2-4.4-2.64-.31-2,1.43-3.95,4-4.47a16.63,16.63,0,0,1,4.28-.35,3.92,3.92,0,0,1,4,3.81c.19,2.52-1.55,3.14-3.59,3.43-1.1.15-2.22.2-2.45.22"/><path class="cls-1" d="M249.29,523.12l8.47-3.1c1.93.88,4.34,1.73,4.21,4.55-.07,1.63-4,4-6.36,4.21-3.68.28-5.88-1.66-6.32-5.66"/><path class="cls-1" d="M307,401.35c.46-2.69.88-5.2,1.36-8a23.22,23.22,0,0,0,2.83-.88c2.27-1,3.67.14,4.83,1.78a4.26,4.26,0,0,1-.48,5.53,7,7,0,0,1-8.54,1.56"/><path class="cls-1" d="M166.67,330.11l4.08,3c-2.07,3.68-1.9,7.12,1.64,10.07-2.47,1.23-4.12.1-5.47-1.09a23.55,23.55,0,0,1-4.33-4.93,3.59,3.59,0,0,1,.09-3.28c.93-1.37,2.44-2.37,4-3.79"/><path class="cls-1" d="M213.64,386.63c2.24,0,4.14-.08,6,0,2.6.13,3.3,1,2.94,3.5a5.89,5.89,0,0,1-7.45,4.51,22,22,0,0,1-4-2.07c1-2.35,1.78-4.24,2.5-6"/><path class="cls-1" d="M167.8,441.41c2.53-.68,4.28-1.26,6.08-1.61,2.71-.53,6.63,2.28,7.1,5,.39,2.22-1.21,3.86-3.64,3.59-4.34-.48-6.81-3.41-9.54-6.95"/><path class="cls-1" d="M140.1,329.28c.52,2.17,1,4.1,1.46,6.14-2.17,2.62-4.92,2.25-7.75,1.25s-3.5-3.74-1.64-5.89,4.53-2.61,7.93-1.5"/><path class="cls-1" d="M303.63,510.36c-.64-.36-2.57-.83-3.08-1.92s.2-2.9.93-4.05a5.84,5.84,0,0,1,7.5-2c1.39.63,3.06,1.29,2.55,3.31-.54,2.19-4.47,4.75-7.9,4.65"/><path class="cls-1" d="M236.14,477.64c3.47,1.19,5.67,2.82,6.85,5.56,1,2.35-.14,4.32-2.73,4.78-4.31.76-7.31-2.24-6.16-6.31a24.64,24.64,0,0,1,2-4"/><path class="cls-1" d="M184.15,386.7c-5.08-.18-6.67-1.74-6-5.22.64-3.27,3.29-4.47,6.3-2.77a13.21,13.21,0,0,1,2.55,2c1.11,1.05,2.86,2.31,1.69,3.82-.89,1.14-2.84,1.51-4.34,2.18-.26.12-.63,0-.21,0"/><path class="cls-1" d="M362.63,523.26c1.66-1.29,3.08-2.46,4.57-3.56,1.86-1.36,3.72-.56,5.28.43,1.79,1.14,3.13,3.12,2.34,5.09-.61,1.5-2.51,2.51-3.7,3.62l-8.49-5.58"/><path class="cls-1" d="M409.14,498.11l4.23,1.66c.49,2.42.95,4.75,1.45,7.25l-7.41,2.72c-3.27-4.34.08-7.68,1.73-11.63"/><path class="cls-1" d="M248.12,343.08c-1.13,1-2.31,2-3.41,3-2.42,2.31-5.21,2-8,1-2-.72-2.25-2.08-1.05-3.65,3.5-4.55,8.3-4.7,12.45-.33"/><path class="cls-1" d="M181.31,437.05c5.88-.56,10.34-.21,13.54,4.09-1.33,3.37-4.34,3.29-7.16,3.24-4.84-.09-3.52-4.84-6.38-7.33"/><path class="cls-1" d="M321.58,545.3c3.41,1,7.07-.36,9.95,2.12-.45,4.86-.8,5.19-5.5,5.39-.79,0-1.58.15-2.36.21s-1.5.1-2.17.14a4.44,4.44,0,0,1-.36-1.11c.12-2.13.27-4.25.44-6.75"/><path class="cls-1" d="M194.69,369.09l9.25,5.06c-3.82,2.83-7.45,3.65-11.47,2.53-2.67-.74-3.19-2.39-1.4-4.55a23.55,23.55,0,0,1,3.62-3"/><path class="cls-1" d="M337.81,560.32,333,553.77c.16-.31.39-.85.69-1.36.85-1.45,1.47-3.29,3.74-2.89a5.82,5.82,0,0,1,4.64,4.14c.68,1.9.65,3.66-1.27,4.91-1,.68-2.12,1.27-2.94,1.75"/><path class="cls-1" d="M276.09,509l-5.44-1.06c1.24-3.3,2.38-6.36,3.61-9.64a5.92,5.92,0,0,1,5.92,4c1.08,3.14-2.14,4.68-4.09,6.73"/><path class="cls-1" d="M224.77,347.54c-.58,4.56-1.68,5.3-6.4,4.71s-5.85-1.77-5.17-6c4.28-3.52,7.56.57,11.57,1.3"/><path class="cls-1" d="M225.38,332.41c1.67,4,1.67,4,6.29,7.36l-2.4,3.86c-3.63-.81-7.37-1.23-8.08-5.44-.51-3,1.42-4.75,4.19-5.78"/><path class="cls-1" d="M313.12,405.73c2.2-2.2,4.15-4.16,6.12-6.09a3.48,3.48,0,0,1,6,1.55c.32,1.4-.09,2.95-.17,4.42a41.11,41.11,0,0,0-6.48.93c-2,.62-3.72.67-5.43-.81"/><path class="cls-1" d="M399.35,219.06c4-.17,7.32,2,7.26,5.47,0,1.65-1.2,3.48-2.32,4.85-.84,1-2.45,1.43-3.86,2.2-.39-4.59-.74-8.56-1.08-12.52"/><path class="cls-1" d="M300.51,363.55c-4.89,2.55-11.1,0-14.93,5.47l-3.31-4.62c4.13.06,7.86-1.76,11.46-4.21,1.84-1.26,4.28.12,6.78,3.36"/><path class="cls-1" d="M164,463c4.44-1.79,8.28-1,10.48,2,1.41,1.9-.37,5.08-3.06,5.45a5.14,5.14,0,0,1-5.45-2.88c-.7-1.38-1.23-2.83-2-4.53"/><path class="cls-1" d="M317.3,502.08c-2.64-.06-4.9-2.07-4.69-4.17.21-1.94,2.54-3.87,4.68-3.88,3,0,6,2.26,5.82,4.34s-2.84,3.79-5.81,3.71"/><path class="cls-1" d="M333.06,524.89c-.27.86-.55,1.72-.8,2.51-.44.11-.8.33-1,.23-4.61-2.14-9.31-3.06-14.32-1.26-.94.34-2.1.14-3.68.21.48-1.41.79-2.35,1.25-3.71,3.68,1.1,7.05.87,9-2.07l9.55,4.09"/><path class="cls-1" d="M180.22,352.46c-2.26-.53-3.81-.87-5.34-1.27s-2.71-1.58-2.13-3c.49-1.28,1.78-3,2.87-3.14a12.12,12.12,0,0,1,5.89,1.2c1.38.61,2.74,2.11,1.7,3.78-.69,1.12-2.14,1.8-3,2.47"/><path class="cls-1" d="M169.78,428.71c2.47-1.45,4.63-3.26,7.69-3.12,2.84.12,4.89,1.62,4.75,3.49-.18,2.52-2.61,4.11-5.53,3.4-2.54-.61-5.36-.89-6.91-3.77"/><path class="cls-1" d="M171.11,451.39c-1.4,3.38-3.43,4-5.8,4a3.2,3.2,0,0,1-3.34-2.06c-.86-2-2-3.82-3.13-5.89,2.12-2.44,4.09.09,6,.77a53.39,53.39,0,0,1,6.26,3.17"/><path class="cls-1" d="M153.88,399.51c.28-2.3.56-4.58.84-6.82,2.64-.39,6.73,1.66,7.12,3.49a5.25,5.25,0,0,1-2.45,5.58c-2.74,1.31-4.11-.49-5.51-2.25"/><path class="cls-1" d="M200,334.75a18.87,18.87,0,0,1,1.35,3.41,3,3,0,0,1-2.59,3.72,8.79,8.79,0,0,1-2.85.13c-1.8-.24-4.08,0-4.12-2.74,0-3.09,1.93-5.21,4.77-5.09a30.75,30.75,0,0,1,3.44.57"/><path class="cls-1" d="M158.77,355a38.8,38.8,0,0,1-2.84,4.18c-1.89,2.15-4.32,1-6.23.22a9,9,0,0,1-4-3.57c-.3-.47,1.2-2,1.49-2.5L158.77,355"/><path class="cls-1" d="M260.9,270.76,271,272.59c.23,3.18-2.44,4.6-4.65,5.5-1.23.51-3.66-.63-5-1.7-1.88-1.5-2.12-3.65-.42-5.63"/><path class="cls-1" d="M219.15,327.37l8.41-7.48c2.92,2.33,3.75,4.81,2.16,7.06-1.81,2.57-5.87,2.78-10.57.42"/><path class="cls-1" d="M336.4,244.36c1.44-4.46,3.73-6.68,6.47-6.42s4.11,2.3,4.56,7.19l-11-.77"/><path class="cls-1" d="M270.08,480.21a12.27,12.27,0,0,1,1.62.16c3.13.8,4.52,2.11,4.38,4.07-.18,2.45-2.23,4.3-5.25,4.52a42.28,42.28,0,0,1-4.49-.17l3.74-8.58"/><path class="cls-1" d="M202.66,282.22c-.12.65.07,2.09-.57,2.64-3,2.61-11.14,1.14-13.17-2.27a6.4,6.4,0,0,1-.39-2.16l14.13,1.79"/><path class="cls-1" d="M325.9,371.57c5.51,1,6.75,3.55,4.55,9.57l-7.71-1.29c1-2.63,2-5.29,3.16-8.28"/><path class="cls-1" d="M338.93,449.67l1.73-3.21c2.42,1.05,4.77,1.88,6.93,3,3.7,2,3.87,4.72.43,8.35a15.59,15.59,0,0,0-9.09-8.17"/><path class="cls-1" d="M179.88,341.58a65.41,65.41,0,0,1-6.15-3.09,2.5,2.5,0,0,1-.49-2.42,2.83,2.83,0,0,1,2.18-1.29,27.41,27.41,0,0,1,5.64.66c1.81.39,3.32,1.36,3,3.46s-1.91,2.64-4.17,2.68"/><path class="cls-1" d="M332.74,486.13c4.18-4.54,6.54-8.74,2.19-14.16l4.11-.81,4.33,5.73c-4.72,1.27-6.79,4.34-5.94,9.24Z"/><path class="cls-1" d="M293.87,555.37l4.45-8.44c1.95-.2,4.24-.51,5.42,2,.74,1.57-1,4.25-3.7,5.29-1.69.66-3.62.71-6.17,1.16"/><path class="cls-1" d="M199.49,250.26l2.86-1.57C204.42,252,207,255,205.69,259c-.3.91-2,1.41-3.26,2.28-1-3.9-1.9-7.1-2.94-11"/><path class="cls-1" d="M276.83,303.2a26,26,0,0,1-1.66,2.18c-2.72,2.82-3.95,2.75-6.47-.29-1-1.24-2.15-2.46-.63-4a4.08,4.08,0,0,1,5.37-.27c1,.74,2,1.45,3.39,2.42"/><path class="cls-1" d="M216.46,461.54a4.07,4.07,0,0,1-5.14,2.87,19,19,0,0,1-6.35-2.58,1.56,1.56,0,0,1,1.05-2.71,15,15,0,0,1,5.13.26,37.28,37.28,0,0,1,5.31,2.16"/><path class="cls-1" d="M198.46,456.84c-3.05,3.3-5.05,4.11-7.35,2.62a4.49,4.49,0,0,1-1.9-3.22c0-.79,1.45-2.06,2.44-2.28,2.71-.59,5.41-.48,6.81,2.88"/><path class="cls-1" d="M262.49,246.26c4-.08,6.05.64,9.29,3.13-1.26,2.57-2.65,3.31-5.29,3-3.67-.47-3.55-3.28-4-6.09"/><path class="cls-1" d="M305.24,404.11c2.16.51,4.71-.33,5.24,2.31.41,2.12,5.18,2.76,1.8,6.18l-5.61-1.06c-.45-2.29-.87-4.5-1.43-7.43"/><path class="cls-1" d="M341.75,518.74c.23-2.3.43-4.26.66-6.68l5.95.64v6.93l-6.61-.89"/><path class="cls-1" d="M164.7,242.58c.46.78,1.3,1.53,1.16,2.07a36.33,36.33,0,0,1-2.42,7.75c-.67,1.37-2.24.58-3.15-.42A5.19,5.19,0,0,1,161,245c.86-.66,1.8-1.21,3.68-2.45"/><path class="cls-1" d="M406.59,231.65l5.94-2.84c4,3,4,4.79-.3,8.57l-5.64-5.73"/><path class="cls-1" d="M359,544.91c2.37.77,3.13,3,3.9,5.27-3.54,3-4.94,3.6-8.81,3.7l4.91-9"/><path class="cls-1" d="M242.36,335.31c2.57-1.2,3.27-4.61,7.07-4.39.41,3.16-.83,6.76,3.31,8.91l-1.25.72-9.13-5.24"/><path class="cls-1" d="M307,481.08l3.65,1.38a59.6,59.6,0,0,1,1,7.61c0,1.24-.9,2.49-2.28,3.54-.44-2.16-.94-4.31-1.32-6.48-.33-1.92-3.11-3.38-1-6.05"/><path class="cls-1" d="M303.09,566.74c-2.29,4.44-4,5.12-8.68,3.59,1.58-6.32,3.09-7,8.68-3.59"/><path class="cls-1" d="M407.41,249.62l-7.73,4.75-5.37-4.32c2.91-.18,5-.38,7.09-.42,1.91,0,3.72-2.9,6,0"/><path class="cls-1" d="M372.71,507.83c-1.64,1.36-3,2.53-4.55,3.79L365,507.85l4.92-3.86,2.84,3.84"/><path class="cls-1" d="M188,287.93l-5.3,1.11c-.34-2.62-.64-4.84-1-7.35l2.53-.23c1.22,2.12,2.34,4.07,3.73,6.47"/><path class="cls-1" d="M303.31,481.3l-5.57-.78c-.53-3.36-.53-3.36,4.7-4.47,1.67,2.23,1.67,2.23.87,5.25"/><path class="cls-1" d="M265.78,443.44v-4l6.7-.67c.34,1.09.64,2.08,1,3.38l-7.74,1.31"/><path class="cls-1" d="M193.71,347.1l-2.51,6.26-2.66-.49c.35-2.34.67-4.44,1-6.75l4.15,1"/><path class="cls-1" d="M304.57,560.88c-2.93-1-6.27-.28-10-2.39,3.29-.79,5.62-1.49,8-1.88,2.16-.37,2.73.82,2,4.27"/><path class="cls-1" d="M297.29,509.29l3.25,3-4.74,4.36-1.7-4.36,3.19-3"/><path class="cls-1" d="M185.54,306.46l5.34.24c-.27,1.64-.49,2.94-.7,4.22-4.5-.23-4.5-.23-4.64-4.46"/><path class="cls-1" d="M285.19,245.89c-3.07,2-5,4-8.47,3l-.74-3.48,9.21.44"/><path class="cls-1" d="M302,453.08l-5.05-7.1,3.38-1.44,2.29,8.23-.62.31"/><path class="cls-1" d="M392.54,248.76l-5.57-.35c-.49-2.86-1-5.56-1.41-8.22,1.44-.83,2.42-.6,2.36,1-.13,3.14,1.59,5.23,4.62,7.61"/><path class="cls-1" d="M259.28,331.52,257,336.1c-1.82-.52-3.93-.22-3.59-2.79.23-1.75,2.25-2.39,5.87-1.79"/><path class="cls-1" d="M453.82,309.9l7.45,4.52-3.41,2.7c-1.09-2.53-3.81-3.89-4-7.22"/><path class="cls-1" d="M136.33,319.73l6.49,2.82c-.45,1.57-.86,2.88-2.81,2.41-2.15-.52-3.46-2.32-3.68-5.23"/><path class="cls-1" d="M252.66,491.12c-3.37,4-5-.77-7.59-.62,1.21-2.2,1.21-2.2,7.59.62"/><path class="cls-1" d="M234.66,473.5l-4.75,4.25-2.37-2c2.69-.64,3.19-4.74,7.12-2.25"/><path class="cls-1" d="M382.29,219.74l-1.67,3.55-5.58-3,6.68-1.52.57,1"/><path class="cls-1" d="M385.68,268.31l5.3,1.2c-1.76,1.47-3.2,2.69-4.93,4.15-.11-1.62-.22-3.19-.37-5.35"/><path class="cls-1" d="M216.08,401.79v-3.88c1.72.18,3.39-1.42,5.71.6-1.86,1.08-3.38,1.95-5.71,3.28"/><path class="cls-1" d="M214.16,369.09l-4.63,3c-.48-.8-1-1.64-1.61-2.64,2.07-.66,3.59-3.14,6.24-.4"/><path class="cls-1" d="M293.28,357.28c.32-2.48-.61-4.86,3-5,.2,1.43.4,2.83.64,4.55l-3.64.48"/><path class="cls-1" d="M399,483.84c3.34.85,3.34.85,1.92,5.06-2.26-1.06-1.32-3-1.92-5.06"/><path class="cls-1" d="M203.24,465.23l-2.2,2-3.77-2.2c2.33-1.11,4.08-3.18,6,.18"/><path class="cls-1" d="M284.18,410.35l-4.84.4c.09-1.09.15-1.92.25-3.19l5,1.57-.36,1.22"/><path class="cls-1" d="M222.25,508.34c-4.68.73-5.71.28-6.29-2.72l6.29,2.72"/><path class="cls-1" d="M328.1,407.34c.93-1.34-.14-4.27,4-3.69-1.18,1.69-2.12,3-3.05,4.32l-.92-.63"/><path class="cls-1" d="M367.08,440.31l4.06,2.7L369,444.93c-.6-1.47-1.06-2.59-1.9-4.62"/><path class="cls-1" d="M216.75,455.63,222,459c-3.18.35-4.19-1.74-5.92-2.54l.63-.85"/><path class="cls-1" d="M242.17,523.52c1.81-1,3.44-1.28,4.37,1.06l-4.37-1.06"/><path class="cls-1" d="M334.74,541.29c.62-2.32.93-3.46,1.33-4.94.92.81,1.59,1.38,2.5,2.17l-3.83,2.77"/><path class="cls-1" d="M272.29,383.86c.9.32,1.8.62,2.66,1a7,7,0,0,1-.36,1.17l-2.59-1c.09-.41.19-.82.29-1.22"/><path class="cls-1" d="M341.26,427.26,339,424.49c.68-.18,1.13-.45,1.46-.34,1.39.44,1.38.48.77,3.11"/><path class="cls-1" d="M262,517.08c-2.53-1.63-2.37-2.75-1.56-3.83.16-.21,1.23-.09,1.24,0,.15,1,.2,2.1.32,3.86"/><path class="cls-1" d="M306.38,365.12l-2,3.2c-1.15-2.38-.28-2.86,2-3.2"/></svg>