<svg id="Capa_1" data-name="Capa 1" xmlns="http://www.w3.org/2000/svg" viewBox="0 0 598.72 863.8"><defs><style>.cls-1{fill:#3f92a0;fill-rule:evenodd;}</style></defs><title>cartes-bg</title><path class="cls-1" d="M219.17,267.54c.83-9.2-1.18-18.05-3.13-27-1.75,8.2,1.92,16.3,0,24.6-.92-4.38-2.26-8.72-2.67-13.15a163.1,163.1,0,0,1-.91-21.75,25.64,25.64,0,0,1,2.31-9.43,10.11,10.11,0,0,1-5.12-2.66,8.52,8.52,0,0,0,.16,1c.27,1.1-.27,2.43-.58,3.63-3,11.49-1.86,23.07-.13,34.52,1.38,9.15,4,18.1,5.55,27.23a50.37,50.37,0,0,1,.47,15.15A344.23,344.23,0,0,0,212,358.41,31.24,31.24,0,0,0,215.5,372a12.49,12.49,0,0,0,.59-2.36c.32-15.32.49-30.65,1-46A65.42,65.42,0,0,1,219,310.44c2.77-11.39,1.48-22.72.18-34.11a43.76,43.76,0,0,1,0-8.79"/><path class="cls-1" d="M449.22,382.9A28.73,28.73,0,0,0,447,370.66a21.2,21.2,0,0,1-1.26-6.33c-.69-6.93-1-13.91-1.88-20.82-1.05-8.65-2.82-17.27-7-24.95-5.43-10.05-10.36-20.48-18.1-29.13-.4-.45-.59-1.09-1-1.57-3.78-4.87-6.69-10.41-11.46-14.54-3.52-3-6.86-6.29-10.11-9.6-8.07-8.24-17.58-14.63-27-21.19-2.66-1.86-5.5-3.46-8.16-5.32a107.79,107.79,0,0,0-30.2-15c-14.33-4.39-28.45-9.33-41.86-16.07a96.16,96.16,0,0,1-18.92-2.61,9.77,9.77,0,0,0,.95,1.42,7.12,7.12,0,0,1,1.49,5.17c-.21,5.84,2,10.61,5.49,15.33,9.33,12.77,22.3,21.28,34.54,30.67,1.23.95,2.36,2,3.58,3a243.31,243.31,0,0,1,31.37,29.53c4.66,5.26,10.56,9.43,15.9,14.08,4.93,4.29,9.24,9,11.66,15.25a43,43,0,0,0,4.39,8.14,148.85,148.85,0,0,1,17,35.49,51.86,51.86,0,0,1,2.78,15c.14,4.63.89,9.23,1.19,13.85.57,8.64-.5,17.23-1.1,25.82-.08,1.15-.94,2.26-1.51,3.35a59.12,59.12,0,0,0-7.06,22.34c-.91,9.81-3.11,19.49-4.63,29.25-.83,5.34-1.32,10.73-2.11,16.07a111.7,111.7,0,0,1-2.47,14q-4.19,15-9.12,29.71a156.08,156.08,0,0,1-7.47,18.4c-3.1,6.36-6.84,12.42-10.38,18.57-5,8.74-12.43,15.23-20,21.73-12,10.26-25.88,16-40.88,19.88-12.29,3.21-24.6,6.23-37.1,8.45-11.12,2-22.4,2.6-33.65,3.55-10.13.86-20.1-.09-30.1-1.12a55.66,55.66,0,0,1-8.59-1.9l-3.15,8.77c9.13,4.11-5.23,21.67-7.92,22l-5.55,15.47c4.72,1.54,7.57-.75,10.1-4.44a49.42,49.42,0,0,1,7.17-8.43c3.89-3.58,7.87-7,10.45-11.7.95-1.73,2.28-2.22,4.25-1.88,13.62,2.36,27.29,4.28,41.17,2.54a18,18,0,0,1,2.32,0c19.22,0,38.42,1.33,57.6-1.85,10.41-1.72,20.86-2.94,31-6.16s20.1-7.19,28.74-13.88c7-5.4,14.28-10.4,21.56-15.42,5.47-3.76,11.31-6.91,16.62-11,11.38-8.74,19.87-19.29,24.76-32.93,3.7-10.32,9-20,12.33-30.54,2.56-8.27,5.69-16.31,4.7-25.33-.48-4.38.58-8.91.76-13.38a59.75,59.75,0,0,1,2.85-15.94c.79-2.44.67-5.2.79-7.82.35-7.88-.13-15.88,1.08-23.61,1.69-10.74.77-21.56,2.52-32.32,1.48-9.09.63-18.55.78-27.85m-38.18,27c-.3,4.48-.4,9-.91,13.44-1,9.07-2.44,18.1-3.41,27.18a115.12,115.12,0,0,0-.65,15.31c.24,7.72-1.54,15-3.44,22.39-1.62,6.29-3.24,12.59-4.36,19-1.27,7.26-4,14-6.76,20.72q-4.74,11.61-9.73,23.13a30.08,30.08,0,0,1-4.91,7.86,3.3,3.3,0,0,1,0-1.09Q383,542.18,389,526.62c3.32-8.54,6.15-17.18,7.09-26.4.38-3.64,1.81-7.2,2.91-10.75,2.56-8.32,4.65-16.71,4.07-25.53-.51-7.8,1-15.41,2-23.08,1.07-7.82,1.8-15.7,2.43-23.57s1.61-16.08,1.3-24.08c-.65-16.43-2.44-32.75-8.61-48.25-1-2.45-2.23-5-1.11-8.94,1.07,1.94,1.78,3,2.29,4.19a106.47,106.47,0,0,1,8.8,34.5c.48,6.48,1.58,12.93,1.78,19.42.16,5.22-.63,10.48-1,15.72"/><path class="cls-1" d="M334.27,447.59c8.66,5.43,9.35,5.57,16.41,3.25,1.12,3.17,2.06,6.22.68,9.67a13,13,0,0,0-.42,9.07c.82,2.44-.38,4-2.52,4.65a10.62,10.62,0,0,1-4.52.39c-6.14-.82-9.74-5-12.42-10.07a4.74,4.74,0,0,1,.67-6c1.82-1.85,2.29-4.3,2.13-6.87-.08-1.33,0-2.66,0-4.13"/><path class="cls-1" d="M356,439.87l3-1.07a15.79,15.79,0,0,0,16.41,6.57c4.41,7.45.15,15.49-8,16a13.25,13.25,0,0,1-10.85-4.14c-3-3.07-3.8-6.46-2.13-10.55.79-1.93.95-4.11,1.54-6.8"/><path class="cls-1" d="M337.92,511.1h9.46c2.88,1.47,5.2,2.63,7.51,3.84a5.74,5.74,0,0,1,2.22,1.44c2.42,3.78-1.22,11.52-5.7,11.94a27.83,27.83,0,0,1-6.94-.27c-5.78-.9-8.55-4.66-7.84-10.49.26-2.14.83-4.23,1.29-6.46"/><path class="cls-1" d="M377.19,382.07c-5.11-.33-8.57-2.4-11.07-6-1.39-2-1.85-4.48-.37-6.52,1.92-2.64,4.54-5.29,8-4.69,4.24.74,8.64,1.39,11.87,5.19,3.92,4.61,1.4,9.28-2.74,10.71a52.85,52.85,0,0,1-5.68,1.34"/><path class="cls-1" d="M300.34,403.17c4.67.77,7.08,4,8.78,8a6.48,6.48,0,0,1-1.15,7.3c-4.6,5.27-9.55,6.31-15.64,3.09a4.9,4.9,0,0,1-2.88-4.83c0-1.95-.19-3.9-.31-5.91,6.79-2.11,6.86-2.17,11.2-7.66"/><path class="cls-1" d="M278.43,427.81c.23-1.64.39-2.86.56-4.1l8.35-2.87c3,3.45,6.73,5.82,11.78,6,2.71.1,5.58,4.17,5.59,7,0,3.49-1.87,5.67-5.62,6.11a34.37,34.37,0,0,1-6-.05,3.08,3.08,0,0,1-3-2.39c-1.73-5.53-5.75-8.56-11.65-9.76"/><path class="cls-1" d="M380.57,427.05c4.53,6.54,2.51,12.47-4.84,14.88-5.64,1.85-9.7.92-12.89-3a7.1,7.1,0,0,1,7.51-11.23c3.4,1,4,1,10.22-.69"/><path class="cls-1" d="M354.49,321.31c7.81.42,9.19,6,10,11.39.52,3.34-2.11,5-4.44,6.44-2.53,1.61-5.23,1.92-7.75-.18-3.74-3.12-6.14-6.89-5.87-11.89l8-5.76"/><path class="cls-1" d="M365.11,420.8c2.88-3.43,3.43-7.35,1.67-11.72l3.27-1.86c3.34,1.24,6.26,2.75,9.35,3.36a5.37,5.37,0,0,1,4.62,4.48c.66,2.68.28,5.24-1.94,7.22-5.11,4.57-12.15,4-17-1.48"/><path class="cls-1" d="M283.35,478.13,279.69,469c2-.61,4.49-.91,6.43-2.11s3.43-3.35,5.6-5.57c1,.28,2.56.72,4.13,1.22,3.9,1.23,5.18,3,5.1,7.11-.07,3.13-2.09,6.18-5.22,6.8-4.18.83-8.46,1.15-12.38,1.64"/><path class="cls-1" d="M353.17,374.34l7.95-.52a74.82,74.82,0,0,1,3.57,7.17c2.11,5.61-1.31,10.38-7.31,10.41-3.61,0-6.56-1.73-9.19-3.93-1.89-1.59-1.75-3.36,0-5.13,3.49-3.58,3.49-3.58,5-8"/><path class="cls-1" d="M339.07,530.57c3.12.29,5.56.48,8,.74,3.47.37,5.53,2.18,5.64,5.58.1,3.18.52,7.05-2.93,8.66s-7.18,1-10.4-1.47c-1.45-1.11-3.11-1.94-4.92-3.05-1.68-4.84,3.7-6.76,4.62-10.46"/><path class="cls-1" d="M307.76,356.34c4.14-1.87,7.3-3.36,10.51-4.71a7.35,7.35,0,0,1,3-.51c2.45.07,4.89.3,7.9.51-.92,3.79-1.79,7.74-2.88,11.63-.45,1.64-1.83,2.25-3.59,2.37a16.72,16.72,0,0,1-12.46-4.14c-1.42-1.24-1.81-3.65-2.49-5.15"/><path class="cls-1" d="M322.7,399.19l4.19-7.11,10.48.51a3.4,3.4,0,0,1,1.32.24c1.88.94,4,6.13,3.64,8.66-.47,3-2,4.37-5.69,5-1.83.29-3.63.66-5.16.94l-8.78-8.21"/><path class="cls-1" d="M262.59,354.68c-.52-5.84-3.53-9.51-8-12.33,1.37-2.19,2.72-4.36,4.19-6.73a14,14,0,0,1,11.05,3.16c3.43,2.7,4.28,5.43,2.43,9.36s-4.72,6.36-9.7,6.54"/><path class="cls-1" d="M262.26,467.09c2-7.36-2.15-11.86-7.13-16,1.32-1.84,2.76-2,4.76-1.31a29.27,29.27,0,0,0,6.3,1.3,9.3,9.3,0,0,1,7.3,13.73c-1.8,3.39-3.69,4.22-7.52,3.27-1.16-.28-2.31-.58-3.71-.94"/><path class="cls-1" d="M328.64,513.19c1.08-.8,2-1.42,2.79-2.09s1.3-1.2,2.76-2.55c.08,3,.45,5.07.12,7.05-.68,4-1.17,7.78,1.18,11.62,1.66,2.71-.29,6.93-3.4,7.35a19.72,19.72,0,0,1-8.6-.78c-3.76-1.25-3.84-4.46-2.63-7.77,9.42-4,10.21-5.31,7.78-12.83"/><path class="cls-1" d="M239,502.5l9.34-2.77a40.27,40.27,0,0,1,4.86,3.13,7.86,7.86,0,0,1,2.56,3.64c.72,2.81-2.45,7.75-5.65,9.44-2.39,1.26-6.91.5-9-1.79a6.13,6.13,0,0,1-1.31-3.21c-.18-1.35.19-2.78.08-4.15a37.05,37.05,0,0,0-.84-4.29"/><path class="cls-1" d="M349.94,421.3c4.19,2.51,8.28,3.28,12.83.87l2.78,3.27c-4.13,2-6.89,4.61-7.24,9.17a2.85,2.85,0,0,1-3.8,2.46A23.4,23.4,0,0,1,346.9,434c-3.81-2.7-3.51-7.61.21-10.5l2.83-2.21"/><path class="cls-1" d="M325.18,484.74c9.41-1.08,10.33-1.77,12.18-9.15l5.57,2c.29,1.12.5,2.16.82,3.18,2.15,6.88-1.32,12-8.52,12.44a14.21,14.21,0,0,1-5-.59c-5-1.65-6.24-2.56-5-7.89"/><path class="cls-1" d="M355.24,475.21c4-.24,7.1-.48,10.24-.61s4.74,2,6.27,4.08c2.51,3.42,2.06,5.24-1.46,7.57a11.64,11.64,0,0,1-15.84-3.42c-2-3-.6-5.56.79-7.62"/><path class="cls-1" d="M365.26,392.37l5.13,3.74c-.26.93-.61,1.9-.82,2.91-.66,3-1,6.54-4.73,7.21-4.33.78-8.68.27-12.26-2.76a3.74,3.74,0,0,1-1.09-4.62c1-2.26,2.07-4.46,5.05-4.83,2.71-.33,5.37-1,8.72-1.65"/><path class="cls-1" d="M321.28,571.76,315.41,564a16.64,16.64,0,0,1,10.84-6.23c.3,0,.59-.16.9-.2,3.58-.39,6.88,1.15,7.81,3.63,1,2.73-.72,6.87-3.7,8.7-3.3,2-6.81,2.76-10,1.89"/><path class="cls-1" d="M335.55,334.9c1.5-.91,2.86-1.63,4.1-2.52,1.08-.77,2-1.73,3-2.56,1.95,4.3,3.85,8.29,5.57,12.36,1.32,3.13.39,5.7-2.41,7.44-3.29,2.05-8.15,1.63-11.84-1.22,1.85-4.27,3.32-8.77,1.59-13.5"/><path class="cls-1" d="M312.74,415.37c.67-6-2.89-9.94-7-14.44,1.59.15,2.38.18,3.15.31,2.43.39,4.91,1.37,7.27,1.11,4.57-.49,7.3,2.08,9.69,5.1,2.52,3.19-1,9.67-5.34,10.21-2.31.29-4.33-.28-7.78-2.29"/><path class="cls-1" d="M280.46,447.81c6.33-1.82,6.33-1.82,9.6-5.77a12.17,12.17,0,0,1,9.27,4.23c3.67,4.12,3.26,8.77-1.24,11.87-3.15,2.16-6.11,1.38-7.78-2.16-2-4.14-5.48-6.45-9.85-8.17"/><path class="cls-1" d="M253.78,437.13c2.42-1.86,4.49-3.44,7.08-5.41a55.6,55.6,0,0,1,6.83,2.46c3.78,1.88,5.64,7,4,10.2a8.13,8.13,0,0,1-10.79,3.34c-.95-.47-2.16-1.71-2.15-2.58.07-3.71-1.8-6.07-5-8"/><path class="cls-1" d="M282.11,540.39,277.46,536c1-2.37,2.6-4.65,2.73-7s-1.31-4.62-2.1-7.11c2-.29,4.1-.67,6.23-.88,3.09-.31,5.59.88,6.89,3.68s2,6.11-.32,8.78a32.57,32.57,0,0,1-8.78,7"/><path class="cls-1" d="M327.1,419.42c1.57-5.9,5.94-7.51,10.92-8.14a8.85,8.85,0,0,1,9.31,6.18,3.73,3.73,0,0,1-.72,2.91c-5.07,5.92-14.54,5.42-19.51-.95"/><path class="cls-1" d="M297.5,298.86c5.31.06,8.63,3.57,11.3,7.51,2.17,3.19-.58,8-4.44,8.19a15.28,15.28,0,0,1-10.44-3c-3.17-2.44-3.07-5.65,0-8.34a35.58,35.58,0,0,0,3.58-4.32"/><path class="cls-1" d="M281.78,396c-2.2-3.59-4.73-7.09-9.78-7.83.61-2.23,1.15-4.23,1.6-5.89,3.31-.31,6.3-.65,9.31-.85a17.17,17.17,0,0,1,5.5.05c4,1.09,5.18,6.39,2.18,9.37-2.4,2.38-5,4.51-8.81,5.15"/><path class="cls-1" d="M309.43,398.36c2.67-8.46,2.67-8.46.17-14.09l7-2.72c1.42.73,3.16,1.67,4.93,2.55,2.67,1.31,3.47,2.68,3.08,5.45-1.08,7.78-7.69,11.63-15.14,8.81"/><path class="cls-1" d="M274.36,365.83c3.92-.73,7.54-.84,10.88,1.44,3.91,2.64,4.32,6.19.75,9.13a20.65,20.65,0,0,1-6,3.42c-3.25,1.17-7.76-1-8.82-4.25a6.59,6.59,0,0,1,.47-3.94,63.19,63.19,0,0,1,2.72-5.8"/><path class="cls-1" d="M277.19,346.82c-1.07-3.49-2-6.49-3-9.8a41.2,41.2,0,0,0,3.24-3.55c2.26-3.05,4-4,6.78-3.08,3,1,5.08,2.89,5.49,6.24a8.85,8.85,0,0,1-7.62,9.95c-1.67.23-3.37.17-4.89.24"/><path class="cls-1" d="M310.13,482.09c-2-2.34-3.8-4.44-5.58-6.53l-.56.61c.1-2.13.37-4.26.28-6.39s.13-4.14,2.32-5c2.45-1,5.19-1.92,7.38.28a24.24,24.24,0,0,1,4.22,5.95c1.18,2.31.46,4.51-1.64,6.15l-6.42,5"/><path class="cls-1" d="M332,352.12l11.19,2c1,1.84,2.09,3.7,3.13,5.56,1.46,2.58,1,4.24-1.56,5.76a10.3,10.3,0,0,1-8,1.34c-5.45-1.39-7.41-4.53-6.14-10,.38-1.64.94-3.24,1.39-4.73"/><path class="cls-1" d="M223.33,410.44c-6.07,0-9.66-3.69-9.53-8.57.09-3.18,4.1-6,7.84-5.32a24.5,24.5,0,0,1,6.13,2,6.23,6.23,0,0,1,3.84,5.4c.11,2.35-1.52,3.71-3.33,4.62a39,39,0,0,1-4.95,1.85"/><path class="cls-1" d="M293.92,284.29c-.39-3.63-.6-6.85-1.12-10-.58-3.63,1.77-6.81,5.75-7.42,4.51-.69,6.51.72,7.07,5,1.11,8.42-4,13.71-11.7,12.44"/><path class="cls-1" d="M245.65,433.93a10.92,10.92,0,0,1,.49-2.3,12,12,0,0,0,0-10.33c-1.08-2.33-.43-3.76,1.35-5.09,2.15.49,4.29.85,6.32,1.52a7.1,7.1,0,0,1,3,2c4.21,4.78,3.42,9.79-2.09,13.13a10.46,10.46,0,0,1-9,1.11"/><path class="cls-1" d="M323.54,492.71l5.55,3.1c-1.1,3.62-2.79,7.35.43,10.65-2.4,3.21-4.61,3.92-8.46,2.94-5.43-1.37-7.92-4.89-7.66-10.6,3.64-1.18,7.71-2,10.14-6.09"/><path class="cls-1" d="M292.16,346.67c.58-4.3,1.1-8.2,1.68-12.6,1.63,0,3.88-.63,5.44.14a25.91,25.91,0,0,1,7.35,5.41c2,2.1,1.3,4.95-.86,7.07a10,10,0,0,1-13.61,0"/><path class="cls-1" d="M318,294.67c1.69-4.52,5-6.21,8.3-6.95,2.6-.59,5.61.58,8.43,1.06.33.06.63.65.83,1.05,1.24,2.46.14,7.39-2.07,9.39-2.75,2.48-6.43,2.93-9.29.82-2.19-1.61-4.14-3.57-6.2-5.37"/><path class="cls-1" d="M249.79,360.89c-1.81-3.29-3.19-5.81-4.51-8.19,1.06-2.59,2.15-5.23,3.3-8.05,6-.89,11.54,4,10.93,9.85-.64,6.21-4.13,8.33-9.72,6.39"/><path class="cls-1" d="M220.44,503.9c-1.67-3-3.16-5.15-4.06-7.5-1-2.7,1.09-6.36,4.16-7.95,4.7-2.44,11.74.66,13.16,5.81.76,2.76-.12,4.25-3,4.14-4.05-.15-7.24,1.15-10.25,5.5"/><path class="cls-1" d="M268.58,554c-.26-5.1-3.41-7.57-6.51-10.87,1.33-1.11,2.65-2.13,3.87-3.25,1.68-1.55,7.76-2.72,9.87-1.79,2.45,1.07,3.27,3.25,3.4,5.64a8,8,0,0,1-4.46,8,55.64,55.64,0,0,1-6.17,2.25"/><path class="cls-1" d="M314.34,318.73l-4.84-3.1a8.34,8.34,0,0,0,2.75-8,6,6,0,0,1,5.68-7,6.45,6.45,0,0,1,6.67,6.3c0,2.58-.59,5-2.78,6.6-2.46,1.81-5,3.45-7.48,5.12"/><path class="cls-1" d="M251.36,399.8c2.85-.24,5.28,1.12,7.61,2.66s4.19,3.26,3.59,6.42a7.9,7.9,0,0,1-6.32,6,17.68,17.68,0,0,1-5.53-.07c-3.06-.55-4.75-4.43-3.34-7.22l4-7.81"/><path class="cls-1" d="M386.47,395.24a9,9,0,0,1,1.35,1.52c4.08,6.4,3.75,9-4.91,11.15a9.48,9.48,0,0,1-8.59-2.62c-1.19-1.1-1.77-3.21-2-5-.29-2.33.86-3.21,3.27-3.52,3.31-.43,6.6-.95,10.86-1.58"/><path class="cls-1" d="M317.35,368c7.16.45,7.16.45,11-2.16,1.86,1.44,4.19,2.36,4,5.56a13.12,13.12,0,0,1-4.3,9.38c-1.86,1.64-7.53.9-9-1.13-.62-.85-.52-2.25-.67-3.41-.34-2.66-.64-5.32-1-8.24"/><path class="cls-1" d="M265.75,587.5c1.61-4.85,2.89-8.74,4.23-12.82a8.49,8.49,0,0,1,9.72,5c1.28,3.21-.46,8.59-3.69,10.13-1.37.66-3.28.4-4.92.27-2.34-.19-4.65-.67-5.34-2.61"/><path class="cls-1" d="M281.74,549.19c4.8-5.67,9.27-6.57,15.51-3.49,4,2,4.41,5.95.92,8.93-3.12,2.66-9.22,2.4-12.45-.68a54.39,54.39,0,0,1-4-4.76"/><path class="cls-1" d="M267.28,391c7-.6,11,2.45,11,8,0,1-.26,2.38-.93,2.88-3.46,2.58-7.18,4.67-11.44,4.34l-4.59-6.1c5.13-.78,5.78-4.74,6-9.12"/><path class="cls-1" d="M264.49,578.76c-.29,6.65-4.78,9.32-9.87,6.66a14.41,14.41,0,0,1-3.46-2.25c-1.71-1.66-3.93-3.27-3.21-6.11.43-1.67,5.26-4.21,7.34-4,3,.26,5.81,1,7.84,3.38a11.4,11.4,0,0,1,1.36,2.35"/><path class="cls-1" d="M292.41,394.72c3.25-2.48,2.93-6,3-9.18l8.51-3c.78,1.28,1.69,2.7,2.54,4.16,2.11,3.59,1.95,6.72-.48,9.91-1.47,1.94-5.45,2.47-8.6,1-1.67-.78-3.21-1.82-5-2.86"/><path class="cls-1" d="M308.19,294.89a7.71,7.71,0,0,1-6.39-2.73c-1.79-2-1.66-4.78.6-6a46.16,46.16,0,0,1,9-3.67,5.69,5.69,0,0,1,6.51,3.24c.83,2,.1,4.29-1.95,6.11-2.71,2.42-4.35,3.08-7.75,3.05"/><path class="cls-1" d="M320.85,335.28l6.15-2.91c5.74,1.63,7.65,4.58,6.38,10-1.11,4.75-5.88,7.25-11.39,6.2-.38-4.41-.74-8.75-1.14-13.31"/><path class="cls-1" d="M284.74,513c-.1,3.37-1.85,5.46-4.63,5.92-5.79.94-11.93-4-11.36-9.27a4.32,4.32,0,0,1,1.29-2.74c4-3.09,13.08-.13,14.51,4.64a7.39,7.39,0,0,1,.19,1.45"/><path class="cls-1" d="M352.39,343.5c2.7.69,5,.74,6.6,1.85a9.63,9.63,0,0,1,3.08,4.95c.75,2.64-2.76,8.05-5.36,9-3.76,1.37-7.39-.65-10.2-5.84a11,11,0,0,0,5.88-10"/><path class="cls-1" d="M305.21,426.25c4.43-6.54,10.05-5.43,15.66-3.56,3.7,1.23,4.28,4.45,1.58,7.23a10,10,0,0,1-14.84-.26,36.82,36.82,0,0,1-2.4-3.41"/><path class="cls-1" d="M299.79,366.33l8.21-3.26c3.9,1.65,5.61,5.85,7.16,9.67,1.77,4.36-1.84,8.37-6.59,8.07a27.79,27.79,0,0,1-3.56-.74c.92-5.45-.5-10.12-5.22-13.74"/><path class="cls-1" d="M331.59,497.18l12.29-2.3,3.15,2.9c-.44,3.3-.83,6.33-1.3,9.92-5.07.54-9.84-.47-13.85-4.06-2.31-2.07-1.51-4.43-.29-6.46"/><path class="cls-1" d="M296.38,528.12c-1.29-5.34-4.34-8.72-9.83-10a18.18,18.18,0,0,0,1-2.65c.63-2.87,1.78-5.68,4.95-5.92,3.32-.24,6.26,1.61,8.41,4.14,1.5,1.78,1.25,4,.25,6.09-.63,1.35-1.5,2.88-1.35,4.23.28,2.47-1,3.29-3.46,4.15"/><path class="cls-1" d="M259.39,373.68c-1.14-3.44-2.15-6.47-3.16-9.5,1.41-1.52,2.94-3.22,4.52-4.86a3.49,3.49,0,0,1,1.48-1c4-1,9.18,4,8.35,8.07-1.18,5.72-4.93,8.14-11.19,7.33"/><path class="cls-1" d="M351.09,476.13c-1.86,9.51,4,13.78,14.7,16.08a10.54,10.54,0,0,1-1.94,2.31c-4.87,3.07-9.93,3-15,.51-2-1-3.16-2.44-2.22-4.87a18.09,18.09,0,0,0,.24-12.1l4.21-1.93"/><path class="cls-1" d="M328,463.14c1.7,2.88,3.38,5.47,4.81,8.19,2.25,4.29-1.47,10.18-6.27,9.88a27.89,27.89,0,0,1-5.1-1.32c4-6.09,1.27-11-2-16.21l8.57-.54"/><path class="cls-1" d="M289,571c-1.34-3.32-3.38-5.92-7.36-6.56.12-2.79.14-5.36,2.64-6.78,3.48.77,6.72,1.62,10,2.17a5.34,5.34,0,0,1,4.64,3.9c.66,2.08-.6,3.28-1.93,4.75-2.1,2.35-4.53,2.89-8,2.52"/><path class="cls-1" d="M307.58,336.08l5-3.35c5.78,3.3,8.13,8.55,6.09,13.34-1.9,4.48-7.19,6.58-12.85,4.7,4.44-4.38,6.32-9.16,1.79-14.69"/><path class="cls-1" d="M370,384c4,0,7.39.21,10.7-.08,2.22-.19,3.58.5,4.47,2.36a5.13,5.13,0,0,1-1.14,5.91c-3.66,3.11-12.28,2.63-15.43-.87-1.78-2-1.25-4.43,1.4-7.32"/><path class="cls-1" d="M364.34,353.87c.24-1.13.46-2.17.62-2.95,3.38-.45,6.85-.18,9.57-1.48s4.69-4.15,7.22-6.54a6.14,6.14,0,0,1,2.6,6.77c-.86,3.66-2.85,6.48-6.7,7.53-4.85,1.31-9.14.09-13.31-3.33"/><path class="cls-1" d="M223.63,514c-.37-2.66-.8-5.06-1-7.48a4.4,4.4,0,0,1,.69-2.56c1.74-2.65,5.95-3.57,9.18-2.14a6.37,6.37,0,0,1,3.55,7.3,16.76,16.76,0,0,1-1.45,3.89c-.75,1.48-1.83,2.37-3.75,1.73a16.38,16.38,0,0,0-3.66-.48c-1.2-.11-2.4-.18-3.55-.26"/><path class="cls-1" d="M285.62,299.8l-5.76-6.47-2.08,1.46a31.35,31.35,0,0,1,1.8-5.58c1.12-2.08,2.93-3.83,5.57-3.47a5.94,5.94,0,0,1,5.23,4.07,38.77,38.77,0,0,1,1.23,6.8c.22,2-.91,3.22-2.74,3.78-1.33.4-2.68.69-4,1l.77-1.62"/><path class="cls-1" d="M349.82,308.79c3,2.31,4,5,3,8.14-1.3,4-3.83,5.88-8.56,6.35a41.77,41.77,0,0,0-2.9-3.48,30.1,30.1,0,0,0-3.2-2.41c.71-2.15,1.39-4.17,2.09-6.26l9.59-2.34"/><path class="cls-1" d="M314.52,459.55l-12.11,3.84L300,460.88a15.53,15.53,0,0,0,5.3-9.57c.6-4,5.52-5,8.35-2.15,3.16,3.21,3.27,5.22.84,10.39"/><path class="cls-1" d="M251.44,311.34c-1.54-1.1-2.52-1.83-3.54-2.51A7.83,7.83,0,0,1,245.59,298a3.7,3.7,0,0,1,1.21-1.3c3.82-2.07,10.28.65,11.26,4.92a5.59,5.59,0,0,1-.94,4.16,55.44,55.44,0,0,1-5.68,5.54"/><path class="cls-1" d="M334.49,442.13c-5.24,5.05-12.62,5.39-17.42,1.07-1.4-1.26-2.58-2.66-1.94-4.84a4,4,0,0,1,4.7-2.93c4.7,1,9.95.9,13.56,5a12.25,12.25,0,0,1,1.1,1.73"/><path class="cls-1" d="M295,506.42a72.16,72.16,0,0,1,4.09-7.17c2.27-3.17,4.86-3.86,7.49-2.47,2.92,1.54,4.88,5.77,3.46,8.66-.88,1.81-2.68,3.22-4.23,4.62-2,1.85-3.64.05-5.34-.87s-3.55-1.8-5.47-2.77"/><path class="cls-1" d="M258.86,509.06l7.64-4.35c0,5,.09,9.18,0,13.4-.08,3-1,3.83-3.9,3.93a18.74,18.74,0,0,1-4.61-.38c-4-.9-4.94-3.42-2.73-6.8,1.25-1.9,2.42-3.86,3.63-5.8"/><path class="cls-1" d="M254,469.43c-3.22-.16-6.08-1.09-8-3.92a6.38,6.38,0,0,1,.88-8.43c2.37-2.06,5.88-1.83,8.31.75a22.06,22.06,0,0,1,3.25,4.49c2.08,3.84,0,7.15-4.45,7.11"/><path class="cls-1" d="M288,378c3.15-2.5,2.72-5.88,2.59-9.34a15.19,15.19,0,0,0,3.41-.43c2.64-1.06,4.47,0,6.08,1.95,1.88,2.28,2.9,4.8,2,7.75a5.82,5.82,0,0,1-8.92,3.38c-1.58-.94-3.1-2-5.16-3.31"/><path class="cls-1" d="M234.56,469.81c-2.26,0-4.29-.25-5-3a10.89,10.89,0,0,0-1.63-2.77c-2-3.12-1.59-4.72,1.67-6.6,4.84-2.81,11.1.16,11.48,5.45.32,4.52-1.95,6.93-6.5,6.89"/><path class="cls-1" d="M233.64,487.43a15,15,0,0,0-14.22-2c-.7-5.18.7-8.64,4.08-10.21,2.53-1.17,8.27.45,10.53,3s2.17,5.06-.39,9.27"/><path class="cls-1" d="M255.15,540.86c-.11-3.13-3.22-4.87-3-8.13.14-2.19-.26-4.44,2.34-5.41s5.31-1.56,7.77.64a7.5,7.5,0,0,1,2,8.41c-1.21,3.07-4.68,4.91-9.12,4.49"/><path class="cls-1" d="M288.49,491.8c1.65.45,3.82.41,4.84,1.47,1.74,1.81,2,4.48,1.36,7A5.18,5.18,0,0,1,287.6,504a20.78,20.78,0,0,1-5.09-3.1c-1.78-1.43-2.63-3.22-1.52-5.69s2.6-3.28,5.06-3.07c.76.07,1.54,0,2.31,0,0-.13.08-.26.13-.39"/><path class="cls-1" d="M247.51,593.71c.54-3.23,1.86-4.58,5.33-4.75a42.79,42.79,0,0,1,9.13.24c1.41.23,2.86,1.74,3.76,3a3.36,3.36,0,0,1-.93,4.58A15,15,0,0,1,259,600a54,54,0,0,0-5.23-3.72,57.66,57.66,0,0,0-6.22-2.56"/><path class="cls-1" d="M232.5,443.86c-1.36-2.36-2.49-4.34-3.66-6.38a10.08,10.08,0,0,0,1.35-2.73,4.35,4.35,0,0,1,3.9-3.95c2.64-.4,5.31-.29,7.44,1.6,1.75,1.55,1.76,4.36.22,6.8-1.06,1.67-2.16,3.32-3.38,5.18l-5.87-.52"/><path class="cls-1" d="M302.76,478.27l4.08,3.84c-.7,1.89-1.52,3-1.37,3.87,1,5.92-2.54,8.44-7.46,10.06l-3.3-5.71c.41-3.19.78-6,1.16-8.91l6.89-3.15"/><path class="cls-1" d="M248.34,322.64c-4.23-.34-6.88,2.06-9.78,4.94-.83-1.15-1.92-2-2.07-3-.46-3-1.05-6.12-.65-9.06.49-3.66,2.95-4.71,6.51-3.6,4.26,1.33,6,4.33,6,10.7"/><path class="cls-1" d="M248.37,377.89a41.73,41.73,0,0,1-4.29-1.13c-2.76-1-4.39-4.3-2.88-6.67a9.59,9.59,0,0,1,7-4.81,6.29,6.29,0,0,1,6.52,3.48c1.94,3.34,1.58,5.3-1.79,7.34a26.88,26.88,0,0,1-4.52,1.79"/><path class="cls-1" d="M268.38,569.14c-4.41-.26-6.29-2-6.11-5.73s2.7-6,6.66-6A11.91,11.91,0,0,1,273,558c4.34,1.6,5.08,5.15,1.87,8.44-2.34,2.41-3.55,2.92-6.47,2.75"/><path class="cls-1" d="M232.53,396a31.65,31.65,0,0,0,3.6-3.07c1.46-1.63,3.18-1.72,5.05-1.34,4.32.86,6.07,3.29,5.26,7.6a34.39,34.39,0,0,1-1.81,5.09,45.76,45.76,0,0,0-4.89-.53,30.91,30.91,0,0,0-4,.48L232.53,396"/><path class="cls-1" d="M263.74,308.47c4,.54,7.47.7,10.81,1.55,5.73,1.43,7.26,5.22,4.58,10.49a15.12,15.12,0,0,1-1.7,2.25l-8.27-1.49c-.37-2.27-.39-4.64-1.2-6.7-.75-1.9-2.34-3.46-4.22-6.1"/><path class="cls-1" d="M354.43,459c4.7,4.78,10.14,5.53,16,5,.27,4.62-2.75,6.47-5.71,7.95-3.4,1.7-6.67.62-9.45-1.78-3.51-3-2.48-6.62-.84-11.15"/><path class="cls-1" d="M257.38,329l10.45-4.57c-.06-.26-.13-.52-.19-.79,1.95.41,3.95.67,5.85,1.26s2.86,2.12,2.41,4.34c-.91,4.51-4.07,6.31-8.35,5-2.79-.86-5.73-1.21-9-1.88L257.38,329"/><path class="cls-1" d="M248.66,556.08c-1.55-5.29-4.69-8.35-10.49-8.23V544c2.19-2.14,4.14-3.82,5.8-5.75a4.52,4.52,0,0,1,6-1.08c1.65,1,2.89,4.25,1.74,5.7-3.17,3.95-2.83,8.49-3.06,13.23"/><path class="cls-1" d="M351.24,408.72c3.49.22,6.63,0,9.58.7,4.18.91,5.18,5.19,2.18,8.25a13.56,13.56,0,0,1-1.45,1.15A8.1,8.1,0,0,1,352.8,420c-3.19-1.41-1.48-4.68-2.36-7-.37-1,.4-2.36.8-4.27"/><path class="cls-1" d="M201.14,585.07c0-.08-.12-.68-.29-1.25-1.09-3.67-.8-4.85,1.69-6.77,2.86-2.22,5.73-2.55,8.08-.93a6.33,6.33,0,0,1,2.46,7.37,47.3,47.3,0,0,1-3.16,6.56l-8.78-5"/><path class="cls-1" d="M253.29,315.88a61.83,61.83,0,0,0,5.87-3.68c1.73-1.37,3.08-1,4.53.24a7.1,7.1,0,0,1-1.63,11.64,13.74,13.74,0,0,1-2.2.7c-5.41,1.44-6,1-6.33-4.68-.08-1.38-.16-2.76-.24-4.22"/><path class="cls-1" d="M327.7,320.11c-.54-.71-1.05-1.49-1.68-2.17s-1.35-1.26-2.45-2.26c3.55-3.06,4.34-7.15,3.8-11.76l4.78-.56c1.64,2.32,3.36,4.47,4.75,6.81,1.29,2.19-.8,6.2-3.75,7.57-1.53.71-3.1,1.35-5.45,2.37"/><path class="cls-1" d="M266.09,388.65a13.45,13.45,0,0,0-10-5.59c-1.33-.11-2.52-1.82-4-3l5.29-4.15c2.23.16,4.2.4,6.17.42,3.16,0,6.27,1.95,6.82,4.36.68,3-.91,6-4.29,7.94"/><path class="cls-1" d="M292.13,586.12c-3.27-1.62-5.54-2.86-7.91-3.87-1.53-.66-2.13-2.09-.87-2.66,4-1.84,7.25-6,12.44-4.63a12.29,12.29,0,0,1,3.44,1.19c2.23,1.44,2.27,4.85-.25,6.65-2.18,1.56-4.88,2.4-6.85,3.32"/><path class="cls-1" d="M251.18,549.89c.21-.44.53-2.61,1.65-3.17,2.62-1.31,5.65-1.73,8.34.23a13,13,0,0,1,2.28,2.29c3.19,3.89,2,7.41-2.93,8.53-5.1,1.15-9.47-1.95-9.34-7.88"/><path class="cls-1" d="M275.3,443.73c-.56-2.37-1.19-4.73-1.66-7.12a4.7,4.7,0,0,1,6.17-5.59,9.67,9.67,0,0,1,6,5.43,5.31,5.31,0,0,1-2.88,6.94,15.32,15.32,0,0,1-7.66.34"/><path class="cls-1" d="M209.16,430.86c3.93-1.84,7-3.95,11-3a12.11,12.11,0,0,1,3,1c2.79,1.55,3.7,3.21,3.24,5.52-.38,1.92-2.5,3.41-5.27,3.72-3.57.4-6.84-.33-9.37-3a24.38,24.38,0,0,1-2.61-4.24"/><path class="cls-1" d="M246.93,340.33c-1.76-1.64-3.2-3-4.69-4.37-3.11-2.77-3.42-4.48-1.17-6.93,2.84-3.11,6.3-3.67,8.93-1.38,2.23,2,3.57,4.46,2.79,7.39a6.55,6.55,0,0,1-5.86,5.29"/><path class="cls-1" d="M227.09,382.17a31.87,31.87,0,0,1,4,1.16c4,1.69,4.7,4.88,1.92,8.13a5.51,5.51,0,0,1-6.33,1.72c-2.47-.86-5.68-.53-6.62-4.15s-.11-5.42,3.32-6.37a29.61,29.61,0,0,1,3.68-.49"/><path class="cls-1" d="M281.48,405.7c.22-1,.49-2,.66-3,.61-3.77,1.56-4.87,4.83-5.49,3.66-.69,8,1,9.39,3.49.86,1.55.06,2.63-.83,3.72-3.5,4.23-8.58,4.72-14,1.27"/><path class="cls-1" d="M239.66,378c3,.83,5.43,1.54,7.91,2.22,3.12.86,5.07,3.87,4.25,6.6s-3.63,4-7,3.06c-.89-.26-1.77-.54-2.67-.76s-1.78-.34-2.6-.49L236.83,381l2.83-3"/><path class="cls-1" d="M302,331.89l-2.72-9.57c1.69-2.83,5-3.52,8.72-3.28a3.48,3.48,0,0,1,2,1c2,2,1.92,6.55,0,9.08-2.53,3.4-5,4.1-8,2.77"/><path class="cls-1" d="M212.17,469.82c.53-5.44,2.45-7.56,6.74-7.42,4,.12,6.78,3.44,6.82,8.16L218,476l-5.81-6.18"/><path class="cls-1" d="M263.27,295.9c-.16-1.37-.53-2.34-.33-3.15a8.19,8.19,0,0,0-1.28-7c-1.46-2.19-.86-3.59,1.55-4.63,2.69-1.16,7.79.82,9.71,3.77,1.19,1.83.48,4.66-2,7a14.13,14.13,0,0,1-7.67,4"/><path class="cls-1" d="M327.36,424c4.67,2.75,9.18,3.85,14.31,2.4.16,2.65.28,4.89.41,7.1l-5,3.69L325.9,431c.39-1.86.87-4.2,1.46-7"/><path class="cls-1" d="M272.85,408.76c4.5-2.3,8.6-.68,12.29,2.63,2.36,2.11,2.37,4.68.11,6.82a7.24,7.24,0,0,1-7.26,2,4.31,4.31,0,0,1-2.43-2.31c-1-2.81-1.73-5.75-2.71-9.14"/><path class="cls-1" d="M218,575.5c-2.43-1.6-4.63-2.94-6.69-4.47a3.69,3.69,0,0,1-1.34-2.2c-.58-3.72,4.4-7.79,8-6.55a7.91,7.91,0,0,1,5.35,6.4c.51,2.7-1.44,4.23-3.17,5.74a8.76,8.76,0,0,1-2.1,1.08"/><path class="cls-1" d="M269.1,535.6c-1.46-3.64-2.75-6.83-4.12-10.24l5.69-6.39c1.09,1.21,2.14,2.55,3.38,3.68,2.3,2.08,4.1,4.38,3.2,7.67-.75,2.76-4.78,5.15-8.15,5.28"/><path class="cls-1" d="M271.29,356.37c1.66-1.29,3-2.48,4.56-3.51,2.09-1.43,4.36-2.34,7-1.74,2.11.48,3.83,1.38,4.07,3.81s-.18,4.18-2.51,5.46c-4.41,2.43-9.64,1.87-12.2-1.64a9.15,9.15,0,0,1-.92-2.38"/><path class="cls-1" d="M376.78,334.7c2.46,5.87,1.23,10.45-3.59,12.5-2.12.89-4.79.74-7.19.68-2.89-.08-2.87-3.25-5-4.46a10.24,10.24,0,0,1,6.83-3.39c1.71-.15,3.38-1.35,4.95-2.28a44.11,44.11,0,0,0,4-3.05"/><path class="cls-1" d="M341.77,437.2a72.84,72.84,0,0,1,8.07,4c2.68,1.75,2.66,4,.34,6.18a8.23,8.23,0,0,1-6.79,2.38c-2.44-.31-4.59-1.55-5.23-4-.81-3.15-.38-6.18,3.61-8.55"/><path class="cls-1" d="M233.91,420.74c.11,3.63-1.75,5.81-4.72,5.31-3.34-.56-6.66-1.85-8.34-5.1a9.48,9.48,0,0,1-.53-4.83,3.12,3.12,0,0,1,1.71-2c2.66-1.22,10,1.71,11.25,4.42a11.89,11.89,0,0,1,.63,2.18"/><path class="cls-1" d="M228.7,586.22c.67-1.52,1.05-2.34,1.39-3.17,1.73-4.2,4.3-5.42,8.53-4,3.15,1,5.52,4.54,4.69,7-1,2.86-5.36,5-8.31,3.76a62.22,62.22,0,0,1-6.3-3.52"/><path class="cls-1" d="M352.56,302c4.76.63,7.86,3.38,10.38,6.67,2,2.58.66,5.39-.82,7.79s-3.64,2.53-6.36,1.85c-.23-4.32.13-8.9-4.75-11.49.52-1.62,1-3.15,1.55-4.82"/><path class="cls-1" d="M202.74,617.18c-6,1.07-8.49.09-11-4.12,1-1.89,2-3.75,2.9-5.63,1.65-3.27,6.78-3.7,8.81-.62,1.43,2.18,2.74,4.47.64,7.13a13.46,13.46,0,0,0-1.4,3.24"/><path class="cls-1" d="M299,558.35c1.36-2,2.47-3.62,3.63-5.23a5.37,5.37,0,0,1,6.45-2.2c2.66.79,2.86,2.83,2.82,5.12-.11,5.49-2.18,7.37-9,7.82-1.25-1.77-2.57-3.61-3.91-5.51"/><path class="cls-1" d="M233.12,530.47c1.42-2.1,2.3-3.18,2.94-4.38,1.14-2.1,1.91-4.46.64-6.64s-.1-3.09,1.8-4.57a109.62,109.62,0,0,1,7.43,8.55c1.86,2.61-.81,7.44-4.22,7.68-2.55.19-5.16-.35-8.59-.64"/><path class="cls-1" d="M231.74,354.43c6.41-1.16,10.14-.13,11.75,3.16,2.2,4.46-1.81,6.24-4,9.07l-8.73-4.11c.31-2.58.63-5.27,1-8.12"/><path class="cls-1" d="M305.73,514.44l7.6-5c3.48,1.33,7.11,2.54,10.55,4.16a5.25,5.25,0,0,1,2.66,3.28c.15.79-1.37,2.17-2.43,2.82a12.2,12.2,0,0,1-3.93,1.23,2.93,2.93,0,0,1-3.55-1.4c-2.05-3.69-5.16-5.1-9.33-4.17a2.87,2.87,0,0,1-1.3-.27c-.09,0-.11-.26-.27-.65"/><path class="cls-1" d="M270,486.53c5.24,2.38,7.18,6.23,5.76,10.55-1.31,4-5.09,5.92-9.89,5.06-.67-2.12-1.35-4.25-2.17-6.85,2.94-1.8,6-4.13,6.3-8.76"/><path class="cls-1" d="M316.28,530.75c3.62,6.14,9.15,7.44,15.61,6.86-.3,2-.53,3.48-.74,4.86-3.06,1.57-5.9,3.58-9.23,1.68a24.09,24.09,0,0,1-4.43-3.73c-.64-.61-.9-1.61-1.49-2.3-2.75-3.26-2.77-3.24.28-7.37"/><path class="cls-1" d="M350.32,499.59h13.53c.35,3,1.15,6.52-2.71,8.84a7.69,7.69,0,0,1-9.1-.57c-2.77-2.33-3.27-4.55-1.72-8.27"/><path class="cls-1" d="M232.51,350.8c-2.49-3.1-.95-6.45-1.31-9.54-.07-.63,1.5-1.84,2.51-2.15,3.09-1,6.31.54,8.31,3.56,1.71,2.57,1.38,4.37-1.41,8.13Z"/><path class="cls-1" d="M264.53,306v-4.33c2.67-1.19,5.33-2.35,8-3.57,3.45-1.6,7-.21,8,3.43.5,1.86.34,3.9.52,6.3-3.18-.68-5.79-1.47-8.46-1.77a76.08,76.08,0,0,0-8-.06"/><path class="cls-1" d="M341.14,380.86l-6.67-4.69c.18-1.78.4-3.88.65-6.28h11.07c1.72,1.86,3,4.2,1.75,7.21-1.36,3.2-4.06,4-6.8,3.76"/><path class="cls-1" d="M315.12,330.21V320.7c4.63-2.84,6.87-3,9-.57s1.91,7.4-.29,9.87-5.19,2.51-8.67.21"/><path class="cls-1" d="M238,498.8l-1.67-8.86,2.87-2.12c3.14-2.36,6-2,8.32,1.15,2.17,2.93,1.76,5.84-1.39,8-2.45,1.67-5.13,2.83-8.13,1.83"/><path class="cls-1" d="M309.11,494.17c.7-3.19,1.38-6.25,2.16-9.81.65-.28,1.73-.83,2.85-1.21,2.38-.8,4.68-.57,6.31,1.44s1,4.08.14,6.11a7.78,7.78,0,0,1-11.46,3.47"/><path class="cls-1" d="M277.19,464.93c.31-8.06,2.08-6.07-3.82-14.42,4.32-.9,7.57,1.19,10.49,3.63a6.37,6.37,0,0,1,1.64,8.36c-1.6,2.6-4.18,3.4-8.31,2.43"/><path class="cls-1" d="M283.26,322.89c3.7-5.05,1-10.23,1.86-15.11a18.28,18.28,0,0,0,.13-2.49l2.17-.19c1.83,4.19,3.4,8.1,5.24,11.88,1,2.14,1.31,4.16,0,6.08s-3.28,1.43-5.1,1.14a33.45,33.45,0,0,1-4.27-1.31"/><path class="cls-1" d="M270,477c.16,3.82-2.3,5.54-5.17,4.54a33.28,33.28,0,0,0-5.69-1.55c-3.11-.51-4.22-2.2-3.09-5.12,1.79-4.63,8.37-5.6,11.87-1.62A17.18,17.18,0,0,1,270,477"/><path class="cls-1" d="M249.58,393.29l6.37-7.22c2.42.43,5.43.74,7.39,3.68a5.48,5.48,0,0,1,.68,5.66c-.88,1.91-2.73,1.84-4.43,1.68-3.72-.36-7.89.3-10-3.8"/><path class="cls-1" d="M227.59,528c-1.82-.31-3.36-.47-4.86-.83a3.79,3.79,0,0,1-3.12-3.55,3.7,3.7,0,0,1,1.92-3.82c3.76-2.61,8.12-2.68,11,.06,2.72,2.55,2.24,5.93-1.18,7.41a16.62,16.62,0,0,1-3.79.73"/><path class="cls-1" d="M218.63,602.93c.22-2.93.28-5.37.65-7.77.15-.92,1.11-2.5,1.54-2.45a26.34,26.34,0,0,1,7.84,1.71c1.75.79,1.75,5.09.55,7.32-1.31,2.45-3.67,3.5-6.72,2.75a27.1,27.1,0,0,1-3.86-1.56"/><path class="cls-1" d="M339,292.31c4.63-.65,6.88.43,7.72,3.67,1.18,4.53-.06,8-3.22,9-3.4,1.12-5.35,0-7.27-3.82,1-3.11,1.87-6,2.77-8.87"/><path class="cls-1" d="M241.35,483.52a38.28,38.28,0,0,0-1.43-4.79,33,33,0,0,0-2.38-3.86c2.37-4.29,6.61-5,9.46-1.43a13.92,13.92,0,0,1,2.75,5.17c.86,3.54-1.48,5.78-5.15,5.32l-3.25-.41"/><path class="cls-1" d="M287.24,281.41c-2.7,1-5.12,1.88-7.37,2.69-1.39-1.23-2.95-2.47-4.34-3.87s-1.48-3,.16-4.34c.35-.3.71-.59,1-.91,1.86-1.79,3.42-4.05,6.65-2.43s4.48,3.83,4.23,7.86a4.06,4.06,0,0,1-.37,1"/><path class="cls-1" d="M293.63,539.41c1.06-2.22,2.27-4.34,3.09-6.6a5.79,5.79,0,0,1,4.59-4.1c1.48-.28,3.9,2.37,4.63,4.7s.52,4.3-1.46,5.88a9.29,9.29,0,0,1-10.85.12"/><path class="cls-1" d="M328.36,330.38c.13-2.23.2-3.6.29-5,.19-3.18,1-4.24,4.12-5.17a6.06,6.06,0,0,1,7,2.09c2,2.85-.76,8-4.86,8.56-2,.27-4.15-.3-6.55-.51"/><path class="cls-1" d="M368.5,334.45c-1.67-4.47-3.15-8.47-4.82-12.93l4-3.29c3.11,1.15,6.13,3.15,6.83,7.22.81,4.75-3,6.59-6,9"/><path class="cls-1" d="M332.49,546.15c3.36.42,6.75,3.05,7.11,5.51a7,7,0,0,1-.94,4.26c-.81,1.37-2.26,1-3.67.35a25.24,25.24,0,0,0-5.29-1.44,4,4,0,0,1-3.49-3.73c-.37-2.14,1.1-2.94,2.81-3.55,1.4-.5,2.76-1.11,3.47-1.4"/><path class="cls-1" d="M241.69,534.59c-.28,5.56-3,7.3-8,5.22-2-.82-4.08-1.31-6.24-2a.52.52,0,0,1-.19-.23c-.64-2-2-4.24,0-6,1.77-1.58,3.78-.17,5.66.42,2.92.91,5.86,1.73,8.79,2.6"/><path class="cls-1" d="M342.05,383.47c.84.29,2.08.45,2.13.78.67,4.46,3.67,6.94,7.81,8.74-3.11,4.14-5.91,8-2.08,12.77l-2.87,3.4-3-1.76c.58-1.32,1.19-2.51,1.64-3.76a9.61,9.61,0,0,0-2.22-10.34c-2.81-2.9-3-5.82-1.43-9.83"/><path class="cls-1" d="M359.66,362.32c-.3-.19-.13-.13-.05,0,1.22,1.71,3.17,3.35,1.94,5.71s-3.67,3.63-6.49,3.77a3.9,3.9,0,0,1-3.94-1.85,41,41,0,0,0-2.69-3.52c.48-1.27,1-2.67,1.54-4.09Z"/><path class="cls-1" d="M283.59,584.72a25.67,25.67,0,0,1,3.46,1.71c2.87,1.94,3.4,5.3.7,7.41-1.8,1.41-4.43,1.95-6.77,2.42-2.16.44-4.39.16-5.45-1.89l8.06-9.65"/><path class="cls-1" d="M215.68,588.1c1-3.23,1.95-6.13,3-9.4a8.56,8.56,0,0,1,7.64-.16,3.2,3.2,0,0,1,1.66,2.34c-.2,5.6-6.74,9.5-12.28,7.22"/><path class="cls-1" d="M222.12,560.06a24,24,0,0,1,2-2.3c1.83-1.64,3.87-2.56,6.35-1.49a5.22,5.22,0,0,1,3.29,5.11c.08,2.86-.81,5.11-3.49,6.5a2.74,2.74,0,0,1-4-1c-1.41-2.17-2.71-4.4-4.19-6.82"/><path class="cls-1" d="M230.16,378.69c-5.67-.14-5.93-.35-5.76-5a17.69,17.69,0,0,1,.87-4.47,3.18,3.18,0,0,1,1.39-1.73c1.8-1,7.65,1.93,8.58,4.19s-.62,5.81-3.28,6.78a5.28,5.28,0,0,1-1.8.23"/><path class="cls-1" d="M262,422.75c-1.17-1.66-2.31-3.28-3.63-5.17a34.06,34.06,0,0,0,4-3.37,38.54,38.54,0,0,0,3.11-4.6c3.32.06,6.27,2.44,6.26,5.44a3.56,3.56,0,0,1-1.37,2.53c-2.62,1.79-5.39,3.36-8.38,5.17"/><path class="cls-1" d="M320.08,460.14c1.52-4.07.62-7.81-2.05-11.31l12.46,1.45c.59,7-3.55,11.14-10.41,9.86"/><path class="cls-1" d="M238,613.81c-3.89,0-5.73-1.79-5.22-5.19a3.65,3.65,0,0,1,.63-1.65c2.13-2.58,8.05-3.23,10.73-1.24,1.89,1.41,2.19,2.94.71,4.73a8.76,8.76,0,0,1-6.85,3.35"/><path class="cls-1" d="M263.74,216.22c-2.55-5-4.69-10.17-5-15.58a27.83,27.83,0,0,0-2.2,1.84c.05.46.12.93.21,1.4a52.33,52.33,0,0,0,11.51,24,12.3,12.3,0,0,0,2.66,1.87,6,6,0,0,0-1.14-3.63c-2-3.28-4.32-6.43-6.06-9.86"/><path class="cls-1" d="M259.42,493.33c-1.6-.3-2.84-.41-4-.76-2.42-.73-3.25-2.35-2.74-5s1.5-3.41,4.22-3a20.8,20.8,0,0,1,6.55,1.79c2.91,1.53,2.83,3.86,0,5.6a18.85,18.85,0,0,1-4,1.38"/><path class="cls-1" d="M285.6,363.8l5.8-8.29a5.8,5.8,0,0,1,6,2.67c2.07,3,1.46,5.7-2,6.93s-7,1.35-9.75-1.31"/><path class="cls-1" d="M303.36,524.66c.8-1.42,1.62-2.87,2.43-4.33a4,4,0,0,1,5.8-1.71c1.93,1.08,4,4.63,3.41,6.71a4.64,4.64,0,0,1-2.19,2.67c-3.37,1.66-7.05.27-9.45-3.34"/><path class="cls-1" d="M278.65,485.34c3.16-4.72,10.64-5.49,14.07-1.63,1.48,1.67.21,4.54-2.46,5.22-4.59,1.16-8.38-.32-11.61-3.59"/><path class="cls-1" d="M241.19,416.58H237l.78-.84L231.91,410c2.93-3.26,6.94-4.73,9.43-2.94,2.2,1.57,2.23,5.26-.15,9.56"/><path class="cls-1" d="M303.56,548.51l-2.09-3.66c2.39-1.57,4.69-3.27,7.18-4.64a5.17,5.17,0,0,1,3.81-.63c1,.4,1.68,1.95,2.07,3.14a6.6,6.6,0,0,1-.07,3.21c-.37,1.9-1.37,2.89-3.59,2.64a67.32,67.32,0,0,0-7.31-.06"/><path class="cls-1" d="M237.44,565.41l10.34-6.07c2.77,1.22,3.78,2.57,3.3,4.69-.63,2.8-3.14,5.15-5.68,5-3-.16-6.18-.3-8-3.64"/><path class="cls-1" d="M286.31,251.29a24,24,0,0,1-3.61-1.59,98.7,98.7,0,0,1-20.16-17.82c-2.59-3.1-4.71-6.55-4.42-11,4.63,11.19,14.16,17.82,23,25.1,1.44,1.18,2.9,2.33,4.32,3.53.22.17.28.53.89,1.77"/><path class="cls-1" d="M333.78,379c2,1.72,4.31,3.29,4.12,6.57-.16,2.75-1.14,4-3.9,4.09a13.82,13.82,0,0,1-5.37-.79,2.64,2.64,0,0,1-.7-4.52c1.89-1.76,3.8-3.48,5.85-5.35"/><path class="cls-1" d="M301.3,363.67c0-6.82-3.2-10.94-11.2-11.49l-1.75-4.41c4.69,2.81,8.7,4.66,13.34,4.1a1.24,1.24,0,0,1,.84.28c2.41,1.94,2.89,4.73,3,7.51.07,2.36-1.65,3.42-4.19,4"/><path class="cls-1" d="M221.71,607.61h5.82c2.82,3.66,2.81,5.44,0,7.89-2.18,1.92-5.4,2.08-7.13.36s-1.13-5.11,1.28-8.25"/><path class="cls-1" d="M237.91,559.65a14,14,0,0,0-10.64-6.87c3.65-1,6.26-1.67,8.89-2.33a5.38,5.38,0,0,1,1.83-.14c2.2.23,4.58.54,5.39,2.93.86,2.6-1.33,3.85-3,5.14a21,21,0,0,1-2.42,1.27"/><path class="cls-1" d="M308.48,434.35l4.42,1.8v8.2l-9,2.73c-.63-1-1.47-2.4-2.44-4,4.06-1.61,6.77-4.08,7-8.74"/><path class="cls-1" d="M272.19,483c2.92-4.5,1.33-8.28-1-12.13l3.25-2c3.15,2.62,6.39,4.94,5.12,9.57-.95,3.49-2.82,4.66-7.33,4.59"/><path class="cls-1" d="M316.53,569.44c-.5,2.42-1.55,4.17-4.1,4.42-3,.28-5.91,0-8.26-2.05-1.65-1.44-.31-4.89,2.3-5.14,3.58-.35,7.42-.62,10.06,2.77"/><path class="cls-1" d="M269.9,429.51c-3.11,0-5.76-1.22-5.94-2.66s2.29-4.8,4.28-5.76c2.38-1.15,7,1.22,7.42,3.82s-2.28,4.63-5.76,4.6"/><path class="cls-1" d="M295.34,324.16c.56.35.9.46,1.07.69,1.11,1.51,3.31,2.71,1.57,5.09-1.29,1.78-4.55,2.47-6.73,1.46a1.41,1.41,0,0,1-.39-.24c-3.16-2.91-6.81-4.07-11-2.75-.32-3.78.29-4.37,3.05-3.29a26.2,26.2,0,0,0,3,1.23c3.55.88,7,1.17,9.49-2.19"/><path class="cls-1" d="M201.3,600a20.36,20.36,0,0,1-2.79-.6c-2.15-.75-2.62-1.94-1.5-3.88a17.3,17.3,0,0,1,2-2.52c2.58-3,4-3,6.75-.42,1.29,1.23,2.26,2.54,1.6,4.46a4.26,4.26,0,0,1-3.86,2.83c-.61.09-1.23.08-2.22.13"/><path class="cls-1" d="M247.5,449.18c-1.17,0-1.48,0-1.79,0-1.9-.12-3.9-.19-4.27-2.64-.3-2,1.39-3.95,3.87-4.47a15.68,15.68,0,0,1,4.15-.35,3.85,3.85,0,0,1,3.9,3.81c.18,2.52-1.5,3.14-3.48,3.43-1.07.16-2.16.21-2.38.23"/><path class="cls-1" d="M219.62,449.11l1.31-8a21.89,21.89,0,0,0,2.75-.88c2.2-1,3.56.14,4.68,1.78a4.35,4.35,0,0,1-.46,5.53,6.65,6.65,0,0,1-8.28,1.56"/><path class="cls-1" d="M216.36,558.12c-.62-.36-2.49-.83-3-1.92s.19-2.89.91-4.05a5.55,5.55,0,0,1,7.26-2c1.36.63,3,1.29,2.48,3.31-.53,2.19-4.34,4.75-7.66,4.65"/><path class="cls-1" d="M273.59,571c1.6-1.3,3-2.47,4.43-3.57,1.8-1.36,3.61-.56,5.12.43,1.73,1.14,3,3.12,2.27,5.09-.6,1.5-2.44,2.52-3.59,3.62L273.59,571"/><path class="cls-1" d="M318.7,545.87l4.1,1.66c.47,2.42.92,4.75,1.41,7.26L317,557.5c-3.18-4.34.08-7.68,1.68-11.63"/><path class="cls-1" d="M233.77,593.06c3.31,1,6.85-.36,9.65,2.12-.44,4.86-.77,5.19-5.33,5.39-.77,0-1.53.15-2.3.21l-2.1.15a4.44,4.44,0,0,1-.35-1.12c.12-2.12.27-4.25.43-6.75"/><path class="cls-1" d="M249.51,608.08l-4.72-6.55c.16-.3.38-.85.68-1.36.82-1.44,1.42-3.29,3.62-2.89a5.71,5.71,0,0,1,4.5,4.14c.66,1.9.63,3.66-1.22,4.91-1,.68-2.06,1.27-2.86,1.75"/><path class="cls-1" d="M225.56,453.49c2.14-2.19,4-4.16,5.94-6.09a3.35,3.35,0,0,1,5.78,1.55c.31,1.4-.09,2.95-.16,4.42a39.83,39.83,0,0,0-6.29.93c-2,.62-3.61.67-5.27-.81"/><path class="cls-1" d="M309.2,266.82c3.85-.17,7.1,2,7,5.48,0,1.65-1.16,3.47-2.25,4.84-.81,1-2.37,1.43-3.74,2.2-.38-4.59-.72-8.56-1.05-12.52"/><path class="cls-1" d="M229.62,549.85c-2.57-.07-4.76-2.08-4.55-4.18a4.92,4.92,0,0,1,4.54-3.88c2.88,0,5.82,2.26,5.65,4.34s-2.76,3.79-5.64,3.72"/><path class="cls-1" d="M244.9,572.65c-.26.86-.53,1.73-.77,2.51-.43.11-.78.33-1,.24-4.48-2.15-9-3.07-13.89-1.27-.92.34-2,.14-3.57.21l1.21-3.7c3.57,1.09,6.84.86,8.74-2.08l9.26,4.09"/><path class="cls-1" d="M248.15,292.12c1.39-4.46,3.61-6.67,6.27-6.42s4,2.3,4.42,7.19l-10.69-.77"/><path class="cls-1" d="M238,419.33c5.35,1,6.55,3.55,4.42,9.57l-7.47-1.29,3-8.28"/><path class="cls-1" d="M250.6,497.43l1.67-3.21c2.35,1,4.63,1.88,6.72,3,3.59,2,3.76,4.72.42,8.35a15.28,15.28,0,0,0-8.81-8.17"/><path class="cls-1" d="M244.59,533.9c4.06-4.55,6.35-8.75,2.13-14.16l4-.82,4.2,5.73c-4.57,1.27-6.58,4.34-5.75,9.25Z"/><path class="cls-1" d="M206.89,603.13c1.71-3.34,2.94-5.74,4.31-8.44,1.9-.2,4.12-.51,5.26,2,.72,1.58-1,4.25-3.59,5.29-1.63.66-3.51.71-6,1.16"/><path class="cls-1" d="M217.92,451.87c2.09.51,4.57-.33,5.08,2.31.4,2.12,5,2.76,1.75,6.18l-5.45-1.06c-.43-2.29-.84-4.5-1.38-7.43"/><path class="cls-1" d="M253.34,566.5c.22-2.3.4-4.25.64-6.68l5.76.64v6.94l-6.4-.9"/><path class="cls-1" d="M316.22,279.41l5.76-2.84c3.88,3,3.88,4.79-.29,8.58l-5.47-5.74"/><path class="cls-1" d="M270,592.67c2.3.77,3,3,3.78,5.27-3.43,3-4.79,3.6-8.54,3.7,1.47-2.78,3-5.59,4.76-9"/><path class="cls-1" d="M219.67,528.84l3.54,1.38a65.24,65.24,0,0,1,1,7.61,4.88,4.88,0,0,1-2.21,3.54c-.44-2.16-.91-4.31-1.28-6.47-.33-1.93-3-3.39-1-6.06"/><path class="cls-1" d="M215.84,614.51c-2.22,4.43-3.93,5.12-8.42,3.58,1.53-6.31,3-7,8.42-3.58"/><path class="cls-1" d="M317,297.39l-7.5,4.74-5.21-4.31c2.83-.19,4.85-.39,6.88-.43,1.85,0,3.61-2.9,5.83,0"/><path class="cls-1" d="M283.36,555.59,279,559.38l-3.12-3.77,4.78-3.86c1,1.4,1.88,2.62,2.75,3.84"/><path class="cls-1" d="M217.27,608.64c-2.84-1-6.08-.28-9.7-2.39,3.19-.79,5.45-1.48,7.76-1.88,2.1-.36,2.64.82,1.94,4.27"/><path class="cls-1" d="M210.21,557.06l3.15,3-4.6,4.36c-.65-1.72-1.12-3-1.65-4.36l3.1-3"/><path class="cls-1" d="M214.75,500.84l-4.9-7.1,3.28-1.44c.78,2.91,1.5,5.57,2.22,8.23l-.6.31"/><path class="cls-1" d="M302.6,296.52l-5.41-.35L295.83,288c1.39-.83,2.34-.6,2.28,1-.12,3.14,1.54,5.23,4.49,7.61"/><path class="cls-1" d="M362,357.66l7.23,4.52c-1,.83-2,1.65-3.31,2.7-1.05-2.53-3.69-3.89-3.92-7.22"/><path class="cls-1" d="M292.65,267.5c-.49,1.09-1,2.17-1.61,3.55l-5.42-3,6.48-1.53.55,1"/><path class="cls-1" d="M295.94,316.07l5.14,1.2-4.78,4.15c-.11-1.61-.21-3.19-.36-5.35"/><path class="cls-1" d="M308.84,531.6c3.24.85,3.24.85,1.86,5.06-2.19-1.06-1.28-3-1.86-5.06"/><path class="cls-1" d="M240.1,455.1c.9-1.33-.15-4.27,3.85-3.68l-3,4.31-.89-.63"/><path class="cls-1" d="M277.9,488.07l3.94,2.7-2.09,1.92-1.85-4.62"/><path class="cls-1" d="M246.53,589.05c.61-2.32.9-3.46,1.29-4.94l2.43,2.17-3.72,2.77"/><path class="cls-1" d="M252.86,475l-2.17-2.77c.67-.17,1.1-.44,1.42-.34,1.35.44,1.34.48.75,3.11"/><path class="cls-1" d="M219,412.88l-2,3.2c-1.12-2.38-.27-2.85,2-3.2"/></svg>