<svg id="Capa_1" data-name="Capa 1" xmlns="http://www.w3.org/2000/svg" viewBox="0 0 598.72 863.8"><defs><style>.cls-1{fill:#3f92a0;fill-rule:evenodd;}</style></defs><title>cartes-bg</title><path class="cls-1" d="M233.46,385.78c-.2,6-.58,11.94-.83,17.92-.11,2.32.3,4.72-.15,7-.6,2.92.19,5.38,1.06,8.07a138.1,138.1,0,0,0,8,18.71,113,113,0,0,1,5.7,14.19c1.11,3.33,1.25,7,2.27,10.36,2.45,8-1.34,17.91-9.4,21.14-6.74,2.71-13.4,5.61-20.06,8.52a28.61,28.61,0,0,0,14.52,8.16,67.44,67.44,0,0,1,6.1-3.13c7.38-3.26,12.76-8.72,18.29-14.1,9-8.75,11.4-23,5.85-33.88A41.84,41.84,0,0,0,262.4,445l-1.3.49c2.91,8.14,5.2,16.32,2.15,25.37-.58-1.08-1-1.87-1.42-2.66-2,4.43-3.5,8.92-5.89,12.91A21.4,21.4,0,0,1,245.76,490c.77-.84,1.48-1.73,2.31-2.49A23,23,0,0,0,256,470.07c.13-11.47-3.57-21.78-8-32.08-3.11-7.22-5.65-14.71-8.09-22.2a55.75,55.75,0,0,1-2.2-11.34c-.23-2.16.47-4.41,1.06-6.62,2.55,4.92,1.93,11.07,7.16,14.81-.91-2.95-1.91-5.89-2.71-8.87a53.37,53.37,0,0,1-1.66-9.08c6.69,8.77,6.32,19.45,7.72,30,3.86-6.19.29-22.68-6.81-35.12,1.28.78,2.58,1.52,3.82,2.34,5.32,3.53,9.63,8.14,13.84,12.87s8.86,9.55,11.9,15.39a42.39,42.39,0,0,1,2.07,4.09c5.38,14,8.76,28.33,8.25,43.44-.1,3.06.57,6.15.51,9.22-.06,3.31,1.38,5.2,4.72,6.11V463.31c3.06-2,5.74-1.19,8,1,2.4,2.3,4.18,5,3,8.66-.52,1.62-1,3.26-1.68,4.83-1.44,3.41-3.2,6.67-2.22,10.64.27,1.1-.27,2.44-.58,3.63a67.09,67.09,0,0,0-1.61,22,31.33,31.33,0,0,0,5.12-.78,128.52,128.52,0,0,1-.28-13.73c.3-7.39,4-13.6,8.64-19.37,3.61-4.46,7.51-6.67,13.22-4.94,3.16,1,6.58,0,9.77,2,2.29,1.49,5.67-1.11,5.3-3.87a4.52,4.52,0,0,1,1.19-3.93c2.61-3.25,1.92-5.15-2.15-5.32-5.69-.25-11.39-.07-17.55-.07.67-1.6,1.4-3.36,2.31-5.52,4.78,0,9.55,0,14.32,0a6.23,6.23,0,0,1,2.52.9c3.69,1.89,6,.6,6-3.52a14.28,14.28,0,0,0-.38-2.55,52.34,52.34,0,0,0,3.4-4.68c1-1.81.71-3.43-1-4.89s-3.45-1.7-5-.42c-5,4.05-10.4,2.72-16.41,1.66.41-4.49.75-8.88,1.22-13.26.41-3.84,1.05-7.65,1.45-11.49.32-3.11.14-3.31-2.84-6.22a29.62,29.62,0,0,0-3.69,1.34c-3.35,1.71-3.46,2.86-1.3,6,.77,1.12.9,2.69,1.46,4.47-4.51-1.06-7.51.77-10.25,3.07-.78.66-1.05,1.92-1.56,2.91a32.77,32.77,0,0,0,3.13,1.3,5.63,5.63,0,0,0,1.87-.13,36.2,36.2,0,0,1-3.39,19.3c-3.72-2.69-7.15-5.16-10.56-7.66a2,2,0,0,1-.86-1c-.31-2.29-1.83-3.67-3.78-2.82-1.61.71-2.86,2.58-3.88,4.19-.46.73,0,2.06.09,3.37,6.95.47,11.56,4.69,16.3,9.54-.94,1.75-1.86,3.43-2.79,5.16-3-2-5.86-3.54-8.19-5.69-2.1-1.94-3.78-1.52-6,.08-.65-3.48-1.15-6.66-1.86-9.8-1.65-7.37-3.35-14.74-5.15-22.08-1.67-6.83-6.33-11.93-10.34-17.4a1.48,1.48,0,0,0-.33-.33c-5.65-4-5.94-10-5.9-16.06,0-2.53,1.56-4.16,3.69-6.66.58,5.75-.73,11.08,2.93,16.38a22,22,0,0,0,.31-3c-.15-2-.42-4-.57-6-.57-7.38.6-14,8.09-17.9,2.29,5.23,2.95,11.12,4,16.89,1.76,9.25,3.36,18.53,5.24,27.75.45,2.2,1.73,4.23,2.62,6.33,2.78-.39,2.54-2.24,2.5-3.9a112.35,112.35,0,0,0-3-22.33,183.36,183.36,0,0,1-3.23-18.77,21.12,21.12,0,0,1,7.08,9.61c3.1,9.19,3.95,18.73,4.15,28.34.13,6,0,12.09,0,18.14,0,2.12.2,4.09,3.15,4.53a26.31,26.31,0,0,0,2.11-10.2c0-4.19.19-8.38,0-12.56-.3-5.55,1.68-10.36,4.48-14.89a79.08,79.08,0,0,1,22.34-23.92c2.6-1.8,4.92-4,8-6.6-2.08,6.32-7.4,9-10.21,14a15,15,0,0,0,2.64-1.18,30.85,30.85,0,0,0,11-13.53,49.28,49.28,0,0,1,4-7.85,8.25,8.25,0,0,1,.49,6.49,25.24,25.24,0,0,1-1.91,5.22c-2.6,4.69-2.73,9.75-2.66,14.89.06,4-.26,8.09.07,12.09.52,6.12-1.32,11.61-3.95,16.91-1.57,3.17-3.6,6.11-5.35,9.19-2,3.6-4.6,7.08-3.37,12.33,1.51-1.24,3.26-2,3.89-3.33,3.83-7.91,10.38-12.36,18.35-15.24a45.84,45.84,0,0,0,7.66-3.33,37.33,37.33,0,0,0,6.56-5.07c3.71-3.48,7.23-7.15,11.55-10.35a15.65,15.65,0,0,1-.75,2.64,76.5,76.5,0,0,1-17,23.09,46.37,46.37,0,0,0-5,5.7c3.7-1,7-3.58,12.67-10.27,3.56-4.21,6.6-8.84,9.85-13.25-1.52,10.82-10.2,17-16.47,24.89,4.22-1,6.25-5,9.82-6.9-1.59,9.62-5.64,17.91-11.12,25.67-2,2.83-3.15,6.3-4.43,9.57a8.52,8.52,0,0,0,1.42,8.76,7.2,7.2,0,0,1,1.49,5.17c-.2,5.24,1.6,9.62,4.47,13.88a65.47,65.47,0,0,1,17.41-4.4c5.05-.62,11.18-.47,15.93-2.56a10.29,10.29,0,0,0,1.81-1,205.12,205.12,0,0,1-27.36-12c-7.6-4.09-9.06-10.31-4.67-17.71,3-5,6.09-10.12,8.17-15.55,3.59-9.36,6.49-19,9.52-28.57.94-2.92,1.38-6,2.05-9,1.46-6.61,1.51-13.48,4.13-19.9,1.29-3.19.47-6.63-.56-9.9-3.23-.66-4.41,1.4-5.26,3.59a33.25,33.25,0,0,0-1.9,6.68c-1.3,8.08-6.13,14.14-11.53,19.69A178.31,178.31,0,0,1,355.31,415a16.33,16.33,0,0,1-9.11,3.65c.33-4.61.81-8.87.92-13.15.16-5.84-.26-11.71.16-17.53a38.32,38.32,0,0,1,2.6-10.7c1.11-2.94,2.18-5.73,2-8.93-.15-2.32,0-4.65,0-7-.08-2.62-.05-5.06,1.37-7.54,1.57-2.77.27-4.26-3.07-4-1.19.08-2.37.35-3.48.53-1.06,4.22-3.35,7.38-6,10.48-6.26,7.3-12.63,14.39-20.67,19.87-5.17,3.51-8.85,8.55-12.33,13.69a45.34,45.34,0,0,1-2.94,3.54c-1.37-4.2-2.41-7.88-3.75-11.44-2-5.18-3.93-10.38-6.29-15.39-2.49-5.3-5.19-10.45-4.91-16.54a4,4,0,0,0-.15-1.83c-.43-.91-1-2.22-1.7-2.42a3.18,3.18,0,0,0-2.74,1.13c-1.73,2.68-3.91,5.39-4.55,8.38-1.18,5.55-4.32,9.48-8.45,12.85-6.94,5.66-12.26,12.31-13.57,21.45-2.77-2.33-5.35-4.51-7.95-6.68s-5.42-4.15-7.81-6.54c-2-2-3.43-4.52-5.29-6.67a5.5,5.5,0,0,0-3.11-2c-.76-.06-2.12,1.25-2.37,2.17-.73,2.63-1.52,5.33.64,7.9a5.47,5.47,0,0,1,.79,3.47m95.16,83.11c.43.07.8.57,1.2.88-.1.21-.19.42-.28.64l-2.67-.61,0-.61a5.68,5.68,0,0,1,1.78-.3m-6.32-18.67a9.15,9.15,0,0,1,1.38.1l13.66,1.1c-3,1.53-11.81,2.54-16.78,2-.25-1.73-.28-3.1,1.74-3.22m-8.31.72c.53,4.24-3.64,13.54-8.69,19.45,1.12-7.79,6.63-12.85,8.69-19.45"/><path class="cls-1" d="M353.12,497.09a3.45,3.45,0,0,0,.55.53c.53-.36,1.1-.67,1.65-1a10.55,10.55,0,0,0-.69-1.29c-2-3.28-4.32-6.43-6.05-9.86-3.9-7.67-6.92-15.56-3.75-24.36,0-.06-.2-.2-.59-.55-3,3.79-3.45,8.17-2.64,12.57a52.34,52.34,0,0,0,11.52,24"/><path class="cls-1" d="M348.2,502.09c.48-.45.95-.92,1.45-1.34a38.72,38.72,0,0,1-6.7-10.61c-.29,4.45,1.83,7.9,4.42,11,.27.33.56.64.83,1"/></svg>