<svg id="Capa_1" data-name="Capa 1" xmlns="http://www.w3.org/2000/svg" viewBox="0 0 598.72 863.8"><defs><style>.cls-1{fill:#3f92a0;fill-rule:evenodd;}</style></defs><title>cartes-bg</title><path class="cls-1" d="M351.75,641.87l-1,0c-.08-1.25-.16-2.5-.27-4.18,1.82,1.93,1.82,1.93,1.26,4.2"/><path class="cls-1" d="M359.2,622.29l6.84,1.4q1.66-3.48,3.32-7c.14-.28.28-.54.43-.79q.16-1.58.21-3.15a9.53,9.53,0,0,1,1.9-5.64c-6.83-1.74-13.76-3.27-20.28-5.83-6.89-2.71-13.68-5.68-20.77-7.84-5.77-1.76-11.64-3.23-17.4-5.05-9-2.84-17.91-5.91-25.49-11.88-3.9-3.07-8.18-5.63-12.07-8.7C269,562.41,262,557,255.56,551.08c-3.59-3.3-6.47-7.5-9.23-11.58-7.25-10.72-13.05-22.3-15.42-35-2.46-13.2-7.11-25.91-8.51-39.27-.91-8.73-.88-17.57-1.25-26.36,0-.93,0-1.86,0-2.79l.93-21.31c.31-6.95.71-13.89.9-20.84.14-5.38-.06-10.77.07-16.14a51.52,51.52,0,0,1,.85-7.82c1-5.77,2.29-11.5,3.32-17.27.86-4.86,1.5-9.75,2.29-14.62,1-6.39,2.15-12.77,3.18-19.16s4-12,7.11-17.52c2.56-4.58,4.86-9.3,7.28-14a11.91,11.91,0,0,1,1-2.05c10-12.69,20.07-25.25,34.15-33.74s28.42-17,43.57-23.8c7-3.17,13.34-7.92,20.38-11,7.37-3.26,12.75-8.73,18.29-14.1a26.9,26.9,0,0,0,2.91-3.33c-1.69.12-3.39.22-5.08.31-.27.5-.52,1-.81,1.52a21.38,21.38,0,0,1-10.18,8.94c.76-.83,1.48-1.72,2.31-2.49a24.68,24.68,0,0,0,5.85-7.83c-3,.12-6,.17-9,.18a14.93,14.93,0,0,1-4.9,3.25c-10.05,4-19.94,8.49-29.87,12.8-2.27,1-4.46,2.15-6.68,3.25-9,4.46-18.1,8.76-27,13.47-5,2.66-10.28,5.38-14.38,9.2-6,5.54-11,12.06-16.33,18.24-2.22,2.57-4.18,5.36-6.26,8.05-5.77,7.43-9.44,16.29-15.89,23.27a30.68,30.68,0,0,0-4.68,6.33c-2.36,4.48-5.34,9-6.21,13.8-.83,4.65-1,9.44-2.65,14a11.43,11.43,0,0,0-.38,2.28c-1.08,7.32-2.19,14.63-3.21,22Q210.37,363,208.71,376a13.2,13.2,0,0,0,.15,3.13,48.18,48.18,0,0,1,.79,6.37c-.19,9.43-.53,18.86-.9,28.29-.14,3.54-.52,7.07-.77,10.6-.36,5.09-.88,10.17-1,15.25-.32,10.06-.46,20.11-.62,30.17a21.55,21.55,0,0,0,.45,3.64c.68,4.24,1.33,8.49,2.11,12.71a122.59,122.59,0,0,0,2.8,13.51,136,136,0,0,0,5.62,14.2c4,9,6.73,18.62,12.24,27s11,16.91,20.09,22.12a30.62,30.62,0,0,1,5,4.17c6,5.49,11.16,12.07,18.67,15.87a47,47,0,0,1,5.46,3.52c6.36,4.41,12.66,8.87,20.11,11.42a73.12,73.12,0,0,1,8.31,4c2.76,1.37,5.44,2.92,8.28,4.1,10,4.16,20,8.19,30.42,12.43,0,3.31,0,6.4,0,9.48,0,5.58-.26,11.17-.1,16.74.14,5.08,3.43,7,8.17,4.85,2.75-6.25,5.66-12.43,8.62-18.6a6.11,6.11,0,0,1-3.33.88Z"/><path class="cls-1" d="M266,306.19c-4.05,6.21.13,9.84,3.91,13.57-4.6,5.63-7.11,6.36-13.36,3.48a24.48,24.48,0,0,1-6.23-3.87c-2.62-2.39-2.67-5.16-.34-7.81,4.12-4.69,9.15-7.05,16-5.37"/><path class="cls-1" d="M382.54,495.77c1-2.39,2.46-6.15,4.07-10.14a60.47,60.47,0,0,1,6.73-2c2.89-.58,5,1.15,6.74,3.19,1.51,1.73,2.45,3.69,1.18,5.9-3,5.23-6.63,9.7-11.92,10.63l-6.8-7.54"/><path class="cls-1" d="M316.76,293.88h8.87a29.52,29.52,0,0,1,2.8,12.4,5.52,5.52,0,0,1-2.9,4.91A10.24,10.24,0,0,1,315,311c-3-2.1-3.85-7-1.85-10.39,1.25-2.08,2.32-4.27,3.65-6.76"/><path class="cls-1" d="M360.75,524.34c-6.07,0-9.52-2.52-11-8.5a4,4,0,0,1,1.4-3.43,39.87,39.87,0,0,1,7.49-3.56,5.37,5.37,0,0,1,6.05,1,10.94,10.94,0,0,0,1.43,1.18c4.1,3,4.78,4.51,3.62,8.23-.93,3-3.63,4.76-7.61,5-.46,0-.92,0-1.39,0"/><path class="cls-1" d="M303.1,385c6.18-.89,6.18-.89,10.09-3.88.63.86,1.71,1.66,1.83,2.59.69,5.28.61,5.29,3,8.29-.7,2.45-1.32,5-2.16,7.45-1,3-2.15,3.59-5.22,3-7.51-1.52-11.1-9.83-7.51-17.42"/><path class="cls-1" d="M318.49,540.55c.13,7.56-2.75,10.14-9.18,9.39a33.14,33.14,0,0,1-4.57-.69,6.36,6.36,0,0,1-4.11-9.4c2.84-5.66,11.87-7.25,16.23-2.72a9.43,9.43,0,0,1,1.63,3.42"/><path class="cls-1" d="M343.18,238.09c-1,3.48-1.89,6.54-2.82,9.59a5.15,5.15,0,0,1-5.26,3.75,21.89,21.89,0,0,1-8.07-1.59c-3.79-1.65-4.68-6.41-2.24-9.9a9.9,9.9,0,0,1,7.45-4.18,18.5,18.5,0,0,1,10.94,2.33"/><path class="cls-1" d="M293.94,255a68.77,68.77,0,0,0,3.43,7.24,65.09,65.09,0,0,0,4.87,6.15c-1,2.86-3.54,4-6.78,3.75-4.5-.36-8.94-1-12.23-4.6-2.5-2.76-2.4-4.08-.17-7.19,2.57-3.62,6.18-4.84,10.88-5.35"/><path class="cls-1" d="M374.49,600.69c-4.72.12-9.09-2.93-7.47-9,.6-2.24.61-4.45,2.67-6.15a6,6,0,0,1,6.43-1.2,9.66,9.66,0,0,1,6,5.47c2.31,6.17.59,10.66-7.67,10.86"/><path class="cls-1" d="M365,547.34l-8.39-6.86c.1-1,.63-2.61.34-4-.81-3.94,2-5.34,4.58-6.53s5.53-1.53,8.1,1c4.05,4,4.36,8.45.34,12.51a47.32,47.32,0,0,1-5,3.94"/><path class="cls-1" d="M327.36,556.8c0,6.1-3.06,9.15-7.9,9.25s-8.82-3.47-8.87-7.6a4.83,4.83,0,0,1,2.46-4.63c2.1-1.27,4-2.94,6.21-3.93,1.17-.53,3.54-.54,4.13.2a47.27,47.27,0,0,1,4,6.71"/><path class="cls-1" d="M326.66,567.59c4.17-4.43,4.51-5.13,5.53-11.29,2.06.19,4.14.37,6.23.58,2.9.28,5.74,3.92,5.35,6.85-.56,4.17-6.71,9.81-10.82,9.9-4.57.1-5.54-.8-6.29-6"/><path class="cls-1" d="M364.87,366a3.77,3.77,0,0,1-.68-.47C359,361,360,355,366.53,352.67c2.59-.93,5.21-1.8,7.86-2.52,3-.84,4.59-.06,6.74,3-5.06,5.66-5.06,5.66-6.3,10.08l-10,2.74"/><path class="cls-1" d="M396,480.41c0-7.73,0-7.73-7.19-14.34,4.36-5,7.65-6.1,11.82-4.19,4.47,2.05,5.67,7.35,4.89,11.94-.72,4.21-3.93,6.4-9.52,6.59"/><path class="cls-1" d="M361.49,350c-5,4.31-3.88,9.29-2.38,14.85-1,.31-2.22,1.12-3.12.86a40.77,40.77,0,0,1-8.1-3.2,5.21,5.21,0,0,1-2-3.47,13,13,0,0,1,2.15-9.26c1.44-2.21,5.18-3.05,7.93-2,1.73.64,3.42,1.38,5.55,2.25"/><path class="cls-1" d="M374.52,455.89l3.73,8.54c1.71,3.92,1.37,5.27-2,7.84-3.09,2.38-6,2.49-8.83.21-1.54-1.23-3-2.63-4.79-4.26,4-3,5.39-7.24,5.29-12.33Z"/><path class="cls-1" d="M360.08,379.65c2.68,1.73,4.94,3.31,7.31,4.69a6.07,6.07,0,0,1,3.36,5.55,6.55,6.55,0,0,1-4.5,5.95,9.11,9.11,0,0,1-9.49-2c-2.53-2.3-2.88-5.23-1.8-8.51,1-2.92,1.91-5.61,5.12-5.64"/><path class="cls-1" d="M349.27,301c4.39,1.17,8.44,1.06,12.29-1.64.46,2.15.84,3.92,1,4.84-1.67,3.35-3.31,5.95-4.26,8.78-.78,2.32-2.22,2.94-4.18,2.69a14.16,14.16,0,0,1-9.08-5.17c-1.46-1.7-1.07-3.49.21-5.09,1.15-1.44,2.46-2.75,4-4.41"/><path class="cls-1" d="M368,437.8c4.92-.23,7.79,2.68,10.86,5.22,1.55,1.29,1.66,2.81.83,4.55-2.41,5.12-10.37,6.9-14.71,3.27a7,7,0,0,1-.65-9.54c1.12-1.25,2.44-2.33,3.67-3.5"/><path class="cls-1" d="M347.72,297.31a37.15,37.15,0,0,0,.76-4.88,24.36,24.36,0,0,0-.64-4.16c4.3-.84,8-2.52,9.38-7.23l5.18,2.07c2.29,4.58,2.42,8.53-1.55,12.25s-8.09,3.91-13.13,1.95"/><path class="cls-1" d="M361.71,498.38c-.3,4.16-3.13,6-5.62,8a13.65,13.65,0,0,1-11.77,2.94c-3-.64-3.61-1.86-2.51-4.61,2.85-7.09,8.77-9.85,16-7.47,1.27.41,2.56.77,3.88,1.17"/><path class="cls-1" d="M369.12,321.55l8.06-3.44,2.76,3.49-5.15,12.49c-1.56.56-3.85,1.25-6,2.2-2.45,1.08-4.88,1-5.9-.56-1.23-1.93-.1-3.36,1-5,1.86-2.78,3.36-5.81,5.27-9.18"/><path class="cls-1" d="M400.94,511.05l-9.4-5.37a64.75,64.75,0,0,0,7.34-5.5c2.3-2.22,4.05-5,6-7.52,4.49,1.3,6.53,4.07,5.65,8.1-1.23,5.64-4.59,9.31-9.59,10.29"/><path class="cls-1" d="M357.82,485.61a29,29,0,0,1-4.86-1.27c-3.09-1.42-3.54-2.83-2.46-6.19.33-1,.56-2.08.85-3.12.78-2.88,3.41-4.95,6.15-4.06a22.07,22.07,0,0,1,7.54,4.15c2.76,2.43,2.13,6.38-1.07,8.19a37.93,37.93,0,0,1-6.15,2.3"/><path class="cls-1" d="M268.39,326.42c3.76,5.31,8.55,6.89,14.45,6.65.14,1.54.28,3,.39,4.13-3.84,1-7.38,1.93-10.92,2.84a9.46,9.46,0,0,1-10.49-3.91,4.2,4.2,0,0,1,.68-5.45c1.7-1.49,3.66-2.68,5.89-4.26"/><path class="cls-1" d="M346.06,271.19c1.75.29,3.71.18,5.21,1,2.88,1.5,3.74,4.45,2.88,8a6.45,6.45,0,0,1-6,4.91c-.31,0-.62,0-.92,0-7.36.18-10.62-5.06-7.28-11.69.68-1.36,1.6-2.19,3.25-1.95.91.13,1.84.12,2.76.17,0-.14.05-.28.07-.41"/><path class="cls-1" d="M320.35,244.73c.41,5.12,4.27,7.34,8.35,9.2-1.25,4.89-5.33,7.67-9.9,6.93-4.1-.67-7.54-4.69-7.16-8.36.5-4.87,3.51-7.63,8.71-7.77"/><path class="cls-1" d="M311.78,260.82c-1,2.23-1.5,4.71-4.61,4.52s-5.81-.75-7.07-4.15c-.8-2.17-2-4.2-3-6.29-1.31-2.75-.94-4.11,1.59-5.88,2.13-1.48,6.19-1.67,8.3-.12a3.56,3.56,0,0,1,1.44,2.56c-.34,3.64,1,6.61,3.3,9.36"/><path class="cls-1" d="M383.82,372.16c-2.36,2.62-4.74,5-6.83,7.65-2.82,3.55-9.2,1.33-11-1.35a2.48,2.48,0,0,1-.57-1.22,12,12,0,0,1,5.1-9.44c2.24-1.65,5.44-1.21,8.05.83.85.66,1.74,1.28,2.63,1.89s1.56,1,2.59,1.64"/><path class="cls-1" d="M388.08,410.59c.49,2.23-.81,3.62-3.11,4.54a18.47,18.47,0,0,0-3.55,2.09,6.2,6.2,0,0,1-7.16.17c-1.93-1.48-2.4-4-1.67-6.64,1.27-4.51,5.37-5.77,8.83-7.31,3.07-1.35,6.63,2.62,6.66,7.15"/><path class="cls-1" d="M292.93,287.25c2.26.32,4.09.88,5.89.78,3.08-.18,4.41,1.42,5.31,4s1.51,5.27-.31,7.5-4.46,2.6-7.19,1.51a25.89,25.89,0,0,1-4.69-1.91c-2.57-1.67-2.81-3.53-1.25-6.24a24.18,24.18,0,0,0,1.46-2.87c.33-.84.49-1.75.78-2.8"/><path class="cls-1" d="M394,476.44c0,6.08-4.32,8.57-9.59,5.56-7.45-4.27-7.68-5.49-2.16-12.06a3.62,3.62,0,0,1,1.76-1.32c3.41-.69,10.54,2.49,10,7.82"/><path class="cls-1" d="M312.38,325.44c2.55-3.48,3.31-6.83.69-10l11.66.63,4,3.37c.14,4.18-1.64,7.19-5.8,8.7s-7.38,0-10.56-2.72"/><path class="cls-1" d="M320.82,505.22c5.25-6.66,12.38-6.7,19.43-7.92.8,3.16-1.09,5.27-2.45,7.28-1.9,2.8-4.22,5.52-7.9,5.92-1.93.2-4.26.14-5.83-.79s-2.26-3-3.25-4.49"/><path class="cls-1" d="M352.62,413.26c5,.13,8.64-2.49,11.29-6.58,4.36,2.28,5.49,5.33,3.76,9.85-1.8,4.69-7.62,7.59-12,6.28l-3.09-9.55"/><path class="cls-1" d="M358.19,572.35c0-2.09-.16-3.45,2.1-3.86a21.22,21.22,0,0,0,5.91-2.28c2.78-1.46,5.3-1.38,7.6.6a5.32,5.32,0,0,1,1.45,6.67,15.27,15.27,0,0,1-3.26,4.91c-1.88,1.78-4.25,1.62-5.53-.39-2-3.06-4.88-4.53-8.27-5.65"/><path class="cls-1" d="M382.41,487.94c0,4.07-4,8.39-8.1,8.65-2,.13-4,.11-6,.41s-2.83-.73-3.22-2.41c-.65-2.83.42-4.89,3.13-6.34,1.49-.79,2.81-2,4.36-2.53a24.29,24.29,0,0,1,6.6-1.44c2.21-.11,3.21,1.49,3.2,3.66"/><path class="cls-1" d="M315,263c4,.24,5,2.89,5.81,5.83,1.11,4.25.46,6.07-3.06,8.57-2.94,2.08-5.8,2-9-.1-2.85-1.91-3.26-4-1.11-6.56a9.52,9.52,0,0,1,2.83-2.29c3.45-1.83,3.48-1.77,4.57-5.45"/><path class="cls-1" d="M389.6,368.77c-3.62.13-9.06-3.73-9.76-6.55a3.79,3.79,0,0,1,.53-3,35.9,35.9,0,0,1,5.13-4.55c1.57-1.19,3-1.06,4.3.78.95,1.37,2.44,2.35,3.54,3.63,2.45,2.84,2.48,4-.08,6.73a28.46,28.46,0,0,1-3.66,3"/><path class="cls-1" d="M360.13,317.91l4.4,2.91c.16,5.42-2.4,9.15-6.82,10-3.18.6-5.23-.32-7-3.16-1.37-2.16-1.36-6,.22-7.86a4.11,4.11,0,0,1,2.34-1.08c2.08-.34,4.2-.5,6.89-.79"/><path class="cls-1" d="M369.06,553.63a3.25,3.25,0,0,1,2.6-3.6,9.78,9.78,0,0,1,8,.71c2.13,1.2,4.46,2.81,4.26,5.58-.21,2.94-2.34,5-4.87,6.32s-8.1-1.25-8.95-3.94a47.6,47.6,0,0,1-1.07-5.07"/><path class="cls-1" d="M394.31,524.51c1.19-.77,2.64-1.61,4-2.6,2.86-2.1,6-2,8.15.47a6.62,6.62,0,0,1-.05,8.44,12.93,12.93,0,0,1-7.55,4.47l-3.25-2c-.43-3-.85-5.78-1.29-8.81"/><path class="cls-1" d="M290.37,275.46l12.68-1.65c.82,1.47,1.7,3.39,2.88,5.11,1.71,2.47,1.44,4.22-1.13,5.56-3.37,1.75-11.67.23-13.81-2.8a5.81,5.81,0,0,1-.62-6.22"/><path class="cls-1" d="M353.21,254a20.34,20.34,0,0,1-.76,3.68c-1.15,2.83-2.46,5.59-3.73,8.37a4.68,4.68,0,0,1-5.38,2.58c-2.23-.55-2.83-1.57-2.75-4.56,0-1.06.31-2.29-.1-3.16-1.21-2.54-.51-4.37,1.41-6.16.46-.44.31-1.51.43-2.16L353.21,254"/><path class="cls-1" d="M390.71,413.89c-.48-5.06.31-7,3.28-8.41,2.66-1.26,9.11-.41,11.05,1.45a4.61,4.61,0,0,1,0,6.91,8.34,8.34,0,0,1-10.7,1.57,38.19,38.19,0,0,0-3.65-1.52"/><path class="cls-1" d="M311.3,329.07c-6.9,8.2-4.07,14.07,3.71,18.23a33.83,33.83,0,0,0-3.1,2.29c-2.85,2.65-6.15,3.07-9.2,1.07-2.73-1.8-3-4.12-.82-6.52,5.61-6.11,5.77-7.76,1.55-15a20.28,20.28,0,0,1-.92-2.29c3.09,1.6,6.84-2.43,8.78,2.25"/><path class="cls-1" d="M322.9,264.54,333,257.06c2.32.67,3.82,2.49,3.68,5.8a22.45,22.45,0,0,0,.63,5c.57,3-.24,4.23-3.16,4.08a38.13,38.13,0,0,1-6.86-1.09,3.7,3.7,0,0,1-2.05-1.61c-.87-1.43-1.49-3-2.29-4.7"/><path class="cls-1" d="M264.27,343.44l6.31.73c1,5.23,1.91,10,2.87,15-2.44,2.56-7.49,2.91-10.23.39a3.31,3.31,0,0,1-.7-4.57c2.25-3.45,2.48-7.17,1.75-11.59"/><path class="cls-1" d="M273.61,364.58a14.29,14.29,0,0,1-1.76,1.45c-3.48,1.9-7.06,3.65-10.45,5.69-2.53,1.52-4.46.21-6.4-1a4.66,4.66,0,0,1-2.45-5c.63-4.57,1.44-5.77,5.11-7,2.58,1.85,4.68,4,7.22,5s5.3.59,8.73.86"/><path class="cls-1" d="M390,429.34a40.78,40.78,0,0,1-6.28-1.37c-2.58-1-3.61-3.58-2-5.6a17.63,17.63,0,0,1,6-4.76c2.59-1.22,8.26,2.15,8.88,4.86.67,3-1,7.16-6.61,6.87"/><path class="cls-1" d="M296.08,328.09c1.56,2,3,3.85,4.36,5.71,1.1,1.5,2.25,3,1.3,5.06s-2.85,2-4.74,2.05c-3.37.12-6.48-.44-9-2.88-2.14-2.08-2.18-3.75-.24-6a10.67,10.67,0,0,1,8.31-3.9"/><path class="cls-1" d="M325.11,368.54c-1.16,2.74-2.17,5-3.06,7.24-1.13,2.91-4,4.14-6.11,2a20.74,20.74,0,0,1-5-7.59c-1.19-3.36,1.39-5.55,5.09-5.51s6.93.84,9,3.85"/><path class="cls-1" d="M366.79,501.28c3.45.22,6.48.39,9.51.61a11.77,11.77,0,0,1,2.73.41,5.12,5.12,0,0,1,3.85,4.68c.16,2.17-1.16,3.77-3.74,4.65-3,1-5.77.13-8.33-1.47-1-.65-1.87-1.6-2.86-2.32-3.34-2.41-3.38-2.53-1.16-6.56"/><path class="cls-1" d="M387.81,305.91c1.12,1.52,2.06,2.83,3.05,4.11,1.73,2.24,1.93,4.31.55,6.38a5.59,5.59,0,0,1-6.17,2.07,10.35,10.35,0,0,1-6.47-6.22c-1.17-3,.49-5.29,2.62-7.27l6.42.93"/><path class="cls-1" d="M334.88,466.66c4.14,2.94,9.79,2.77,12.71,7.79-.71,2.18-.38,5.15-3.88,5.78a10.27,10.27,0,0,1-9.36-2.77c-1.92-1.84-1.63-7,.53-10.8"/><path class="cls-1" d="M353,557.4c-5.14,0-7-1.59-7.52-5.45-.33-2.65.84-4.22,3.55-4.75,1.8-.36,3.59-.84,5.41-1.06,2.78-.34,4.74,1,5.94,3.43,1.49,3,.63,5.4-2.56,6.6A35.43,35.43,0,0,1,353,557.4"/><path class="cls-1" d="M247.61,392.23c.86,3.13,1.65,6,2.67,9.76-.42,1.41-1.92,2.49-4.23,1.36a77.88,77.88,0,0,1-8.83-5c-2.34-1.55-3-3.77-2.29-5.47s3.81-3.07,6-2.57c2.39.54,4.73,1.32,6.65,1.87"/><path class="cls-1" d="M334.67,287.38l6.74,2.79c2.56,1.07,3.64,2.74,3.21,4.92a5.1,5.1,0,0,1-5.09,4.47,12,12,0,0,1-8.77-3.56c-3.18-3.34-2.19-6.83,2.26-8.09.73-.21,1.44-.46,1.65-.53"/><path class="cls-1" d="M298,451.43c-.23-1.39-.42-2.56-.58-3.49l7.57-3a94.45,94.45,0,0,1,9.12,3.92c3.25,1.76,3.25,3.75.49,6.09-3.41,2.89-4.68,2.85-8.21-.22-2.53-2.21-3.36-2.54-8.39-3.32"/><path class="cls-1" d="M280,356.11h4.12l5.58,7.39.65-.39c.13,1.65.27,3.29.39,4.87-5.83,2.34-11.94.7-15.17-3.89,1.38-2.5,2.76-5,4.43-8"/><path class="cls-1" d="M384.91,549.21a35.73,35.73,0,0,1,6-.4,4.65,4.65,0,0,1,4.27,4.25,9.27,9.27,0,0,1-3.5,9c-1.75,1.47-3.49,3-5.64,4.78l-4.68-1.56c6.46-7.59,6.72-8.69,3.59-16"/><path class="cls-1" d="M243.06,344.84c-.07-3.4,2.13-5,5.35-4s6.16,2.35,7.91,5.58c.87,1.6,1.59,3.13.6,4.74a5.79,5.79,0,0,1-5.35,3.07c-3.11-.19-8.44-6.17-8.51-9.37"/><path class="cls-1" d="M394.83,386.61c-4.46-.42-7.86-1.87-9.93-5.67-1.47-2.69-.55-5.44,2.25-7.09a5.49,5.49,0,0,1,6.87,1.37,46.62,46.62,0,0,0,3.6,4.22c1.34,1.35,2.17,3,1.14,4.53-.82,1.21-2.59,1.78-3.93,2.64"/><path class="cls-1" d="M324.72,347.51l3,5.06c-.44,3.4-1.74,6-5.39,7.14-2.86.88-6.07.35-7.45-1.71-1.26-1.9-.6-6.34,1.3-8.1a9.8,9.8,0,0,1,8.54-2.39"/><path class="cls-1" d="M285.38,527.3c2.72.65,5.31,1.05,7.76,1.89,3.15,1.1,5,4,4.34,6.22-1,3.23-4,4.9-7.69,4.19-6.56-1.26-8.57-6.35-4.41-12.3"/><path class="cls-1" d="M340.83,312.53c-2,1-3.81,1.83-5.59,2.73-3.33,1.69-3.52,1.67-7.2-1.35,3-3.48,5-7.49,3.93-12.24l11.37.81c-2.27,2.79-3.65,6.12-2.51,10"/><path class="cls-1" d="M328.32,406.16l7.43-5.81,4,1.19c2.92.86,5.11,2.8,5,4.73-.13,2.94-2.32,4.13-4.68,5.1a8.81,8.81,0,0,1-11.76-5.21"/><path class="cls-1" d="M347.5,317.25c-.48,4.91-.86,9-1.27,13.18-3,.64-7-1.61-8.56-5.2-1.71-4-.8-7.09,2.53-9.33,1.73-1.17,3.33-1.47,5.08-.1a23,23,0,0,0,2.22,1.45"/><path class="cls-1" d="M400.87,458.83l-3.17-.47a55.27,55.27,0,0,0-2-6.63c-.88-2-4.33-2-4.49-5.24,3.72-1.11,8-1.51,9.31-6.07,5.37,1.72,5.93,2.8,3.88,7.5-.66,1.52-1.58,2.92-2.32,4.41a12.67,12.67,0,0,0-1.19,2.95,19.29,19.29,0,0,0-.05,3.55"/><path class="cls-1" d="M354.6,254.46a11.25,11.25,0,0,1,.79-1.89c1.14-1.77,2.53-3.39,3.51-5.24a7.4,7.4,0,0,1,5.87-4,47.5,47.5,0,0,1,6.63-.07c1.3,4.52,1.32,4.54-1.67,6.51-2.31,1.52-4.53,3.3-7.06,4.33-2.27.92-4.9,1-7.38,1.4-.23-.36-.46-.71-.69-1.08"/><path class="cls-1" d="M295.58,517.14c.49-4.61-1.82-7.95-5.2-10.69,3.76-4.06,11.33-3.77,14,.58a6.07,6.07,0,0,1,.41,4.31c-1,3.55-4,5.32-9.23,5.8"/><path class="cls-1" d="M382.75,451.63a22.45,22.45,0,0,1,5.06.08,13.77,13.77,0,0,1,5.31,2.39c1.77,1.41,1.46,3.24-.42,4.63a27.63,27.63,0,0,1-4,2.41c-4.08,2.07-9.71-.82-10.44-5.32-.41-2.59,1.58-4.59,4.46-4.19"/><path class="cls-1" d="M372.78,278.74c-3.93,2.39-7.89,2.05-11.71.72-3.2-1.13-3-5,.31-7.28,2.28-1.55,4.67-3,7.1-4.49,1.23,1.41,3.09,2.76,3.8,4.56s.37,4.22.5,6.49"/><path class="cls-1" d="M361.16,403.73c-4.57,6-7.49,6.94-12.74,4.75-.45-3-.89-5.94-1.34-8.88l7.37-3.33c4,.85,2.33,6.48,6.71,7.46"/><path class="cls-1" d="M336.63,339.5c1,4.66,4.7,5.86,8.19,7.4-.54,3.41-3,4.41-5.73,5-3,.64-5.84.44-8.23-1.8-3.3-3.09-2.56-7.5,1.62-9.34a39,39,0,0,1,4.15-1.26"/><path class="cls-1" d="M365.9,255.92c2.68-1.33,4.93-2.63,7.32-3.58,3-1.2,7.19,1.34,8.29,4.8.77,2.42-.93,5.46-4,6.29a14.37,14.37,0,0,1-5.39,0c-2.17-.27-2.77-1.85-3.18-3.88-.22-1.14-1.65-2-3.05-3.62"/><path class="cls-1" d="M397.67,517.21c-.13,2.87-3.48,5.23-7.16,5-3.41-.18-6.57-3.31-6.55-6.5,0-2.73,3.74-5.3,7.56-5.22a6.24,6.24,0,0,1,6.15,6.67"/><path class="cls-1" d="M282.84,296.77c.37,1.51.73,2.68.94,3.88.7,3.83-1.85,6.75-5.69,6.36a16,16,0,0,1-4.48-1.19c-2.85-1.17-3.32-2.32-2.51-5.35a4.59,4.59,0,0,1,.15-.44c.6-1.69.77-3.91,2-4.9.76-.63,3,.6,4.62.9s3.05.46,5,.74"/><path class="cls-1" d="M343.92,547c-.64,2.33-1.23,4.51-2,7.23-3-.38-5.85-.55-8.64-1.18a5,5,0,0,1-3.93-4.61c-.24-2.33,1.23-3.59,3.26-4.44,1.26-.52,2.43-1.26,3.68-1.93l7.61,4.93"/><path class="cls-1" d="M351.14,462c-.06,2.83-2.52,5.2-5.86,5.36a12,12,0,0,1-4.08-.68c-3.35-1.06-4.72-2.53-4.47-4.5.31-2.52,3.53-5.23,6.33-5.21a34.19,34.19,0,0,1,4.16.37c2.94.39,4,1.66,3.92,4.66"/><path class="cls-1" d="M322,277.61l3.13-4.07,10.4,1.72c1.4,5.46.15,8.32-4.18,9.65-3.43,1-7.15-1.8-9.35-7.3"/><path class="cls-1" d="M381.41,583.94l-6.86-3.32c2.7-3.55,5-7.28,4.21-12.39a9.41,9.41,0,0,1,7.81,3.5c2.06,2.55,1.94,4.44-.34,6.95-1.53,1.68-3.08,3.35-4.82,5.26"/><path class="cls-1" d="M303,358.23c-3.57,4-9.8,4.49-13.18,1a5,5,0,0,1-.9-3.73c.4-2.44,2.93-4.73,5-4.82,3.07-.15,5.86.54,7.45,3.5a38.54,38.54,0,0,1,1.65,4.07"/><path class="cls-1" d="M302.38,402.58a41.23,41.23,0,0,0-5.92,1.65c-3.1,1.39-6,.42-8-3a5.52,5.52,0,0,1,1.73-7,5.86,5.86,0,0,1,8.27,1.21c1.52,2.27,2.68,4.8,3.95,7.13"/><path class="cls-1" d="M280.13,352.32c-3.62,0-6.05-2-6-4.93,0-3.73,3.36-6.66,7.45-6.57,3.66.08,5.47,2.3,5.33,6.55-.08,2.62-3.29,5-6.75,4.95"/><path class="cls-1" d="M287.4,522l-7.47-10.31,5.61-4.32c6,3,7.82,5.7,7,10.49-.56,3.32-1.9,4.27-5.16,4.14"/><path class="cls-1" d="M346.28,566.05a8.66,8.66,0,0,1,7.9,2.75,3.24,3.24,0,0,1,.52,4.19,8.9,8.9,0,0,1-11.07,4.19,3.88,3.88,0,0,1-1.3-5.87c1.22-1.77,2.58-3.44,3.95-5.26"/><path class="cls-1" d="M358,270.11c-1.79-1-4.38-1.54-5.15-3.05-1.07-2.05.4-4.27,2.16-6.07,2.44-2.51,5-3.24,8.29-1.89,3.13,1.29,3.95,3.65,2.09,6.6-1.27,2-4.52,3.75-7.39,4.41"/><path class="cls-1" d="M280.36,269.47l6.09,4.26a3.3,3.3,0,0,1,.09,1.1c-.55,2.27-.15,5.07-3.55,5.68-2.9.53-8.14-1.21-9.63-3.43a4.49,4.49,0,0,1,2.43-6.69c1.46-.4,3-.6,4.57-.92"/><path class="cls-1" d="M272.75,402.8c-.14,2.49-.24,4.44-.36,6.49-4.89,2.47-10.86,1.79-14.54-1.87-.58-.57-1.25-1.74-1-2.27a3.28,3.28,0,0,1,2.22-1.83,23.07,23.07,0,0,0,8.44-1.83c1.33-.59,3.58.84,5.26,1.31"/><path class="cls-1" d="M380.77,385c3.07,3.06,6.18,4.85,10,5.26,1.87.2,2.41,1.8,2.46,3.42.06,2.05-1.82,4.4-3.88,4.54-2.91.19-5.48.08-7.56-3s-3.45-6-1.05-10.18"/><path class="cls-1" d="M247,452.38c-4.84,1.77-7.3,1-10-2.83-3.47-4.94-2.84-7,2.77-9.37,2-.85,3.82-2.28,6,.23-1.07,3.83-3.24,8,1.2,12"/><path class="cls-1" d="M272.58,517.92c3.8-.36,6.1,1.47,8,3.77a4.18,4.18,0,0,1-3,6.86,10.43,10.43,0,0,1-8.73-3.35c-1.52-1.56-.91-3.44-.37-5.21.73-2.4,2.88-1.84,4.1-2.07"/><path class="cls-1" d="M349.7,250.71c-4.33,0-6.12-1.3-6.05-4.46.09-3.84,2.4-6.54,5.6-6.54,3.84,0,7.29,2.68,7.08,5.62a5.58,5.58,0,0,1-6.63,5.38"/><path class="cls-1" d="M394.14,343.18c-.1,4.81-4,8.44-8.39,7.88a4.08,4.08,0,0,1-3.82-3.46c-.52-2.46.49-6.35,2.13-6.64,2.5-.45,4.83-1.89,7.63-1.08a2.88,2.88,0,0,1,2.45,3.3"/><path class="cls-1" d="M251.34,377.67V386c-3.23,1.93-9.23,1.56-11.87-.88-1.47-1.37-1.2-3.15-.56-4.74s1.66-3.4,4-3a34.06,34.06,0,0,0,4.1.6,40.64,40.64,0,0,0,4.29-.3"/><path class="cls-1" d="M348.09,532.13a6.1,6.1,0,0,1,6.14,4.93c.31,2.36-1,3.64-3.05,4.5-4.31,1.8-6.91,1.41-9.52-1.59-1.81-2.08-1.78-4,.54-5.38a38.56,38.56,0,0,1,5.89-2.46"/><path class="cls-1" d="M324.47,406.63c1.51,2.23,2.63,4.17,4,5.88,1.09,1.32,1.63,2.56,1,4.2a4.12,4.12,0,0,1-3.81,2.89,19.8,19.8,0,0,1-4.12-.42,5.45,5.45,0,0,1-4.55-3.47c-.84-2.37.83-3.76,2.35-5.06,1.74-1.48,3.6-2.83,5.12-4"/><path class="cls-1" d="M319.94,444.73c4.39-3.18,8.39-1.85,12.13.62,3,2,2.68,4.91-.65,6.19a15.12,15.12,0,0,1-4.91,1c-5.5.14-7.25-2-6.57-7.84"/><path class="cls-1" d="M306.42,515.42c2.92-3.34,1.12-9.23,7.43-11.5a8.23,8.23,0,0,0,1.71,2.42c2,1.42,3.72,3.13,3.13,5.63-.68,2.91-3,4.59-5.9,5.26a6.25,6.25,0,0,1-6.37-1.81"/><path class="cls-1" d="M361,488.44c-3.53,3.63-7.57,5.76-12.72,4.75-4.05-.8-5.39-2.45-5.51-6.62,0-.91,0-1.83,0-2.77,2.15-1.39,3.85-1.39,5.64.68,3.29,3.81,7.86,3.86,12.59,4"/><path class="cls-1" d="M358.7,588.49a10.13,10.13,0,0,1-8.58-4.81c-1-1.45-.84-2.69,1-3.74,5-2.83,8.28-2.45,11.14,1.62,1,1.42,1.94,2.88.94,4.64a4.32,4.32,0,0,1-4.51,2.29"/><path class="cls-1" d="M367.16,292.7h8.5l1,9.53c-4.25,1.74-8.53,1.24-10.61-1.05-1.57-1.74-1.13-5.1,1.11-8.48"/><path class="cls-1" d="M285.77,394.35c-.38,2.48-1.65,3.64-4.28,3.88-1.9.17-3.76,1.18-5.57,2-2.57,1.15-4.74.45-6-2.12-1.38-2.85-.89-4.94,1.78-6.16,2.32-1.07,4.57-2,7.25,0,1.87,1.36,4.51,1.66,6.81,2.43"/><path class="cls-1" d="M275.12,438.16v-9c4.07-2.1,6.52-1.55,9,2,.09.12.16.26.24.39,1.1,1.8,3.09,3.54,1.75,5.81-1.44,2.44-4.13,2.51-6.63,2.18a25.32,25.32,0,0,1-4.33-1.33"/><path class="cls-1" d="M332.33,320c.16,5.92,2.33,10.33,7.61,12.62,0,.54,0,.89-.09,1.1-.48.8-1,1.55-1.56,2.31l-.51-1c-2.67,0-5.35,0-8,0-.92,0-1.88.55-2.73.37-1.25-.27-3-.65-3.49-1.56-.83-1.45.61-2.46,1.9-3.16,4.14-2.23,5.87-6.05,6.89-10.67"/><path class="cls-1" d="M283.4,400.46l6.26,7c-.5,2.26-1,4.6-4.32,4.69-3.48.09-7.64-1.93-8.61-4.44a4.18,4.18,0,0,1,1.84-5.22,25.89,25.89,0,0,1,4.83-2.06"/><path class="cls-1" d="M305.25,484.66a70.06,70.06,0,0,1,13.54-.21c1.54.13,2.32,1.26,2.21,3-.28,4.11-4.83,7.27-8.65,5.87a4.24,4.24,0,0,1-1.7-1.4c-1.67-2.14-3.26-4.34-5.4-7.22"/><path class="cls-1" d="M275.47,458c2.54-3.22,4.85-6.14,7.74-9.78-.33.06.42-.07,1.16-.25,3.27-.8,6.91,1.48,7.38,4.65a4.31,4.31,0,0,1-4.73,4.88c-2-.16-3.95-.89-5.91-.81a28.48,28.48,0,0,0-5.64,1.31"/><path class="cls-1" d="M309.63,300.12c-.73,4.65-1.2,8.09-1.85,11.5-.38,2-1.85,2.82-3.79,2.57-2.47-.32-5-.71-6.29-3.24-.9-1.82.19-3.32,1.45-4.53,2.73-2.61,6-4.22,10.48-6.3"/><path class="cls-1" d="M259.68,288.47c1.82,2.29,3,4.27,4.66,5.74a3.47,3.47,0,0,1,1,4.09c-.53,1.75-1.6,3.05-3.55,3.12a8.2,8.2,0,0,1-7.48-3.75,4.17,4.17,0,0,1,.75-5.49,55.08,55.08,0,0,1,4.59-3.71"/><path class="cls-1" d="M377.71,278.8c-.73-3.95-1.28-6.9-1.83-9.84,2.64-2.1,5.08-1.28,7.48.48a9.32,9.32,0,0,1,4.25,7.27c.09,2-.9,3.28-3.07,3.05-2.39-.25-4.76-.66-6.83-1"/><path class="cls-1" d="M389.37,443.41a13.1,13.1,0,0,1-1.82-.15c-2.61-.46-4.41-2.05-4.5-3.91a6.6,6.6,0,0,1,3.76-5.34,11.77,11.77,0,0,1,2.7-.55c4.24-.38,5.92,1,6.08,4.77s-1.36,5.23-6.22,5.18"/><path class="cls-1" d="M272.64,321.88l10.08-2a33.28,33.28,0,0,1,2.21,4.31c1.2,3.36-.24,5.43-3.78,5.65a10.43,10.43,0,0,1-7.32-2.27c-2.24-1.78-2.36-2.58-1.19-5.66"/><path class="cls-1" d="M338.33,438.33c-2.89-.24-5-1.44-6.17-3.83s.34-4.5,1.55-6.39c1-1.55,3.76-1.65,5.41-.43.86.64,1.54,1.5,2.36,2.2,1.67,1.44,3.55,3,2.48,5.4s-3.57,2.66-5.63,3.05"/><path class="cls-1" d="M330.06,526.15c-2.48-.07-7.38-3.51-8.22-5.8-.77-2.09,1.3-5.47,3.36-5,3,.76,6.46,1.27,8.39,4.25a7,7,0,0,1,1,3.43c.08,2.47-1.05,3.15-4.52,3.07"/><path class="cls-1" d="M296.47,304.81c-2,2.85-3.63,5.42-5.48,7.85a4.16,4.16,0,0,1-6.08.91c-1.72-1.24-1.73-3.44-.23-5.75,1.39-2.16,2.61-4.42,4-6.76l7.82,3.75"/><path class="cls-1" d="M247.67,456.29c1.1.56,2.15,1.15,3.24,1.67,4.56,2.15,5.07,3.07,4.22,7.77-.46,2.54-1.53,3.36-4.16,3a7,7,0,0,1-6.22-4.8c-1.16-3.31.28-5.61,2.92-7.64"/><path class="cls-1" d="M347.75,367.4c-2.32,3.22-4.9,5.46-9,4.88-3.4-.48-4.21-2.25-2.5-5.11,2.82-4.74,2.9-5.22,1.76-10.85a6.53,6.53,0,0,1,1.3-.27,11.14,11.14,0,0,1,1.61.28c-.21,5.06,1.8,8.93,6.79,11.07"/><path class="cls-1" d="M319.58,280l6.75,7.86c-1.86,2.86-3.37,3.44-7.28,2.6-4.16-.9-6.88-3.24-7.46-7.83l8-2.63"/><path class="cls-1" d="M276.31,283.19l11.65.62c.06.08.22.21.22.33-.22,2.59,1,5.75-2.33,7.21s-6.67.32-9.63-1.36c-.76-.43-1.16-2.06-1.13-3.13s.73-2.3,1.22-3.67"/><path class="cls-1" d="M264.46,375.83c.69,1.11,1.39,2.12,2,3.19,1.62,3,1.28,5.46-.88,7-1.64,1.18-6.37.52-7.72-1.27a15.57,15.57,0,0,1-2.16-4c-.86-2.42.41-4.21,3-4.45,1.81-.18,3.63-.32,5.82-.52"/><path class="cls-1" d="M309.62,465.13c.39-1.61.75-3.07,1.07-4.36,4.48-2.85,8.42-1.39,12.27.85a4.31,4.31,0,0,1,1.67,5.25c-.68,1.53-2.83,2.22-4.8,1.42-1.71-.71-3.32-1.71-5.07-2.27a38.88,38.88,0,0,0-5.14-.89"/><path class="cls-1" d="M386.28,323.35c3.7,5.74,3.62,8.84-.14,12.54a3.88,3.88,0,0,1-6.53-1.78c-1.15-4.07,2.12-9.5,6.67-10.76"/><path class="cls-1" d="M279.34,493.53l1.94-4.53H289c.64,2.93,1.24,5.75,1.87,8.57.34,1.53.14,2.91-1.55,3.37a3.59,3.59,0,0,1-4.17-1.1c-1.73-2.15-3.72-4.09-5.77-6.31"/><path class="cls-1" d="M306.87,462.51c-2.38,3.66-5.12,5-8.78,4.32-4.41-.83-5.67-2-6.36-5.85,6-4,11.19-3.51,15.14,1.53"/><path class="cls-1" d="M342.69,414.38a68.84,68.84,0,0,1,5.38,4.51c2.38,2.44,1.76,4.52-1.49,5.41-2.88.79-5.77,1.16-8.41-.81s-2.7-5.06,0-6.91a31.08,31.08,0,0,1,4.53-2.2"/><path class="cls-1" d="M385.33,534.88a64,64,0,0,1-7.37-2c-1.25-.5-2.21-1.75-3.19-2.58,2.93-1.77,5.46-3.23,7.91-4.81,1.69-1.1,5.34-1.25,6.54.08,1.57,1.74.6,3.47-.4,5.09A23.42,23.42,0,0,1,387,533.3a15.64,15.64,0,0,1-1.68,1.58"/><path class="cls-1" d="M360.1,438.62l-8.43-4.72c-.48-1.89-1.06-4.23-1.66-6.59,3.57-2.47,6.32-1.56,11.1,3.75,2.11,2.36,1.88,4.25-1,7.56"/><path class="cls-1" d="M293.29,523.72c5.7-4.91,10-5.26,15.29-1.18a7.43,7.43,0,0,1-3.17,5.28c-2.2,1.79-4.42,1.68-6.69-.07-1.7-1.31-3.45-2.56-5.43-4"/><path class="cls-1" d="M355.46,461.15a21.88,21.88,0,0,1,0-3.24,5.07,5.07,0,0,1,5.33-4.14c2.86.28,4.64,2.15,4,5.1a11.79,11.79,0,0,1-3,6c-1,1-3.5,1-5.14.63-2.41-.56-1.22-2.73-1.22-4.32"/><path class="cls-1" d="M264.24,495.89c-4.78,2.63-9.31,2.18-12.17-1.16-1.45-1.68-2-3.55-.73-5.49s3.2-1.51,5-.86a25.28,25.28,0,0,1,4.67,1.95c2,1.22,3.69,2.84,3.23,5.56"/><path class="cls-1" d="M292.58,430.85c1.31.37,3,.4,4.06,1.25a18.68,18.68,0,0,1,4.5,5.13c1,1.78-.52,4.61-2.63,5.24-3.08.9-6.07.76-8.28-1.41.82-3.54,1.53-6.63,2.35-10.21"/><path class="cls-1" d="M321.68,476.17a10.42,10.42,0,0,1-12.15,4.2,3.68,3.68,0,0,1-2-4.94,4.69,4.69,0,0,1,4.72-3.09c3.54.17,7,.93,9.44,3.83"/><path class="cls-1" d="M312.55,522.58c6.53-1.77,8.32,3.65,11.89,6.1-2.59,3.93-3.86,4.45-7.62,3.24a23,23,0,0,1-2.56-1.06c-3-1.39-3.44-2.21-2.71-5.35a29.59,29.59,0,0,1,1-2.93"/><path class="cls-1" d="M387.87,545.74c.92-2.73.1-6,3.43-7.92,1.27-.72,2.07-2.47,3.88-1.53,2.09,1.09,4.07,2.41,4.08,5.13a6.66,6.66,0,0,1-2.75,5.91l-8.64-1.59"/><path class="cls-1" d="M350.34,442a30.15,30.15,0,0,1,4,2.14c1.47,1,2.5,2.82,1.46,4.41a6.36,6.36,0,0,1-4,2.57c-1.72.23-3.6-.56-5.4-1-2.35-.57-3.25-2.33-3.07-4.52.19-2.43,1.85-3.38,4.18-3.36.62,0,1.23-.1,2.85-.24"/><path class="cls-1" d="M322.31,340c-.4.7-1.08,1.89-1.85,3.22-3.13-.24-5.76-1.08-7.59-3.8-1.72-2.56-1.79-4.08-.47-6.4s3.28-1.74,5.25-1.27l1.2.29,3.46,8"/><path class="cls-1" d="M246.74,423c-1.1,4.35-3.29,6.23-7.27,6.37-2.83.09-5.11-1.55-6-4.76a3.21,3.21,0,0,1,3.74-4.3c3.12.66,6.16,1.7,9.55,2.69"/><path class="cls-1" d="M369.85,434.07a53.15,53.15,0,0,1-2.18-6.82,4.68,4.68,0,0,1,1-3.61c.57-.59,2.45-.61,3.3-.12,3.14,1.79,6,4,5.81,8.19-.1,2.41-.95,3.29-3.39,3.28a17.31,17.31,0,0,1-3.22-.31,4.48,4.48,0,0,1-1.28-.61"/><path class="cls-1" d="M352.88,334.64l-1.48,8.84c-3.75,1.27-6.66-.75-9.41-2.53-2-1.3-1.11-5.31,1.52-5.94,2.93-.7,6.12-1.54,9.37-.37"/><path class="cls-1" d="M330.05,468.21c.11,9.25.11,9.25,3.82,13.55-2.65,2.53-7.09,2.82-9.28.42a4,4,0,0,1-.76-2.88c.32-2.37.94-4.7,1.54-7.5l4.68-3.59"/><path class="cls-1" d="M378.51,291.62c.08-.16.42-1.71,1-1.8,1.58-.24,3.62-.42,4.79.38a11.73,11.73,0,0,1,4,4.93,5.41,5.41,0,0,1-.58,4.6c-.62.81-2.82.92-4.13.6-3.55-.87-5-3.33-5.06-8.71"/><path class="cls-1" d="M294.34,364.58c8.74-.22,11.2-2.14,13.06-9.76,2.8.26,1.36,2.42,1.68,3.73.36,1.47.77,2.92,1.21,4.56a19.85,19.85,0,0,0-2.14,2.8c-1,1.79-2.46,2-4.27,2-2.89-.08-5.78,0-9.13,0-.11-.88-.25-2-.41-3.28"/><path class="cls-1" d="M335.37,532.77c-.21,1.85-.48,3.21-.5,4.58,0,2.26-1.48,3.74-3.31,3.77-2.15,0-4.33-.92-6.45-1.6-.3-.1-.46-1.12-.41-1.69a7.6,7.6,0,0,1,3.88-6.43c2.56-1.42,4.68-.41,6.79,1.37"/><path class="cls-1" d="M258.07,330.07c-.17,1.69-.26,2.74-.39,3.79-.51,4.3-1.92,5.23-6.12,4a12.64,12.64,0,0,1-1.3-.47c-3-1.18-4.33-2.64-4-4.35a6,6,0,0,1,5.1-4.07,42.68,42.68,0,0,1,6.72,1.06"/><path class="cls-1" d="M336.65,395.49c-.93-2.23-2.95-4.33-.2-6.92,3.63,1.68,7.49,3.09,11.78,2.61.7-.07,2,.67,2.12,1.21a3.47,3.47,0,0,1-.77,2.81,7.14,7.14,0,0,1-7.22,1.79c-1.75-.55-3.56-.94-5.71-1.5"/><path class="cls-1" d="M266,443.82c4.22-.2,6.18,3.06,8.91,4.88,1.63,1.08,1,2.7-.25,4-2.55,2.5-6.55,2.29-10.61-.66.36-1.26.8-2.55,1.11-3.88s.53-2.71.84-4.31"/><path class="cls-1" d="M321.87,393l6.93.34c.47.51.74.69.86.95,2.07,4.6,1.12,6.75-3.77,7.89-2,.47-4.24,1.12-6.27-1,.69-2.52,1.41-5.14,2.25-8.18"/><path class="cls-1" d="M306.7,431.68c5.21-1,8.41,1.2,8.7,6.43.15,2.6-1.26,4.31-3.61,4.38-3.19.1-5-1.28-5.08-3.89,0-2.27,0-4.55,0-6.92"/><path class="cls-1" d="M253.59,440.51a6,6,0,0,1,5.58,6.22,4.36,4.36,0,0,1-4.33,4c-3.21,0-6.15-2.8-6.07-5.75s1.9-4.49,4.82-4.43"/><path class="cls-1" d="M396.47,430.64l3.09-4.1c2.21,1.14,4.34,2.33,6.55,3.35,2.63,1.22,3.37,3.63,1.51,5.86-1.69,2.05-3.76,3.22-5.9,2.1l-5.25-7.21"/><path class="cls-1" d="M265.64,479.75c-3.57-.37-6-1.84-7.43-4.63-1.22-2.35-.28-3.77,2.35-4,3.57-.26,6.57,1.33,9.48,3a2.26,2.26,0,0,1,0,4.07,29.22,29.22,0,0,1-4.36,1.51"/><path class="cls-1" d="M338.17,443.12c3,1.14,1,3.09,1.47,4.39s.84,2.94,1.37,4.85c-1.68,1.59-3.47,3.46-5.45,5.1s-1,5-3.44,6.43c-1.84-3-3.47-5.59-4.91-7.92,2.59-1,5.88-1.76,8.69-3.39,3.41-2,2.38-5.82,2.27-9.46"/><path class="cls-1" d="M254.11,473.25a38.76,38.76,0,0,1,1.25,4.71,34.58,34.58,0,0,1,0,4.55c-3.56,1.39-6.52,1.09-8.11-.93s-1.35-4.12-.48-6.17c1.4-3.27,4.32-2.24,7.3-2.16"/><path class="cls-1" d="M250.21,425.63c1.66,1.86,3.48,3.66,5,5.68a2.37,2.37,0,0,1-1.08,3.84,21.37,21.37,0,0,1-7.1,1.3c-1,0-2.36-1.5-2.75-2.6-.28-.8.6-2.2,1.28-3.09,1.19-1.56,2.63-2.94,4.64-5.13"/><path class="cls-1" d="M279.54,420.79a69,69,0,0,1-6.09,3.45,5.55,5.55,0,0,1-6.16-2c-1.12-2-.1-3.64,1.07-5.08a28,28,0,0,1,3.58-3.2l7.6,6.82"/><path class="cls-1" d="M254.46,503.54c3.8-1.25,6.8.18,9.75,1.24a4,4,0,0,1,2.23,5,4.12,4.12,0,0,1-5.38,2.22c-3.33-1.63-6.28-3.8-6.6-8.43"/><path class="cls-1" d="M261.78,416.22c-.31,2.21-.64,4.61-1,7-6.42,1.43-10-5-7.36-11.89l8.33,4.89"/><path class="cls-1" d="M273.22,462.45c-2.39,3.68-3.23,3.78-10.66,1.35-.77-3.05-1.54-6.06-2.42-9.53,4.23,3.18,10.46,2.6,13.08,8.18"/><path class="cls-1" d="M248.28,409.29c-.54,2.41-1.07,4.77-1.61,7.21-4.38.78-6.9-1.67-9.09-4.54-1.47-1.92-.93-3.77.66-5.33l10,2.66"/><path class="cls-1" d="M335.75,486.35a10.91,10.91,0,0,1,2.08,2c1.37,2.12.08,5.24-2.4,5.18a29.93,29.93,0,0,1-8.47-1.7c-1.72-.57-1.63-1.07-1.4-4.75l10.19-.72"/><path class="cls-1" d="M268,307.45a61.39,61.39,0,0,0,6.48,2.57,39.82,39.82,0,0,0,5.46.74c1.17,4.38-.19,6.25-4.33,6.12-3.67-.11-6.05-2.27-7.7-5.19-.53-.95,0-2.5.09-4.24"/><path class="cls-1" d="M300.73,423.9c.45-1.68.91-3.44,1.34-5.07,6.57-1.23,7.66-.56,10,5.89-4,3-7.84,2.78-11.35-.82"/><path class="cls-1" d="M367.32,344.16c-5.31,2.3-10.22.6-12-3.76-.75-1.88.36-4,3.1-5.8,2.92,4.61,2.92,4.61,8.22,6,.19,1.06.4,2.22.65,3.56"/><path class="cls-1" d="M379.49,399.74c-8.54,4.63-9.85,4.65-12.92,0a12.75,12.75,0,0,0,9.35-8.89c1.27,3.16,2.37,5.9,3.57,8.91"/><path class="cls-1" d="M354.1,560.28l8.21-3.1c1.88.88,4.21,1.73,4.09,4.55-.07,1.63-3.92,4-6.17,4.21-3.57.28-5.7-1.66-6.13-5.66"/><path class="cls-1" d="M274,367.27l3.95,3c-2,3.68-1.85,7.12,1.59,10.07-2.39,1.23-4,.1-5.31-1.09a23.8,23.8,0,0,1-4.2-4.93,3.68,3.68,0,0,1,.1-3.28c.89-1.37,2.36-2.37,3.87-3.79"/><path class="cls-1" d="M319.53,423.79c2.17,0,4-.08,5.85,0,2.52.13,3.21,1,2.85,3.5a5.71,5.71,0,0,1-7.23,4.51,20.93,20.93,0,0,1-3.9-2.07l2.43-6"/><path class="cls-1" d="M275.06,478.57c2.45-.68,4.15-1.26,5.9-1.61,2.63-.53,6.43,2.28,6.89,5a3,3,0,0,1-3.54,3.59c-4.2-.48-6.6-3.41-9.25-6.95"/><path class="cls-1" d="M248.19,366.44c.51,2.17.95,4.1,1.42,6.14-2.1,2.62-4.77,2.25-7.51,1.25a3.55,3.55,0,0,1-1.6-5.89c1.72-2,4.39-2.61,7.69-1.5"/><path class="cls-1" d="M341.34,514.8c3.37,1.19,5.5,2.83,6.66,5.56,1,2.35-.14,4.32-2.65,4.78-4.19.76-7.1-2.24-6-6.31a25.35,25.35,0,0,1,2-4"/><path class="cls-1" d="M290.91,423.86c-4.92-.18-6.46-1.74-5.8-5.22.62-3.27,3.19-4.47,6.1-2.77a13.14,13.14,0,0,1,2.49,2c1.07,1,2.77,2.31,1.63,3.82-.86,1.14-2.75,1.51-4.21,2.18-.25.12-.61,0-.21,0"/><path class="cls-1" d="M353,380.24c-1.1,1-2.24,2-3.31,3-2.34,2.31-5.05,2-7.75,1-1.91-.72-2.19-2.08-1-3.65,3.4-4.55,8.06-4.7,12.08-.33"/><path class="cls-1" d="M288.16,474.21c5.7-.56,10-.21,13.14,4.09-1.29,3.37-4.22,3.29-6.95,3.24-4.69-.09-3.41-4.83-6.19-7.33"/><path class="cls-1" d="M301.14,406.25l9,5.06c-3.7,2.83-7.22,3.65-11.12,2.53-2.59-.74-3.09-2.39-1.36-4.55a23.45,23.45,0,0,1,3.51-3"/><path class="cls-1" d="M380.09,546.15l-5.27-1.06,3.5-9.64a5.74,5.74,0,0,1,5.74,4c1.05,3.14-2.07,4.68-4,6.73"/><path class="cls-1" d="M330.32,384.7c-.56,4.57-1.63,5.3-6.21,4.71s-5.67-1.77-5-6c4.16-3.52,7.33.57,11.23,1.3"/><path class="cls-1" d="M330.91,369.57c1.62,4,1.62,4,6.1,7.36-.76,1.25-1.52,2.53-2.33,3.86-3.52-.81-7.14-1.23-7.83-5.44-.5-3,1.37-4.75,4.06-5.78"/><path class="cls-1" d="M403.78,400.71c-4.74,2.55-10.76,0-14.48,5.47l-3.21-4.62c4,.06,7.63-1.76,11.11-4.21,1.79-1.26,4.16.12,6.58,3.36"/><path class="cls-1" d="M271.36,500.19c4.3-1.79,8-1,10.16,2,1.37,1.9-.36,5.08-3,5.45a5,5,0,0,1-5.29-2.88c-.67-1.38-1.19-2.83-1.9-4.53"/><path class="cls-1" d="M287.1,389.62c-2.18-.53-3.69-.87-5.18-1.27s-2.62-1.58-2.06-3c.48-1.28,1.72-3,2.79-3.14a11.43,11.43,0,0,1,5.71,1.2c1.34.61,2.66,2.11,1.65,3.79-.67,1.11-2.08,1.79-2.91,2.46"/><path class="cls-1" d="M277,465.87c2.4-1.45,4.49-3.26,7.46-3.12,2.75.12,4.74,1.62,4.61,3.49-.18,2.52-2.53,4.11-5.37,3.4-2.46-.61-5.19-.89-6.7-3.77"/><path class="cls-1" d="M278.27,488.55c-1.35,3.38-3.33,4-5.63,4a3.09,3.09,0,0,1-3.24-2.06c-.82-2-1.95-3.82-3-5.89,2.06-2.44,4,.09,5.83.77a51.25,51.25,0,0,1,6.07,3.17"/><path class="cls-1" d="M261.56,436.67c.27-2.3.54-4.58.81-6.82,2.56-.39,6.53,1.66,6.91,3.49.44,2.18-.64,4.73-2.38,5.58-2.66,1.31-4-.49-5.34-2.25"/><path class="cls-1" d="M306.26,371.92a18.6,18.6,0,0,1,1.3,3.4,3,3,0,0,1-2.51,3.72,8.26,8.26,0,0,1-2.76.13c-1.75-.24-4,0-4-2.74,0-3.09,1.87-5.21,4.63-5.09a27.65,27.65,0,0,1,3.34.58"/><path class="cls-1" d="M266.3,392.19a38.19,38.19,0,0,1-2.75,4.18c-1.83,2.15-4.19.95-6,.22a8.79,8.79,0,0,1-3.86-3.57c-.3-.47,1.16-2,1.44-2.5l11.21,1.67"/><path class="cls-1" d="M365.36,307.92l9.76,1.84c.22,3.17-2.37,4.59-4.51,5.49-1.19.51-3.55-.63-4.84-1.69-1.83-1.51-2.06-3.66-.41-5.64"/><path class="cls-1" d="M324.87,364.53l8.16-7.48c2.82,2.33,3.63,4.81,2.09,7.06-1.76,2.57-5.69,2.78-10.25.42"/><path class="cls-1" d="M374.27,517.38a11.79,11.79,0,0,1,1.57.15c3,.8,4.38,2.11,4.24,4.07-.17,2.45-2.16,4.3-5.08,4.52a39.77,39.77,0,0,1-4.36-.17l3.63-8.57"/><path class="cls-1" d="M308.87,319.38c-.11.65.07,2.09-.55,2.64-2.89,2.62-10.81,1.14-12.78-2.27a6.67,6.67,0,0,1-.37-2.16l13.7,1.79"/><path class="cls-1" d="M286.78,378.74a63.5,63.5,0,0,1-6-3.09,2.53,2.53,0,0,1-.47-2.41,2.72,2.72,0,0,1,2.12-1.3,25.87,25.87,0,0,1,5.46.66c1.76.39,3.23,1.36,2.9,3.46s-1.85,2.64-4,2.68"/><path class="cls-1" d="M305.8,287.42l2.78-1.57c2,3.33,4.48,6.27,3.23,10.27-.29.91-1.91,1.41-3.16,2.28-1-3.9-1.84-7.1-2.85-11"/><path class="cls-1" d="M380.81,340.36a25.13,25.13,0,0,1-1.6,2.18c-2.64,2.82-3.84,2.75-6.28-.29-1-1.24-2.09-2.46-.61-4a3.87,3.87,0,0,1,5.21-.27c1,.74,2,1.45,3.28,2.42"/><path class="cls-1" d="M322.26,498.7c-1,2.82-3,3.31-5,2.87a18.18,18.18,0,0,1-6.17-2.58,1.57,1.57,0,0,1,1-2.71,14.12,14.12,0,0,1,5,.26,35.65,35.65,0,0,1,5.15,2.16"/><path class="cls-1" d="M304.8,494c-3,3.3-4.9,4.11-7.13,2.62a4.52,4.52,0,0,1-1.84-3.22c0-.79,1.4-2.06,2.37-2.28,2.62-.59,5.24-.47,6.6,2.88"/><path class="cls-1" d="M366.91,283.42c3.9-.08,5.86.64,9,3.13-1.23,2.57-2.57,3.31-5.14,3-3.56-.47-3.44-3.28-3.87-6.09"/><path class="cls-1" d="M272.06,279.74c.44.78,1.25,1.53,1.12,2.07a38,38,0,0,1-2.35,7.75c-.65,1.37-2.18.58-3.05-.42a5.29,5.29,0,0,1,.71-6.95c.82-.66,1.75-1.21,3.57-2.45"/><path class="cls-1" d="M347.38,372.47c2.49-1.2,3.17-4.61,6.85-4.39.41,3.16-.8,6.76,3.21,8.91l-1.21.72-8.85-5.24"/><path class="cls-1" d="M294.67,325.09l-5.14,1.12c-.33-2.63-.61-4.85-.93-7.36l2.45-.23c1.18,2.12,2.28,4.07,3.62,6.47"/><path class="cls-1" d="M406.49,518.46l-5.4-.77c-.51-3.37-.51-3.37,4.56-4.48,1.62,2.23,1.62,2.23.84,5.25"/><path class="cls-1" d="M370.1,480.6v-4l6.49-.67,1,3.38-7.51,1.31"/><path class="cls-1" d="M300.19,384.26c-.92,2.37-1.64,4.21-2.43,6.26l-2.59-.49c.35-2.34.66-4.44,1-6.75l4,1"/><path class="cls-1" d="M292.26,343.62l5.18.24c-.26,1.64-.46,2.94-.67,4.22-4.37-.23-4.37-.23-4.51-4.46"/><path class="cls-1" d="M388.92,283.05c-3,2-4.83,3.95-8.21,3-.21-1-.43-2.07-.72-3.48l8.93.44"/><path class="cls-1" d="M363.79,368.68c-.84,1.75-1.48,3.06-2.21,4.59-1.76-.53-3.81-.22-3.48-2.8.22-1.74,2.18-2.39,5.69-1.79"/><path class="cls-1" d="M244.53,356.89l6.3,2.82c-.44,1.57-.83,2.88-2.72,2.41-2.09-.52-3.36-2.32-3.58-5.23"/><path class="cls-1" d="M357.37,528.28c-3.27,4-4.84-.77-7.36-.62,1.17-2.2,1.17-2.2,7.36.62"/><path class="cls-1" d="M339.91,510.66l-4.61,4.25-2.3-2c2.62-.64,3.1-4.74,6.91-2.25"/><path class="cls-1" d="M321.89,439v-3.88c1.67.18,3.29-1.42,5.54.6L321.89,439"/><path class="cls-1" d="M320,406.25l-4.49,3L314,406.65c2-.66,3.48-3.14,6.06-.4"/><path class="cls-1" d="M396.77,394.44c.31-2.48-.59-4.86,2.91-5,.2,1.43.39,2.83.62,4.55l-3.53.48"/><path class="cls-1" d="M309.43,502.39l-2.12,2-3.66-2.2c2.25-1.11,4-3.18,5.78.18"/><path class="cls-1" d="M387.94,447.51l-4.69.41c.09-1.1.15-1.93.25-3.2l4.8,1.57-.36,1.22"/><path class="cls-1" d="M327.87,545.5c-4.54.74-5.53.28-6.1-2.72l6.1,2.72"/><path class="cls-1" d="M322.54,492.79l5.13,3.39c-3.09.35-4.06-1.74-5.74-2.54l.61-.85"/><path class="cls-1" d="M347.19,560.68c1.76-1,3.34-1.28,4.25,1.06l-4.25-1.06"/><path class="cls-1" d="M376.41,421c.87.32,1.75.62,2.58,1a7.65,7.65,0,0,1-.35,1.17l-2.52-1c.1-.41.2-.82.29-1.22"/><path class="cls-1" d="M366.45,554.24c-2.45-1.63-2.3-2.75-1.51-3.83.15-.21,1.19-.09,1.2,0,.14,1,.19,2.1.31,3.86"/></svg>