<svg id="Capa_1" data-name="Capa 1" xmlns="http://www.w3.org/2000/svg" viewBox="0 0 598.72 863.8"><defs><style>.cls-1{fill:#f3976a;fill-rule:evenodd;}</style></defs><title>cartes-bg</title><path class="cls-1" d="M228.93,670.43c-10.73-4.24-21.08-8.28-31.36-12.43-2.93-1.18-5.69-2.74-8.53-4.11s-5.59-3-8.58-4c-7.68-2.55-14.17-7-20.73-11.43a48.92,48.92,0,0,0-5.62-3.52c-7.75-3.79-13-10.37-19.25-15.86a31.21,31.21,0,0,0-5.13-4.17c-9.4-5.22-15-13.71-20.71-22.12s-8.53-17.94-12.62-27a130.86,130.86,0,0,1-5.79-14.2,115.86,115.86,0,0,1-2.89-13.51c-.8-4.22-1.47-8.46-2.18-12.7a20.71,20.71,0,0,1-.46-3.65c.16-10.05.31-20.11.64-30.16.17-5.09.7-10.17,1.07-15.25.26-3.54.65-7.07.8-10.61.38-9.43.72-18.85.93-28.28a46.64,46.64,0,0,0-.83-6.38,13.12,13.12,0,0,1-.15-3.12q1.72-13.08,3.58-26.12c1-7.33,2.2-14.64,3.31-22a10.75,10.75,0,0,1,.39-2.29c1.74-4.53,1.88-9.31,2.74-14,.89-4.83,4-9.32,6.4-13.8a30.29,30.29,0,0,1,4.82-6.33c6.65-7,10.43-15.84,16.38-23.28,2.15-2.68,4.17-5.47,6.46-8,5.5-6.19,10.7-12.71,16.84-18.25,4.23-3.82,9.64-6.54,14.82-9.2,9.15-4.71,18.52-9,27.8-13.46,2.29-1.1,4.55-2.27,6.89-3.25,10.24-4.32,20.43-8.77,30.8-12.81,8.31-3.24,12.21-13.11,9.69-21.14-1.06-3.37-1.2-7-2.34-10.36a111,111,0,0,0-5.88-14.19A137,137,0,0,1,222,190.77c-.89-2.69-1.71-5.16-1.09-8.07.46-2.24.05-4.64.15-7,.27-6,.65-11.94.86-17.92a5.36,5.36,0,0,0-.81-3.47c-2.24-2.57-1.42-5.28-.67-7.9.27-.93,1.67-2.23,2.45-2.17a5.64,5.64,0,0,1,3.2,2c1.92,2.14,3.4,4.68,5.45,6.67,2.47,2.39,5.37,4.37,8.06,6.54s5.34,4.35,8.2,6.67c1.35-9.13,6.83-15.78,14-21.45,4.26-3.36,7.49-7.29,8.71-12.84.65-3,2.91-5.7,4.69-8.38a3.3,3.3,0,0,1,2.83-1.13c.76.19,1.3,1.51,1.75,2.42a4,4,0,0,1,.15,1.83c-.28,6.09,2.5,11.24,5.07,16.54,2.43,5,4.46,10.21,6.48,15.39,1.38,3.56,2.46,7.24,3.86,11.44a45.83,45.83,0,0,0,3-3.54c3.58-5.14,7.38-10.18,12.71-13.69,8.29-5.48,14.86-12.57,21.31-19.87,2.76-3.11,5.12-6.26,6.21-10.48,1.14-.18,2.35-.45,3.59-.53,3.44-.24,4.78,1.25,3.15,4-1.45,2.48-1.49,4.92-1.41,7.54.07,2.32-.11,4.66.05,7,.22,3.2-.89,6-2,8.93a37.76,37.76,0,0,0-2.67,10.7c-.44,5.82,0,11.69-.16,17.53-.12,4.28-.61,8.54-1,13.15a17.17,17.17,0,0,0,9.4-3.65,184.81,184.81,0,0,0,14.76-12.53c5.56-5.55,10.54-11.61,11.88-19.69a32.8,32.8,0,0,1,2-6.68c.87-2.19,2.09-4.25,5.42-3.59,1.06,3.26,1.91,6.71.57,9.9-2.69,6.42-2.75,13.29-4.25,19.9-.69,3-1.15,6.09-2.11,9C372.69,193,369.7,202.6,366,212c-2.14,5.43-5.34,10.52-8.42,15.55-4.53,7.4-3,13.61,4.81,17.71,15.09,7.88,31.17,13.38,47.5,18.23A112.29,112.29,0,0,1,441,278.51c2.74,1.85,5.67,3.46,8.41,5.32,9.67,6.56,19.47,12.95,27.8,21.18,3.35,3.32,6.79,6.57,10.42,9.6,4.92,4.13,7.91,9.67,11.82,14.54.39.49.58,1.13,1,1.58,8,8.64,13.06,19.07,18.66,29.12,4.27,7.68,6.09,16.3,7.18,24.95.87,6.92,1.23,13.89,1.93,20.83a20.64,20.64,0,0,0,1.31,6.33,28,28,0,0,1,2.3,12.24c-.15,9.29.72,18.76-.8,27.84-1.81,10.76-.87,21.59-2.61,32.32-1.25,7.73-.75,15.73-1.11,23.61-.12,2.63,0,5.39-.81,7.83a57.51,57.51,0,0,0-2.94,15.93c-.19,4.47-1.28,9-.79,13.38,1,9-2.2,17.06-4.84,25.33-3.38,10.53-8.89,20.22-12.71,30.54-5,13.64-13.79,24.19-25.53,32.94-5.48,4.09-11.49,7.24-17.13,11-7.51,5-15,10-22.23,15.42-8.91,6.68-19.09,10.61-29.64,13.87-10.39,3.22-21.18,4.44-31.9,6.17-19.77,3.17-39.57,1.85-59.38,1.85a21.43,21.43,0,0,0-2.4-.06c-14.31,1.75-28.4-.17-42.45-2.53-2-.34-3.4.14-4.37,1.87-2.67,4.7-6.77,8.13-10.78,11.7a49.87,49.87,0,0,0-7.39,8.44c-2.61,3.69-5.55,6-10.42,4.44l-3.9-4.79c-5.15,2.54-8.76.6-8.91-4.66-.17-5.57.06-11.15.11-16.73,0-3.09,0-6.17,0-9.48M250.44,217.5l1.35-.49a42.47,42.47,0,0,1,2.44,3.72c5.72,10.9,3.28,25.14-6,33.89-5.71,5.38-11.25,10.84-18.86,14.1-7.26,3.11-13.77,7.87-21,11-15.62,6.83-30.3,15.25-44.92,23.8s-24.94,21.06-35.21,33.74a12.9,12.9,0,0,0-1.06,2.06c-2.49,4.66-4.86,9.37-7.51,13.95-3.2,5.56-6.26,11.13-7.32,17.52S110.1,383.59,109,390c-.81,4.87-1.47,9.77-2.36,14.62-1.06,5.78-2.36,11.5-3.42,17.28a48.89,48.89,0,0,0-.88,7.81c-.14,5.38.08,10.76-.07,16.14-.2,6.95-.61,13.89-.93,20.84l-1,21.31c0,.93-.08,1.86,0,2.79.38,8.79.35,17.63,1.29,26.37,1.44,13.35,6.23,26.07,8.77,39.26,2.44,12.69,8.42,24.28,15.9,35,2.85,4.09,5.81,8.28,9.52,11.59,6.66,5.93,13.85,11.32,21,16.76,4,3.07,8.42,5.64,12.43,8.7,7.83,6,17,9,26.29,11.89,5.93,1.82,12,3.29,17.94,5,7.31,2.16,14.31,5.12,21.41,7.83,7.67,2.93,15.89,4.5,23.89,6.59a59,59,0,0,0,8.86,1.9c10.31,1,20.58,2,31,1.13,11.6-1,23.23-1.58,34.69-3.56,12.88-2.22,25.58-5.23,38.25-8.45,15.47-3.92,29.83-9.62,42.15-19.88,7.79-6.49,15.42-13,20.61-21.73,3.64-6.14,7.5-12.2,10.7-18.57a153.41,153.41,0,0,0,7.7-18.4q5.12-14.72,9.4-29.7a108.68,108.68,0,0,0,2.55-14c.82-5.35,1.32-10.74,2.18-16.08,1.56-9.75,3.83-19.44,4.77-29.24.77-8.11,3.47-15.32,7.27-22.35.59-1.09,1.48-2.2,1.56-3.35.62-8.59,1.73-17.17,1.14-25.81-.31-4.63-1.09-9.23-1.23-13.86a50.66,50.66,0,0,0-2.87-15A147,147,0,0,0,460,367.35a42.57,42.57,0,0,1-4.53-8.15c-2.5-6.26-6.93-11-12-15.25-5.51-4.65-11.59-8.82-16.39-14.08a248.18,248.18,0,0,0-32.35-29.53c-1.25-1-2.42-2-3.68-3-12.63-9.4-26-17.91-35.62-30.67-3.56-4.73-5.87-9.5-5.65-15.34a7,7,0,0,0-1.54-5.17,8.34,8.34,0,0,1-1.46-8.76c1.32-3.28,2.51-6.74,4.56-9.57,5.65-7.77,9.83-16.05,11.48-25.67-3.69,1.93-5.78,5.94-10.14,6.9,6.48-7.87,15.42-14.07,17-24.89-3.35,4.4-6.49,9-10.16,13.25-5.81,6.69-9.25,9.23-13.05,10.27a46,46,0,0,1,5.19-5.7,76.87,76.87,0,0,0,17.53-23.09,16.7,16.7,0,0,0,.77-2.64c-4.46,3.19-8.09,6.87-11.91,10.35a38.38,38.38,0,0,1-6.76,5.07,48.44,48.44,0,0,1-7.91,3.33c-8.21,2.88-15,7.33-18.91,15.24-.65,1.31-2.45,2.08-4,3.33-1.27-5.25,1.36-8.73,3.47-12.33,1.81-3.08,3.9-6,5.52-9.19,2.71-5.3,4.6-10.79,4.08-16.91-.35-4,0-8.06-.08-12.09-.07-5.14.06-10.2,2.74-14.89a24.3,24.3,0,0,0,2-5.22,8.07,8.07,0,0,0-.5-6.5,49.38,49.38,0,0,0-4.14,7.86,31,31,0,0,1-11.34,13.53,16.19,16.19,0,0,1-2.72,1.18c2.9-4.92,8.38-7.64,10.53-14-3.22,2.58-5.61,4.8-8.3,6.6a80.27,80.27,0,0,0-23,23.92c-2.88,4.53-4.92,9.34-4.62,14.89.23,4.17.07,8.37,0,12.56a25.67,25.67,0,0,1-2.18,10.2c-3-.44-3.25-2.41-3.25-4.53,0-6.05.11-12.1,0-18.14-.21-9.61-1.09-19.15-4.29-28.34a21.11,21.11,0,0,0-7.3-9.61,184,184,0,0,0,3.33,18.77,109,109,0,0,1,3.14,22.33c0,1.66.29,3.51-2.58,3.9-.92-2.1-2.24-4.13-2.7-6.33-1.93-9.23-3.58-18.5-5.4-27.75-1.14-5.77-1.82-11.66-4.18-16.89-7.72,3.87-8.93,10.52-8.34,17.9.16,2,.44,4,.59,6a21,21,0,0,1-.32,3c-3.78-5.3-2.42-10.63-3-16.38-2.2,2.5-3.78,4.13-3.8,6.66-.05,6.1.26,12.06,6.08,16.06a1.77,1.77,0,0,1,.34.33c4.13,5.47,8.93,10.57,10.66,17.4,1.85,7.34,3.6,14.71,5.31,22.08.73,3.14,1.24,6.32,1.91,9.8,2.33-1.6,4.07-2,6.23-.08,2.4,2.15,5.39,3.67,8.44,5.68l2.89-5.15c-4.89-4.86-9.64-9.07-16.81-9.54-.07-1.31-.57-2.64-.1-3.37,1.05-1.61,2.34-3.49,4-4.19,2-.85,3.57.52,3.89,2.82.06.38.52.78.89,1,3.51,2.5,7.05,5,10.88,7.66a35.28,35.28,0,0,0,3.5-19.3,6,6,0,0,1-1.92.13,31.18,31.18,0,0,1-3.23-1.31c.52-1,.8-2.24,1.61-2.9,2.82-2.3,5.91-4.13,10.56-3.07-.57-1.78-.71-3.35-1.51-4.47-2.22-3.13-2.11-4.28,1.35-6a31,31,0,0,1,3.8-1.34c3.07,2.91,3.26,3.11,2.92,6.22-.4,3.84-1.06,7.65-1.49,11.49-.48,4.38-.83,8.77-1.25,13.26,6.19,1.06,11.77,2.38,16.91-1.66,1.64-1.29,3.44-1,5.19.42s2.15,3.08,1.07,4.89a51.75,51.75,0,0,1-3.5,4.68,13.4,13.4,0,0,1,.39,2.55c-.07,4.12-2.42,5.41-6.22,3.52a6.53,6.53,0,0,0-2.59-.9c-4.92-.08-9.85,0-14.77,0l-2.38,5.52c6.35,0,12.23-.19,18.09.06,4.2.18,4.91,2.08,2.22,5.33a4.42,4.42,0,0,0-1.23,3.93c.38,2.76-3.1,5.36-5.46,3.87-3.29-2.06-6.81-1.08-10.07-2-5.9-1.73-9.92.48-13.63,4.94-4.81,5.77-8.6,12-8.91,19.37a158.46,158.46,0,0,0,.94,21.76c.43,4.42,1.81,8.76,2.76,13.14,1.95-8.3-1.84-16.39,0-24.6,2,8.91,4.08,17.76,3.23,27a42.24,42.24,0,0,0,.05,8.78c1.33,11.39,2.66,22.72-.2,34.12a63.94,63.94,0,0,0-2,13.24c-.51,15.32-.68,30.64-1,46a13,13,0,0,1-.61,2.35,30.49,30.49,0,0,1-3.57-13.59,333.36,333.36,0,0,1,3.2-58.71,48.57,48.57,0,0,0-.48-15.16c-1.56-9.13-4.3-18.08-5.73-27.22-1.78-11.46-3-23,.14-34.53.32-1.19.88-2.53.6-3.63-1-4,.8-7.24,2.28-10.64.69-1.57,1.2-3.21,1.74-4.83,1.19-3.63-.65-6.36-3.12-8.67-2.32-2.16-5.08-3-8.24-1v19.74c-3.44-.91-4.92-2.8-4.86-6.11.07-3.07-.63-6.16-.53-9.22.53-15.12-2.95-29.46-8.51-43.44a41.73,41.73,0,0,0-2.12-4.09c-3.14-5.84-7.82-10.53-12.27-15.39s-8.78-9.34-14.27-12.87c-1.28-.82-2.62-1.56-3.94-2.34,7.32,12.44,11,28.93,7,35.11-1.44-10.55-1.07-21.24-8-30a51.59,51.59,0,0,0,1.72,9.08c.82,3,1.84,5.92,2.78,8.87-5.38-3.74-4.75-9.89-7.37-14.81-.62,2.21-1.34,4.46-1.1,6.61a54.5,54.5,0,0,0,2.27,11.35c2.51,7.49,5.13,15,8.34,22.2,4.58,10.29,8.39,20.61,8.26,32.08-.08,7.18-2.9,12.75-8.17,17.47-.85.76-1.59,1.65-2.38,2.49a21.91,21.91,0,0,0,10.5-8.95c2.46-4,4-8.49,6.07-12.91.44.79.87,1.58,1.46,2.66,3.15-9.05.78-17.24-2.22-25.37m229.8,159.81c-1.15,3.94.15,6.49,1.16,8.94,6.35,15.51,8.2,31.82,8.87,48.25.32,8-.69,16.07-1.34,24.09s-1.41,15.74-2.51,23.56-2.63,15.28-2.1,23.08c.6,8.82-1.56,17.21-4.2,25.54-1.13,3.55-2.61,7.1-3,10.75-1,9.21-3.89,17.85-7.31,26.39q-6.24,15.58-12.53,31.16a3.25,3.25,0,0,0,0,1.08,30,30,0,0,0,5.05-7.85q5.16-11.52,10-23.14c2.83-6.74,5.66-13.45,7-20.72,1.15-6.38,2.82-12.69,4.49-19,2-7.36,3.79-14.68,3.55-22.4a110.36,110.36,0,0,1,.67-15.31c1-9.07,2.44-18.11,3.51-27.18.53-4.45.63-8.95.95-13.43.36-5.25,1.18-10.5,1-15.73-.21-6.49-1.35-12.94-1.85-19.42a103.3,103.3,0,0,0-9.07-34.49c-.52-1.18-1.26-2.26-2.36-4.2M242.7,683.78c5.69-.06,5.9-4.93,8.81-7.85l-8.81-1.75Zm69.05-458.3c5.13.52,14.22-.49,17.3-2L315,222.36a11.46,11.46,0,0,0-1.42-.11c-2.09.13-2.06,1.49-1.8,3.23m-15.74,17c5.21-5.92,9.51-15.21,9-19.46-2.13,6.61-7.81,11.67-9,19.46M234,693.75l1,0c.57-2.28.57-2.28-1.3-4.2.11,1.67.19,2.93.27,4.18m87-451.31c.1-.21.2-.42.29-.63-.41-.31-.79-.82-1.23-.88a6,6,0,0,0-1.84.3c0,.2,0,.4,0,.61l2.74.6"/><path class="cls-1" d="M200.29,686.44c-10.51-1.1-13.33-7-13.49-15.32,0-2.29,1.23-3.75,3.37-4.56a13.46,13.46,0,0,1,15.94,5.16c2.25,3.56,1.23,7.14.33,10.74a12.17,12.17,0,0,1-.8,1.95c3.11.7,6.09,1.2,9,2.08,2,.61,3.77,1.69,3.81,4.2s-1.54,3.61-3.5,4.49a21.5,21.5,0,0,1-11.2,1.7c-5-.5-6.67-3.15-4.94-7.74a22.08,22.08,0,0,1,1.53-2.7"/><path class="cls-1" d="M319.11,707.31c-3.15-4.24-2.19-8.33-.7-12.17,1.63-4.21,8.46-5.38,12.32-2.11a24.17,24.17,0,0,1,5.36,6.44c2.21,3.93-2.09,10.46-6.78,10.64a39.32,39.32,0,0,1-4.57-.39,13.24,13.24,0,0,1,1.08,2.45c.83,3.77-.29,6.68-3,8.08-3.05,1.57-9.07.46-11.57-2.12a7.76,7.76,0,0,1-.94-8.68,4.57,4.57,0,0,1,4.67-2.56c1.23.11,2.46.24,4.15.42"/><path class="cls-1" d="M303.36,728.85a57.85,57.85,0,0,1,6.09,1.11c3.27.95,4.29,2.67,3.76,6a8.62,8.62,0,0,1-5,6.94c-5.34,2.49-10.67,3.12-15.87-.27-2.71-1.76-3.2-3.51-1.73-6.3,2.62-5,6.61-7.85,12.71-7.46"/><path class="cls-1" d="M148.25,666.28c0-6.08,1.93-8,7.54-7.32a21.11,21.11,0,0,1,7.6,2.39,9.55,9.55,0,0,1,3.14,13.41c-1.32,2.17-3.21,3.22-5.58,2.44a52.14,52.14,0,0,1-8.66-3.71c-3-1.63-4.44-4.33-4-7.21"/><path class="cls-1" d="M263.38,729.43c-.55-3.95,1.52-6.91,4.6-9.38s6.51-1.88,9.09,1c3.25,3.59,5.09,7.29,2.91,12.08a9.39,9.39,0,0,1-14.33,3.65c-2.59-1.9-2.23-4.55-2.27-7.33"/><path class="cls-1" d="M182.82,682.39c3.14,1,6.48,1.58,9.35,3,4.34,2.19,4.42,6.51.56,9.36a14.8,14.8,0,0,1-13.94,2.41c-3.89-1.23-5.78-3.47-5.45-6.56.48-4.45,3.25-7.29,7.38-7.57.63,0,1.27-.06,1.91-.09l.19-.58"/><path class="cls-1" d="M415.35,702.8c.17-6.77,7.59-11.83,14.42-9.78a18.54,18.54,0,0,1,3.48,1.52c2,1.06,4,2.2,3.79,4.84s-1.28,5.08-4,6.4c-4.64,2.25-9.58,2.14-14.5,1.49-2.42-.32-3.3-2.18-3.18-4.47"/><path class="cls-1" d="M392.66,702.15a16.1,16.1,0,0,1,9.44,3.49,3.31,3.31,0,0,1,1.09,4.51c-2.26,4.63-6.62,6.28-11.31,6.46-2.86.11-5.85-1.13-8.64-2.15-1.71-.63-3.48-1.75-3.15-4.12s.81-4.7,3.5-5.58c3-1,6-1.75,9.07-2.61"/><path class="cls-1" d="M445.76,745.06c0,3.65-.52,7.12-4,9.34-2.6,1.64-5.33,3-8.46,1.41s-4.3-4.58-4.31-7.72c0-4.29,2.44-7.62,5.93-10,2.51-1.72,5.24-.75,7.7.44,2.7,1.3,3.22,2.56,3.17,6.56"/><path class="cls-1" d="M301.71,711.65c-4.79.09-7.68-2.68-9.79-6.35-1.39-2.41-.73-4.74,1.57-6.61a13.14,13.14,0,0,1,9.74-3c4.64.4,7.77,3.16,8,7.14s-3.18,8-7.65,8.67c-.62.1-1.26.12-1.9.18"/><path class="cls-1" d="M357.6,702.87c-.33,3.06-3,5.56-5.73,7.49a22.35,22.35,0,0,1-8.71,3.37c-3.86.69-5.9-1.74-5.38-5.58a12,12,0,0,1,3.38-6.48c2.68-3,6.25-4.31,10-5.16,3.52-.8,6.59,2.11,6.48,6.36"/><path class="cls-1" d="M131.7,728.52c-7.95-.34-12.44-4.82-12.38-12.34,0-3.32,1.23-4.47,4.61-4.41,5.06.09,9.17,2.52,12.92,5.39,2.86,2.18,1.84,5.41,1.07,8.19-.64,2.35-2.95,3.31-6.22,3.17"/><path class="cls-1" d="M455.47,744.06c-.09-4.11.77-5.35,4.06-6.6,3.59-1.37,8-1,9.74,1.4,2.09,2.86,4,5.88,2.6,9.81-1.26,3.61-3.92,6-7.47,6-4,0-7.6-2.59-8.43-6.24a31,31,0,0,1-.5-4.35"/><path class="cls-1" d="M140.49,739.73c0-5.37,3-8.44,8.46-8.47s9.56,3.32,9.63,7.62c.07,4.87-3.21,8-8.41,8.07-6.06.07-9.65-2.61-9.68-7.22"/><path class="cls-1" d="M481.21,744c-.56-3.87,1.28-7.22,4.31-10,3.79-3.46,10.69-1.65,12.09,3.07a6,6,0,0,1,.35,1.34c.27,6-8,12.68-14.14,11.5-1.66-.32-2.61-1.06-2.61-2.75V744"/><path class="cls-1" d="M344.58,747.67a25.47,25.47,0,0,1-4.5-.77c-2.07-.66-4.34-1.4-4.46-4.15a7.09,7.09,0,0,1,2.9-6.48c3.07-2.24,9.88-2.54,13.2-.61.27.15.48.41.74.57,2.58,1.61,5.29,3.16,4.13,6.85-1.07,3.37-4.16,3.94-7.1,4.55-1.21.26-2.53,0-4.91,0"/><path class="cls-1" d="M427.35,687c-4.46-.07-7.6-2.6-7.5-6.05.18-6.4,3.22-9.71,8.84-9.6,4.32.08,8.77,3.58,8.73,6.88-.05,5.44-4,8.86-10.07,8.77"/><path class="cls-1" d="M199,717.78a15.48,15.48,0,0,1-10.7-5.52,7.29,7.29,0,0,1-1.64-6.09c.38-2.63,1.67-3.82,4.37-4.07,5.12-.48,11.29,2.84,13.49,7.28s-.41,8.63-5.52,8.4"/><path class="cls-1" d="M369.2,712.7c-2.24-.67-4.65-1-6.68-2.09-4.14-2.14-4.45-7.11-.79-9.9a12,12,0,0,1,12.54-1.47,6,6,0,0,1,3.62,6.8,7.72,7.72,0,0,1-6.19,6.22,15.6,15.6,0,0,1-2.37,0c0,.14-.09.28-.13.42"/><path class="cls-1" d="M393.23,740.22c0,3.89-1.7,6.67-4.52,7.39-3.35.86-9.22-.81-10.56-3s-.4-7.82,1.77-10.08a7.35,7.35,0,0,1,7.81-2.2,8.07,8.07,0,0,1,5.5,7.89"/><path class="cls-1" d="M124.52,753a13.23,13.23,0,0,1-1.2,3.65c-1,1.63-2.76,1.74-4.66,1.14a17.88,17.88,0,0,1-9.31-6.87c-1.74-2.4-1.38-5-.47-7.55.66-1.82,2.5-2.3,4.34-2.2,3.53.2,10.11,5.51,11,8.81a25,25,0,0,1,.32,3"/><path class="cls-1" d="M181.68,751.77c-2-.21-3.13-.27-4.22-.44-4.3-.67-6.16-2.52-5.92-5.82s3.26-6.33,6.66-6a31.31,31.31,0,0,1,9.91,2.83c3.27,1.57,2.92,6.33-.44,7.8a34.62,34.62,0,0,1-6,1.59"/><path class="cls-1" d="M404.06,698.09c-2.4,0-5.1.2-6.42-2.11-1.5-2.62,0-5.08,1.56-7.26a11.08,11.08,0,0,1,12.39-3.56,3.73,3.73,0,0,1,2,2.26c1.38,5.84-2.29,10.36-8.53,10.66-.31,0-.63,0-.95,0"/><path class="cls-1" d="M453.82,732.78c-2.05-.22-3.18-.24-4.27-.47-3.27-.69-4.31-2.06-4.46-5.63s.81-5.16,4-5.93,6.21-1.23,9.35.37c2,1,3.6,2.11,3.55,4.45s-.54,4.77-3.13,5.81a37.88,37.88,0,0,1-5.05,1.4"/><path class="cls-1" d="M382.54,687.2c4.28.78,7.58,2.3,9.86,5.26,1.66,2.15,1.46,4.71.17,7-1.08,1.91-3.25,2.39-6.4,1.43a20,20,0,0,1-5.19-2.25c-3.88-2.54-4.38-6.6-1.26-9.95a9,9,0,0,1,2.82-1.5"/><path class="cls-1" d="M413.34,488.88c8.94,5.44,9.65,5.57,16.92,3.25,1.16,3.18,2.12,6.23.71,9.68a12.55,12.55,0,0,0-.44,9.07c.85,2.43-.39,4-2.6,4.64a11.24,11.24,0,0,1-4.65.39c-6.33-.82-10-5-12.81-10.07-1-1.86-1.26-4,.69-6a8.46,8.46,0,0,0,2.2-6.87c-.09-1.32,0-2.66,0-4.13"/><path class="cls-1" d="M435.76,481.16l3.13-1.06c4.27,5.6,10.11,7.74,16.93,6.57,4.54,7.45.15,15.49-8.25,16a14,14,0,0,1-11.2-4.15c-3.08-3.06-3.91-6.46-2.19-10.55.82-1.93,1-4.11,1.58-6.8"/><path class="cls-1" d="M417.11,552.39h9.75c3,1.47,5.37,2.63,7.74,3.84a5.87,5.87,0,0,1,2.29,1.44c2.5,3.79-1.26,11.52-5.87,11.94a30.13,30.13,0,0,1-7.16-.26c-6-.91-8.81-4.67-8.08-10.5.26-2.13.86-4.23,1.33-6.46"/><path class="cls-1" d="M457.6,423.36c-5.27-.32-8.84-2.4-11.42-6-1.43-2-1.91-4.49-.38-6.52,2-2.64,4.68-5.29,8.24-4.69,4.37.73,8.9,1.39,12.24,5.18,4,4.62,1.44,9.28-2.83,10.71a51.38,51.38,0,0,1-5.85,1.34"/><path class="cls-1" d="M378.37,444.46c4.81.78,7.3,4,9.05,8a6.33,6.33,0,0,1-1.2,7.29c-4.73,5.27-9.84,6.32-16.12,3.1a4.91,4.91,0,0,1-3-4.83c0-2-.2-3.9-.32-5.91,7-2.12,7.07-2.17,11.55-7.67"/><path class="cls-1" d="M355.78,469.1c.23-1.64.4-2.86.57-4.09l8.61-2.87a16.61,16.61,0,0,0,12.14,6c2.8.1,5.76,4.17,5.77,7.05,0,3.49-1.93,5.67-5.79,6.11a36.7,36.7,0,0,1-6.2-.05,3.15,3.15,0,0,1-3.09-2.38c-1.79-5.54-5.93-8.57-12-9.77"/><path class="cls-1" d="M146.59,358.09c-4.18,6.2.14,9.83,4,13.56-4.75,5.64-7.34,6.36-13.78,3.49a25.45,25.45,0,0,1-6.42-3.88c-2.7-2.39-2.76-5.16-.35-7.81,4.25-4.69,9.43-7,16.52-5.36"/><path class="cls-1" d="M461.08,468.34c4.67,6.55,2.58,12.47-5,14.88-5.81,1.86-10,.92-13.29-3a7.2,7.2,0,0,1-.41-8.23,7.63,7.63,0,0,1,8.16-3c3.5,1,4.1,1,10.53-.7"/><path class="cls-1" d="M266.76,547.66,271,537.52a66.86,66.86,0,0,1,6.94-2c3-.58,5.11,1.15,6.95,3.19,1.56,1.74,2.53,3.69,1.22,5.91-3.07,5.22-6.84,9.7-12.28,10.63l-7-7.55"/><path class="cls-1" d="M434.19,362.61c8.06.42,9.48,6,10.34,11.38.54,3.34-2.17,5-4.57,6.45-2.62,1.61-5.4,1.91-8-.19-3.85-3.11-6.33-6.89-6-11.88l8.28-5.76"/><path class="cls-1" d="M199,345.78h9.13A28.64,28.64,0,0,1,211,358.17a5.5,5.5,0,0,1-3,4.92,10.8,10.8,0,0,1-10.89-.17c-3.13-2.1-4-7.05-1.91-10.38,1.29-2.09,2.39-4.28,3.77-6.76"/><path class="cls-1" d="M445.15,462.09c3-3.43,3.53-7.35,1.71-11.71l3.37-1.87c3.44,1.25,6.45,2.76,9.65,3.36a5.48,5.48,0,0,1,4.76,4.48,6.72,6.72,0,0,1-2,7.22c-5.27,4.58-12.53,4-17.49-1.48"/><path class="cls-1" d="M244.3,576.23c-6.27,0-9.82-2.51-11.34-8.5a3.92,3.92,0,0,1,1.45-3.42,42.31,42.31,0,0,1,7.72-3.57c2.16-.78,4.4-.74,6.23,1a11.34,11.34,0,0,0,1.48,1.19c4.23,3,4.93,4.51,3.73,8.23-.95,3-3.74,4.75-7.84,5-.47,0-1,0-1.43,0"/><path class="cls-1" d="M184.86,436.92c6.37-.89,6.37-.89,10.4-3.88.65.86,1.76,1.66,1.89,2.58.71,5.29.63,5.3,3.06,8.3-.72,2.45-1.37,5-2.23,7.44-1.06,3-2.22,3.59-5.38,3-7.75-1.51-11.44-9.83-7.74-17.41"/><path class="cls-1" d="M200.73,592.44c.13,7.56-2.84,10.14-9.47,9.39a33.41,33.41,0,0,1-4.71-.69c-4.46-1.18-6.31-5.4-4.24-9.4,2.93-5.65,12.24-7.25,16.74-2.71a9.38,9.38,0,0,1,1.68,3.41"/><path class="cls-1" d="M226.18,290c-1.05,3.47-2,6.54-2.91,9.58a5.33,5.33,0,0,1-5.43,3.76,23.17,23.17,0,0,1-8.31-1.6c-3.91-1.64-4.82-6.41-2.31-9.89a10.3,10.3,0,0,1,7.68-4.19A19.65,19.65,0,0,1,226.18,290"/><path class="cls-1" d="M360.85,519.42c-1.5-3.62-2.61-6.28-3.77-9.09,2.05-.61,4.62-.91,6.62-2.11s3.54-3.34,5.78-5.57c1,.29,2.63.73,4.26,1.22,4,1.24,5.34,3,5.25,7.11a7,7,0,0,1-5.38,6.8c-4.31.83-8.72,1.15-12.76,1.64"/><path class="cls-1" d="M432.83,415.63l8.2-.52a74.35,74.35,0,0,1,3.68,7.18c2.17,5.6-1.36,10.37-7.54,10.4-3.72,0-6.76-1.72-9.47-3.93-1.95-1.59-1.81-3.35,0-5.13,3.6-3.58,3.6-3.58,5.16-8"/><path class="cls-1" d="M175.41,306.89a69,69,0,0,0,3.54,7.25,67.11,67.11,0,0,0,5,6.14c-1.07,2.86-3.65,4-7,3.75-4.64-.36-9.21-1-12.6-4.59-2.58-2.77-2.48-4.08-.19-7.2,2.66-3.61,6.37-4.83,11.22-5.35"/><path class="cls-1" d="M418.29,571.87c3.22.28,5.73.48,8.25.74,3.57.36,5.7,2.17,5.81,5.58.1,3.17.53,7-3,8.65s-7.39,1-10.72-1.47c-1.5-1.11-3.21-1.94-5.07-3-1.73-4.84,3.82-6.75,4.76-10.45"/><path class="cls-1" d="M386,397.64c4.27-1.88,7.53-3.37,10.84-4.72a7.93,7.93,0,0,1,3.1-.51c2.53.07,5.05.31,8.15.51-1,3.79-1.85,7.74-3,11.64-.47,1.63-1.89,2.25-3.71,2.37a17.59,17.59,0,0,1-12.84-4.15c-1.46-1.23-1.87-3.65-2.57-5.14"/><path class="cls-1" d="M258.46,652.59c-4.86.12-9.37-2.94-7.7-9,.62-2.23.62-4.44,2.75-6.15a6.34,6.34,0,0,1,6.63-1.2,9.87,9.87,0,0,1,6.23,5.47c2.38,6.17.61,10.66-7.91,10.87"/><path class="cls-1" d="M401.42,440.48c1.5-2.48,3-4.86,4.32-7.11l10.8.51a3.87,3.87,0,0,1,1.37.24c1.93.95,4.15,6.13,3.75,8.66-.49,3-2.09,4.37-5.87,5-1.88.3-3.75.67-5.32.95l-9.05-8.22"/><path class="cls-1" d="M339.44,396c-.53-5.84-3.64-9.51-8.21-12.32l4.32-6.73a14.77,14.77,0,0,1,11.39,3.15c3.54,2.7,4.41,5.43,2.5,9.36a10.69,10.69,0,0,1-10,6.54"/><path class="cls-1" d="M339.1,508.39c2-7.37-2.21-11.86-7.34-16.06,1.35-1.83,2.84-2,4.9-1.3a31.58,31.58,0,0,0,6.5,1.29c6.95.8,10.8,7.74,7.52,13.73-1.85,3.4-3.8,4.22-7.75,3.28l-3.83-.94"/><path class="cls-1" d="M248.65,599.23,240,592.37c.11-1,.65-2.61.35-4-.83-3.93,2.09-5.34,4.72-6.53s5.71-1.52,8.36,1c4.18,4,4.49,8.46.35,12.52a48,48,0,0,1-5.13,3.93"/><path class="cls-1" d="M407.54,554.48c1.11-.8,2-1.41,2.87-2.09s1.35-1.19,2.86-2.55c.08,3,.45,5.08.11,7-.69,4-1.2,7.79,1.22,11.62,1.72,2.71-.3,6.94-3.5,7.35a20.94,20.94,0,0,1-8.87-.78c-3.88-1.25-4-4.45-2.71-7.77,9.71-4,10.53-5.31,8-12.83"/><path class="cls-1" d="M315.17,543.79l9.62-2.76a40.63,40.63,0,0,1,5,3.13,7.88,7.88,0,0,1,2.64,3.63c.74,2.81-2.53,7.75-5.83,9.44-2.47,1.26-7.12.5-9.32-1.78a6,6,0,0,1-1.35-3.22c-.19-1.35.19-2.77.08-4.15a37.38,37.38,0,0,0-.86-4.29"/><path class="cls-1" d="M429.5,462.59c4.32,2.51,8.54,3.29,13.22.88.9,1,1.77,2,2.87,3.26-4.26,2-7.1,4.61-7.46,9.18-.16,2.08-2.13,2.9-3.91,2.45a24.65,24.65,0,0,1-7.85-3.05c-3.93-2.71-3.62-7.62.21-10.51l2.92-2.21"/><path class="cls-1" d="M404,526c9.7-1.08,10.66-1.76,12.56-9.15l5.75,2c.29,1.11.51,2.16.84,3.17,2.22,6.88-1.36,12-8.79,12.44a14.59,14.59,0,0,1-5.18-.59c-5.17-1.65-6.43-2.55-5.18-7.89"/><path class="cls-1" d="M435,516.5c4.09-.24,7.32-.48,10.56-.6s4.89,2,6.46,4.07c2.59,3.42,2.13,5.24-1.5,7.57a12.22,12.22,0,0,1-16.33-3.42c-2-3-.62-5.56.81-7.62"/><path class="cls-1" d="M209.87,608.69c0,6.11-3.15,9.16-8.15,9.26-4.85.09-9.08-3.48-9.14-7.61a4.82,4.82,0,0,1,2.54-4.63c2.17-1.27,4.12-2.94,6.4-3.93,1.21-.52,3.65-.53,4.25.2a46.71,46.71,0,0,1,4.1,6.71"/><path class="cls-1" d="M209.14,619.48c4.31-4.42,4.66-5.12,5.71-11.28l6.42.57c3,.28,5.92,3.93,5.52,6.85-.58,4.18-6.92,9.81-11.16,9.9-4.71.11-5.7-.79-6.49-6"/><path class="cls-1" d="M248.54,417.91a4.34,4.34,0,0,1-.7-.48c-5.41-4.56-4.3-10.53,2.42-12.87,2.66-.93,5.36-1.79,8.09-2.52,3.13-.83,4.74-.06,7,3-5.22,5.66-5.22,5.66-6.5,10.07l-10.27,2.75"/><path class="cls-1" d="M445.29,433.66l5.3,3.75c-.28.92-.63,1.9-.86,2.9-.67,3-1.07,6.54-4.87,7.21-4.47.78-8.95.27-12.64-2.76a3.66,3.66,0,0,1-1.12-4.62c1-2.26,2.13-4.45,5.21-4.82,2.78-.34,5.53-1,9-1.66"/><path class="cls-1" d="M400,613.06l-6.05-7.79A17.22,17.22,0,0,1,405.07,599c.31,0,.62-.17.93-.2,3.69-.39,7.1,1.14,8.06,3.62,1.05,2.73-.75,6.88-3.82,8.71-3.4,2-7,2.76-10.29,1.89"/><path class="cls-1" d="M414.66,376.2c1.55-.92,2.95-1.64,4.23-2.53,1.12-.77,2.1-1.73,3.09-2.56,2,4.3,4,8.29,5.74,12.36,1.36,3.14.4,5.71-2.48,7.45-3.4,2.05-8.41,1.62-12.21-1.23,1.9-4.26,3.41-8.76,1.63-13.49"/><path class="cls-1" d="M391.15,456.66c.69-6-3-9.94-7.21-14.44,1.64.16,2.45.19,3.25.31,2.51.4,5.07,1.37,7.49,1.12,4.72-.5,7.53,2.07,10,5.09,2.61,3.19-1,9.67-5.5,10.21-2.38.29-4.46-.27-8-2.29"/><path class="cls-1" d="M357.87,489.1c6.53-1.82,6.53-1.82,9.89-5.76a12.63,12.63,0,0,1,9.56,4.23c3.79,4.11,3.36,8.77-1.28,11.86-3.24,2.17-6.3,1.38-8-2.15-2-4.15-5.64-6.46-10.15-8.18"/><path class="cls-1" d="M330.36,478.42l7.3-5.41a58.65,58.65,0,0,1,7,2.46c3.89,1.89,5.81,7,4.15,10.21-1.9,3.7-7,5.32-11.13,3.34-1-.47-2.23-1.72-2.21-2.58.07-3.71-1.86-6.08-5.16-8"/><path class="cls-1" d="M280.64,532.3c0-7.73,0-7.73-7.41-14.34,4.5-5,7.89-6.1,12.19-4.18,4.61,2.05,5.85,7.35,5,11.93-.74,4.21-4,6.4-9.82,6.59"/><path class="cls-1" d="M359.57,581.68l-4.8-4.43c1-2.37,2.69-4.65,2.82-7s-1.35-4.62-2.17-7.11c2.05-.28,4.23-.67,6.43-.88,3.18-.31,5.76.88,7.1,3.68s2.05,6.11-.33,8.78a33.29,33.29,0,0,1-9.05,7"/><path class="cls-1" d="M406,460.71c1.62-5.89,6.13-7.51,11.26-8.14,4.13-.5,8.56,2.32,9.6,6.18a3.66,3.66,0,0,1-.74,2.91c-5.23,5.93-15,5.43-20.12-1"/><path class="cls-1" d="M245.06,401.85c-5.17,4.3-4,9.28-2.46,14.85-1,.3-2.29,1.11-3.22.85a42.9,42.9,0,0,1-8.34-3.2,5.14,5.14,0,0,1-2.09-3.46,12.73,12.73,0,0,1,2.2-9.27c1.5-2.21,5.35-3,8.18-2,1.79.64,3.53,1.38,5.73,2.25"/><path class="cls-1" d="M375.43,340.15c5.48.07,8.9,3.58,11.66,7.51,2.24,3.19-.6,8-4.59,8.19a16,16,0,0,1-10.75-3c-3.27-2.44-3.17-5.64,0-8.34a35.12,35.12,0,0,0,3.69-4.32"/><path class="cls-1" d="M359.22,437.33c-2.26-3.6-4.87-7.09-10.07-7.84.62-2.23,1.18-4.23,1.65-5.89,3.4-.31,6.49-.64,9.59-.84,1.89-.12,3.91-.43,5.67,0a5.56,5.56,0,0,1,2.25,9.38c-2.47,2.37-5.18,4.51-9.09,5.15"/><path class="cls-1" d="M387.74,439.65c2.75-8.45,2.75-8.45.17-14.08l7.17-2.73c1.47.74,3.26,1.68,5.09,2.55,2.75,1.31,3.57,2.68,3.17,5.46-1.11,7.78-7.93,11.62-15.6,8.8"/><path class="cls-1" d="M258.49,507.78c1.32,2.94,2.59,5.74,3.84,8.54,1.77,3.92,1.42,5.27-2,7.84-3.19,2.38-6.18,2.5-9.11.22-1.59-1.24-3.06-2.63-4.93-4.27,4.17-3,5.55-7.23,5.45-12.33Z"/><path class="cls-1" d="M351.58,407.13c4-.73,7.77-.84,11.22,1.43,4,2.65,4.45,6.2.77,9.14a21.49,21.49,0,0,1-6.19,3.41c-3.35,1.18-8-1-9.09-4.24a6.48,6.48,0,0,1,.48-3.95,61.55,61.55,0,0,1,2.81-5.79"/><path class="cls-1" d="M243.6,431.55c2.77,1.73,5.1,3.3,7.55,4.68a6.07,6.07,0,0,1,3.46,5.56,6.58,6.58,0,0,1-4.64,5.94,9.61,9.61,0,0,1-9.79-2c-2.61-2.29-3-5.22-1.86-8.5,1-2.93,2-5.62,5.28-5.64"/><path class="cls-1" d="M232.45,352.87c4.54,1.17,8.71,1.06,12.67-1.63.48,2.14.88,3.92,1.08,4.84-1.72,3.34-3.41,5.94-4.39,8.78a3.59,3.59,0,0,1-4.31,2.69,14.76,14.76,0,0,1-9.36-5.17c-1.51-1.7-1.1-3.5.21-5.09s2.55-2.76,4.1-4.42"/><path class="cls-1" d="M251.78,489.7c5.07-.23,8,2.68,11.19,5.22,1.6,1.29,1.71,2.8.87,4.55-2.49,5.11-10.7,6.89-15.17,3.26a6.81,6.81,0,0,1-.68-9.53c1.16-1.25,2.52-2.34,3.79-3.5"/><path class="cls-1" d="M354.49,388.11c-1.09-3.48-2-6.49-3.08-9.8a39.2,39.2,0,0,0,3.33-3.55c2.33-3,4.12-4,7-3.08,3.06,1,5.23,2.89,5.65,6.24a8.9,8.9,0,0,1-7.85,9.95c-1.72.23-3.48.18-5.05.24"/><path class="cls-1" d="M388.45,523.38c-2.06-2.34-3.91-4.43-5.75-6.53-.19.21-.38.41-.58.61.11-2.13.38-4.26.29-6.38s.14-4.15,2.4-5.06c2.52-1,5.35-1.92,7.6.29a24,24,0,0,1,4.36,5.94c1.21,2.31.47,4.51-1.69,6.15l-6.63,5"/><path class="cls-1" d="M230.86,349.2a35.62,35.62,0,0,0,.78-4.88,23.53,23.53,0,0,0-.66-4.16c4.44-.84,8.25-2.52,9.67-7.22L246,335c2.36,4.58,2.49,8.54-1.6,12.26s-8.35,3.9-13.54,1.94"/><path class="cls-1" d="M411,393.41l11.54,2,3.23,5.56c1.5,2.59,1.08,4.24-1.61,5.76a10.91,10.91,0,0,1-8.26,1.35c-5.62-1.4-7.64-4.53-6.33-10,.4-1.64,1-3.24,1.43-4.74"/><path class="cls-1" d="M299,451.73c-6.25,0-9.95-3.69-9.81-8.56.08-3.19,4.22-6,8.07-5.33a26.71,26.71,0,0,1,6.33,2,6.26,6.26,0,0,1,3.95,5.41c.12,2.35-1.57,3.71-3.43,4.61a40,40,0,0,1-5.11,1.85"/><path class="cls-1" d="M245.28,550.27c-.3,4.17-3.22,6-5.79,8a14.4,14.4,0,0,1-12.14,2.94c-3-.64-3.72-1.86-2.58-4.61,2.93-7.09,9-9.84,16.51-7.47,1.31.42,2.64.77,4,1.17"/><path class="cls-1" d="M371.75,325.59c-.41-3.64-.63-6.85-1.16-10-.6-3.63,1.82-6.81,5.93-7.42,4.65-.69,6.7.72,7.29,5,1.14,8.42-4.13,13.71-12.06,12.45"/><path class="cls-1" d="M322,475.22a10.87,10.87,0,0,1,.51-2.3,11.69,11.69,0,0,0,0-10.32c-1.12-2.33-.45-3.77,1.39-5.1,2.21.5,4.42.85,6.51,1.52a7.43,7.43,0,0,1,3.1,2c4.34,4.79,3.51,9.79-2.16,13.14a11.11,11.11,0,0,1-9.31,1.1"/><path class="cls-1" d="M252.92,373.45l8.31-3.45,2.85,3.5L258.77,386c-1.61.56-4,1.25-6.21,2.21-2.53,1.07-5,1-6.09-.57-1.27-1.92-.11-3.36,1-5,1.92-2.78,3.46-5.8,5.43-9.17"/><path class="cls-1" d="M285.73,563,276,557.58c2.14-1.53,5.14-3.23,7.56-5.5s4.18-5,6.19-7.53c4.63,1.3,6.73,4.08,5.83,8.1-1.27,5.64-4.74,9.32-9.89,10.3"/><path class="cls-1" d="M402.28,534l5.72,3.1c-1.13,3.62-2.87,7.36.45,10.65-2.47,3.21-4.76,3.92-8.73,2.94-5.59-1.37-8.16-4.89-7.89-10.59,3.75-1.18,7.95-2,10.45-6.1"/><path class="cls-1" d="M369.93,388c.6-4.3,1.13-8.2,1.74-12.6,1.68,0,4-.63,5.6.14a26.53,26.53,0,0,1,7.58,5.42c2,2.09,1.34,4.94-.88,7.07-3.84,3.66-10.13,3.45-14,0"/><path class="cls-1" d="M396.59,336c1.74-4.52,5.19-6.2,8.56-6.94,2.68-.59,5.79.58,8.69,1.06.34.05.65.65.86,1.05,1.27,2.46.14,7.38-2.14,9.38-2.83,2.48-6.62,2.93-9.58.82-2.26-1.61-4.26-3.56-6.39-5.37"/><path class="cls-1" d="M241.28,537.5a31.67,31.67,0,0,1-5-1.26c-3.19-1.43-3.66-2.83-2.54-6.19.34-1,.58-2.08.87-3.13.81-2.88,3.52-4.95,6.34-4a22.81,22.81,0,0,1,7.78,4.15c2.84,2.42,2.19,6.38-1.1,8.18a39.22,39.22,0,0,1-6.34,2.3"/><path class="cls-1" d="M149.07,378.31c3.88,5.31,8.82,6.9,14.9,6.65.15,1.54.28,3,.4,4.14l-11.25,2.84A9.93,9.93,0,0,1,142.3,388a4.1,4.1,0,0,1,.7-5.45c1.75-1.48,3.78-2.67,6.07-4.26"/><path class="cls-1" d="M326.25,402.19,321.6,394l3.4-8c6.15-.9,11.89,3.94,11.27,9.85-.66,6.21-4.26,8.32-10,6.39"/><path class="cls-1" d="M296,545.19c-1.72-3-3.26-5.15-4.18-7.5-1.07-2.7,1.12-6.35,4.28-8,4.85-2.44,12.11.67,13.57,5.82.79,2.75-.13,4.24-3.1,4.13-4.18-.15-7.47,1.15-10.57,5.5"/><path class="cls-1" d="M229.15,323.08c1.8.29,3.82.19,5.37,1,3,1.49,3.85,4.44,3,8-.68,2.76-3,4.59-6.16,4.91-.31,0-.63,0-1,0-7.58.18-10.94-5.07-7.5-11.69a3,3,0,0,1,3.35-2c.94.14,1.9.12,2.85.17,0-.14,0-.27.07-.41"/><path class="cls-1" d="M202.64,296.63c.42,5.11,4.41,7.33,8.62,9.19-1.3,4.89-5.51,7.68-10.22,6.93-4.23-.67-7.77-4.68-7.38-8.35.52-4.87,3.62-7.64,9-7.77"/><path class="cls-1" d="M193.8,312.72c-1,2.22-1.54,4.71-4.75,4.52s-6-.76-7.29-4.16c-.82-2.16-2-4.19-3-6.28-1.36-2.76-1-4.12,1.63-5.88,2.2-1.49,6.39-1.67,8.56-.13a3.52,3.52,0,0,1,1.48,2.57c-.34,3.63,1.09,6.61,3.4,9.36"/><path class="cls-1" d="M268.08,424.06c-2.43,2.62-4.89,5-7,7.65-2.91,3.54-9.49,1.32-11.31-1.35a2.42,2.42,0,0,1-.59-1.23,11.91,11.91,0,0,1,5.26-9.44c2.3-1.64,5.61-1.21,8.3.83.88.67,1.79,1.28,2.71,1.89s1.61,1,2.67,1.65"/><path class="cls-1" d="M345.62,595.31c-.27-5.1-3.52-7.57-6.71-10.86,1.37-1.12,2.73-2.13,4-3.26,1.73-1.55,8-2.72,10.18-1.79,2.52,1.08,3.36,3.26,3.5,5.65a7.93,7.93,0,0,1-4.6,8,54.73,54.73,0,0,1-6.36,2.25"/><path class="cls-1" d="M392.8,360l-5-3.1a8.17,8.17,0,0,0,2.84-8c-.61-3.68,2.15-6.68,5.86-6.95a6.57,6.57,0,0,1,6.88,6.31c.05,2.57-.61,5-2.87,6.59-2.53,1.81-5.19,3.46-7.71,5.12"/><path class="cls-1" d="M327.86,441.1c2.94-.24,5.45,1.11,7.86,2.65s4.31,3.26,3.7,6.42a8.07,8.07,0,0,1-6.53,6,18.72,18.72,0,0,1-5.69-.08,5.1,5.1,0,0,1-3.44-7.21c1.28-2.45,2.57-4.9,4.1-7.81"/><path class="cls-1" d="M467.16,436.54a8.61,8.61,0,0,1,1.4,1.52c4.2,6.39,3.86,9-5.07,11.15a10,10,0,0,1-8.85-2.63c-1.23-1.1-1.83-3.21-2.05-4.95-.29-2.33.89-3.21,3.38-3.52,3.4-.43,6.8-.95,11.19-1.57"/><path class="cls-1" d="M272.47,462.49c.51,2.23-.83,3.62-3.21,4.53a19.31,19.31,0,0,0-3.66,2.09,6.55,6.55,0,0,1-7.38.17c-2-1.47-2.47-4-1.71-6.63,1.3-4.52,5.52-5.78,9.1-7.31,3.16-1.36,6.84,2.61,6.86,7.15"/><path class="cls-1" d="M395.9,409.33c7.39.45,7.39.45,11.32-2.17,1.92,1.45,4.32,2.36,4.1,5.56a13,13,0,0,1-4.43,9.39c-1.91,1.64-7.76.89-9.29-1.13-.64-.85-.53-2.26-.69-3.42-.35-2.66-.66-5.32-1-8.23"/><path class="cls-1" d="M342.71,628.79c1.65-4.85,3-8.74,4.36-12.81a8.81,8.81,0,0,1,10,5c1.32,3.2-.48,8.58-3.81,10.12-1.42.66-3.38.41-5.07.27-2.42-.19-4.8-.66-5.5-2.61"/><path class="cls-1" d="M359.18,590.49c5-5.68,9.56-6.58,16-3.5,4.13,2,4.55,6,.94,8.94-3.21,2.65-9.5,2.4-12.83-.69a58.32,58.32,0,0,1-4.11-4.75"/><path class="cls-1" d="M344.28,432.31c7.18-.6,11.32,2.45,11.3,8,0,1-.27,2.39-1,2.89-3.56,2.57-7.4,4.66-11.79,4.33l-4.73-6.09c5.28-.79,5.95-4.74,6.18-9.13"/><path class="cls-1" d="M174.37,339.14c2.33.33,4.22.88,6.07.78,3.18-.17,4.55,1.43,5.48,4s1.56,5.28-.32,7.5-4.6,2.6-7.42,1.52a28.43,28.43,0,0,1-4.83-1.92c-2.65-1.67-2.9-3.52-1.29-6.23a21.89,21.89,0,0,0,1.5-2.88,24.38,24.38,0,0,0,.81-2.8"/><path class="cls-1" d="M278.53,528.33c0,6.08-4.46,8.58-9.89,5.56-7.68-4.26-7.92-5.48-2.23-12a3.68,3.68,0,0,1,1.81-1.32c3.52-.7,10.87,2.49,10.31,7.81"/><path class="cls-1" d="M341.4,620.05c-.29,6.66-4.92,9.32-10.17,6.67a15.2,15.2,0,0,1-3.57-2.25c-1.76-1.66-4.05-3.27-3.31-6.12.44-1.67,5.42-4.2,7.57-4,3.06.25,6,1,8.08,3.37a11.38,11.38,0,0,1,1.4,2.35"/><path class="cls-1" d="M370.19,436c3.35-2.48,3-6,3.14-9.18l8.78-3c.81,1.28,1.74,2.71,2.62,4.16,2.17,3.6,2,6.72-.49,9.91-1.53,1.94-5.62,2.47-8.88,1-1.72-.78-3.31-1.83-5.17-2.87"/><path class="cls-1" d="M386.46,336.18a8.06,8.06,0,0,1-6.6-2.73c-1.83-2-1.7-4.78.63-6a48.31,48.31,0,0,1,9.25-3.67,5.93,5.93,0,0,1,6.72,3.25c.86,2,.1,4.28-2,6.11-2.8,2.41-4.48,3.07-8,3"/><path class="cls-1" d="M194.43,377.33c2.63-3.47,3.41-6.82.71-10l12,.64,4.14,3.37c.14,4.18-1.7,7.18-6,8.7s-7.61,0-10.88-2.73"/><path class="cls-1" d="M399.51,376.57l6.34-2.9c5.92,1.62,7.89,4.57,6.57,10-1.14,4.75-6.05,7.26-11.73,6.21-.39-4.42-.77-8.75-1.18-13.32"/><path class="cls-1" d="M362.28,554.3c-.1,3.37-1.9,5.46-4.78,5.92-6,.94-12.29-4-11.71-9.27a4.25,4.25,0,0,1,1.34-2.73c4.1-3.1,13.48-.14,14.95,4.63a6.86,6.86,0,0,1,.2,1.45"/><path class="cls-1" d="M203.13,557.11c5.41-6.66,12.76-6.7,20-7.92.82,3.17-1.12,5.27-2.53,7.28-1.95,2.8-4.35,5.53-8.14,5.92-2,.2-4.39.14-6-.78s-2.33-3-3.35-4.5"/><path class="cls-1" d="M432,384.79c2.78.7,5.18.74,6.8,1.86a9.43,9.43,0,0,1,3.17,4.94c.78,2.64-2.84,8.06-5.52,9-3.87,1.37-7.62-.65-10.52-5.84a10.9,10.9,0,0,0,6.07-10"/><path class="cls-1" d="M383.38,467.54c4.57-6.53,10.37-5.43,16.15-3.56,3.81,1.23,4.41,4.45,1.63,7.23a10.51,10.51,0,0,1-15.3-.26,37.34,37.34,0,0,1-2.48-3.41"/><path class="cls-1" d="M377.8,407.63l8.46-3.26c4,1.65,5.79,5.84,7.39,9.66,1.82,4.37-1.9,8.38-6.8,8.07a31.87,31.87,0,0,1-3.68-.73c.95-5.46-.51-10.13-5.37-13.74"/><path class="cls-1" d="M410.58,538.47l12.68-2.3c.68.62,2,1.83,3.24,2.9-.45,3.3-.86,6.34-1.34,9.92-5.22.55-10.14-.46-14.28-4.06-2.38-2.06-1.56-4.42-.3-6.46"/><path class="cls-1" d="M374.28,569.42c-1.33-5.35-4.47-8.73-10.13-10a18,18,0,0,0,1.06-2.66c.64-2.87,1.84-5.68,5.1-5.91,3.43-.25,6.46,1.6,8.67,4.13,1.55,1.78,1.29,4,.26,6.1-.65,1.34-1.55,2.88-1.39,4.22.29,2.47-1,3.29-3.57,4.16"/><path class="cls-1" d="M336.14,415c-1.17-3.44-2.21-6.47-3.25-9.5,1.45-1.52,3-3.21,4.66-4.86a3.56,3.56,0,0,1,1.52-1c4.15-1,9.47,4,8.61,8.06-1.22,5.72-5.08,8.14-11.54,7.33"/><path class="cls-1" d="M430.68,517.42c-1.91,9.51,4.15,13.78,15.17,16.09a11.22,11.22,0,0,1-2,2.31c-5,3.06-10.24,3-15.45.5-2-1-3.26-2.44-2.29-4.87a17.61,17.61,0,0,0,.25-12.1l4.33-1.93"/><path class="cls-1" d="M406.83,504.43c1.75,2.88,3.48,5.47,5,8.19,2.32,4.29-1.52,10.18-6.47,9.89a30.62,30.62,0,0,1-5.26-1.32c4.17-6.1,1.31-11-2.07-16.22l8.84-.54"/><path class="cls-1" d="M235.91,465.15c5.15.13,8.91-2.48,11.64-6.58,4.5,2.28,5.67,5.34,3.88,9.86-1.86,4.68-7.86,7.58-12.33,6.28-1-3.1-2-6-3.19-9.56"/><path class="cls-1" d="M241.66,624.24c0-2.09-.17-3.45,2.16-3.86a21.9,21.9,0,0,0,6.09-2.28c2.86-1.46,5.46-1.38,7.83.61a5.21,5.21,0,0,1,1.51,6.67,15.22,15.22,0,0,1-3.37,4.9c-1.93,1.79-4.38,1.62-5.7-.38-2-3.07-5-4.53-8.52-5.66"/><path class="cls-1" d="M266.63,539.83c0,4.08-4.17,8.39-8.35,8.66-2.06.13-4.13.1-6.16.4s-2.92-.72-3.32-2.41c-.68-2.83.43-4.89,3.23-6.33,1.53-.79,2.89-2,4.49-2.54a25.38,25.38,0,0,1,6.8-1.43c2.29-.12,3.31,1.49,3.31,3.65"/><path class="cls-1" d="M366.65,612.29c-1.38-3.32-3.48-5.92-7.58-6.56.11-2.79.14-5.35,2.72-6.78,3.58.77,6.93,1.62,10.33,2.17a5.46,5.46,0,0,1,4.78,3.9c.68,2.08-.62,3.28-2,4.75-2.18,2.35-4.68,2.9-8.27,2.52"/><path class="cls-1" d="M385.83,377.37,391,374c6,3.3,8.39,8.55,6.29,13.34-2,4.48-7.42,6.59-13.26,4.7,4.58-4.38,6.52-9.15,1.85-14.69"/><path class="cls-1" d="M450.19,425.31c4.14,0,7.61.22,11-.07,2.28-.2,3.69.5,4.61,2.35a5,5,0,0,1-1.19,5.91c-3.76,3.12-12.65,2.63-15.91-.87-1.83-2-1.28-4.42,1.46-7.32"/><path class="cls-1" d="M444.34,395.17l.65-2.95c3.48-.45,7.05-.19,9.86-1.48s4.84-4.16,7.45-6.55A6.09,6.09,0,0,1,465,391c-.89,3.66-2.94,6.49-6.91,7.53-5,1.31-9.42.1-13.73-3.32"/><path class="cls-1" d="M299.28,555.27c-.39-2.65-.83-5.06-1-7.48a4.17,4.17,0,0,1,.71-2.55c1.8-2.66,6.13-3.58,9.46-2.15a6.32,6.32,0,0,1,3.66,7.3,16.31,16.31,0,0,1-1.5,3.89c-.77,1.49-1.89,2.37-3.86,1.73a17.37,17.37,0,0,0-3.77-.47c-1.24-.12-2.48-.19-3.66-.27"/><path class="cls-1" d="M197.09,314.91c4.1.24,5.2,2.88,6,5.83,1.14,4.24.47,6.06-3.16,8.56-3,2.09-6,2.05-9.32-.1-2.94-1.9-3.36-4-1.14-6.55a9.79,9.79,0,0,1,2.92-2.3c3.55-1.82,3.58-1.77,4.7-5.44"/><path class="cls-1" d="M274,420.66c-3.74.14-9.35-3.72-10.06-6.55a3.69,3.69,0,0,1,.54-3,37.14,37.14,0,0,1,5.29-4.54c1.62-1.19,3.11-1.06,4.43.78,1,1.36,2.52,2.34,3.65,3.62,2.53,2.85,2.56,4-.08,6.73a28.14,28.14,0,0,1-3.77,3"/><path class="cls-1" d="M363.19,341.09l-5.94-6.47-2.15,1.46a30.36,30.36,0,0,1,1.86-5.57c1.16-2.09,3-3.83,5.75-3.48a6.11,6.11,0,0,1,5.39,4.07,38.21,38.21,0,0,1,1.27,6.81c.22,2-.95,3.21-2.84,3.77-1.36.41-2.76.69-4.14,1l.8-1.62"/><path class="cls-1" d="M243.66,369.8l4.53,2.91c.17,5.42-2.48,9.15-7,10-3.28.6-5.39-.32-7.25-3.17-1.41-2.16-1.4-6,.23-7.86a4.21,4.21,0,0,1,2.41-1.07c2.15-.35,4.33-.5,7.11-.8"/><path class="cls-1" d="M252.86,605.52a3.27,3.27,0,0,1,2.68-3.6,10.37,10.37,0,0,1,8.28.71c2.19,1.21,4.6,2.81,4.4,5.58-.22,2.95-2.42,5-5,6.32s-8.35-1.25-9.23-3.93a50.87,50.87,0,0,1-1.1-5.08"/><path class="cls-1" d="M429.37,350.09c3.09,2.3,4.14,5,3.08,8.13-1.34,4-3.95,5.88-8.82,6.35a41.1,41.1,0,0,0-3-3.48,32.68,32.68,0,0,0-3.3-2.41l2.15-6.25,9.89-2.34"/><path class="cls-1" d="M278.9,576.4c1.22-.77,2.72-1.61,4.11-2.6,2.95-2.1,6.18-1.95,8.4.47a6.49,6.49,0,0,1-.05,8.45,13.41,13.41,0,0,1-7.79,4.46l-3.34-2c-.45-3-.88-5.79-1.33-8.82"/><path class="cls-1" d="M393,500.85l-12.48,3.83-2.45-2.5a15.46,15.46,0,0,0,5.46-9.58c.62-4,5.69-5,8.6-2.15,3.27,3.21,3.38,5.22.87,10.4"/><path class="cls-1" d="M328,352.64c-1.59-1.1-2.6-1.83-3.65-2.52a7.7,7.7,0,0,1-2.39-10.81,3.83,3.83,0,0,1,1.26-1.3c3.93-2.06,10.59.65,11.6,4.92a5.47,5.47,0,0,1-1,4.16,56.88,56.88,0,0,1-5.86,5.55"/><path class="cls-1" d="M171.73,327.35l13.08-1.65a56.89,56.89,0,0,0,3,5.11c1.75,2.47,1.48,4.22-1.17,5.56-3.47,1.76-12,.23-14.24-2.8a5.67,5.67,0,0,1-.64-6.22"/><path class="cls-1" d="M413.57,483.42c-5.4,5.05-13,5.4-18,1.07-1.44-1.26-2.66-2.66-2-4.84a4.14,4.14,0,0,1,4.85-2.93c4.84,1,10.26.91,14,5a13.72,13.72,0,0,1,1.13,1.73"/><path class="cls-1" d="M236.52,305.89a20.07,20.07,0,0,1-.78,3.68c-1.19,2.83-2.54,5.6-3.85,8.37a4.87,4.87,0,0,1-5.54,2.58C224,320,223.43,319,223.51,316c0-1.06.32-2.28-.11-3.16-1.24-2.53-.52-4.37,1.46-6.16.47-.43.32-1.51.44-2.16l11.22,1.41"/><path class="cls-1" d="M372.9,547.71a74.09,74.09,0,0,1,4.21-7.17c2.35-3.17,5-3.86,7.73-2.47,3,1.54,5,5.78,3.57,8.66-.91,1.81-2.77,3.22-4.37,4.63-2.1,1.84-3.75,0-5.5-.88s-3.66-1.8-5.64-2.77"/><path class="cls-1" d="M335.6,550.35l7.88-4.35c0,5,.09,9.18,0,13.4-.09,3-1,3.83-4,3.93a19.43,19.43,0,0,1-4.76-.38c-4.12-.9-5.1-3.42-2.81-6.8,1.28-1.9,2.49-3.86,3.74-5.8"/><path class="cls-1" d="M275.19,465.78c-.5-5,.31-7,3.38-8.41,2.74-1.25,9.38-.41,11.39,1.45a4.52,4.52,0,0,1,0,6.92,8.81,8.81,0,0,1-11,1.57c-1.1-.58-2.32-.95-3.75-1.53"/><path class="cls-1" d="M193.31,381c-7.11,8.21-4.19,14.08,3.83,18.23a34.8,34.8,0,0,0-3.2,2.3c-2.94,2.65-6.34,3.07-9.48,1.06-2.81-1.79-3.12-4.12-.85-6.51,5.78-6.11,5.95-7.77,1.6-15a19.17,19.17,0,0,1-1-2.29c3.19,1.61,7.05-2.43,9.05,2.25"/><path class="cls-1" d="M330.54,510.72c-3.33-.16-6.27-1.09-8.24-3.91a6.1,6.1,0,0,1,9.48-7.68,22.2,22.2,0,0,1,3.34,4.49c2.15,3.83,0,7.14-4.58,7.1"/><path class="cls-1" d="M365.66,419.29c3.25-2.5,2.8-5.88,2.67-9.34a15.66,15.66,0,0,0,3.52-.43c2.72-1.06,4.61,0,6.27,2,1.94,2.27,3,4.79,2.06,7.74-1.28,4-5.47,5.55-9.2,3.39-1.62-.95-3.19-2-5.32-3.32"/><path class="cls-1" d="M310.54,511.11c-2.33,0-4.42-.26-5.17-3a11,11,0,0,0-1.68-2.77c-2.05-3.12-1.64-4.72,1.72-6.6,5-2.8,11.45.17,11.84,5.45.33,4.52-2,6.93-6.71,6.9"/><path class="cls-1" d="M309.59,528.72a15.82,15.82,0,0,0-14.65-2c-.73-5.19.72-8.65,4.21-10.22,2.6-1.17,8.52.45,10.85,3s2.23,5-.41,9.26"/><path class="cls-1" d="M205.28,316.44,215.64,309c2.39.66,3.93,2.48,3.78,5.79a21.93,21.93,0,0,0,.66,5c.58,3-.25,4.24-3.26,4.09a42.68,42.68,0,0,1-7.08-1.09,3.81,3.81,0,0,1-2.1-1.61,50.19,50.19,0,0,1-2.36-4.7"/><path class="cls-1" d="M331.78,582.16c-.12-3.14-3.32-4.88-3.11-8.13.15-2.2-.27-4.45,2.41-5.42s5.48-1.55,8,.64a7.35,7.35,0,0,1,2.09,8.41c-1.25,3.07-4.82,4.91-9.4,4.5"/><path class="cls-1" d="M144.82,395.33l6.51.73c1,5.24,2,10,3,15.05-2.52,2.55-7.72,2.9-10.55.39a3.24,3.24,0,0,1-.72-4.57c2.32-3.46,2.56-7.18,1.8-11.6"/><path class="cls-1" d="M154.46,416.48a18.47,18.47,0,0,1-1.82,1.45c-3.59,1.9-7.27,3.65-10.78,5.69-2.61,1.52-4.59.21-6.59-1a4.62,4.62,0,0,1-2.52-5c.65-4.57,1.48-5.77,5.26-7,2.67,1.84,4.82,4,7.45,5s5.46.59,9,.87"/><path class="cls-1" d="M366.14,533.09c1.71.46,3.95.41,5,1.48,1.79,1.8,2,4.47,1.4,7a5.37,5.37,0,0,1-7.31,3.78,21.26,21.26,0,0,1-5.24-3.09c-1.84-1.44-2.72-3.22-1.58-5.7a4.72,4.72,0,0,1,5.22-3.07c.79.07,1.59,0,2.38,0,0-.14.09-.27.13-.4"/><path class="cls-1" d="M323.9,635c.56-3.22,1.92-4.58,5.49-4.75a45.55,45.55,0,0,1,9.42.24c1.45.24,2.94,1.74,3.87,3,1.13,1.56.48,3.44-1,4.57a15.43,15.43,0,0,1-6,3.18,58,58,0,0,0-5.39-3.72A60.16,60.16,0,0,0,323.9,635"/><path class="cls-1" d="M274.47,481.24a44.51,44.51,0,0,1-6.47-1.38c-2.67-1-3.72-3.58-2-5.6a18,18,0,0,1,6.17-4.76c2.67-1.21,8.52,2.15,9.15,4.86.69,3-1,7.16-6.81,6.88"/><path class="cls-1" d="M308.42,485.16l-3.77-6.38a10.49,10.49,0,0,0,1.39-2.73,4.44,4.44,0,0,1,4-4c2.73-.4,5.47-.28,7.67,1.6,1.8,1.55,1.82,4.37.23,6.81-1.1,1.67-2.23,3.31-3.48,5.17l-6.06-.51"/><path class="cls-1" d="M177.62,380c1.61,2,3.08,3.86,4.49,5.71,1.14,1.5,2.33,3,1.34,5.06s-2.93,2-4.88,2.05c-3.48.13-6.68-.43-9.27-2.87-2.2-2.09-2.24-3.76-.25-6a11.15,11.15,0,0,1,8.57-3.91"/><path class="cls-1" d="M380.86,519.57l4.2,3.83c-.72,1.89-1.56,3-1.4,3.87,1,5.92-2.63,8.44-7.7,10.06-1.15-1.93-2.41-4-3.41-5.7.44-3.2.81-6,1.21-8.92l7.1-3.14"/><path class="cls-1" d="M207.55,420.44c-1.2,2.73-2.23,5-3.15,7.23-1.18,2.91-4.09,4.14-6.31,2A21,21,0,0,1,193,422.1c-1.23-3.37,1.44-5.56,5.25-5.52s7.15.84,9.32,3.86"/><path class="cls-1" d="M324.76,363.94c-4.37-.35-7.1,2.05-10.09,4.93-.86-1.15-2-2-2.14-3-.46-3-1.08-6.11-.67-9.06.52-3.66,3-4.71,6.71-3.6,4.4,1.34,6.23,4.34,6.19,10.71"/><path class="cls-1" d="M324.78,419.19c-1.68-.42-3.1-.65-4.42-1.13-2.84-1.05-4.53-4.3-3-6.68a9.89,9.89,0,0,1,7.17-4.81,6.54,6.54,0,0,1,6.72,3.48c2,3.35,1.63,5.3-1.84,7.34a29.35,29.35,0,0,1-4.67,1.8"/><path class="cls-1" d="M250.52,553.18c3.56.21,6.68.39,9.81.6a12,12,0,0,1,2.81.42,5.15,5.15,0,0,1,4,4.67c.17,2.18-1.2,3.77-3.86,4.65-3.12,1-5.95.14-8.58-1.46-1.06-.66-1.93-1.61-2.95-2.33-3.45-2.4-3.49-2.53-1.2-6.55"/><path class="cls-1" d="M345.41,610.43c-4.55-.26-6.48-2-6.29-5.73s2.78-6,6.86-6a12.68,12.68,0,0,1,4.18.54c4.47,1.6,5.23,5.16,1.93,8.45-2.41,2.4-3.67,2.92-6.68,2.74"/><path class="cls-1" d="M308.45,437.34a33.53,33.53,0,0,0,3.72-3.07c1.5-1.63,3.27-1.72,5.2-1.35,4.45.86,6.26,3.29,5.42,7.6a34.08,34.08,0,0,1-1.86,5.1,49,49,0,0,0-5-.54,30.61,30.61,0,0,0-4.07.49c-1.14-2.78-2.21-5.41-3.37-8.23"/><path class="cls-1" d="M272.19,357.8c1.16,1.52,2.12,2.84,3.14,4.11,1.79,2.24,2,4.31.58,6.38a5.87,5.87,0,0,1-6.37,2.08,10.6,10.6,0,0,1-6.67-6.22c-1.2-3,.51-5.29,2.7-7.27l6.62.92"/><path class="cls-1" d="M340.63,349.77c4.08.54,7.7.7,11.15,1.54,5.9,1.44,7.48,5.22,4.72,10.5a16.91,16.91,0,0,1-1.75,2.24l-8.53-1.49c-.38-2.27-.4-4.64-1.24-6.7-.77-1.89-2.41-3.46-4.35-6.09"/><path class="cls-1" d="M434.13,500.32c4.85,4.79,10.45,5.54,16.5,5,.28,4.62-2.84,6.47-5.9,7.95-3.5,1.7-6.87.62-9.74-1.78-3.62-3-2.55-6.62-.86-11.15"/><path class="cls-1" d="M217.63,518.55c4.26,2.94,10.09,2.77,13.09,7.79-.72,2.18-.39,5.15-4,5.79a10.85,10.85,0,0,1-9.65-2.78c-2-1.84-1.68-7,.56-10.8"/><path class="cls-1" d="M236.34,609.29c-5.3,0-7.25-1.59-7.76-5.45-.34-2.65.86-4.21,3.66-4.75,1.86-.36,3.7-.83,5.58-1.06a5.68,5.68,0,0,1,6.12,3.43c1.54,3,.66,5.41-2.64,6.61a36.79,36.79,0,0,1-5,1.22"/><path class="cls-1" d="M127.65,444.13c.88,3.12,1.69,6,2.75,9.76-.43,1.41-2,2.48-4.36,1.35a80.63,80.63,0,0,1-9.1-4.94c-2.42-1.56-3.14-3.78-2.36-5.48s3.92-3.06,6.22-2.56c2.46.54,4.87,1.32,6.85,1.87"/><path class="cls-1" d="M334.08,370.34l10.77-4.57c-.07-.27-.14-.53-.2-.79,2,.4,4.07.66,6,1.25,2.12.63,2.95,2.13,2.49,4.34-.94,4.52-4.2,6.31-8.62,5-2.87-.86-5.9-1.21-9.31-1.87l-1.16-3.35"/><path class="cls-1" d="M325.08,597.37c-1.6-5.29-4.83-8.35-10.81-8.23v-3.86c2.25-2.15,4.26-3.83,6-5.76a4.76,4.76,0,0,1,6.21-1.07c1.69,1,3,4.25,1.78,5.69-3.26,4-2.91,8.5-3.15,13.23"/><path class="cls-1" d="M217.41,339.28l6.94,2.78c2.64,1.07,3.75,2.75,3.32,4.93a5.21,5.21,0,0,1-5.26,4.46,12.53,12.53,0,0,1-9-3.55c-3.28-3.35-2.27-6.83,2.32-8.1.75-.21,1.49-.45,1.71-.52"/><path class="cls-1" d="M430.84,450c3.6.22,6.83.05,9.88.69,4.31.91,5.34,5.2,2.25,8.25a15.73,15.73,0,0,1-1.5,1.16,8.56,8.56,0,0,1-9,1.15c-3.29-1.41-1.52-4.68-2.43-7-.38-1,.41-2.35.82-4.26"/><path class="cls-1" d="M276.09,626.37a12.1,12.1,0,0,0-.3-1.26c-1.12-3.67-.82-4.85,1.74-6.77,3-2.22,5.91-2.54,8.34-.93a6.26,6.26,0,0,1,2.53,7.38c-.72,2.24-2.11,4.29-3.26,6.56-3.27-1.81-5.95-3.28-9.05-5"/><path class="cls-1" d="M179.6,503.33c-.24-1.4-.43-2.56-.6-3.5l7.8-3c2.77,1.13,6.24,2.26,9.41,3.92,3.35,1.76,3.36,3.75.5,6.09-3.51,2.89-4.82,2.86-8.46-.21-2.61-2.21-3.47-2.55-8.65-3.32"/><path class="cls-1" d="M329.86,357.17a62.86,62.86,0,0,0,6.05-3.68c1.78-1.37,3.17-1,4.67.24a7,7,0,0,1-1.68,11.65,15.31,15.31,0,0,1-2.27.69c-5.58,1.44-6.2,1-6.53-4.67-.08-1.39-.16-2.77-.24-4.23"/><path class="cls-1" d="M161,408h4.23l5.76,7.39.67-.39c.14,1.65.28,3.3.41,4.87-6,2.34-12.32.7-15.65-3.89,1.43-2.49,2.85-5,4.58-8"/><path class="cls-1" d="M269.2,601.11a38.1,38.1,0,0,1,6.15-.41,4.74,4.74,0,0,1,4.4,4.25,9.15,9.15,0,0,1-3.6,9c-1.81,1.47-3.6,3-5.82,4.79l-4.82-1.56c6.65-7.6,6.92-8.7,3.69-16"/><path class="cls-1" d="M406.57,361.4c-.56-.71-1.09-1.49-1.73-2.17s-1.4-1.25-2.53-2.25c3.66-3.06,4.48-7.16,3.92-11.77l4.93-.56c1.69,2.32,3.47,4.47,4.89,6.81s-.82,6.21-3.86,7.57c-1.58.71-3.2,1.35-5.62,2.37"/><path class="cls-1" d="M343.05,429.94a14,14,0,0,0-10.31-5.59c-1.36-.11-2.59-1.82-4.11-3l5.46-4.16c2.29.16,4.32.4,6.35.43,3.26,0,6.47,2,7,4.35.7,3-.94,6-4.43,7.94"/><path class="cls-1" d="M123,396.73c-.07-3.39,2.2-5,5.51-4s6.36,2.35,8.16,5.59c.89,1.6,1.64,3.12.61,4.73a6,6,0,0,1-5.51,3.08c-3.21-.19-8.7-6.18-8.77-9.38"/><path class="cls-1" d="M369.9,627.41c-3.37-1.61-5.71-2.85-8.16-3.87-1.57-.65-2.19-2.09-.9-2.66,4.15-1.83,7.49-6,12.84-4.63a12.64,12.64,0,0,1,3.54,1.2c2.3,1.43,2.34,4.84-.26,6.65-2.25,1.55-5,2.39-7.06,3.31"/><path class="cls-1" d="M279.43,438.5c-4.6-.42-8.1-1.87-10.24-5.66-1.52-2.69-.57-5.45,2.32-7.09a5.77,5.77,0,0,1,7.08,1.36,48.05,48.05,0,0,0,3.71,4.22c1.39,1.35,2.24,3,1.18,4.54-.85,1.21-2.66,1.78-4.05,2.63"/><path class="cls-1" d="M207.14,399.41c1,1.67,2.07,3.36,3.11,5.06-.46,3.4-1.81,6-5.56,7.14-3,.88-6.27.35-7.68-1.71-1.31-1.9-.62-6.34,1.33-8.11a10.31,10.31,0,0,1,8.8-2.38"/><path class="cls-1" d="M327.68,591.18c.22-.44.54-2.61,1.7-3.17,2.7-1.3,5.83-1.73,8.6.24a13.06,13.06,0,0,1,2.35,2.29c3.29,3.88,2,7.41-3,8.52-5.26,1.16-9.76-1.95-9.63-7.88"/><path class="cls-1" d="M166.59,579.2c2.8.64,5.48,1,8,1.89,3.25,1.09,5.14,4,4.47,6.22-1,3.22-4.14,4.89-7.93,4.19-6.75-1.26-8.83-6.35-4.54-12.3"/><path class="cls-1" d="M352.55,485c-.58-2.37-1.23-4.73-1.71-7.12a4.78,4.78,0,0,1,6.35-5.59,9.86,9.86,0,0,1,6.22,5.44,5.24,5.24,0,0,1-3,6.93,16.23,16.23,0,0,1-7.89.34"/><path class="cls-1" d="M284.36,472.16c4.05-1.84,7.24-4,11.32-3a12.49,12.49,0,0,1,3.12,1c2.88,1.55,3.81,3.21,3.34,5.52-.39,1.93-2.57,3.41-5.43,3.72-3.68.4-7-.33-9.65-3a24.61,24.61,0,0,1-2.7-4.24"/><path class="cls-1" d="M223.76,364.42c-2.08,1-3.93,1.84-5.76,2.73-3.44,1.69-3.63,1.67-7.43-1.35,3.08-3.48,5.15-7.49,4.05-12.24l11.73.81c-2.34,2.8-3.76,6.13-2.59,10.05"/><path class="cls-1" d="M323.3,381.63c-1.82-1.65-3.3-3-4.84-4.37-3.2-2.78-3.52-4.48-1.21-6.93,2.94-3.12,6.51-3.68,9.21-1.38,2.31,1.95,3.68,4.45,2.88,7.39a6.69,6.69,0,0,1-6,5.29"/><path class="cls-1" d="M210.86,458.05l7.66-5.8,4.1,1.18c3,.86,5.27,2.81,5.19,4.73-.13,2.94-2.39,4.14-4.83,5.1a9.15,9.15,0,0,1-12.12-5.21"/><path class="cls-1" d="M302.84,423.46a33.24,33.24,0,0,1,4.16,1.16c4.1,1.69,4.84,4.88,2,8.13a5.75,5.75,0,0,1-6.51,1.72c-2.55-.86-5.87-.52-6.84-4.15s-.11-5.42,3.43-6.36a31,31,0,0,1,3.79-.5"/><path class="cls-1" d="M358.92,447c.22-1,.5-2,.68-3,.63-3.77,1.61-4.86,5-5.48,3.77-.7,8.25,1,9.68,3.48.89,1.55.06,2.64-.86,3.72-3.6,4.23-8.84,4.73-14.48,1.28"/><path class="cls-1" d="M230.63,369.15c-.49,4.9-.88,9-1.3,13.18-3.12.63-7.24-1.62-8.83-5.2-1.76-4-.83-7.1,2.61-9.34,1.79-1.17,3.43-1.47,5.24-.09a25.81,25.81,0,0,0,2.28,1.45"/><path class="cls-1" d="M285.66,510.73l-3.27-.47a54,54,0,0,0-2-6.63c-.91-2-4.47-2-4.63-5.24,3.83-1.11,8.26-1.52,9.6-6.07,5.54,1.71,6.11,2.8,4,7.49-.69,1.52-1.63,2.93-2.39,4.42a11.92,11.92,0,0,0-1.23,2.94,19.38,19.38,0,0,0,0,3.56"/><path class="cls-1" d="M315.81,419.29c3,.83,5.59,1.54,8.15,2.22,3.21.86,5.22,3.87,4.39,6.6s-3.75,4-7.22,3.07c-.91-.26-1.82-.55-2.74-.76s-1.84-.35-2.68-.5c-.88-2.37-1.72-4.63-2.82-7.62l2.92-3"/><path class="cls-1" d="M238,306.36a11.11,11.11,0,0,1,.82-1.9c1.17-1.76,2.6-3.39,3.61-5.24a7.66,7.66,0,0,1,6.05-4,50.68,50.68,0,0,1,6.85-.06c1.33,4.51,1.35,4.54-1.73,6.5-2.38,1.52-4.67,3.31-7.27,4.33-2.35.92-5.06,1-7.61,1.41l-.72-1.08"/><path class="cls-1" d="M177.11,569c.5-4.61-1.89-7.95-5.36-10.68,3.87-4.07,11.67-3.78,14.44.58a5.8,5.8,0,0,1,.43,4.3c-1.06,3.56-4.15,5.32-9.51,5.8"/><path class="cls-1" d="M267,503.53c1.75,0,3.58-.31,5.23.08a14.46,14.46,0,0,1,5.47,2.38c1.82,1.42,1.5,3.25-.44,4.64a29.69,29.69,0,0,1-4.08,2.4c-4.22,2.08-10-.82-10.77-5.32-.43-2.59,1.63-4.58,4.59-4.18"/><path class="cls-1" d="M380.11,373.18c-1-3.51-1.81-6.2-2.8-9.57,1.75-2.83,5.19-3.52,9-3.27a3.47,3.47,0,0,1,2,1c2,2,2,6.55,0,9.07-2.61,3.4-5.13,4.11-8.29,2.77"/><path class="cls-1" d="M256.7,330.63c-4.06,2.39-8.14,2.06-12.08.72-3.3-1.12-3.07-5,.32-7.27,2.36-1.55,4.81-3,7.33-4.5,1.27,1.41,3.18,2.77,3.91,4.57s.39,4.21.52,6.48"/><path class="cls-1" d="M244.72,455.62c-4.71,6-7.73,6.95-13.14,4.75-.46-3-.92-5.93-1.38-8.87l7.59-3.33c4.17.85,2.41,6.48,6.93,7.45"/><path class="cls-1" d="M287.46,511.11c.54-5.44,2.53-7.55,7-7.42,4.14.13,7,3.44,7,8.16l-8,5.44-6-6.18"/><path class="cls-1" d="M340.14,337.19c-.16-1.37-.54-2.33-.33-3.15a8.05,8.05,0,0,0-1.32-7c-1.51-2.19-.89-3.59,1.59-4.62,2.78-1.16,8,.81,10,3.76,1.23,1.84.5,4.66-2,7a14.77,14.77,0,0,1-7.92,4"/><path class="cls-1" d="M406.22,465.24c4.81,2.75,9.46,3.85,14.76,2.41.15,2.64.29,4.89.41,7.09l-5.13,3.69-11.55-6.17,1.51-7"/><path class="cls-1" d="M219.43,391.4c1.06,4.65,4.84,5.86,8.44,7.39-.55,3.41-3.07,4.41-5.91,5-3.09.64-6,.45-8.48-1.79-3.41-3.1-2.64-7.51,1.67-9.35a43.59,43.59,0,0,1,4.28-1.25"/><path class="cls-1" d="M350,450.05c4.64-2.3,8.86-.67,12.67,2.63,2.44,2.12,2.45,4.68.11,6.82a7.55,7.55,0,0,1-7.47,2,4.36,4.36,0,0,1-2.51-2.31c-1.07-2.81-1.79-5.74-2.8-9.14"/><path class="cls-1" d="M293.45,616.8c-2.5-1.6-4.77-2.95-6.9-4.48a3.71,3.71,0,0,1-1.38-2.19c-.6-3.72,4.54-7.79,8.2-6.55a7.94,7.94,0,0,1,5.51,6.4c.53,2.69-1.48,4.22-3.27,5.73a8.74,8.74,0,0,1-2.16,1.09"/><path class="cls-1" d="M346.16,576.89c-1.51-3.63-2.83-6.83-4.25-10.24l5.86-6.38c1.13,1.2,2.21,2.54,3.49,3.67,2.37,2.09,4.23,4.38,3.3,7.68-.78,2.76-4.93,5.14-8.4,5.27"/><path class="cls-1" d="M348.41,397.66c1.72-1.29,3.15-2.48,4.7-3.5,2.16-1.43,4.5-2.35,7.22-1.75,2.18.49,3.95,1.38,4.2,3.81s-.19,4.18-2.59,5.46c-4.55,2.43-9.94,1.87-12.58-1.64a9.11,9.11,0,0,1-.95-2.38"/><path class="cls-1" d="M249.6,307.81c2.76-1.32,5.09-2.62,7.55-3.58,3.09-1.19,7.41,1.34,8.55,4.81.79,2.41-1,5.46-4.12,6.29a15.51,15.51,0,0,1-5.56,0c-2.23-.27-2.85-1.85-3.27-3.88-.23-1.13-1.7-2-3.15-3.62"/><path class="cls-1" d="M457.17,376c2.54,5.88,1.27,10.45-3.7,12.5-2.19.9-4.93.74-7.41.68-3-.07-3-3.25-5.13-4.46a10.66,10.66,0,0,1,7-3.39c1.77-.15,3.49-1.35,5.11-2.28a43.82,43.82,0,0,0,4.1-3.05"/><path class="cls-1" d="M282.36,569.1c-.14,2.87-3.59,5.24-7.38,5-3.52-.17-6.78-3.31-6.76-6.5,0-2.73,3.86-5.3,7.8-5.22a6.32,6.32,0,0,1,6.34,6.67"/><path class="cls-1" d="M164,348.66c.38,1.51.75,2.69,1,3.89.73,3.82-1.91,6.74-5.87,6.36a17.2,17.2,0,0,1-4.61-1.19c-2.94-1.18-3.43-2.32-2.59-5.35a3.26,3.26,0,0,1,.15-.44c.62-1.7.8-3.91,2-4.9.78-.64,3.11.59,4.77.9s3.14.45,5.15.73"/><path class="cls-1" d="M421.07,478.5a72.09,72.09,0,0,1,8.33,4c2.76,1.74,2.74,4,.35,6.17a8.61,8.61,0,0,1-7,2.38c-2.52-.31-4.74-1.55-5.39-4-.84-3.15-.4-6.17,3.71-8.54"/><path class="cls-1" d="M226.94,598.85c-.65,2.33-1.27,4.51-2,7.24-3.07-.39-6-.56-8.91-1.19a5,5,0,0,1-4.06-4.6c-.25-2.34,1.27-3.6,3.36-4.44,1.3-.52,2.5-1.27,3.8-1.94l7.84,4.93"/><path class="cls-1" d="M309.88,462c.1,3.62-1.81,5.8-4.87,5.31-3.45-.56-6.86-1.86-8.6-5.11a9.25,9.25,0,0,1-.55-4.82,3.15,3.15,0,0,1,1.77-2c2.74-1.21,10.3,1.72,11.6,4.42a11.54,11.54,0,0,1,.65,2.19"/><path class="cls-1" d="M304.51,627.51c.69-1.52,1.08-2.34,1.43-3.17,1.78-4.19,4.43-5.41,8.79-4,3.25,1,5.7,4.55,4.84,7-1,2.86-5.52,5-8.57,3.76a60.09,60.09,0,0,1-6.49-3.52"/><path class="cls-1" d="M432.21,343.27c4.9.62,8.1,3.37,10.69,6.67,2,2.57.69,5.38-.84,7.78s-3.75,2.53-6.56,1.85c-.23-4.32.13-8.9-4.9-11.49l1.61-4.81"/><path class="cls-1" d="M277.74,658.47c-6.16,1.07-8.76.09-11.29-4.11,1-1.9,2-3.76,3-5.64,1.69-3.26,7-3.69,9.07-.61,1.48,2.17,2.83,4.47.67,7.12a13,13,0,0,0-1.45,3.24"/><path class="cls-1" d="M377,599.64c1.4-2,2.55-3.61,3.75-5.23a5.64,5.64,0,0,1,6.65-2.2c2.74.79,2.94,2.83,2.9,5.12-.11,5.5-2.25,7.37-9.26,7.83l-4-5.52"/><path class="cls-1" d="M309.06,571.77c1.47-2.1,2.37-3.18,3-4.38,1.17-2.11,2-4.47.65-6.65s-.09-3.08,1.86-4.57a112.77,112.77,0,0,1,7.66,8.56c1.92,2.6-.84,7.43-4.35,7.68-2.63.18-5.32-.35-8.86-.64"/><path class="cls-1" d="M307.63,395.73c6.62-1.16,10.46-.13,12.12,3.15,2.27,4.46-1.86,6.24-4.11,9.07l-9-4.11c.32-2.58.65-5.27,1-8.11"/><path class="cls-1" d="M383.92,555.73l7.83-5c3.59,1.34,7.33,2.54,10.88,4.16a5.3,5.3,0,0,1,2.75,3.28c.15.79-1.42,2.17-2.51,2.83a13.16,13.16,0,0,1-4.05,1.22c-1.47.29-2.8.11-3.66-1.39-2.12-3.69-5.32-5.11-9.62-4.18a3,3,0,0,1-1.34-.27c-.09,0-.12-.26-.28-.65"/><path class="cls-1" d="M347,527.82c5.41,2.38,7.4,6.23,5.94,10.55-1.35,4-5.25,5.92-10.19,5.06-.69-2.12-1.4-4.25-2.24-6.84,3-1.81,6.16-4.13,6.49-8.77"/><path class="cls-1" d="M234.39,513.85c-.06,2.83-2.61,5.21-6,5.36a12.66,12.66,0,0,1-4.21-.67c-3.45-1.06-4.86-2.53-4.61-4.51.32-2.51,3.64-5.22,6.52-5.2a34.33,34.33,0,0,1,4.29.37c3,.39,4.11,1.66,4,4.65"/><path class="cls-1" d="M394.8,572c3.73,6.15,9.43,7.45,16.09,6.86-.31,2-.54,3.49-.76,4.86-3.16,1.57-6.09,3.59-9.52,1.68a24.56,24.56,0,0,1-4.57-3.72c-.66-.62-.93-1.61-1.53-2.31-2.83-3.26-2.86-3.24.29-7.37"/><path class="cls-1" d="M429.9,540.89h13.94c.37,3,1.19,6.51-2.79,8.84a8.16,8.16,0,0,1-9.39-.57c-2.85-2.34-3.36-4.56-1.76-8.27"/><path class="cls-1" d="M308.43,392.09c-2.56-3.09-1-6.45-1.35-9.54-.07-.63,1.55-1.84,2.59-2.15,3.19-1,6.5.55,8.57,3.57,1.76,2.57,1.42,4.36-1.45,8.12Z"/><path class="cls-1" d="M204.29,329.51l3.23-4.08,10.72,1.72c1.44,5.46.15,8.32-4.31,9.65-3.53,1.06-7.37-1.8-9.64-7.29"/><path class="cls-1" d="M265.59,635.83l-7.06-3.31c2.78-3.56,5.17-7.29,4.33-12.4a9.85,9.85,0,0,1,8.05,3.5c2.13,2.55,2,4.45-.34,7-1.58,1.69-3.18,3.36-5,5.26"/><path class="cls-1" d="M184.73,410.13c-3.68,4-10.11,4.48-13.59,1a4.78,4.78,0,0,1-.93-3.72,6.28,6.28,0,0,1,5.14-4.83c3.16-.14,6,.54,7.68,3.5a40.64,40.64,0,0,1,1.7,4.08"/><path class="cls-1" d="M341.45,347.31V343c2.74-1.19,5.49-2.34,8.2-3.57,3.56-1.6,7.26-.2,8.25,3.43.51,1.87.35,3.9.53,6.31-3.27-.69-6-1.48-8.72-1.77a77.93,77.93,0,0,0-8.26-.06"/><path class="cls-1" d="M420.43,422.16c-2.4-1.65-4.47-3.06-6.88-4.7.19-1.77.42-3.87.67-6.27h11.42c1.76,1.85,3.11,4.2,1.79,7.21-1.39,3.2-4.17,4-7,3.76"/><path class="cls-1" d="M184.12,454.48a42.55,42.55,0,0,0-6.11,1.64c-3.19,1.4-6.23.42-8.28-3a5.42,5.42,0,0,1,1.79-7,6.15,6.15,0,0,1,8.52,1.2c1.57,2.28,2.76,4.8,4.08,7.14"/><path class="cls-1" d="M161.17,404.22c-3.73,0-6.24-2-6.21-4.94,0-3.72,3.47-6.66,7.68-6.57,3.78.08,5.64,2.31,5.5,6.56-.09,2.61-3.4,5-7,5"/><path class="cls-1" d="M168.68,573.9c-2.73-3.64-5.21-6.95-7.71-10.31l5.79-4.32c6.17,3,8.06,5.7,7.23,10.5-.57,3.32-2,4.27-5.31,4.13"/><path class="cls-1" d="M393.6,371.51V362c4.78-2.84,7.09-3,9.24-.57s2,7.4-.3,9.87-5.35,2.51-8.94.22"/><path class="cls-1" d="M314.08,540.1c-.64-3.3-1.16-6-1.72-8.86l3-2.13c3.24-2.36,6.19-2,8.58,1.15,2.24,2.93,1.81,5.85-1.44,8-2.52,1.67-5.29,2.83-8.38,1.84"/><path class="cls-1" d="M387.41,535.46c.72-3.19,1.41-6.25,2.22-9.8.68-.29,1.78-.84,2.94-1.22,2.45-.8,4.83-.56,6.51,1.45s1,4.08.14,6.1a8.13,8.13,0,0,1-11.81,3.47"/><path class="cls-1" d="M354.49,506.22c.33-8.06,2.15-6.07-3.93-14.42,4.45-.9,7.81,1.19,10.81,3.64s3.33,5.76,1.69,8.35-4.31,3.41-8.57,2.43"/><path class="cls-1" d="M229.37,617.94a9.08,9.08,0,0,1,8.15,2.76,3.17,3.17,0,0,1,.54,4.19,9.31,9.31,0,0,1-11.41,4.18c-2.19-.89-2.88-3.69-1.34-5.87,1.25-1.77,2.65-3.44,4.06-5.26"/><path class="cls-1" d="M360.75,364.19c3.82-5.06,1-10.24,1.93-15.12a19.94,19.94,0,0,0,.13-2.49l2.23-.19c1.89,4.19,3.51,8.1,5.4,11.89,1.07,2.13,1.36,4.16,0,6.07s-3.39,1.44-5.26,1.15a39.55,39.55,0,0,1-4.41-1.31"/><path class="cls-1" d="M347.07,518.3c.17,3.81-2.36,5.53-5.33,4.53a36.14,36.14,0,0,0-5.86-1.55c-3.21-.51-4.35-2.19-3.18-5.12,1.84-4.63,8.62-5.6,12.23-1.62a16.38,16.38,0,0,1,2.14,3.76"/><path class="cls-1" d="M326,434.59l6.57-7.23c2.5.44,5.6.74,7.62,3.68a5.32,5.32,0,0,1,.69,5.66c-.9,1.91-2.81,1.85-4.56,1.68-3.83-.36-8.13.3-10.32-3.79"/><path class="cls-1" d="M303.36,569.3c-1.88-.3-3.47-.47-5-.83a3.82,3.82,0,0,1-3.21-3.55c-.21-1.76.47-2.81,2-3.82,3.88-2.6,8.37-2.68,11.38.06,2.79,2.55,2.3,5.93-1.22,7.41a17.58,17.58,0,0,1-3.91.73"/><path class="cls-1" d="M241.44,322c-1.84-1-4.51-1.55-5.31-3.05-1.09-2.06.42-4.27,2.23-6.08,2.52-2.5,5.17-3.23,8.55-1.89,3.23,1.29,4.08,3.65,2.15,6.6-1.3,2-4.65,3.76-7.62,4.42"/><path class="cls-1" d="M161.41,321.37l6.28,4.26a2.83,2.83,0,0,1,.09,1.1c-.57,2.26-.15,5.07-3.65,5.68-3,.52-8.39-1.22-9.94-3.44a4.44,4.44,0,0,1,2.51-6.68c1.5-.41,3.07-.61,4.71-.92"/><path class="cls-1" d="M153.57,454.69c-.14,2.49-.25,4.45-.37,6.49-5,2.47-11.2,1.79-15-1.86-.6-.58-1.29-1.75-1.05-2.28a3.35,3.35,0,0,1,2.28-1.82,24.65,24.65,0,0,0,8.71-1.83c1.37-.6,3.68.83,5.42,1.3"/><path class="cls-1" d="M264.93,436.84c3.17,3.06,6.38,4.86,10.35,5.27,1.92.19,2.47,1.79,2.53,3.41a4.73,4.73,0,0,1-4,4.54c-3,.19-5.65.09-7.79-3s-3.56-6-1.09-10.18"/><path class="cls-1" d="M294.13,644.23c.22-2.94.28-5.38.67-7.77.14-.92,1.14-2.51,1.58-2.46a28.66,28.66,0,0,1,8.09,1.71c1.79.79,1.8,5.09.56,7.33-1.35,2.44-3.78,3.5-6.93,2.74a28.41,28.41,0,0,1-4-1.55"/><path class="cls-1" d="M127.06,504.28c-5,1.77-7.53,1-10.28-2.84-3.58-4.94-2.93-6.95,2.85-9.37,2-.85,3.93-2.28,6.19.24-1.11,3.82-3.35,8,1.24,12"/><path class="cls-1" d="M153.4,569.81c3.91-.35,6.28,1.47,8.21,3.78,2.25,2.69.55,6.51-3.06,6.86a11,11,0,0,1-9-3.36c-1.56-1.56-.93-3.44-.37-5.21.75-2.39,3-1.84,4.23-2.07"/><path class="cls-1" d="M418.25,333.6c4.78-.64,7.1.44,8,3.67,1.21,4.53-.06,8-3.32,9-3.5,1.12-5.51,0-7.49-3.82l2.85-8.87"/><path class="cls-1" d="M232.91,302.6c-4.47,0-6.32-1.3-6.24-4.46.09-3.84,2.47-6.54,5.76-6.54,4,0,7.52,2.69,7.31,5.62a5.71,5.71,0,0,1-6.83,5.38"/><path class="cls-1" d="M278.72,395.07a7.86,7.86,0,0,1-8.65,7.88,4.16,4.16,0,0,1-3.94-3.45c-.54-2.47.5-6.36,2.2-6.65,2.57-.44,5-1.89,7.86-1.08,2,.55,2.6,1.55,2.53,3.3"/><path class="cls-1" d="M317.55,524.82a36.78,36.78,0,0,0-1.48-4.79,31.48,31.48,0,0,0-2.45-3.86c2.44-4.3,6.81-5,9.75-1.44a13.72,13.72,0,0,1,2.83,5.18c.9,3.53-1.52,5.77-5.3,5.31-1.09-.12-2.17-.26-3.35-.4"/><path class="cls-1" d="M131.49,429.56v8.33c-3.33,1.94-9.52,1.57-12.23-.88-1.52-1.37-1.24-3.15-.58-4.73s1.71-3.41,4.16-3a36.22,36.22,0,0,0,4.23.61,40.5,40.5,0,0,0,4.42-.31"/><path class="cls-1" d="M231.24,584c3.37,0,6,2.37,6.34,4.93.32,2.36-1,3.64-3.16,4.51-4.43,1.79-7.12,1.41-9.8-1.59-1.88-2.08-1.84-4,.55-5.39a40.43,40.43,0,0,1,6.07-2.46"/><path class="cls-1" d="M206.89,458.53c1.55,2.22,2.71,4.16,4.16,5.87,1.13,1.32,1.68,2.56,1,4.2a4.28,4.28,0,0,1-3.93,2.9,20.37,20.37,0,0,1-4.25-.43c-2.15-.38-3.93-1.39-4.69-3.47-.87-2.37.85-3.75,2.42-5.05,1.79-1.49,3.71-2.84,5.28-4"/><path class="cls-1" d="M202.22,496.63c4.53-3.19,8.65-1.85,12.5.62,3.13,2,2.76,4.91-.67,6.19a15.88,15.88,0,0,1-5.05,1c-5.67.14-7.49-2-6.78-7.83"/><path class="cls-1" d="M188.28,567.31c3-3.33,1.16-9.23,7.66-11.49a8.51,8.51,0,0,0,1.76,2.41c2.08,1.43,3.84,3.13,3.23,5.64-.7,2.91-3.06,4.59-6.08,5.25a6.58,6.58,0,0,1-6.57-1.81"/><path class="cls-1" d="M244.53,540.33c-3.64,3.64-7.81,5.77-13.12,4.75-4.17-.8-5.55-2.44-5.67-6.61,0-.92,0-1.84,0-2.77,2.21-1.4,4-1.4,5.81.68,3.39,3.81,8.11,3.86,13,4"/><path class="cls-1" d="M364.86,322.71l-7.6,2.69c-1.43-1.23-3-2.47-4.47-3.88s-1.53-2.95.16-4.34c.36-.3.73-.58,1.08-.9,1.91-1.8,3.52-4.06,6.85-2.44s4.62,3.83,4.36,7.87a4.32,4.32,0,0,1-.38,1"/><path class="cls-1" d="M371.45,580.7c1.09-2.22,2.33-4.34,3.18-6.6a5.9,5.9,0,0,1,4.73-4.1c1.53-.27,4,2.37,4.78,4.7s.54,4.3-1.5,5.89a9.81,9.81,0,0,1-11.19.11"/><path class="cls-1" d="M407.25,371.67c.13-2.23.21-3.6.3-5,.19-3.17,1.08-4.24,4.25-5.17,2.92-.85,5.66-.06,7.22,2.09,2.06,2.85-.79,8-5,8.56-2.08.28-4.28-.29-6.76-.51"/><path class="cls-1" d="M448.64,375.75c-1.72-4.48-3.26-8.47-5-12.94l4.1-3.29c3.21,1.15,6.32,3.15,7,7.23.84,4.74-3.06,6.59-6.16,9"/><path class="cls-1" d="M242.19,640.38a10.47,10.47,0,0,1-8.85-4.81c-1-1.45-.87-2.69,1-3.73,5.17-2.84,8.54-2.45,11.48,1.61,1,1.42,2,2.89,1,4.65a4.5,4.5,0,0,1-4.65,2.28"/><path class="cls-1" d="M250.91,344.59h8.75c.37,3.34.71,6.49,1,9.53-4.38,1.74-8.8,1.24-10.94-1.05-1.62-1.73-1.17-5.1,1.15-8.48"/><path class="cls-1" d="M167,446.25c-.4,2.47-1.7,3.64-4.41,3.88a19.39,19.39,0,0,0-5.74,2c-2.66,1.16-4.89.46-6.18-2.12-1.43-2.85-.92-4.93,1.83-6.16,2.4-1.06,4.72-2,7.48,0,1.93,1.36,4.65,1.67,7,2.44"/><path class="cls-1" d="M156,490.06v-9c4.2-2.09,6.73-1.55,9.25,2,.09.13.17.27.25.4,1.13,1.8,3.18,3.54,1.8,5.81-1.48,2.43-4.26,2.5-6.84,2.18a28,28,0,0,1-4.46-1.33"/><path class="cls-1" d="M215,371.89c.16,5.93,2.4,10.34,7.85,12.62,0,.55,0,.89-.1,1.11-.49.79-1.06,1.54-1.6,2.31-.17-.35-.35-.7-.53-1-2.75,0-5.51,0-8.27,0-.94,0-1.94.56-2.81.37-1.29-.27-3.07-.65-3.6-1.55-.86-1.45.63-2.47,2-3.16,4.27-2.23,6.05-6.06,7.1-10.68"/><path class="cls-1" d="M164.55,452.35l6.46,7c-.52,2.26-1.06,4.6-4.46,4.69-3.59.1-7.88-1.92-8.88-4.43-.88-2.2.1-4.05,1.89-5.22a27.67,27.67,0,0,1,5-2.07"/><path class="cls-1" d="M411.51,587.44c3.47.42,7,3,7.33,5.51a6.78,6.78,0,0,1-1,4.26c-.84,1.37-2.32.95-3.79.35a26.52,26.52,0,0,0-5.45-1.44,4.1,4.1,0,0,1-3.6-3.73c-.38-2.14,1.14-2.93,2.9-3.54,1.44-.51,2.85-1.11,3.58-1.41"/><path class="cls-1" d="M317.9,575.88c-.29,5.56-3.13,7.31-8.26,5.23-2-.83-4.21-1.32-6.43-2a.57.57,0,0,1-.2-.24c-.66-2-2.07-4.24,0-6,1.83-1.57,3.9-.17,5.84.42,3,.91,6,1.74,9.06,2.6"/><path class="cls-1" d="M187.08,536.56a72.7,72.7,0,0,1,13.95-.21c1.59.12,2.4,1.26,2.28,2.95a7,7,0,0,1-8.92,5.87,4.38,4.38,0,0,1-1.75-1.4c-1.72-2.14-3.36-4.34-5.56-7.21"/><path class="cls-1" d="M156.37,509.86l8-9.78a11.89,11.89,0,0,0,1.2-.25c3.37-.8,7.12,1.49,7.61,4.65a4.37,4.37,0,0,1-4.88,4.88c-2-.16-4.08-.89-6.09-.81a31,31,0,0,0-5.82,1.31"/><path class="cls-1" d="M421.37,424.77c.86.29,2.14.44,2.19.77.69,4.46,3.79,6.94,8.05,8.74-3.21,4.14-6.09,8-2.14,12.77l-3,3.41-3.07-1.77c.6-1.32,1.23-2.51,1.69-3.75a9.43,9.43,0,0,0-2.29-10.35c-2.9-2.9-3.13-5.81-1.47-9.82"/><path class="cls-1" d="M191.59,352c-.76,4.64-1.24,8.09-1.91,11.5-.38,2-1.9,2.81-3.91,2.56-2.54-.31-5.19-.71-6.48-3.24-.93-1.81.2-3.31,1.5-4.53,2.81-2.61,6.2-4.22,10.8-6.29"/><path class="cls-1" d="M140.1,340.36c1.86,2.29,3.1,4.27,4.8,5.75a3.39,3.39,0,0,1,1,4.09c-.54,1.75-1.64,3.05-3.65,3.11a8.56,8.56,0,0,1-7.72-3.75,4.09,4.09,0,0,1,.78-5.49,57.86,57.86,0,0,1,4.74-3.71"/><path class="cls-1" d="M261.78,330.7c-.76-4-1.32-6.9-1.89-9.85,2.72-2.1,5.24-1.27,7.72.49s4.23,4.16,4.38,7.27c.09,2-.93,3.28-3.17,3.05-2.47-.26-4.91-.67-7-1"/><path class="cls-1" d="M273.8,495.3a15.16,15.16,0,0,1-1.87-.14c-2.69-.47-4.55-2.06-4.64-3.91s1.91-4.7,3.87-5.35a12,12,0,0,1,2.79-.54c4.37-.38,6.1,1,6.26,4.76s-1.4,5.24-6.41,5.18"/><path class="cls-1" d="M153.45,373.77l10.4-2a32.2,32.2,0,0,1,2.27,4.31c1.24,3.36-.24,5.42-3.89,5.64a10.94,10.94,0,0,1-7.54-2.27c-2.32-1.77-2.44-2.58-1.24-5.66"/><path class="cls-1" d="M439.52,403.62c-.31-.19-.14-.14,0,0,1.26,1.72,3.27,3.36,2,5.71s-3.79,3.63-6.69,3.78a4.09,4.09,0,0,1-4.06-1.86A42.51,42.51,0,0,0,428,407.7l1.58-4.08Z"/><path class="cls-1" d="M221.18,490.22c-3-.23-5.13-1.44-6.36-3.82s.35-4.5,1.6-6.39c1-1.55,3.87-1.66,5.58-.43.88.63,1.58,1.5,2.42,2.2,1.73,1.43,3.67,3,2.57,5.4s-3.69,2.65-5.81,3"/><path class="cls-1" d="M361.1,626a26.36,26.36,0,0,1,3.56,1.7c3,1.94,3.51,5.3.72,7.42-1.85,1.41-4.56,1.94-7,2.42-2.22.43-4.52.15-5.62-1.89L361.1,626"/><path class="cls-1" d="M212.66,578c-2.57-.06-7.61-3.51-8.48-5.79-.8-2.09,1.34-5.47,3.46-5,3.14.76,6.66,1.26,8.65,4.25a6.77,6.77,0,0,1,1,3.43c.08,2.47-1.08,3.15-4.65,3.06"/><path class="cls-1" d="M291.08,629.39c1.05-3.23,2-6.13,3.08-9.4a9.09,9.09,0,0,1,7.87-.16,3.18,3.18,0,0,1,1.71,2.34c-.2,5.6-6.95,9.5-12.66,7.22"/><path class="cls-1" d="M297.72,601.35a24.82,24.82,0,0,1,2.1-2.3c1.88-1.64,4-2.55,6.54-1.48a5.2,5.2,0,0,1,3.39,5.11c.09,2.86-.83,5.1-3.6,6.49a2.86,2.86,0,0,1-4.11-1c-1.45-2.16-2.79-4.4-4.32-6.82"/><path class="cls-1" d="M178,356.71c-2,2.84-3.74,5.41-5.65,7.85a4.37,4.37,0,0,1-6.27.9c-1.77-1.24-1.78-3.43-.23-5.75,1.43-2.15,2.69-4.42,4.09-6.75l8.06,3.75"/><path class="cls-1" d="M127.72,508.18c1.12.57,2.21,1.16,3.33,1.67,4.7,2.15,5.23,3.08,4.35,7.77-.48,2.55-1.58,3.36-4.29,3-3.05-.41-5.34-1.85-6.41-4.79-1.2-3.32.29-5.62,3-7.65"/><path class="cls-1" d="M306,420c-5.83-.14-6.1-.34-5.93-5a17.73,17.73,0,0,1,.9-4.48,3.2,3.2,0,0,1,1.43-1.73c1.85-1,7.89,1.94,8.85,4.19s-.65,5.81-3.38,6.78A5.38,5.38,0,0,1,306,420"/><path class="cls-1" d="M230.89,419.29c-2.39,3.22-5.06,5.46-9.23,4.89-3.51-.48-4.35-2.25-2.58-5.12,2.91-4.73,3-5.22,1.81-10.85a7.92,7.92,0,0,1,1.34-.26,9.46,9.46,0,0,1,1.66.28c-.22,5.06,1.85,8.93,7,11.06"/><path class="cls-1" d="M201.85,331.91l7,7.86c-1.92,2.86-3.47,3.45-7.51,2.6-4.28-.9-7.09-3.23-7.69-7.82l8.24-2.64"/><path class="cls-1" d="M157.23,335.09l12,.61c.06.08.23.22.22.34-.22,2.59,1.05,5.74-2.4,7.21s-6.87.32-9.93-1.37c-.77-.43-1.19-2.06-1.16-3.12s.75-2.3,1.25-3.67"/><path class="cls-1" d="M145,427.73c.71,1.1,1.43,2.12,2,3.19,1.66,2.95,1.32,5.46-.92,7-1.69,1.19-6.56.52-7.95-1.27a14.9,14.9,0,0,1-2.23-4c-.89-2.42.43-4.2,3.06-4.45,1.87-.17,3.74-.32,6-.51"/><path class="cls-1" d="M191.58,517c.4-1.61.77-3.08,1.1-4.37,4.63-2.84,8.69-1.38,12.65.85a4.24,4.24,0,0,1,1.72,5.25c-.69,1.54-2.91,2.22-4.94,1.42-1.77-.7-3.43-1.7-5.24-2.26a37.84,37.84,0,0,0-5.29-.89"/><path class="cls-1" d="M338.84,464.05l-3.74-5.18a34.51,34.51,0,0,0,4.14-3.36,40,40,0,0,0,3.2-4.61c3.43.06,6.47,2.44,6.46,5.44a3.52,3.52,0,0,1-1.42,2.53c-2.69,1.8-5.55,3.36-8.64,5.18"/><path class="cls-1" d="M270.61,375.25c3.82,5.73,3.74,8.83-.14,12.53a4,4,0,0,1-6.73-1.78c-1.19-4.07,2.18-9.49,6.87-10.75"/><path class="cls-1" d="M160.36,545.42l2-4.53h7.92c.66,2.94,1.28,5.76,1.93,8.57.35,1.54.14,2.91-1.6,3.37-1.55.42-3.05.41-4.3-1.09-1.79-2.15-3.83-4.1-5.95-6.32"/><path class="cls-1" d="M188.74,514.41c-2.45,3.66-5.27,5-9,4.32-4.55-.83-5.85-2-6.57-5.86,6.21-4,11.54-3.51,15.61,1.54"/><path class="cls-1" d="M225.67,466.28a66.58,66.58,0,0,1,5.55,4.51c2.45,2.43,1.82,4.51-1.54,5.4-3,.8-6,1.17-8.67-.81s-2.78-5.06,0-6.91a32.66,32.66,0,0,1,4.67-2.19"/><path class="cls-1" d="M398.71,501.43c1.58-4.06.65-7.81-2.11-11.3l12.85,1.44c.61,7-3.66,11.15-10.74,9.86"/><path class="cls-1" d="M269.63,586.78a72.26,72.26,0,0,1-7.59-2c-1.3-.5-2.28-1.76-3.29-2.58,3-1.77,5.63-3.23,8.15-4.82,1.75-1.1,5.51-1.24,6.75.09,1.62,1.74.62,3.46-.41,5.08a24,24,0,0,1-1.88,2.69,14.75,14.75,0,0,1-1.73,1.59"/><path class="cls-1" d="M243.62,490.52l-8.69-4.72c-.49-1.9-1.1-4.23-1.71-6.6,3.68-2.47,6.51-1.55,11.44,3.76,2.19,2.35,1.94,4.24-1,7.56"/><path class="cls-1" d="M174.74,575.62c5.88-4.92,10.35-5.26,15.77-1.18-.14,2.24-1.53,3.9-3.27,5.27-2.26,1.79-4.56,1.68-6.9-.06-1.75-1.31-3.56-2.57-5.6-4"/><path class="cls-1" d="M238.84,513.05a20.58,20.58,0,0,1,0-3.24,5.2,5.2,0,0,1,5.5-4.15c2.94.29,4.78,2.16,4.15,5.11a11.63,11.63,0,0,1-3.12,6c-1.06,1-3.62,1-5.3.63-2.48-.55-1.26-2.73-1.26-4.31"/><path class="cls-1" d="M144.79,547.78c-4.93,2.63-9.6,2.18-12.54-1.15-1.49-1.69-2.09-3.56-.75-5.5s3.29-1.5,5.15-.86a28.26,28.26,0,0,1,4.82,2c2.1,1.22,3.8,2.84,3.32,5.56"/><path class="cls-1" d="M174,482.74c1.35.37,3.11.41,4.19,1.25a18.83,18.83,0,0,1,4.63,5.13c1,1.78-.53,4.62-2.71,5.24-3.17.91-6.25.77-8.53-1.4L174,482.74"/><path class="cls-1" d="M314.12,655.1c-4,0-5.91-1.78-5.38-5.18a3.38,3.38,0,0,1,.65-1.65c2.2-2.59,8.3-3.24,11.06-1.24,1.95,1.4,2.27,2.93.73,4.72a9.08,9.08,0,0,1-7.06,3.35"/><path class="cls-1" d="M204,528.07a10.91,10.91,0,0,1-12.52,4.2,3.63,3.63,0,0,1-2.07-4.94,4.82,4.82,0,0,1,4.86-3.09c3.65.17,7.18.92,9.73,3.83"/><path class="cls-1" d="M194.6,574.47c6.73-1.77,8.58,3.65,12.26,6.1-2.67,3.93-4,4.46-7.86,3.24a23.08,23.08,0,0,1-2.64-1.06c-3.1-1.39-3.55-2.21-2.79-5.35a30.54,30.54,0,0,1,1-2.93"/><path class="cls-1" d="M272.25,597.63c.95-2.72.11-6,3.54-7.91,1.31-.72,2.14-2.47,4-1.53,2.15,1.08,4.18,2.41,4.2,5.12a6.64,6.64,0,0,1-2.83,5.92l-8.92-1.6"/><path class="cls-1" d="M336.16,232.6c.4.35.63.49.61.55-3.27,8.8-.15,16.69,3.86,24.36,1.8,3.43,4.15,6.58,6.24,9.86a5.8,5.8,0,0,1,1.18,3.64,12.88,12.88,0,0,1-2.74-1.88,51.67,51.67,0,0,1-11.87-24c-.84-4.4-.41-8.79,2.72-12.57"/><path class="cls-1" d="M233.56,493.86a30.56,30.56,0,0,1,4.11,2.15c1.51,1,2.58,2.81,1.5,4.4a6.61,6.61,0,0,1-4.12,2.58c-1.78.23-3.72-.57-5.57-1a3.89,3.89,0,0,1-3.17-4.52c.2-2.42,1.91-3.37,4.31-3.35.64,0,1.27-.1,2.94-.25"/><path class="cls-1" d="M204.67,391.92c-.42.71-1.13,1.89-1.91,3.22-3.23-.24-5.94-1.08-7.83-3.8-1.77-2.56-1.85-4.08-.48-6.4s3.38-1.74,5.4-1.27l1.25.3c1.16,2.57,2.27,5.06,3.57,7.95"/><path class="cls-1" d="M126.75,474.86c-1.13,4.34-3.39,6.23-7.49,6.36-2.93.1-5.27-1.55-6.21-4.76a3.88,3.88,0,0,1,.55-3.24,4.16,4.16,0,0,1,3.3-1.06c3.23.66,6.36,1.71,9.85,2.7"/><path class="cls-1" d="M253.68,486a51.06,51.06,0,0,1-2.25-6.82,4.52,4.52,0,0,1,1-3.6c.59-.59,2.52-.61,3.4-.13,3.23,1.8,6.17,4,6,8.2-.1,2.4-1,3.29-3.5,3.28a18.49,18.49,0,0,1-3.32-.32,4,4,0,0,1-1.31-.61"/><path class="cls-1" d="M236.18,386.54c-.58,3.34-1,6-1.53,8.83-3.87,1.27-6.86-.75-9.69-2.53-2.06-1.3-1.15-5.3,1.56-5.93,3-.7,6.31-1.54,9.66-.37"/><path class="cls-1" d="M212.65,520.1c.1,9.25.1,9.25,3.94,13.56-2.74,2.52-7.32,2.81-9.58.41a3.87,3.87,0,0,1-.78-2.87c.33-2.38,1-4.71,1.59-7.5l4.83-3.6"/><path class="cls-1" d="M336.17,534.62a39.16,39.16,0,0,1-4.12-.76c-2.49-.73-3.35-2.34-2.83-5s1.55-3.41,4.35-3a21.85,21.85,0,0,1,6.76,1.79c3,1.53,2.92,3.86,0,5.6a19.64,19.64,0,0,1-4.13,1.38"/><path class="cls-1" d="M363.16,405.09l6-8.29a6.09,6.09,0,0,1,6.17,2.67c2.13,3,1.5,5.7-2.09,6.93s-7.18,1.35-10.06-1.31"/><path class="cls-1" d="M381.48,566c.82-1.41,1.67-2.87,2.51-4.33a4.19,4.19,0,0,1,6-1.71c2,1.08,4.07,4.63,3.52,6.71a4.73,4.73,0,0,1-2.26,2.68c-3.47,1.65-7.27.26-9.74-3.35"/><path class="cls-1" d="M262.61,343.51c.08-.16.43-1.71,1-1.8,1.62-.24,3.73-.42,4.94.38a12,12,0,0,1,4.11,4.93,5.28,5.28,0,0,1-.6,4.6c-.64.81-2.91.93-4.26.61-3.65-.87-5.13-3.33-5.21-8.72"/><path class="cls-1" d="M175.83,416.48c9-.22,11.55-2.15,13.46-9.76,2.88.26,1.4,2.41,1.74,3.72.37,1.47.79,2.92,1.24,4.56a20.6,20.6,0,0,0-2.2,2.8c-1,1.8-2.55,2-4.41,2-3-.09-6,0-9.41,0-.12-.89-.26-2-.42-3.28"/><path class="cls-1" d="M356,526.63c3.26-4.72,11-5.49,14.51-1.63,1.52,1.67.22,4.55-2.54,5.22-4.73,1.17-8.64-.32-12-3.59"/><path class="cls-1" d="M218.13,584.67c-.22,1.84-.5,3.21-.52,4.57A3.53,3.53,0,0,1,214.2,593c-2.21,0-4.47-.92-6.65-1.6-.31-.09-.47-1.11-.42-1.68a7.58,7.58,0,0,1,4-6.43c2.64-1.42,4.83-.41,7,1.37"/><path class="cls-1" d="M317.39,457.88H313l.81-.85-6-5.78c3-3.26,7.16-4.72,9.73-2.94,2.27,1.58,2.3,5.26-.15,9.57"/><path class="cls-1" d="M138.43,382c-.17,1.7-.27,2.75-.4,3.79-.53,4.3-2,5.24-6.31,4.05-.45-.13-.89-.31-1.34-.48-3.08-1.17-4.47-2.63-4.13-4.35s2.92-4.07,5.26-4.07a46.53,46.53,0,0,1,6.92,1.06"/><path class="cls-1" d="M219.45,447.39c-1-2.24-3-4.33-.21-6.93,3.74,1.69,7.72,3.1,12.15,2.62.71-.08,2.08.66,2.18,1.2a3.41,3.41,0,0,1-.79,2.81,7.54,7.54,0,0,1-7.44,1.8c-1.81-.55-3.67-.94-5.89-1.5"/><path class="cls-1" d="M146.57,495.72c4.36-.21,6.38,3.06,9.19,4.87,1.68,1.09,1.07,2.71-.26,4-2.62,2.51-6.74,2.3-10.93-.66.37-1.25.82-2.55,1.14-3.87s.55-2.72.86-4.31"/><path class="cls-1" d="M381.68,589.81l-2.15-3.66c2.46-1.58,4.84-3.28,7.4-4.65a5.47,5.47,0,0,1,3.93-.63c1,.4,1.73,2,2.13,3.14a6.52,6.52,0,0,1-.06,3.22c-.39,1.89-1.42,2.89-3.71,2.63a74.62,74.62,0,0,0-7.54-.05"/><path class="cls-1" d="M204.2,444.92l7.16.35c.48.5.76.69.88.94,2.14,4.6,1.16,6.76-3.89,7.89-2.06.47-4.37,1.13-6.46-1,.71-2.53,1.46-5.15,2.31-8.19"/><path class="cls-1" d="M313.51,606.7l10.67-6.07c2.85,1.23,3.89,2.57,3.4,4.7-.65,2.8-3.24,5.14-5.85,5-3.14-.16-6.38-.29-8.22-3.64"/><path class="cls-1" d="M188.57,483.57c5.37-1,8.67,1.2,9,6.44.15,2.6-1.3,4.31-3.72,4.38-3.29.09-5.18-1.28-5.24-3.89,0-2.28,0-4.56,0-6.93"/><path class="cls-1" d="M133.82,492.4a6.05,6.05,0,0,1,5.75,6.22,4.44,4.44,0,0,1-4.47,4c-3.3,0-6.34-2.8-6.25-5.74s2-4.49,5-4.44"/><path class="cls-1" d="M363.9,292.59a26,26,0,0,1-3.73-1.6,101.38,101.38,0,0,1-20.78-17.82c-2.67-3.09-4.85-6.54-4.55-11,4.76,11.19,14.59,17.82,23.69,25.1,1.48,1.18,3,2.33,4.45,3.53.23.18.29.53.92,1.78"/><path class="cls-1" d="M281.12,482.54c.92-1.19,2-2.62,3.18-4.1,2.28,1.14,4.48,2.32,6.75,3.35,2.72,1.22,3.48,3.62,1.57,5.86-1.75,2-3.89,3.22-6.09,2.09l-5.41-7.2"/><path class="cls-1" d="M146.24,531.64c-3.68-.37-6.17-1.83-7.67-4.63-1.26-2.34-.28-3.77,2.43-4,3.68-.25,6.77,1.34,9.77,3a2.24,2.24,0,0,1,0,4.08,31.89,31.89,0,0,1-4.49,1.5"/><path class="cls-1" d="M221,495c3.09,1.14,1,3.1,1.51,4.39s.87,3,1.41,4.86c-1.73,1.58-3.57,3.46-5.62,5.1s-1.07,5-3.54,6.42c-1.91-3-3.58-5.59-5.06-7.92,2.67-1,6.06-1.76,8.95-3.38,3.52-2,2.46-5.83,2.35-9.47"/><path class="cls-1" d="M134.35,525.14a38.2,38.2,0,0,1,1.29,4.72,32.9,32.9,0,0,1,0,4.55c-3.67,1.38-6.72,1.08-8.36-.93s-1.39-4.12-.49-6.18c1.44-3.27,4.45-2.24,7.52-2.16"/><path class="cls-1" d="M130.33,477.52c1.71,1.86,3.59,3.66,5.16,5.68a2.35,2.35,0,0,1-1.11,3.85,22.89,22.89,0,0,1-7.32,1.3c-1,0-2.43-1.51-2.83-2.61-.29-.79.61-2.2,1.31-3.09,1.23-1.56,2.71-2.93,4.79-5.13"/><path class="cls-1" d="M412.84,420.32c2.08,1.73,4.44,3.29,4.25,6.57-.17,2.75-1.18,4-4,4.09a14.44,14.44,0,0,1-5.53-.78,2.62,2.62,0,0,1-.72-4.53c1.94-1.76,3.92-3.48,6-5.35"/><path class="cls-1" d="M379.36,405c0-6.81-3.3-10.94-11.55-11.49-.44-1.08-.93-2.27-1.81-4.4,4.84,2.81,9,4.65,13.75,4.1a1.35,1.35,0,0,1,.88.27c2.47,1.94,3,4.73,3.05,7.51.06,2.36-1.71,3.43-4.32,4"/><path class="cls-1" d="M297.3,648.91h6c2.91,3.66,2.9,5.43,0,7.88-2.23,1.92-5.56,2.08-7.34.36s-1.16-5.1,1.32-8.24"/><path class="cls-1" d="M160.57,472.68a69.65,69.65,0,0,1-6.28,3.45,5.82,5.82,0,0,1-6.35-2c-1.16-1.95-.1-3.64,1.1-5.08a31.22,31.22,0,0,1,3.69-3.2l7.84,6.82"/><path class="cls-1" d="M134.71,555.43c3.92-1.25,7,.18,10,1.24a4,4,0,0,1,2.3,5,4.3,4.3,0,0,1-5.55,2.21c-3.43-1.62-6.47-3.8-6.8-8.43"/><path class="cls-1" d="M314,600.94a14.49,14.49,0,0,0-11-6.87c3.75-1,6.45-1.67,9.15-2.32a5.76,5.76,0,0,1,1.89-.15c2.27.23,4.73.54,5.55,2.94.9,2.59-1.36,3.84-3.14,5.13a20.56,20.56,0,0,1-2.49,1.27"/><path class="cls-1" d="M142.25,468.12c-.31,2.21-.66,4.61-1,7-6.61,1.44-10.29-5-7.58-11.88l8.58,4.89"/><path class="cls-1" d="M154.05,514.35c-2.46,3.67-3.33,3.78-11,1.34-.8-3.05-1.58-6.06-2.49-9.53,4.36,3.19,10.78,2.61,13.48,8.19"/><path class="cls-1" d="M386.76,475.65l4.56,1.79v8.2l-9.26,2.73c-.65-1-1.52-2.39-2.52-4,4.18-1.6,7-4.08,7.22-8.73"/><path class="cls-1" d="M349.34,524.26c3-4.51,1.38-8.29-1.07-12.14l3.35-2c3.25,2.62,6.59,4.95,5.28,9.57-1,3.5-2.9,4.66-7.56,4.6"/><path class="cls-1" d="M128.34,461.19c-.56,2.4-1.1,4.76-1.66,7.2-4.52.78-7.11-1.67-9.38-4.54-1.51-1.92-1-3.77.69-5.32l10.35,2.66"/><path class="cls-1" d="M395.06,610.73c-.52,2.43-1.6,4.18-4.23,4.42-3.07.29-6.09,0-8.52-2-1.7-1.45-.31-4.9,2.37-5.15,3.7-.35,7.65-.61,10.38,2.77"/><path class="cls-1" d="M347,470.8c-3.21,0-5.94-1.22-6.12-2.66s2.36-4.8,4.41-5.76c2.45-1.15,7.21,1.23,7.64,3.83s-2.34,4.63-5.93,4.59"/><path class="cls-1" d="M218.52,538.25a11.3,11.3,0,0,1,2.15,2c1.4,2.12.07,5.25-2.48,5.18a31.64,31.64,0,0,1-8.73-1.7c-1.77-.57-1.68-1.07-1.44-4.75l10.5-.71"/><path class="cls-1" d="M373.21,365.45c.58.36.93.46,1.1.69,1.14,1.51,3.42,2.72,1.63,5.1-1.34,1.77-4.7,2.47-6.95,1.45a1.47,1.47,0,0,1-.4-.24c-3.26-2.91-7-4.07-11.37-2.75-.33-3.78.3-4.36,3.14-3.29a27.6,27.6,0,0,0,3.06,1.24c3.67.87,7.26,1.17,9.79-2.2"/><path class="cls-1" d="M276.26,641.28a20,20,0,0,1-2.89-.59c-2.21-.75-2.69-2-1.53-3.89a17,17,0,0,1,2.07-2.52c2.66-3,4.15-3,7-.42,1.32,1.23,2.32,2.54,1.64,4.47s-2.14,2.57-4,2.83c-.62.08-1.26.07-2.28.12"/><path class="cls-1" d="M148.67,359.35a67.26,67.26,0,0,0,6.68,2.57,40.7,40.7,0,0,0,5.63.73c1.21,4.38-.19,6.25-4.46,6.12-3.79-.11-6.24-2.27-7.94-5.19-.55-.95,0-2.5.09-4.23"/><path class="cls-1" d="M182.42,475.8c.45-1.68.94-3.45,1.38-5.08,6.77-1.23,7.89-.56,10.32,5.9-4.1,3-8.09,2.78-11.7-.82"/><path class="cls-1" d="M251.07,396.05c-5.48,2.31-10.54.6-12.34-3.75-.78-1.88.37-4,3.2-5.8,3,4.6,3,4.6,8.46,6,.2,1.05.42,2.22.68,3.55"/><path class="cls-1" d="M263.61,451.63c-8.8,4.63-10.15,4.66-13.31,0a13,13,0,0,0,9.64-8.9l3.67,8.91"/><path class="cls-1" d="M323.89,490.47c-1.21,0-1.53,0-1.85,0-2-.13-4-.2-4.4-2.64-.31-2,1.43-4,4-4.48a16.63,16.63,0,0,1,4.28-.35,3.92,3.92,0,0,1,4,3.81c.19,2.53-1.55,3.15-3.59,3.43-1.1.16-2.22.21-2.45.23"/><path class="cls-1" d="M237.44,612.17l8.47-3.09c1.93.88,4.34,1.73,4.21,4.54-.07,1.63-4,4-6.36,4.21-3.68.28-5.88-1.65-6.32-5.66"/><path class="cls-1" d="M295.14,490.4c.46-2.68.88-5.19,1.36-8a23,23,0,0,0,2.83-.87c2.27-1,3.67.13,4.83,1.78a4.26,4.26,0,0,1-.48,5.53,7,7,0,0,1-8.54,1.55"/><path class="cls-1" d="M154.82,419.17c1.6,1.18,2.73,2,4.08,3-2.07,3.68-1.9,7.11,1.63,10.07-2.46,1.22-4.11.09-5.47-1.1a23.54,23.54,0,0,1-4.32-4.93,3.59,3.59,0,0,1,.09-3.28c.93-1.37,2.44-2.37,4-3.78"/><path class="cls-1" d="M201.79,475.68c2.24,0,4.14-.08,6,0,2.6.13,3.3,1,2.94,3.51a5.9,5.9,0,0,1-7.45,4.51,22,22,0,0,1-4-2.07c1-2.35,1.78-4.24,2.5-6"/><path class="cls-1" d="M156,530.46c2.53-.68,4.28-1.25,6.08-1.61,2.71-.53,6.63,2.28,7.1,5,.39,2.22-1.21,3.87-3.64,3.6-4.34-.49-6.81-3.41-9.54-7"/><path class="cls-1" d="M128.25,418.33c.52,2.18,1,4.11,1.46,6.14-2.17,2.62-4.92,2.26-7.75,1.25s-3.5-3.73-1.64-5.88,4.53-2.61,7.93-1.51"/><path class="cls-1" d="M291.78,599.42c-.64-.37-2.57-.83-3.08-1.92s.19-2.9.93-4.06a5.85,5.85,0,0,1,7.5-2c1.39.63,3.06,1.29,2.55,3.31-.55,2.2-4.47,4.75-7.9,4.66"/><path class="cls-1" d="M224.29,566.7c3.47,1.18,5.67,2.82,6.85,5.56,1,2.34-.14,4.31-2.73,4.77-4.31.76-7.31-2.23-6.16-6.3a24.24,24.24,0,0,1,2-4"/><path class="cls-1" d="M172.3,475.76c-5.09-.18-6.67-1.75-6-5.23.63-3.27,3.29-4.46,6.29-2.76a12.56,12.56,0,0,1,2.56,2c1.11,1.06,2.86,2.31,1.69,3.82-.89,1.14-2.84,1.51-4.34,2.18-.26.12-.63,0-.21,0"/><path class="cls-1" d="M350.78,612.32c1.66-1.3,3.08-2.47,4.57-3.56,1.86-1.37,3.72-.57,5.28.42,1.79,1.15,3.13,3.13,2.34,5.09-.61,1.51-2.51,2.52-3.7,3.62l-8.49-5.57"/><path class="cls-1" d="M397.29,587.17l4.23,1.66c.48,2.41,1,4.74,1.45,7.25l-7.41,2.72c-3.27-4.34.08-7.68,1.73-11.63"/><path class="cls-1" d="M236.27,432.13c-1.13,1-2.31,2-3.41,3-2.42,2.31-5.21,2-8,1-2-.73-2.25-2.09-1.05-3.66,3.5-4.55,8.3-4.69,12.45-.33"/><path class="cls-1" d="M169.46,526.1c5.88-.55,10.34-.2,13.54,4.09-1.33,3.37-4.34,3.29-7.16,3.24-4.84-.08-3.52-4.83-6.38-7.33"/><path class="cls-1" d="M309.73,634.36c3.41,1,7.07-.37,9.95,2.11-.45,4.87-.8,5.19-5.5,5.4-.79,0-1.58.14-2.36.21l-2.17.14a4.47,4.47,0,0,1-.36-1.12c.12-2.12.27-4.24.44-6.74"/><path class="cls-1" d="M182.84,458.14l9.24,5.06c-3.81,2.83-7.44,3.65-11.46,2.53-2.67-.74-3.19-2.38-1.4-4.54a24.22,24.22,0,0,1,3.62-3.05"/><path class="cls-1" d="M326,649.37l-4.86-6.54c.15-.31.39-.86.69-1.37.85-1.44,1.47-3.28,3.74-2.89a5.83,5.83,0,0,1,4.64,4.15c.68,1.9.64,3.65-1.27,4.91-1,.67-2.12,1.26-2.94,1.74"/><path class="cls-1" d="M264.24,598.05,258.8,597l3.61-9.63a5.92,5.92,0,0,1,5.92,4c1.08,3.13-2.14,4.67-4.09,6.73"/><path class="cls-1" d="M212.92,436.6c-.58,4.56-1.68,5.29-6.4,4.71s-5.85-1.78-5.17-6c4.28-3.51,7.55.58,11.57,1.31"/><path class="cls-1" d="M213.53,421.46c1.67,4,1.67,4,6.29,7.36-.78,1.26-1.57,2.53-2.41,3.86-3.62-.8-7.36-1.23-8.07-5.43-.51-3,1.42-4.76,4.19-5.79"/><path class="cls-1" d="M301.27,494.79c2.2-2.2,4.15-4.16,6.12-6.1a3.49,3.49,0,0,1,6,1.56c.32,1.39-.09,2.94-.17,4.41a42.31,42.31,0,0,0-6.48.93c-2,.63-3.72.68-5.43-.8"/><path class="cls-1" d="M387.5,308.11c4-.17,7.32,2,7.25,5.48,0,1.65-1.19,3.47-2.32,4.85-.83,1-2.44,1.43-3.85,2.19-.4-4.58-.74-8.55-1.08-12.52"/><path class="cls-1" d="M288.66,452.61c-4.89,2.55-11.1,0-14.93,5.47l-3.31-4.62c4.12.06,7.86-1.77,11.45-4.22,1.84-1.26,4.29.13,6.79,3.37"/><path class="cls-1" d="M152.13,552.09c4.44-1.8,8.28-1,10.48,1.95,1.41,1.91-.37,5.08-3.07,5.46a5.14,5.14,0,0,1-5.44-2.89c-.7-1.37-1.23-2.82-2-4.52"/><path class="cls-1" d="M305.45,591.14c-2.64-.07-4.9-2.08-4.69-4.17s2.54-3.88,4.68-3.88c3,0,6,2.25,5.82,4.33s-2.84,3.8-5.81,3.72"/><path class="cls-1" d="M321.21,613.94c-.28.86-.55,1.73-.8,2.51-.45.12-.8.33-1,.24-4.61-2.14-9.31-3.07-14.32-1.26a15.19,15.19,0,0,1-3.68.2c.47-1.4.79-2.35,1.25-3.7,3.68,1.1,7.05.86,9-2.08l9.55,4.09"/><path class="cls-1" d="M168.36,441.52c-2.25-.54-3.8-.88-5.33-1.27s-2.71-1.59-2.13-3.05c.49-1.27,1.77-3,2.87-3.14a12.23,12.23,0,0,1,5.89,1.2c1.38.61,2.74,2.12,1.7,3.79-.69,1.12-2.14,1.8-3,2.47"/><path class="cls-1" d="M157.93,517.76c2.47-1.44,4.63-3.25,7.69-3.12,2.84.12,4.89,1.62,4.75,3.5-.18,2.51-2.61,4.1-5.53,3.4-2.54-.62-5.36-.89-6.91-3.78"/><path class="cls-1" d="M159.26,540.44c-1.4,3.39-3.43,4-5.8,4a3.23,3.23,0,0,1-3.35-2.07c-.85-2-2-3.81-3.12-5.88,2.12-2.44,4.09.08,6,.77a53.28,53.28,0,0,1,6.26,3.16"/><path class="cls-1" d="M142,488.56q.42-3.45.83-6.82c2.65-.38,6.73,1.66,7.13,3.5a5.26,5.26,0,0,1-2.45,5.58c-2.74,1.31-4.11-.49-5.51-2.26"/><path class="cls-1" d="M188.11,423.81a18.59,18.59,0,0,1,1.35,3.41,3,3,0,0,1-2.59,3.72,8.53,8.53,0,0,1-2.85.12c-1.8-.23-4.08,0-4.12-2.74,0-3.09,1.92-5.2,4.77-5.08a26.75,26.75,0,0,1,3.44.57"/><path class="cls-1" d="M146.92,444.09a39.82,39.82,0,0,1-2.84,4.18c-1.89,2.15-4.32.94-6.23.22a9.14,9.14,0,0,1-4-3.57c-.3-.48,1.2-2.05,1.49-2.5l11.56,1.67"/><path class="cls-1" d="M249,359.81l10.07,1.84c.23,3.18-2.44,4.59-4.65,5.5-1.23.5-3.66-.64-5-1.7-1.88-1.51-2.12-3.66-.43-5.64"/><path class="cls-1" d="M207.3,416.43l8.41-7.49c2.92,2.33,3.75,4.81,2.16,7.06-1.81,2.57-5.87,2.79-10.57.43"/><path class="cls-1" d="M324.55,333.42C326,329,328.28,326.74,331,327s4.11,2.3,4.56,7.19l-11-.76"/><path class="cls-1" d="M258.23,569.27a10.77,10.77,0,0,1,1.62.16c3.13.79,4.52,2.1,4.38,4.07C264.05,576,262,577.79,259,578a37.56,37.56,0,0,1-4.49-.17l3.74-8.57"/><path class="cls-1" d="M190.81,371.28c-.12.64.07,2.08-.57,2.64-3,2.61-11.14,1.14-13.17-2.27a6.46,6.46,0,0,1-.39-2.17l14.13,1.8"/><path class="cls-1" d="M314.05,460.63c5.5,1,6.75,3.55,4.55,9.56l-7.71-1.29c1-2.63,2-5.29,3.16-8.27"/><path class="cls-1" d="M327.08,538.72l1.73-3.2c2.42,1,4.77,1.87,6.93,3,3.7,2,3.87,4.71.43,8.34-1.8-4-4.95-6.54-9.09-8.17"/><path class="cls-1" d="M168,430.63a65.34,65.34,0,0,1-6.15-3.08,2.5,2.5,0,0,1-.49-2.42,2.86,2.86,0,0,1,2.18-1.3,28.12,28.12,0,0,1,5.64.66c1.81.39,3.32,1.37,3,3.47s-1.91,2.64-4.17,2.67"/><path class="cls-1" d="M320.89,575.19c4.18-4.55,6.54-8.75,2.19-14.16l4.11-.81c1.43,1.9,2.78,3.68,4.33,5.72-4.72,1.28-6.79,4.34-5.93,9.25Z"/><path class="cls-1" d="M282,644.42l4.45-8.44c1.95-.2,4.24-.5,5.42,2,.74,1.58-1,4.26-3.7,5.3-1.69.65-3.62.7-6.17,1.15"/><path class="cls-1" d="M187.64,339.32l2.86-1.58c2.07,3.33,4.62,6.27,3.34,10.27-.3.92-2,1.42-3.26,2.28-1-3.9-1.9-7.1-2.94-11"/><path class="cls-1" d="M265,392.26c-.71.93-1.12,1.61-1.66,2.17-2.72,2.83-3.95,2.75-6.47-.29-1-1.24-2.15-2.46-.63-4a4.07,4.07,0,0,1,5.37-.26l3.39,2.42"/><path class="cls-1" d="M204.61,550.59a4.06,4.06,0,0,1-5.14,2.87,19.21,19.21,0,0,1-6.35-2.57,1.56,1.56,0,0,1,1-2.72,14.74,14.74,0,0,1,5.13.27,37.19,37.19,0,0,1,5.31,2.15"/><path class="cls-1" d="M186.61,545.89c-3.06,3.31-5.05,4.12-7.35,2.62a4.49,4.49,0,0,1-1.9-3.22c0-.79,1.45-2.06,2.44-2.28,2.71-.59,5.41-.47,6.81,2.88"/><path class="cls-1" d="M250.65,335.31c4-.08,6,.64,9.28,3.14-1.26,2.56-2.65,3.3-5.29,3-3.67-.48-3.55-3.29-4-6.1"/><path class="cls-1" d="M293.39,493.17c2.16.5,4.71-.34,5.24,2.3.41,2.12,5.18,2.76,1.8,6.18l-5.61-1c-.45-2.3-.87-4.51-1.43-7.43"/><path class="cls-1" d="M329.91,607.79c.22-2.3.41-4.25.65-6.67l5.95.64v6.93l-6.6-.9"/><path class="cls-1" d="M152.85,331.63c.47.78,1.3,1.54,1.16,2.08a36.07,36.07,0,0,1-2.42,7.74c-.67,1.37-2.24.59-3.14-.41a5.17,5.17,0,0,1,.72-7c.86-.66,1.8-1.21,3.68-2.46"/><path class="cls-1" d="M394.74,320.7l5.94-2.84c4,3,4,4.79-.3,8.58l-5.64-5.74"/><path class="cls-1" d="M347.1,634c2.37.77,3.13,3,3.9,5.26-3.54,3-4.94,3.61-8.8,3.71,1.51-2.78,3.05-5.59,4.9-9"/><path class="cls-1" d="M230.51,424.36c2.57-1.19,3.27-4.61,7.07-4.38.41,3.16-.83,6.75,3.3,8.9l-1.24.72c-2.92-1.67-5.84-3.34-9.13-5.24"/><path class="cls-1" d="M295.19,570.14l3.65,1.38a59.46,59.46,0,0,1,1,7.6c0,1.24-.9,2.49-2.28,3.54-.44-2.16-.94-4.3-1.32-6.47-.33-1.92-3.11-3.38-1.05-6.05"/><path class="cls-1" d="M291.24,655.8c-2.29,4.43-4,5.12-8.68,3.59,1.58-6.32,3.09-7,8.68-3.59"/><path class="cls-1" d="M395.56,338.68l-7.73,4.75-5.37-4.32c2.91-.18,5-.38,7.09-.43,1.91,0,3.72-2.9,6,0"/><path class="cls-1" d="M360.86,596.88l-4.55,3.79-3.21-3.76L358,593l2.84,3.84"/><path class="cls-1" d="M176.17,377l-5.3,1.11c-.34-2.63-.64-4.84-1-7.35l2.53-.23c1.21,2.11,2.34,4.07,3.73,6.47"/><path class="cls-1" d="M291.45,570.36l-5.56-.78c-.53-3.36-.53-3.36,4.7-4.48,1.67,2.23,1.67,2.23.86,5.26"/><path class="cls-1" d="M253.93,532.5v-4l6.7-.68,1,3.38-7.74,1.32"/><path class="cls-1" d="M181.86,436.15c-1,2.38-1.69,4.21-2.51,6.26l-2.66-.49c.35-2.33.67-4.44,1-6.74l4.15,1"/><path class="cls-1" d="M292.72,649.94c-2.93-1-6.27-.29-10-2.39,3.29-.8,5.62-1.49,8-1.89,2.16-.36,2.73.82,2,4.28"/><path class="cls-1" d="M285.44,598.35l3.25,2.95L284,605.66l-1.7-4.35,3.19-3"/><path class="cls-1" d="M173.69,395.51l5.34.25c-.27,1.63-.49,2.93-.7,4.21-4.5-.23-4.5-.23-4.64-4.46"/><path class="cls-1" d="M273.34,335c-3.07,2-5,3.95-8.47,3-.21-1-.44-2.08-.74-3.48l9.21.44"/><path class="cls-1" d="M290.12,542.13,285.07,535l3.38-1.45,2.29,8.23-.62.31"/><path class="cls-1" d="M380.69,337.81l-5.57-.35c-.49-2.85-.95-5.55-1.41-8.22,1.44-.82,2.42-.6,2.36,1-.13,3.14,1.59,5.23,4.62,7.61"/><path class="cls-1" d="M247.43,420.57l-2.28,4.59c-1.82-.53-3.93-.22-3.59-2.79.23-1.75,2.25-2.39,5.87-1.8"/><path class="cls-1" d="M442,399l7.45,4.52L446,406.18c-1.09-2.54-3.81-3.9-4-7.23"/><path class="cls-1" d="M124.48,408.78,131,411.6c-.45,1.58-.86,2.89-2.81,2.41-2.15-.52-3.46-2.32-3.68-5.23"/><path class="cls-1" d="M240.81,580.17c-3.37,4-5-.77-7.59-.61,1.21-2.21,1.21-2.21,7.59.61"/><path class="cls-1" d="M222.81,562.55l-4.75,4.25-2.37-2c2.69-.65,3.19-4.75,7.12-2.26"/><path class="cls-1" d="M370.44,308.8l-1.67,3.55c-1.63-.89-3.1-1.67-5.58-3l6.68-1.53.57,1"/><path class="cls-1" d="M373.83,357.36l5.29,1.2-4.92,4.16c-.11-1.62-.22-3.2-.37-5.36"/><path class="cls-1" d="M204.23,490.85V487c1.72.18,3.39-1.42,5.71.61l-5.71,3.28"/><path class="cls-1" d="M202.31,458.14l-4.63,3.05c-.48-.8-1-1.64-1.61-2.64,2.07-.66,3.59-3.14,6.24-.41"/><path class="cls-1" d="M281.43,446.33c.32-2.48-.61-4.85,3-5l.64,4.54-3.64.48"/><path class="cls-1" d="M387.13,572.89c3.34.86,3.34.86,1.92,5.07-2.26-1.06-1.33-3-1.92-5.07"/><path class="cls-1" d="M191.39,554.29l-2.2,2-3.77-2.2c2.33-1.12,4.08-3.19,6,.18"/><path class="cls-1" d="M272.33,499.41l-4.84.4c.09-1.1.15-1.92.25-3.2l4.95,1.58-.36,1.22"/><path class="cls-1" d="M210.4,597.4c-4.68.73-5.71.27-6.29-2.73l6.29,2.73"/><path class="cls-1" d="M316.25,496.4c.93-1.34-.14-4.28,4-3.69L317.17,497l-.92-.63"/><path class="cls-1" d="M355.23,529.36l4.06,2.71L357.13,534l-1.9-4.62"/><path class="cls-1" d="M204.9,544.69l5.29,3.38c-3.18.36-4.19-1.73-5.92-2.54l.63-.84"/><path class="cls-1" d="M230.32,612.58c1.81-1,3.44-1.28,4.37,1l-4.37-1"/><path class="cls-1" d="M322.89,630.34l1.33-4.94,2.5,2.18-3.83,2.76"/><path class="cls-1" d="M260.44,472.91c.9.32,1.8.62,2.66,1a6.45,6.45,0,0,1-.36,1.17l-2.59-1c.09-.41.19-.81.29-1.22"/><path class="cls-1" d="M329.41,516.31c-.93-1.15-1.5-1.85-2.23-2.77.68-.17,1.13-.44,1.45-.34,1.4.45,1.39.49.78,3.11"/><path class="cls-1" d="M250.17,606.13c-2.53-1.63-2.37-2.74-1.56-3.83.16-.21,1.23-.08,1.24,0,.15,1.05.2,2.11.32,3.86"/><path class="cls-1" d="M294.53,454.17l-2,3.2c-1.15-2.38-.28-2.85,2-3.2"/></svg>