<svg id="Capa_1" data-name="Capa 1" xmlns="http://www.w3.org/2000/svg" viewBox="0 0 232.59 306.03"><defs><style>.cls-1{fill:#e85d75;}</style></defs><title>footer</title><path class="cls-1" d="M192.11,205.51q-1.1,8.13-4.61,12.82T179.3,223q-4.7,0-6.18-3.43t-1.48-10.79V156.12H192v-2.81H171.64V126l-29.07,7.19v20.16H110.06V126L81,133.15v20.16H48.48V126l-29.07,7.19v20.16H10.82v2.81h8.59v49.23q0,13.6,6.88,18.76t19.85,5.16q13,0,18.6-6.33t6.87-17.12L69,205.51q-1.09,8.13-4.61,12.82T56.14,223C53,223,51,221.87,50,219.58s-1.49-5.89-1.49-10.79V156.12H81v49.23q0,13.6,6.88,18.76t19.84,5.16q13,0,18.6-6.33t6.88-17.12l-2.66-.31q-1.09,8.13-4.61,12.82t-8.2,4.68q-4.69,0-6.18-3.43t-1.48-10.79V156.12h32.51v49.23q0,13.6,6.87,18.76t19.85,5.16q13,0,18.6-6.33t6.88-17.12Z"/><path class="cls-1" d="M20.12,248a3.13,3.13,0,0,1,2.23.95l.44-.77h2.79l-.82,4.67a18.82,18.82,0,0,0-.3,2.8,2.77,2.77,0,0,0,.29,1.44,1.29,1.29,0,0,0,1.17.47,2.74,2.74,0,0,0,2.16-1.5,7,7,0,0,0,1-4,7.86,7.86,0,0,0-2.18-5.88A8.28,8.28,0,0,0,20.85,244a9.17,9.17,0,0,0-6.6,2.61,9.3,9.3,0,0,0-2.71,7,9.15,9.15,0,0,0,.8,4,6.83,6.83,0,0,0,2.17,2.68,10.65,10.65,0,0,0,6.28,1.89,9.11,9.11,0,0,0,6.1-2.13l.41.47a8.06,8.06,0,0,1-2.88,1.66,11,11,0,0,1-3.66.62,12.54,12.54,0,0,1-3.67-.54,10.11,10.11,0,0,1-3.21-1.62,7.23,7.23,0,0,1-2.24-2.84,9.48,9.48,0,0,1-.82-4,10.17,10.17,0,0,1,2.83-7.4A9.81,9.81,0,0,1,21,243.42a9,9,0,0,1,6.34,2.22,8,8,0,0,1,2.42,6.19,7.43,7.43,0,0,1-1.34,4.82,4.79,4.79,0,0,1-3.9,1.62c-1.7,0-2.79-.62-3.27-1.85a2.46,2.46,0,0,1-2.49,1.79A3.49,3.49,0,0,1,16,257.09a4.11,4.11,0,0,1-1-2.77,6.53,6.53,0,0,1,1.58-4.73A4.84,4.84,0,0,1,20.12,248m1.23,6.79.88-5.48a2.19,2.19,0,0,0-1.59-.77,1.64,1.64,0,0,0-1.4.79,5.46,5.46,0,0,0-.81,2A20.73,20.73,0,0,0,18,255.6c0,1.38.44,2.08,1.31,2.08a1.6,1.6,0,0,0,1.3-.82,5,5,0,0,0,.77-2.11"/><path class="cls-1" d="M32.4,258.34v-4.59h.31a6.14,6.14,0,0,0,1.8,3.13,4.37,4.37,0,0,0,2.82.9c1.74,0,2.61-.56,2.61-1.67A1.17,1.17,0,0,0,39.3,255a9,9,0,0,0-2.56-.87,9.65,9.65,0,0,1-2.93-1.23A3.23,3.23,0,0,1,32.4,250a4.23,4.23,0,0,1,1.23-3.19,4.51,4.51,0,0,1,3.29-1.19,6.3,6.3,0,0,1,2.59.59,2.22,2.22,0,0,0,.74.2.62.62,0,0,0,.44-.18,3.24,3.24,0,0,0,.43-.67h.28v3.93h-.31c-.87-2.22-2.22-3.34-4.05-3.34a3.08,3.08,0,0,0-1.79.43,1.27,1.27,0,0,0-.59,1.06.9.9,0,0,0,.18.6,2.7,2.7,0,0,0,.28.32,1.43,1.43,0,0,0,.33.22l.39.18a4.36,4.36,0,0,0,.47.17,4.7,4.7,0,0,0,.48.13,20.21,20.21,0,0,1,2.51.75,8.94,8.94,0,0,1,1.46.79A3.53,3.53,0,0,1,42.17,254a4.14,4.14,0,0,1-1.28,3.28,5.2,5.2,0,0,1-3.51,1.11,6.88,6.88,0,0,1-3.08-.74,1,1,0,0,0-.49-.21c-.37,0-.74.32-1.1.95Z"/><path class="cls-1" d="M44.78,256.7a6.36,6.36,0,0,1-1.63-4.7,6.16,6.16,0,0,1,1.75-4.72,6.94,6.94,0,0,1,4.94-1.65,6.54,6.54,0,0,1,4.74,1.52,6.26,6.26,0,0,1,1.56,4.66q0,6.53-6.51,6.53a6.56,6.56,0,0,1-4.85-1.64M51.22,253v-2.19a17.34,17.34,0,0,0-.27-3.62c-.18-.76-.59-1.14-1.24-1.14a1.25,1.25,0,0,0-.91.32,2,2,0,0,0-.5,1.06,19,19,0,0,0-.23,3.51v2a18.55,18.55,0,0,0,.16,3.36,5.11,5.11,0,0,0,.35.92,1.09,1.09,0,0,0,1.1.62c.67,0,1.1-.38,1.31-1.15a18,18,0,0,0,.23-3.69"/><path class="cls-1" d="M56.86,245.88H63v2.36a3.55,3.55,0,0,1,3.73-2.61,3.23,3.23,0,0,1,3.5,2.77A3.64,3.64,0,0,1,74,245.63c2.51,0,3.77,1.42,3.77,4.28v7.71h1.43v.47h-7.1v-.47H73v-8.33a4.3,4.3,0,0,0-.33-2.28.58.58,0,0,0-.41-.15c-.5,0-.94.33-1.31,1a5.05,5.05,0,0,0-.57,2.54v7.22h.93v.47H64.76v-.47h.9v-8.33a4.25,4.25,0,0,0-.34-2.28.56.56,0,0,0-.41-.15c-.48,0-.91.36-1.29,1.09a5.4,5.4,0,0,0-.58,2.6v7.07H64v.47h-7.1v-.47h1.41V246.34H56.86Z"/><path class="cls-1" d="M81.47,256.7a6.37,6.37,0,0,1-1.64-4.7,6.16,6.16,0,0,1,1.76-4.72,6.93,6.93,0,0,1,4.93-1.65,6.57,6.57,0,0,1,4.75,1.52,6.26,6.26,0,0,1,1.56,4.66q0,6.53-6.51,6.53a6.56,6.56,0,0,1-4.85-1.64M87.91,253v-2.19a17.34,17.34,0,0,0-.27-3.62c-.18-.76-.59-1.14-1.24-1.14a1.25,1.25,0,0,0-.91.32,2,2,0,0,0-.5,1.06,19,19,0,0,0-.23,3.51v2a18.55,18.55,0,0,0,.16,3.36,5.11,5.11,0,0,0,.35.92,1.08,1.08,0,0,0,1.1.62c.67,0,1.1-.38,1.31-1.15a18,18,0,0,0,.23-3.69"/><path class="cls-1" d="M94.14,258.34v-4.59h.31a6.13,6.13,0,0,0,1.79,3.13,4.37,4.37,0,0,0,2.82.9c1.75,0,2.62-.56,2.62-1.67A1.19,1.19,0,0,0,101,255a9,9,0,0,0-2.57-.87,9.69,9.69,0,0,1-2.92-1.23A3.23,3.23,0,0,1,94.14,250a4.23,4.23,0,0,1,1.23-3.19,4.48,4.48,0,0,1,3.28-1.19,6.27,6.27,0,0,1,2.59.59,2.26,2.26,0,0,0,.75.2.58.58,0,0,0,.43-.18,2.82,2.82,0,0,0,.44-.67h.28v3.93h-.31c-.87-2.22-2.22-3.34-4-3.34a3.08,3.08,0,0,0-1.79.43,1.25,1.25,0,0,0-.59,1.06.9.9,0,0,0,.18.6,2,2,0,0,0,.28.32,1.43,1.43,0,0,0,.33.22,3.12,3.12,0,0,0,.39.18,4.36,4.36,0,0,0,.47.17,4.06,4.06,0,0,0,.47.13A20.49,20.49,0,0,1,101,250a8.94,8.94,0,0,1,1.46.79,3.53,3.53,0,0,1,1.41,3.14,4.14,4.14,0,0,1-1.28,3.28,5.21,5.21,0,0,1-3.52,1.11A6.84,6.84,0,0,1,96,257.6a1,1,0,0,0-.49-.21c-.38,0-.74.32-1.1.95Z"/><polygon class="cls-1" points="104.57 238.86 110.85 238.86 110.85 257.63 112.29 257.63 112.29 258.09 104.68 258.09 104.68 257.63 106.09 257.63 106.09 239.32 104.57 239.32 104.57 238.86"/><path class="cls-1" d="M118.93,252.06h.74v-2a12.65,12.65,0,0,0-.27-3.27,1,1,0,0,0-1-.83,1.45,1.45,0,0,0-.84.24.76.76,0,0,0-.37.66,2.38,2.38,0,0,0,.16.86H118a3.82,3.82,0,0,1,.2,1.3,1.68,1.68,0,0,1-.64,1.31,2.44,2.44,0,0,1-1.62.55,1.91,1.91,0,0,1-2.2-2.13c0-2.1,1.79-3.16,5.36-3.16,2,0,3.44.35,4.22,1s1.16,2,1.16,3.81v5.21c0,.89.25,1.33.75,1.33s.92-.88,1-2.64l.39,0a5.18,5.18,0,0,1-.85,3.11,3.11,3.11,0,0,1-2.43.84c-2.06,0-3.24-.63-3.54-1.9a2.85,2.85,0,0,1-1,1.44,3.43,3.43,0,0,1-2,.46q-3.8,0-3.8-3.1a2.52,2.52,0,0,1,1.45-2.5,11.09,11.09,0,0,1,4.45-.68m-.88,4.87a.52.52,0,0,0,.53.39q.4,0,.75-.66a3.91,3.91,0,0,0,.34-1.81v-2.38h-.18c-1.06,0-1.59.78-1.59,2.33v.41a6,6,0,0,0,.15,1.72"/><path class="cls-1" d="M128.13,254.42v-8.08h-1.4v-.46h1.4v-3.31l4.77-1.17v4.48h3.34v.46H132.9V255a4.54,4.54,0,0,0,.25,1.77,1,1,0,0,0,1,.57,1.69,1.69,0,0,0,1.35-.77,4.57,4.57,0,0,0,.75-2.11l.44.06a4.93,4.93,0,0,1-1.13,2.8,3.88,3.88,0,0,1-3,1,5.39,5.39,0,0,1-3.26-.84,3.65,3.65,0,0,1-1.13-3.08"/><path class="cls-1" d="M145.52,246.6a2,2,0,0,0-1.67,1.23,5.67,5.67,0,0,0-.72,2.92v6.87H145v.47h-8v-.47h1.41V246.34H137v-.46h6.18v2.46a3.44,3.44,0,0,1,1.29-2,3.49,3.49,0,0,1,2.15-.71,2.83,2.83,0,0,1,2,.68,2.49,2.49,0,0,1,.76,1.93,2.87,2.87,0,0,1-.57,1.91,2.14,2.14,0,0,1-1.73.66,2,2,0,0,1-1.72-.76,2.42,2.42,0,0,1-.14-2.13h.93c.42-.87.24-1.31-.54-1.31"/><path class="cls-1" d="M149.54,245.88h6.28v11.74h1.44v.47h-7.61v-.47h1.41V246.34h-1.52Zm3.87-1.77a2.39,2.39,0,0,1-1.93-.69,2.61,2.61,0,0,1-.58-1.72,2.38,2.38,0,0,1,.63-1.69,2.52,2.52,0,0,1,1.91-.67,2.83,2.83,0,0,1,1.95.61,2.2,2.2,0,0,1,.67,1.71,2.48,2.48,0,0,1-.65,1.79,2.66,2.66,0,0,1-2,.66"/><path class="cls-1" d="M163.9,245.88v2a3.56,3.56,0,0,1,3.54-2.28,4.05,4.05,0,0,1,3.42,1.59,7.88,7.88,0,0,1,1.22,4.82,7.22,7.22,0,0,1-1.32,4.77,5,5,0,0,1-4,1.53A4.23,4.23,0,0,1,165,258a2.44,2.44,0,0,1-1-.94v6.64h3.31v.46h-9.49v-.46h1.41V246.34h-1.36v-.46Zm3,1.76c-.17-.61-.5-.91-1-.91a1.64,1.64,0,0,0-1.33,1,4.93,4.93,0,0,0-.59,2.58V255a3.75,3.75,0,0,0,.44,1.87,1.39,1.39,0,0,0,1.28.77c.56,0,1-.38,1.15-1.13a16.86,16.86,0,0,0,.31-4v-1.33a15.76,15.76,0,0,0-.26-3.55"/><polygon class="cls-1" points="172.74 238.86 179.03 238.86 179.03 257.63 180.46 257.63 180.46 258.09 172.85 258.09 172.85 257.63 174.26 257.63 174.26 239.32 172.74 239.32 172.74 238.86"/><path class="cls-1" d="M187.1,252.06h.74v-2a12.79,12.79,0,0,0-.26-3.27,1,1,0,0,0-1-.83,1.45,1.45,0,0,0-.84.24.76.76,0,0,0-.37.66,2.38,2.38,0,0,0,.16.86h.64a3.82,3.82,0,0,1,.2,1.3,1.68,1.68,0,0,1-.64,1.31,2.42,2.42,0,0,1-1.61.55c-1.47,0-2.21-.71-2.21-2.13,0-2.1,1.79-3.16,5.36-3.16,2,0,3.44.35,4.22,1s1.16,2,1.16,3.81v5.21c0,.89.25,1.33.75,1.33s.92-.88,1-2.64l.39,0a5.18,5.18,0,0,1-.85,3.11,3.11,3.11,0,0,1-2.43.84c-2.06,0-3.24-.63-3.54-1.9a2.79,2.79,0,0,1-1,1.44,3.43,3.43,0,0,1-1.95.46q-3.8,0-3.8-3.1a2.52,2.52,0,0,1,1.45-2.5,11.09,11.09,0,0,1,4.45-.68m-.88,4.87a.53.53,0,0,0,.54.39c.26,0,.51-.22.74-.66a3.91,3.91,0,0,0,.34-1.81v-2.38h-.18c-1,0-1.58.78-1.58,2.33v.41a6.09,6.09,0,0,0,.14,1.72"/></svg>