<svg id="Capa_1" data-name="Capa 1" xmlns="http://www.w3.org/2000/svg" viewBox="0 0 235.59 303.92"><defs><style>.cls-1,.cls-2{fill:#e85d75;}.cls-1{fill-rule:evenodd;}</style></defs><title>footer</title><path class="cls-1" d="M88,214.24c-3.77-1.54-7.41-3-11-4.51-1-.43-2-1-3-1.49a25.4,25.4,0,0,0-3-1.46,30.4,30.4,0,0,1-7.29-4.15,16.58,16.58,0,0,0-2-1.28c-2.73-1.37-4.58-3.76-6.78-5.75a11.24,11.24,0,0,0-1.8-1.52c-3.31-1.89-5.27-5-7.28-8s-3-6.51-4.44-9.79a48.35,48.35,0,0,1-2-5.15,42.57,42.57,0,0,1-1-4.9c-.29-1.53-.52-3.08-.77-4.61a7.55,7.55,0,0,1-.16-1.33c.05-3.65.11-7.3.22-10.94.06-1.85.25-3.69.38-5.54.09-1.28.23-2.56.28-3.85.13-3.42.25-6.84.32-10.26a16.87,16.87,0,0,0-.28-2.32,4.29,4.29,0,0,1-.06-1.13c.41-3.16.82-6.32,1.26-9.48.37-2.66.77-5.31,1.16-8a5.53,5.53,0,0,1,.14-.83,29.27,29.27,0,0,0,1-5.07,18.35,18.35,0,0,1,2.25-5,10.76,10.76,0,0,1,1.69-2.29c2.34-2.54,3.67-5.75,5.76-8.45.76-1,1.47-2,2.28-2.92a79.39,79.39,0,0,1,5.92-6.62,23.5,23.5,0,0,1,5.21-3.34c3.22-1.71,6.52-3.27,9.78-4.89.8-.4,1.6-.82,2.42-1.18C80.74,66.61,84.33,65,88,63.53a6.38,6.38,0,0,0,3.4-7.67c-.37-1.22-.42-2.55-.82-3.76A40.12,40.12,0,0,0,88.49,47a50.16,50.16,0,0,1-2.89-6.79,5.52,5.52,0,0,1-.38-2.93,16.24,16.24,0,0,0,0-2.52c.1-2.17.23-4.34.31-6.51a2,2,0,0,0-.29-1.26c-.78-.93-.5-1.91-.23-2.86.09-.34.58-.81.86-.79A2,2,0,0,1,87,24c.68.78,1.2,1.7,1.92,2.42.87.87,1.89,1.58,2.84,2.37l2.88,2.42c.47-3.31,2.4-5.72,4.92-7.78a8,8,0,0,0,3.06-4.66,10,10,0,0,1,1.65-3,1.18,1.18,0,0,1,1-.42c.27.08.46.55.61.88a1.49,1.49,0,0,1,.06.67c-.1,2.21.87,4.08,1.78,6s1.57,3.71,2.28,5.59c.49,1.29.86,2.63,1.36,4.15.4-.48.77-.85,1.07-1.28a17.61,17.61,0,0,1,4.47-5,39.31,39.31,0,0,0,7.49-7.2,9.17,9.17,0,0,0,2.18-3.81c.41-.06.83-.16,1.27-.19,1.21-.09,1.68.45,1.11,1.46a4.85,4.85,0,0,0-.5,2.73c0,.85,0,1.7,0,2.54a7.77,7.77,0,0,1-.72,3.24,13.84,13.84,0,0,0-.94,3.88c-.15,2.11,0,4.24-.06,6.36,0,1.56-.21,3.11-.33,4.78a5.93,5.93,0,0,0,3.3-1.33A64.23,64.23,0,0,0,135,34.27c2-2,3.71-4.21,4.18-7.14a12.93,12.93,0,0,1,.69-2.43c.31-.79.74-1.54,1.91-1.3a5.31,5.31,0,0,1,.2,3.59c-.94,2.33-1,4.83-1.49,7.23-.24,1.09-.41,2.21-.75,3.27-1.1,3.47-2.15,7-3.45,10.36a37.54,37.54,0,0,1-3,5.65c-1.59,2.69-1.06,4.94,1.69,6.43a91.36,91.36,0,0,0,16.71,6.61A39.26,39.26,0,0,1,162.63,72c1,.68,2,1.26,3,1.93a67.15,67.15,0,0,1,9.78,7.69c1.17,1.21,2.39,2.39,3.66,3.49,1.73,1.5,2.79,3.51,4.16,5.27.13.18.2.41.35.58,2.81,3.13,4.6,6.92,6.56,10.56a25.16,25.16,0,0,1,2.53,9.06c.31,2.51.43,5,.68,7.56a7.71,7.71,0,0,0,.46,2.3,10.61,10.61,0,0,1,.81,4.44c-.06,3.37.25,6.81-.28,10.1-.64,3.91-.31,7.84-.92,11.73a76.26,76.26,0,0,0-.39,8.57,10.67,10.67,0,0,1-.29,2.84,21.61,21.61,0,0,0-1,5.78,33.33,33.33,0,0,0-.28,4.86c.36,3.28-.77,6.19-1.7,9.19-1.19,3.83-3.13,7.34-4.47,11.09a25.82,25.82,0,0,1-9,12c-1.93,1.49-4,2.63-6,4-2.64,1.82-5.28,3.64-7.82,5.6a32.88,32.88,0,0,1-10.42,5,79,79,0,0,1-11.22,2.23c-6.95,1.16-13.92.68-20.89.67a7.85,7.85,0,0,0-.84,0c-5,.64-10-.06-14.93-.91a1.29,1.29,0,0,0-1.54.67,17.45,17.45,0,0,1-3.79,4.25,18.14,18.14,0,0,0-2.6,3.06c-.92,1.34-2,2.17-3.66,1.61l-1.37-1.73c-1.82.92-3.08.21-3.14-1.69s0-4,0-6.08c0-1.12,0-2.24,0-3.44M95.6,49.86l.47-.18A14.82,14.82,0,0,1,96.93,51a10.73,10.73,0,0,1-2.12,12.3c-2,2-4,3.93-6.63,5.11s-4.85,2.86-7.39,4A149.06,149.06,0,0,0,65,81.09c-5.11,3.09-8.77,7.64-12.39,12.25a5.68,5.68,0,0,0-.37.74c-.88,1.69-1.71,3.41-2.64,5.07A19.5,19.5,0,0,0,47,105.51c-.37,2.32-.77,4.63-1.15,6.95-.29,1.77-.52,3.55-.83,5.31-.37,2.09-.83,4.17-1.2,6.27a17.89,17.89,0,0,0-.31,2.83c-.05,1.95,0,3.91,0,5.86-.07,2.52-.21,5-.32,7.56s-.23,5.16-.34,7.74c0,.33,0,.67,0,1,.14,3.19.13,6.4.46,9.57.5,4.85,2.19,9.46,3.08,14.25a34,34,0,0,0,5.59,12.7,24,24,0,0,0,3.35,4.2c2.35,2.16,4.87,4.11,7.37,6.09,1.41,1.11,3,2,4.38,3.15,2.75,2.17,6,3.29,9.24,4.32,2.09.66,4.22,1.19,6.31,1.83,2.57.79,5,1.86,7.53,2.84a77.08,77.08,0,0,0,8.41,2.4,20.82,20.82,0,0,0,3.11.69,57.7,57.7,0,0,0,10.92.4c4.08-.34,8.17-.57,12.2-1.29,4.53-.8,9-1.9,13.45-3.06,5.44-1.43,10.49-3.49,14.83-7.22,2.74-2.36,5.42-4.71,7.24-7.88,1.29-2.23,2.65-4.43,3.77-6.74a57.64,57.64,0,0,0,2.71-6.68c1.2-3.56,2.29-7.16,3.3-10.78a39.72,39.72,0,0,0,.9-5.1c.29-1.94.47-3.89.77-5.83.55-3.54,1.34-7.06,1.67-10.62a21.71,21.71,0,0,1,2.56-8.1,3.49,3.49,0,0,0,.55-1.22,68.19,68.19,0,0,0,.4-9.37c-.11-1.68-.38-3.35-.43-5a18.89,18.89,0,0,0-1-5.43,53.77,53.77,0,0,0-6.17-12.88,15.65,15.65,0,0,1-1.59-3,14.14,14.14,0,0,0-4.23-5.53,60.08,60.08,0,0,1-5.77-5.12,89.27,89.27,0,0,0-11.37-10.71c-.44-.35-.85-.74-1.3-1.08-4.44-3.41-9.14-6.5-12.53-11.13a8.64,8.64,0,0,1-2-5.57,2.59,2.59,0,0,0-.55-1.87,3.09,3.09,0,0,1-.51-3.18,15.75,15.75,0,0,1,1.61-3.48,22.35,22.35,0,0,0,4-9.31c-1.29.7-2,2.15-3.56,2.5,2.27-2.85,5.42-5.1,6-9-1.18,1.6-2.28,3.28-3.57,4.81-2,2.43-3.25,3.35-4.59,3.73a16.34,16.34,0,0,1,1.82-2.07,27.92,27.92,0,0,0,6.17-8.38,6.2,6.2,0,0,0,.27-1,44.9,44.9,0,0,0-4.19,3.76,14.14,14.14,0,0,1-2.38,1.84,16,16,0,0,1-2.78,1.2,11,11,0,0,0-6.65,5.54c-.23.47-.86.75-1.41,1.2-.45-1.9.48-3.16,1.22-4.47.64-1.12,1.37-2.19,1.94-3.34a11.53,11.53,0,0,0,1.44-6.13c-.13-1.46,0-2.93,0-4.39a10.42,10.42,0,0,1,1-5.41,8.73,8.73,0,0,0,.7-1.89,3,3,0,0,0-.18-2.36,19.19,19.19,0,0,0-1.46,2.85,11.11,11.11,0,0,1-4,4.92,5.46,5.46,0,0,1-1,.42c1-1.78,3-2.77,3.7-5.06-1.13.93-2,1.74-2.92,2.39a28.81,28.81,0,0,0-8.1,8.68,9.24,9.24,0,0,0-1.62,5.41c.08,1.51,0,3,0,4.55a9.48,9.48,0,0,1-.77,3.71c-1.06-.16-1.14-.88-1.14-1.65,0-2.19,0-4.39,0-6.58a34.18,34.18,0,0,0-1.5-10.29,7.67,7.67,0,0,0-2.57-3.48,66.76,66.76,0,0,0,1.17,6.81,40.28,40.28,0,0,1,1.1,8.1c0,.61.1,1.28-.9,1.42a12.27,12.27,0,0,1-1-2.3c-.68-3.35-1.26-6.72-1.9-10.07A28.58,28.58,0,0,0,102,24.16c-2.72,1.41-3.14,3.82-2.94,6.49.06.73.16,1.46.21,2.19a8.64,8.64,0,0,1-.11,1.09C97.82,32,98.3,30.07,98.09,28c-.78.91-1.33,1.5-1.34,2.42,0,2.22.09,4.38,2.14,5.83a.68.68,0,0,1,.12.12c1.45,2,3.14,3.84,3.75,6.32.65,2.66,1.26,5.33,1.87,8,.25,1.14.43,2.29.67,3.55.82-.58,1.43-.73,2.19,0a25.67,25.67,0,0,0,3,2.06l1-1.87c-1.72-1.76-3.39-3.29-5.91-3.46,0-.48-.2-1,0-1.23a3.85,3.85,0,0,1,1.41-1.52c.7-.31,1.25.19,1.37,1a.72.72,0,0,0,.31.37c1.23.91,2.48,1.81,3.83,2.78a13.18,13.18,0,0,0,1.23-7,2.39,2.39,0,0,1-.68.05c-.39-.12-.76-.32-1.14-.48a3.64,3.64,0,0,1,.57-1,4,4,0,0,1,3.71-1.12,6.54,6.54,0,0,0-.53-1.62c-.78-1.13-.74-1.55.48-2.17a11.4,11.4,0,0,1,1.33-.49c1.08,1.06,1.15,1.13,1,2.26-.14,1.39-.37,2.78-.52,4.17-.17,1.59-.3,3.18-.44,4.81,2.18.39,4.14.87,6-.6a1.32,1.32,0,0,1,1.82.15,1.27,1.27,0,0,1,.38,1.78,19.2,19.2,0,0,1-1.24,1.69,4.32,4.32,0,0,1,.14.93c0,1.5-.85,2-2.18,1.28a2.32,2.32,0,0,0-.92-.33c-1.73,0-3.46,0-5.19,0-.33.78-.59,1.42-.84,2,2.23,0,4.3-.07,6.37,0,1.47.07,1.72.76.77,1.94a1.66,1.66,0,0,0-.43,1.42c.14,1-1.09,2-1.92,1.41-1.15-.75-2.39-.4-3.54-.74-2.07-.63-3.49.17-4.79,1.79-1.69,2.09-3,4.35-3.14,7a59.74,59.74,0,0,0,.34,7.9,42,42,0,0,0,1,4.77c.69-3-.64-6,0-8.93.71,3.23,1.44,6.44,1.14,9.78a15.46,15.46,0,0,0,0,3.19c.47,4.13.94,8.25-.07,12.38a23.76,23.76,0,0,0-.7,4.81c-.18,5.56-.24,11.12-.36,16.68a4.67,4.67,0,0,1-.21.85,11.31,11.31,0,0,1-1.26-4.93,125.58,125.58,0,0,1,1.13-21.31,18.15,18.15,0,0,0-.17-5.5c-.55-3.31-1.51-6.56-2-9.88-.63-4.16-1-8.36,0-12.53a3,3,0,0,0,.21-1.32c-.35-1.44.29-2.62.81-3.86.24-.57.42-1.16.61-1.75a3,3,0,0,0-1.1-3.15,2.15,2.15,0,0,0-2.9-.35V63.5a2,2,0,0,1-1.71-2.22c0-1.11-.22-2.23-.18-3.34a39.8,39.8,0,0,0-3-15.77,14.59,14.59,0,0,0-.74-1.48,28.89,28.89,0,0,0-4.32-5.59,26.46,26.46,0,0,0-5-4.67c-.45-.3-.92-.57-1.38-.85,2.57,4.52,3.86,10.5,2.47,12.75-.51-3.84-.38-7.71-2.8-10.89a19.24,19.24,0,0,0,.6,3.29c.29,1.08.65,2.15,1,3.22-1.89-1.36-1.67-3.59-2.59-5.38A6.87,6.87,0,0,0,87.11,35a20.7,20.7,0,0,0,.8,4.12c.88,2.71,1.8,5.43,2.93,8,1.61,3.74,3,7.48,2.91,11.64a8.31,8.31,0,0,1-2.88,6.34A11.94,11.94,0,0,0,90,66a7.82,7.82,0,0,0,3.69-3.25,45.74,45.74,0,0,0,2.14-4.69l.51,1c1.11-3.29.27-6.26-.78-9.21m80.82,58a4.52,4.52,0,0,0,.41,3.25c2.23,5.62,2.88,11.55,3.12,17.51a75.4,75.4,0,0,1-.47,8.74c-.23,2.86-.5,5.71-.88,8.55a40.69,40.69,0,0,0-.74,8.38,25.7,25.7,0,0,1-1.48,9.27,19.92,19.92,0,0,0-1,3.9,36.92,36.92,0,0,1-2.58,9.58c-1.46,3.77-2.94,7.53-4.4,11.3a1.07,1.07,0,0,0,0,.4,11,11,0,0,0,1.78-2.85c1.21-2.79,2.38-5.59,3.53-8.4A36.54,36.54,0,0,0,176.1,170c.41-2.32,1-4.61,1.58-6.89a28.6,28.6,0,0,0,1.25-8.12,39.73,39.73,0,0,1,.24-5.56c.35-3.29.85-6.57,1.23-9.86.19-1.62.22-3.26.33-4.88.13-1.9.42-3.81.36-5.71-.07-2.35-.47-4.69-.65-7a38.45,38.45,0,0,0-3.19-12.51c-.18-.43-.44-.82-.83-1.53M92.87,219.09c2,0,2.08-1.79,3.1-2.85l-3.1-.63ZM117.16,52.76a15.18,15.18,0,0,0,6.09-.74l-5-.39a2.74,2.74,0,0,0-.5,0c-.73,0-.72.54-.63,1.17m-5.53,6.15c1.83-2.15,3.34-5.52,3.15-7.06-.75,2.4-2.75,4.23-3.15,7.06M89.81,222.71h.36c.2-.82.2-.82-.45-1.52,0,.61.06,1.06.09,1.52m30.61-163.8c0-.07.06-.15.1-.23-.15-.11-.28-.29-.44-.31a2.08,2.08,0,0,0-.64.1v.22l1,.22"/><path class="cls-1" d="M78,220.05c-3.7-.39-4.69-2.53-4.75-5.56a1.65,1.65,0,0,1,1.19-1.65A4.66,4.66,0,0,1,80,214.71c.79,1.29.43,2.59.11,3.9a5.25,5.25,0,0,1-.28.71c1.09.25,2.14.43,3.15.75a1.62,1.62,0,0,1,1.34,1.53,1.73,1.73,0,0,1-1.23,1.63,7.32,7.32,0,0,1-3.94.61c-1.76-.18-2.35-1.14-1.74-2.81a8,8,0,0,1,.54-1"/><path class="cls-1" d="M119.75,227.63c-1.11-1.54-.77-3-.25-4.42s3-2,4.34-.77a8.85,8.85,0,0,1,1.88,2.34c.78,1.43-.74,3.8-2.38,3.86a12.68,12.68,0,0,1-1.61-.14,4.94,4.94,0,0,1,.38.89,2.48,2.48,0,0,1-1.06,2.94,4.05,4.05,0,0,1-4.07-.78,2.86,2.86,0,0,1-.33-3.14,1.61,1.61,0,0,1,1.64-.94l1.46.16"/><path class="cls-1" d="M114.21,235.45a18.79,18.79,0,0,1,2.14.4,1.65,1.65,0,0,1,1.32,2.17,3.11,3.11,0,0,1-1.74,2.52c-1.88.9-3.75,1.13-5.58-.1a1.51,1.51,0,0,1-.61-2.29,4.37,4.37,0,0,1,4.47-2.7"/><path class="cls-1" d="M59.66,212.74c0-2.21.67-2.91,2.65-2.66A7.36,7.36,0,0,1,65,211a3.52,3.52,0,0,1,1.1,4.86,1.58,1.58,0,0,1-2,.89,17.59,17.59,0,0,1-3-1.35,2.52,2.52,0,0,1-1.42-2.61"/><path class="cls-1" d="M100.15,235.65a3.66,3.66,0,0,1,1.62-3.4,2.14,2.14,0,0,1,3.19.36c1.15,1.3,1.79,2.64,1,4.38a3.26,3.26,0,0,1-5,1.33c-.92-.69-.79-1.66-.8-2.67"/><path class="cls-1" d="M71.81,218.58a21.9,21.9,0,0,1,3.29,1.1c1.53.8,1.56,2.37.2,3.4a5.1,5.1,0,0,1-4.91.88c-1.36-.45-2-1.26-1.91-2.39a2.77,2.77,0,0,1,2.59-2.74l.68,0,.06-.21"/><path class="cls-1" d="M153.6,226a4,4,0,0,1,5.07-3.55,7,7,0,0,1,1.22.55c.7.39,1.41.8,1.34,1.76a2.6,2.6,0,0,1-1.41,2.32,8.43,8.43,0,0,1-5.1.54c-.85-.11-1.16-.79-1.12-1.62"/><path class="cls-1" d="M145.62,225.76a5.57,5.57,0,0,1,3.32,1.26,1.23,1.23,0,0,1,.38,1.64,4.22,4.22,0,0,1-4,2.34,8,8,0,0,1-3-.78c-.61-.22-1.23-.63-1.11-1.49s.28-1.71,1.23-2,2.12-.63,3.19-.94"/><path class="cls-1" d="M164.29,241.33c0,1.32-.18,2.58-1.41,3.39a2.82,2.82,0,0,1-3,.51,2.9,2.9,0,0,1-1.51-2.8,4.42,4.42,0,0,1,2.08-3.64,2.52,2.52,0,0,1,2.71.16c.95.47,1.13.93,1.11,2.38"/><path class="cls-1" d="M113.63,229.2a3.75,3.75,0,0,1-3.44-2.3,1.79,1.79,0,0,1,.55-2.4,4.53,4.53,0,0,1,3.42-1.1A2.82,2.82,0,0,1,117,226a3.14,3.14,0,0,1-2.69,3.15c-.22,0-.45,0-.67.06"/><path class="cls-1" d="M133.29,226a4.29,4.29,0,0,1-2,2.71,7.74,7.74,0,0,1-3.06,1.23c-1.36.25-2.08-.63-1.9-2a4.41,4.41,0,0,1,1.19-2.35,6.37,6.37,0,0,1,3.51-1.87c1.24-.29,2.31.76,2.28,2.31"/><path class="cls-1" d="M53.83,235.33c-2.79-.13-4.37-1.75-4.35-4.48,0-1.21.43-1.63,1.62-1.6a7.57,7.57,0,0,1,4.55,1.95c1,.8.64,2,.37,3-.22.85-1,1.2-2.19,1.15"/><path class="cls-1" d="M167.71,241c0-1.48.27-1.94,1.43-2.39s2.82-.35,3.42.51c.74,1,1.4,2.13.92,3.56a2.81,2.81,0,0,1-2.63,2.17,3,3,0,0,1-3-2.26,13,13,0,0,1-.17-1.59"/><path class="cls-1" d="M56.93,239.39a2.74,2.74,0,0,1,3-3.07,3.11,3.11,0,0,1,3.39,2.77,2.75,2.75,0,0,1-3,2.92c-2.13,0-3.39-.94-3.4-2.62"/><path class="cls-1" d="M176.76,240.93a4.14,4.14,0,0,1,1.52-3.63,2.66,2.66,0,0,1,4.25,1.11,1.67,1.67,0,0,1,.12.49c.1,2.19-2.8,4.6-5,4.17-.58-.11-.92-.38-.92-1v-1.14"/><path class="cls-1" d="M128.71,242.28a9.45,9.45,0,0,1-1.58-.28c-.73-.24-1.53-.51-1.57-1.51a2.59,2.59,0,0,1,1-2.35,5,5,0,0,1,4.64-.22c.09.05.17.14.26.2.91.59,1.86,1.15,1.45,2.49s-1.46,1.43-2.49,1.65a10.22,10.22,0,0,1-1.73,0"/><path class="cls-1" d="M157.82,220.25c-1.57,0-2.67-.95-2.64-2.2.06-2.32,1.13-3.52,3.11-3.49,1.52,0,3.08,1.31,3.07,2.5,0,2-1.39,3.22-3.54,3.19"/><path class="cls-1" d="M77.49,231.43a5.41,5.41,0,0,1-3.77-2,2.66,2.66,0,0,1-.57-2.2,1.49,1.49,0,0,1,1.53-1.48,5.15,5.15,0,0,1,4.75,2.64,2,2,0,0,1-1.94,3.05"/><path class="cls-1" d="M137.37,229.59a13.74,13.74,0,0,1-2.35-.76,2.09,2.09,0,0,1-.28-3.6,4.1,4.1,0,0,1,4.41-.53,2.18,2.18,0,0,1,1.27,2.47,2.77,2.77,0,0,1-2.17,2.26,5.89,5.89,0,0,1-.84,0s0,.1,0,.16"/><path class="cls-1" d="M145.82,239.57c0,1.41-.6,2.42-1.59,2.69-1.18.31-3.25-.3-3.72-1.1a4,4,0,0,1,.63-3.65,2.51,2.51,0,0,1,2.74-.8,2.92,2.92,0,0,1,1.94,2.86"/><path class="cls-1" d="M51.31,244.22a4.81,4.81,0,0,1-.43,1.33,1.26,1.26,0,0,1-1.63.41A6.28,6.28,0,0,1,46,243.47a2.87,2.87,0,0,1-.16-2.74,1.38,1.38,0,0,1,1.52-.8,6,6,0,0,1,3.86,3.2,9.82,9.82,0,0,1,.12,1.09"/><path class="cls-1" d="M71.41,243.76c-.71-.07-1.1-.09-1.48-.16-1.52-.24-2.17-.91-2.08-2.11a2.31,2.31,0,0,1,2.34-2.16,10.59,10.59,0,0,1,3.48,1,1.59,1.59,0,0,1-.15,2.83,11.66,11.66,0,0,1-2.11.57"/><path class="cls-1" d="M149.63,224.28c-.85,0-1.8.08-2.26-.76s0-1.85.55-2.64a3.81,3.81,0,0,1,4.36-1.29,1.33,1.33,0,0,1,.68.82,3,3,0,0,1-3,3.87h-.33"/><path class="cls-1" d="M167.13,236.87c-.72-.08-1.12-.08-1.5-.17-1.15-.25-1.52-.75-1.57-2s.28-1.87,1.41-2.15a4.37,4.37,0,0,1,3.29.13c.7.37,1.26.77,1.25,1.62a2,2,0,0,1-1.1,2.1,12.29,12.29,0,0,1-1.78.51"/><path class="cls-1" d="M142.06,220.33a5.25,5.25,0,0,1,3.47,1.91,2.26,2.26,0,0,1,.05,2.54c-.37.7-1.14.87-2.25.52a7,7,0,0,1-1.82-.82,2.24,2.24,0,0,1-.44-3.61,3.25,3.25,0,0,1,1-.54"/><path class="cls-1" d="M176.42,107.86c.39.71.65,1.1.83,1.52a38.32,38.32,0,0,1,3.19,12.52c.18,2.36.58,4.7.65,7,.06,1.9-.23,3.81-.36,5.71-.11,1.62-.14,3.26-.33,4.88-.37,3.29-.88,6.57-1.23,9.86a39.73,39.73,0,0,0-.24,5.56,28.6,28.6,0,0,1-1.25,8.12c-.59,2.28-1.17,4.57-1.58,6.89a36.54,36.54,0,0,1-2.45,7.52c-1.15,2.81-2.32,5.61-3.53,8.4a11,11,0,0,1-1.78,2.85,1.07,1.07,0,0,1,0-.4c1.46-3.77,2.94-7.53,4.4-11.3a36.92,36.92,0,0,0,2.58-9.58,20.2,20.2,0,0,1,1-3.91,25.61,25.61,0,0,0,1.48-9.26,40.69,40.69,0,0,1,.74-8.38c.38-2.84.65-5.69.88-8.55a75.4,75.4,0,0,0,.47-8.74c-.24-6-.89-11.89-3.12-17.51a4.52,4.52,0,0,1-.41-3.25"/><path class="cls-1" d="M92.87,219.09v-3.48l3.1.63c-1,1.06-1.09,2.83-3.1,2.85"/><path class="cls-1" d="M117.16,52.76c-.09-.63-.1-1.13.63-1.17a2.74,2.74,0,0,1,.5,0l5,.39a15.18,15.18,0,0,1-6.09.74"/><path class="cls-1" d="M111.63,58.91c.4-2.83,2.4-4.66,3.15-7.06.19,1.54-1.32,4.91-3.15,7.06"/><path class="cls-1" d="M89.81,222.71c0-.46-.06-.91-.09-1.52.65.7.65.7.45,1.52h-.36"/><path class="cls-1" d="M120.42,58.91l-1-.22v-.22a2.08,2.08,0,0,1,.64-.1c.16,0,.29.2.44.31,0,.08-.07.16-.1.23"/><path class="cls-1" d="M152.89,148.36c3.14,2,3.4,2,6,1.17a4.69,4.69,0,0,1,.25,3.51,4.69,4.69,0,0,0-.15,3.3A1.21,1.21,0,0,1,158,158a3.75,3.75,0,0,1-1.63.15c-2.23-.3-3.54-1.83-4.51-3.66a1.73,1.73,0,0,1,.24-2.16,3.16,3.16,0,0,0,.78-2.5c0-.48,0-1,0-1.49"/><path class="cls-1" d="M160.78,145.55l1.1-.38a5.72,5.72,0,0,0,6,2.38,3.67,3.67,0,0,1-2.9,5.8,4.82,4.82,0,0,1-3.94-1.5,3.28,3.28,0,0,1-.77-3.83,15.22,15.22,0,0,0,.56-2.47"/><path class="cls-1" d="M154.22,171.4h3.43l2.72,1.4c.28.15.65.27.8.52.88,1.37-.44,4.18-2.06,4.33a10.14,10.14,0,0,1-2.52-.09,3.11,3.11,0,0,1-2.84-3.81c.09-.78.3-1.54.47-2.35"/><path class="cls-1" d="M168.46,124.57a4.91,4.91,0,0,1-4-2.18,2,2,0,0,1-.13-2.37c.7-1,1.64-1.92,2.9-1.7,1.53.27,3.13.5,4.3,1.88a2.3,2.3,0,0,1-1,3.89,17.77,17.77,0,0,1-2.06.48"/><path class="cls-1" d="M140.59,132.23a4.2,4.2,0,0,1,3.19,2.91,2.38,2.38,0,0,1-.42,2.65c-1.67,1.91-3.47,2.29-5.67,1.12a1.79,1.79,0,0,1-1.05-1.75c0-.71-.07-1.42-.11-2.15,2.46-.76,2.49-.78,4.06-2.78"/><path class="cls-1" d="M132.65,141.18l.2-1.49,3-1a5.78,5.78,0,0,0,4.27,2.18c1,0,2,1.51,2,2.56a2,2,0,0,1-2,2.21,11.34,11.34,0,0,1-2.18,0,1.1,1.1,0,0,1-1.09-.86,5,5,0,0,0-4.22-3.54"/><path class="cls-1" d="M59.07,100.89c-1.47,2.25,0,3.56,1.42,4.92-1.67,2-2.58,2.31-4.85,1.26a8.91,8.91,0,0,1-2.26-1.4,1.83,1.83,0,0,1-.12-2.84,5.45,5.45,0,0,1,5.81-1.94"/><path class="cls-1" d="M169.68,140.9c1.65,2.38.91,4.53-1.75,5.4-2.05.67-3.52.33-4.68-1.07a2.69,2.69,0,0,1-.14-3,2.65,2.65,0,0,1,2.87-1.09c1.23.37,1.44.36,3.7-.25"/><path class="cls-1" d="M101.34,169.69c.34-.87.89-2.23,1.47-3.68a22.63,22.63,0,0,1,2.44-.74,2.56,2.56,0,0,1,2.45,1.15,1.75,1.75,0,0,1,.43,2.15c-1.08,1.89-2.41,3.52-4.33,3.86l-2.46-2.74"/><path class="cls-1" d="M160.23,102.53c2.83.15,3.33,2.18,3.63,4.13.19,1.21-.76,1.8-1.61,2.34a2.22,2.22,0,0,1-2.81-.07,5.14,5.14,0,0,1-2.13-4.31c1-.7,1.9-1.37,2.92-2.09"/><path class="cls-1" d="M77.49,96.42H80.7a10.62,10.62,0,0,1,1,4.5,2,2,0,0,1-1,1.78,3.71,3.71,0,0,1-3.83-.06,3,3,0,0,1-.67-3.77c.45-.76.84-1.55,1.33-2.45"/><path class="cls-1" d="M164.08,138.63a3.91,3.91,0,0,0,.6-4.25l1.19-.68a23.28,23.28,0,0,0,3.39,1.22,1.93,1.93,0,0,1,1.67,1.63,2.49,2.49,0,0,1-.7,2.62,4.16,4.16,0,0,1-6.15-.54"/><path class="cls-1" d="M93.44,180.06a3.61,3.61,0,0,1-4-3.09,1.44,1.44,0,0,1,.51-1.24,15,15,0,0,1,2.71-1.29,2,2,0,0,1,2.2.37,3.52,3.52,0,0,0,.51.43c1.49,1.08,1.74,1.64,1.32,3a2.84,2.84,0,0,1-2.76,1.83h-.5"/><path class="cls-1" d="M72.53,129.49c2.24-.32,2.24-.32,3.66-1.4.23.31.62.6.66.93.25,1.92.22,1.93,1.08,3-.25.89-.48,1.81-.78,2.7-.38,1.1-.78,1.3-1.9,1.08-2.72-.55-4-3.57-2.72-6.33"/><path class="cls-1" d="M78.11,185.94c0,2.74-1,3.68-3.33,3.41a12.87,12.87,0,0,1-1.65-.25,2.32,2.32,0,0,1-1.5-3.42,3.88,3.88,0,0,1,5.89-1,3.32,3.32,0,0,1,.59,1.24"/><path class="cls-1" d="M87.06,76.17c-.37,1.26-.68,2.37-1,3.48A1.87,1.87,0,0,1,84.13,81a7.84,7.84,0,0,1-2.92-.58,2.35,2.35,0,0,1-.81-3.59,3.59,3.59,0,0,1,2.69-1.52,6.73,6.73,0,0,1,4,.85"/><path class="cls-1" d="M134.43,159.44l-1.33-3.3a9.37,9.37,0,0,0,2.33-.77,12,12,0,0,0,2-2l1.5.45a2.21,2.21,0,0,1,1.85,2.58,2.5,2.5,0,0,1-1.89,2.46c-1.52.3-3.07.42-4.49.6"/><path class="cls-1" d="M159.75,121.77l2.88-.19a25.16,25.16,0,0,1,1.29,2.6,2.66,2.66,0,0,1-2.65,3.78,5.17,5.17,0,0,1-3.33-1.42c-.68-.58-.63-1.22,0-1.87a5.22,5.22,0,0,0,1.82-2.9"/><path class="cls-1" d="M69.21,82.3a23.84,23.84,0,0,0,1.24,2.63,24.37,24.37,0,0,0,1.77,2.24,2.17,2.17,0,0,1-2.46,1.35c-1.63-.12-3.24-.34-4.43-1.66-.91-1-.87-1.48-.07-2.61a5,5,0,0,1,3.95-2"/><path class="cls-1" d="M154.63,178.47l2.9.27a2,2,0,0,1,2.05,2c0,1.15.19,2.55-1.07,3.14a3.55,3.55,0,0,1-3.77-.54c-.52-.4-1.13-.7-1.78-1.1-.61-1.76,1.34-2.45,1.67-3.8"/><path class="cls-1" d="M143.28,115.24c1.5-.68,2.65-1.22,3.81-1.71a2.7,2.7,0,0,1,1.09-.19c.89,0,1.78.11,2.87.19-.34,1.37-.65,2.81-1.05,4.22a1.25,1.25,0,0,1-1.3.86,6.09,6.09,0,0,1-4.52-1.5c-.51-.45-.65-1.33-.9-1.87"/><path class="cls-1" d="M98.42,207.77c-1.71,0-3.3-1.07-2.71-3.26.22-.81.22-1.62,1-2.23a2.15,2.15,0,0,1,2.33-.44,3.5,3.5,0,0,1,2.19,2c.84,2.23.21,3.86-2.78,3.94"/><path class="cls-1" d="M148.7,130.79l1.52-2.58,3.8.18a1.28,1.28,0,0,1,.48.09,4.13,4.13,0,0,1,1.32,3.14c-.18,1.1-.74,1.59-2.07,1.81-.66.1-1.31.24-1.87.34l-3.18-3"/><path class="cls-1" d="M126.9,114.64a5.63,5.63,0,0,0-2.89-4.48l1.52-2.44a5.09,5.09,0,0,1,4,1.14,2.47,2.47,0,0,1,.88,3.4,3.77,3.77,0,0,1-3.52,2.38"/><path class="cls-1" d="M126.78,155.43c.72-2.67-.78-4.3-2.58-5.82a1.3,1.3,0,0,1,1.72-.48,10.47,10.47,0,0,0,2.29.47,3.38,3.38,0,0,1,2.64,5,2,2,0,0,1-2.72,1.18l-1.35-.34"/><path class="cls-1" d="M95,188.4l-3-2.49a4.66,4.66,0,0,0,.13-1.46c-.29-1.43.73-1.94,1.66-2.37a2.41,2.41,0,0,1,2.94.35c1.47,1.44,1.58,3.07.12,4.55A17.08,17.08,0,0,1,95,188.4"/><path class="cls-1" d="M150.85,172.16c.39-.29.71-.51,1-.76s.47-.43,1-.92a16.11,16.11,0,0,1,0,2.56,5.58,5.58,0,0,0,.43,4.21,1.86,1.86,0,0,1-1.24,2.67,7.18,7.18,0,0,1-3.12-.28c-1.36-.46-1.39-1.62-.95-2.82,3.42-1.47,3.7-1.93,2.82-4.66"/><path class="cls-1" d="M118.36,168.28l3.39-1a13.82,13.82,0,0,1,1.76,1.14,2.86,2.86,0,0,1,.93,1.31c.26,1-.89,2.82-2,3.43a3.14,3.14,0,0,1-3.28-.65,2.18,2.18,0,0,1-.47-1.16c-.07-.5.07-1,0-1.51a13.82,13.82,0,0,0-.31-1.56"/><path class="cls-1" d="M158.58,138.81a4.39,4.39,0,0,0,4.65.32l1,1.19a3.93,3.93,0,0,0-2.63,3.33,1,1,0,0,1-1.38.89,8.56,8.56,0,0,1-2.76-1.11,2.29,2.29,0,0,1,.08-3.82l1-.8"/><path class="cls-1" d="M149.6,161.84c3.41-.4,3.74-.64,4.41-3.32l2,.73c.11.4.19.78.3,1.15.78,2.5-.48,4.37-3.09,4.52a5.09,5.09,0,0,1-1.82-.22c-1.82-.6-2.26-.93-1.82-2.86"/><path class="cls-1" d="M160.5,158.38c1.43-.09,2.57-.18,3.71-.22a2.72,2.72,0,0,1,2.27,1.48c.91,1.24.75,1.9-.52,2.74a4.23,4.23,0,0,1-5.75-1.23,2.3,2.3,0,0,1,.29-2.77"/><path class="cls-1" d="M81.33,191.84c0,2.21-1.11,3.32-2.87,3.36a3.07,3.07,0,0,1-3.21-2.76,1.73,1.73,0,0,1,.89-1.68,22.4,22.4,0,0,1,2.25-1.43c.43-.19,1.29-.2,1.5.07a17.59,17.59,0,0,1,1.44,2.44"/><path class="cls-1" d="M81.07,195.75c1.52-1.6,1.64-1.86,2-4.09l2.26.21a2.45,2.45,0,0,1,1.94,2.48,5.19,5.19,0,0,1-3.93,3.6c-1.65,0-2-.29-2.28-2.2"/><path class="cls-1" d="M94.93,122.6a2.54,2.54,0,0,1-.25-.18c-1.9-1.65-1.51-3.82.85-4.67.94-.34,1.89-.65,2.85-.91s1.66,0,2.45,1.1C99,120,99,120,98.54,121.6l-3.61,1"/><path class="cls-1" d="M164.13,128.31l1.86,1.36c-.09.34-.22.69-.3,1.06-.24,1.1-.37,2.37-1.71,2.61a5.16,5.16,0,0,1-4.45-1,1.35,1.35,0,0,1-.39-1.67c.36-.83.75-1.62,1.83-1.76s1.95-.36,3.16-.6"/><path class="cls-1" d="M148.18,193.42l-2.13-2.83a6.08,6.08,0,0,1,3.93-2.26c.11,0,.22-.06.33-.07a2.64,2.64,0,0,1,2.83,1.32,2.94,2.94,0,0,1-1.34,3.15,4.56,4.56,0,0,1-3.62.69"/><path class="cls-1" d="M153.36,107.46c.54-.33,1-.6,1.48-.92s.74-.63,1.09-.93c.71,1.56,1.4,3,2,4.49a2,2,0,0,1-.87,2.7,3.87,3.87,0,0,1-4.3-.45,6.46,6.46,0,0,0,.58-4.89"/><path class="cls-1" d="M145.09,136.66c.24-2.18-1.05-3.61-2.54-5.24.58.06.86.07,1.14.11a10.34,10.34,0,0,0,2.64.41c1.66-.18,2.65.75,3.51,1.85s-.36,3.51-1.93,3.7a4.2,4.2,0,0,1-2.82-.83"/><path class="cls-1" d="M133.38,148.43c2.3-.66,2.3-.66,3.48-2.09a4.39,4.39,0,0,1,3.36,1.54,2.64,2.64,0,0,1-.45,4.3,1.74,1.74,0,0,1-2.82-.78,6.07,6.07,0,0,0-3.57-3"/><path class="cls-1" d="M123.7,144.56l2.57-2a19.94,19.94,0,0,1,2.48.9,3,3,0,0,1,1.46,3.7,2.94,2.94,0,0,1-3.91,1.21c-.34-.17-.78-.62-.78-.93a3.14,3.14,0,0,0-1.82-2.91"/><path class="cls-1" d="M106.22,164.11c0-2.8,0-2.8-2.61-5.2,1.59-1.83,2.78-2.21,4.29-1.52s2.06,2.67,1.77,4.33-1.42,2.32-3.45,2.39"/><path class="cls-1" d="M134,182l-1.69-1.61a8.41,8.41,0,0,0,1-2.55,8.05,8.05,0,0,0-.76-2.58c.72-.1,1.49-.24,2.26-.32a2.3,2.3,0,0,1,2.5,1.34,2.8,2.8,0,0,1-.12,3.19A11.92,11.92,0,0,1,134,182"/><path class="cls-1" d="M150.29,138.13c.57-2.14,2.16-2.72,4-2.95a3.2,3.2,0,0,1,3.38,2.24,1.4,1.4,0,0,1-.26,1.06,4.59,4.59,0,0,1-7.08-.35"/><path class="cls-1" d="M93.71,116.77c-1.82,1.56-1.41,3.37-.87,5.39-.36.11-.81.4-1.13.31a15.24,15.24,0,0,1-2.94-1.16,1.91,1.91,0,0,1-.73-1.26,4.7,4.7,0,0,1,.77-3.36,2.57,2.57,0,0,1,2.88-.74c.63.23,1.24.5,2,.82"/><path class="cls-1" d="M139.56,94.38c1.93,0,3.13,1.29,4.1,2.72a2,2,0,0,1-1.61,3,5.51,5.51,0,0,1-3.79-1.1c-1.15-.89-1.11-2,0-3a12.21,12.21,0,0,0,1.3-1.56"/><path class="cls-1" d="M133.86,129.64c-.8-1.3-1.72-2.57-3.55-2.84.22-.81.42-1.53.58-2.14,1.2-.11,2.29-.23,3.38-.3a6,6,0,0,1,2,0,2,2,0,0,1,.79,3.4,5.81,5.81,0,0,1-3.19,1.87"/><path class="cls-1" d="M143.89,130.49c1-3.07,1-3.07.06-5.11l2.52-1,1.79.92a1.63,1.63,0,0,1,1.12,2,3.84,3.84,0,0,1-5.49,3.2"/><path class="cls-1" d="M98.43,155.21c.46,1.07.91,2.09,1.35,3.1.62,1.43.5,1.92-.71,2.85a2.36,2.36,0,0,1-3.21.08c-.56-.45-1.07-1-1.73-1.55a5.06,5.06,0,0,0,1.92-4.48Z"/><path class="cls-1" d="M131.17,118.68a5,5,0,0,1,4,.52c1.41,1,1.56,2.25.27,3.32a7.6,7.6,0,0,1-2.18,1.24,2.7,2.7,0,0,1-3.2-1.54,2.39,2.39,0,0,1,.17-1.43,22.76,22.76,0,0,1,1-2.11"/><path class="cls-1" d="M93.19,127.55c1,.62,1.79,1.2,2.65,1.7a2.19,2.19,0,0,1,1.22,2,2.37,2.37,0,0,1-1.63,2.16,3.29,3.29,0,0,1-3.44-.74,2.69,2.69,0,0,1-.65-3.09c.34-1.06.69-2,1.85-2"/><path class="cls-1" d="M89.27,99a5,5,0,0,0,4.46-.59c.16.78.3,1.42.37,1.75a29.27,29.27,0,0,0-1.54,3.19,1.25,1.25,0,0,1-1.51,1,5.18,5.18,0,0,1-3.3-1.88,1.33,1.33,0,0,1,.08-1.84c.42-.53.89-1,1.44-1.61"/><path class="cls-1" d="M96.07,148.65c1.78-.08,2.82,1,3.93,1.9a1.22,1.22,0,0,1,.31,1.65A3.68,3.68,0,0,1,95,153.38a2.52,2.52,0,0,1-.23-3.46c.4-.45.88-.85,1.33-1.27"/><path class="cls-1" d="M132.19,111.78c-.38-1.26-.72-2.35-1.08-3.56a14.65,14.65,0,0,0,1.17-1.28c.82-1.11,1.45-1.46,2.46-1.12a2.64,2.64,0,0,1,2,2.26A3.22,3.22,0,0,1,134,111.7c-.61.08-1.22.06-1.78.08"/><path class="cls-1" d="M144.14,160.88l-2-2.37-.21.22a22.63,22.63,0,0,0,.1-2.32c0-.79.05-1.51.85-1.83s1.88-.7,2.67.1a8.64,8.64,0,0,1,1.53,2.16,1.69,1.69,0,0,1-.59,2.23l-2.33,1.81"/><path class="cls-1" d="M88.71,97.66A12,12,0,0,0,89,95.89a8.66,8.66,0,0,0-.23-1.51c1.56-.31,2.9-.91,3.4-2.62l1.88.75c.83,1.66.88,3.09-.56,4.44s-2.93,1.42-4.76.71"/><path class="cls-1" d="M152.07,113.7l4.05.75c.38.66.76,1.34,1.14,2a1.31,1.31,0,0,1-.56,2.09,3.73,3.73,0,0,1-2.91.49c-2-.5-2.69-1.64-2.23-3.62.14-.59.35-1.17.51-1.72"/><path class="cls-1" d="M112.66,134.87c-2.2,0-3.5-1.34-3.45-3.11a2.41,2.41,0,0,1,2.84-1.93,9.71,9.71,0,0,1,2.23.73,2.28,2.28,0,0,1,1.39,2,1.79,1.79,0,0,1-1.21,1.67,15.37,15.37,0,0,1-1.8.67"/><path class="cls-1" d="M93.78,170.63c-.1,1.52-1.13,2.18-2,2.9a4.93,4.93,0,0,1-4.26,1.07c-1.08-.24-1.31-.68-.91-1.68a4.33,4.33,0,0,1,5.81-2.71c.46.15.92.28,1.4.42"/><path class="cls-1" d="M138.26,89.09c-.14-1.32-.22-2.49-.4-3.63a2.32,2.32,0,0,1,2.08-2.7c1.64-.25,2.36.26,2.56,1.81.41,3.06-1.45,5-4.24,4.52"/><path class="cls-1" d="M120.76,143.4a3.87,3.87,0,0,1,.18-.84,4.34,4.34,0,0,0,0-3.74,1.34,1.34,0,0,1,.49-1.86c.78.19,1.56.31,2.29.56a2.55,2.55,0,0,1,1.09.71c1.53,1.73,1.24,3.55-.76,4.77a3.81,3.81,0,0,1-3.27.4"/><path class="cls-1" d="M96.47,106.46l2.92-1.25,1,1.27L98.53,111c-.57.2-1.4.45-2.19.8s-1.77.37-2.14-.21,0-1.21.36-1.81c.67-1,1.22-2.11,1.91-3.33"/><path class="cls-1" d="M108,175.24l-3.41-2a25,25,0,0,0,2.66-2,24.84,24.84,0,0,0,2.18-2.73c1.63.47,2.36,1.48,2,2.94a4.45,4.45,0,0,1-3.48,3.74"/><path class="cls-1" d="M149,164.73l2,1.12c-.4,1.32-1,2.67.15,3.87a2.5,2.5,0,0,1-3.07,1.07,3.39,3.39,0,0,1-2.78-3.85c1.33-.43,2.8-.71,3.68-2.21"/><path class="cls-1" d="M137.63,111.73c.2-1.56.39-3,.6-4.58a4.88,4.88,0,0,1,2,0,9.34,9.34,0,0,1,2.66,2,1.79,1.79,0,0,1-.31,2.57,3.61,3.61,0,0,1-4.93,0"/><path class="cls-1" d="M147,92.85a3.87,3.87,0,0,1,3-2.52,8.48,8.48,0,0,1,3.06.39c.12,0,.23.23.3.38a3.47,3.47,0,0,1-.75,3.41,2.6,2.6,0,0,1-3.37.29c-.8-.58-1.5-1.29-2.25-2"/><path class="cls-1" d="M92.37,166a10.12,10.12,0,0,1-1.76-.46c-1.12-.52-1.28-1-.89-2.25.12-.37.2-.75.31-1.13a1.83,1.83,0,0,1,2.23-1.47A7.86,7.86,0,0,1,95,162.2a1.78,1.78,0,0,1-.39,3,13.79,13.79,0,0,1-2.23.83"/><path class="cls-1" d="M59.94,108.22a5.56,5.56,0,0,0,5.24,2.42c0,.56.1,1.08.14,1.5l-3.95,1a3.44,3.44,0,0,1-3.81-1.42,1.52,1.52,0,0,1,.25-2c.61-.54,1.33-1,2.13-1.55"/><path class="cls-1" d="M122.26,116.89c-.66-1.19-1.16-2.11-1.63-3l1.19-2.93a3.42,3.42,0,0,1,4,3.58c-.23,2.26-1.49,3-3.52,2.32"/><path class="cls-1" d="M111.62,168.79a23.23,23.23,0,0,1-1.47-2.72c-.38-1,.39-2.31,1.5-2.89a3.61,3.61,0,0,1,4.78,2.11c.27,1-.05,1.55-1.1,1.51a3.92,3.92,0,0,0-3.71,2"/><path class="cls-1" d="M88.11,88.18a6.81,6.81,0,0,1,1.89.35,2.56,2.56,0,0,1-1.12,4.68h-.34c-2.67.07-3.85-1.84-2.64-4.24a1.05,1.05,0,0,1,1.18-.71c.33,0,.67,0,1,.06l0-.15"/><path class="cls-1" d="M78.79,78.58c.14,1.86,1.54,2.66,3,3.34a3.15,3.15,0,0,1-3.59,2.51,3.08,3.08,0,0,1-2.59-3,2.92,2.92,0,0,1,3.16-2.82"/><path class="cls-1" d="M75.68,84.42c-.37.81-.55,1.71-1.67,1.64s-2.11-.27-2.57-1.51c-.29-.78-.71-1.52-1.07-2.28A1.4,1.4,0,0,1,71,80.14a3,3,0,0,1,3,0,1.27,1.27,0,0,1,.52.93,4.55,4.55,0,0,0,1.2,3.4"/><path class="cls-1" d="M101.8,124.83c-.85,1-1.72,1.82-2.48,2.77-1,1.29-3.33.49-4-.49a.78.78,0,0,1-.21-.44A4.37,4.37,0,0,1,97,123.24a2.43,2.43,0,0,1,2.92.31c.31.24.63.46,1,.68s.57.36.94.6"/><path class="cls-1" d="M129.08,187c-.1-1.85-1.24-2.75-2.37-3.94.49-.41,1-.78,1.41-1.18a5,5,0,0,1,3.58-.65,2.16,2.16,0,0,1,1.23,2,2.89,2.89,0,0,1-1.62,2.91,18.89,18.89,0,0,1-2.23.82"/><path class="cls-1" d="M145.67,101.59l-1.76-1.13a3,3,0,0,0,1-2.89A2.16,2.16,0,0,1,147,95.05a2.34,2.34,0,0,1,2.42,2.29,2.71,2.71,0,0,1-1,2.39c-.89.66-1.82,1.25-2.71,1.86"/><path class="cls-1" d="M122.83,131a4.42,4.42,0,0,1,2.76,1c.82.54,1.52,1.18,1.3,2.33a2.86,2.86,0,0,1-2.29,2.18,6.16,6.16,0,0,1-2,0,1.86,1.86,0,0,1-1.21-2.61c.46-.89.91-1.78,1.45-2.84"/><path class="cls-1" d="M171.82,129.36a2.68,2.68,0,0,1,.49.55c1.48,2.32,1.36,3.26-1.78,4.05a3.45,3.45,0,0,1-3.11-1,3,3,0,0,1-.72-1.79c-.11-.85.31-1.17,1.18-1.28,1.2-.16,2.4-.35,3.94-.57"/><path class="cls-1" d="M103.35,138.77c.17.81-.3,1.32-1.13,1.65a6.24,6.24,0,0,0-1.29.76,2.26,2.26,0,0,1-2.6.06,2.16,2.16,0,0,1-.6-2.41c.46-1.64,1.94-2.09,3.2-2.65,1.11-.49,2.41.95,2.42,2.59"/><path class="cls-1" d="M146.76,119.48c2.6.17,2.6.17,4-.78.68.52,1.52.85,1.44,2a4.74,4.74,0,0,1-1.56,3.41,2.94,2.94,0,0,1-3.26-.41,2.86,2.86,0,0,1-.25-1.24c-.12-1-.23-1.93-.35-3"/><path class="cls-1" d="M128.05,199.13c.58-1.76,1-3.17,1.53-4.65a3.09,3.09,0,0,1,3.53,1.83,3.26,3.26,0,0,1-1.34,3.67,3.65,3.65,0,0,1-1.78.1c-.85-.07-1.69-.24-1.94-1"/><path class="cls-1" d="M133.84,185.23c1.75-2.06,3.37-2.39,5.63-1.27,1.45.72,1.6,2.16.33,3.24a3.64,3.64,0,0,1-4.51-.25,19.85,19.85,0,0,1-1.45-1.72"/><path class="cls-1" d="M128.6,127.82c2.53-.21,4,.89,4,2.91a1.47,1.47,0,0,1-.34,1,6.21,6.21,0,0,1-4.15,1.58l-1.66-2.21c1.86-.29,2.09-1.72,2.17-3.32"/><path class="cls-1" d="M68.84,94a11.24,11.24,0,0,0,2.14.28c1.11-.06,1.6.52,1.92,1.47a2.67,2.67,0,0,1-.11,2.72,2.15,2.15,0,0,1-2.61.55,9.79,9.79,0,0,1-1.7-.7c-.93-.6-1-1.28-.45-2.26a8.48,8.48,0,0,0,.53-1,9.85,9.85,0,0,0,.28-1"/><path class="cls-1" d="M105.47,162.67c0,2.21-1.56,3.11-3.47,2-2.71-1.55-2.79-2-.79-4.38a1.26,1.26,0,0,1,.64-.47c1.24-.26,3.82.9,3.62,2.83"/><path class="cls-1" d="M127.59,196c-.1,2.42-1.73,3.38-3.58,2.42a5.3,5.3,0,0,1-1.25-.82c-.62-.6-1.43-1.18-1.17-2.22.16-.6,1.91-1.52,2.67-1.46a4,4,0,0,1,2.84,1.23,4.15,4.15,0,0,1,.49.85"/><path class="cls-1" d="M137.71,129.17c1.18-.9,1.07-2.19,1.11-3.33l3.09-1.1c.28.47.61,1,.92,1.51a3,3,0,0,1-.17,3.6,2.78,2.78,0,0,1-3.13.36c-.6-.29-1.16-.66-1.82-1"/><path class="cls-1" d="M143.44,92.94a2.79,2.79,0,0,1-2.32-1,1.34,1.34,0,0,1,.22-2.17,16.73,16.73,0,0,1,3.25-1.34A2.06,2.06,0,0,1,147,89.61a2,2,0,0,1-.7,2.22,3.49,3.49,0,0,1-2.81,1.11"/><path class="cls-1" d="M75.9,107.87c.92-1.26,1.19-2.48.25-3.62l4.22.23,1.46,1.22a3,3,0,0,1-2.11,3.16,3.61,3.61,0,0,1-3.82-1"/><path class="cls-1" d="M148,107.59l2.23-1c2.08.59,2.77,1.66,2.31,3.64-.4,1.72-2.13,2.63-4.13,2.25-.14-1.6-.27-3.18-.41-4.84"/><path class="cls-1" d="M134.93,172.1a2,2,0,0,1-1.68,2.14c-2.09.35-4.32-1.45-4.12-3.36a1.57,1.57,0,0,1,.47-1c1.44-1.12,4.74,0,5.26,1.68a2.12,2.12,0,0,1,.07.53"/><path class="cls-1" d="M79,173.12c1.9-2.42,4.49-2.44,7-2.88a3.08,3.08,0,0,1-.89,2.64A4.13,4.13,0,0,1,82.25,175a3.68,3.68,0,0,1-2.12-.28c-.54-.32-.82-1.1-1.17-1.63"/><path class="cls-1" d="M159.46,110.58a8.08,8.08,0,0,1,2.4.67,3.46,3.46,0,0,1,1.11,1.8c.28,1-1,2.92-1.94,3.26-1.36.5-2.68-.23-3.7-2.12a4,4,0,0,0,2.13-3.61"/><path class="cls-1" d="M142.36,140.61c1.6-2.37,3.64-2,5.68-1.29,1.34.44,1.55,1.61.57,2.62a3.62,3.62,0,0,1-5.38-.09,11.39,11.39,0,0,1-.87-1.24"/><path class="cls-1" d="M140.39,118.86l3-1.18c1.41.6,2,2.12,2.59,3.51a2.18,2.18,0,0,1-2.39,2.93,10.76,10.76,0,0,1-1.29-.27,4.81,4.81,0,0,0-1.89-5"/><path class="cls-1" d="M151.92,166.35l4.46-.83,1.14,1c-.16,1.2-.3,2.3-.47,3.6a6.18,6.18,0,0,1-5-1.47c-.84-.75-.55-1.61-.11-2.35"/><path class="cls-1" d="M139.15,177.58a4.48,4.48,0,0,0-3.56-3.64,6.36,6.36,0,0,0,.37-1c.23-1,.65-2.07,1.8-2.15a3.73,3.73,0,0,1,3.05,1.5,2,2,0,0,1,.09,2.21,3.2,3.2,0,0,0-.49,1.54c.1.89-.35,1.19-1.26,1.5"/><path class="cls-1" d="M125.74,121.53c-.41-1.25-.78-2.35-1.14-3.45.51-.55,1.06-1.16,1.64-1.76a1.16,1.16,0,0,1,.53-.38,2.81,2.81,0,0,1,3,2.93c-.43,2.07-1.79,2.95-4.06,2.66"/><path class="cls-1" d="M159,158.71c-.67,3.45,1.46,5,5.34,5.84a4.46,4.46,0,0,1-.71.84,5.27,5.27,0,0,1-5.43.18,1.28,1.28,0,0,1-.81-1.76,6.56,6.56,0,0,0,.09-4.4l1.52-.7"/><path class="cls-1" d="M150.6,154c.62,1,1.23,2,1.74,3a2.54,2.54,0,0,1-2.27,3.59,10.57,10.57,0,0,1-1.85-.48c1.47-2.21.46-4-.73-5.89l3.11-.19"/><path class="cls-1" d="M90.49,139.74a4.58,4.58,0,0,0,4.09-2.39,2.52,2.52,0,0,1,1.36,3.58,3.84,3.84,0,0,1-4.33,2.28c-.37-1.12-.7-2.16-1.12-3.47"/><path class="cls-1" d="M92.51,197.48c0-.76-.06-1.25.76-1.4a7.66,7.66,0,0,0,2.14-.83,2.25,2.25,0,0,1,2.75.22,1.93,1.93,0,0,1,.53,2.42,5.38,5.38,0,0,1-1.18,1.78,1.23,1.23,0,0,1-2-.14,5.19,5.19,0,0,0-3-2.05"/><path class="cls-1" d="M101.29,166.85A3.46,3.46,0,0,1,98.35,170c-.72,0-1.45,0-2.16.14s-1-.26-1.17-.87a1.9,1.9,0,0,1,1.14-2.3,12,12,0,0,1,1.58-.92,8.52,8.52,0,0,1,2.39-.52c.8,0,1.16.54,1.16,1.33"/><path class="cls-1" d="M136.47,193.14a3.4,3.4,0,0,0-2.67-2.38c0-1,0-1.94,1-2.46,1.26.28,2.44.59,3.63.79a1.93,1.93,0,0,1,1.68,1.41c.24.76-.21,1.2-.69,1.73a3,3,0,0,1-2.91.91"/><path class="cls-1" d="M143.22,107.88l1.8-1.21c2.09,1.2,2.95,3.1,2.21,4.84s-2.61,2.39-4.66,1.71c1.61-1.59,2.29-3.33.65-5.34"/><path class="cls-1" d="M165.85,125.28c1.46,0,2.68.08,3.88,0a1.43,1.43,0,0,1,1.62.85,1.86,1.86,0,0,1-.41,2.14c-1.33,1.14-4.45,1-5.6-.31-.64-.72-.45-1.61.51-2.66"/><path class="cls-1" d="M163.8,114.34c.08-.41.16-.79.22-1.07a12,12,0,0,0,3.47-.54,11.89,11.89,0,0,0,2.62-2.37,2.22,2.22,0,0,1,.94,2.46,3.35,3.35,0,0,1-2.43,2.73,5.09,5.09,0,0,1-4.82-1.21"/><path class="cls-1" d="M112.77,172.45c-.13-1-.29-1.84-.36-2.72a1.51,1.51,0,0,1,.25-.92A2.77,2.77,0,0,1,116,168a2.31,2.31,0,0,1,1.28,2.65,6.14,6.14,0,0,1-.52,1.41,1,1,0,0,1-1.36.63,5.84,5.84,0,0,0-1.33-.17c-.43-.05-.87-.07-1.29-.1"/><path class="cls-1" d="M76.83,85.21c1.44.09,1.83,1.05,2.11,2.12a2.36,2.36,0,0,1-1.11,3.11,2.62,2.62,0,0,1-3.27,0c-1-.69-1.19-1.44-.41-2.38a3.46,3.46,0,0,1,1-.83c1.25-.66,1.26-.64,1.65-2"/><path class="cls-1" d="M103.9,123.6c-1.32,0-3.29-1.36-3.54-2.38a1.32,1.32,0,0,1,.19-1.09,12.69,12.69,0,0,1,1.86-1.65,1,1,0,0,1,1.56.28,17.63,17.63,0,0,0,1.28,1.32c.89,1,.9,1.44,0,2.44a11.11,11.11,0,0,1-1.32,1.08"/><path class="cls-1" d="M135.25,94.72l-2.09-2.35-.75.53a11.09,11.09,0,0,1,.65-2,2,2,0,0,1,2-1.26,2.14,2.14,0,0,1,1.9,1.47,14.71,14.71,0,0,1,.45,2.47,1.24,1.24,0,0,1-1,1.37c-.48.15-1,.25-1.46.38.1-.2.19-.4.28-.59"/><path class="cls-1" d="M93.21,105.14l1.6,1c0,2-.87,3.32-2.48,3.63a2.21,2.21,0,0,1-2.55-1.15,2.75,2.75,0,0,1,.08-2.85,1.49,1.49,0,0,1,.85-.39c.76-.13,1.53-.19,2.5-.29"/><path class="cls-1" d="M96.45,190.69a1.18,1.18,0,0,1,.94-1.31,3.54,3.54,0,0,1,2.91.26c.77.44,1.62,1,1.55,2a2.93,2.93,0,0,1-1.77,2.3c-.89.46-2.94-.46-3.24-1.43a16.58,16.58,0,0,1-.39-1.84"/><path class="cls-1" d="M158.53,98a2.5,2.5,0,0,1,1.08,3,3.14,3.14,0,0,1-3.1,2.31,14,14,0,0,0-1-1.26,11.81,11.81,0,0,0-1.16-.88l.75-2.27,3.48-.85"/><path class="cls-1" d="M105.61,180.12c.43-.28,1-.59,1.44-1a2.09,2.09,0,0,1,3,.17,2.41,2.41,0,0,1,0,3.07,4.7,4.7,0,0,1-2.74,1.62l-1.18-.71c-.15-1.08-.3-2.1-.46-3.2"/><path class="cls-1" d="M145.73,152.7l-4.39,1.39-.86-.91a5.65,5.65,0,0,0,1.92-3.48,1.74,1.74,0,0,1,3-.77c1.14,1.16,1.18,1.89.3,3.77"/><path class="cls-1" d="M122.86,98.91,121.58,98a2.83,2.83,0,0,1-.84-3.92,1.33,1.33,0,0,1,.44-.47,3.1,3.1,0,0,1,4.08,1.79,2.08,2.08,0,0,1-.34,1.51,21.89,21.89,0,0,1-2.06,2"/><path class="cls-1" d="M67.91,89.73l4.6-.6c.3.54.62,1.23,1,1.86.62.89.52,1.53-.41,2-1.22.64-4.23.09-5-1a2.12,2.12,0,0,1-.23-2.26"/><path class="cls-1" d="M153,146.37a4.57,4.57,0,0,1-6.31.39A1.62,1.62,0,0,1,146,145a1.46,1.46,0,0,1,1.71-1.07c1.7.38,3.61.33,4.92,1.8a5.09,5.09,0,0,1,.39.63"/><path class="cls-1" d="M90.7,81.94a8.55,8.55,0,0,1-.27,1.34c-.42,1-.9,2-1.36,3a1.69,1.69,0,0,1-1.95.93c-.81-.2-1-.57-1-1.65a2.74,2.74,0,0,0,0-1.15,1.72,1.72,0,0,1,.51-2.24c.17-.15.11-.54.15-.78l4,.51"/><path class="cls-1" d="M138.67,169.71a28.52,28.52,0,0,1,1.48-2.61c.83-1.15,1.76-1.4,2.72-.89a2.62,2.62,0,0,1,1.25,3.14,6.23,6.23,0,0,1-1.53,1.68c-.74.67-1.32,0-1.94-.32s-1.29-.65-2-1"/><path class="cls-1" d="M125.55,170.66l2.77-1.58c0,1.8,0,3.34,0,4.87,0,1.08-.35,1.39-1.41,1.42a6.73,6.73,0,0,1-1.68-.13c-1.45-.33-1.79-1.24-1-2.47.46-.69.88-1.4,1.32-2.11"/><path class="cls-1" d="M104.3,140c-.18-1.83.11-2.54,1.19-3.05a4.91,4.91,0,0,1,4,.53,1.68,1.68,0,0,1,0,2.51,3,3,0,0,1-3.88.57,12.2,12.2,0,0,0-1.32-.56"/><path class="cls-1" d="M75.5,109.19c-2.5,3-1.47,5.1,1.35,6.61a11.45,11.45,0,0,0-1.13.84,2.53,2.53,0,0,1-3.33.38,1.38,1.38,0,0,1-.3-2.36c2-2.22,2.1-2.82.56-5.46-.1-.18-.16-.4-.33-.83,1.12.58,2.48-.88,3.18.82"/><path class="cls-1" d="M123.77,156.28a3.44,3.44,0,0,1-2.9-1.42,2.32,2.32,0,0,1,.32-3.06,2.14,2.14,0,0,1,3,.27,8.52,8.52,0,0,1,1.17,1.63,1.64,1.64,0,0,1-1.61,2.58"/><path class="cls-1" d="M136.12,123.1c1.15-.91,1-2.14.94-3.39a5.27,5.27,0,0,0,1.24-.16,1.76,1.76,0,0,1,2.2.71,2.88,2.88,0,0,1,.73,2.81A2.11,2.11,0,0,1,138,124.3c-.57-.34-1.12-.72-1.87-1.2"/><path class="cls-1" d="M116.74,156.42c-.82,0-1.56-.09-1.82-1.08a3.93,3.93,0,0,0-.59-1c-.73-1.14-.58-1.72.6-2.4a2.74,2.74,0,0,1,4.16,2,2.08,2.08,0,0,1-2.35,2.5"/><path class="cls-1" d="M116.4,162.81a5.42,5.42,0,0,0-5.15-.73c-.26-1.88.25-3.14,1.48-3.71a4.24,4.24,0,0,1,3.82,1.08c.79.88.78,1.84-.15,3.36"/><path class="cls-1" d="M79.71,85.77l3.65-2.72a1.86,1.86,0,0,1,1.33,2.11A7.48,7.48,0,0,0,84.92,87c.2,1.08-.09,1.54-1.15,1.49a15.19,15.19,0,0,1-2.49-.4,1.41,1.41,0,0,1-.74-.58c-.31-.52-.54-1.1-.83-1.71"/><path class="cls-1" d="M124.21,182.21c0-1.14-1.17-1.77-1.1-3,0-.8-.09-1.62.85-2a2.53,2.53,0,0,1,2.82.23,2.74,2.74,0,0,1,.73,3.06,3,3,0,0,1-3.3,1.63"/><path class="cls-1" d="M58.45,114.4l2.29.27,1,5.46a2.84,2.84,0,0,1-3.71.14,1.19,1.19,0,0,1-.25-1.66,5.59,5.59,0,0,0,.63-4.21"/><path class="cls-1" d="M61.84,122.08a7.72,7.72,0,0,1-.64.52c-1.26.69-2.56,1.33-3.79,2.07-.92.55-1.62.07-2.32-.35a1.68,1.68,0,0,1-.89-1.82c.23-1.66.52-2.1,1.85-2.54a13.36,13.36,0,0,0,2.62,1.8,12.28,12.28,0,0,0,3.17.32"/><path class="cls-1" d="M136.29,164.4c.6.16,1.39.15,1.76.53a2.67,2.67,0,0,1,.49,2.54,1.87,1.87,0,0,1-2.57,1.37,7.09,7.09,0,0,1-1.84-1.12,1.59,1.59,0,0,1-.56-2.07,1.65,1.65,0,0,1,1.84-1.11c.28,0,.56,0,.83,0Z"/><path class="cls-1" d="M121.43,201.39a1.76,1.76,0,0,1,1.94-1.73,15.9,15.9,0,0,1,3.31.09,2.52,2.52,0,0,1,1.36,1.1,1.21,1.21,0,0,1-.34,1.66,5.37,5.37,0,0,1-2.12,1.16,17.6,17.6,0,0,0-1.89-1.35,19.14,19.14,0,0,0-2.26-.93"/><path class="cls-1" d="M104.05,145.58a15.68,15.68,0,0,1-2.28-.5,1.28,1.28,0,0,1-.72-2,6.53,6.53,0,0,1,2.18-1.73c.94-.44,3,.78,3.21,1.76a2.06,2.06,0,0,1-2.39,2.5"/><path class="cls-1" d="M116,147l-1.33-2.31a3.52,3.52,0,0,0,.49-1,1.58,1.58,0,0,1,1.41-1.44,3.17,3.17,0,0,1,2.7.58,1.9,1.9,0,0,1,.08,2.47c-.38.61-.78,1.2-1.22,1.88L116,147"/><path class="cls-1" d="M70,108.83c.57.74,1.09,1.4,1.58,2.07s.82,1.1.48,1.84-1,.72-1.72.74a4.13,4.13,0,0,1-3.26-1,1.36,1.36,0,0,1-.09-2.19,3.88,3.88,0,0,1,3-1.42"/><path class="cls-1" d="M141.47,159.49c.5.48,1,1,1.48,1.39-.26.69-.55,1.08-.5,1.41.36,2.14-.92,3.06-2.71,3.65l-1.19-2.07c.15-1.16.28-2.18.42-3.24l2.5-1.14"/><path class="cls-1" d="M80.51,123.51c-.42,1-.79,1.81-1.11,2.63-.41,1.06-1.44,1.5-2.22.73a7.57,7.57,0,0,1-1.79-2.75c-.44-1.22.5-2,1.84-2a3.7,3.7,0,0,1,3.28,1.4"/><path class="cls-1" d="M121.74,103c-1.54-.13-2.5.74-3.55,1.79-.31-.42-.7-.72-.75-1.08a11.48,11.48,0,0,1-.24-3.29c.18-1.33,1.07-1.71,2.36-1.31,1.55.49,2.19,1.58,2.18,3.89"/><path class="cls-1" d="M121.74,123.06a13.74,13.74,0,0,1-1.55-.41,1.73,1.73,0,0,1-1-2.42,3.46,3.46,0,0,1,2.52-1.75,2.28,2.28,0,0,1,2.36,1.26c.71,1.22.58,1.93-.65,2.67a9.18,9.18,0,0,1-1.64.65"/><path class="cls-1" d="M95.63,171.69c1.25.08,2.35.14,3.44.22a4,4,0,0,1,1,.15,1.84,1.84,0,0,1,1.4,1.7c.06.78-.42,1.37-1.36,1.68a3.4,3.4,0,0,1-3-.53c-.37-.24-.67-.58-1-.84-1.22-.88-1.23-.92-.42-2.38"/><path class="cls-1" d="M129,192.47c-1.6-.1-2.28-.73-2.21-2.08a2.19,2.19,0,0,1,2.41-2.18,4.25,4.25,0,0,1,1.47.2c1.57.58,1.84,1.87.68,3.06a2.49,2.49,0,0,1-2.35,1"/><path class="cls-1" d="M116,129.65a10.86,10.86,0,0,0,1.31-1.12,1.76,1.76,0,0,1,1.83-.49,2.09,2.09,0,0,1,1.9,2.76,13.14,13.14,0,0,1-.65,1.85,16.57,16.57,0,0,0-1.77-.19,11.12,11.12,0,0,0-1.44.17c-.4-1-.77-2-1.18-3"/><path class="cls-1" d="M103.25,100.78c.4.55.74,1,1.1,1.49a1.82,1.82,0,0,1,.2,2.32,2,2,0,0,1-2.23.75,3.77,3.77,0,0,1-2.35-2.26,2.33,2.33,0,0,1,1-2.63l2.33.33"/><path class="cls-1" d="M127.32,97.87a34.84,34.84,0,0,1,3.92.56c2.07.52,2.63,1.89,1.66,3.81a6,6,0,0,1-.62.81l-3-.54a12,12,0,0,0-.43-2.43,12.57,12.57,0,0,0-1.53-2.21"/><path class="cls-1" d="M160.2,152.51a6.6,6.6,0,0,0,5.81,1.8c.1,1.68-1,2.35-2.08,2.89a3,3,0,0,1-3.42-.65c-1.28-1.1-.9-2.4-.31-4"/><path class="cls-1" d="M84.05,159.12c1.5,1.07,3.55,1,4.61,2.83-.25.79-.14,1.87-1.41,2.1a3.71,3.71,0,0,1-3.39-1c-.7-.67-.59-2.54.19-3.92"/><path class="cls-1" d="M90.64,192.05c-1.87,0-2.55-.57-2.73-2a1.41,1.41,0,0,1,1.28-1.73c.66-.13,1.31-.3,2-.38a2,2,0,0,1,2.15,1.24,1.55,1.55,0,0,1-.93,2.4,12.18,12.18,0,0,1-1.74.44"/><path class="cls-1" d="M52.41,132.11l1,3.54c-.16.52-.7.91-1.54.5a27.9,27.9,0,0,1-3.2-1.8,1.65,1.65,0,0,1-.83-2,2.22,2.22,0,0,1,2.19-.93c.87.2,1.71.48,2.41.68"/><path class="cls-1" d="M125,105.33l3.79-1.66-.07-.28a21.57,21.57,0,0,1,2.12.45,1.21,1.21,0,0,1,.88,1.58,2.16,2.16,0,0,1-3,1.81c-1-.31-2.08-.44-3.28-.68-.11-.33-.26-.79-.41-1.22"/><path class="cls-1" d="M121.85,187.73c-.56-1.92-1.7-3-3.8-3v-1.4c.79-.78,1.5-1.39,2.1-2.09a1.63,1.63,0,0,1,2.18-.39c.6.37,1,1.54.63,2.07-1.15,1.43-1,3.08-1.11,4.8"/><path class="cls-1" d="M84,94.06l2.44,1c.93.39,1.32,1,1.17,1.79a1.86,1.86,0,0,1-1.85,1.62,4.36,4.36,0,0,1-3.18-1.29c-1.15-1.22-.8-2.48.82-2.94l.6-.19"/><path class="cls-1" d="M159.05,134.25a24.59,24.59,0,0,1,3.47.25,1.69,1.69,0,0,1,.79,3,5.21,5.21,0,0,1-.52.41,2.94,2.94,0,0,1-3.18.42c-1.15-.51-.53-1.69-.85-2.53-.13-.35.14-.86.29-1.55"/><path class="cls-1" d="M104.62,198.25s0-.24-.1-.45c-.4-1.33-.3-1.76.6-2.46a2.39,2.39,0,0,1,2.94-.34,2.31,2.31,0,0,1,.89,2.68,17.83,17.83,0,0,1-1.15,2.38l-3.18-1.81"/><path class="cls-1" d="M70.68,153.6c-.08-.51-.15-.93-.21-1.27l2.74-1.08a35,35,0,0,1,3.31,1.42c1.18.64,1.18,1.36.18,2.21-1.24,1.05-1.7,1-3-.08-.92-.8-1.22-.92-3-1.2"/><path class="cls-1" d="M123.53,100.55a21.53,21.53,0,0,0,2.13-1.33,1.12,1.12,0,0,1,1.64.09,2.57,2.57,0,0,1-.59,4.22,4.37,4.37,0,0,1-.8.25c-2,.53-2.18.36-2.29-1.69,0-.51-.06-1-.09-1.54"/><path class="cls-1" d="M64.14,119h1.49l2,2.68.24-.14c0,.6.09,1.2.14,1.77a4.52,4.52,0,0,1-5.5-1.41l1.6-2.9"/><path class="cls-1" d="M102.2,189.09a11.67,11.67,0,0,1,2.16-.15,1.68,1.68,0,0,1,1.55,1.54,3.4,3.4,0,0,1-1.27,3.26c-.64.53-1.27,1.07-2,1.73l-1.69-.56c2.34-2.76,2.43-3.16,1.3-5.82"/><path class="cls-1" d="M150.51,102.09c-.2-.26-.38-.54-.61-.79s-.49-.45-.89-.82a4.51,4.51,0,0,0,1.38-4.27l1.73-.2c.6.84,1.22,1.62,1.73,2.47s-.29,2.25-1.36,2.75c-.56.26-1.13.49-2,.86"/><path class="cls-1" d="M128.17,127a4.9,4.9,0,0,0-3.63-2c-.48,0-.91-.66-1.44-1.07.77-.62,1.38-1.09,1.92-1.51.8.05,1.52.14,2.23.15a2.55,2.55,0,0,1,2.48,1.58,2.68,2.68,0,0,1-1.56,2.88"/><path class="cls-1" d="M50.76,114.91a1.36,1.36,0,0,1,1.94-1.46,4.3,4.3,0,0,1,2.87,2c.31.58.57,1.13.21,1.72a2.09,2.09,0,0,1-1.93,1.11c-1.13-.07-3.07-2.24-3.09-3.4"/><path class="cls-1" d="M137.61,198.63c-1.18-.59-2-1-2.87-1.4-.55-.24-.77-.76-.31-1,1.46-.66,2.63-2.18,4.51-1.68a4.3,4.3,0,0,1,1.25.43,1.46,1.46,0,0,1-.09,2.42,14.77,14.77,0,0,1-2.49,1.2"/><path class="cls-1" d="M105.79,130.07a4.11,4.11,0,0,1-3.6-2.06,1.82,1.82,0,0,1,.82-2.57,2,2,0,0,1,2.49.5,18.77,18.77,0,0,0,1.3,1.53c.49.49.79,1.1.42,1.64s-.94.65-1.43,1"/><path class="cls-1" d="M80.37,115.88l1.09,1.84a2.73,2.73,0,0,1-2,2.59,2.41,2.41,0,0,1-2.7-.62,2.84,2.84,0,0,1,.47-2.94,3.53,3.53,0,0,1,3.1-.87"/><path class="cls-1" d="M122.76,185.48c.08-.16.19-.95.6-1.15a2.8,2.8,0,0,1,3,.09,4.6,4.6,0,0,1,.82.83c1.16,1.41.71,2.69-1.06,3.09a2.66,2.66,0,0,1-3.39-2.86"/><path class="cls-1" d="M66.1,181.13c1,.24,1.93.38,2.82.69a2.08,2.08,0,0,1,1.57,2.26,2.27,2.27,0,0,1-2.79,1.52c-2.37-.46-3.1-2.31-1.6-4.47"/><path class="cls-1" d="M131.51,147c-.2-.86-.43-1.71-.6-2.58a1.7,1.7,0,0,1,2.23-2,3.51,3.51,0,0,1,2.19,2,1.93,1.93,0,0,1-1,2.52,5.5,5.5,0,0,1-2.78.12"/><path class="cls-1" d="M107.53,142.28c1.42-.66,2.54-1.43,4-1.1a4.32,4.32,0,0,1,1.1.37c1,.56,1.34,1.16,1.17,2a2,2,0,0,1-1.91,1.35,3.87,3.87,0,0,1-3.4-1.08,8.48,8.48,0,0,1-.94-1.54"/><path class="cls-1" d="M86.21,103.18c-.73.36-1.38.67-2,1-1.21.61-1.28.6-2.62-.5A5,5,0,0,0,83,99.24l4.12.3a3.87,3.87,0,0,0-.91,3.64"/><path class="cls-1" d="M121.22,109.43c-.64-.6-1.16-1.1-1.7-1.59-1.13-1-1.24-1.62-.42-2.51,1-1.13,2.28-1.34,3.23-.5a2.59,2.59,0,0,1,1,2.68,2.39,2.39,0,0,1-2.13,1.92"/><path class="cls-1" d="M81.68,137.17c.86-.68,1.72-1.36,2.69-2.11l1.44.43c1.06.31,1.86,1,1.83,1.72,0,1.06-.84,1.5-1.7,1.85a3.19,3.19,0,0,1-4.26-1.89"/><path class="cls-1" d="M114,124.61a12.18,12.18,0,0,1,1.46.42,1.69,1.69,0,0,1,.69,3,2,2,0,0,1-2.29.63c-.89-.32-2.06-.19-2.4-1.51s0-2,1.21-2.31a10.77,10.77,0,0,1,1.33-.18"/><path class="cls-1" d="M133.75,133.15c.08-.35.18-.71.24-1.08.22-1.37.57-1.77,1.75-2a3.41,3.41,0,0,1,3.41,1.26c.31.56,0,1-.31,1.35-1.26,1.54-3.1,1.71-5.09.46"/><path class="cls-1" d="M88.63,104.9c-.17,1.78-.31,3.25-.46,4.78a3,3,0,0,1-3.1-1.88,2.5,2.5,0,0,1,.91-3.39,1.4,1.4,0,0,1,1.85,0,7.62,7.62,0,0,0,.8.53"/><path class="cls-1" d="M108,156.28l-1.15-.17a18.39,18.39,0,0,0-.71-2.4c-.32-.74-1.57-.72-1.63-1.91,1.35-.4,2.91-.54,3.38-2.2,1.95.62,2.15,1,1.4,2.72-.24.55-.57,1.06-.84,1.6A4.89,4.89,0,0,0,108,155a7.6,7.6,0,0,0,0,1.29"/><path class="cls-1" d="M118.59,123.1c1.07.3,2,.56,2.87.8a2,2,0,0,1,1.54,2.4,1.87,1.87,0,0,1-2.54,1.11c-.32-.09-.64-.2-1-.27s-.64-.13-.94-.19c-.31-.85-.6-1.68-1-2.76l1-1.09"/><path class="cls-1" d="M91.2,82.11a5.28,5.28,0,0,1,.29-.69c.41-.64.92-1.23,1.27-1.9a2.72,2.72,0,0,1,2.13-1.44,17.67,17.67,0,0,1,2.41,0c.47,1.64.48,1.65-.61,2.36A15.43,15.43,0,0,1,94.13,82a13,13,0,0,1-2.67.51l-.26-.39"/><path class="cls-1" d="M69.8,177.44a4.26,4.26,0,0,0-1.88-3.87c1.36-1.48,4.11-1.37,5.08.21a2.19,2.19,0,0,1,.15,1.56c-.37,1.29-1.46,1.93-3.35,2.1"/><path class="cls-1" d="M101.41,153.67a8.05,8.05,0,0,1,1.84,0,5,5,0,0,1,1.92.86c.65.52.53,1.18-.15,1.69a10,10,0,0,1-1.44.87,2.75,2.75,0,0,1-3.78-1.93,1.31,1.31,0,0,1,1.61-1.52"/><path class="cls-1" d="M141.21,106.36c-.37-1.27-.64-2.25-1-3.47.61-1,1.82-1.28,3.16-1.19a1.27,1.27,0,0,1,.72.36,2.87,2.87,0,0,1,0,3.3c-.92,1.23-1.81,1.49-2.91,1"/><path class="cls-1" d="M97.8,90.92a4.71,4.71,0,0,1-4.25.26c-1.16-.41-1.08-1.83.11-2.64.83-.56,1.7-1.07,2.58-1.63a6.23,6.23,0,0,1,1.37,1.66,8.07,8.07,0,0,1,.19,2.35"/><path class="cls-1" d="M93.59,136.28c-1.66,2.19-2.72,2.52-4.63,1.73-.16-1.08-.32-2.16-.48-3.22l2.67-1.21c1.46.31.85,2.35,2.44,2.7"/><path class="cls-1" d="M108.62,156.42c.19-2,.89-2.74,2.44-2.69a2.68,2.68,0,0,1,2.47,3l-2.81,2-2.1-2.25"/><path class="cls-1" d="M127.15,93.3a3.68,3.68,0,0,1-.12-1.14,3,3,0,0,0-.47-2.54c-.53-.8-.31-1.3.56-1.68a3.48,3.48,0,0,1,3.53,1.37c.43.66.17,1.69-.72,2.54a5.06,5.06,0,0,1-2.78,1.45"/><path class="cls-1" d="M150.39,139.77a6.33,6.33,0,0,0,5.19.88c0,1,.1,1.77.14,2.57l-1.8,1.34-4.06-2.24c.14-.67.31-1.52.53-2.55"/><path class="cls-1" d="M84.69,113c.37,1.69,1.7,2.13,3,2.69-.2,1.24-1.08,1.6-2.08,1.81a3.11,3.11,0,0,1-3-.65,2,2,0,0,1,.59-3.39,14.17,14.17,0,0,1,1.5-.46"/><path class="cls-1" d="M130.62,134.26c1.63-.83,3.12-.24,4.46,1a1.53,1.53,0,0,1,0,2.47,2.63,2.63,0,0,1-2.63.73,1.56,1.56,0,0,1-.89-.84c-.37-1-.62-2.09-1-3.32"/><path class="cls-1" d="M110.72,194.78c-.88-.58-1.67-1.07-2.42-1.63a1.32,1.32,0,0,1-.49-.79A2.43,2.43,0,0,1,110.7,190a2.85,2.85,0,0,1,1.93,2.32c.19,1-.52,1.54-1.14,2.08a3,3,0,0,1-.77.4"/><path class="cls-1" d="M129.26,180.3l-1.49-3.72,2.06-2.32c.4.44.78.93,1.23,1.34a2.69,2.69,0,0,1,1.16,2.78,3.41,3.41,0,0,1-3,1.92"/><path class="cls-1" d="M130.06,115.25c.6-.47,1.1-.9,1.65-1.27a3.13,3.13,0,0,1,2.54-.64c.76.18,1.38.5,1.47,1.39a1.76,1.76,0,0,1-.91,2,3.38,3.38,0,0,1-4.42-.6,3.24,3.24,0,0,1-.33-.86"/><path class="cls-1" d="M95.3,82.64c1-.48,1.79-1,2.66-1.3a2.57,2.57,0,0,1,3,1.74,1.92,1.92,0,0,1-1.45,2.29,5.33,5.33,0,0,1-2,0c-.79-.1-1-.67-1.15-1.41-.08-.41-.6-.73-1.11-1.31"/><path class="cls-1" d="M168.31,107.38c.89,2.14.44,3.8-1.31,4.54a6.4,6.4,0,0,1-2.6.25c-1.05,0-1-1.18-1.81-1.62a3.69,3.69,0,0,1,2.48-1.23,4.81,4.81,0,0,0,1.8-.83,15.29,15.29,0,0,0,1.44-1.11"/><path class="cls-1" d="M106.82,177.47a2.33,2.33,0,0,1-2.59,1.83,2.56,2.56,0,0,1-2.38-2.36c0-1,1.36-1.92,2.74-1.89a2.26,2.26,0,0,1,2.23,2.42"/><path class="cls-1" d="M65.18,97.47c.14.54.27,1,.35,1.4a1.85,1.85,0,0,1-2.07,2.31,5.71,5.71,0,0,1-1.62-.43c-1-.43-1.21-.84-.91-1.94a1,1,0,0,1,0-.16c.22-.62.28-1.42.71-1.78s1.1.22,1.68.33,1.11.16,1.81.27"/><path class="cls-1" d="M155.61,144.58a25.78,25.78,0,0,1,2.93,1.46c1,.63,1,1.45.12,2.24a3,3,0,0,1-2.46.86,2.05,2.05,0,0,1-1.89-1.45,2.52,2.52,0,0,1,1.3-3.11"/><path class="cls-1" d="M87.33,188.27l-.71,2.62c-1.08-.14-2.13-.2-3.14-.43a1.79,1.79,0,0,1-1.42-1.67c-.09-.85.44-1.31,1.18-1.61.46-.19.88-.46,1.33-.7.88.56,1.76,1.13,2.76,1.79"/><path class="cls-1" d="M116.5,138.61c0,1.32-.63,2.11-1.71,1.93a3.88,3.88,0,0,1-3-1.85,3.45,3.45,0,0,1-.2-1.76,1.17,1.17,0,0,1,.62-.72c1-.44,3.63.63,4.08,1.61a4.08,4.08,0,0,1,.23.79"/><path class="cls-1" d="M114.61,198.67l.51-1.15a2.17,2.17,0,0,1,3.09-1.47c1.14.37,2,1.65,1.7,2.53a2.52,2.52,0,0,1-3,1.37,23.93,23.93,0,0,1-2.29-1.28"/><path class="cls-1" d="M159.53,95.51a5.51,5.51,0,0,1,3.76,2.42c.71.93.24,1.95-.3,2.82a1.87,1.87,0,0,1-2.31.67c-.08-1.56,0-3.23-1.72-4.17.19-.58.37-1.14.57-1.74"/><path class="cls-1" d="M105.2,209.9c-2.17.39-3.08,0-4-1.49.35-.69.71-1.36,1-2a1.91,1.91,0,0,1,3.19-.23c.52.79,1,1.62.24,2.59a4.33,4.33,0,0,0-.51,1.17"/><path class="cls-1" d="M140.1,188.55c.49-.71.9-1.31,1.32-1.89a1.94,1.94,0,0,1,2.34-.8c1,.28,1,1,1,1.85,0,2-.79,2.68-3.26,2.84l-1.42-2"/><path class="cls-1" d="M116.21,178.44c.52-.77.84-1.16,1.07-1.59a2.43,2.43,0,0,0,.23-2.42c-.45-.77,0-1.11.66-1.66.9,1,1.9,2,2.69,3.11.67,1-.29,2.7-1.53,2.79a22.33,22.33,0,0,1-3.12-.23"/><path class="cls-1" d="M115.71,114.55c2.33-.42,3.68,0,4.27,1.14.79,1.62-.66,2.27-1.45,3.29l-3.17-1.49c.12-.94.23-1.91.35-2.94"/><path class="cls-1" d="M142.54,172.62l2.76-1.82c1.26.49,2.58.92,3.83,1.51a1.9,1.9,0,0,1,1,1.19c.06.29-.5.79-.88,1a4.52,4.52,0,0,1-1.42.44,1.06,1.06,0,0,1-1.29-.5,2.83,2.83,0,0,0-3.38-1.52,1.06,1.06,0,0,1-.48-.1s0-.09-.1-.23"/><path class="cls-1" d="M129.57,162.49c1.9.86,2.61,2.26,2.09,3.82a2.91,2.91,0,0,1-3.58,1.84c-.25-.77-.49-1.54-.79-2.48a4,4,0,0,0,2.28-3.18"/><path class="cls-1" d="M90,157.42a2.09,2.09,0,0,1-2.12,1.94,4.18,4.18,0,0,1-1.48-.24c-1.22-.39-1.71-.92-1.63-1.64a2.57,2.57,0,0,1,2.3-1.89,12.84,12.84,0,0,1,1.51.14c1.07.14,1.44.6,1.42,1.69"/><path class="cls-1" d="M146.37,178.53c1.31,2.23,3.32,2.71,5.66,2.5-.11.72-.19,1.26-.27,1.76-1.11.57-2.14,1.3-3.35.61a8.88,8.88,0,0,1-1.6-1.35c-.23-.23-.33-.59-.54-.84-1-1.18-1-1.18.1-2.68"/><path class="cls-1" d="M158.72,167.23h4.9c.13,1.09.42,2.36-1,3.21a2.8,2.8,0,0,1-3.3-.21,2.2,2.2,0,0,1-.62-3"/><path class="cls-1" d="M116,113.23c-.9-1.13-.34-2.35-.47-3.47,0-.23.54-.66.91-.78a2.69,2.69,0,0,1,3,1.3c.62.93.5,1.58-.51,3Z"/><path class="cls-1" d="M79.36,90.51,80.5,89l3.77.63c.51,2,0,3-1.51,3.5-1.25.38-2.6-.65-3.4-2.65"/><path class="cls-1" d="M100.92,201.69l-2.48-1.21A5.65,5.65,0,0,0,100,196a3.44,3.44,0,0,1,2.84,1.28,1.65,1.65,0,0,1-.12,2.52l-1.76,1.91"/><path class="cls-1" d="M72.48,119.77a3.33,3.33,0,0,1-4.78.36,1.81,1.81,0,0,1-.32-1.36,2.25,2.25,0,0,1,1.8-1.75,2.63,2.63,0,0,1,2.71,1.27c.23.44.37.93.59,1.48"/><path class="cls-1" d="M127.61,97V95.4c1-.43,1.93-.85,2.88-1.29a2,2,0,0,1,2.9,1.24,12.91,12.91,0,0,1,.19,2.29c-1.15-.25-2.1-.54-3.07-.65a27.87,27.87,0,0,0-2.9,0"/><path class="cls-1" d="M155.39,124.14,153,122.43c.07-.64.15-1.4.24-2.27h4a2.3,2.3,0,0,1,.63,2.61,2.24,2.24,0,0,1-2.46,1.37"/><path class="cls-1" d="M72.27,135.87a13.23,13.23,0,0,0-2.15.6,2.15,2.15,0,0,1-2.91-1.09,2,2,0,0,1,.63-2.54,2.11,2.11,0,0,1,3,.44,28.72,28.72,0,0,1,1.44,2.59"/><path class="cls-1" d="M64.2,117.63c-1.31,0-2.19-.73-2.19-1.79a2.53,2.53,0,0,1,2.7-2.39c1.33,0,2,.84,1.94,2.38,0,1-1.2,1.8-2.45,1.8"/><path class="cls-1" d="M66.84,179.21l-2.71-3.74,2-1.57C68.34,175,69,176,68.71,177.71c-.2,1.2-.69,1.55-1.87,1.5"/><path class="cls-1" d="M146,105.76V102.3c1.68-1,2.49-1.08,3.25-.2a3.05,3.05,0,0,1-.11,3.58c-.78.88-1.88.91-3.14.08"/><path class="cls-1" d="M118,166.94c-.22-1.19-.41-2.17-.6-3.21l1-.78a1.91,1.91,0,0,1,3,.42,1.85,1.85,0,0,1-.5,2.9,3.27,3.27,0,0,1-3,.67"/><path class="cls-1" d="M143.77,165.26c.25-1.16.5-2.27.78-3.56.24-.1.63-.3,1-.44a2,2,0,0,1,2.29.52,2.07,2.07,0,0,1,.05,2.22,2.82,2.82,0,0,1-4.16,1.26"/><path class="cls-1" d="M132.19,154.65c.12-2.93.76-2.21-1.38-5.24a4.38,4.38,0,0,1,3.8,1.32,2.31,2.31,0,0,1,.6,3c-.58.94-1.52,1.23-3,.88"/><path class="cls-1" d="M88.19,195.19a3.14,3.14,0,0,1,2.86,1,1.17,1.17,0,0,1,.19,1.52,3.22,3.22,0,0,1-4,1.52,1.4,1.4,0,0,1-.47-2.13c.44-.64.93-1.25,1.43-1.91"/><path class="cls-1" d="M134.4,103.1c1.34-1.83.35-3.71.67-5.49a7.58,7.58,0,0,0,.05-.9l.78-.07c.67,1.52,1.24,2.94,1.9,4.31a2,2,0,0,1,0,2.21c-.45.65-1.19.52-1.84.42a13.58,13.58,0,0,1-1.55-.48"/><path class="cls-1" d="M129.59,159c0,1.39-.84,2-1.88,1.65a12.34,12.34,0,0,0-2.06-.57c-1.13-.18-1.53-.79-1.12-1.86a2.57,2.57,0,0,1,4.3-.58,6.24,6.24,0,0,1,.76,1.36"/><path class="cls-1" d="M122.18,128.65l2.31-2.62a3.5,3.5,0,0,1,2.68,1.33,2,2,0,0,1,.25,2.06c-.32.69-1,.67-1.61.61-1.35-.13-2.86.1-3.63-1.38"/><path class="cls-1" d="M114.21,177.54c-.66-.11-1.22-.17-1.76-.3a1.37,1.37,0,0,1-1.13-1.29,1.34,1.34,0,0,1,.69-1.39,3.1,3.1,0,0,1,4,0,1.51,1.51,0,0,1-.42,2.68,5.6,5.6,0,0,1-1.38.27"/><path class="cls-1" d="M92.43,87.79c-.64-.35-1.59-.56-1.87-1.11-.38-.74.15-1.55.79-2.2a2.5,2.5,0,0,1,3-.69,1.46,1.46,0,0,1,.75,2.4,4.61,4.61,0,0,1-2.68,1.6"/><path class="cls-1" d="M64.28,87.56l2.21,1.54a1,1,0,0,1,0,.4c-.2.83,0,1.84-1.28,2.07a4.32,4.32,0,0,1-3.49-1.25,1.63,1.63,0,0,1,.88-2.43c.53-.15,1.08-.22,1.65-.33"/><path class="cls-1" d="M61.53,136c-.05.9-.09,1.61-.14,2.35a4.58,4.58,0,0,1-5.27-.68c-.21-.2-.45-.63-.37-.82a1.19,1.19,0,0,1,.8-.66,8.43,8.43,0,0,0,3.07-.67c.48-.21,1.29.3,1.91.48"/><path class="cls-1" d="M100.69,129.47a6,6,0,0,0,3.64,1.91c.68.07.87.65.89,1.24a1.69,1.69,0,0,1-1.4,1.65,2.58,2.58,0,0,1-2.74-1.11c-.78-1.18-1.25-2.18-.39-3.69"/><path class="cls-1" d="M111,204.73c.08-1.06.1-1.95.24-2.82,0-.33.4-.91.55-.89a10,10,0,0,1,2.85.62c.63.29.63,1.85.2,2.66a2,2,0,0,1-2.44,1,9.9,9.9,0,0,1-1.4-.57"/><path class="cls-1" d="M52.2,153.94c-1.76.64-2.65.35-3.62-1-1.26-1.79-1-2.52,1-3.4.71-.31,1.38-.83,2.17.09-.38,1.39-1.17,2.92.44,4.34"/><path class="cls-1" d="M61.46,177.73a3.11,3.11,0,0,1,2.89,1.37,1.51,1.51,0,0,1-1.07,2.49,3.81,3.81,0,0,1-3.17-1.22c-.55-.57-.33-1.25-.13-1.89.26-.87,1-.67,1.48-.75"/><path class="cls-1" d="M154.62,92c1.68-.23,2.5.16,2.8,1.33.43,1.65,0,2.9-1.17,3.28s-1.94,0-2.63-1.39l1-3.22"/><path class="cls-1" d="M89.43,80.75c-1.57,0-2.22-.47-2.19-1.62a2.16,2.16,0,0,1,2-2.37c1.4,0,2.65,1,2.57,2a2,2,0,0,1-2.4,2"/><path class="cls-1" d="M105.54,114.31a2.8,2.8,0,0,1-3,2.86,1.47,1.47,0,0,1-1.38-1.26c-.19-.89.17-2.3.77-2.41.9-.16,1.75-.68,2.76-.39a1,1,0,0,1,.89,1.2"/><path class="cls-1" d="M119.2,161.4a13.17,13.17,0,0,0-.52-1.74,10.5,10.5,0,0,0-.86-1.4c.86-1.56,2.39-1.81,3.43-.52a4.9,4.9,0,0,1,1,1.87c.32,1.29-.53,2.1-1.86,1.93l-1.18-.14"/><path class="cls-1" d="M53.76,126.83v3a4.17,4.17,0,0,1-4.3-.32,1.44,1.44,0,0,1-.21-1.72c.26-.62.6-1.23,1.47-1.09a12.44,12.44,0,0,0,1.49.22,15.22,15.22,0,0,0,1.55-.11"/><path class="cls-1" d="M88.84,182.88a2.22,2.22,0,0,1,2.23,1.79c.11.86-.36,1.32-1.11,1.64-1.56.65-2.5.51-3.45-.58-.65-.75-.64-1.46.2-1.95a13.84,13.84,0,0,1,2.13-.9"/><path class="cls-1" d="M80.28,137.34c.55.81,1,1.51,1.46,2.13A1.38,1.38,0,0,1,82.1,141a1.53,1.53,0,0,1-1.39,1.06,7.55,7.55,0,0,1-1.49-.16,2,2,0,0,1-1.65-1.26c-.31-.86.3-1.36.85-1.83s1.31-1,1.86-1.46"/><path class="cls-1" d="M78.64,151.16c1.59-1.15,3-.67,4.39.23,1.1.73,1,1.78-.23,2.25A5.71,5.71,0,0,1,81,154c-2,.05-2.63-.72-2.38-2.85"/><path class="cls-1" d="M73.73,176.82c1.06-1.21.41-3.35,2.7-4.17.17.25.32.67.62.87.73.52,1.35,1.14,1.13,2A2.59,2.59,0,0,1,76,177.48a2.28,2.28,0,0,1-2.31-.66"/><path class="cls-1" d="M93.52,167a4.86,4.86,0,0,1-4.62,1.72c-1.46-.29-2-.89-2-2.4,0-.33,0-.67,0-1a1.35,1.35,0,0,1,2,.24c1.2,1.38,2.85,1.4,4.57,1.44"/><path class="cls-1" d="M135.84,88l-2.67,1c-.51-.45-1.07-.9-1.58-1.4a1,1,0,0,1,.06-1.58c.13-.11.26-.21.38-.33.67-.65,1.24-1.47,2.41-.88A2.6,2.6,0,0,1,136,87.68a1.13,1.13,0,0,1-.13.36"/><path class="cls-1" d="M138.16,181.68c.38-.81.82-1.58,1.12-2.4a2.12,2.12,0,0,1,1.66-1.49c.54-.09,1.42.87,1.68,1.71a1.81,1.81,0,0,1-.53,2.14,3.38,3.38,0,0,1-3.93,0"/><path class="cls-1" d="M150.75,105.82c.05-.82.07-1.31.1-1.81a1.7,1.7,0,0,1,1.5-1.88,2.2,2.2,0,0,1,2.54.76c.72,1-.28,2.91-1.76,3.11a12,12,0,0,1-2.38-.18"/><path class="cls-1" d="M165.31,107.29c-.61-1.62-1.15-3.07-1.75-4.69l1.44-1.19a3.4,3.4,0,0,1,2.47,2.62c.3,1.72-1.07,2.39-2.16,3.26"/><path class="cls-1" d="M92.69,203.34a3.66,3.66,0,0,1-3.11-1.75c-.35-.52-.3-1,.37-1.35,1.82-1,3-.89,4,.58.36.52.7,1.05.34,1.69a1.58,1.58,0,0,1-1.64.83"/><path class="cls-1" d="M95.76,96h3.08c.13,1.21.25,2.35.36,3.46a3.47,3.47,0,0,1-3.84-.39c-.57-.62-.41-1.85.4-3.07"/><path class="cls-1" d="M66.25,132.88a1.5,1.5,0,0,1-1.56,1.41,6.65,6.65,0,0,0-2,.72,1.51,1.51,0,0,1-2.18-.77c-.5-1-.32-1.79.65-2.24a2.32,2.32,0,0,1,2.63,0,9.15,9.15,0,0,0,2.47.88"/><path class="cls-1" d="M62.38,148.78v-3.27c1.48-.76,2.37-.56,3.26.71,0,.05,0,.1.08.14.4.66,1.12,1.29.64,2.11a2.19,2.19,0,0,1-2.41.79,9.41,9.41,0,0,1-1.57-.48"/><path class="cls-1" d="M83.13,105.89c.06,2.15.84,3.76,2.76,4.59a1.83,1.83,0,0,1,0,.4c-.18.28-.38.56-.57.83l-.18-.37c-1,0-1.94,0-2.91,0-.33,0-.69.2-1,.13-.46-.1-1.08-.23-1.27-.56-.3-.53.22-.9.69-1.15a5.26,5.26,0,0,0,2.5-3.88"/><path class="cls-1" d="M65.39,135.1l2.27,2.55c-.18.82-.38,1.67-1.57,1.7A3.5,3.5,0,0,1,63,137.74a1.51,1.51,0,0,1,.66-1.89,9,9,0,0,1,1.76-.75"/><path class="cls-1" d="M152.25,184.13a3,3,0,0,1,2.58,2,2.55,2.55,0,0,1-.34,1.54c-.3.5-.82.35-1.34.13a8.3,8.3,0,0,0-1.91-.52,1.48,1.48,0,0,1-1.27-1.36c-.13-.78.4-1.06,1-1.28s1-.41,1.26-.51"/><path class="cls-1" d="M119.32,179.93c-.1,2-1.1,2.65-2.9,1.9-.72-.3-1.48-.48-2.26-.73a.11.11,0,0,1-.07-.08c-.24-.74-.73-1.54,0-2.19s1.37-.06,2.06.16c1,.33,2.12.63,3.18.94"/><path class="cls-1" d="M73.31,165.66a24.58,24.58,0,0,1,4.91-.08c.56,0,.84.46.8,1.07a2.46,2.46,0,0,1-3.14,2.13,1.48,1.48,0,0,1-.61-.51c-.61-.77-1.18-1.57-2-2.61"/><path class="cls-1" d="M62.51,156l2.81-3.55.42-.09A2.24,2.24,0,0,1,68.42,154a1.57,1.57,0,0,1-1.72,1.77,20,20,0,0,0-2.14-.3,10.35,10.35,0,0,0-2.05.48"/><path class="cls-1" d="M155.72,125.09c.3.1.75.16.77.28a4.11,4.11,0,0,0,2.83,3.17c-1.13,1.5-2.14,2.91-.75,4.63l-1,1.24-1.08-.64c.21-.48.44-.91.6-1.36a3.48,3.48,0,0,0-.81-3.76,2.93,2.93,0,0,1-.51-3.56"/><path class="cls-1" d="M74.9,98.68c-.27,1.69-.44,2.94-.67,4.18a1.12,1.12,0,0,1-1.38.93c-.89-.12-1.83-.26-2.28-1.18-.32-.66.07-1.2.53-1.64a13.47,13.47,0,0,1,3.8-2.29"/><path class="cls-1" d="M56.79,94.45a17.69,17.69,0,0,0,1.68,2.09A1.25,1.25,0,0,1,58.85,98a1.37,1.37,0,0,1-1.29,1.13,3,3,0,0,1-2.71-1.36,1.51,1.51,0,0,1,.27-2c.51-.5,1.11-.9,1.67-1.35"/><path class="cls-1" d="M99.59,90.94l-.67-3.57a2,2,0,0,1,2.72.18,3.42,3.42,0,0,1,1.54,2.64c0,.72-.33,1.19-1.12,1.1s-1.73-.24-2.47-.35"/><path class="cls-1" d="M103.81,150.68a3.86,3.86,0,0,1-.66-.05c-.94-.17-1.6-.74-1.63-1.42a2.39,2.39,0,0,1,1.36-1.94,3.69,3.69,0,0,1,1-.19c1.53-.14,2.14.34,2.2,1.72s-.5,1.9-2.26,1.88"/><path class="cls-1" d="M61.48,106.58l3.66-.74a11.91,11.91,0,0,1,.8,1.57c.44,1.22-.09,2-1.37,2a3.75,3.75,0,0,1-2.65-.83c-.82-.64-.86-.93-.44-2"/><path class="cls-1" d="M162.1,117.41c-.11-.07,0,0,0,0,.45.62,1.15,1.22.71,2.07a2.62,2.62,0,0,1-2.36,1.37,1.44,1.44,0,0,1-1.43-.67,14.93,14.93,0,0,0-1-1.28l.55-1.48Z"/><path class="cls-1" d="M85.31,148.84a2.51,2.51,0,0,1-2.24-1.39c-.45-.9.12-1.63.56-2.32a1.44,1.44,0,0,1,2-.15c.31.23.56.54.86.8.6.52,1.28,1.07.9,2s-1.3,1-2,1.1"/><path class="cls-1" d="M134.52,198.12a11.1,11.1,0,0,1,1.25.62,1.59,1.59,0,0,1,.25,2.7,5.89,5.89,0,0,1-2.45.87,1.68,1.68,0,0,1-2-.68l2.93-3.51"/><path class="cls-1" d="M82.31,180.71a4.58,4.58,0,0,1-3-2.1c-.28-.76.47-2,1.21-1.8,1.11.28,2.35.46,3,1.55A2.67,2.67,0,0,1,84,179.6c0,.9-.38,1.14-1.64,1.11"/><path class="cls-1" d="M109.89,199.35c.37-1.17.71-2.23,1.08-3.41a3.09,3.09,0,0,1,2.77-.06,1.16,1.16,0,0,1,.6.85,3.22,3.22,0,0,1-4.45,2.62"/><path class="cls-1" d="M112.22,189.17c.24-.26.46-.58.74-.83a2,2,0,0,1,2.31-.54,1.91,1.91,0,0,1,1.19,1.85,2.32,2.32,0,0,1-1.27,2.36,1,1,0,0,1-1.44-.36c-.51-.79-1-1.6-1.53-2.48"/><path class="cls-1" d="M70.13,100.38c-.72,1-1.32,2-2,2.85a1.51,1.51,0,0,1-2.21.33c-.62-.45-.62-1.24-.08-2.08s1-1.61,1.44-2.46l2.84,1.36"/><path class="cls-1" d="M52.43,155.36c.4.2.78.42,1.18.6,1.65.79,1.83,1.12,1.52,2.82-.16.93-.55,1.22-1.5,1.09a2.56,2.56,0,0,1-2.26-1.74,2.29,2.29,0,0,1,1.06-2.77"/><path class="cls-1" d="M115.14,123.35c-2,0-2.15-.13-2.09-1.81a6.54,6.54,0,0,1,.32-1.63,1.16,1.16,0,0,1,.5-.63c.65-.36,2.78.71,3.12,1.52a2,2,0,0,1-1.2,2.46,1.84,1.84,0,0,1-.65.09"/><path class="cls-1" d="M88.72,123.1c-.84,1.17-1.78,2-3.25,1.77-1.23-.17-1.53-.82-.91-1.86,1-1.71,1.06-1.89.64-3.93a2.08,2.08,0,0,1,.47-.1,3.78,3.78,0,0,1,.59.1,3.82,3.82,0,0,0,2.46,4"/><path class="cls-1" d="M78.51,91.39,81,94.24c-.67,1-1.22,1.25-2.64.94a3.09,3.09,0,0,1-2.7-2.84l2.9-1"/><path class="cls-1" d="M62.81,92.54l4.23.22s.08.08.08.12c-.08.94.37,2.09-.85,2.62a3.76,3.76,0,0,1-3.49-.5c-.27-.15-.42-.74-.41-1.13a5.16,5.16,0,0,1,.44-1.33"/><path class="cls-1" d="M58.52,126.16c.25.4.5.77.71,1.16a1.8,1.8,0,0,1-.32,2.55,2.66,2.66,0,0,1-2.79-.46,5.67,5.67,0,0,1-.79-1.45,1.13,1.13,0,0,1,1.08-1.61c.66-.07,1.31-.12,2.11-.19"/><path class="cls-1" d="M74.89,158.57c.15-.58.28-1.12.39-1.59,1.63-1,3.06-.5,4.45.31a1.59,1.59,0,0,1,.61,1.91,1.32,1.32,0,0,1-1.74.51c-.62-.25-1.21-.62-1.84-.82a14.26,14.26,0,0,0-1.87-.32"/><path class="cls-1" d="M126.69,139.34l-1.32-1.88a11.37,11.37,0,0,0,1.46-1.22,13.55,13.55,0,0,0,1.13-1.67,2.19,2.19,0,0,1,2.27,2,1.29,1.29,0,0,1-.5.92c-.95.65-2,1.22-3,1.88"/><path class="cls-1" d="M102.69,107.11c1.35,2.08,1.32,3.21,0,4.55a1.41,1.41,0,0,1-2.37-.64,3.51,3.51,0,0,1,2.42-3.91"/><path class="cls-1" d="M63.91,168.88c.21-.47.44-1,.71-1.65H67.4c.24,1.07.45,2.09.68,3.11.12.56,0,1.06-.56,1.22a1.3,1.3,0,0,1-1.51-.39c-.63-.78-1.35-1.49-2.1-2.29"/><path class="cls-1" d="M73.9,157.62a2.9,2.9,0,0,1-3.19,1.57c-1.59-.3-2-.72-2.3-2.13,2.18-1.46,4-1.27,5.49.56"/><path class="cls-1" d="M86.89,140.15c.68.57,1.37,1,2,1.64.86.88.64,1.63-.54,2a3.3,3.3,0,0,1-3-.29,1.45,1.45,0,0,1,0-2.51,10.92,10.92,0,0,1,1.65-.8"/><path class="cls-1" d="M147.75,152.91a4.06,4.06,0,0,0-.74-4.1l4.51.52c.22,2.54-1.28,4-3.77,3.58"/><path class="cls-1" d="M102.35,183.88a24.14,24.14,0,0,1-2.67-.74,4.6,4.6,0,0,1-1.16-.94c1.06-.64,2-1.17,2.87-1.74a2.26,2.26,0,0,1,2.37,0c.57.63.22,1.25-.14,1.84a9.86,9.86,0,0,1-.66,1,5.66,5.66,0,0,1-.61.57"/><path class="cls-1" d="M93.2,149l-3.06-1.72c-.17-.68-.38-1.53-.6-2.39,1.3-.89,2.29-.56,4,1.36.77.86.69,1.54-.36,2.75"/><path class="cls-1" d="M69,179.83c2.07-1.78,3.64-1.91,5.55-.42a2.71,2.71,0,0,1-1.15,1.91,1.78,1.78,0,0,1-2.43,0c-.61-.48-1.25-.93-2-1.47"/><path class="cls-1" d="M91.52,157.13a7.72,7.72,0,0,1,0-1.18,1.82,1.82,0,0,1,1.93-1.5,1.46,1.46,0,0,1,1.46,1.85,4.26,4.26,0,0,1-1.1,2.16,2.33,2.33,0,0,1-1.86.23c-.87-.2-.44-1-.44-1.56"/><path class="cls-1" d="M58.44,169.73c-1.74,1-3.38.79-4.41-.42a1.53,1.53,0,0,1-.27-2c.47-.7,1.16-.55,1.82-.32a10.06,10.06,0,0,1,1.69.71,1.92,1.92,0,0,1,1.17,2"/><path class="cls-1" d="M68.72,146.13a4,4,0,0,1,1.47.45,6.89,6.89,0,0,1,1.63,1.86,1.48,1.48,0,0,1-1,1.9,2.88,2.88,0,0,1-3-.51c.3-1.28.56-2.4.86-3.7"/><path class="cls-1" d="M118,208.68c-1.41,0-2.07-.65-1.89-1.88a1.37,1.37,0,0,1,.23-.6,3.37,3.37,0,0,1,3.89-.45,1,1,0,0,1,.26,1.72,3.18,3.18,0,0,1-2.49,1.21"/><path class="cls-1" d="M79.27,162.58a3.79,3.79,0,0,1-4.41,1.52,1.34,1.34,0,0,1-.73-1.79,1.69,1.69,0,0,1,1.71-1.12,4.46,4.46,0,0,1,3.43,1.39"/><path class="cls-1" d="M76,179.42c2.36-.64,3,1.32,4.31,2.21-.94,1.43-1.4,1.62-2.77,1.18-.31-.11-.62-.25-.92-.39-1.09-.5-1.25-.8-1-1.94a10.13,10.13,0,0,1,.37-1.06"/><path class="cls-1" d="M103.27,187.82c.33-1,0-2.19,1.24-2.87.46-.26.75-.9,1.41-.56s1.47.88,1.48,1.87a2.43,2.43,0,0,1-1,2.14l-3.13-.58"/><path class="cls-1" d="M125.75,55.34c.14.13.22.18.21.2-1.15,3.19,0,6.06,1.36,8.84.63,1.25,1.46,2.39,2.19,3.58a2.23,2.23,0,0,1,.42,1.32,4.25,4.25,0,0,1-1-.68,19,19,0,0,1-4.18-8.69,5.4,5.4,0,0,1,1-4.57"/><path class="cls-1" d="M89.66,150.16a11,11,0,0,1,1.44.78c.54.38.91,1,.53,1.6a2.29,2.29,0,0,1-1.45.93,5.49,5.49,0,0,1-2-.36,1.41,1.41,0,0,1-1.12-1.64c.07-.88.67-1.23,1.52-1.22.22,0,.44,0,1-.09"/><path class="cls-1" d="M79.5,113.17c-.15.25-.4.68-.67,1.16A3.29,3.29,0,0,1,76.07,113a1.85,1.85,0,0,1-.17-2.32c.5-.87,1.19-.63,1.91-.46l.43.11c.41.93.8,1.83,1.26,2.89"/><path class="cls-1" d="M52.09,143.26a2.57,2.57,0,0,1-2.63,2.32,2.13,2.13,0,0,1-2.18-1.73,1.15,1.15,0,0,1,1.35-1.56c1.13.24,2.23.62,3.46,1"/><path class="cls-1" d="M96.74,147.29a18.5,18.5,0,0,1-.8-2.47,1.72,1.72,0,0,1,.35-1.31,1.29,1.29,0,0,1,1.2,0c1.14.65,2.17,1.44,2.11,3,0,.87-.35,1.19-1.23,1.19a6.53,6.53,0,0,1-1.17-.11,1.28,1.28,0,0,1-.46-.23"/><path class="cls-1" d="M90.58,111.21c-.2,1.21-.37,2.19-.54,3.21-1.36.46-2.41-.27-3.41-.92a1.29,1.29,0,0,1,.55-2.15,5.77,5.77,0,0,1,3.4-.14"/><path class="cls-1" d="M82.3,159.69c0,3.35,0,3.35,1.39,4.91a2.46,2.46,0,0,1-3.37.15,1.4,1.4,0,0,1-.27-1c.11-.86.34-1.71.55-2.72l1.7-1.3"/><path class="cls-1" d="M125.75,165a12.27,12.27,0,0,1-1.45-.27,1.35,1.35,0,0,1-1-1.81c.17-.92.54-1.24,1.53-1.1a7.57,7.57,0,0,1,2.37.65c1.06.56,1,1.4,0,2a6.41,6.41,0,0,1-1.45.5"/><path class="cls-1" d="M135.24,117.94c.72-1,1.34-1.9,2.11-3a2.13,2.13,0,0,1,2.17,1c.75,1.09.52,2.07-.74,2.52a3.24,3.24,0,0,1-3.54-.48"/><path class="cls-1" d="M141.69,176.32c.28-.51.58-1,.88-1.57a1.46,1.46,0,0,1,2.1-.62,2.79,2.79,0,0,1,1.24,2.44,1.71,1.71,0,0,1-.8,1,2.63,2.63,0,0,1-3.42-1.22"/><path class="cls-1" d="M99.88,95.6c0-.06.15-.63.35-.66a2.73,2.73,0,0,1,1.74.14,4.23,4.23,0,0,1,1.45,1.79,2,2,0,0,1-.21,1.67,1.8,1.8,0,0,1-1.5.22c-1.29-.32-1.8-1.21-1.83-3.16"/><path class="cls-1" d="M69.35,122.08c3.17-.08,4.07-.78,4.74-3.55,1,.1.49.88.61,1.36s.28,1.06.44,1.65a8.07,8.07,0,0,0-.78,1,1.45,1.45,0,0,1-1.55.71c-1,0-2.09,0-3.31,0l-.15-1.19"/><path class="cls-1" d="M132.72,162.05a3.42,3.42,0,0,1,5.11-.59c.53.61.07,1.65-.89,1.9a4.18,4.18,0,0,1-4.22-1.31"/><path class="cls-1" d="M84.23,183.12c-.08.67-.17,1.16-.18,1.66a1.27,1.27,0,0,1-1.2,1.37,7.67,7.67,0,0,1-2.34-.59c-.11,0-.17-.4-.15-.61a2.78,2.78,0,0,1,1.41-2.33,2,2,0,0,1,2.46.5"/><path class="cls-1" d="M119.14,137.1h-1.53a4.12,4.12,0,0,0,.28-.31l-2.11-2.09c1.06-1.19,2.51-1.72,3.42-1.07s.8,1.91-.06,3.47"/><path class="cls-1" d="M56.2,109.55c-.06.62-.09,1-.14,1.38-.19,1.56-.7,1.9-2.22,1.47-.16-.05-.31-.12-.47-.18-1.08-.42-1.57-1-1.45-1.58a2.13,2.13,0,0,1,1.85-1.47,15.64,15.64,0,0,1,2.43.38"/><path class="cls-1" d="M84.7,133.3c-.34-.82-1.07-1.58-.08-2.52a7.92,7.92,0,0,0,4.27.95c.26,0,.74.24.77.44a1.27,1.27,0,0,1-.28,1,2.58,2.58,0,0,1-2.61.65c-.64-.2-1.29-.34-2.07-.54"/><path class="cls-1" d="M59.06,150.84c1.53-.08,2.25,1.1,3.24,1.77.59.39.37,1-.09,1.43-.93.91-2.38.84-3.85-.23.13-.46.29-.93.4-1.41s.2-1,.3-1.56"/><path class="cls-1" d="M141.76,185c-.27-.47-.55-.95-.76-1.33.87-.57,1.7-1.18,2.6-1.68a1.88,1.88,0,0,1,1.38-.23c.36.14.61.71.76,1.14a2.58,2.58,0,0,1,0,1.17,1,1,0,0,1-1.3.95,25.58,25.58,0,0,0-2.65,0"/><path class="cls-1" d="M79.34,132.4l2.51.13c.17.18.27.25.31.34.75,1.67.41,2.45-1.37,2.86a2.07,2.07,0,0,1-2.27-.36c.25-.91.51-1.87.82-3"/><path class="cls-1" d="M117.78,191.12l3.75-2.21c1,.45,1.37.93,1.2,1.71a2.25,2.25,0,0,1-2.06,1.82c-1.1-.06-2.24-.11-2.89-1.32"/><path class="cls-1" d="M73.84,146.43c1.88-.38,3,.43,3.15,2.33a1.34,1.34,0,0,1-1.31,1.59c-1.16,0-1.82-.46-1.84-1.41s0-1.65,0-2.51"/><path class="cls-1" d="M54.58,149.63a2.17,2.17,0,0,1,2,2.26A1.59,1.59,0,0,1,55,153.33a2.23,2.23,0,0,1-2.2-2.09,1.56,1.56,0,0,1,1.75-1.61"/><path class="cls-1" d="M135.5,77.11a9.79,9.79,0,0,1-1.31-.57,36,36,0,0,1-7.31-6.47,5.6,5.6,0,0,1-1.6-4c1.68,4.06,5.13,6.47,8.33,9.11.52.43,1,.84,1.57,1.28.08.06.1.19.32.64"/><path class="cls-1" d="M106.39,146.05l1.12-1.49c.8.42,1.57.85,2.37,1.22a1.28,1.28,0,0,1,.55,2.13c-.61.74-1.36,1.16-2.14.76l-1.9-2.62"/><path class="cls-1" d="M59,163.87a3.11,3.11,0,0,1-2.7-1.68c-.44-.85-.1-1.37.85-1.43a5.91,5.91,0,0,1,3.44,1.09.82.82,0,0,1,0,1.48,10.6,10.6,0,0,1-1.58.54"/><path class="cls-1" d="M85.25,150.58c1.09.41.36,1.12.53,1.59s.31,1.07.5,1.76c-.61.58-1.26,1.26-2,1.85s-.38,1.83-1.25,2.34l-1.78-2.88A20.12,20.12,0,0,0,84.42,154c1.24-.72.87-2.12.83-3.44"/><path class="cls-1" d="M54.76,161.51a14.39,14.39,0,0,1,.46,1.72,13,13,0,0,1,0,1.65c-1.29.5-2.36.39-2.94-.34a2.11,2.11,0,0,1-.17-2.24c.5-1.19,1.56-.82,2.64-.79"/><path class="cls-1" d="M53.35,144.23c.6.68,1.26,1.33,1.82,2.06a.87.87,0,0,1-.39,1.4,7.89,7.89,0,0,1-2.58.47c-.35,0-.85-.54-1-.95s.22-.79.47-1.12c.43-.56.95-1.06,1.68-1.86"/><path class="cls-1" d="M152.72,123.47c.73.63,1.56,1.2,1.49,2.39-.06,1-.41,1.46-1.41,1.48a4.89,4.89,0,0,1-2-.28,1,1,0,0,1-.25-1.65c.68-.64,1.37-1.26,2.12-1.94"/><path class="cls-1" d="M140.94,117.9c0-2.48-1.16-4-4.06-4.17l-.64-1.6c1.7,1,3.16,1.69,4.84,1.49a.37.37,0,0,1,.3.1,3.33,3.33,0,0,1,1.08,2.72c0,.86-.6,1.24-1.52,1.46"/><path class="cls-1" d="M112.08,206.43h2.11c1,1.33,1,2,0,2.86a1.94,1.94,0,0,1-2.59.13c-.6-.59-.41-1.85.47-3"/><path class="cls-1" d="M64,142.48c-1,.55-1.56,1-2.21,1.25a2,2,0,0,1-2.23-.73,1.54,1.54,0,0,1,.38-1.84,10.85,10.85,0,0,1,1.3-1.16L64,142.48"/><path class="cls-1" d="M54.89,172.51a5,5,0,0,1,3.54.45,1.47,1.47,0,0,1,.81,1.8,1.51,1.51,0,0,1-2,.81,3.58,3.58,0,0,1-2.39-3.06"/><path class="cls-1" d="M118,189a5.06,5.06,0,0,0-3.85-2.49c1.32-.35,2.26-.6,3.22-.84a1.83,1.83,0,0,1,.66-.06c.8.09,1.66.2,2,1.07s-.48,1.4-1.1,1.86a7.47,7.47,0,0,1-.88.46"/><path class="cls-1" d="M57.55,140.82c-.12.8-.24,1.67-.36,2.54-2.32.52-3.62-1.81-2.66-4.32l3,1.78"/><path class="cls-1" d="M61.7,157.6c-.87,1.33-1.18,1.37-3.87.48L57,154.63c1.54,1.15,3.8.94,4.75,3"/><path class="cls-1" d="M143.54,143.55l1.61.65v3l-3.26,1-.89-1.45a3.43,3.43,0,0,0,2.54-3.17"/><path class="cls-1" d="M130.38,161.19c1.06-1.63.48-3-.37-4.4l1.17-.74c1.14.95,2.32,1.8,1.86,3.48-.35,1.26-1,1.69-2.66,1.66"/><path class="cls-1" d="M52.65,138.3c-.19.88-.39,1.73-.58,2.62-1.59.28-2.5-.61-3.3-1.65a1.34,1.34,0,0,1,.24-1.93l3.64,1"/><path class="cls-1" d="M146.46,192.58c-.18.88-.56,1.51-1.48,1.6a3.78,3.78,0,0,1-3-.74c-.6-.52-.11-1.78.83-1.87,1.3-.12,2.69-.22,3.65,1"/><path class="cls-1" d="M129.55,141.79c-1.13,0-2.09-.44-2.15-1s.83-1.74,1.55-2.09a2.27,2.27,0,0,1,2.69,1.39c.14.9-.83,1.68-2.09,1.66"/><path class="cls-1" d="M84.37,166.27a3.57,3.57,0,0,1,.75.72,1.19,1.19,0,0,1-.87,1.88,10.55,10.55,0,0,1-3.07-.62c-.62-.2-.59-.38-.5-1.72l3.69-.26"/><path class="cls-1" d="M138.78,103.56c.2.13.32.17.38.25.41.55,1.21,1,.58,1.85a2.2,2.2,0,0,1-2.45.53.67.67,0,0,1-.14-.09,3.86,3.86,0,0,0-4-1c-.11-1.37.11-1.58,1.11-1.19a11,11,0,0,0,1.07.45c1.29.31,2.56.42,3.45-.8"/><path class="cls-1" d="M104.68,203.66a6.39,6.39,0,0,1-1-.21c-.78-.27-.94-.71-.54-1.41a6.41,6.41,0,0,1,.73-.92c.94-1.07,1.46-1.1,2.45-.15a1.45,1.45,0,0,1,.58,1.62,1.54,1.54,0,0,1-1.4,1,8,8,0,0,1-.8,0"/><path class="cls-1" d="M59.8,101.34a22.75,22.75,0,0,0,2.35.94,14.49,14.49,0,0,0,2,.26c.43,1.59-.07,2.27-1.57,2.22a3.24,3.24,0,0,1-2.79-1.88c-.19-.34,0-.91,0-1.54"/><path class="cls-1" d="M71.67,143.61c.16-.61.33-1.26.49-1.85,2.38-.44,2.77-.2,3.63,2.14a2.81,2.81,0,0,1-4.12-.29"/><path class="cls-1" d="M95.82,114.66c-1.93.84-3.71.22-4.34-1.36-.27-.68.13-1.44,1.12-2.1,1.06,1.67,1.06,1.67,3,2.17.07.39.15.81.24,1.29"/><path class="cls-1" d="M100.23,134.84c-3.1,1.68-3.57,1.69-4.68,0a4.62,4.62,0,0,0,3.39-3.23l1.29,3.24"/><path class="cls-1" d="M121.43,148.93h-.65c-.69,0-1.41-.07-1.55-1a1.58,1.58,0,0,1,1.4-1.62,5.94,5.94,0,0,1,1.51-.13,1.4,1.4,0,0,1,1.41,1.38c.07.92-.54,1.14-1.26,1.25-.39.06-.78.07-.86.08"/><path class="cls-1" d="M91,193.1,94,192c.68.32,1.53.62,1.48,1.65,0,.59-1.42,1.46-2.23,1.52-1.3.11-2.07-.6-2.23-2.05"/><path class="cls-1" d="M111.32,148.91c.16-1,.31-1.89.48-2.9.26-.09.65-.17,1-.32.8-.36,1.29.05,1.7.65a1.57,1.57,0,0,1-.17,2,2.41,2.41,0,0,1-3,.57"/><path class="cls-1" d="M62,123.05l1.43,1.1A2.66,2.66,0,0,0,64,127.8a1.53,1.53,0,0,1-1.92-.39,8.64,8.64,0,0,1-1.52-1.79,1.35,1.35,0,0,1,0-1.19A9.28,9.28,0,0,1,62,123.05"/><path class="cls-1" d="M78.49,143.56c.78,0,1.45,0,2.12,0,.91.05,1.16.38,1,1.27A2.07,2.07,0,0,1,79,146.48a7.67,7.67,0,0,1-1.41-.75c.34-.85.62-1.54.88-2.17"/><path class="cls-1" d="M62.36,163.44c.89-.24,1.51-.45,2.14-.58a2.52,2.52,0,0,1,2.5,1.81,1.08,1.08,0,0,1-1.28,1.3c-1.53-.18-2.4-1.24-3.36-2.53"/><path class="cls-1" d="M52.62,122.75l.51,2.23c-.76,1-1.73.82-2.72.45a1.28,1.28,0,0,1-.58-2.13,2.39,2.39,0,0,1,2.79-.55"/><path class="cls-1" d="M110.14,188.47c-.23-.13-.91-.3-1.09-.7a1.92,1.92,0,0,1,.33-1.47,2,2,0,0,1,2.64-.72c.49.23,1.07.47.9,1.2a3.08,3.08,0,0,1-2.78,1.69"/><path class="cls-1" d="M86.4,176.6a3.65,3.65,0,0,1,2.41,2,1.18,1.18,0,0,1-1,1.74,1.76,1.76,0,0,1-2.17-2.29,8.87,8.87,0,0,1,.72-1.46"/><path class="cls-1" d="M68.11,143.59c-1.79-.06-2.34-.63-2.1-1.9a1.36,1.36,0,0,1,2.21-1,4.45,4.45,0,0,1,.9.72c.39.38,1,.84.59,1.38s-1,.55-1.52.8c-.1,0-.22,0-.08,0"/><path class="cls-1" d="M130.89,193.15c.58-.47,1.08-.89,1.6-1.29a1.52,1.52,0,0,1,1.86.16,1.6,1.6,0,0,1,.82,1.84c-.21.55-.88.92-1.3,1.32l-3-2"/><path class="cls-1" d="M147.25,184l1.49.61c.16.87.33,1.72.51,2.63l-2.61,1c-1.15-1.58,0-2.79.61-4.23"/><path class="cls-1" d="M90.61,127.76c-.4.36-.81.71-1.2,1.09a2.41,2.41,0,0,1-2.81.35c-.69-.26-.79-.75-.37-1.32,1.24-1.65,2.92-1.7,4.38-.12"/><path class="cls-1" d="M67.11,161.86c2.07-.2,3.64-.07,4.77,1.49-.47,1.22-1.53,1.19-2.52,1.17-1.7,0-1.24-1.75-2.25-2.66"/><path class="cls-1" d="M116.45,201.15c1.2.36,2.49-.13,3.5.77-.16,1.77-.28,1.88-1.93,2-.28,0-.56.05-.84.07l-.76.06a1.27,1.27,0,0,1-.12-.41c0-.77.09-1.54.15-2.45"/><path class="cls-1" d="M71.82,137.2,75.07,139a4.29,4.29,0,0,1-4,.91c-.94-.27-1.12-.86-.49-1.65a7.93,7.93,0,0,1,1.27-1.1"/><path class="cls-1" d="M122.16,206.6l-1.71-2.37a5.31,5.31,0,0,1,.24-.5c.3-.52.52-1.19,1.32-1a2.08,2.08,0,0,1,1.63,1.5,1.38,1.38,0,0,1-.45,1.79c-.36.24-.74.46-1,.63"/><path class="cls-1" d="M100.45,188l-1.91-.38c.43-1.2.84-2.31,1.27-3.5a2.09,2.09,0,0,1,2.08,1.44c.38,1.14-.75,1.7-1.44,2.44"/><path class="cls-1" d="M82.4,129.38c-.2,1.65-.59,1.92-2.25,1.71s-2.06-.65-1.82-2.18c1.51-1.28,2.66.2,4.07.47"/><path class="cls-1" d="M82.62,123.89c.58,1.45.58,1.45,2.21,2.67-.28.45-.56.91-.85,1.4-1.27-.29-2.59-.45-2.84-2-.18-1.09.5-1.73,1.48-2.1"/><path class="cls-1" d="M113.47,150.5c.78-.8,1.46-1.51,2.16-2.21a1.21,1.21,0,0,1,2.09.56,5.76,5.76,0,0,1-.06,1.6,15.31,15.31,0,0,0-2.28.34,1.77,1.77,0,0,1-1.91-.29"/><path class="cls-1" d="M143.8,82.75c1.4-.06,2.58.72,2.55,2a3.2,3.2,0,0,1-.81,1.75,4.65,4.65,0,0,1-1.36.8c-.14-1.66-.26-3.1-.38-4.54"/><path class="cls-1" d="M109,135.19c-1.72.92-3.9,0-5.25,2l-1.17-1.67a6.91,6.91,0,0,0,4-1.53c.65-.46,1.51,0,2.39,1.22"/><path class="cls-1" d="M61,171.29c1.56-.65,2.91-.36,3.68.71a1.39,1.39,0,0,1-1.07,2,1.8,1.8,0,0,1-1.92-1c-.24-.5-.43-1-.69-1.65"/><path class="cls-1" d="M115,185.47A1.59,1.59,0,0,1,113.3,184a1.79,1.79,0,0,1,1.64-1.41c1,0,2.11.82,2,1.58s-1,1.37-2,1.35"/><path class="cls-1" d="M120.49,193.74c-.1.31-.2.63-.28.91-.16,0-.29.12-.36.09a6.21,6.21,0,0,0-5-.46,5.28,5.28,0,0,1-1.29.08c.17-.51.28-.86.44-1.35,1.29.4,2.48.31,3.17-.75l3.36,1.48"/><path class="cls-1" d="M66.73,131.16c-.79-.19-1.34-.31-1.88-.46s-.95-.57-.75-1.1.63-1.1,1-1.14a4.13,4.13,0,0,1,2.08.43c.48.23,1,.77.59,1.38a3.78,3.78,0,0,1-1,.89"/><path class="cls-1" d="M63.06,158.84a4.79,4.79,0,0,1,2.7-1.14c1,.05,1.72.59,1.67,1.27a1.45,1.45,0,0,1-1.94,1.24c-.89-.23-1.89-.33-2.43-1.37"/><path class="cls-1" d="M63.53,167.07a1.94,1.94,0,0,1-2,1.45,1.12,1.12,0,0,1-1.18-.75c-.3-.71-.71-1.38-1.1-2.13.75-.89,1.44,0,2.11.28a18.7,18.7,0,0,1,2.21,1.15"/><path class="cls-1" d="M57.47,148.24c.1-.84.19-1.66.29-2.48.93-.14,2.37.61,2.5,1.27a1.92,1.92,0,0,1-.86,2c-1,.47-1.44-.18-1.93-.82"/><path class="cls-1" d="M73.67,124.74a6.49,6.49,0,0,1,.48,1.23,1.08,1.08,0,0,1-.91,1.35,3.08,3.08,0,0,1-1,.05c-.64-.09-1.44,0-1.45-1a1.63,1.63,0,0,1,1.68-1.85,10.14,10.14,0,0,1,1.2.21"/><path class="cls-1" d="M59.19,132.1a18.13,18.13,0,0,1-1,1.52c-.67.78-1.52.34-2.19.07a3.17,3.17,0,0,1-1.4-1.29c-.11-.17.42-.74.52-.91l4.07.61"/><path class="cls-1" d="M95.11,101.51l3.53.67c.09,1.15-.85,1.67-1.63,2-.43.19-1.29-.23-1.75-.61a1.34,1.34,0,0,1-.15-2"/><path class="cls-1" d="M80.42,122.06l3-2.72c1,.85,1.32,1.75.76,2.56s-2.06,1-3.72.16"/><path class="cls-1" d="M121.66,91.93c.51-1.62,1.31-2.42,2.28-2.33s1.44.84,1.6,2.61l-3.88-.28"/><path class="cls-1" d="M98.34,177.53a2.93,2.93,0,0,1,.57.06c1.1.29,1.59.76,1.54,1.47a1.85,1.85,0,0,1-1.85,1.64,12.58,12.58,0,0,1-1.58-.06c.46-1.07.86-2,1.32-3.11"/><path class="cls-1" d="M74.62,105.67c0,.24,0,.76-.2,1-1,1-3.92.41-4.63-.82a2.65,2.65,0,0,1-.14-.79l5,.65"/><path class="cls-1" d="M118,138.1c1.93.36,2.37,1.29,1.6,3.47l-2.71-.47,1.11-3"/><path class="cls-1" d="M122.55,166.44c.21-.4.39-.73.61-1.16.85.38,1.68.68,2.44,1.1,1.3.72,1.36,1.71.15,3a5.54,5.54,0,0,0-3.2-3"/><path class="cls-1" d="M66.61,127.21a23.11,23.11,0,0,1-2.16-1.11.93.93,0,0,1-.18-.88,1,1,0,0,1,.77-.47,8.88,8.88,0,0,1,2,.24c.63.14,1.17.49,1,1.25s-.67,1-1.47,1"/><path class="cls-1" d="M120.37,179.68c1.48-1.65,2.31-3.18.78-5.14l1.44-.3,1.52,2.08a2.65,2.65,0,0,0-2.08,3.36Z"/><path class="cls-1" d="M106.7,204.8l1.57-3.06c.69-.07,1.49-.18,1.91.72.26.58-.37,1.55-1.31,1.93a12.77,12.77,0,0,1-2.17.41"/><path class="cls-1" d="M73.51,94.07l1-.57c.72,1.21,1.62,2.28,1.17,3.73-.11.33-.69.51-1.15.83-.36-1.42-.67-2.58-1-4"/><path class="cls-1" d="M100.71,113.29c-.25.34-.39.58-.58.79-1,1-1.39,1-2.28-.11-.36-.45-.76-.89-.22-1.47a1.4,1.4,0,0,1,1.89-.09c.35.27.71.52,1.19.88"/><path class="cls-1" d="M79.48,170.75a1.42,1.42,0,0,1-1.81,1,6.69,6.69,0,0,1-2.24-.93.58.58,0,0,1,.38-1,5.19,5.19,0,0,1,1.8.1,13.8,13.8,0,0,1,1.87.78"/><path class="cls-1" d="M73.15,169.05c-1.08,1.2-1.78,1.49-2.59.95a1.65,1.65,0,0,1-.67-1.17c0-.29.51-.75.86-.83a1.81,1.81,0,0,1,2.4,1.05"/><path class="cls-1" d="M95.67,92.62a4.29,4.29,0,0,1,3.27,1.14,1.55,1.55,0,0,1-1.87,1.07c-1.29-.17-1.25-1.19-1.4-2.21"/><path class="cls-1" d="M110.7,149.91c.76.18,1.66-.12,1.85.84.14.76,1.82,1,.63,2.24l-2-.38c-.15-.84-.3-1.64-.5-2.7"/><path class="cls-1" d="M123.55,191.51c.08-.83.14-1.54.23-2.42l2.09.23v2.52l-2.32-.33"/><path class="cls-1" d="M61.27,91.28c.17.29.46.56.41.76a13.61,13.61,0,0,1-.85,2.81c-.24.5-.79.21-1.11-.15A1.92,1.92,0,0,1,60,92.18c.3-.24.63-.44,1.29-.9"/><path class="cls-1" d="M146.35,87.32l2.09-1c1.4,1.09,1.41,1.73-.11,3.11l-2-2.08"/><path class="cls-1" d="M129.59,201c.84.28,1.1,1.1,1.38,1.91a3.92,3.92,0,0,1-3.1,1.35l1.72-3.26"/><path class="cls-1" d="M88.59,124.94c.9-.44,1.15-1.68,2.48-1.59.15,1.14-.29,2.45,1.17,3.23l-.44.26-3.21-1.9"/><path class="cls-1" d="M111.34,177.84l1.28.51a22.16,22.16,0,0,1,.35,2.76,1.75,1.75,0,0,1-.8,1.28c-.16-.78-.33-1.56-.46-2.35s-1.1-1.23-.37-2.2"/><path class="cls-1" d="M110,208.93c-.81,1.61-1.43,1.86-3.06,1.31.56-2.3,1.09-2.54,3.06-1.31"/><path class="cls-1" d="M146.64,93.84l-2.72,1.73L142,94c1-.07,1.76-.14,2.49-.16s1.31-1,2.12,0"/><path class="cls-1" d="M134.43,187.55l-1.6,1.38-1.13-1.37,1.74-1.4,1,1.39"/><path class="cls-1" d="M69.47,107.74l-1.86.41c-.12-1-.22-1.76-.34-2.67l.89-.08c.43.76.83,1.47,1.31,2.34"/><path class="cls-1" d="M110,177.93l-2-.29c-.18-1.22-.18-1.22,1.66-1.62.58.81.58.81.3,1.91"/><path class="cls-1" d="M96.82,164.18v-1.46l2.36-.24.37,1.22-2.73.48"/><path class="cls-1" d="M71.48,129.22l-.89,2.27-.93-.18c.12-.85.23-1.61.36-2.45l1.46.36"/><path class="cls-1" d="M110.47,206.81c-1-.37-2.21-.11-3.52-.87,1.16-.29,2-.54,2.81-.68s1,.29.71,1.55"/><path class="cls-1" d="M107.91,188.08l1.14,1.07-1.67,1.59c-.23-.63-.41-1.08-.6-1.58l1.13-1.08"/><path class="cls-1" d="M68.6,114.47l1.88.09c-.1.59-.17,1.06-.24,1.53-1.59-.09-1.59-.09-1.64-1.62"/><path class="cls-1" d="M103.65,92.49c-1.08.72-1.75,1.43-3,1.1-.07-.36-.15-.75-.26-1.26l3.24.16"/><path class="cls-1" d="M109.55,167.68l-1.77-2.57,1.19-.53c.28,1.06.54,2,.8,3l-.22.11"/><path class="cls-1" d="M141.41,93.53l-2-.13c-.17-1-.34-2-.5-3,.51-.3.85-.22.83.34,0,1.15.56,1.9,1.63,2.77"/><path class="cls-1" d="M94.54,123.56c-.31.64-.54,1.11-.8,1.67-.64-.19-1.39-.08-1.27-1,.09-.63.79-.86,2.07-.65"/><path class="cls-1" d="M163,115.72c1,.59,1.76,1.1,2.62,1.64l-1.2,1c-.38-.92-1.34-1.42-1.42-2.62"/><path class="cls-1" d="M51.29,119.28l2.29,1c-.16.57-.31,1-1,.87a1.86,1.86,0,0,1-1.3-1.9"/><path class="cls-1" d="M92.21,181.49c-1.18,1.46-1.76-.28-2.67-.23.43-.8.43-.8,2.67.23"/><path class="cls-1" d="M85.88,175.09l-1.67,1.55-.84-.73c.95-.23,1.13-1.72,2.51-.82"/><path class="cls-1" d="M137.8,83c-.18.39-.36.78-.58,1.29l-2-1.1,2.35-.55c.07.12.14.24.2.36"/><path class="cls-1" d="M139,100.62l1.86.44-1.74,1.5c0-.58-.07-1.15-.12-1.94"/><path class="cls-1" d="M79.34,149.07v-1.41c.61.06,1.2-.52,2,.22l-2,1.19"/><path class="cls-1" d="M78.67,137.2,77,138.3l-.57-1c.73-.24,1.27-1.13,2.2-.14"/><path class="cls-1" d="M106.5,132.91c.11-.9-.22-1.76,1-1.82.07.52.14,1,.23,1.65l-1.28.17"/><path class="cls-1" d="M143.67,178.85c1.18.31,1.18.31.68,1.83-.8-.38-.47-1.09-.68-1.83"/><path class="cls-1" d="M74.83,172.09l-.77.74-1.33-.8c.82-.41,1.43-1.16,2.1.06"/><path class="cls-1" d="M103.3,152.18l-1.71.14c0-.4.06-.7.09-1.16l1.74.57-.12.45"/><path class="cls-1" d="M81.51,187.74c-1.64.26-2,.1-2.21-1l2.21,1"/><path class="cls-1" d="M118.74,151.08c.33-.48,0-1.55,1.4-1.34-.42.61-.75,1.09-1.07,1.57l-.33-.23"/><path class="cls-1" d="M132.45,163.05l1.43,1-.76.69c-.21-.53-.37-.94-.67-1.67"/><path class="cls-1" d="M79.58,168.61l1.86,1.23c-1.12.12-1.47-.63-2.08-.92.07-.11.15-.21.22-.31"/><path class="cls-1" d="M88.52,193.25c.63-.36,1.21-.47,1.54.38l-1.54-.38"/><path class="cls-1" d="M121.08,199.69l.47-1.79.88.79-1.35,1"/><path class="cls-1" d="M99.11,142.56a9.61,9.61,0,0,1,.94.36,2.38,2.38,0,0,1-.13.43L99,143c0-.15.07-.3.1-.44"/><path class="cls-1" d="M123.37,158.31l-.78-1c.24-.06.4-.16.51-.12.49.16.49.18.27,1.13"/><path class="cls-1" d="M95.5,190.91c-.89-.59-.83-1-.55-1.39.06-.08.44,0,.44,0,0,.38.07.76.11,1.4"/><path class="cls-1" d="M111.11,135.76l-.72,1.16c-.4-.86-.09-1,.72-1.16"/><path class="cls-2" d="M120.7,250.87c-.63-.06-.94.28-1,.87s-.15,1-.19,1.5c-.07,1.1-.12,2.19-.2,3.62-.68-.63-1.1-1-1.47-1.37-1-1.06-2-2.17-3-3.17a1.69,1.69,0,0,0-1.33-.35c-.26.07-.52.7-.54,1.08,0,1.52,0,3,0,4.56,0,.33-.08.67-.17,1.38-.35-.63-.52-.9-.67-1.19-1-1.85-1.89-3.7-2.85-5.55a4.43,4.43,0,0,0-.72-1.13c-.65-.64-1.45-.43-1.84.51-.79,1.9-1.52,3.83-2.37,6l-2.52-2.11c.47-.24.82-.39,1.14-.59a3,3,0,0,0,1.14-3.83,2.61,2.61,0,0,0-3-1.33c-1.82.44-2.47,1.1-2.57,2.6s-.22,2.91-.32,4.37c0,.62-.07,1.23-.11,1.85s.28,1.23,1,1.27,1-.45,1-1.08.12-1.05.2-1.73c.43.34.7.53.94.74.72.63,1.4,1.3,2.14,1.91,1.39,1.13,1.91,1,2.56-.67.16-.41.34-.8.54-1.25h3.18c1.49,2.56,1.49,2.56,3.16,2,.07.27.06.65.23.78a1.8,1.8,0,0,0,1.11.47c.28,0,.62-.44.74-.76a3.43,3.43,0,0,0,0-1.16c0-1,0-2.08,0-3.38a7.7,7.7,0,0,1,.69.54c1,1.09,2.09,2.2,3.14,3.3.43.45.86.93,1.59.64s.7-.95.75-1.56c.1-1.29.18-2.58.26-3.87,0-.95.1-1.91.12-2.86a.89.89,0,0,0-.84-1m-20,2.74c-.13-1.41.06-1.8.89-1.74a.84.84,0,0,1,.64.38.75.75,0,0,1-.2.7,8.24,8.24,0,0,1-1.33.66m6.73,2.06c.12-.44.21-.78.41-1.45l.92,1.39-1.33.06"/><path class="cls-2" d="M161.18,252.65c-.56,0-.8.33-.84.85s-.08,1.34-.12,2c-.1,1.42-.2,2.84-.32,4.44a23.74,23.74,0,0,1-3.52-3.27c.57-.4,1-.64,1.29-.92a3.24,3.24,0,0,0,.82-3.38c-.39-.88-1.37-1.19-2.8-.88l-.16,0c-.9.25-2.14.24-2.61.84s-.17,1.78-.17,2.71c0,1.57,0,3.14.07,4.71a.87.87,0,0,0,.93,1,.93.93,0,0,0,1.07-.84c.06-.44.06-.89.1-1.64,1.33,1.25,2.45,2.26,3.5,3.33a1.1,1.1,0,0,0,1.32.37,2.38,2.38,0,0,1,.8-.11c1.42,0,1.47,0,1.52-1.48.06-1.91.14-3.81.2-5.72a6.65,6.65,0,0,0,0-1.18c-.07-.6-.47-.84-1.06-.84M156.56,254l-1.63,1c-.21-1.29-.2-1.31,1.63-1"/><path class="cls-2" d="M80.51,250.76a1,1,0,0,0-1.73-.57,6.09,6.09,0,0,0-.83,1.05c-.5.72-1,1.46-1.53,2.3-.72-.9-1.27-1.69-1.93-2.37a1.65,1.65,0,0,0-1.25-.54,1.55,1.55,0,0,0-.78,1.1c-.27,1.71-.42,3.44-.62,5.17a12.79,12.79,0,0,0-.24,1.82,1.14,1.14,0,0,0,1.17,1.19c.68,0,1-.41,1-1.08,0-.39,0-.79,0-1.18.09-1,.21-2.06.35-3.46.58.7.88,1.09,1.2,1.46.8.93,1.37.92,2.16,0,.31-.38.59-.79.88-1.19l.3.06c.07,1.59.14,3.18.22,4.75,1.56.58,2,.29,2-1.26s-.19-3.36-.28-5c0-.73,0-1.47-.08-2.18"/><path class="cls-2" d="M63.66,254.3l-1-4.26c-.14-.58-.34-1.1-1-1.19s-1,.35-1.25.9-.62,1.32-.93,2c-1,2-2,4-2.89,6.09a1.17,1.17,0,0,0,.49,1.69c.68.28,1,.07,1.41-.92.7-1.71.7-1.71,2.58-1.56l1.14.07c.11.51.19.89.29,1.27.19.69.46,1.31,1.36,1.15.66-.12.86-.62.64-1.61-.26-1.2-.55-2.41-.83-3.61m-3.3.48c.24-.55.44-1,.77-1.8.27.81.43,1.28.68,2l-1.45-.24"/><path class="cls-2" d="M95.06,254.26c-.38.09-.79,0-1.17.09s-1,.25-1.55.41c.33-2.46,1.11-3.11,3.47-2.93a3.75,3.75,0,0,0,.67,0,.8.8,0,0,0,.73-1c0-.71-.5-.92-1.09-1.06a4.63,4.63,0,0,0-5.78,4.31c-.19,3.81,1.62,5.49,5.32,4.93,1.58-.23,2.1-1.16,1.8-3s-.59-2.24-2.4-1.82m-2.22,2.23,2.6-.12c-.55,1-1,1.05-2.6.12"/><path class="cls-2" d="M175.11,254.83c-.58,0-1.22.08-1.67-.52.73-1.11,2.06-.9,2.95-1.52.2-1.45,0-1.81-1.22-1.56a8.4,8.4,0,0,0-2.76,1.12,2.54,2.54,0,0,0-1,2.7c.19,1.12,1.07,1.52,2,1.75.58.13,1.2.14,2,.23a3.56,3.56,0,0,1-3.43,2.13c-.23,0-.51-.13-.66,0-.34.23-.78.51-.89.86a.9.9,0,0,0,.7,1.16,3.56,3.56,0,0,0,1.17.11,6,6,0,0,0,4.48-2.32,2.76,2.76,0,0,0,.47-2.83c-.36-1-1.19-1.25-2.15-1.28"/><path class="cls-2" d="M167.39,252.57a2.31,2.31,0,0,0-2.91.51,7,7,0,0,0-1.18,6.17c.63,1.44,1.73,2,3.76,1.88a2.67,2.67,0,0,0,2.65-2.33c.1-.55.12-1.11.15-1.36.08-2.49-.8-4.11-2.47-4.87m.11,6.15a1.2,1.2,0,0,1-1,.43,2,2,0,0,1-1.23-.67c-.64-1-.1-3.11.93-4.1a3,3,0,0,1,1.28,4.34"/><path class="cls-2" d="M151.49,253.42c0-.7-.22-1.25-1-1.22s-.92.53-.93,1.16a19.45,19.45,0,0,1,0,2,8.86,8.86,0,0,1-.41,2.11c-.4,1.06-1,1.24-2,.66a1.88,1.88,0,0,1-1.07-1.76c0-.84,0-1.69,0-2.53,0-.62-.18-1.14-.89-1.19s-1.06.51-1.09,1.19c0,1-.06,1.91-.05,2.86a4,4,0,0,0,3.58,3.75c1.5.11,2.7-.27,3.21-1.8.38-1.14.61-2.33.91-3.51l-.24-.06c0-.56,0-1.12,0-1.68"/><path class="cls-2" d="M142.55,257.87a3.08,3.08,0,0,1-2.59-.22c-1.32-.53-1.8-1.33-1.5-2.44A2.39,2.39,0,0,1,141,253.7c.39,0,.82.23,1.16.13s.86-.45.91-.75a1.3,1.3,0,0,0-.57-1.06,6.5,6.5,0,0,0-1.62-.38,4.39,4.39,0,0,0-4.54,4.57c.06,2.76,4.95,4.72,6.84,3.56a1,1,0,0,0,.55-1.27c-.19-.53-.61-.89-1.17-.63"/><path class="cls-2" d="M54.9,257.43a11.67,11.67,0,0,0-1.18-.07c-.44,0-.87-.08-1.45-.14v-4.9c0-1,0-1.91,0-2.87a.92.92,0,0,0-1.07-1c-.73,0-1,.46-1,1.11s0,1.57,0,2.35c0,1.91-.12,3.82-.13,5.73,0,1.21.25,1.51,1.43,1.62s2.14.1,3.2.14c.64,0,1.13-.19,1.19-.9s-.5-1-1.07-1.07"/><path class="cls-2" d="M88.76,254.5c-.33-1.42-.67-2.84-1-4.26-.13-.57-.33-1.1-1-1.19s-1,.35-1.25.9-.62,1.32-.94,2c-1,2-2,4-2.88,6.09a1.16,1.16,0,0,0,.48,1.69c.69.28,1,.07,1.41-.92.7-1.71.7-1.71,2.59-1.56l1.13.07c.12.51.2.9.3,1.27.18.7.46,1.31,1.35,1.15.67-.12.87-.61.65-1.61-.26-1.2-.55-2.4-.83-3.61m-3.3.49.77-1.81.68,2L85.46,255"/><path class="cls-2" d="M128.91,255.64l-1-4.26c-.14-.57-.34-1.1-1-1.18s-1,.34-1.25.89-.62,1.33-.93,2c-1,2-2,4-2.89,6.09a1.19,1.19,0,0,0,.49,1.7c.68.27,1,.06,1.41-.93.7-1.71.7-1.71,2.58-1.56l1.14.07c.12.51.19.9.29,1.27.19.7.46,1.31,1.36,1.15.66-.12.86-.61.65-1.6-.27-1.21-.56-2.41-.84-3.62m-3.3.49c.24-.55.44-1,.77-1.81l.68,2.05-1.45-.24"/><path class="cls-2" d="M185.93,259.26c-.26-1.21-.55-2.41-.83-3.62-.33-1.42-.67-2.84-1-4.26-.13-.57-.33-1.1-1-1.18s-1,.34-1.25.89-.62,1.33-.94,2c-1,2-2,4-2.88,6.09a1.18,1.18,0,0,0,.48,1.7c.69.27,1,.06,1.41-.93.71-1.71.71-1.71,2.59-1.56l1.13.07c.12.51.2.9.3,1.27.18.7.46,1.31,1.35,1.15.67-.12.87-.61.65-1.6m-4.13-3.13.77-1.81.68,2.05-1.45-.24"/></svg>