<svg id="Capa_1" data-name="Capa 1" xmlns="http://www.w3.org/2000/svg" viewBox="0 0 513.05 306.03"><defs><style>.cls-1,.cls-2{fill:#e85d75;}.cls-1{fill-rule:evenodd;}</style></defs><title>logo-footer</title><path class="cls-1" d="M88,216.36c-3.77-1.54-7.41-3-11-4.51-1-.43-2-1-3-1.49a25.48,25.48,0,0,0-3-1.47,30,30,0,0,1-7.29-4.14,16.58,16.58,0,0,0-2-1.28c-2.73-1.38-4.58-3.77-6.78-5.76a10.68,10.68,0,0,0-1.8-1.51c-3.31-1.9-5.27-5-7.28-8s-3-6.51-4.44-9.79a47.68,47.68,0,0,1-2-5.16,41.71,41.71,0,0,1-1-4.9c-.29-1.53-.52-3.07-.77-4.61a7.44,7.44,0,0,1-.16-1.32c.05-3.65.11-7.3.22-10.95.06-1.85.25-3.69.38-5.53.09-1.29.23-2.57.28-3.85.13-3.42.25-6.85.32-10.27a16.55,16.55,0,0,0-.28-2.31,4.39,4.39,0,0,1-.06-1.14c.41-3.16.82-6.32,1.26-9.48.37-2.66.77-5.31,1.16-8a5.75,5.75,0,0,1,.14-.83,29.34,29.34,0,0,0,1-5.06,18.22,18.22,0,0,1,2.25-5,10.82,10.82,0,0,1,1.69-2.3c2.34-2.53,3.67-5.75,5.76-8.45.76-1,1.47-2,2.28-2.92a81,81,0,0,1,5.92-6.62,24.25,24.25,0,0,1,5.21-3.34c3.22-1.71,6.52-3.26,9.78-4.88.8-.4,1.6-.83,2.42-1.18,3.6-1.57,7.19-3.19,10.84-4.65A6.39,6.39,0,0,0,91.38,58c-.37-1.23-.42-2.55-.82-3.76a39,39,0,0,0-2.07-5.15,51.26,51.26,0,0,1-2.89-6.79,5.54,5.54,0,0,1-.38-2.93,16.4,16.4,0,0,0,0-2.53c.1-2.17.23-4.33.31-6.5a2,2,0,0,0-.29-1.26c-.78-.93-.5-1.92-.23-2.87.09-.33.58-.81.86-.79a2.05,2.05,0,0,1,1.12.73c.68.78,1.2,1.7,1.92,2.42.87.87,1.89,1.59,2.84,2.38l2.88,2.42c.47-3.31,2.4-5.73,4.92-7.79a8,8,0,0,0,3.06-4.66,10.16,10.16,0,0,1,1.65-3,1.15,1.15,0,0,1,1-.41c.27.07.46.55.61.88A1.48,1.48,0,0,1,106,19c-.1,2.2.87,4.07,1.78,6s1.57,3.7,2.28,5.58c.49,1.3.86,2.63,1.36,4.15.4-.47.77-.85,1.07-1.28a17.57,17.57,0,0,1,4.47-5,39.36,39.36,0,0,0,7.49-7.21,9.13,9.13,0,0,0,2.18-3.8,12.48,12.48,0,0,1,1.27-.2c1.21-.08,1.68.46,1.11,1.46a4.89,4.89,0,0,0-.5,2.74c0,.84,0,1.69,0,2.53a7.73,7.73,0,0,1-.72,3.24,13.83,13.83,0,0,0-.94,3.89c-.15,2.11,0,4.24-.06,6.36,0,1.55-.21,3.1-.33,4.77a5.92,5.92,0,0,0,3.3-1.32A66.24,66.24,0,0,0,135,36.39c2-2,3.71-4.21,4.18-7.15a12.84,12.84,0,0,1,.69-2.42c.31-.8.74-1.54,1.91-1.3a5.3,5.3,0,0,1,.2,3.59c-.94,2.33-1,4.82-1.49,7.22-.24,1.09-.41,2.21-.75,3.27-1.1,3.47-2.15,7-3.45,10.37a37.44,37.44,0,0,1-3,5.64c-1.59,2.69-1.06,4.94,1.69,6.43a91.4,91.4,0,0,0,16.71,6.62,38.72,38.72,0,0,1,10.95,5.46c1,.67,2,1.25,3,1.93a67.15,67.15,0,0,1,9.78,7.69c1.17,1.2,2.39,2.38,3.66,3.48,1.73,1.5,2.79,3.51,4.16,5.28a5.43,5.43,0,0,0,.35.57c2.81,3.14,4.6,6.92,6.56,10.57a25.16,25.16,0,0,1,2.53,9.06c.31,2.51.43,5,.68,7.55a7.65,7.65,0,0,0,.46,2.3,10.61,10.61,0,0,1,.81,4.44c-.06,3.38.25,6.81-.28,10.11-.64,3.9-.31,7.83-.92,11.73a76.26,76.26,0,0,0-.39,8.57,10.71,10.71,0,0,1-.29,2.84,21.47,21.47,0,0,0-1,5.78,33.25,33.25,0,0,0-.28,4.86c.36,3.27-.77,6.19-1.7,9.19-1.19,3.82-3.13,7.34-4.47,11.08a25.9,25.9,0,0,1-9,12c-1.93,1.48-4,2.62-6,4-2.64,1.82-5.28,3.63-7.82,5.6a32.86,32.86,0,0,1-10.42,5A79,79,0,0,1,140.75,220c-6.95,1.15-13.92.67-20.89.67a7.85,7.85,0,0,0-.84,0c-5,.63-10-.06-14.93-.92a1.29,1.29,0,0,0-1.54.68,17.45,17.45,0,0,1-3.79,4.25,18.14,18.14,0,0,0-2.6,3.06c-.92,1.34-2,2.17-3.66,1.61l-1.37-1.74c-1.82.92-3.08.22-3.14-1.69s0-4.05,0-6.07c0-1.12,0-2.24,0-3.44M95.6,52l.47-.18c.29.45.62.88.86,1.35a10.73,10.73,0,0,1-2.12,12.3c-2,2-4,3.93-6.63,5.12s-4.85,2.85-7.39,4A149.14,149.14,0,0,0,65,83.21c-5.11,3.08-8.77,7.64-12.39,12.24a5.81,5.81,0,0,0-.37.75c-.88,1.69-1.71,3.4-2.64,5.06A19.59,19.59,0,0,0,47,107.62c-.37,2.32-.77,4.64-1.15,7-.29,1.76-.52,3.54-.83,5.3-.37,2.1-.83,4.18-1.2,6.27a18.14,18.14,0,0,0-.31,2.84c-.05,1.95,0,3.9,0,5.85-.07,2.53-.21,5-.32,7.57s-.23,5.15-.34,7.73c0,.34,0,.68,0,1,.14,3.19.13,6.39.46,9.56.5,4.85,2.19,9.47,3.08,14.25a34,34,0,0,0,5.59,12.7,23.75,23.75,0,0,0,3.35,4.21C57.64,194,60.16,196,62.66,198c1.41,1.12,3,2,4.38,3.16,2.75,2.17,6,3.28,9.24,4.31,2.09.66,4.22,1.2,6.31,1.84,2.57.78,5,1.86,7.53,2.84a79.34,79.34,0,0,0,8.41,2.39,19.65,19.65,0,0,0,3.11.69,58.54,58.54,0,0,0,10.92.41c4.08-.35,8.17-.57,12.2-1.29,4.53-.81,9-1.9,13.45-3.07,5.44-1.42,10.49-3.49,14.83-7.21,2.74-2.36,5.42-4.72,7.24-7.89,1.29-2.23,2.65-4.43,3.77-6.74a56.24,56.24,0,0,0,2.71-6.68c1.2-3.56,2.29-7.16,3.3-10.78a39.56,39.56,0,0,0,.9-5.09c.29-1.94.47-3.9.77-5.84.55-3.54,1.34-7,1.67-10.61a21.76,21.76,0,0,1,2.56-8.11,3.49,3.49,0,0,0,.55-1.22,68,68,0,0,0,.4-9.36c-.11-1.68-.38-3.35-.43-5a19,19,0,0,0-1-5.44,54.13,54.13,0,0,0-6.17-12.88,15.35,15.35,0,0,1-1.59-3,14.22,14.22,0,0,0-4.23-5.53,60,60,0,0,1-5.77-5.11A88.64,88.64,0,0,0,146.34,82c-.44-.35-.85-.73-1.3-1.07-4.44-3.41-9.14-6.5-12.53-11.13a8.66,8.66,0,0,1-2-5.57,2.61,2.61,0,0,0-.55-1.88,3.07,3.07,0,0,1-.51-3.17,15.55,15.55,0,0,1,1.61-3.48,22.41,22.41,0,0,0,4-9.31c-1.29.69-2,2.15-3.56,2.5,2.27-2.86,5.42-5.11,6-9-1.18,1.6-2.28,3.29-3.57,4.82-2,2.42-3.25,3.34-4.59,3.72a17.07,17.07,0,0,1,1.82-2.07A27.68,27.68,0,0,0,137.35,38a6.2,6.2,0,0,0,.27-1,46.36,46.36,0,0,0-4.19,3.76,13.17,13.17,0,0,1-2.38,1.84,16.81,16.81,0,0,1-2.78,1.21,11,11,0,0,0-6.65,5.53c-.23.48-.86.76-1.41,1.21-.45-1.91.48-3.17,1.22-4.48.64-1.11,1.37-2.18,1.94-3.33a11.56,11.56,0,0,0,1.44-6.14c-.13-1.45,0-2.92,0-4.39a10.38,10.38,0,0,1,1-5.4,8.93,8.93,0,0,0,.7-1.89,3,3,0,0,0-.18-2.36,19.19,19.19,0,0,0-1.46,2.85,11.14,11.14,0,0,1-4,4.91,4.83,4.83,0,0,1-1,.43c1-1.79,3-2.78,3.7-5.07-1.13.94-2,1.74-2.92,2.4a28.81,28.81,0,0,0-8.1,8.68,9.21,9.21,0,0,0-1.62,5.4c.08,1.52,0,3,0,4.56a9.43,9.43,0,0,1-.77,3.7c-1.06-.16-1.14-.87-1.14-1.64,0-2.2,0-4.39,0-6.59a34.12,34.12,0,0,0-1.5-10.28,7.64,7.64,0,0,0-2.57-3.49,65.83,65.83,0,0,0,1.17,6.81,40.47,40.47,0,0,1,1.1,8.11c0,.6.1,1.27-.9,1.41a12,12,0,0,1-1-2.3c-.68-3.34-1.26-6.71-1.9-10.07A28.73,28.73,0,0,0,102,26.27c-2.72,1.41-3.14,3.82-2.94,6.5.06.73.16,1.45.21,2.18A8.32,8.32,0,0,1,99.15,36c-1.33-1.92-.85-3.85-1.06-5.94-.78.91-1.33,1.5-1.34,2.42,0,2.21.09,4.37,2.14,5.83a.46.46,0,0,1,.12.12c1.45,2,3.14,3.83,3.75,6.31.65,2.66,1.26,5.34,1.87,8,.25,1.14.43,2.3.67,3.56.82-.58,1.43-.73,2.19,0a24.49,24.49,0,0,0,3,2.06c.34-.62.67-1.23,1-1.87-1.72-1.76-3.39-3.29-5.91-3.46,0-.47-.2-1,0-1.22a3.72,3.72,0,0,1,1.41-1.52c.7-.31,1.25.19,1.37,1,0,.14.18.28.31.38l3.83,2.78a13.21,13.21,0,0,0,1.23-7,1.83,1.83,0,0,1-.68.05c-.39-.12-.76-.31-1.14-.47a3.57,3.57,0,0,1,.57-1.06,4,4,0,0,1,3.71-1.11,6.49,6.49,0,0,0-.53-1.63c-.78-1.13-.74-1.55.48-2.17a9.74,9.74,0,0,1,1.33-.48c1.08,1,1.15,1.13,1,2.25-.14,1.4-.37,2.78-.52,4.18-.17,1.58-.3,3.18-.44,4.81,2.18.38,4.14.86,6-.6a1.31,1.31,0,0,1,1.82.15,1.26,1.26,0,0,1,.38,1.77,19.32,19.32,0,0,1-1.24,1.7,4.23,4.23,0,0,1,.14.92c0,1.5-.85,2-2.18,1.28a2.3,2.3,0,0,0-.92-.32c-1.73,0-3.46,0-5.19,0l-.84,2c2.23,0,4.3-.07,6.37,0,1.47.06,1.72.75.77,1.93a1.69,1.69,0,0,0-.43,1.43c.14,1-1.09,1.94-1.92,1.4-1.15-.75-2.39-.39-3.54-.74-2.07-.63-3.49.17-4.79,1.79-1.69,2.1-3,4.35-3.14,7a59.52,59.52,0,0,0,.34,7.89,41.52,41.52,0,0,0,1,4.77c.69-3-.64-6,0-8.93.71,3.23,1.44,6.45,1.14,9.79a15.36,15.36,0,0,0,0,3.18c.47,4.14.94,8.25-.07,12.39a23.56,23.56,0,0,0-.7,4.8c-.18,5.56-.24,11.12-.36,16.68a5,5,0,0,1-.21.86,11.36,11.36,0,0,1-1.26-4.94,125.41,125.41,0,0,1,1.13-21.3,18.15,18.15,0,0,0-.17-5.5c-.55-3.32-1.51-6.56-2-9.88-.63-4.16-1-8.36,0-12.54a2.93,2.93,0,0,0,.21-1.31c-.35-1.44.29-2.63.81-3.86.24-.57.42-1.17.61-1.76a3,3,0,0,0-1.1-3.14,2.14,2.14,0,0,0-2.9-.36v7.17a2,2,0,0,1-1.71-2.22c0-1.11-.22-2.24-.18-3.35a39.78,39.78,0,0,0-3-15.76,14.74,14.74,0,0,0-.74-1.49,28.53,28.53,0,0,0-4.32-5.58,26.46,26.46,0,0,0-5-4.67c-.45-.3-.92-.57-1.38-.85,2.57,4.51,3.86,10.49,2.47,12.74-.51-3.83-.38-7.71-2.8-10.89a19.07,19.07,0,0,0,.6,3.29c.29,1.09.65,2.15,1,3.23-1.89-1.36-1.67-3.59-2.59-5.38a6.78,6.78,0,0,0-.39,2.4,20.43,20.43,0,0,0,.8,4.12c.88,2.72,1.8,5.43,2.93,8,1.61,3.74,3,7.49,2.91,11.65a8.33,8.33,0,0,1-2.88,6.34c-.3.28-.56.6-.83.9a7.8,7.8,0,0,0,3.69-3.24,45.74,45.74,0,0,0,2.14-4.69l.51,1c1.11-3.29.27-6.26-.78-9.21m80.82,58a4.49,4.49,0,0,0,.41,3.24c2.23,5.63,2.88,11.55,3.12,17.51a75.28,75.28,0,0,1-.47,8.74c-.23,2.86-.5,5.72-.88,8.56a40.54,40.54,0,0,0-.74,8.37,25.63,25.63,0,0,1-1.48,9.27,20.3,20.3,0,0,0-1,3.9,36.81,36.81,0,0,1-2.58,9.58c-1.46,3.77-2.94,7.54-4.4,11.31a1,1,0,0,0,0,.39,10.85,10.85,0,0,0,1.78-2.85c1.21-2.78,2.38-5.58,3.53-8.4a36.45,36.45,0,0,0,2.45-7.51c.41-2.32,1-4.61,1.58-6.89a28.67,28.67,0,0,0,1.25-8.13,39.79,39.79,0,0,1,.24-5.56c.35-3.29.85-6.57,1.23-9.86.19-1.62.22-3.25.33-4.88.13-1.9.42-3.81.36-5.7-.07-2.36-.47-4.7-.65-7a38.44,38.44,0,0,0-3.19-12.52c-.18-.43-.44-.82-.83-1.52M92.87,221.2c2,0,2.08-1.78,3.1-2.84l-3.1-.64ZM117.16,54.87a15.2,15.2,0,0,0,6.09-.73l-5-.4a4,4,0,0,0-.5,0c-.73,0-.72.54-.63,1.17M111.63,61c1.83-2.15,3.34-5.52,3.15-7.07C114,56.36,112,58.2,111.63,61M89.81,224.82h.36c.2-.83.2-.83-.45-1.53,0,.61.06,1.07.09,1.52M120.42,61a2.29,2.29,0,0,1,.1-.23c-.15-.11-.28-.3-.44-.32a2.1,2.1,0,0,0-.64.11v.22l1,.22"/><path class="cls-1" d="M78,222.17c-3.7-.4-4.69-2.53-4.75-5.56A1.67,1.67,0,0,1,74.4,215,4.67,4.67,0,0,1,80,216.83c.79,1.29.43,2.59.11,3.9a4.63,4.63,0,0,1-.28.7c1.09.26,2.14.44,3.15.76a1.61,1.61,0,0,1,1.34,1.52,1.72,1.72,0,0,1-1.23,1.63,7.32,7.32,0,0,1-3.94.62c-1.76-.18-2.35-1.14-1.74-2.81a8,8,0,0,1,.54-1"/><path class="cls-1" d="M119.75,229.74c-1.11-1.53-.77-3-.25-4.41s3-2,4.34-.77a8.69,8.69,0,0,1,1.88,2.34c.78,1.42-.74,3.79-2.38,3.86a12.68,12.68,0,0,1-1.61-.14,4.65,4.65,0,0,1,.38.89,2.47,2.47,0,0,1-1.06,2.93,4,4,0,0,1-4.07-.77,2.88,2.88,0,0,1-.33-3.15,1.59,1.59,0,0,1,1.64-.93l1.46.15"/><path class="cls-1" d="M114.21,237.56a21.27,21.27,0,0,1,2.14.4,1.65,1.65,0,0,1,1.32,2.17,3.1,3.1,0,0,1-1.74,2.52c-1.88.91-3.75,1.14-5.58-.09a1.51,1.51,0,0,1-.61-2.29,4.39,4.39,0,0,1,4.47-2.71"/><path class="cls-1" d="M59.66,214.85c0-2.2.67-2.9,2.65-2.65a7.16,7.16,0,0,1,2.67.86,3.53,3.53,0,0,1,1.1,4.87,1.58,1.58,0,0,1-2,.89,18.38,18.38,0,0,1-3-1.35,2.53,2.53,0,0,1-1.42-2.62"/><path class="cls-1" d="M100.15,237.77a3.65,3.65,0,0,1,1.62-3.4,2.14,2.14,0,0,1,3.19.35c1.15,1.31,1.79,2.65,1,4.39a3.25,3.25,0,0,1-5,1.32c-.92-.69-.79-1.65-.8-2.66"/><path class="cls-1" d="M71.81,220.7a19.85,19.85,0,0,1,3.29,1.1c1.53.79,1.56,2.36.2,3.4a5.07,5.07,0,0,1-4.91.87c-1.36-.44-2-1.26-1.91-2.38a2.78,2.78,0,0,1,2.59-2.75l.68,0,.06-.21"/><path class="cls-1" d="M153.6,228.11a4,4,0,0,1,5.07-3.55,6.34,6.34,0,0,1,1.22.55c.7.39,1.41.8,1.34,1.75a2.6,2.6,0,0,1-1.41,2.33,8.51,8.51,0,0,1-5.1.54c-.85-.12-1.16-.79-1.12-1.62"/><path class="cls-1" d="M145.62,227.87a5.58,5.58,0,0,1,3.32,1.27,1.22,1.22,0,0,1,.38,1.63,4.25,4.25,0,0,1-4,2.35,8.19,8.19,0,0,1-3-.78c-.61-.23-1.23-.64-1.11-1.5s.28-1.7,1.23-2,2.12-.64,3.19-.95"/><path class="cls-1" d="M164.29,243.44c0,1.33-.18,2.59-1.41,3.39a2.84,2.84,0,0,1-3,.52,2.92,2.92,0,0,1-1.51-2.8,4.45,4.45,0,0,1,2.08-3.65,2.54,2.54,0,0,1,2.71.16c.95.47,1.13.93,1.11,2.38"/><path class="cls-1" d="M113.63,231.32a3.75,3.75,0,0,1-3.44-2.31,1.77,1.77,0,0,1,.55-2.39,4.54,4.54,0,0,1,3.42-1.11,2.83,2.83,0,0,1,2.83,2.6,3.13,3.13,0,0,1-2.69,3.14c-.22,0-.45.05-.67.07"/><path class="cls-1" d="M133.29,228.13a4.33,4.33,0,0,1-2,2.72,7.58,7.58,0,0,1-3.06,1.22c-1.36.25-2.08-.63-1.9-2a4.41,4.41,0,0,1,1.19-2.35,6.32,6.32,0,0,1,3.51-1.88c1.24-.29,2.31.77,2.28,2.31"/><path class="cls-1" d="M53.83,237.44c-2.79-.12-4.37-1.75-4.35-4.48,0-1.2.43-1.62,1.62-1.6a7.58,7.58,0,0,1,4.55,2c1,.79.64,2,.37,3-.22.85-1,1.2-2.19,1.15"/><path class="cls-1" d="M167.71,243.08c0-1.49.27-1.94,1.43-2.4s2.82-.34,3.42.51c.74,1,1.4,2.14.92,3.56a2.82,2.82,0,0,1-2.63,2.18,3,3,0,0,1-3-2.27,13,13,0,0,1-.17-1.58"/><path class="cls-1" d="M56.93,241.51a2.74,2.74,0,0,1,3-3.07,3.11,3.11,0,0,1,3.39,2.76,2.75,2.75,0,0,1-3,2.93c-2.13,0-3.39-.95-3.4-2.62"/><path class="cls-1" d="M176.76,243a4.15,4.15,0,0,1,1.52-3.63,2.66,2.66,0,0,1,4.25,1.12,1.69,1.69,0,0,1,.12.48c.1,2.19-2.8,4.6-5,4.18-.58-.12-.92-.39-.92-1V243"/><path class="cls-1" d="M128.71,244.39a8.51,8.51,0,0,1-1.58-.28c-.73-.24-1.53-.51-1.57-1.5a2.61,2.61,0,0,1,1-2.36,5,5,0,0,1,4.64-.22c.09.06.17.15.26.21.91.58,1.86,1.15,1.45,2.49s-1.46,1.43-2.49,1.65a10.48,10.48,0,0,1-1.73,0"/><path class="cls-1" d="M157.82,222.36c-1.57,0-2.67-.94-2.64-2.19.06-2.33,1.13-3.53,3.11-3.49,1.52,0,3.08,1.3,3.07,2.5,0,2-1.39,3.21-3.54,3.18"/><path class="cls-1" d="M77.49,233.54a5.39,5.39,0,0,1-3.77-2,2.68,2.68,0,0,1-.57-2.21,1.49,1.49,0,0,1,1.53-1.48,5.17,5.17,0,0,1,4.75,2.64,2,2,0,0,1-1.94,3"/><path class="cls-1" d="M137.37,231.7a12.91,12.91,0,0,1-2.35-.76,2.08,2.08,0,0,1-.28-3.59,4.1,4.1,0,0,1,4.41-.54,2.18,2.18,0,0,1,1.27,2.47,2.75,2.75,0,0,1-2.17,2.26,5.89,5.89,0,0,1-.84,0s0,.1,0,.15"/><path class="cls-1" d="M145.82,241.69c0,1.41-.6,2.42-1.59,2.68-1.18.31-3.25-.29-3.72-1.09a4,4,0,0,1,.63-3.66,2.53,2.53,0,0,1,2.74-.8,2.93,2.93,0,0,1,1.94,2.87"/><path class="cls-1" d="M51.31,246.34a4.86,4.86,0,0,1-.43,1.32,1.25,1.25,0,0,1-1.63.42A6.33,6.33,0,0,1,46,245.59a2.87,2.87,0,0,1-.16-2.74,1.37,1.37,0,0,1,1.52-.8,6,6,0,0,1,3.86,3.2,9.53,9.53,0,0,1,.12,1.09"/><path class="cls-1" d="M71.41,245.88c-.71-.07-1.1-.1-1.48-.16-1.52-.24-2.17-.91-2.08-2.11a2.32,2.32,0,0,1,2.34-2.17,10.84,10.84,0,0,1,3.48,1,1.59,1.59,0,0,1-.15,2.83,11.79,11.79,0,0,1-2.11.58"/><path class="cls-1" d="M149.63,226.4c-.85,0-1.8.07-2.26-.77s0-1.84.55-2.63a3.81,3.81,0,0,1,4.36-1.29,1.34,1.34,0,0,1,.68.81,3,3,0,0,1-3,3.87h-.33"/><path class="cls-1" d="M167.13,239c-.72-.08-1.12-.09-1.5-.17-1.15-.25-1.52-.75-1.57-2s.28-1.87,1.41-2.15a4.47,4.47,0,0,1,3.29.13c.7.37,1.26.77,1.25,1.62a2,2,0,0,1-1.1,2.11,13.72,13.72,0,0,1-1.78.51"/><path class="cls-1" d="M142.06,222.44a5.33,5.33,0,0,1,3.47,1.91,2.28,2.28,0,0,1,.05,2.55c-.37.69-1.14.87-2.25.52a7,7,0,0,1-1.82-.82,2.24,2.24,0,0,1-.44-3.61,3.3,3.3,0,0,1,1-.55"/><path class="cls-1" d="M176.42,110c.39.7.65,1.09.83,1.52A38.19,38.19,0,0,1,180.44,124c.18,2.35.58,4.69.65,7,.06,1.89-.23,3.8-.36,5.7-.11,1.63-.14,3.26-.33,4.88-.37,3.29-.88,6.57-1.23,9.86a39.79,39.79,0,0,0-.24,5.56,28.67,28.67,0,0,1-1.25,8.13c-.59,2.28-1.17,4.57-1.58,6.88a36.35,36.35,0,0,1-2.45,7.52c-1.15,2.82-2.32,5.62-3.53,8.4a10.85,10.85,0,0,1-1.78,2.85,1,1,0,0,1,0-.39c1.46-3.77,2.94-7.54,4.4-11.31a36.81,36.81,0,0,0,2.58-9.58,20.3,20.3,0,0,1,1-3.9,25.63,25.63,0,0,0,1.48-9.27,40.54,40.54,0,0,1,.74-8.37c.38-2.84.65-5.7.88-8.56a75.28,75.28,0,0,0,.47-8.74c-.24-6-.89-11.88-3.12-17.51a4.49,4.49,0,0,1-.41-3.24"/><path class="cls-1" d="M92.87,221.2v-3.48l3.1.64c-1,1.06-1.09,2.82-3.1,2.84"/><path class="cls-1" d="M117.16,54.87c-.09-.63-.1-1.12.63-1.17a4,4,0,0,1,.5,0l5,.4a15.2,15.2,0,0,1-6.09.73"/><path class="cls-1" d="M111.63,61c.4-2.83,2.4-4.67,3.15-7.07.19,1.54-1.32,4.92-3.15,7.07"/><path class="cls-1" d="M89.81,224.82c0-.45-.06-.91-.09-1.52.65.7.65.7.45,1.53h-.36"/><path class="cls-1" d="M120.42,61l-1-.22v-.22a2.1,2.1,0,0,1,.64-.11c.16,0,.29.21.44.32a2.29,2.29,0,0,0-.1.23"/><path class="cls-1" d="M152.89,150.47c3.14,2,3.4,2,6,1.18a4.68,4.68,0,0,1,.25,3.51,4.66,4.66,0,0,0-.15,3.29,1.22,1.22,0,0,1-.92,1.69,3.91,3.91,0,0,1-1.63.14c-2.23-.3-3.54-1.82-4.51-3.65a1.74,1.74,0,0,1,.24-2.17,3.15,3.15,0,0,0,.78-2.49c0-.48,0-1,0-1.5"/><path class="cls-1" d="M160.78,147.67l1.1-.39a5.72,5.72,0,0,0,6,2.39,3.67,3.67,0,0,1-2.9,5.8A4.88,4.88,0,0,1,161,154a3.3,3.3,0,0,1-.77-3.84,15.08,15.08,0,0,0,.56-2.46"/><path class="cls-1" d="M154.22,173.52h3.43c1,.53,1.88.95,2.72,1.39.28.15.65.28.8.52.88,1.38-.44,4.19-2.06,4.34a10.14,10.14,0,0,1-2.52-.1,3.1,3.1,0,0,1-2.84-3.81c.09-.77.3-1.53.47-2.34"/><path class="cls-1" d="M168.46,126.69a4.92,4.92,0,0,1-4-2.19,2,2,0,0,1-.13-2.36c.7-1,1.64-1.92,2.9-1.71,1.53.27,3.13.51,4.3,1.89a2.3,2.3,0,0,1-1,3.88,16.13,16.13,0,0,1-2.06.49"/><path class="cls-1" d="M140.59,134.35a4.2,4.2,0,0,1,3.19,2.91,2.38,2.38,0,0,1-.42,2.65c-1.67,1.91-3.47,2.29-5.67,1.12a1.79,1.79,0,0,1-1.05-1.75c0-.71-.07-1.42-.11-2.15,2.46-.77,2.49-.79,4.06-2.78"/><path class="cls-1" d="M132.65,143.29l.2-1.49,3-1a5.78,5.78,0,0,0,4.27,2.18c1,0,2,1.52,2,2.56a2,2,0,0,1-2,2.22,12.21,12.21,0,0,1-2.18,0,1.1,1.1,0,0,1-1.09-.87,5.07,5.07,0,0,0-4.22-3.54"/><path class="cls-1" d="M59.07,103c-1.47,2.25,0,3.57,1.42,4.92-1.67,2-2.58,2.31-4.85,1.27a8.94,8.94,0,0,1-2.26-1.41,1.82,1.82,0,0,1-.12-2.83,5.46,5.46,0,0,1,5.81-2"/><path class="cls-1" d="M169.68,143c1.65,2.37.91,4.52-1.75,5.4-2.05.67-3.52.33-4.68-1.08a2.67,2.67,0,0,1-.14-3,2.63,2.63,0,0,1,2.87-1.09c1.23.36,1.44.35,3.7-.25"/><path class="cls-1" d="M101.34,171.8l1.47-3.68a22.63,22.63,0,0,1,2.44-.74,2.57,2.57,0,0,1,2.45,1.16,1.74,1.74,0,0,1,.43,2.14c-1.08,1.9-2.41,3.52-4.33,3.86l-2.46-2.74"/><path class="cls-1" d="M160.23,104.64c2.83.15,3.33,2.18,3.63,4.13.19,1.21-.76,1.8-1.61,2.34a2.19,2.19,0,0,1-2.81-.07,5.14,5.14,0,0,1-2.13-4.31l2.92-2.09"/><path class="cls-1" d="M77.49,98.53H80.7a10.65,10.65,0,0,1,1,4.5,2,2,0,0,1-1,1.78,3.69,3.69,0,0,1-3.83,0,3,3,0,0,1-.67-3.77c.45-.76.84-1.56,1.33-2.46"/><path class="cls-1" d="M164.08,140.75a3.93,3.93,0,0,0,.6-4.26l1.19-.67a23.28,23.28,0,0,0,3.39,1.22,1.93,1.93,0,0,1,1.67,1.62,2.48,2.48,0,0,1-.7,2.62,4.17,4.17,0,0,1-6.15-.53"/><path class="cls-1" d="M93.44,182.17a3.59,3.59,0,0,1-4-3.08,1.46,1.46,0,0,1,.51-1.25,15,15,0,0,1,2.71-1.29,2,2,0,0,1,2.2.37,3.52,3.52,0,0,0,.51.43c1.49,1.08,1.74,1.64,1.32,3a2.83,2.83,0,0,1-2.76,1.83c-.17,0-.34,0-.5,0"/><path class="cls-1" d="M72.53,131.61c2.24-.32,2.24-.32,3.66-1.41.23.31.62.6.66.94.25,1.92.22,1.92,1.08,3-.25.89-.48,1.81-.78,2.7-.38,1.1-.78,1.31-1.9,1.08-2.72-.55-4-3.57-2.72-6.32"/><path class="cls-1" d="M78.11,188.06c0,2.74-1,3.68-3.33,3.4a10.11,10.11,0,0,1-1.65-.25,2.32,2.32,0,0,1-1.5-3.41,3.88,3.88,0,0,1,5.89-1,3.25,3.25,0,0,1,.59,1.24"/><path class="cls-1" d="M87.06,78.29c-.37,1.26-.68,2.37-1,3.47a1.88,1.88,0,0,1-1.91,1.37,8,8,0,0,1-2.92-.58A2.35,2.35,0,0,1,80.4,79a3.56,3.56,0,0,1,2.69-1.52,6.66,6.66,0,0,1,4,.85"/><path class="cls-1" d="M134.43,161.55l-1.33-3.29a10.27,10.27,0,0,0,2.33-.77,12.4,12.4,0,0,0,2-2c.35.1.93.26,1.5.44a2.22,2.22,0,0,1,1.85,2.58,2.52,2.52,0,0,1-1.89,2.47c-1.52.3-3.07.41-4.49.59"/><path class="cls-1" d="M159.75,123.89l2.88-.19a25.16,25.16,0,0,1,1.29,2.6,2.66,2.66,0,0,1-2.65,3.78,5.18,5.18,0,0,1-3.33-1.43,1.13,1.13,0,0,1,0-1.86,5.22,5.22,0,0,0,1.82-2.9"/><path class="cls-1" d="M69.21,84.42a23.84,23.84,0,0,0,1.24,2.63,23,23,0,0,0,1.77,2.23,2.18,2.18,0,0,1-2.46,1.36c-1.63-.13-3.24-.35-4.43-1.67-.91-1-.87-1.48-.07-2.61a5,5,0,0,1,3.95-1.94"/><path class="cls-1" d="M154.63,180.59c1.13.1,2,.17,2.9.27a2,2,0,0,1,2.05,2c0,1.15.19,2.56-1.07,3.14a3.53,3.53,0,0,1-3.77-.53c-.52-.4-1.13-.71-1.78-1.11-.61-1.75,1.34-2.45,1.67-3.79"/><path class="cls-1" d="M143.28,117.35c1.5-.68,2.65-1.22,3.81-1.71a2.69,2.69,0,0,1,1.09-.18c.89,0,1.78.11,2.87.18-.34,1.38-.65,2.81-1.05,4.23-.16.59-.66.81-1.3.86a6.1,6.1,0,0,1-4.52-1.51c-.51-.45-.65-1.32-.9-1.87"/><path class="cls-1" d="M98.42,209.88c-1.71.05-3.3-1.06-2.71-3.26.22-.81.22-1.61,1-2.23A2.19,2.19,0,0,1,99,204a3.53,3.53,0,0,1,2.19,2c.84,2.24.21,3.87-2.78,3.94"/><path class="cls-1" d="M148.7,132.9l1.52-2.58,3.8.19a1.28,1.28,0,0,1,.48.09,4.12,4.12,0,0,1,1.32,3.14c-.18,1.1-.74,1.58-2.07,1.8l-1.87.34-3.18-3"/><path class="cls-1" d="M126.9,116.75a5.61,5.61,0,0,0-2.89-4.47l1.52-2.44a5.06,5.06,0,0,1,4,1.14,2.46,2.46,0,0,1,.88,3.4,3.77,3.77,0,0,1-3.52,2.37"/><path class="cls-1" d="M126.78,157.55c.72-2.67-.78-4.31-2.58-5.83a1.29,1.29,0,0,1,1.72-.47,11.09,11.09,0,0,0,2.29.47,3.37,3.37,0,0,1,2.64,5,2,2,0,0,1-2.72,1.19l-1.35-.34"/><path class="cls-1" d="M95,190.52c-1.18-1-2.07-1.7-3-2.49a4.76,4.76,0,0,0,.13-1.47c-.29-1.43.73-1.94,1.66-2.37a2.41,2.41,0,0,1,2.94.36c1.47,1.44,1.58,3.07.12,4.54a17.25,17.25,0,0,1-1.8,1.43"/><path class="cls-1" d="M150.85,174.28c.39-.29.71-.52,1-.76s.47-.43,1-.93a16.12,16.12,0,0,1,0,2.56,5.6,5.6,0,0,0,.43,4.22A1.87,1.87,0,0,1,152.1,182a7.19,7.19,0,0,1-3.12-.29c-1.36-.45-1.39-1.61-.95-2.82,3.42-1.46,3.7-1.92,2.82-4.65"/><path class="cls-1" d="M118.36,170.4l3.39-1a15,15,0,0,1,1.76,1.14,2.89,2.89,0,0,1,.93,1.32c.26,1-.89,2.81-2,3.43a3.16,3.16,0,0,1-3.28-.65,2.18,2.18,0,0,1-.47-1.17c-.07-.49.07-1,0-1.5a13,13,0,0,0-.31-1.56"/><path class="cls-1" d="M158.58,140.93a4.39,4.39,0,0,0,4.65.32l1,1.18a3.94,3.94,0,0,0-2.63,3.33,1,1,0,0,1-1.38.89,8.56,8.56,0,0,1-2.76-1.11,2.29,2.29,0,0,1,.08-3.81l1-.8"/><path class="cls-1" d="M149.6,164c3.41-.39,3.74-.64,4.41-3.32l2,.73c.11.41.19.79.3,1.16.78,2.49-.48,4.36-3.09,4.51a5.09,5.09,0,0,1-1.82-.22c-1.82-.59-2.26-.92-1.82-2.86"/><path class="cls-1" d="M160.5,160.49c1.43-.08,2.57-.17,3.71-.22a2.74,2.74,0,0,1,2.27,1.48c.91,1.24.75,1.91-.52,2.75a4.23,4.23,0,0,1-5.75-1.24,2.3,2.3,0,0,1,.29-2.77"/><path class="cls-1" d="M81.33,194c0,2.22-1.11,3.32-2.87,3.36a3.06,3.06,0,0,1-3.21-2.76,1.74,1.74,0,0,1,.89-1.68,22.4,22.4,0,0,1,2.25-1.43c.43-.19,1.29-.19,1.5.08A18.18,18.18,0,0,1,81.33,194"/><path class="cls-1" d="M81.07,197.87c1.52-1.61,1.64-1.86,2-4.1l2.26.21a2.46,2.46,0,0,1,1.94,2.49c-.2,1.51-2.44,3.56-3.93,3.59-1.65,0-2-.29-2.28-2.19"/><path class="cls-1" d="M94.93,124.71a1,1,0,0,1-.25-.17c-1.9-1.66-1.51-3.82.85-4.67.94-.34,1.89-.65,2.85-.92s1.66,0,2.45,1.11c-1.84,2-1.84,2-2.29,3.65l-3.61,1"/><path class="cls-1" d="M164.13,130.43l1.86,1.36c-.09.33-.22.69-.3,1.05-.24,1.1-.37,2.38-1.71,2.62a5.2,5.2,0,0,1-4.45-1,1.36,1.36,0,0,1-.39-1.68c.36-.82.75-1.62,1.83-1.75s1.95-.36,3.16-.6"/><path class="cls-1" d="M148.18,195.54l-2.13-2.83a6,6,0,0,1,3.93-2.26c.11,0,.22-.06.33-.07a2.62,2.62,0,0,1,2.83,1.31,3,3,0,0,1-1.34,3.16,4.64,4.64,0,0,1-3.62.69"/><path class="cls-1" d="M153.36,109.57c.54-.33,1-.59,1.48-.91s.74-.63,1.09-.93c.71,1.56,1.4,3,2,4.48a2,2,0,0,1-.87,2.71,3.87,3.87,0,0,1-4.3-.45,6.48,6.48,0,0,0,.58-4.9"/><path class="cls-1" d="M145.09,138.78c.24-2.18-1.05-3.61-2.54-5.24.58.05.86.06,1.14.11a10.77,10.77,0,0,0,2.64.4c1.66-.18,2.65.75,3.51,1.85s-.36,3.51-1.93,3.71a4.26,4.26,0,0,1-2.82-.83"/><path class="cls-1" d="M133.38,150.55c2.3-.66,2.3-.66,3.48-2.09a4.38,4.38,0,0,1,3.36,1.53,2.65,2.65,0,0,1-.45,4.31,1.74,1.74,0,0,1-2.82-.78,6,6,0,0,0-3.57-3"/><path class="cls-1" d="M123.7,146.67l2.57-2a19.8,19.8,0,0,1,2.48.89,3,3,0,0,1,1.46,3.71,2.94,2.94,0,0,1-3.91,1.21c-.34-.17-.78-.62-.78-.94a3.16,3.16,0,0,0-1.82-2.91"/><path class="cls-1" d="M106.22,166.23c0-2.81,0-2.81-2.61-5.21,1.59-1.82,2.78-2.21,4.29-1.52s2.06,2.67,1.77,4.34c-.26,1.52-1.42,2.32-3.45,2.39"/><path class="cls-1" d="M134,184.15l-1.69-1.61a8.46,8.46,0,0,0,1-2.54,7.91,7.91,0,0,0-.76-2.58c.72-.11,1.49-.25,2.26-.32a2.3,2.3,0,0,1,2.5,1.33,2.8,2.8,0,0,1-.12,3.19,11.72,11.72,0,0,1-3.18,2.53"/><path class="cls-1" d="M150.29,140.25c.57-2.14,2.16-2.73,4-3a3.22,3.22,0,0,1,3.38,2.24,1.39,1.39,0,0,1-.26,1.06,4.59,4.59,0,0,1-7.08-.34"/><path class="cls-1" d="M93.71,118.88c-1.82,1.56-1.41,3.37-.87,5.39-.36.11-.81.41-1.13.31a14.62,14.62,0,0,1-2.94-1.16,1.88,1.88,0,0,1-.73-1.26,4.71,4.71,0,0,1,.77-3.36,2.59,2.59,0,0,1,2.88-.73c.63.23,1.24.5,2,.81"/><path class="cls-1" d="M139.56,96.49c1.93,0,3.13,1.3,4.1,2.73a2,2,0,0,1-1.61,3,5.56,5.56,0,0,1-3.79-1.1c-1.15-.89-1.11-2,0-3a12.33,12.33,0,0,0,1.3-1.57"/><path class="cls-1" d="M133.86,131.76c-.8-1.31-1.72-2.57-3.55-2.85.22-.8.42-1.53.58-2.13,1.2-.11,2.29-.24,3.38-.31a6.31,6.31,0,0,1,2,0,2,2,0,0,1,.79,3.4,5.87,5.87,0,0,1-3.19,1.87"/><path class="cls-1" d="M143.89,132.6c1-3.07,1-3.07.06-5.11l2.52-1c.52.27,1.15.61,1.79.93a1.63,1.63,0,0,1,1.12,2,3.84,3.84,0,0,1-5.49,3.19"/><path class="cls-1" d="M98.43,157.33l1.35,3.1c.62,1.42.5,1.91-.71,2.84a2.34,2.34,0,0,1-3.21.08c-.56-.45-1.07-.95-1.73-1.55a5,5,0,0,0,1.92-4.47Z"/><path class="cls-1" d="M131.17,120.8a5,5,0,0,1,4,.52c1.41,1,1.56,2.25.27,3.32a7.57,7.57,0,0,1-2.18,1.23,2.68,2.68,0,0,1-3.2-1.54,2.41,2.41,0,0,1,.17-1.43c.25-.68.61-1.32,1-2.1"/><path class="cls-1" d="M93.19,129.66c1,.63,1.79,1.2,2.65,1.7a2.2,2.2,0,0,1,1.22,2,2.35,2.35,0,0,1-1.63,2.15,3.27,3.27,0,0,1-3.44-.74,2.67,2.67,0,0,1-.65-3.08c.34-1.06.69-2,1.85-2.05"/><path class="cls-1" d="M89.27,101.11a5,5,0,0,0,4.46-.6c.16.78.3,1.43.37,1.76a28.41,28.41,0,0,0-1.54,3.19,1.25,1.25,0,0,1-1.51,1,5.12,5.12,0,0,1-3.3-1.87,1.34,1.34,0,0,1,.08-1.85c.42-.52.89-1,1.44-1.6"/><path class="cls-1" d="M96.07,150.77c1.78-.09,2.82,1,3.93,1.89a1.23,1.23,0,0,1,.31,1.65A3.68,3.68,0,0,1,95,155.5a2.52,2.52,0,0,1-.23-3.46,17.78,17.78,0,0,1,1.33-1.27"/><path class="cls-1" d="M132.19,113.9c-.38-1.27-.72-2.36-1.08-3.56a15,15,0,0,0,1.17-1.29c.82-1.1,1.45-1.45,2.46-1.12a2.65,2.65,0,0,1,2,2.27,3.22,3.22,0,0,1-2.76,3.61c-.61.08-1.22.06-1.78.09"/><path class="cls-1" d="M144.14,163l-2-2.37-.21.22a22.31,22.31,0,0,0,.1-2.31c0-.79.05-1.51.85-1.84s1.88-.7,2.67.1a8.64,8.64,0,0,1,1.53,2.16,1.69,1.69,0,0,1-.59,2.23L144.14,163"/><path class="cls-1" d="M88.71,99.78A12.28,12.28,0,0,0,89,98a8.56,8.56,0,0,0-.23-1.5c1.56-.31,2.9-.92,3.4-2.63l1.88.75c.83,1.66.88,3.1-.56,4.45a4.1,4.1,0,0,1-4.76.71"/><path class="cls-1" d="M152.07,115.82l4.05.74,1.14,2a1.31,1.31,0,0,1-.56,2.09,3.78,3.78,0,0,1-2.91.49c-2-.51-2.69-1.65-2.23-3.62.14-.6.35-1.18.51-1.72"/><path class="cls-1" d="M112.66,137c-2.2,0-3.5-1.34-3.45-3.11a2.4,2.4,0,0,1,2.84-1.93,8.83,8.83,0,0,1,2.23.73,2.28,2.28,0,0,1,1.39,2,1.8,1.8,0,0,1-1.21,1.68,15.37,15.37,0,0,1-1.8.67"/><path class="cls-1" d="M93.78,172.75c-.1,1.51-1.13,2.18-2,2.89a4.93,4.93,0,0,1-4.26,1.07c-1.08-.23-1.31-.68-.91-1.67a4.33,4.33,0,0,1,5.81-2.72c.46.16.92.29,1.4.43"/><path class="cls-1" d="M138.26,91.21c-.14-1.32-.22-2.49-.4-3.64a2.31,2.31,0,0,1,2.08-2.69c1.64-.25,2.36.26,2.56,1.81.41,3-1.45,5-4.24,4.52"/><path class="cls-1" d="M120.76,145.51a3.78,3.78,0,0,1,.18-.83,4.36,4.36,0,0,0,0-3.75,1.32,1.32,0,0,1,.49-1.85c.78.18,1.56.31,2.29.55a2.65,2.65,0,0,1,1.09.71c1.53,1.74,1.24,3.56-.76,4.77a3.81,3.81,0,0,1-3.27.4"/><path class="cls-1" d="M96.47,108.57l2.92-1.25,1,1.27-1.86,4.53c-.57.21-1.4.46-2.19.8s-1.77.37-2.14-.2,0-1.22.36-1.82c.67-1,1.22-2.1,1.91-3.33"/><path class="cls-1" d="M108,177.35l-3.41-1.95a22.51,22.51,0,0,0,2.66-2,23.93,23.93,0,0,0,2.18-2.73c1.63.48,2.36,1.48,2,2.94a4.45,4.45,0,0,1-3.48,3.74"/><path class="cls-1" d="M149,166.84l2,1.13c-.4,1.31-1,2.67.15,3.87a2.49,2.49,0,0,1-3.07,1.06,3.37,3.37,0,0,1-2.78-3.84c1.33-.43,2.8-.71,3.68-2.22"/><path class="cls-1" d="M137.63,113.84c.2-1.56.39-3,.6-4.57a4.71,4.71,0,0,1,2,0,9.34,9.34,0,0,1,2.66,2,1.77,1.77,0,0,1-.31,2.56,3.6,3.6,0,0,1-4.93,0"/><path class="cls-1" d="M147,95a3.87,3.87,0,0,1,3-2.52,8.69,8.69,0,0,1,3.06.38c.12,0,.23.24.3.39a3.45,3.45,0,0,1-.75,3.4,2.6,2.6,0,0,1-3.37.3c-.8-.58-1.5-1.29-2.25-2"/><path class="cls-1" d="M92.37,168.12a12.3,12.3,0,0,1-1.76-.46c-1.12-.52-1.28-1-.89-2.25.12-.37.2-.76.31-1.13a1.84,1.84,0,0,1,2.23-1.48A8,8,0,0,1,95,164.31a1.78,1.78,0,0,1-.39,3,13.85,13.85,0,0,1-2.23.84"/><path class="cls-1" d="M59.94,110.34a5.55,5.55,0,0,0,5.24,2.41c0,.56.1,1.08.14,1.51l-3.95,1a3.44,3.44,0,0,1-3.81-1.43,1.51,1.51,0,0,1,.25-2c.61-.54,1.33-1,2.13-1.55"/><path class="cls-1" d="M122.26,119c-.66-1.2-1.16-2.11-1.63-3,.38-.94.77-1.9,1.19-2.92a3.41,3.41,0,0,1,4,3.58c-.23,2.25-1.49,3-3.52,2.32"/><path class="cls-1" d="M111.62,170.91a22.5,22.5,0,0,1-1.47-2.73c-.38-1,.39-2.3,1.5-2.88a3.59,3.59,0,0,1,4.78,2.11c.27,1-.05,1.54-1.1,1.5a3.93,3.93,0,0,0-3.71,2"/><path class="cls-1" d="M88.11,90.3a6.15,6.15,0,0,1,1.89.35,2.56,2.56,0,0,1-1.12,4.68h-.34c-2.67.06-3.85-1.84-2.64-4.25a1.07,1.07,0,0,1,1.18-.71,8.39,8.39,0,0,0,1,.06l0-.14"/><path class="cls-1" d="M78.79,80.69c.14,1.86,1.54,2.67,3,3.34a3.15,3.15,0,0,1-3.59,2.52,3.09,3.09,0,0,1-2.59-3,2.93,2.93,0,0,1,3.16-2.82"/><path class="cls-1" d="M75.68,86.53c-.37.81-.55,1.71-1.67,1.64s-2.11-.27-2.57-1.5c-.29-.79-.71-1.53-1.07-2.28A1.41,1.41,0,0,1,71,82.25a3,3,0,0,1,3,0,1.26,1.26,0,0,1,.52.93,4.51,4.51,0,0,0,1.2,3.39"/><path class="cls-1" d="M101.8,126.94c-.85,1-1.72,1.82-2.48,2.78-1,1.29-3.33.48-4-.49a.81.81,0,0,1-.21-.45A4.35,4.35,0,0,1,97,125.36a2.42,2.42,0,0,1,2.92.3c.31.24.63.47,1,.69l.94.59"/><path class="cls-1" d="M129.08,189.1c-.1-1.85-1.24-2.75-2.37-3.95.49-.4,1-.77,1.41-1.18a5,5,0,0,1,3.58-.65,2.17,2.17,0,0,1,1.23,2.05,2.91,2.91,0,0,1-1.62,2.91,18.89,18.89,0,0,1-2.23.82"/><path class="cls-1" d="M145.67,103.7l-1.76-1.12a3,3,0,0,0,1-2.9A2.17,2.17,0,0,1,147,97.16a2.34,2.34,0,0,1,2.42,2.29,2.74,2.74,0,0,1-1,2.4c-.89.65-1.82,1.25-2.71,1.85"/><path class="cls-1" d="M122.83,133.13a4.35,4.35,0,0,1,2.76,1c.82.55,1.52,1.18,1.3,2.33a2.88,2.88,0,0,1-2.29,2.19,6.45,6.45,0,0,1-2,0,1.87,1.87,0,0,1-1.21-2.62l1.45-2.83"/><path class="cls-1" d="M171.82,131.47a3.41,3.41,0,0,1,.49.55c1.48,2.32,1.36,3.27-1.78,4a3.44,3.44,0,0,1-3.11-.95,3,3,0,0,1-.72-1.8c-.11-.84.31-1.16,1.18-1.28,1.2-.15,2.4-.34,3.94-.57"/><path class="cls-1" d="M103.35,140.89c.17.81-.3,1.31-1.13,1.65a6.24,6.24,0,0,0-1.29.76,2.26,2.26,0,0,1-2.6.06,2.17,2.17,0,0,1-.6-2.41c.46-1.64,1.94-2.1,3.2-2.65,1.11-.5,2.41.94,2.42,2.59"/><path class="cls-1" d="M146.76,121.6c2.6.16,2.6.16,4-.79.68.53,1.52.86,1.44,2a4.77,4.77,0,0,1-1.56,3.41,3,3,0,0,1-3.26-.41,2.88,2.88,0,0,1-.25-1.25c-.12-1-.23-1.92-.35-3"/><path class="cls-1" d="M128.05,201.25c.58-1.76,1-3.18,1.53-4.65a3.07,3.07,0,0,1,3.53,1.82,3.26,3.26,0,0,1-1.34,3.68,3.65,3.65,0,0,1-1.78.09c-.85-.06-1.69-.24-1.94-.94"/><path class="cls-1" d="M133.84,187.35c1.75-2.07,3.37-2.39,5.63-1.27,1.45.71,1.6,2.16.33,3.24a3.67,3.67,0,0,1-4.51-.25,21.48,21.48,0,0,1-1.45-1.72"/><path class="cls-1" d="M128.6,129.94c2.53-.22,4,.89,4,2.9a1.48,1.48,0,0,1-.34,1,6.25,6.25,0,0,1-4.15,1.57l-1.66-2.21c1.86-.29,2.09-1.72,2.17-3.31"/><path class="cls-1" d="M68.84,96.12a12.2,12.2,0,0,0,2.14.29,1.76,1.76,0,0,1,1.92,1.46,2.67,2.67,0,0,1-.11,2.72,2.13,2.13,0,0,1-2.61.55,9.76,9.76,0,0,1-1.7-.69c-.93-.61-1-1.28-.45-2.27a7.82,7.82,0,0,0,.53-1,8.63,8.63,0,0,0,.28-1"/><path class="cls-1" d="M105.47,164.79c0,2.2-1.56,3.11-3.47,2-2.71-1.55-2.79-2-.79-4.38a1.35,1.35,0,0,1,.64-.48c1.24-.25,3.82.9,3.62,2.84"/><path class="cls-1" d="M127.59,198.08c-.1,2.41-1.73,3.38-3.58,2.41a5.26,5.26,0,0,1-1.25-.81c-.62-.6-1.43-1.19-1.17-2.22.16-.61,1.91-1.53,2.67-1.46a4,4,0,0,1,2.84,1.22,4.44,4.44,0,0,1,.49.86"/><path class="cls-1" d="M137.71,131.28c1.18-.9,1.07-2.19,1.11-3.33l3.09-1.09c.28.46.61,1,.92,1.51a2.94,2.94,0,0,1-.17,3.59,2.74,2.74,0,0,1-3.13.36c-.6-.28-1.16-.66-1.82-1"/><path class="cls-1" d="M143.44,95.05a2.78,2.78,0,0,1-2.32-1,1.35,1.35,0,0,1,.22-2.18,16.69,16.69,0,0,1,3.25-1.33A2.05,2.05,0,0,1,147,91.73a2,2,0,0,1-.7,2.22,3.52,3.52,0,0,1-2.81,1.1"/><path class="cls-1" d="M75.9,110c.92-1.27,1.19-2.48.25-3.63l4.22.23,1.46,1.23A3,3,0,0,1,79.72,111a3.58,3.58,0,0,1-3.82-1"/><path class="cls-1" d="M148,109.71l2.23-1.06c2.08.6,2.77,1.66,2.31,3.64-.4,1.72-2.13,2.63-4.13,2.25-.14-1.6-.27-3.17-.41-4.83"/><path class="cls-1" d="M134.93,174.21a2,2,0,0,1-1.68,2.15c-2.09.34-4.32-1.46-4.12-3.36a1.62,1.62,0,0,1,.47-1c1.44-1.12,4.74,0,5.26,1.69a2.1,2.1,0,0,1,.07.52"/><path class="cls-1" d="M79,175.23c1.9-2.42,4.49-2.43,7-2.87a3.09,3.09,0,0,1-.89,2.64,4.15,4.15,0,0,1-2.86,2.15,3.68,3.68,0,0,1-2.12-.29c-.54-.32-.82-1.1-1.17-1.63"/><path class="cls-1" d="M159.46,112.69a7.77,7.77,0,0,1,2.4.68,3.47,3.47,0,0,1,1.11,1.79c.28,1-1,2.92-1.94,3.27-1.36.49-2.68-.24-3.7-2.12a4,4,0,0,0,2.13-3.62"/><path class="cls-1" d="M142.36,142.72c1.6-2.37,3.64-2,5.68-1.29,1.34.45,1.55,1.62.57,2.63a3.62,3.62,0,0,1-5.38-.1,11.39,11.39,0,0,1-.87-1.24"/><path class="cls-1" d="M140.39,121l3-1.18c1.41.6,2,2.12,2.59,3.5a2.18,2.18,0,0,1-2.39,2.93,10.46,10.46,0,0,1-1.29-.26,4.81,4.81,0,0,0-1.89-5"/><path class="cls-1" d="M151.92,168.47l4.46-.84,1.14,1.05c-.16,1.2-.3,2.31-.47,3.6a6.14,6.14,0,0,1-5-1.47c-.84-.75-.55-1.6-.11-2.34"/><path class="cls-1" d="M139.15,179.7a4.49,4.49,0,0,0-3.56-3.65,6,6,0,0,0,.37-1c.23-1,.65-2.06,1.8-2.15a3.74,3.74,0,0,1,3.05,1.51,2,2,0,0,1,.09,2.21,3.13,3.13,0,0,0-.49,1.53c.1.9-.35,1.2-1.26,1.51"/><path class="cls-1" d="M125.74,123.65c-.41-1.25-.78-2.35-1.14-3.45.51-.55,1.06-1.17,1.64-1.77a1.22,1.22,0,0,1,.53-.37,2.8,2.8,0,0,1,3,2.92c-.43,2.08-1.79,3-4.06,2.67"/><path class="cls-1" d="M159,160.83c-.67,3.45,1.46,5,5.34,5.84a4.36,4.36,0,0,1-.71.83,5.27,5.27,0,0,1-5.43.19,1.29,1.29,0,0,1-.81-1.77,6.53,6.53,0,0,0,.09-4.39l1.52-.7"/><path class="cls-1" d="M150.6,156.11c.62,1,1.23,2,1.74,3a2.54,2.54,0,0,1-2.27,3.58,9.75,9.75,0,0,1-1.85-.48c1.47-2.21.46-4-.73-5.88l3.11-.2"/><path class="cls-1" d="M90.49,141.86a4.6,4.6,0,0,0,4.09-2.39,2.52,2.52,0,0,1,1.36,3.58,3.84,3.84,0,0,1-4.33,2.28c-.37-1.13-.7-2.17-1.12-3.47"/><path class="cls-1" d="M92.51,199.6c0-.76-.06-1.26.76-1.4a7.66,7.66,0,0,0,2.14-.83,2.25,2.25,0,0,1,2.75.22,1.93,1.93,0,0,1,.53,2.42,5.38,5.38,0,0,1-1.18,1.78,1.23,1.23,0,0,1-2-.14,5.15,5.15,0,0,0-3-2.05"/><path class="cls-1" d="M101.29,169a3.44,3.44,0,0,1-2.94,3.14c-.72.05-1.45,0-2.16.15s-1-.26-1.17-.87a1.9,1.9,0,0,1,1.14-2.3,11,11,0,0,1,1.58-.92,8.9,8.9,0,0,1,2.39-.53c.8,0,1.16.55,1.16,1.33"/><path class="cls-1" d="M136.47,195.26a3.37,3.37,0,0,0-2.67-2.38c0-1,0-1.95,1-2.46,1.26.28,2.44.58,3.63.78a1.94,1.94,0,0,1,1.68,1.42c.24.76-.21,1.19-.69,1.73a3,3,0,0,1-2.91.91"/><path class="cls-1" d="M143.22,110l1.8-1.22c2.09,1.2,2.95,3.11,2.21,4.84s-2.61,2.39-4.66,1.71c1.61-1.59,2.29-3.32.65-5.33"/><path class="cls-1" d="M165.85,127.4c1.46,0,2.68.08,3.88,0a1.43,1.43,0,0,1,1.62.85,1.88,1.88,0,0,1-.41,2.15c-1.33,1.13-4.45,1-5.6-.32-.64-.71-.45-1.6.51-2.65"/><path class="cls-1" d="M163.8,116.46c.08-.41.16-.79.22-1.07a12.32,12.32,0,0,0,3.47-.54,12.21,12.21,0,0,0,2.62-2.38,2.23,2.23,0,0,1,.94,2.46,3.34,3.34,0,0,1-2.43,2.73,5.08,5.08,0,0,1-4.82-1.2"/><path class="cls-1" d="M112.77,174.56c-.13-1-.29-1.83-.36-2.71a1.56,1.56,0,0,1,.25-.93,2.78,2.78,0,0,1,3.33-.78,2.31,2.31,0,0,1,1.28,2.65,5.82,5.82,0,0,1-.52,1.41,1,1,0,0,1-1.36.63,5.84,5.84,0,0,0-1.33-.17l-1.29-.1"/><path class="cls-1" d="M76.83,87.33c1.44.09,1.83,1,2.11,2.11.4,1.55.17,2.21-1.11,3.11a2.6,2.6,0,0,1-3.27,0c-1-.69-1.19-1.44-.41-2.38a3.65,3.65,0,0,1,1-.84c1.25-.66,1.26-.64,1.65-2"/><path class="cls-1" d="M103.9,125.71a4.33,4.33,0,0,1-3.54-2.38,1.33,1.33,0,0,1,.19-1.09,13.3,13.3,0,0,1,1.86-1.65,1,1,0,0,1,1.56.29,17.51,17.51,0,0,0,1.28,1.31c.89,1,.9,1.44,0,2.44a9.42,9.42,0,0,1-1.32,1.08"/><path class="cls-1" d="M135.25,96.83l-2.09-2.34-.75.53a11.19,11.19,0,0,1,.65-2,2,2,0,0,1,2-1.26,2.15,2.15,0,0,1,1.9,1.48,14.53,14.53,0,0,1,.45,2.47,1.25,1.25,0,0,1-1,1.37c-.48.14-1,.25-1.46.37.1-.2.19-.39.28-.59"/><path class="cls-1" d="M93.21,107.25l1.6,1.06c0,2-.87,3.32-2.48,3.62a2.18,2.18,0,0,1-2.55-1.15,2.75,2.75,0,0,1,.08-2.85,1.49,1.49,0,0,1,.85-.39c.76-.12,1.53-.18,2.5-.29"/><path class="cls-1" d="M96.45,192.8a1.19,1.19,0,0,1,.94-1.31,3.54,3.54,0,0,1,2.91.26c.77.44,1.62,1,1.55,2a2.92,2.92,0,0,1-1.77,2.29c-.89.47-2.94-.45-3.24-1.43a15.67,15.67,0,0,1-.39-1.84"/><path class="cls-1" d="M158.53,100.1a2.5,2.5,0,0,1,1.08,3,3.13,3.13,0,0,1-3.1,2.3,15.57,15.57,0,0,0-1-1.26,11.69,11.69,0,0,0-1.16-.87l.75-2.27,3.48-.85"/><path class="cls-1" d="M105.61,182.23c.43-.28,1-.58,1.44-.94a2.08,2.08,0,0,1,3,.17,2.41,2.41,0,0,1,0,3.07,4.69,4.69,0,0,1-2.74,1.61l-1.18-.71c-.15-1.07-.3-2.1-.46-3.2"/><path class="cls-1" d="M145.73,154.81l-4.39,1.39-.86-.91a5.63,5.63,0,0,0,1.92-3.47,1.74,1.74,0,0,1,3-.78c1.14,1.17,1.18,1.89.3,3.77"/><path class="cls-1" d="M122.86,101l-1.28-.91a2.84,2.84,0,0,1-.84-3.93,1.33,1.33,0,0,1,.44-.47,3.1,3.1,0,0,1,4.08,1.79,2.07,2.07,0,0,1-.34,1.51,20.72,20.72,0,0,1-2.06,2"/><path class="cls-1" d="M67.91,91.85l4.6-.6c.3.53.62,1.23,1,1.85.62.9.52,1.53-.41,2-1.22.64-4.23.08-5-1a2.11,2.11,0,0,1-.23-2.25"/><path class="cls-1" d="M153,148.49a4.57,4.57,0,0,1-6.31.39,1.63,1.63,0,0,1-.71-1.76,1.45,1.45,0,0,1,1.71-1.06c1.7.37,3.61.32,4.92,1.8a4.43,4.43,0,0,1,.39.63"/><path class="cls-1" d="M90.7,84.06a8.41,8.41,0,0,1-.27,1.33c-.42,1-.9,2-1.36,3a1.71,1.71,0,0,1-1.95.94c-.81-.2-1-.57-1-1.66a2.7,2.7,0,0,0,0-1.14,1.72,1.72,0,0,1,.51-2.24c.17-.16.11-.55.15-.79l4,.52"/><path class="cls-1" d="M138.67,171.82a28.33,28.33,0,0,1,1.48-2.6c.83-1.15,1.76-1.4,2.72-.9a2.63,2.63,0,0,1,1.25,3.15,6.35,6.35,0,0,1-1.53,1.67c-.74.67-1.32,0-1.94-.31s-1.29-.66-2-1"/><path class="cls-1" d="M125.55,172.78l2.77-1.58c0,1.8,0,3.33,0,4.86,0,1.08-.35,1.39-1.41,1.43a6.74,6.74,0,0,1-1.68-.14c-1.45-.32-1.79-1.24-1-2.47.46-.69.88-1.4,1.32-2.1"/><path class="cls-1" d="M104.3,142.09c-.18-1.84.11-2.54,1.19-3.06a5,5,0,0,1,4,.53,1.68,1.68,0,0,1,0,2.51,3,3,0,0,1-3.88.57c-.39-.21-.81-.34-1.32-.55"/><path class="cls-1" d="M75.5,111.3c-2.5,3-1.47,5.11,1.35,6.62a13.34,13.34,0,0,0-1.13.83,2.54,2.54,0,0,1-3.33.39,1.38,1.38,0,0,1-.3-2.36c2-2.22,2.1-2.82.56-5.46-.1-.19-.16-.4-.33-.83,1.12.58,2.48-.88,3.18.81"/><path class="cls-1" d="M123.77,158.4a3.42,3.42,0,0,1-2.9-1.43,2.3,2.3,0,0,1,.32-3.05,2.14,2.14,0,0,1,3,.27,7.94,7.94,0,0,1,1.17,1.63c.76,1.39,0,2.59-1.61,2.58"/><path class="cls-1" d="M136.12,125.21c1.15-.9,1-2.13.94-3.39a5.32,5.32,0,0,0,1.24-.15,1.75,1.75,0,0,1,2.2.71,2.87,2.87,0,0,1,.73,2.81,2.12,2.12,0,0,1-3.24,1.23c-.57-.35-1.12-.72-1.87-1.21"/><path class="cls-1" d="M116.74,158.54c-.82,0-1.56-.1-1.82-1.08a4,4,0,0,0-.59-1c-.73-1.13-.58-1.71.6-2.39a2.74,2.74,0,0,1,4.16,2,2.08,2.08,0,0,1-2.35,2.51"/><path class="cls-1" d="M116.4,164.93a5.42,5.42,0,0,0-5.15-.74c-.26-1.88.25-3.13,1.48-3.7.91-.43,3,.16,3.82,1.08s.78,1.83-.15,3.36"/><path class="cls-1" d="M79.71,87.89l3.65-2.72a1.85,1.85,0,0,1,1.33,2.1,7.57,7.57,0,0,0,.23,1.82c.2,1.08-.09,1.54-1.15,1.48a14.17,14.17,0,0,1-2.49-.39,1.38,1.38,0,0,1-.74-.59c-.31-.52-.54-1.1-.83-1.7"/><path class="cls-1" d="M124.21,184.32c0-1.14-1.17-1.77-1.1-2.95,0-.8-.09-1.61.85-2a2.51,2.51,0,0,1,2.82.23,2.73,2.73,0,0,1,.73,3.05,3,3,0,0,1-3.3,1.63"/><path class="cls-1" d="M58.45,116.52l2.29.26c.36,1.9.69,3.63,1,5.46a2.83,2.83,0,0,1-3.71.14,1.18,1.18,0,0,1-.25-1.65,5.61,5.61,0,0,0,.63-4.21"/><path class="cls-1" d="M61.84,124.19a6.58,6.58,0,0,1-.64.53c-1.26.69-2.56,1.32-3.79,2.06-.92.56-1.62.08-2.32-.35a1.68,1.68,0,0,1-.89-1.82c.23-1.66.52-2.09,1.85-2.53a13.36,13.36,0,0,0,2.62,1.8,12.78,12.78,0,0,0,3.17.31"/><path class="cls-1" d="M136.29,166.51c.6.17,1.39.15,1.76.54a2.65,2.65,0,0,1,.49,2.53A1.88,1.88,0,0,1,136,171a7.41,7.41,0,0,1-1.84-1.13,1.57,1.57,0,0,1-.56-2.06,1.67,1.67,0,0,1,1.84-1.12,7.69,7.69,0,0,0,.83,0Z"/><path class="cls-1" d="M121.43,203.5a1.75,1.75,0,0,1,1.94-1.72,15.24,15.24,0,0,1,3.31.08A2.59,2.59,0,0,1,128,203a1.21,1.21,0,0,1-.34,1.66,5.46,5.46,0,0,1-2.12,1.15,20.92,20.92,0,0,0-1.89-1.35,21,21,0,0,0-2.26-.93"/><path class="cls-1" d="M104.05,147.7a15.68,15.68,0,0,1-2.28-.5,1.29,1.29,0,0,1-.72-2,6.5,6.5,0,0,1,2.18-1.72c.94-.44,3,.78,3.21,1.76a2.06,2.06,0,0,1-2.39,2.5"/><path class="cls-1" d="M116,149.12c-.49-.86-.9-1.58-1.33-2.32a3.39,3.39,0,0,0,.49-1,1.58,1.58,0,0,1,1.41-1.43,3.11,3.11,0,0,1,2.7.58,1.9,1.9,0,0,1,.08,2.47c-.38.6-.78,1.2-1.22,1.87l-2.13-.18"/><path class="cls-1" d="M70,111c.57.74,1.09,1.4,1.58,2.07s.82,1.09.48,1.83-1,.72-1.72.75a4.17,4.17,0,0,1-3.26-1,1.37,1.37,0,0,1-.09-2.2A3.84,3.84,0,0,1,70,111"/><path class="cls-1" d="M141.47,161.61,143,163c-.26.68-.55,1.07-.5,1.4.36,2.15-.92,3.07-2.71,3.65L138.55,166c.15-1.16.28-2.17.42-3.23l2.5-1.14"/><path class="cls-1" d="M80.51,125.63c-.42,1-.79,1.8-1.11,2.63-.41,1.05-1.44,1.5-2.22.73a7.6,7.6,0,0,1-1.79-2.76c-.44-1.22.5-2,1.84-2a3.68,3.68,0,0,1,3.28,1.4"/><path class="cls-1" d="M121.74,105.12c-1.54-.12-2.5.75-3.55,1.8-.31-.42-.7-.73-.75-1.09a11.41,11.41,0,0,1-.24-3.28c.18-1.33,1.07-1.71,2.36-1.31,1.55.48,2.19,1.57,2.18,3.88"/><path class="cls-1" d="M121.74,125.18c-.59-.16-1.09-.24-1.55-.41a1.74,1.74,0,0,1-1-2.43,3.48,3.48,0,0,1,2.52-1.74,2.27,2.27,0,0,1,2.36,1.26c.71,1.21.58,1.92-.65,2.66a10,10,0,0,1-1.64.66"/><path class="cls-1" d="M95.63,173.81c1.25.07,2.35.14,3.44.22a4,4,0,0,1,1,.14,1.86,1.86,0,0,1,1.4,1.7c.06.79-.42,1.37-1.36,1.69a3.43,3.43,0,0,1-3-.53c-.37-.24-.67-.58-1-.85-1.22-.87-1.23-.92-.42-2.37"/><path class="cls-1" d="M129,194.58c-1.6-.09-2.28-.73-2.21-2.08a2.19,2.19,0,0,1,2.41-2.17,4.5,4.5,0,0,1,1.47.19c1.57.58,1.84,1.87.68,3.07a2.46,2.46,0,0,1-2.35,1"/><path class="cls-1" d="M116,131.76a11.71,11.71,0,0,0,1.31-1.11,1.74,1.74,0,0,1,1.83-.49,2.09,2.09,0,0,1,1.9,2.76,13.14,13.14,0,0,1-.65,1.85c-.69-.08-1.23-.19-1.77-.2a11.11,11.11,0,0,0-1.44.18l-1.18-3"/><path class="cls-1" d="M103.25,102.9c.4.55.74,1,1.1,1.49a1.81,1.81,0,0,1,.2,2.31,2,2,0,0,1-2.23.76A3.77,3.77,0,0,1,100,105.2c-.42-1.09.18-1.92,1-2.64l2.33.34"/><path class="cls-1" d="M127.32,100c1.43.2,2.71.26,3.92.56,2.07.52,2.63,1.9,1.66,3.81a5.53,5.53,0,0,1-.62.82l-3-.55a12,12,0,0,0-.43-2.43,13,13,0,0,0-1.53-2.21"/><path class="cls-1" d="M160.2,154.62a6.61,6.61,0,0,0,5.81,1.81c.1,1.68-1,2.35-2.08,2.88a3,3,0,0,1-3.42-.64c-1.28-1.1-.9-2.4-.31-4"/><path class="cls-1" d="M84.05,161.24c1.5,1.07,3.55,1,4.61,2.83-.25.79-.14,1.86-1.41,2.1a3.77,3.77,0,0,1-3.39-1c-.7-.67-.59-2.54.19-3.92"/><path class="cls-1" d="M90.64,194.17c-1.87,0-2.55-.58-2.73-2a1.39,1.39,0,0,1,1.28-1.72c.66-.13,1.31-.31,2-.39a2,2,0,0,1,2.15,1.25,1.55,1.55,0,0,1-.93,2.4,13.72,13.72,0,0,1-1.74.44"/><path class="cls-1" d="M52.41,134.23l1,3.54c-.16.51-.7.9-1.54.49a29.41,29.41,0,0,1-3.2-1.79,1.65,1.65,0,0,1-.83-2,2.2,2.2,0,0,1,2.19-.93c.87.19,1.71.48,2.41.68"/><path class="cls-1" d="M125,107.45l3.79-1.66c0-.1-.05-.19-.07-.29a21.61,21.61,0,0,1,2.12.46,1.21,1.21,0,0,1,.88,1.57,2.16,2.16,0,0,1-3,1.81c-1-.31-2.08-.44-3.28-.68-.11-.32-.26-.78-.41-1.21"/><path class="cls-1" d="M121.85,189.84c-.56-1.92-1.7-3-3.8-3v-1.41c.79-.77,1.5-1.38,2.1-2.08a1.63,1.63,0,0,1,2.18-.39c.6.37,1,1.54.63,2.06-1.15,1.44-1,3.09-1.11,4.8"/><path class="cls-1" d="M84,96.17l2.44,1c.93.38,1.32,1,1.17,1.78a1.84,1.84,0,0,1-1.85,1.62,4.32,4.32,0,0,1-3.18-1.29c-1.15-1.21-.8-2.48.82-2.94.26-.07.52-.16.6-.19"/><path class="cls-1" d="M159.05,136.36a23.13,23.13,0,0,1,3.47.26,1.68,1.68,0,0,1,.79,3,5.3,5.3,0,0,1-.52.42,2.94,2.94,0,0,1-3.18.42c-1.15-.51-.53-1.7-.85-2.54-.13-.35.14-.85.29-1.55"/><path class="cls-1" d="M104.62,200.37s0-.25-.1-.46c-.4-1.33-.3-1.76.6-2.46a2.39,2.39,0,0,1,2.94-.33,2.3,2.3,0,0,1,.89,2.67,17.26,17.26,0,0,1-1.15,2.38l-3.18-1.8"/><path class="cls-1" d="M70.68,155.71c-.08-.5-.15-.93-.21-1.27l2.74-1.08a35,35,0,0,1,3.31,1.42c1.18.64,1.18,1.37.18,2.22-1.24,1-1.7,1-3-.08-.92-.8-1.22-.93-3-1.21"/><path class="cls-1" d="M123.53,102.67a21.49,21.49,0,0,0,2.13-1.34,1.13,1.13,0,0,1,1.64.09,2.58,2.58,0,0,1-.59,4.23,5.31,5.31,0,0,1-.8.25c-2,.52-2.18.36-2.29-1.7,0-.5-.06-1-.09-1.53"/><path class="cls-1" d="M64.14,121.12h1.49l2,2.68.24-.14c0,.6.09,1.19.14,1.77a4.53,4.53,0,0,1-5.5-1.42l1.6-2.89"/><path class="cls-1" d="M102.2,191.2a13.7,13.7,0,0,1,2.16-.15,1.7,1.7,0,0,1,1.55,1.54,3.39,3.39,0,0,1-1.27,3.26c-.64.53-1.27,1.07-2,1.74L100.9,197c2.34-2.76,2.43-3.16,1.3-5.82"/><path class="cls-1" d="M150.51,104.2a9.1,9.1,0,0,0-.61-.78,11.7,11.7,0,0,0-.89-.82,4.52,4.52,0,0,0,1.38-4.27l1.73-.2c.6.84,1.22,1.62,1.73,2.47s-.29,2.25-1.36,2.74c-.56.26-1.13.49-2,.86"/><path class="cls-1" d="M128.17,129.08a4.87,4.87,0,0,0-3.63-2c-.48,0-.91-.66-1.44-1.08l1.92-1.51c.8.06,1.52.15,2.23.16a2.54,2.54,0,0,1,2.48,1.58,2.69,2.69,0,0,1-1.56,2.88"/><path class="cls-1" d="M50.76,117a1.36,1.36,0,0,1,1.94-1.46,4.32,4.32,0,0,1,2.87,2c.31.58.57,1.14.21,1.72a2.08,2.08,0,0,1-1.93,1.12c-1.13-.07-3.07-2.24-3.09-3.4"/><path class="cls-1" d="M137.61,200.75c-1.18-.59-2-1-2.87-1.41-.55-.24-.77-.76-.31-1,1.46-.67,2.63-2.18,4.51-1.68a4.3,4.3,0,0,1,1.25.43,1.45,1.45,0,0,1-.09,2.41,14.86,14.86,0,0,1-2.49,1.21"/><path class="cls-1" d="M105.79,132.19a4.14,4.14,0,0,1-3.6-2.06,1.82,1.82,0,0,1,.82-2.57,2,2,0,0,1,2.49.49,15.9,15.9,0,0,0,1.3,1.53c.49.49.79,1.1.42,1.65s-.94.64-1.43,1"/><path class="cls-1" d="M80.37,118c.36.6.72,1.22,1.09,1.83a2.73,2.73,0,0,1-2,2.6,2.43,2.43,0,0,1-2.7-.63,2.84,2.84,0,0,1,.47-2.94,3.55,3.55,0,0,1,3.1-.86"/><path class="cls-1" d="M122.76,187.6c.08-.16.19-.95.6-1.15a2.8,2.8,0,0,1,3,.08,4.6,4.6,0,0,1,.82.83c1.16,1.41.71,2.69-1.06,3.1a2.66,2.66,0,0,1-3.39-2.86"/><path class="cls-1" d="M66.1,183.25c1,.23,1.93.38,2.82.68a2.09,2.09,0,0,1,1.57,2.26,2.26,2.26,0,0,1-2.79,1.52c-2.37-.46-3.1-2.3-1.6-4.46"/><path class="cls-1" d="M131.51,149.07c-.2-.86-.43-1.72-.6-2.58a1.71,1.71,0,0,1,2.23-2,3.53,3.53,0,0,1,2.19,2,1.93,1.93,0,0,1-1,2.52,5.61,5.61,0,0,1-2.78.12"/><path class="cls-1" d="M107.53,144.4c1.42-.67,2.54-1.44,4-1.1a4.72,4.72,0,0,1,1.1.36c1,.56,1.34,1.17,1.17,2a2,2,0,0,1-1.91,1.35,3.87,3.87,0,0,1-3.4-1.07,8.48,8.48,0,0,1-.94-1.54"/><path class="cls-1" d="M86.21,105.3l-2,1c-1.21.61-1.28.61-2.62-.49A5,5,0,0,0,83,101.36l4.12.29a3.9,3.9,0,0,0-.91,3.65"/><path class="cls-1" d="M121.22,111.54c-.64-.59-1.16-1.1-1.7-1.58-1.13-1-1.24-1.63-.42-2.52,1-1.13,2.28-1.33,3.23-.5a2.59,2.59,0,0,1,1,2.68,2.38,2.38,0,0,1-2.13,1.92"/><path class="cls-1" d="M81.68,139.28l2.69-2.11,1.44.43c1.06.32,1.86,1,1.83,1.72,0,1.07-.84,1.5-1.7,1.85a3.19,3.19,0,0,1-4.26-1.89"/><path class="cls-1" d="M114,126.73a10.56,10.56,0,0,1,1.46.42,1.69,1.69,0,0,1,.69,2.95,2,2,0,0,1-2.29.62c-.89-.31-2.06-.19-2.4-1.5s0-2,1.21-2.31a9.14,9.14,0,0,1,1.33-.18"/><path class="cls-1" d="M133.75,135.27c.08-.35.18-.72.24-1.09.22-1.37.57-1.76,1.75-2a3.44,3.44,0,0,1,3.41,1.27c.31.56,0,.95-.31,1.34-1.26,1.54-3.1,1.72-5.09.47"/><path class="cls-1" d="M88.63,107c-.17,1.78-.31,3.25-.46,4.78a3.05,3.05,0,0,1-3.1-1.89,2.5,2.5,0,0,1,.91-3.39,1.41,1.41,0,0,1,1.85,0c.3.24.64.42.8.53"/><path class="cls-1" d="M108,158.4l-1.15-.17a19,19,0,0,0-.71-2.41c-.32-.74-1.57-.71-1.63-1.9,1.35-.4,2.91-.55,3.38-2.2,1.95.62,2.15,1,1.4,2.72-.24.55-.57,1.06-.84,1.6a4.7,4.7,0,0,0-.43,1.07,7.58,7.58,0,0,0,0,1.29"/><path class="cls-1" d="M118.59,125.21l2.87.81a2,2,0,0,1,1.54,2.39,1.88,1.88,0,0,1-2.54,1.12c-.32-.1-.64-.2-1-.28s-.64-.12-.94-.18l-1-2.76,1-1.1"/><path class="cls-1" d="M91.2,84.23a4.76,4.76,0,0,1,.29-.69c.41-.64.92-1.23,1.27-1.9a2.69,2.69,0,0,1,2.13-1.44,17.7,17.7,0,0,1,2.41,0c.47,1.64.48,1.65-.61,2.37a15.43,15.43,0,0,1-2.56,1.57,13.71,13.71,0,0,1-2.67.51l-.26-.39"/><path class="cls-1" d="M69.8,179.56a4.26,4.26,0,0,0-1.88-3.88c1.36-1.48,4.11-1.37,5.08.21a2.2,2.2,0,0,1,.15,1.56c-.37,1.29-1.46,1.93-3.35,2.11"/><path class="cls-1" d="M101.41,155.79a8.06,8.06,0,0,1,1.84,0,5,5,0,0,1,1.92.87c.65.51.53,1.18-.15,1.68a10,10,0,0,1-1.44.87,2.74,2.74,0,0,1-3.78-1.93,1.31,1.31,0,0,1,1.61-1.51"/><path class="cls-1" d="M141.21,108.48c-.37-1.28-.64-2.25-1-3.48.61-1,1.82-1.27,3.16-1.18a1.21,1.21,0,0,1,.72.36,2.85,2.85,0,0,1,0,3.29c-.92,1.24-1.81,1.49-2.91,1"/><path class="cls-1" d="M97.8,93a4.78,4.78,0,0,1-4.25.26c-1.16-.41-1.08-1.83.11-2.64.83-.56,1.7-1.08,2.58-1.63a6.35,6.35,0,0,1,1.37,1.65A8.14,8.14,0,0,1,97.8,93"/><path class="cls-1" d="M93.59,138.4c-1.66,2.18-2.72,2.52-4.63,1.72l-.48-3.22,2.67-1.21c1.46.31.85,2.35,2.44,2.71"/><path class="cls-1" d="M108.62,158.54c.19-2,.89-2.74,2.44-2.7s2.46,1.25,2.47,3l-2.81,2-2.1-2.24"/><path class="cls-1" d="M127.15,95.42a3.71,3.71,0,0,1-.12-1.15,3,3,0,0,0-.47-2.54c-.53-.79-.31-1.3.56-1.68a3.48,3.48,0,0,1,3.53,1.37c.43.67.17,1.69-.72,2.54a5.14,5.14,0,0,1-2.78,1.46"/><path class="cls-1" d="M150.39,141.89a6.29,6.29,0,0,0,5.19.87c0,1,.1,1.78.14,2.58l-1.8,1.34-4.06-2.24c.14-.68.31-1.52.53-2.55"/><path class="cls-1" d="M84.69,115.09c.37,1.69,1.7,2.13,3,2.68-.2,1.24-1.08,1.6-2.08,1.82a3.11,3.11,0,0,1-3-.65,2,2,0,0,1,.59-3.39,14.17,14.17,0,0,1,1.5-.46"/><path class="cls-1" d="M130.62,136.38c1.63-.84,3.12-.25,4.46,1a1.54,1.54,0,0,1,0,2.48,2.6,2.6,0,0,1-2.63.72,1.53,1.53,0,0,1-.89-.84c-.37-1-.62-2.08-1-3.31"/><path class="cls-1" d="M110.72,196.89c-.88-.58-1.67-1.07-2.42-1.62a1.35,1.35,0,0,1-.49-.8,2.43,2.43,0,0,1,2.89-2.37,2.84,2.84,0,0,1,1.93,2.32c.19,1-.52,1.53-1.14,2.08a2.93,2.93,0,0,1-.77.39"/><path class="cls-1" d="M129.26,182.41l-1.49-3.72,2.06-2.31c.4.43.78.92,1.23,1.33a2.7,2.7,0,0,1,1.16,2.79,3.4,3.4,0,0,1-3,1.91"/><path class="cls-1" d="M130.06,117.36c.6-.47,1.1-.9,1.65-1.27a3.12,3.12,0,0,1,2.54-.63c.76.17,1.38.5,1.47,1.38a1.76,1.76,0,0,1-.91,2,3.39,3.39,0,0,1-4.42-.59,3.18,3.18,0,0,1-.33-.87"/><path class="cls-1" d="M95.3,84.75c1-.48,1.79-1,2.66-1.3a2.56,2.56,0,0,1,3,1.75,1.92,1.92,0,0,1-1.45,2.28,5.12,5.12,0,0,1-2,0c-.79-.1-1-.68-1.15-1.41-.08-.41-.6-.74-1.11-1.32"/><path class="cls-1" d="M168.31,109.5c.89,2.13.44,3.79-1.31,4.53a6.4,6.4,0,0,1-2.6.25c-1.05,0-1-1.18-1.81-1.62a3.78,3.78,0,0,1,2.48-1.23,4.66,4.66,0,0,0,1.8-.83,15,15,0,0,0,1.44-1.1"/><path class="cls-1" d="M106.82,179.58a2.34,2.34,0,0,1-2.59,1.84,2.57,2.57,0,0,1-2.38-2.36c0-1,1.36-1.93,2.74-1.9a2.26,2.26,0,0,1,2.23,2.42"/><path class="cls-1" d="M65.18,99.58c.14.55.27,1,.35,1.41a1.85,1.85,0,0,1-2.07,2.31,6.06,6.06,0,0,1-1.62-.43c-1-.43-1.21-.85-.91-1.94a.75.75,0,0,1,0-.16c.22-.62.28-1.42.71-1.78s1.1.21,1.68.32,1.11.17,1.81.27"/><path class="cls-1" d="M155.61,146.7a25.69,25.69,0,0,1,2.93,1.45c1,.64,1,1.45.12,2.24a3,3,0,0,1-2.46.87,2.06,2.06,0,0,1-1.89-1.46,2.51,2.51,0,0,1,1.3-3.1"/><path class="cls-1" d="M87.33,190.38c-.23.85-.44,1.64-.71,2.63-1.08-.14-2.13-.2-3.14-.43a1.8,1.8,0,0,1-1.42-1.67c-.09-.85.44-1.31,1.18-1.62a13,13,0,0,0,1.33-.7l2.76,1.79"/><path class="cls-1" d="M116.5,140.73c0,1.31-.63,2.1-1.71,1.92a3.85,3.85,0,0,1-3-1.85,3.41,3.41,0,0,1-.2-1.75,1.12,1.12,0,0,1,.62-.72c1-.44,3.63.62,4.08,1.6a4,4,0,0,1,.23.8"/><path class="cls-1" d="M114.61,200.78c.25-.55.38-.85.51-1.15a2.17,2.17,0,0,1,3.09-1.46c1.14.37,2,1.65,1.7,2.53a2.53,2.53,0,0,1-3,1.36,20.24,20.24,0,0,1-2.29-1.28"/><path class="cls-1" d="M159.53,97.62a5.58,5.58,0,0,1,3.76,2.42c.71.94.24,2-.3,2.83a1.87,1.87,0,0,1-2.31.67c-.08-1.57,0-3.23-1.72-4.17l.57-1.75"/><path class="cls-1" d="M105.2,212c-2.17.39-3.08,0-4-1.5.35-.68.71-1.36,1-2a1.91,1.91,0,0,1,3.19-.22c.52.79,1,1.62.24,2.58a4.54,4.54,0,0,0-.51,1.18"/><path class="cls-1" d="M140.1,190.67c.49-.72.9-1.31,1.32-1.9a1.94,1.94,0,0,1,2.34-.8c1,.29,1,1,1,1.86,0,2-.79,2.68-3.26,2.84l-1.42-2"/><path class="cls-1" d="M116.21,180.55c.52-.76.84-1.15,1.07-1.59a2.41,2.41,0,0,0,.23-2.41c-.45-.78,0-1.12.66-1.66a38,38,0,0,1,2.69,3.11c.67.94-.29,2.7-1.53,2.78a20.9,20.9,0,0,1-3.12-.23"/><path class="cls-1" d="M115.71,116.66c2.33-.42,3.68,0,4.27,1.15.79,1.62-.66,2.26-1.45,3.29l-3.17-1.49c.12-.94.23-1.92.35-3"/><path class="cls-1" d="M142.54,174.73l2.76-1.81c1.26.48,2.58.92,3.83,1.51a1.9,1.9,0,0,1,1,1.19c.06.28-.5.79-.88,1a4.54,4.54,0,0,1-1.42.45,1.08,1.08,0,0,1-1.29-.51,2.82,2.82,0,0,0-3.38-1.51,1.22,1.22,0,0,1-.48-.1s0-.1-.1-.24"/><path class="cls-1" d="M129.57,164.6c1.9.87,2.61,2.26,2.09,3.83a2.91,2.91,0,0,1-3.58,1.84c-.25-.77-.49-1.55-.79-2.49a4,4,0,0,0,2.28-3.18"/><path class="cls-1" d="M90,159.53a2.1,2.1,0,0,1-2.12,1.95,4.42,4.42,0,0,1-1.48-.25c-1.22-.38-1.71-.92-1.63-1.63a2.54,2.54,0,0,1,2.3-1.89,11,11,0,0,1,1.51.13c1.07.14,1.44.61,1.42,1.69"/><path class="cls-1" d="M146.37,180.65c1.31,2.23,3.32,2.7,5.66,2.49-.11.73-.19,1.27-.27,1.76-1.11.57-2.14,1.31-3.35.61a8.49,8.49,0,0,1-1.6-1.35,9.87,9.87,0,0,1-.54-.83c-1-1.19-1-1.18.1-2.68"/><path class="cls-1" d="M158.72,169.34h4.9c.13,1.09.42,2.37-1,3.21a2.79,2.79,0,0,1-3.3-.2,2.22,2.22,0,0,1-.62-3"/><path class="cls-1" d="M116,115.34c-.9-1.12-.34-2.34-.47-3.46,0-.23.54-.67.91-.78a2.69,2.69,0,0,1,3,1.29c.62.94.5,1.59-.51,3Z"/><path class="cls-1" d="M79.36,92.63l1.14-1.48,3.77.62c.51,2,0,3-1.51,3.51-1.25.38-2.6-.66-3.4-2.65"/><path class="cls-1" d="M100.92,203.8l-2.48-1.2a5.66,5.66,0,0,0,1.52-4.5,3.43,3.43,0,0,1,2.84,1.27,1.65,1.65,0,0,1-.12,2.52l-1.76,1.91"/><path class="cls-1" d="M72.48,121.89a3.32,3.32,0,0,1-4.78.35,1.79,1.79,0,0,1-.32-1.35,2.22,2.22,0,0,1,1.8-1.75,2.62,2.62,0,0,1,2.71,1.27,15.72,15.72,0,0,1,.59,1.48"/><path class="cls-1" d="M127.61,99.09V97.52c1-.44,1.93-.86,2.88-1.3a2,2,0,0,1,2.9,1.24,13,13,0,0,1,.19,2.29c-1.15-.25-2.1-.53-3.07-.64a27.87,27.87,0,0,0-2.9,0"/><path class="cls-1" d="M155.39,126.25l-2.43-1.7c.07-.64.15-1.41.24-2.28h4a2.32,2.32,0,0,1,.63,2.62,2.22,2.22,0,0,1-2.46,1.36"/><path class="cls-1" d="M72.27,138a15.62,15.62,0,0,0-2.15.6,2.14,2.14,0,0,1-2.91-1.08,2,2,0,0,1,.63-2.54,2.11,2.11,0,0,1,3,.43c.56.83,1,1.74,1.44,2.59"/><path class="cls-1" d="M64.2,119.74C62.89,119.73,62,119,62,118a2.52,2.52,0,0,1,2.7-2.38c1.33,0,2,.83,1.94,2.38,0,1-1.2,1.8-2.45,1.79"/><path class="cls-1" d="M66.84,181.33l-2.71-3.74,2-1.57c2.18,1.07,2.84,2.06,2.55,3.81-.2,1.2-.69,1.54-1.87,1.5"/><path class="cls-1" d="M146,107.87v-3.45c1.68-1,2.49-1.09,3.25-.21a3.05,3.05,0,0,1-.11,3.58c-.78.88-1.88.91-3.14.08"/><path class="cls-1" d="M118,169.06c-.22-1.2-.41-2.18-.6-3.22l1-.77a1.91,1.91,0,0,1,3,.42,1.85,1.85,0,0,1-.5,2.9,3.27,3.27,0,0,1-3,.67"/><path class="cls-1" d="M143.77,167.38c.25-1.16.5-2.27.78-3.56a8.79,8.79,0,0,1,1-.44,1.93,1.93,0,0,1,2.29.52,2.07,2.07,0,0,1,.05,2.22,2.83,2.83,0,0,1-4.16,1.26"/><path class="cls-1" d="M132.19,156.76c.12-2.92.76-2.2-1.38-5.23a4.32,4.32,0,0,1,3.8,1.32,2.3,2.3,0,0,1,.6,3c-.58,1-1.52,1.24-3,.88"/><path class="cls-1" d="M88.19,197.31a3.14,3.14,0,0,1,2.86,1,1.17,1.17,0,0,1,.19,1.52,3.23,3.23,0,0,1-4,1.52,1.4,1.4,0,0,1-.47-2.13c.44-.64.93-1.25,1.43-1.91"/><path class="cls-1" d="M134.4,105.21c1.34-1.83.35-3.71.67-5.48a7.9,7.9,0,0,0,.05-.91l.78-.06c.67,1.52,1.24,2.94,1.9,4.31a2,2,0,0,1,0,2.21c-.45.64-1.19.52-1.84.41a11.8,11.8,0,0,1-1.55-.48"/><path class="cls-1" d="M129.59,161.14c0,1.39-.84,2-1.88,1.65a12.31,12.31,0,0,0-2.06-.56c-1.13-.19-1.53-.8-1.12-1.86a2.57,2.57,0,0,1,4.3-.59,6.24,6.24,0,0,1,.76,1.36"/><path class="cls-1" d="M122.18,130.76c.76-.85,1.48-1.67,2.31-2.62a3.52,3.52,0,0,1,2.68,1.34,2,2,0,0,1,.25,2.05c-.32.7-1,.67-1.61.61-1.35-.13-2.86.11-3.63-1.38"/><path class="cls-1" d="M114.21,179.66c-.66-.11-1.22-.18-1.76-.31a1.46,1.46,0,0,1-.44-2.67,3.1,3.1,0,0,1,4,0,1.52,1.52,0,0,1-.42,2.69,6.71,6.71,0,0,1-1.38.27"/><path class="cls-1" d="M92.43,89.91c-.64-.36-1.59-.57-1.87-1.11-.38-.75.15-1.55.79-2.21a2.49,2.49,0,0,1,3-.68,1.45,1.45,0,0,1,.75,2.39,4.62,4.62,0,0,1-2.68,1.61"/><path class="cls-1" d="M64.28,89.67l2.21,1.55a1,1,0,0,1,0,.4c-.2.82,0,1.84-1.28,2.06a4.32,4.32,0,0,1-3.49-1.25A1.62,1.62,0,0,1,62.63,90c.53-.15,1.08-.22,1.65-.34"/><path class="cls-1" d="M61.53,138.06c-.05.9-.09,1.61-.14,2.36a4.59,4.59,0,0,1-5.27-.68c-.21-.21-.45-.63-.37-.83a1.21,1.21,0,0,1,.8-.66,8.42,8.42,0,0,0,3.07-.66c.48-.22,1.29.3,1.91.47"/><path class="cls-1" d="M100.69,131.58a5.9,5.9,0,0,0,3.64,1.91c.68.08.87.66.89,1.24a1.69,1.69,0,0,1-1.4,1.65,2.59,2.59,0,0,1-2.74-1.1c-.78-1.18-1.25-2.18-.39-3.7"/><path class="cls-1" d="M111,206.85c.08-1.07.1-1.95.24-2.82,0-.33.4-.91.55-.89a9.36,9.36,0,0,1,2.85.62c.63.28.63,1.85.2,2.66a2,2,0,0,1-2.44,1,9.94,9.94,0,0,1-1.4-.56"/><path class="cls-1" d="M52.2,156.06c-1.76.64-2.65.35-3.62-1-1.26-1.79-1-2.53,1-3.4.71-.31,1.38-.83,2.17.08-.38,1.39-1.17,2.92.44,4.35"/><path class="cls-1" d="M61.46,179.84a3.11,3.11,0,0,1,2.89,1.37,1.51,1.51,0,0,1-1.07,2.49,3.78,3.78,0,0,1-3.17-1.22c-.55-.56-.33-1.24-.13-1.89.26-.87,1-.66,1.48-.75"/><path class="cls-1" d="M154.62,94.11c1.68-.23,2.5.16,2.8,1.33.43,1.65,0,2.9-1.17,3.28s-1.94,0-2.63-1.39l1-3.22"/><path class="cls-1" d="M89.43,82.86c-1.57,0-2.22-.47-2.19-1.61a2.16,2.16,0,0,1,2-2.38c1.4,0,2.65,1,2.57,2a2,2,0,0,1-2.4,2"/><path class="cls-1" d="M105.54,116.42a2.79,2.79,0,0,1-3,2.86,1.46,1.46,0,0,1-1.38-1.25c-.19-.89.17-2.31.77-2.41.9-.16,1.75-.69,2.76-.39a1,1,0,0,1,.89,1.19"/><path class="cls-1" d="M119.2,163.51a13.65,13.65,0,0,0-.52-1.74,11.18,11.18,0,0,0-.86-1.4c.86-1.56,2.39-1.81,3.43-.52a5,5,0,0,1,1,1.88c.32,1.28-.53,2.09-1.86,1.93l-1.18-.15"/><path class="cls-1" d="M53.76,128.94v3a4.15,4.15,0,0,1-4.3-.32,1.44,1.44,0,0,1-.21-1.72c.26-.62.6-1.23,1.47-1.09a12.44,12.44,0,0,0,1.49.22,12.81,12.81,0,0,0,1.55-.11"/><path class="cls-1" d="M88.84,185a2.21,2.21,0,0,1,2.23,1.79A1.47,1.47,0,0,1,90,188.42c-1.56.65-2.5.51-3.45-.57-.65-.76-.64-1.46.2-2a14.71,14.71,0,0,1,2.13-.89"/><path class="cls-1" d="M80.28,139.45c.55.81,1,1.52,1.46,2.14a1.37,1.37,0,0,1,.36,1.52,1.51,1.51,0,0,1-1.39,1,6.85,6.85,0,0,1-1.49-.15,2,2,0,0,1-1.65-1.26c-.31-.86.3-1.37.85-1.84s1.31-1,1.86-1.46"/><path class="cls-1" d="M78.64,153.28c1.59-1.16,3-.67,4.39.23,1.1.72,1,1.78-.23,2.24a5.19,5.19,0,0,1-1.78.37c-2,.06-2.63-.71-2.38-2.84"/><path class="cls-1" d="M73.73,178.93c1.06-1.21.41-3.35,2.7-4.17a2.88,2.88,0,0,0,.62.88c.73.52,1.35,1.13,1.13,2A2.57,2.57,0,0,1,76,179.59a2.26,2.26,0,0,1-2.31-.66"/><path class="cls-1" d="M93.52,169.14a4.89,4.89,0,0,1-4.62,1.73c-1.46-.29-2-.89-2-2.4,0-.34,0-.67,0-1a1.34,1.34,0,0,1,2,.25c1.2,1.38,2.85,1.4,4.57,1.43"/><path class="cls-1" d="M135.84,90.16l-2.67,1c-.51-.45-1.07-.9-1.58-1.41a1,1,0,0,1,.06-1.58l.38-.32c.67-.65,1.24-1.48,2.41-.89A2.61,2.61,0,0,1,136,89.8a1.33,1.33,0,0,1-.13.36"/><path class="cls-1" d="M138.16,183.79c.38-.8.82-1.57,1.12-2.39a2.1,2.1,0,0,1,1.66-1.49c.54-.1,1.42.86,1.68,1.71a1.79,1.79,0,0,1-.53,2.13,3.35,3.35,0,0,1-3.93,0"/><path class="cls-1" d="M150.75,107.93c.05-.81.07-1.31.1-1.8a1.7,1.7,0,0,1,1.5-1.88,2.2,2.2,0,0,1,2.54.76c.72,1-.28,2.9-1.76,3.11a11.3,11.3,0,0,1-2.38-.19"/><path class="cls-1" d="M165.31,109.41c-.61-1.62-1.15-3.07-1.75-4.69l1.44-1.2a3.41,3.41,0,0,1,2.47,2.62c.3,1.73-1.07,2.39-2.16,3.27"/><path class="cls-1" d="M92.69,205.45a3.67,3.67,0,0,1-3.11-1.74c-.35-.53-.3-1,.37-1.36,1.82-1,3-.89,4,.59.36.51.7,1.05.34,1.68a1.56,1.56,0,0,1-1.64.83"/><path class="cls-1" d="M95.76,98.1h3.08c.13,1.21.25,2.36.36,3.46a3.49,3.49,0,0,1-3.84-.38c-.57-.63-.41-1.85.4-3.08"/><path class="cls-1" d="M66.25,135a1.49,1.49,0,0,1-1.56,1.4,6.93,6.93,0,0,0-2,.72,1.51,1.51,0,0,1-2.18-.76c-.5-1-.32-1.8.65-2.24a2.32,2.32,0,0,1,2.63,0,8.84,8.84,0,0,0,2.47.89"/><path class="cls-1" d="M62.38,150.9v-3.28c1.48-.76,2.37-.56,3.26.71l.08.15c.4.65,1.12,1.28.64,2.11a2.2,2.2,0,0,1-2.41.79,10.45,10.45,0,0,1-1.57-.48"/><path class="cls-1" d="M83.13,108c.06,2.15.84,3.75,2.76,4.58a1.77,1.77,0,0,1,0,.4c-.18.29-.38.56-.57.84l-.18-.38c-1,0-1.94,0-2.91,0-.33,0-.69.2-1,.14-.46-.1-1.08-.24-1.27-.57-.3-.52.22-.89.69-1.14a5.26,5.26,0,0,0,2.5-3.88"/><path class="cls-1" d="M65.39,137.21l2.27,2.55c-.18.82-.38,1.67-1.57,1.71A3.5,3.5,0,0,1,63,139.86a1.53,1.53,0,0,1,.66-1.9,9.7,9.7,0,0,1,1.76-.75"/><path class="cls-1" d="M152.25,186.24a3,3,0,0,1,2.58,2,2.54,2.54,0,0,1-.34,1.54c-.3.5-.82.35-1.34.13a9.45,9.45,0,0,0-1.91-.52A1.47,1.47,0,0,1,150,188c-.13-.78.4-1.07,1-1.29s1-.4,1.26-.51"/><path class="cls-1" d="M119.32,182c-.1,2-1.1,2.66-2.9,1.9-.72-.3-1.48-.48-2.26-.72a.14.14,0,0,1-.07-.09c-.24-.73-.73-1.53,0-2.18s1.37-.06,2.06.15c1,.33,2.12.63,3.18.94"/><path class="cls-1" d="M73.31,167.77a25.33,25.33,0,0,1,4.91-.07c.56,0,.84.45.8,1.07a2.46,2.46,0,0,1-3.14,2.13,1.56,1.56,0,0,1-.61-.51c-.61-.78-1.18-1.57-2-2.62"/><path class="cls-1" d="M62.51,158.09l2.81-3.56a2,2,0,0,0,.42-.09,2.24,2.24,0,0,1,2.68,1.69,1.57,1.57,0,0,1-1.72,1.77,20,20,0,0,0-2.14-.29,10.35,10.35,0,0,0-2.05.48"/><path class="cls-1" d="M155.72,127.2c.3.11.75.16.77.28a4.09,4.09,0,0,0,2.83,3.17c-1.13,1.51-2.14,2.92-.75,4.64l-1,1.23-1.08-.64c.21-.48.44-.91.6-1.36a3.47,3.47,0,0,0-.81-3.75,3,3,0,0,1-.51-3.57"/><path class="cls-1" d="M74.9,100.8c-.27,1.68-.44,2.93-.67,4.17a1.12,1.12,0,0,1-1.38.93c-.89-.11-1.83-.25-2.28-1.17-.32-.66.07-1.21.53-1.65a13.46,13.46,0,0,1,3.8-2.28"/><path class="cls-1" d="M56.79,96.57a16.73,16.73,0,0,0,1.68,2.08,1.27,1.27,0,0,1,.38,1.49,1.39,1.39,0,0,1-1.29,1.13,3,3,0,0,1-2.71-1.36,1.53,1.53,0,0,1,.27-2c.51-.49,1.11-.9,1.67-1.34"/><path class="cls-1" d="M99.59,93.06l-.67-3.57a2,2,0,0,1,2.72.17,3.42,3.42,0,0,1,1.54,2.64c0,.72-.33,1.19-1.12,1.11s-1.73-.24-2.47-.35"/><path class="cls-1" d="M103.81,152.8a5.32,5.32,0,0,1-.66-.05c-.94-.17-1.6-.75-1.63-1.42a2.39,2.39,0,0,1,1.36-1.94,4.14,4.14,0,0,1,1-.2c1.53-.14,2.14.35,2.2,1.73s-.5,1.9-2.26,1.88"/><path class="cls-1" d="M61.48,108.69l3.66-.73a11.13,11.13,0,0,1,.8,1.56c.44,1.22-.09,2-1.37,2a3.78,3.78,0,0,1-2.65-.82c-.82-.65-.86-.94-.44-2.06"/><path class="cls-1" d="M162.1,119.52c-.11-.06,0,0,0,0,.45.62,1.15,1.21.71,2.07a2.64,2.64,0,0,1-2.36,1.37,1.43,1.43,0,0,1-1.43-.68,14.89,14.89,0,0,0-1-1.27l.55-1.49Z"/><path class="cls-1" d="M85.31,151a2.54,2.54,0,0,1-2.24-1.39c-.45-.9.12-1.63.56-2.32a1.46,1.46,0,0,1,2-.16c.31.23.56.55.86.8.6.52,1.28,1.07.9,2s-1.3,1-2,1.11"/><path class="cls-1" d="M134.52,200.24a9.62,9.62,0,0,1,1.25.62,1.58,1.58,0,0,1,.25,2.69,5.9,5.9,0,0,1-2.45.88,1.67,1.67,0,0,1-2-.69l2.93-3.5"/><path class="cls-1" d="M82.31,182.83a4.56,4.56,0,0,1-3-2.11c-.28-.75.47-2,1.21-1.79,1.11.27,2.35.46,3,1.54a2.71,2.71,0,0,1,.36,1.25c0,.89-.38,1.14-1.64,1.11"/><path class="cls-1" d="M109.89,201.46c.37-1.17.71-2.22,1.08-3.41a3.09,3.09,0,0,1,2.77-.05,1.14,1.14,0,0,1,.6.84,3.22,3.22,0,0,1-4.45,2.62"/><path class="cls-1" d="M112.22,191.29a9.67,9.67,0,0,1,.74-.84,2.06,2.06,0,0,1,2.31-.54,1.92,1.92,0,0,1,1.19,1.86,2.33,2.33,0,0,1-1.27,2.36,1,1,0,0,1-1.44-.37c-.51-.78-1-1.59-1.53-2.47"/><path class="cls-1" d="M70.13,102.5c-.72,1-1.32,2-2,2.85a1.52,1.52,0,0,1-2.21.33c-.62-.45-.62-1.25-.08-2.09s1-1.61,1.44-2.45l2.84,1.36"/><path class="cls-1" d="M52.43,157.47c.4.21.78.42,1.18.61,1.65.78,1.83,1.12,1.52,2.82-.16.92-.55,1.22-1.5,1.09a2.56,2.56,0,0,1-2.26-1.74,2.3,2.3,0,0,1,1.06-2.78"/><path class="cls-1" d="M115.14,125.46c-2,0-2.15-.12-2.09-1.81a6.46,6.46,0,0,1,.32-1.62,1.12,1.12,0,0,1,.5-.63c.65-.36,2.78.7,3.12,1.52a2,2,0,0,1-1.2,2.46,1.73,1.73,0,0,1-.65.08"/><path class="cls-1" d="M88.72,125.21c-.84,1.17-1.78,2-3.25,1.78-1.23-.18-1.53-.82-.91-1.86,1-1.72,1.06-1.89.64-3.94a2.77,2.77,0,0,1,.47-.09,3.78,3.78,0,0,1,.59.1,3.81,3.81,0,0,0,2.46,4"/><path class="cls-1" d="M78.51,93.5,81,96.35c-.67,1-1.22,1.25-2.64,1a3.11,3.11,0,0,1-2.7-2.84l2.9-1"/><path class="cls-1" d="M62.81,94.65l4.23.23s.08.07.08.12c-.08.94.37,2.08-.85,2.62a3.79,3.79,0,0,1-3.49-.5A1.48,1.48,0,0,1,62.37,96a5.1,5.1,0,0,1,.44-1.34"/><path class="cls-1" d="M58.52,128.27c.25.41.5.77.71,1.16a1.8,1.8,0,0,1-.32,2.55,2.64,2.64,0,0,1-2.79-.46,5.61,5.61,0,0,1-.79-1.44,1.14,1.14,0,0,1,1.08-1.62l2.11-.19"/><path class="cls-1" d="M74.89,160.68c.15-.58.28-1.11.39-1.58,1.63-1,3.06-.5,4.45.31a1.57,1.57,0,0,1,.61,1.9,1.33,1.33,0,0,1-1.74.52c-.62-.26-1.21-.62-1.84-.82a12.74,12.74,0,0,0-1.87-.33"/><path class="cls-1" d="M126.69,141.46c-.42-.61-.84-1.2-1.32-1.88a12.26,12.26,0,0,0,1.46-1.22,14.35,14.35,0,0,0,1.13-1.67,2.18,2.18,0,0,1,2.27,2,1.31,1.31,0,0,1-.5.92c-.95.65-2,1.22-3,1.88"/><path class="cls-1" d="M102.69,109.23c1.35,2.08,1.32,3.2,0,4.55a1.41,1.41,0,0,1-2.37-.65,3.49,3.49,0,0,1,2.42-3.9"/><path class="cls-1" d="M63.91,171c.21-.47.44-1,.71-1.64H67.4c.24,1.06.45,2.08.68,3.11.12.55,0,1-.56,1.22a1.29,1.29,0,0,1-1.51-.4c-.63-.78-1.35-1.48-2.1-2.29"/><path class="cls-1" d="M73.9,159.73a2.9,2.9,0,0,1-3.19,1.57c-1.59-.3-2-.72-2.3-2.12,2.18-1.47,4-1.28,5.49.55"/><path class="cls-1" d="M86.89,142.27a24.71,24.71,0,0,1,2,1.63c.86.89.64,1.64-.54,2a3.27,3.27,0,0,1-3-.29,1.45,1.45,0,0,1,0-2.51,11.92,11.92,0,0,1,1.65-.79"/><path class="cls-1" d="M147.75,155a4.08,4.08,0,0,0-.74-4.11l4.51.52c.22,2.55-1.28,4.05-3.77,3.59"/><path class="cls-1" d="M102.35,186a26.55,26.55,0,0,1-2.67-.74,4.83,4.83,0,0,1-1.16-.94c1.06-.64,2-1.17,2.87-1.75a2.28,2.28,0,0,1,2.37,0c.57.63.22,1.26-.14,1.85a11,11,0,0,1-.66,1,5,5,0,0,1-.61.58"/><path class="cls-1" d="M93.2,151.06l-3.06-1.71c-.17-.69-.38-1.54-.6-2.39,1.3-.9,2.29-.57,4,1.36.77.85.69,1.54-.36,2.74"/><path class="cls-1" d="M69,182c2.07-1.78,3.64-1.91,5.55-.43a2.67,2.67,0,0,1-1.15,1.91,1.77,1.77,0,0,1-2.43,0c-.61-.47-1.25-.93-2-1.46"/><path class="cls-1" d="M91.52,159.24a7.75,7.75,0,0,1,0-1.18,1.83,1.83,0,0,1,1.93-1.5,1.46,1.46,0,0,1,1.46,1.85,4.29,4.29,0,0,1-1.1,2.17,2.41,2.41,0,0,1-1.86.23c-.87-.21-.44-1-.44-1.57"/><path class="cls-1" d="M58.44,171.85c-1.74,1-3.38.79-4.41-.42a1.54,1.54,0,0,1-.27-2c.47-.69,1.16-.54,1.82-.31a10.06,10.06,0,0,1,1.69.71,1.91,1.91,0,0,1,1.17,2"/><path class="cls-1" d="M68.72,148.24a4.22,4.22,0,0,1,1.47.46,6.75,6.75,0,0,1,1.63,1.86,1.49,1.49,0,0,1-1,1.9,2.88,2.88,0,0,1-3-.51l.86-3.71"/><path class="cls-1" d="M118,210.8c-1.41,0-2.07-.65-1.89-1.89a1.33,1.33,0,0,1,.23-.59,3.37,3.37,0,0,1,3.89-.46c.69.52.8,1.07.26,1.72A3.19,3.19,0,0,1,118,210.8"/><path class="cls-1" d="M79.27,164.69a3.76,3.76,0,0,1-4.41,1.52,1.33,1.33,0,0,1-.73-1.79,1.7,1.7,0,0,1,1.71-1.12,4.49,4.49,0,0,1,3.43,1.39"/><path class="cls-1" d="M76,181.53c2.36-.64,3,1.33,4.31,2.22-.94,1.42-1.4,1.61-2.77,1.17a8.1,8.1,0,0,1-.92-.38c-1.09-.51-1.25-.8-1-1.94a10.32,10.32,0,0,1,.37-1.07"/><path class="cls-1" d="M103.27,189.94c.33-1,0-2.19,1.24-2.87.46-.27.75-.9,1.41-.56s1.47.87,1.48,1.86a2.44,2.44,0,0,1-1,2.15l-3.13-.58"/><path class="cls-1" d="M125.75,57.46c.14.13.22.18.21.2-1.15,3.19,0,6.06,1.36,8.84.63,1.24,1.46,2.39,2.19,3.58a2.18,2.18,0,0,1,.42,1.32,4.58,4.58,0,0,1-1-.68,19,19,0,0,1-4.18-8.7,5.37,5.37,0,0,1,1-4.56"/><path class="cls-1" d="M89.66,152.28a10.73,10.73,0,0,1,1.44.77c.54.38.91,1,.53,1.6a2.3,2.3,0,0,1-1.45.94,5.74,5.74,0,0,1-2-.37,1.4,1.4,0,0,1-1.12-1.64c.07-.88.67-1.22,1.52-1.21.22,0,.44,0,1-.09"/><path class="cls-1" d="M79.5,115.28l-.67,1.17a3.32,3.32,0,0,1-2.76-1.38,1.85,1.85,0,0,1-.17-2.32c.5-.87,1.19-.63,1.91-.46l.43.1,1.26,2.89"/><path class="cls-1" d="M52.09,145.38a2.56,2.56,0,0,1-2.63,2.31A2.12,2.12,0,0,1,47.28,146a1.42,1.42,0,0,1,.18-1.17,1.49,1.49,0,0,1,1.17-.39c1.13.24,2.23.62,3.46,1"/><path class="cls-1" d="M96.74,149.41a18.61,18.61,0,0,1-.8-2.48,1.71,1.71,0,0,1,.35-1.3,1.26,1.26,0,0,1,1.2,0c1.14.65,2.17,1.44,2.11,3,0,.87-.35,1.19-1.23,1.18a5.73,5.73,0,0,1-1.17-.11,1.5,1.5,0,0,1-.46-.22"/><path class="cls-1" d="M90.58,113.33c-.2,1.21-.37,2.19-.54,3.2-1.36.46-2.41-.27-3.41-.92-.72-.47-.4-1.92.55-2.15a5.77,5.77,0,0,1,3.4-.13"/><path class="cls-1" d="M82.3,161.8c0,3.36,0,3.36,1.39,4.92a2.46,2.46,0,0,1-3.37.15,1.41,1.41,0,0,1-.27-1c.11-.86.34-1.71.55-2.72l1.7-1.31"/><path class="cls-1" d="M125.75,167.07a14.47,14.47,0,0,1-1.45-.28,1.35,1.35,0,0,1-1-1.81c.17-.91.54-1.24,1.53-1.09a7.31,7.31,0,0,1,2.37.65c1.06.55,1,1.4,0,2a7,7,0,0,1-1.45.5"/><path class="cls-1" d="M135.24,120.06l2.11-3a2.12,2.12,0,0,1,2.17,1c.75,1.08.52,2.07-.74,2.51a3.22,3.22,0,0,1-3.54-.47"/><path class="cls-1" d="M141.69,178.44c.28-.51.58-1,.88-1.57a1.45,1.45,0,0,1,2.1-.62,2.77,2.77,0,0,1,1.24,2.43,1.68,1.68,0,0,1-.8,1,2.64,2.64,0,0,1-3.42-1.21"/><path class="cls-1" d="M99.88,97.71c0-.06.15-.62.35-.65a2.6,2.6,0,0,1,1.74.14A4.26,4.26,0,0,1,103.42,99a2,2,0,0,1-.21,1.67c-.23.3-1,.34-1.5.22-1.29-.31-1.8-1.2-1.83-3.16"/><path class="cls-1" d="M69.35,124.19c3.17-.08,4.07-.78,4.74-3.54,1,.09.49.88.61,1.35s.28,1.06.44,1.66a7.3,7.3,0,0,0-.78,1,1.46,1.46,0,0,1-1.55.72c-1,0-2.09,0-3.31,0l-.15-1.19"/><path class="cls-1" d="M132.72,164.17a3.42,3.42,0,0,1,5.11-.59c.53.6.07,1.65-.89,1.89a4.15,4.15,0,0,1-4.22-1.3"/><path class="cls-1" d="M84.23,185.23c-.08.67-.17,1.17-.18,1.66a1.27,1.27,0,0,1-1.2,1.37,7.65,7.65,0,0,1-2.34-.58c-.11,0-.17-.4-.15-.61a2.78,2.78,0,0,1,1.41-2.33,2,2,0,0,1,2.46.49"/><path class="cls-1" d="M119.14,139.22h-1.53l.28-.31-2.11-2.1c1.06-1.18,2.51-1.71,3.42-1.06s.8,1.9-.06,3.47"/><path class="cls-1" d="M56.2,111.67c-.06.61-.09,1-.14,1.37-.19,1.56-.7,1.9-2.22,1.47l-.47-.17c-1.08-.43-1.57-1-1.45-1.58a2.16,2.16,0,0,1,1.85-1.48,14.58,14.58,0,0,1,2.43.39"/><path class="cls-1" d="M84.7,135.41c-.34-.81-1.07-1.57-.08-2.51a8,8,0,0,0,4.27.95c.26,0,.74.24.77.43a1.26,1.26,0,0,1-.28,1,2.56,2.56,0,0,1-2.61.65c-.64-.2-1.29-.34-2.07-.54"/><path class="cls-1" d="M59.06,153c1.53-.07,2.25,1.11,3.24,1.77.59.39.37,1-.09,1.44-.93.91-2.38.83-3.85-.24.13-.45.29-.92.4-1.41s.2-1,.3-1.56"/><path class="cls-1" d="M141.76,187.1l-.76-1.33c.87-.57,1.7-1.19,2.6-1.68a1.83,1.83,0,0,1,1.38-.23c.36.14.61.7.76,1.14a2.54,2.54,0,0,1,0,1.16,1,1,0,0,1-1.3,1,25.58,25.58,0,0,0-2.65,0"/><path class="cls-1" d="M79.34,134.52l2.51.12c.17.18.27.25.31.34.75,1.67.41,2.45-1.37,2.87a2.09,2.09,0,0,1-2.27-.36c.25-.92.51-1.87.82-3"/><path class="cls-1" d="M117.78,193.23l3.75-2.2c1,.44,1.37.93,1.2,1.7a2.23,2.23,0,0,1-2.06,1.82c-1.1-.06-2.24-.11-2.89-1.32"/><path class="cls-1" d="M73.84,148.54c1.88-.37,3,.44,3.15,2.34a1.35,1.35,0,0,1-1.31,1.59c-1.16,0-1.82-.47-1.84-1.41s0-1.66,0-2.52"/><path class="cls-1" d="M54.58,151.75a2.16,2.16,0,0,1,2,2.25A1.58,1.58,0,0,1,55,155.44a2.21,2.21,0,0,1-2.2-2.08,1.56,1.56,0,0,1,1.75-1.61"/><path class="cls-1" d="M135.5,79.23a9.55,9.55,0,0,1-1.31-.58,36,36,0,0,1-7.31-6.47,5.57,5.57,0,0,1-1.6-4c1.68,4.06,5.13,6.47,8.33,9.11l1.57,1.28c.08.07.1.2.32.65"/><path class="cls-1" d="M106.39,148.17l1.12-1.49c.8.41,1.57.84,2.37,1.22a1.27,1.27,0,0,1,.55,2.12c-.61.74-1.36,1.17-2.14.76l-1.9-2.61"/><path class="cls-1" d="M59,166a3.15,3.15,0,0,1-2.7-1.68c-.44-.85-.1-1.37.85-1.44A6.06,6.06,0,0,1,60.54,164a.82.82,0,0,1,0,1.48A12.05,12.05,0,0,1,59,166"/><path class="cls-1" d="M85.25,152.69c1.09.42.36,1.13.53,1.6s.31,1.07.5,1.76c-.61.57-1.26,1.25-2,1.85s-.38,1.83-1.25,2.33c-.67-1.08-1.25-2-1.78-2.87a20.2,20.2,0,0,0,3.15-1.23c1.24-.72.87-2.12.83-3.44"/><path class="cls-1" d="M54.76,163.63a14.78,14.78,0,0,1,.46,1.71,13,13,0,0,1,0,1.65c-1.29.51-2.36.4-2.94-.33a2.13,2.13,0,0,1-.17-2.25c.5-1.18,1.56-.81,2.64-.78"/><path class="cls-1" d="M53.35,146.35c.6.67,1.26,1.32,1.82,2.06a.86.86,0,0,1-.39,1.39,7.65,7.65,0,0,1-2.58.48c-.35,0-.85-.55-1-.95s.22-.8.47-1.12c.43-.57.95-1.07,1.68-1.86"/><path class="cls-1" d="M152.72,125.59c.73.62,1.56,1.19,1.49,2.38-.06,1-.41,1.46-1.41,1.49a5.08,5.08,0,0,1-2-.29,1,1,0,0,1-.25-1.64c.68-.64,1.37-1.26,2.12-1.94"/><path class="cls-1" d="M140.94,120c0-2.47-1.16-4-4.06-4.17-.16-.39-.33-.82-.64-1.6,1.7,1,3.16,1.69,4.84,1.49a.45.45,0,0,1,.3.1,3.35,3.35,0,0,1,1.08,2.73c0,.85-.6,1.24-1.52,1.45"/><path class="cls-1" d="M112.08,208.55h2.11c1,1.33,1,2,0,2.86a2,2,0,0,1-2.59.13c-.6-.6-.41-1.85.47-3"/><path class="cls-1" d="M64,144.59a23.26,23.26,0,0,1-2.21,1.25,2,2,0,0,1-2.23-.72,1.54,1.54,0,0,1,.38-1.84,10.88,10.88,0,0,1,1.3-1.17L64,144.59"/><path class="cls-1" d="M54.89,174.62a5.07,5.07,0,0,1,3.54.45,1.49,1.49,0,0,1,.81,1.81,1.5,1.5,0,0,1-2,.8,3.58,3.58,0,0,1-2.39-3.06"/><path class="cls-1" d="M118,191.14a5,5,0,0,0-3.85-2.49c1.32-.35,2.26-.61,3.22-.85a2.08,2.08,0,0,1,.66-.05c.8.08,1.66.2,2,1.07s-.48,1.39-1.1,1.86a7.47,7.47,0,0,1-.88.46"/><path class="cls-1" d="M57.55,142.93c-.12.81-.24,1.68-.36,2.54-2.32.52-3.62-1.81-2.66-4.31l3,1.77"/><path class="cls-1" d="M61.7,159.71c-.87,1.34-1.18,1.37-3.87.49L57,156.74c1.54,1.16,3.8.95,4.75,3"/><path class="cls-1" d="M143.54,145.67l1.61.65v3l-3.26,1-.89-1.45a3.44,3.44,0,0,0,2.54-3.17"/><path class="cls-1" d="M130.38,163.31c1.06-1.64.48-3-.37-4.41l1.17-.73c1.14,1,2.32,1.79,1.86,3.47-.35,1.27-1,1.69-2.66,1.67"/><path class="cls-1" d="M52.65,140.42c-.19.87-.39,1.73-.58,2.61-1.59.29-2.5-.6-3.3-1.64a1.36,1.36,0,0,1,.24-1.94l3.64,1"/><path class="cls-1" d="M146.46,194.69c-.18.88-.56,1.52-1.48,1.61a3.79,3.79,0,0,1-3-.75c-.6-.52-.11-1.77.83-1.86,1.3-.13,2.69-.23,3.65,1"/><path class="cls-1" d="M129.55,143.91c-1.13,0-2.09-.45-2.15-1s.83-1.74,1.55-2.09a2.28,2.28,0,0,1,2.69,1.39c.14.9-.83,1.68-2.09,1.67"/><path class="cls-1" d="M84.37,168.39a3.57,3.57,0,0,1,.75.72,1.19,1.19,0,0,1-.87,1.88,10.88,10.88,0,0,1-3.07-.62c-.62-.21-.59-.39-.5-1.72l3.69-.26"/><path class="cls-1" d="M138.78,105.67c.2.13.32.17.38.25.41.55,1.21,1,.58,1.85a2.17,2.17,0,0,1-2.45.53.42.42,0,0,1-.14-.09,3.88,3.88,0,0,0-4-1c-.11-1.38.11-1.59,1.11-1.2a9,9,0,0,0,1.07.45c1.29.32,2.56.43,3.45-.8"/><path class="cls-1" d="M104.68,205.78a6.56,6.56,0,0,1-1-.22c-.78-.27-.94-.7-.54-1.41a6.33,6.33,0,0,1,.73-.91c.94-1.08,1.46-1.11,2.45-.15a1.45,1.45,0,0,1,.58,1.62,1.53,1.53,0,0,1-1.4,1,7.52,7.52,0,0,1-.8.05"/><path class="cls-1" d="M59.8,103.46a24.82,24.82,0,0,0,2.35.93,14.5,14.5,0,0,0,2,.27c.43,1.59-.07,2.27-1.57,2.22A3.25,3.25,0,0,1,59.77,105c-.19-.34,0-.9,0-1.53"/><path class="cls-1" d="M71.67,145.72c.16-.61.33-1.25.49-1.84,2.38-.45,2.77-.2,3.63,2.14a2.81,2.81,0,0,1-4.12-.3"/><path class="cls-1" d="M95.82,116.78c-1.93.83-3.71.22-4.34-1.36-.27-.69.13-1.44,1.12-2.11,1.06,1.67,1.06,1.67,3,2.18l.24,1.29"/><path class="cls-1" d="M100.23,137c-3.1,1.68-3.57,1.69-4.68,0a4.65,4.65,0,0,0,3.39-3.23c.46,1.14.85,2.14,1.29,3.23"/><path class="cls-1" d="M121.43,151.05h-.65c-.69,0-1.41-.07-1.55-.95a1.59,1.59,0,0,1,1.4-1.63,5.51,5.51,0,0,1,1.51-.12,1.39,1.39,0,0,1,1.41,1.38c.07.91-.54,1.14-1.26,1.24-.39.06-.78.08-.86.09"/><path class="cls-1" d="M91,195.22l3-1.13c.68.32,1.53.63,1.48,1.65,0,.59-1.42,1.46-2.23,1.53-1.3.1-2.07-.6-2.23-2.05"/><path class="cls-1" d="M111.32,151l.48-2.9a7,7,0,0,0,1-.32c.8-.35,1.29,0,1.7.65a1.59,1.59,0,0,1-.17,2,2.42,2.42,0,0,1-3,.56"/><path class="cls-1" d="M62,125.17l1.43,1.1a2.66,2.66,0,0,0,.57,3.65,1.55,1.55,0,0,1-1.92-.4,8.39,8.39,0,0,1-1.52-1.79,1.35,1.35,0,0,1,0-1.19A8.81,8.81,0,0,1,62,125.17"/><path class="cls-1" d="M78.49,145.68c.78,0,1.45,0,2.12,0,.91.05,1.16.37,1,1.27A2.07,2.07,0,0,1,79,148.6a7.72,7.72,0,0,1-1.41-.76c.34-.85.62-1.53.88-2.16"/><path class="cls-1" d="M62.36,165.56c.89-.25,1.51-.46,2.14-.58a2.5,2.5,0,0,1,2.5,1.8,1.08,1.08,0,0,1-1.28,1.3c-1.53-.17-2.4-1.23-3.36-2.52"/><path class="cls-1" d="M52.62,124.86c.18.8.34,1.49.51,2.23-.76.95-1.73.82-2.72.46a1.29,1.29,0,0,1-.58-2.14,2.41,2.41,0,0,1,2.79-.55"/><path class="cls-1" d="M110.14,190.59c-.23-.14-.91-.3-1.09-.7a1.92,1.92,0,0,1,.33-1.47,2,2,0,0,1,2.64-.72c.49.23,1.07.46.9,1.2a3.1,3.1,0,0,1-2.78,1.69"/><path class="cls-1" d="M86.4,178.71a3.66,3.66,0,0,1,2.41,2,1.17,1.17,0,0,1-1,1.73,1.76,1.76,0,0,1-2.17-2.29,9.72,9.72,0,0,1,.72-1.46"/><path class="cls-1" d="M68.11,145.71c-1.79-.07-2.34-.64-2.1-1.9a1.36,1.36,0,0,1,2.21-1,4.77,4.77,0,0,1,.9.71c.39.39,1,.84.59,1.39s-1,.55-1.52.79c-.1,0-.22,0-.08,0"/><path class="cls-1" d="M130.89,195.27c.58-.47,1.08-.9,1.6-1.29a1.5,1.5,0,0,1,1.86.15,1.6,1.6,0,0,1,.82,1.85c-.21.54-.88.91-1.3,1.31l-3-2"/><path class="cls-1" d="M147.25,186.14l1.49.6c.16.88.33,1.73.51,2.63l-2.61,1c-1.15-1.57,0-2.79.61-4.22"/><path class="cls-1" d="M90.61,129.87c-.4.37-.81.71-1.2,1.09a2.43,2.43,0,0,1-2.81.36c-.69-.26-.79-.76-.37-1.33,1.24-1.65,2.92-1.7,4.38-.12"/><path class="cls-1" d="M67.11,164c2.07-.2,3.64-.08,4.77,1.48-.47,1.22-1.53,1.2-2.52,1.18-1.7,0-1.24-1.76-2.25-2.66"/><path class="cls-1" d="M116.45,203.27c1.2.35,2.49-.14,3.5.77-.16,1.76-.28,1.88-1.93,2-.28,0-.56,0-.84.08l-.76.05a1.27,1.27,0,0,1-.12-.41c0-.77.09-1.54.15-2.44"/><path class="cls-1" d="M71.82,139.31l3.25,1.84a4.3,4.3,0,0,1-4,.92c-.94-.27-1.12-.87-.49-1.65a8,8,0,0,1,1.27-1.11"/><path class="cls-1" d="M122.16,208.72c-.59-.81-1.12-1.56-1.71-2.38,0-.11.14-.31.24-.49.3-.53.52-1.2,1.32-1a2.08,2.08,0,0,1,1.63,1.5,1.36,1.36,0,0,1-.45,1.78c-.36.25-.74.46-1,.64"/><path class="cls-1" d="M100.45,190.09l-1.91-.39c.43-1.2.84-2.3,1.27-3.49a2.08,2.08,0,0,1,2.08,1.44c.38,1.13-.75,1.69-1.44,2.44"/><path class="cls-1" d="M82.4,131.49c-.2,1.66-.59,1.93-2.25,1.71s-2.06-.64-1.82-2.18c1.51-1.28,2.66.21,4.07.47"/><path class="cls-1" d="M82.62,126c.58,1.45.58,1.45,2.21,2.67l-.85,1.4c-1.27-.29-2.59-.44-2.84-2-.18-1.09.5-1.73,1.48-2.1"/><path class="cls-1" d="M113.47,152.61c.78-.8,1.46-1.51,2.16-2.21a1.21,1.21,0,0,1,2.09.57,5.78,5.78,0,0,1-.06,1.6,14.1,14.1,0,0,0-2.28.34,1.77,1.77,0,0,1-1.91-.3"/><path class="cls-1" d="M143.8,84.86c1.4-.06,2.58.72,2.55,2a3.23,3.23,0,0,1-.81,1.76,4.65,4.65,0,0,1-1.36.8l-.38-4.55"/><path class="cls-1" d="M109,137.3c-1.72.93-3.9,0-5.25,2-.44-.62-.78-1.12-1.17-1.68a6.85,6.85,0,0,0,4-1.53c.65-.45,1.51,0,2.39,1.22"/><path class="cls-1" d="M61,173.41c1.56-.65,2.91-.36,3.68.71.5.69-.13,1.84-1.07,2a1.81,1.81,0,0,1-1.92-1c-.24-.5-.43-1-.69-1.64"/><path class="cls-1" d="M115,187.58a1.58,1.58,0,0,1-1.65-1.51,1.77,1.77,0,0,1,1.64-1.41c1,0,2.11.82,2,1.57s-1,1.38-2,1.35"/><path class="cls-1" d="M120.49,195.86c-.1.31-.2.62-.28.91-.16,0-.29.12-.36.08a6.21,6.21,0,0,0-5-.45,4.89,4.89,0,0,1-1.29.07l.44-1.34c1.29.4,2.48.31,3.17-.76l3.36,1.49"/><path class="cls-1" d="M66.73,133.28l-1.88-.46c-.57-.15-.95-.58-.75-1.11s.63-1.09,1-1.14a4.25,4.25,0,0,1,2.08.44,1,1,0,0,1,.59,1.37,3.82,3.82,0,0,1-1,.9"/><path class="cls-1" d="M63.06,161a4.85,4.85,0,0,1,2.7-1.13c1,0,1.72.59,1.67,1.27a1.45,1.45,0,0,1-1.94,1.23c-.89-.22-1.89-.32-2.43-1.37"/><path class="cls-1" d="M63.53,169.18a2,2,0,0,1-2,1.46,1.14,1.14,0,0,1-1.18-.75c-.3-.72-.71-1.39-1.1-2.14.75-.88,1.44,0,2.11.28a18.7,18.7,0,0,1,2.21,1.15"/><path class="cls-1" d="M57.47,150.35c.1-.83.19-1.66.29-2.47.93-.14,2.37.6,2.5,1.27a1.91,1.91,0,0,1-.86,2c-1,.48-1.44-.18-1.93-.82"/><path class="cls-1" d="M73.67,126.85a6.3,6.3,0,0,1,.48,1.24,1.08,1.08,0,0,1-.91,1.35,3.08,3.08,0,0,1-1,.05c-.64-.09-1.44,0-1.45-1a1.64,1.64,0,0,1,1.68-1.85,10.14,10.14,0,0,1,1.2.21"/><path class="cls-1" d="M59.19,134.21a16.63,16.63,0,0,1-1,1.52c-.67.78-1.52.34-2.19.08a3.19,3.19,0,0,1-1.4-1.3c-.11-.17.42-.74.52-.9l4.07.6"/><path class="cls-1" d="M95.11,103.63l3.53.66c.09,1.16-.85,1.67-1.63,2-.43.18-1.29-.23-1.75-.62a1.33,1.33,0,0,1-.15-2"/><path class="cls-1" d="M80.42,124.17c1-1,2-1.82,3-2.71,1,.84,1.32,1.74.76,2.56s-2.06,1-3.72.15"/><path class="cls-1" d="M121.66,94.05c.51-1.62,1.31-2.43,2.28-2.33s1.44.83,1.6,2.6l-3.88-.27"/><path class="cls-1" d="M98.34,179.64c.23,0,.41,0,.57.06,1.1.29,1.59.77,1.54,1.48a1.85,1.85,0,0,1-1.85,1.64,14.81,14.81,0,0,1-1.58-.06l1.32-3.12"/><path class="cls-1" d="M74.62,107.79c0,.23,0,.75-.2,1-1,.94-3.92.41-4.63-.83a2.58,2.58,0,0,1-.14-.78l5,.65"/><path class="cls-1" d="M118,140.21c1.93.36,2.37,1.29,1.6,3.48l-2.71-.47c.35-1,.71-1.92,1.11-3"/><path class="cls-1" d="M122.55,168.56l.61-1.17c.85.38,1.68.69,2.44,1.1,1.3.72,1.36,1.71.15,3a5.56,5.56,0,0,0-3.2-3"/><path class="cls-1" d="M66.61,129.33a21,21,0,0,1-2.16-1.12.93.93,0,0,1-.18-.88,1,1,0,0,1,.77-.47,9.5,9.5,0,0,1,2,.24c.63.14,1.17.5,1,1.26s-.67,1-1.47,1"/><path class="cls-1" d="M120.37,181.79c1.48-1.65,2.31-3.17.78-5.14l1.44-.29c.51.69,1,1.33,1.52,2.08a2.64,2.64,0,0,0-2.08,3.35Z"/><path class="cls-1" d="M106.7,206.92l1.57-3.06c.69-.08,1.49-.19,1.91.72.26.57-.37,1.54-1.31,1.92a11.76,11.76,0,0,1-2.17.42"/><path class="cls-1" d="M73.51,96.19l1-.57c.72,1.2,1.62,2.27,1.17,3.72-.11.34-.69.52-1.15.83-.36-1.41-.67-2.58-1-4"/><path class="cls-1" d="M100.71,115.4a9.17,9.17,0,0,1-.58.79c-1,1-1.39,1-2.28-.1-.36-.45-.76-.9-.22-1.47a1.41,1.41,0,0,1,1.89-.1c.35.27.71.53,1.19.88"/><path class="cls-1" d="M79.48,172.87a1.43,1.43,0,0,1-1.81,1,6.71,6.71,0,0,1-2.24-.94.57.57,0,0,1,.38-1,5.19,5.19,0,0,1,1.8.09,12.72,12.72,0,0,1,1.87.79"/><path class="cls-1" d="M73.15,171.16c-1.08,1.2-1.78,1.49-2.59,1a1.63,1.63,0,0,1-.67-1.17c0-.28.51-.75.86-.82a1.8,1.8,0,0,1,2.4,1"/><path class="cls-1" d="M95.67,94.74a4.32,4.32,0,0,1,3.27,1.13A1.57,1.57,0,0,1,97.07,97c-1.29-.18-1.25-1.2-1.4-2.21"/><path class="cls-1" d="M110.7,152c.76.19,1.66-.12,1.85.84.14.77,1.82,1,.63,2.24l-2-.38c-.15-.83-.3-1.63-.5-2.7"/><path class="cls-1" d="M123.55,193.63c.08-.84.14-1.55.23-2.43l2.09.24V194l-2.32-.32"/><path class="cls-1" d="M61.27,93.4c.17.28.46.56.41.75A13.25,13.25,0,0,1,60.83,97c-.24.5-.79.21-1.11-.15A1.92,1.92,0,0,1,60,94.29c.3-.24.63-.44,1.29-.89"/><path class="cls-1" d="M146.35,89.43l2.09-1c1.4,1.09,1.41,1.74-.11,3.11l-2-2.08"/><path class="cls-1" d="M129.59,203.13c.84.27,1.1,1.1,1.38,1.91a3.91,3.91,0,0,1-3.1,1.34l1.72-3.25"/><path class="cls-1" d="M88.59,127.05c.9-.43,1.15-1.67,2.48-1.59.15,1.15-.29,2.45,1.17,3.24l-.44.25-3.21-1.9"/><path class="cls-1" d="M111.34,180l1.28.5a22.39,22.39,0,0,1,.35,2.76,1.75,1.75,0,0,1-.8,1.28c-.16-.78-.33-1.56-.46-2.34s-1.1-1.23-.37-2.2"/><path class="cls-1" d="M110,211.05c-.81,1.61-1.43,1.86-3.06,1.3.56-2.29,1.09-2.54,3.06-1.3"/><path class="cls-1" d="M146.64,96l-2.72,1.72L142,96.11c1-.06,1.76-.14,2.49-.15s1.31-1.06,2.12,0"/><path class="cls-1" d="M134.43,189.67l-1.6,1.37c-.38-.46-.73-.89-1.13-1.36l1.74-1.41c.36.51.68.95,1,1.4"/><path class="cls-1" d="M69.47,109.86l-1.86.4c-.12-1-.22-1.75-.34-2.67l.89-.08,1.31,2.35"/><path class="cls-1" d="M110,180l-2-.28c-.18-1.22-.18-1.22,1.66-1.63.58.81.58.81.3,1.91"/><path class="cls-1" d="M96.82,166.3v-1.46l2.36-.24.37,1.22-2.73.48"/><path class="cls-1" d="M71.48,131.33l-.89,2.27-.93-.17c.12-.85.23-1.62.36-2.45l1.46.35"/><path class="cls-1" d="M110.47,208.92c-1-.36-2.21-.1-3.52-.87,1.16-.28,2-.54,2.81-.68s1,.3.71,1.55"/><path class="cls-1" d="M107.91,190.2l1.14,1.07-1.67,1.58c-.23-.62-.41-1.07-.6-1.58l1.13-1.07"/><path class="cls-1" d="M68.6,116.58l1.88.09c-.1.6-.17,1.07-.24,1.53-1.59-.08-1.59-.08-1.64-1.62"/><path class="cls-1" d="M103.65,94.6c-1.08.72-1.75,1.44-3,1.11-.07-.36-.15-.76-.26-1.27l3.24.16"/><path class="cls-1" d="M109.55,169.8c-.57-.83-1.14-1.65-1.77-2.58l1.19-.52.8,3-.22.12"/><path class="cls-1" d="M141.41,95.64l-2-.13c-.17-1-.34-2-.5-3,.51-.3.85-.22.83.35,0,1.14.56,1.9,1.63,2.76"/><path class="cls-1" d="M94.54,125.68c-.31.64-.54,1.11-.8,1.66-.64-.19-1.39-.08-1.27-1,.09-.63.79-.87,2.07-.65"/><path class="cls-1" d="M163,117.83l2.62,1.64-1.2,1c-.38-.92-1.34-1.41-1.42-2.62"/><path class="cls-1" d="M51.29,121.4l2.29,1c-.16.57-.31,1-1,.88a1.87,1.87,0,0,1-1.3-1.9"/><path class="cls-1" d="M92.21,183.6c-1.18,1.46-1.76-.28-2.67-.22.43-.8.43-.8,2.67.22"/><path class="cls-1" d="M85.88,177.21c-.63.57-1.1,1-1.67,1.54l-.84-.72c.95-.24,1.13-1.73,2.51-.82"/><path class="cls-1" d="M137.8,85.11c-.18.4-.36.79-.58,1.29l-2-1.09,2.35-.55a4,4,0,0,1,.2.35"/><path class="cls-1" d="M139,102.74l1.86.43-1.74,1.51c0-.59-.07-1.16-.12-1.94"/><path class="cls-1" d="M79.34,151.18v-1.41c.61.07,1.2-.51,2,.22l-2,1.19"/><path class="cls-1" d="M78.67,139.31,77,140.42c-.17-.29-.35-.6-.57-1,.73-.24,1.27-1.14,2.2-.15"/><path class="cls-1" d="M106.5,135c.11-.9-.22-1.76,1-1.83.07.52.14,1,.23,1.65l-1.28.18"/><path class="cls-1" d="M143.67,181c1.18.31,1.18.31.68,1.84-.8-.39-.47-1.1-.68-1.84"/><path class="cls-1" d="M74.83,174.21l-.77.73c-.4-.24-.8-.47-1.33-.8.82-.4,1.43-1.15,2.1.07"/><path class="cls-1" d="M103.3,154.29l-1.71.15c0-.4.06-.7.09-1.16l1.74.57-.12.44"/><path class="cls-1" d="M81.51,189.85c-1.64.27-2,.1-2.21-1l2.21,1"/><path class="cls-1" d="M118.74,153.2c.33-.49,0-1.55,1.4-1.34-.42.61-.75,1.09-1.07,1.57l-.33-.23"/><path class="cls-1" d="M132.45,165.16l1.43,1c-.26.25-.45.42-.76.7-.21-.53-.37-.94-.67-1.68"/><path class="cls-1" d="M79.58,170.72,81.44,172c-1.12.13-1.47-.63-2.08-.92.07-.1.15-.2.22-.31"/><path class="cls-1" d="M88.52,195.36c.63-.35,1.21-.46,1.54.38l-1.54-.38"/><path class="cls-1" d="M121.08,201.81l.47-1.79.88.79-1.35,1"/><path class="cls-1" d="M99.11,144.67c.32.12.64.23.94.37a2.38,2.38,0,0,1-.13.43l-.91-.35c0-.15.07-.3.1-.45"/><path class="cls-1" d="M123.37,160.43l-.78-1c.24-.06.4-.16.51-.12.49.16.49.17.27,1.13"/><path class="cls-1" d="M95.5,193c-.89-.59-.83-1-.55-1.39.06-.07.44,0,.44,0,0,.38.07.77.11,1.4"/><path class="cls-1" d="M111.11,137.87c-.29.47-.45.74-.72,1.16-.4-.86-.09-1,.72-1.16"/><path class="cls-2" d="M120.7,253c-.63-.06-.94.28-1,.87s-.15,1-.19,1.51c-.07,1.09-.12,2.19-.2,3.62-.68-.63-1.1-1-1.47-1.38-1-1.05-2-2.16-3-3.16a1.65,1.65,0,0,0-1.33-.35c-.26.06-.52.69-.54,1.08,0,1.51,0,3,0,4.55a13.67,13.67,0,0,1-.17,1.38c-.35-.62-.52-.9-.67-1.19-1-1.85-1.89-3.7-2.85-5.54a4.27,4.27,0,0,0-.72-1.13c-.65-.65-1.45-.44-1.84.5-.79,1.91-1.52,3.83-2.37,6l-2.52-2.11c.47-.24.82-.39,1.14-.59a3,3,0,0,0,1.14-3.82,2.6,2.6,0,0,0-3-1.34c-1.82.45-2.47,1.11-2.57,2.61s-.22,2.91-.32,4.36c0,.62-.07,1.24-.11,1.85s.28,1.23,1,1.28,1-.45,1-1.09.12-1.05.2-1.72c.43.33.7.52.94.74.72.63,1.4,1.3,2.14,1.9,1.39,1.14,1.91,1,2.56-.67.16-.4.34-.8.54-1.24h3.18c1.49,2.56,1.49,2.56,3.16,2,.07.27.06.65.23.79a1.84,1.84,0,0,0,1.11.46c.28,0,.62-.44.74-.75a3.5,3.5,0,0,0,0-1.17c0-1,0-2.08,0-3.37a8.22,8.22,0,0,1,.69.53l3.14,3.3c.43.45.86.93,1.59.65s.7-.95.75-1.56c.1-1.29.18-2.58.26-3.87,0-1,.1-1.91.12-2.87a.89.89,0,0,0-.84-1.05m-20,2.75c-.13-1.42.06-1.8.89-1.75a.9.9,0,0,1,.64.38.77.77,0,0,1-.2.71,10.3,10.3,0,0,1-1.33.66m6.73,2c.12-.43.21-.77.41-1.45l.92,1.39-1.33.06"/><path class="cls-2" d="M161.18,254.77c-.56,0-.8.33-.84.84-.05.67-.08,1.35-.12,2-.1,1.41-.2,2.83-.32,4.44a24.28,24.28,0,0,1-3.52-3.27c.57-.41,1-.64,1.29-.93a3.24,3.24,0,0,0,.82-3.38c-.39-.87-1.37-1.18-2.8-.88l-.16,0c-.9.25-2.14.24-2.61.84s-.17,1.78-.17,2.71c0,1.58,0,3.15.07,4.72a.86.86,0,0,0,.93.95.91.91,0,0,0,1.07-.83c.06-.44.06-.89.1-1.65,1.33,1.26,2.45,2.27,3.5,3.34a1.11,1.11,0,0,0,1.32.37,2.15,2.15,0,0,1,.8-.11c1.42,0,1.47,0,1.52-1.49.06-1.9.14-3.81.2-5.71a6.63,6.63,0,0,0,0-1.18.91.91,0,0,0-1.06-.84m-4.62,1.3-1.63,1.06c-.21-1.3-.2-1.31,1.63-1.06"/><path class="cls-2" d="M80.51,252.87a1,1,0,0,0-1.73-.56,6.09,6.09,0,0,0-.83,1.05c-.5.72-1,1.45-1.53,2.3a29.58,29.58,0,0,0-1.93-2.37,1.58,1.58,0,0,0-1.25-.54,1.55,1.55,0,0,0-.78,1.09c-.27,1.72-.42,3.45-.62,5.17a12.74,12.74,0,0,0-.24,1.83A1.14,1.14,0,0,0,72.77,262c.68,0,1-.41,1-1.08,0-.39,0-.78,0-1.17.09-1,.21-2.06.35-3.47.58.71.88,1.09,1.2,1.46.8.93,1.37.93,2.16,0,.31-.38.59-.79.88-1.18l.3.05c.07,1.59.14,3.18.22,4.75,1.56.58,2,.29,2-1.26s-.19-3.36-.28-5c0-.73,0-1.47-.08-2.19"/><path class="cls-2" d="M63.66,256.42l-1-4.27c-.14-.57-.34-1.09-1-1.18s-1,.34-1.25.89-.62,1.33-.93,2c-1,2-2,4-2.89,6.08a1.18,1.18,0,0,0,.49,1.7c.68.27,1,.07,1.41-.92.7-1.72.7-1.71,2.58-1.57l1.14.07c.11.52.19.9.29,1.28.19.69.46,1.3,1.36,1.14.66-.11.86-.61.64-1.6-.26-1.21-.55-2.41-.83-3.61m-3.3.48c.24-.55.44-1,.77-1.81l.68,2-1.45-.24"/><path class="cls-2" d="M95.06,256.38c-.38.08-.79,0-1.17.09s-1,.25-1.55.4c.33-2.45,1.11-3.11,3.47-2.93a3,3,0,0,0,.67,0,.79.79,0,0,0,.73-.94c0-.71-.5-.92-1.09-1.06a4.62,4.62,0,0,0-5.78,4.3c-.19,3.82,1.62,5.49,5.32,4.94,1.58-.24,2.1-1.17,1.8-3s-.59-2.25-2.4-1.82m-2.22,2.22,2.6-.12c-.55,1-1,1.06-2.6.12"/><path class="cls-2" d="M175.11,256.94c-.58,0-1.22.09-1.67-.51.73-1.11,2.06-.9,2.95-1.52.2-1.45,0-1.82-1.22-1.57a8.65,8.65,0,0,0-2.76,1.13,2.52,2.52,0,0,0-1,2.69c.19,1.13,1.07,1.53,2,1.75a18,18,0,0,0,2,.24,3.55,3.55,0,0,1-3.43,2.12c-.23,0-.51-.12-.66,0-.34.23-.78.5-.89.86a.89.89,0,0,0,.7,1.15,3.56,3.56,0,0,0,1.17.11,5.93,5.93,0,0,0,4.48-2.32,2.75,2.75,0,0,0,.47-2.83c-.36-1-1.19-1.24-2.15-1.28"/><path class="cls-2" d="M167.39,254.69a2.29,2.29,0,0,0-2.91.51,7,7,0,0,0-1.18,6.17c.63,1.43,1.73,2,3.76,1.88a2.67,2.67,0,0,0,2.65-2.33c.1-.55.12-1.11.15-1.36.08-2.49-.8-4.11-2.47-4.87m.11,6.14a1.2,1.2,0,0,1-1,.43,1.9,1.9,0,0,1-1.23-.67c-.64-1-.1-3.1.93-4.1a3,3,0,0,1,1.28,4.34"/><path class="cls-2" d="M151.49,255.53c0-.69-.22-1.25-1-1.22s-.92.54-.93,1.16a19.39,19.39,0,0,1,0,2,8.76,8.76,0,0,1-.41,2.11c-.4,1.07-1,1.24-2,.67a1.89,1.89,0,0,1-1.07-1.77c0-.84,0-1.68,0-2.52,0-.63-.18-1.15-.89-1.19s-1.06.5-1.09,1.19c0,1-.06,1.91-.05,2.86a4,4,0,0,0,3.58,3.74c1.5.12,2.7-.27,3.21-1.8.38-1.14.61-2.33.91-3.5l-.24-.06c0-.56,0-1.12,0-1.69"/><path class="cls-2" d="M142.55,260a3.12,3.12,0,0,1-2.59-.22c-1.32-.53-1.8-1.34-1.5-2.44a2.39,2.39,0,0,1,2.53-1.52c.39,0,.82.24,1.16.14s.86-.45.91-.76a1.3,1.3,0,0,0-.57-1.05,5.73,5.73,0,0,0-1.62-.38,4.38,4.38,0,0,0-4.54,4.57c.06,2.75,4.95,4.72,6.84,3.55a1,1,0,0,0,.55-1.26c-.19-.54-.61-.89-1.17-.63"/><path class="cls-2" d="M54.9,259.55a11.69,11.69,0,0,0-1.18-.08l-1.45-.13v-4.9c0-1,0-1.91,0-2.87a.92.92,0,0,0-1.07-1c-.73,0-1,.46-1,1.1,0,.79,0,1.57,0,2.36,0,1.91-.12,3.82-.13,5.73,0,1.2.25,1.5,1.43,1.61s2.14.11,3.2.14c.64,0,1.13-.19,1.19-.9s-.5-.95-1.07-1.06"/><path class="cls-2" d="M88.76,256.62c-.33-1.42-.67-2.85-1-4.27-.13-.57-.33-1.09-1-1.18s-1,.34-1.25.9-.62,1.32-.94,2c-1,2-2,4-2.88,6.08a1.18,1.18,0,0,0,.48,1.7c.69.28,1,.07,1.41-.92.7-1.71.7-1.71,2.59-1.56l1.13.07c.12.51.2.89.3,1.27.18.69.46,1.31,1.35,1.15.67-.12.87-.62.65-1.61-.26-1.21-.55-2.41-.83-3.61m-3.3.48.77-1.81.68,2-1.45-.24"/><path class="cls-2" d="M128.91,257.76l-1-4.27c-.14-.57-.34-1.09-1-1.18s-1,.34-1.25.9-.62,1.32-.93,2c-1,2-2,4-2.89,6.08a1.19,1.19,0,0,0,.49,1.7c.68.28,1,.07,1.41-.92.7-1.71.7-1.71,2.58-1.56l1.14.07c.12.51.19.89.29,1.27.19.69.46,1.31,1.36,1.15.66-.12.86-.62.65-1.61-.27-1.21-.56-2.41-.84-3.61m-3.3.48c.24-.55.44-1,.77-1.8l.68,2-1.45-.24"/><path class="cls-2" d="M185.93,261.37c-.26-1.21-.55-2.41-.83-3.61-.33-1.42-.67-2.84-1-4.27-.13-.57-.33-1.09-1-1.18s-1,.34-1.25.9-.62,1.32-.94,2c-1,2-2,4-2.88,6.08a1.18,1.18,0,0,0,.48,1.7c.69.28,1,.07,1.41-.92.71-1.71.71-1.71,2.59-1.56l1.13.07c.12.51.2.89.3,1.27.18.69.46,1.31,1.35,1.15.67-.12.87-.62.65-1.61m-4.13-3.13c.23-.55.43-1,.77-1.8l.68,2-1.45-.24"/><path class="cls-2" d="M448.64,205.51q-1.09,8.13-4.61,12.82T435.82,223q-4.69,0-6.17-3.43t-1.49-10.79V156.12h20.32v-2.81H428.16V126l-29.07,7.19v20.16H366.58V126l-29.07,7.19v20.16H305V126l-29.07,7.19v20.16h-8.6v2.81h8.6v49.23q0,13.6,6.88,18.76t19.84,5.16q13,0,18.6-6.33t6.88-17.12l-2.66-.31q-1.1,8.13-4.61,12.82t-8.2,4.68q-4.69,0-6.18-3.43T305,208.79V156.12h32.5v49.23q0,13.6,6.88,18.76t19.85,5.16q13,0,18.6-6.33t6.88-17.12l-2.66-.31q-1.1,8.13-4.61,12.82T374.24,223q-4.68,0-6.17-3.43t-1.49-10.79V156.12h32.51v49.23q0,13.6,6.88,18.76t19.85,5.16q13,0,18.6-6.33t6.87-17.12Z"/><path class="cls-2" d="M276.65,248a3.14,3.14,0,0,1,2.23.95l.44-.77h2.79l-.82,4.67a19.13,19.13,0,0,0-.31,2.8,2.76,2.76,0,0,0,.3,1.44,1.26,1.26,0,0,0,1.16.47,2.76,2.76,0,0,0,2.17-1.5,7,7,0,0,0,1-4,7.82,7.82,0,0,0-2.18-5.88,8.26,8.26,0,0,0-6.06-2.14,9.17,9.17,0,0,0-6.6,2.61,9.31,9.31,0,0,0-2.72,7,9.15,9.15,0,0,0,.81,4,6.89,6.89,0,0,0,2.16,2.68,10.68,10.68,0,0,0,6.29,1.89,9.13,9.13,0,0,0,6.1-2.13l.41.47a8.1,8.1,0,0,1-2.89,1.66,10.93,10.93,0,0,1-3.65.62,12.66,12.66,0,0,1-3.68-.54,10.06,10.06,0,0,1-3.2-1.62,7.34,7.34,0,0,1-2.25-2.84,9.48,9.48,0,0,1-.82-4,10.18,10.18,0,0,1,2.84-7.4,9.77,9.77,0,0,1,7.34-2.91,9,9,0,0,1,6.35,2.22,8,8,0,0,1,2.42,6.19,7.37,7.37,0,0,1-1.35,4.82,4.75,4.75,0,0,1-3.89,1.62c-1.7,0-2.79-.62-3.27-1.85a2.48,2.48,0,0,1-2.49,1.79,3.49,3.49,0,0,1-2.79-1.12,4.11,4.11,0,0,1-1-2.77,6.49,6.49,0,0,1,1.59-4.73,4.84,4.84,0,0,1,3.54-1.63m1.23,6.79.87-5.48a2.15,2.15,0,0,0-1.59-.77,1.63,1.63,0,0,0-1.39.79,5.46,5.46,0,0,0-.81,2,20.73,20.73,0,0,0-.46,4.28c0,1.38.43,2.08,1.3,2.08a1.61,1.61,0,0,0,1.31-.82,5.11,5.11,0,0,0,.77-2.11"/><path class="cls-2" d="M288.93,258.34v-4.59h.31a6.13,6.13,0,0,0,1.79,3.13,4.37,4.37,0,0,0,2.82.9c1.75,0,2.62-.56,2.62-1.67a1.19,1.19,0,0,0-.64-1.08,9.07,9.07,0,0,0-2.57-.87,9.58,9.58,0,0,1-2.92-1.23,3.23,3.23,0,0,1-1.41-2.92,4.23,4.23,0,0,1,1.23-3.19,4.48,4.48,0,0,1,3.28-1.19,6.27,6.27,0,0,1,2.59.59,2.22,2.22,0,0,0,.74.2.6.6,0,0,0,.44-.18,3.18,3.18,0,0,0,.44-.67h.28v3.93h-.31c-.87-2.22-2.22-3.34-4.05-3.34a3.14,3.14,0,0,0-1.8.43,1.27,1.27,0,0,0-.59,1.06.9.9,0,0,0,.18.6,2.58,2.58,0,0,0,.29.32,1.24,1.24,0,0,0,.33.22l.38.18c.11.05.27.1.48.17a4.06,4.06,0,0,0,.47.13,20.49,20.49,0,0,1,2.52.75,8.94,8.94,0,0,1,1.46.79A3.53,3.53,0,0,1,298.7,254a4.11,4.11,0,0,1-1.29,3.28,5.17,5.17,0,0,1-3.51,1.11,6.84,6.84,0,0,1-3.07-.74,1,1,0,0,0-.49-.21c-.38,0-.74.32-1.1.95Z"/><path class="cls-2" d="M301.31,256.7a6.37,6.37,0,0,1-1.64-4.7,6.16,6.16,0,0,1,1.76-4.72,6.91,6.91,0,0,1,4.93-1.65,6.52,6.52,0,0,1,4.74,1.52,6.22,6.22,0,0,1,1.57,4.66q0,6.53-6.51,6.53a6.55,6.55,0,0,1-4.85-1.64m6.44-3.66v-2.19a17.34,17.34,0,0,0-.27-3.62c-.18-.76-.6-1.14-1.25-1.14a1.28,1.28,0,0,0-.91.32,2,2,0,0,0-.5,1.06,19.88,19.88,0,0,0-.23,3.51v2a18.12,18.12,0,0,0,.17,3.36,5.11,5.11,0,0,0,.35.92,1.07,1.07,0,0,0,1.1.62c.67,0,1.1-.38,1.31-1.15a18,18,0,0,0,.23-3.69"/><path class="cls-2" d="M313.39,245.88h6.18v2.36a3.53,3.53,0,0,1,3.72-2.61,3.23,3.23,0,0,1,3.51,2.77,3.63,3.63,0,0,1,3.76-2.77c2.52,0,3.77,1.42,3.77,4.28v7.71h1.44v.47h-7.1v-.47h.89v-8.33a4.3,4.3,0,0,0-.33-2.28.56.56,0,0,0-.41-.15c-.49,0-.93.33-1.31,1a5.16,5.16,0,0,0-.56,2.54v7.22h.92v.47h-6.59v-.47h.9v-8.33a4.3,4.3,0,0,0-.33-2.28.58.58,0,0,0-.41-.15c-.48,0-.91.36-1.3,1.09a5.51,5.51,0,0,0-.57,2.6v7.07h.92v.47h-7.1v-.47h1.41V246.34h-1.41Z"/><path class="cls-2" d="M338,256.7a6.33,6.33,0,0,1-1.64-4.7,6.16,6.16,0,0,1,1.75-4.72,6.94,6.94,0,0,1,4.94-1.65,6.52,6.52,0,0,1,4.74,1.52,6.26,6.26,0,0,1,1.57,4.66q0,6.53-6.52,6.53A6.54,6.54,0,0,1,338,256.7m6.43-3.66v-2.19a16.67,16.67,0,0,0-.27-3.62c-.17-.76-.59-1.14-1.24-1.14a1.27,1.27,0,0,0-.91.32,2,2,0,0,0-.5,1.06,19.88,19.88,0,0,0-.23,3.51v2a18.12,18.12,0,0,0,.17,3.36,5.18,5.18,0,0,0,.34.92,1.09,1.09,0,0,0,1.11.62,1.3,1.3,0,0,0,1.3-1.15,17.31,17.31,0,0,0,.23-3.69"/><path class="cls-2" d="M350.67,258.34v-4.59h.3a6.21,6.21,0,0,0,1.8,3.13,4.37,4.37,0,0,0,2.82.9c1.74,0,2.61-.56,2.61-1.67a1.17,1.17,0,0,0-.64-1.08,8.89,8.89,0,0,0-2.56-.87,9.58,9.58,0,0,1-2.92-1.23,3.23,3.23,0,0,1-1.41-2.92,4.23,4.23,0,0,1,1.23-3.19,4.48,4.48,0,0,1,3.28-1.19,6.27,6.27,0,0,1,2.59.59,2.22,2.22,0,0,0,.74.2.6.6,0,0,0,.44-.18,2.87,2.87,0,0,0,.43-.67h.28v3.93h-.3c-.87-2.22-2.22-3.34-4.05-3.34a3.1,3.1,0,0,0-1.8.43,1.27,1.27,0,0,0-.59,1.06.9.9,0,0,0,.18.6,4.12,4.12,0,0,0,.28.32,1.33,1.33,0,0,0,.34.22l.38.18a4.36,4.36,0,0,0,.47.17,4.7,4.7,0,0,0,.48.13,20.21,20.21,0,0,1,2.51.75,8.55,8.55,0,0,1,1.46.79,3.53,3.53,0,0,1,1.41,3.14,4.11,4.11,0,0,1-1.28,3.28,5.17,5.17,0,0,1-3.51,1.11,6.88,6.88,0,0,1-3.08-.74,1,1,0,0,0-.48-.21c-.38,0-.75.32-1.11.95Z"/><polygon class="cls-2" points="361.1 238.86 367.38 238.86 367.38 257.63 368.82 257.63 368.82 258.09 361.2 258.09 361.2 257.63 362.61 257.63 362.61 239.32 361.1 239.32 361.1 238.86"/><path class="cls-2" d="M375.46,252.06h.74v-2a12.65,12.65,0,0,0-.27-3.27,1,1,0,0,0-1-.83,1.42,1.42,0,0,0-.83.24.74.74,0,0,0-.37.66,2.6,2.6,0,0,0,.15.86h.64a3.58,3.58,0,0,1,.21,1.3,1.71,1.71,0,0,1-.64,1.31,2.44,2.44,0,0,1-1.62.55,1.91,1.91,0,0,1-2.2-2.13c0-2.1,1.78-3.16,5.35-3.16,2,0,3.44.35,4.22,1s1.17,2,1.17,3.81v5.21c0,.89.25,1.33.74,1.33s.93-.88,1-2.64l.38,0a5.26,5.26,0,0,1-.84,3.11,3.12,3.12,0,0,1-2.44.84c-2,0-3.23-.63-3.54-1.9a2.74,2.74,0,0,1-1,1.44,3.38,3.38,0,0,1-1.95.46q-3.8,0-3.79-3.1a2.51,2.51,0,0,1,1.45-2.5,11.05,11.05,0,0,1,4.45-.68m-.89,4.87a.53.53,0,0,0,.54.39c.27,0,.51-.22.74-.66a3.9,3.9,0,0,0,.35-1.81v-2.38H376c-1.06,0-1.59.78-1.59,2.33v.41a6.51,6.51,0,0,0,.14,1.72"/><path class="cls-2" d="M384.66,254.42v-8.08h-1.41v-.46h1.41v-3.31l4.77-1.17v4.48h3.33v.46h-3.33V255a4.78,4.78,0,0,0,.24,1.77,1,1,0,0,0,1,.57,1.66,1.66,0,0,0,1.34-.77,4.46,4.46,0,0,0,.76-2.11l.43.06a4.93,4.93,0,0,1-1.12,2.8,3.89,3.89,0,0,1-3.05,1,5.39,5.39,0,0,1-3.26-.84,3.65,3.65,0,0,1-1.13-3.08"/><path class="cls-2" d="M402,246.6c-.63,0-1.18.41-1.66,1.23a5.67,5.67,0,0,0-.72,2.92v6.87h1.82v.47h-8v-.47h1.41V246.34h-1.41v-.46h6.18v2.46a3.48,3.48,0,0,1,1.28-2,3.52,3.52,0,0,1,2.16-.71,2.85,2.85,0,0,1,2,.68,2.49,2.49,0,0,1,.75,1.93,2.92,2.92,0,0,1-.56,1.91,2.15,2.15,0,0,1-1.73.66,2,2,0,0,1-1.72-.76,2.35,2.35,0,0,1-.14-2.13h.92c.43-.87.25-1.31-.54-1.31"/><path class="cls-2" d="M406.07,245.88h6.28v11.74h1.44v.47h-7.62v-.47h1.41V246.34h-1.51Zm3.87-1.77a2.41,2.41,0,0,1-1.94-.69,2.6,2.6,0,0,1-.57-1.72,2.41,2.41,0,0,1,.62-1.69,2.54,2.54,0,0,1,1.92-.67,2.8,2.8,0,0,1,1.94.61,2.17,2.17,0,0,1,.67,1.71,2.47,2.47,0,0,1-.64,1.79,2.69,2.69,0,0,1-2,.66"/><path class="cls-2" d="M420.42,245.88v2a3.57,3.57,0,0,1,3.54-2.28,4.09,4.09,0,0,1,3.43,1.59A7.88,7.88,0,0,1,428.6,252a7.22,7.22,0,0,1-1.32,4.77,5,5,0,0,1-4,1.53,4.26,4.26,0,0,1-1.85-.31,2.5,2.5,0,0,1-1-.94v6.64h3.31v.46H414.3v-.46h1.41V246.34h-1.36v-.46Zm3,1.76c-.17-.61-.51-.91-1-.91a1.62,1.62,0,0,0-1.33,1,4.83,4.83,0,0,0-.6,2.58V255a3.75,3.75,0,0,0,.44,1.87,1.4,1.4,0,0,0,1.28.77c.57,0,.95-.38,1.16-1.13a17.44,17.44,0,0,0,.31-4v-1.33a15.76,15.76,0,0,0-.26-3.55"/><polygon class="cls-2" points="429.27 238.86 435.55 238.86 435.55 257.63 436.99 257.63 436.99 258.09 429.37 258.09 429.37 257.63 430.78 257.63 430.78 239.32 429.27 239.32 429.27 238.86"/><path class="cls-2" d="M443.63,252.06h.74v-2a12.65,12.65,0,0,0-.27-3.27,1,1,0,0,0-1-.83,1.44,1.44,0,0,0-.83.24.74.74,0,0,0-.37.66,2.6,2.6,0,0,0,.15.86h.64a3.58,3.58,0,0,1,.21,1.3,1.71,1.71,0,0,1-.64,1.31,2.44,2.44,0,0,1-1.62.55,1.91,1.91,0,0,1-2.2-2.13c0-2.1,1.78-3.16,5.36-3.16,2,0,3.44.35,4.21,1s1.17,2,1.17,3.81v5.21c0,.89.25,1.33.74,1.33s.93-.88,1-2.64l.38,0a5.26,5.26,0,0,1-.84,3.11,3.12,3.12,0,0,1-2.44.84c-2.05,0-3.23-.63-3.54-1.9a2.74,2.74,0,0,1-1,1.44,3.37,3.37,0,0,1-1.94.46q-3.79,0-3.8-3.1a2.51,2.51,0,0,1,1.45-2.5,11.05,11.05,0,0,1,4.45-.68m-.89,4.87a.53.53,0,0,0,.54.39c.27,0,.51-.22.74-.66a3.78,3.78,0,0,0,.35-1.81v-2.38h-.18c-1.06,0-1.59.78-1.59,2.33v.41a6.51,6.51,0,0,0,.14,1.72"/></svg>