<svg id="Capa_1" data-name="Capa 1" xmlns="http://www.w3.org/2000/svg" xmlns:xlink="http://www.w3.org/1999/xlink" viewBox="0 0 1080 988.21"><defs><style>.cls-1{fill:none;}.cls-2{opacity:0.2;}.cls-3{clip-path:url(#clip-path);}.cls-4{fill:#e85d75;fill-rule:evenodd;}</style><clipPath id="clip-path"><rect class="cls-1" x="236.53" y="58.92" width="613.3" height="901.08"/></clipPath></defs><title>MagranaBG</title><g class="cls-2"><g class="cls-3"><path class="cls-4" d="M433.94,835.75c-14.72-6-28.92-11.71-43-17.6-4-1.67-7.8-3.87-11.7-5.81s-7.67-4.31-11.77-5.71C356.89,803,348,796.69,339,790.45a65.93,65.93,0,0,0-7.72-5c-10.63-5.37-17.85-14.69-26.42-22.46-2.27-2.06-4.42-4.41-7-5.91-12.9-7.38-20.56-19.41-28.42-31.32s-11.71-25.4-17.32-38.2a189.17,189.17,0,0,1-7.95-20.11c-1.9-6.2-2.78-12.72-4-19.13-1.1-6-2-12-3-18a29.46,29.46,0,0,1-.64-5.17c.23-14.24.43-28.48.88-42.71.23-7.21,1-14.4,1.47-21.6.36-5,.89-10,1.09-15,.52-13.34,1-26.69,1.28-40.05.06-3-.78-6-1.13-9a18.27,18.27,0,0,1-.21-4.42q2.37-18.51,4.91-37c1.44-10.38,3-20.73,4.54-31.1a16.49,16.49,0,0,1,.54-3.24c2.38-6.41,2.58-13.18,3.76-19.77,1.22-6.83,5.44-13.2,8.78-19.54a43.14,43.14,0,0,1,6.62-9c9.12-9.89,14.32-22.43,22.48-33,2.95-3.8,5.72-7.75,8.86-11.39,7.55-8.77,14.69-18,23.11-25.85,5.8-5.4,13.23-9.25,20.34-13,12.56-6.66,25.42-12.74,38.15-19.06,3.15-1.56,6.24-3.2,9.46-4.6,14.06-6.11,28-12.42,42.27-18.14,11.4-4.58,16.75-18.56,13.29-29.94-1.45-4.77-1.64-10-3.21-14.67A158.64,158.64,0,0,0,435.74,183a197.2,197.2,0,0,1-11.26-26.49c-1.23-3.81-2.35-7.31-1.51-11.44.65-3.16.07-6.56.22-9.85.36-8.46.89-16.91,1.18-25.38.06-1.65-.14-3.76-1.12-4.91-3.06-3.63-1.94-7.47-.91-11.18.36-1.32,2.28-3.17,3.36-3.08,1.55.13,3.26,1.54,4.39,2.85,2.63,3,4.66,6.63,7.49,9.45,3.38,3.38,7.35,6.18,11.05,9.26s7.33,6.15,11.26,9.45c1.85-12.93,9.37-22.36,19.19-30.38C484.92,86.54,489.37,81,491,73.12c.9-4.23,4-8.07,6.44-11.86a4.49,4.49,0,0,1,3.88-1.61c1,.28,1.8,2.14,2.41,3.43a5.88,5.88,0,0,1,.21,2.6c-.39,8.62,3.42,15.91,6.95,23.41,3.34,7.09,6.12,14.46,8.89,21.8,1.9,5,3.38,10.25,5.3,16.19a63.63,63.63,0,0,0,4.18-5c4.91-7.29,10.12-14.41,17.43-19.4,11.39-7.75,20.4-17.79,29.26-28.12,3.77-4.41,7-8.87,8.51-14.85,1.57-.25,3.24-.63,4.92-.75,4.73-.34,6.57,1.77,4.34,5.69-2,3.51-2,7-1.94,10.68.1,3.29-.15,6.6.07,9.88.3,4.54-1.23,8.49-2.8,12.64A54.89,54.89,0,0,0,585.41,113c-.6,8.24,0,16.56-.22,24.83-.16,6.06-.84,12.1-1.31,18.62a23.12,23.12,0,0,0,12.9-5.17c6.9-5.74,14-11.33,20.25-17.75,7.64-7.85,14.47-16.44,16.31-27.88A47.48,47.48,0,0,1,636,96.2c1.19-3.1,2.87-6,7.44-5.08,1.45,4.62,2.62,9.5.78,14-3.69,9.1-3.77,18.82-5.84,28.19-.94,4.26-1.57,8.62-2.89,12.76-4.3,13.55-8.4,27.2-13.47,40.46-2.94,7.69-7.33,14.89-11.56,22-6.22,10.48-4.15,19.28,6.6,25.07,20.72,11.16,42.78,19,65.19,25.83A152.11,152.11,0,0,1,725,280.76c3.77,2.63,7.79,4.9,11.55,7.53,13.26,9.29,26.72,18.34,38.14,30,4.6,4.7,9.33,9.3,14.3,13.6,6.76,5.85,10.87,13.69,16.23,20.59.53.69.79,1.59,1.36,2.23,11,12.24,17.93,27,25.61,41.24,5.87,10.88,8.37,23.09,9.87,35.33,1.19,9.8,1.68,19.67,2.65,29.5.29,3,.6,6.22,1.79,9a40.77,40.77,0,0,1,3.15,17.33c-.21,13.16,1,26.56-1.1,39.43-2.47,15.23-1.18,30.57-3.57,45.77-1.72,11-1,22.28-1.53,33.43-.16,3.72,0,7.63-1.11,11.09a83.86,83.86,0,0,0-4,22.56c-.26,6.33-1.76,12.75-1.08,18.95,1.4,12.78-3,24.16-6.66,35.86-4.63,14.92-12.2,28.64-17.44,43.25-6.92,19.32-18.92,34.26-35,46.65-7.52,5.78-15.77,10.24-23.51,15.57-10.3,7.1-20.63,14.19-30.51,21.84-12.23,9.46-26.19,15-40.67,19.65-14.26,4.55-29.06,6.28-43.78,8.72-27.14,4.5-54.31,2.63-81.49,2.62a28,28,0,0,0-3.29-.08c-19.65,2.48-39-.24-58.26-3.58-2.78-.48-4.66.2-6,2.65C487,858.11,481.32,863,475.82,868A70.69,70.69,0,0,0,465.67,880c-3.58,5.23-7.61,8.48-14.29,6.29L446,879.47c-7.08,3.6-12,.85-12.24-6.59-.23-7.89.09-15.8.15-23.7,0-4.37,0-8.74,0-13.43m29.53-641.38,1.84-.7a61.05,61.05,0,0,1,3.36,5.28c7.85,15.43,4.5,35.59-8.27,48-7.84,7.61-15.45,15.35-25.89,20-10,4.41-18.89,11.14-28.83,15.63-21.44,9.66-41.59,21.59-61.65,33.7S309.8,346,295.71,364a18.84,18.84,0,0,0-1.46,2.91c-3.41,6.6-6.67,13.28-10.3,19.76-4.4,7.87-8.59,15.77-10.05,24.82s-3,18.08-4.5,27.13c-1.11,6.9-2,13.83-3.24,20.7-1.46,8.18-3.24,16.29-4.69,24.46a73.66,73.66,0,0,0-1.22,11.07c-.18,7.61.12,15.24-.09,22.85-.27,9.85-.83,19.68-1.27,29.52q-.66,15.09-1.32,30.17c-.06,1.32-.11,2.64-.06,4,.53,12.45.48,25,1.77,37.34,2,18.91,8.56,36.91,12,55.59,3.35,18,11.56,34.38,21.82,49.55,3.91,5.79,8,11.73,13.07,16.41,9.13,8.4,19,16,28.76,23.74,5.5,4.35,11.56,8,17.06,12.32,10.74,8.45,23.34,12.8,36.08,16.83,8.14,2.58,16.45,4.66,24.62,7.15,10,3.06,19.64,7.26,29.38,11.1,10.53,4.14,21.81,6.37,32.79,9.33a78.9,78.9,0,0,0,12.16,2.69c14.14,1.46,28.24,2.81,42.57,1.59,15.92-1.35,31.89-2.23,47.62-5,17.68-3.15,35.11-7.42,52.49-12,21.22-5.56,40.94-13.62,57.84-28.15,10.7-9.2,21.17-18.4,28.28-30.77,5-8.71,10.31-17.28,14.69-26.3a221.19,221.19,0,0,0,10.57-26q7-20.85,12.91-42.07c1.8-6.45,2.51-13.22,3.49-19.88,1.12-7.57,1.82-15.2,3-22.76,2.15-13.82,5.26-27.53,6.55-41.42,1.06-11.47,4.77-21.69,10-31.64.81-1.54,2-3.12,2.13-4.74.86-12.17,2.38-24.33,1.57-36.56-.43-6.55-1.49-13.07-1.69-19.62a73.44,73.44,0,0,0-3.93-21.21A211.14,211.14,0,0,0,751,406.56,61.43,61.43,0,0,1,744.82,395c-3.42-8.87-9.51-15.52-16.48-21.59-7.57-6.59-15.91-12.49-22.5-19.94a344.22,344.22,0,0,0-44.4-41.82c-1.71-1.36-3.32-2.87-5.05-4.2-17.33-13.3-35.68-25.35-48.88-43.43-4.89-6.69-8.06-13.45-7.76-21.72a10.13,10.13,0,0,0-2.11-7.32,12.06,12.06,0,0,1-2-12.4c1.8-4.64,3.44-9.56,6.26-13.56,7.75-11,13.48-22.73,15.75-36.34-5.06,2.72-7.93,8.4-13.91,9.76,8.88-11.14,21.16-19.93,23.31-35.24-4.59,6.23-8.91,12.8-13.93,18.77-8,9.46-12.71,13.06-17.93,14.53a65.12,65.12,0,0,1,7.13-8.07,108.31,108.31,0,0,0,24-32.7,22.27,22.27,0,0,0,1.06-3.74c-6.12,4.53-11.1,9.73-16.34,14.66a53.17,53.17,0,0,1-9.28,7.18A64.73,64.73,0,0,1,591,162.58c-11.27,4.08-20.54,10.38-26,21.58-.9,1.86-3.37,3-5.5,4.72-1.75-7.44,1.85-12.36,4.76-17.47,2.48-4.36,5.34-8.53,7.57-13,3.72-7.5,6.32-15.27,5.59-24-.47-5.67,0-11.41-.1-17.12-.1-7.28.08-14.44,3.77-21.08a36.23,36.23,0,0,0,2.69-7.39,11.68,11.68,0,0,0-.68-9.2,70.34,70.34,0,0,0-5.69,11.12,43.55,43.55,0,0,1-15.56,19.16,20.87,20.87,0,0,1-3.72,1.67c4-7,11.49-10.82,14.44-19.77-4.42,3.66-7.7,6.8-11.38,9.35a111.94,111.94,0,0,0-31.61,33.87c-4,6.42-6.75,13.23-6.34,21.08.31,5.92.09,11.86,0,17.79a37.2,37.2,0,0,1-3,14.45c-4.16-.62-4.45-3.42-4.45-6.42,0-8.56.15-17.13,0-25.69-.29-13.61-1.49-27.11-5.88-40.12-1.87-5.53-5.42-9.86-10-13.61a261.45,261.45,0,0,0,4.57,26.58,158.5,158.5,0,0,1,4.3,31.62c.06,2.35.4,5-3.53,5.51-1.27-3-3.07-5.85-3.71-9-2.66-13.06-4.92-26.2-7.41-39.29-1.56-8.17-2.5-16.51-5.74-23.92C477.8,99.57,476.15,109,477,119.42c.22,2.85.6,5.68.81,8.52a31.67,31.67,0,0,1-.43,4.26c-5.19-7.5-3.33-15-4.15-23.2-3,3.55-5.19,5.85-5.22,9.44-.06,8.64.36,17.07,8.35,22.74a1.87,1.87,0,0,1,.46.47c5.67,7.74,12.27,15,14.63,24.64,2.55,10.39,5,20.82,7.3,31.26,1,4.45,1.7,9,2.62,13.88,3.2-2.27,5.58-2.85,8.55-.11,3.29,3,7.39,5.2,11.58,8.05,1.33-2.44,2.62-4.83,4-7.31-6.71-6.87-13.23-12.83-23.07-13.5-.09-1.85-.78-3.74-.13-4.78,1.44-2.27,3.21-4.93,5.5-5.93,2.76-1.2,4.9.75,5.35,4,.07.54.7,1.11,1.21,1.48,4.82,3.53,9.68,7,14.94,10.84,4-8.91,5.83-17.7,4.8-27.32a8.32,8.32,0,0,1-2.65.18,43.65,43.65,0,0,1-4.43-1.85c.72-1.39,1.11-3.18,2.22-4.11,3.86-3.26,8.11-5.85,14.49-4.35-.79-2.53-1-4.75-2.07-6.33-3.06-4.43-2.9-6.06,1.84-8.48a42.12,42.12,0,0,1,5.22-1.9c4.22,4.12,4.47,4.41,4,8.8-.56,5.44-1.47,10.85-2,16.29-.67,6.19-1.15,12.4-1.72,18.77,8.5,1.5,16.15,3.37,23.21-2.35,2.24-1.82,4.72-1.41,7.12.59s2.95,4.36,1.47,6.92a71.76,71.76,0,0,1-4.81,6.63,20.8,20.8,0,0,1,.54,3.61c-.09,5.84-3.32,7.67-8.53,5a8.69,8.69,0,0,0-3.56-1.27c-6.75-.12-13.51-.06-20.27-.06l-3.27,7.82c8.71,0,16.79-.27,24.83.09,5.76.25,6.74,2.94,3,7.54a6.41,6.41,0,0,0-1.68,5.56c.52,3.91-4.25,7.59-7.5,5.49-4.51-2.92-9.34-1.54-13.81-2.89-8.09-2.45-13.61.67-18.71,7-6.6,8.17-11.8,17-12.23,27.43a231.76,231.76,0,0,0,1.3,30.81c.58,6.27,2.47,12.41,3.78,18.62,2.67-11.75-2.52-23.22,0-34.84,2.76,12.61,5.6,25.14,4.43,38.17a61.56,61.56,0,0,0,.06,12.44c1.83,16.13,3.65,32.18-.27,48.31a93.06,93.06,0,0,0-2.75,18.75c-.71,21.69-.94,43.4-1.4,65.1a18.44,18.44,0,0,1-.83,3.33c-2.92-5.14-4.71-12.64-4.9-19.25a485.79,485.79,0,0,1,4.4-83.14,71.6,71.6,0,0,0-.66-21.46c-2.14-12.93-5.91-25.6-7.86-38.55-2.45-16.22-4.07-32.62.18-48.9.44-1.69,1.21-3.58.83-5.14-1.39-5.62,1.1-10.24,3.13-15.06.94-2.22,1.64-4.55,2.38-6.85,1.63-5.13-.89-9-4.28-12.27-3.18-3.06-7-4.2-11.3-1.38v27.94c-4.73-1.29-6.76-4-6.67-8.64.08-4.35-.87-8.73-.73-13.07.73-21.4-4.06-41.72-11.68-61.51a60.25,60.25,0,0,0-2.91-5.79c-4.32-8.27-10.73-14.91-16.85-21.79-5.95-6.7-12-13.23-19.57-18.23-1.76-1.17-3.61-2.21-5.41-3.31,10.05,17.61,15.09,41,9.63,49.72-2-15-1.46-30.08-10.93-42.49a77.07,77.07,0,0,0,2.36,12.86c1.14,4.22,2.54,8.38,3.83,12.57-7.39-5.31-6.52-14-10.12-21-.85,3.14-1.84,6.33-1.51,9.38a79.44,79.44,0,0,0,3.12,16.07c3.45,10.6,7,21.2,11.45,31.43,6.28,14.58,11.5,29.18,11.32,45.43-.11,10.17-4,18.06-11.2,24.73-1.18,1.09-2.18,2.35-3.27,3.53a30.24,30.24,0,0,0,14.4-12.67c3.38-5.65,5.55-12,8.34-18.28.6,1.12,1.19,2.23,2,3.77,4.33-12.83,1.08-24.41-3-35.93m315.37,226.3c-1.59,5.58.2,9.2,1.58,12.67,8.72,22,11.26,45.06,12.17,68.32.45,11.33-.93,22.76-1.84,34.11-.88,11.15-1.92,22.3-3.44,33.37-1.48,10.86-3.6,21.64-2.87,32.68.82,12.5-2.14,24.37-5.77,36.16-1.55,5-3.58,10.06-4.11,15.23-1.34,13-5.34,25.28-10,37.37C758.81,705.29,753,720,747.33,734.7a4.65,4.65,0,0,0,0,1.54,42.71,42.71,0,0,0,6.94-11.12q7.07-16.3,13.77-32.77c3.89-9.54,7.77-19.05,9.56-29.34,1.58-9,3.88-18,6.17-26.87,2.69-10.42,5.2-20.78,4.87-31.72a160.13,160.13,0,0,1,.92-21.67c1.37-12.85,3.35-25.64,4.82-38.49.72-6.31.86-12.68,1.29-19,.5-7.42,1.63-14.86,1.4-22.27-.28-9.18-1.84-18.32-2.52-27.5a150.64,150.64,0,0,0-12.45-48.84c-.72-1.66-1.73-3.2-3.24-5.95m-326,434c7.81-.08,8.1-7,12.09-11.11l-12.09-2.47Zm94.76-649c7,.74,19.52-.68,23.75-2.86L552,201.25a14.35,14.35,0,0,0-1.95-.15c-2.86.18-2.83,2.11-2.47,4.56m-21.59,24c7.15-8.38,13-21.54,12.3-27.55-2.92,9.35-10.71,16.52-12.3,27.55M440.89,868.78l1.41,0c.79-3.21.79-3.21-1.78-5.94.15,2.37.26,4.15.37,5.92M560.3,229.69c.14-.3.27-.6.4-.9-.56-.44-1.08-1.15-1.69-1.24a8.07,8.07,0,0,0-2.52.42c0,.29,0,.57,0,.86l3.76.86"/><path class="cls-4" d="M394.65,858.42c-14.43-1.54-18.3-9.86-18.52-21.69-.06-3.24,1.69-5.3,4.63-6.46a18.18,18.18,0,0,1,21.87,7.31c3.09,5,1.68,10.12.46,15.22a19.83,19.83,0,0,1-1.1,2.76c4.26,1,8.35,1.7,12.27,2.94,2.72.86,5.18,2.4,5.23,6s-2.11,5.11-4.79,6.36a28.72,28.72,0,0,1-15.37,2.41c-6.88-.72-9.16-4.46-6.79-11a31.54,31.54,0,0,1,2.11-3.83"/><path class="cls-4" d="M557.71,888c-4.33-6-3-11.79-1-17.23,2.24-6,11.62-7.61,16.91-3a34,34,0,0,1,7.36,9.12c3,5.56-2.88,14.81-9.31,15.06a49.8,49.8,0,0,1-6.27-.54,20.27,20.27,0,0,1,1.48,3.46c1.14,5.35-.4,9.47-4.14,11.45-4.19,2.22-12.45.66-15.88-3-2.77-2.95-3.38-8.51-1.29-12.28,1.38-2.5,3.43-3.93,6.42-3.64l5.69.6"/><path class="cls-4" d="M536.1,918.49a75,75,0,0,1,8.35,1.57c4.48,1.34,5.88,3.78,5.16,8.46-.67,4.35-2.68,7.84-6.81,9.83-7.33,3.53-14.63,4.43-21.78-.37-3.72-2.5-4.39-5-2.38-8.93,3.6-7.07,9.09-11.11,17.46-10.56"/><path class="cls-4" d="M323.23,829.88c0-8.61,2.64-11.33,10.34-10.36A28.25,28.25,0,0,1,344,822.9c6.54,3.82,8.16,12.43,4.31,19-1.81,3.07-4.4,4.56-7.65,3.46a70.84,70.84,0,0,1-11.89-5.26c-4.16-2.31-6.1-6.13-5.54-10.21"/><path class="cls-4" d="M481.22,919.3c-.75-5.58,2.09-9.78,6.32-13.27s8.93-2.66,12.48,1.39c4.46,5.08,7,10.31,4,17.11a12.71,12.71,0,0,1-19.67,5.16c-3.56-2.69-3.06-6.45-3.12-10.39"/><path class="cls-4" d="M370.67,852.7c4.3,1.38,8.88,2.23,12.83,4.28,5.95,3.1,6.07,9.23.77,13.26-5.79,4.41-12.14,5.7-19.14,3.42-5.34-1.74-7.92-4.92-7.47-9.29.65-6.31,4.45-10.33,10.12-10.72.87-.06,1.75-.09,2.62-.14l.27-.81"/><path class="cls-4" d="M689.78,881.6c.23-9.59,10.41-16.75,19.79-13.85a24.9,24.9,0,0,1,4.77,2.15c2.71,1.51,5.48,3.12,5.21,6.85-.29,3.92-1.76,7.19-5.5,9.07-6.37,3.19-13.15,3-19.9,2.11-3.33-.46-4.54-3.09-4.37-6.33"/><path class="cls-4" d="M658.64,880.68a21.67,21.67,0,0,1,13,4.94c2.2,1.79,2.69,3.86,1.49,6.39-3.1,6.55-9.08,8.88-15.52,9.14-3.92.16-8-1.59-11.85-3-2.36-.89-4.78-2.48-4.32-5.83s1.11-6.66,4.8-7.9c4.09-1.39,8.29-2.48,12.44-3.7"/><path class="cls-4" d="M731.51,941.44c0,5.18-.71,10.08-5.52,13.23-3.57,2.33-7.33,4.18-11.61,2s-5.91-6.48-5.92-10.93c0-6.09,3.35-10.79,8.14-14.21,3.43-2.44,7.18-1.07,10.56.62,3.71,1.84,4.43,3.63,4.35,9.29"/><path class="cls-4" d="M533.83,894.13c-6.58.12-10.55-3.79-13.44-9-1.9-3.42-1-6.71,2.16-9.36a17.7,17.7,0,0,1,13.36-4.3c6.37.57,10.66,4.49,11,10.12.37,5.8-4.37,11.36-10.5,12.28-.86.13-1.74.17-2.61.25"/><path class="cls-4" d="M610.53,881.7c-.46,4.33-4.11,7.87-7.87,10.6a30.16,30.16,0,0,1-11.94,4.78c-5.31,1-8.11-2.47-7.4-7.9.47-3.6,2.27-6.45,4.64-9.18,3.68-4.24,8.58-6.11,13.67-7.3,4.84-1.14,9,3,8.9,9"/><path class="cls-4" d="M300.51,918c-10.9-.48-17.08-6.83-17-17.47,0-4.7,1.68-6.34,6.32-6.25,6.94.13,12.58,3.57,17.73,7.63,3.92,3.1,2.53,7.66,1.47,11.61-.88,3.32-4.05,4.68-8.54,4.48"/><path class="cls-4" d="M744.84,940c-.12-5.81,1-7.57,5.56-9.34,4.94-1.94,11-1.37,13.38,2,2.87,4.05,5.44,8.32,3.57,13.89C765.62,951.67,762,955,757.1,955a11.77,11.77,0,0,1-11.58-8.84,47.52,47.52,0,0,1-.68-6.17"/><path class="cls-4" d="M312.58,933.89c-.06-7.59,4.16-11.95,11.61-12s13.12,4.7,13.21,10.79c.09,6.89-4.4,11.34-11.54,11.42-8.31.1-13.24-3.69-13.28-10.22"/><path class="cls-4" d="M780.16,939.87c-.77-5.47,1.76-10.22,5.92-14.16,5.19-4.9,14.68-2.34,16.59,4.35a8.68,8.68,0,0,1,.48,1.9c.37,8.53-10.93,17.94-19.41,16.27-2.26-.44-3.57-1.5-3.58-3.89v-4.47"/><path class="cls-4" d="M592.66,945.15a34.62,34.62,0,0,1-6.17-1.11c-2.85-.92-6-2-6.13-5.86-.17-3.71.95-6.89,4-9.18,4.21-3.18,13.56-3.6,18.12-.87.37.22.66.58,1,.81,3.53,2.28,7.26,4.48,5.66,9.7-1.46,4.77-5.71,5.58-9.74,6.45-1.67.35-3.47.06-6.74.06"/><path class="cls-4" d="M706.25,859.18c-6.12-.1-10.42-3.68-10.3-8.56.25-9.07,4.43-13.76,12.13-13.61,5.94.12,12,5.08,12,9.75-.08,7.71-5.46,12.54-13.83,12.42"/><path class="cls-4" d="M392.8,902.81A21,21,0,0,1,378.12,895a10.56,10.56,0,0,1-2.26-8.62c.52-3.72,2.3-5.41,6-5.77,7-.68,15.49,4,18.52,10.31s-.57,12.23-7.58,11.9"/><path class="cls-4" d="M626.45,895.62c-3.07-1-6.38-1.47-9.17-3-5.68-3-6.11-10.07-1.08-14,5.27-4.16,11.12-4.69,17.21-2.08,3.82,1.63,5.61,5.33,5,9.62a10.78,10.78,0,0,1-8.49,8.82,22,22,0,0,1-3.25,0l-.18.6"/><path class="cls-4" d="M659.42,934.59c0,5.5-2.32,9.44-6.19,10.47-4.61,1.21-12.67-1.16-14.51-4.26s-.54-11.07,2.43-14.27,6.52-4.41,10.73-3.12c4.51,1.39,7.54,6,7.54,11.18"/><path class="cls-4" d="M290.65,952.74c-.34,1.15-.57,3.41-1.64,5.16-1.41,2.32-3.79,2.47-6.39,1.63a24.69,24.69,0,0,1-12.79-9.73c-2.38-3.41-1.89-7.14-.64-10.69.91-2.58,3.44-3.26,6-3.12,4.84.28,13.87,7.8,15.06,12.48a35.56,35.56,0,0,1,.43,4.27"/><path class="cls-4" d="M369.1,951c-2.76-.3-4.29-.39-5.79-.63-5.91-1-8.46-3.57-8.12-8.23.33-4.5,4.47-9,9.14-8.45a41.77,41.77,0,0,1,13.59,4c4.49,2.22,4,9-.59,11-2.91,1.31-6.22,1.73-8.23,2.26"/><path class="cls-4" d="M674.28,874.92c-3.29,0-7,.3-8.8-3-2.06-3.71-.06-7.19,2.14-10.28a14.92,14.92,0,0,1,17-5,5.17,5.17,0,0,1,2.67,3.2c1.91,8.27-3.14,14.67-11.7,15.1-.43,0-.87,0-1.31,0"/><path class="cls-4" d="M742.58,924.05c-2.82-.3-4.37-.33-5.86-.66-4.49-1-5.92-2.92-6.12-8s1.11-7.3,5.5-8.39,8.53-1.75,12.83.51c2.74,1.45,4.93,3,4.87,6.31s-.74,6.76-4.29,8.23a50.58,50.58,0,0,1-6.93,2"/><path class="cls-4" d="M644.75,859.5c5.88,1.11,10.41,3.26,13.54,7.45,2.28,3,2,6.67.22,9.93-1.47,2.71-4.46,3.39-8.78,2a27.18,27.18,0,0,1-7.12-3.19c-5.33-3.6-6-9.35-1.72-14.09,1.05-1.16,2.88-1.61,3.86-2.13"/><path class="cls-4" d="M778.84,420.67c1.51,2.75,2.52,4.28,3.24,5.95a150.64,150.64,0,0,1,12.45,48.84c.68,9.19,2.24,18.32,2.52,27.5.23,7.4-.9,14.85-1.4,22.27-.43,6.35-.57,12.72-1.29,19-1.47,12.85-3.45,25.64-4.82,38.49a160.13,160.13,0,0,0-.92,21.67c.33,10.94-2.18,21.3-4.87,31.72-2.29,8.9-4.59,17.83-6.17,26.87-1.79,10.29-5.67,19.8-9.56,29.34q-6.72,16.46-13.77,32.77a42.71,42.71,0,0,1-6.94,11.12,4.65,4.65,0,0,1,0-1.54c5.71-14.71,11.48-29.41,17.19-44.12,4.7-12.09,8.7-24.32,10-37.37.53-5.17,2.56-10.2,4.11-15.23,3.63-11.79,6.59-23.66,5.77-36.16-.73-11,1.39-21.82,2.87-32.68,1.52-11.07,2.56-22.22,3.44-33.37.91-11.35,2.29-22.78,1.84-34.11-.91-23.26-3.45-46.37-12.17-68.32-1.38-3.47-3.17-7.09-1.58-12.67"/><path class="cls-4" d="M452.84,854.66V841.08l12.09,2.47c-4,4.13-4.28,11-12.09,11.11"/><path class="cls-4" d="M547.6,205.66c-.36-2.45-.39-4.38,2.47-4.56a14.35,14.35,0,0,1,1.95.15l19.33,1.55c-4.23,2.18-16.71,3.6-23.75,2.86"/><path class="cls-4" d="M526,229.67c1.59-11,9.38-18.2,12.3-27.55.75,6-5.15,19.17-12.3,27.55"/><path class="cls-4" d="M440.89,868.78c-.11-1.77-.22-3.55-.37-5.92,2.57,2.73,2.57,2.73,1.78,5.94l-1.41,0"/><path class="cls-4" d="M560.3,229.69l-3.76-.86c0-.29,0-.57,0-.86a8.07,8.07,0,0,1,2.52-.42c.61.09,1.13.8,1.69,1.24-.13.3-.26.6-.4.9"/><path class="cls-4" d="M687,578.67c12.26,7.69,13.25,7.89,23.23,4.6,1.59,4.5,2.91,8.82,1,13.7a18.38,18.38,0,0,0-.59,12.85c1.16,3.45-.54,5.62-3.57,6.58a15.18,15.18,0,0,1-6.39.55c-8.69-1.16-13.79-7.1-17.57-14.26-1.4-2.63-1.73-5.73.94-8.45s3.24-6.08,3-9.72c-.11-1.88,0-3.77,0-5.85"/><path class="cls-4" d="M717.8,567.74l4.29-1.51c5.86,7.94,13.87,11,23.22,9.3,6.25,10.55.21,21.94-11.32,22.65a18.82,18.82,0,0,1-15.36-5.87c-4.24-4.34-5.37-9.16-3-14.95,1.11-2.72,1.34-5.81,2.17-9.62"/><path class="cls-4" d="M692.19,668.61h13.39c4.07,2.08,7.36,3.72,10.62,5.43,1.11.59,2.53,1.08,3.14,2,3.43,5.36-1.73,16.31-8.05,16.91a40,40,0,0,1-9.83-.37c-8.18-1.29-12.09-6.61-11.09-14.87.37-3,1.18-6,1.82-9.14"/><path class="cls-4" d="M747.76,485.89c-7.23-.46-12.14-3.4-15.66-8.54-2-2.87-2.63-6.35-.53-9.23,2.72-3.73,6.42-7.49,11.3-6.64,6,1,12.23,2,16.8,7.35,5.55,6.53,2,13.13-3.88,15.16a70.43,70.43,0,0,1-8,1.9"/><path class="cls-4" d="M639,515.77c6.61,1.09,10,5.65,12.42,11.35a9.18,9.18,0,0,1-1.64,10.33c-6.5,7.46-13.51,8.94-22.12,4.38a7,7,0,0,1-4.07-6.84c0-2.76-.28-5.53-.44-8.37,9.6-3,9.7-3.07,15.85-10.85"/><path class="cls-4" d="M608,550.66c.31-2.33.55-4,.78-5.8l11.82-4.06c4.26,4.87,9.52,8.23,16.66,8.5,3.84.15,7.91,5.91,7.91,10,0,5-2.64,8-7.94,8.65a47.35,47.35,0,0,1-8.5-.07,4.33,4.33,0,0,1-4.25-3.37c-2.45-7.84-8.13-12.13-16.48-13.83"/><path class="cls-4" d="M321,393.45c-5.74,8.79.18,13.93,5.53,19.21-6.52,8-10.07,9-18.91,4.94a34.88,34.88,0,0,1-8.81-5.49c-3.71-3.38-3.79-7.3-.49-11.06,5.83-6.64,13-10,22.68-7.6"/><path class="cls-4" d="M752.54,549.59c6.41,9.26,3.54,17.65-6.85,21.07-8,2.62-13.73,1.3-18.23-4.19a10.44,10.44,0,0,1-.57-11.65,10.32,10.32,0,0,1,11.19-4.25c4.81,1.43,5.64,1.38,14.46-1"/><path class="cls-4" d="M485.86,661.91c1.35-3.38,3.49-8.7,5.76-14.36a89.7,89.7,0,0,1,9.52-2.89c4.09-.82,7,1.63,9.53,4.52,2.15,2.45,3.47,5.22,1.68,8.36-4.21,7.4-9.39,13.74-16.86,15.05l-9.63-10.68"/><path class="cls-4" d="M715.64,399.85c11.06.6,13,8.51,14.19,16.12.74,4.73-3,7-6.28,9.13-3.58,2.28-7.4,2.72-11-.26-5.29-4.41-8.68-9.76-8.31-16.83l11.37-8.16"/><path class="cls-4" d="M392.8,376h12.54a41.72,41.72,0,0,1,4,17.55c0,3.27-1.55,5.32-4.1,7a14.46,14.46,0,0,1-15-.23c-4.28-3-5.45-10-2.61-14.71,1.77-2.95,3.28-6,5.17-9.57"/><path class="cls-4" d="M730.67,540.73c4.06-4.85,4.85-10.4,2.35-16.59l4.63-2.64c4.73,1.76,8.86,3.9,13.24,4.76,4,.78,5.72,3,6.53,6.34.93,3.8.39,7.43-2.74,10.23-7.24,6.48-17.19,5.7-24-2.1"/><path class="cls-4" d="M455,702.37c-8.59,0-13.47-3.56-15.55-12a5.65,5.65,0,0,1,2-4.85,57.19,57.19,0,0,1,10.59-5.05c3-1.1,6-1,8.56,1.46a15.52,15.52,0,0,0,2,1.68c5.8,4.21,6.76,6.39,5.12,11.65-1.31,4.19-5.13,6.74-10.76,7.14-.65,0-1.31,0-2,0"/><path class="cls-4" d="M373.46,505.08c8.74-1.26,8.74-1.26,14.28-5.49.9,1.22,2.41,2.35,2.58,3.66,1,7.49.87,7.5,4.21,11.75-1,3.47-1.87,7.06-3.06,10.54-1.46,4.29-3,5.08-7.38,4.21-10.63-2.15-15.71-13.93-10.63-24.67"/><path class="cls-4" d="M395.24,725.32c.18,10.71-3.89,14.36-13,13.29a43.38,43.38,0,0,1-6.46-1c-6.12-1.67-8.67-7.64-5.82-13.31,4-8,16.79-10.27,23-3.84,1.51,1.57,2,4.12,2.31,4.83"/><path class="cls-4" d="M430.17,297c-1.44,4.92-2.67,9.26-4,13.57a7.3,7.3,0,0,1-7.45,5.32,31.14,31.14,0,0,1-11.41-2.26c-5.37-2.33-6.61-9.08-3.17-14a14,14,0,0,1,10.54-5.93c5.2-.56,9.92.46,15.48,3.31"/><path class="cls-4" d="M615,621.92c-2.07-5.13-3.59-8.9-5.18-12.87,2.81-.87,6.35-1.3,9.1-3s4.85-4.74,7.92-7.89c1.36.4,3.61,1,5.84,1.73,5.52,1.75,7.33,4.29,7.21,10.07-.09,4.43-3,8.75-7.38,9.63-5.91,1.17-12,1.62-17.51,2.32"/><path class="cls-4" d="M713.77,475l11.25-.74c1.63,3.23,3.69,6.56,5.05,10.16,3,7.93-1.86,14.69-10.34,14.73-5.1,0-9.29-2.44-13-5.56-2.68-2.26-2.49-4.75,0-7.27,4.94-5.07,4.94-5.07,7.08-11.32"/><path class="cls-4" d="M360.5,321c1.7,3.67,2.94,7.17,4.85,10.26s4.43,5.64,6.9,8.7c-1.47,4.05-5,5.67-9.6,5.3-6.36-.5-12.64-1.35-17.3-6.5-3.53-3.92-3.39-5.78-.25-10.19,3.65-5.12,8.75-6.85,15.4-7.57"/><path class="cls-4" d="M693.82,696.18c4.41.41,7.87.69,11.31,1.05,4.9.52,7.83,3.08,8,7.9.14,4.5.73,10-4.15,12.26s-10.15,1.42-14.72-2.08c-2-1.58-4.4-2.75-7-4.32-2.38-6.85,5.23-9.56,6.53-14.81"/><path class="cls-4" d="M649.51,449.46c5.87-2.65,10.33-4.76,14.88-6.68a10.62,10.62,0,0,1,4.26-.72c3.46.1,6.92.43,11.18.72-1.31,5.37-2.54,11-4.07,16.48-.65,2.31-2.59,3.18-5.09,3.35a23.64,23.64,0,0,1-17.62-5.86c-2-1.75-2.57-5.17-3.54-7.29"/><path class="cls-4" d="M474.47,810.49c-6.67.17-12.86-4.15-10.56-12.72.84-3.16.85-6.29,3.77-8.71s5.71-2.94,9.1-1.7c3.91,1.43,7.14,4,8.55,7.75,3.27,8.74.83,15.09-10.86,15.38"/><path class="cls-4" d="M670.66,510.13c2.07-3.51,4.06-6.89,5.94-10.06,4.92.23,9.87.46,14.81.72a4.69,4.69,0,0,1,1.88.34c2.66,1.33,5.7,8.68,5.14,12.26-.67,4.3-2.86,6.19-8,7-2.58.42-5.14.94-7.3,1.35l-12.42-11.64"/><path class="cls-4" d="M585.61,447.11c-.73-8.28-5-13.47-11.27-17.46,1.94-3.11,3.84-6.19,5.92-9.53,5.73-.87,11,.79,15.64,4.46,4.86,3.82,6.05,7.7,3.43,13.26-2.54,5.4-6.67,9-13.72,9.27"/><path class="cls-4" d="M585.14,606.29c2.81-10.43-3-16.79-10.08-22.73,1.86-2.6,3.91-2.84,6.73-1.85a41.32,41.32,0,0,0,8.92,1.83A13.17,13.17,0,0,1,601,603c-2.54,4.81-5.21,6-10.63,4.63-1.64-.4-3.28-.83-5.26-1.33"/><path class="cls-4" d="M461,734.94l-11.87-9.72c.15-1.43.9-3.69.48-5.72-1.14-5.57,2.87-7.56,6.48-9.25,3.78-1.76,7.83-2.16,11.46,1.39,5.74,5.61,6.18,12,.49,17.72a66.75,66.75,0,0,1-7,5.58"/><path class="cls-4" d="M679.07,671.57c1.52-1.14,2.77-2,3.94-3,1-.79,1.84-1.68,3.91-3.61.11,4.23.63,7.19.16,10-1,5.7-1.65,11,1.68,16.45,2.35,3.85-.42,9.82-4.82,10.41a27.82,27.82,0,0,1-12.16-1.1c-5.33-1.78-5.44-6.31-3.72-11,13.32-5.73,14.44-7.51,11-18.16"/><path class="cls-4" d="M552.3,656.43l13.2-3.92a54.9,54.9,0,0,1,6.89,4.44,11.14,11.14,0,0,1,3.62,5.14c1,4-3.47,11-8,13.37-3.38,1.79-9.78.7-12.79-2.53a8.63,8.63,0,0,1-1.85-4.55c-.26-1.92.26-3.93.11-5.87a52.48,52.48,0,0,0-1.18-6.08"/><path class="cls-4" d="M709.2,541.44c5.93,3.56,11.72,4.65,18.15,1.24,1.23,1.44,2.42,2.85,3.94,4.62-5.85,2.82-9.74,6.53-10.24,13-.23,3-2.93,4.11-5.38,3.47-3.73-1-7.69-2.13-10.77-4.32-5.39-3.84-5-10.78.3-14.88l4-3.13"/><path class="cls-4" d="M674.16,631.28c13.32-1.53,14.63-2.5,17.24-13l7.88,2.85c.41,1.58.71,3.07,1.16,4.5,3,9.74-1.86,17.05-12.06,17.62a19.84,19.84,0,0,1-7.11-.84c-7.1-2.33-8.83-3.62-7.11-11.17"/><path class="cls-4" d="M716.7,617.79c5.61-.34,10-.69,14.49-.86,4.25-.17,6.71,2.82,8.86,5.77,3.56,4.84,2.93,7.42-2,10.71-7.25,4.79-17.68,2.52-22.42-4.83-2.77-4.3-.85-7.88,1.12-10.79"/><path class="cls-4" d="M407.79,748.33c0,8.65-4.33,13-11.19,13.11-6.65.14-12.46-4.92-12.54-10.77a6.83,6.83,0,0,1,3.49-6.55c3-1.8,5.65-4.17,8.78-5.57,1.66-.75,5-.76,5.83.28,2.61,3.33,4.39,7.3,5.63,9.5"/><path class="cls-4" d="M406.79,763.61c5.9-6.26,6.39-7.26,7.84-16,2.9.27,5.85.53,8.8.82,4.11.39,8.13,5.56,7.58,9.69-.79,5.92-9.5,13.9-15.32,14-6.46.14-7.83-1.13-8.9-8.56"/><path class="cls-4" d="M460.86,478.16a5,5,0,0,1-1-.67c-7.42-6.47-5.9-14.92,3.32-18.23,3.66-1.31,7.36-2.54,11.11-3.56,4.29-1.18,6.49-.08,9.54,4.31-7.16,8-7.16,8-8.91,14.27l-14.1,3.88"/><path class="cls-4" d="M730.87,500.48l7.27,5.29c-.38,1.32-.87,2.7-1.17,4.12-.93,4.29-1.47,9.26-6.69,10.21-6.13,1.11-12.28.38-17.35-3.9a5.29,5.29,0,0,1-1.53-6.55c1.42-3.2,2.92-6.31,7.14-6.83,3.83-.47,7.6-1.42,12.33-2.34"/><path class="cls-4" d="M668.64,754.51l-8.29-11a23.48,23.48,0,0,1,15.33-8.82c.42-.06.84-.24,1.27-.28,5.07-.55,9.74,1.62,11.06,5.13,1.44,3.87-1,9.73-5.25,12.33-4.66,2.86-9.63,3.9-14.12,2.67"/><path class="cls-4" d="M688.84,419.1c2.13-1.3,4-2.32,5.8-3.58,1.53-1.09,2.88-2.45,4.24-3.62,2.75,6.08,5.45,11.74,7.88,17.5,1.87,4.44.55,8.08-3.41,10.54-4.67,2.9-11.54,2.31-16.75-1.73,2.61-6,4.68-12.42,2.24-19.11"/><path class="cls-4" d="M656.57,533c.94-8.49-4.09-14.07-9.9-20.44,2.26.21,3.37.26,4.47.44,3.43.55,7,1.94,10.28,1.57,6.47-.7,10.33,2.94,13.71,7.22,3.57,4.52-1.41,13.69-7.55,14.46-3.27.41-6.13-.39-11-3.25"/><path class="cls-4" d="M610.9,579c9-2.58,9-2.58,13.58-8.16a17.13,17.13,0,0,1,13.11,6c5.2,5.83,4.62,12.42-1.75,16.8-4.46,3.07-8.65,2-11-3.05-2.77-5.87-7.75-9.14-13.93-11.58"/><path class="cls-4" d="M573.14,563.85l10-7.66c2.83,1,6.43,1.88,9.67,3.49,5.35,2.67,8,9.87,5.7,14.45-2.6,5.24-9.58,7.54-15.27,4.73-1.34-.66-3.06-2.43-3-3.65.1-5.26-2.55-8.61-7.08-11.36"/><path class="cls-4" d="M504.92,640.16c0-10.95,0-10.95-10.18-20.31,6.18-7.12,10.83-8.63,16.73-5.92,6.32,2.9,8,10.4,6.92,16.9-1,6-5.55,9.06-13.47,9.33"/><path class="cls-4" d="M613.23,710.09l-6.58-6.28c1.39-3.35,3.68-6.58,3.86-9.92s-1.84-6.55-3-10.07c2.81-.41,5.8-1,8.82-1.25,4.37-.44,7.9,1.25,9.74,5.21s2.81,8.65-.44,12.43a46,46,0,0,1-12.43,9.88"/><path class="cls-4" d="M676.88,538.78c2.22-8.35,8.41-10.63,15.45-11.53,5.67-.71,11.76,3.29,13.18,8.75a5.31,5.31,0,0,1-1,4.13c-7.17,8.38-20.57,7.68-27.61-1.35"/><path class="cls-4" d="M456.08,455.42c-7.09,6.09-5.49,13.15-3.37,21-1.42.43-3.15,1.58-4.42,1.21a58.41,58.41,0,0,1-11.46-4.53c-1.45-.79-2.58-3.12-2.86-4.91a18.41,18.41,0,0,1,3-13.12c2-3.13,7.33-4.31,11.22-2.87,2.45.91,4.84,2,7.86,3.19"/><path class="cls-4" d="M635,368.05c7.52.1,12.21,5.07,16,10.64,3.07,4.52-.83,11.28-6.3,11.6A21.52,21.52,0,0,1,629.94,386c-4.49-3.45-4.35-8,0-11.81,1.89-1.66,3.26-3.9,5.06-6.12"/><path class="cls-4" d="M612.76,505.66c-3.11-5.09-6.69-10-13.83-11.1.85-3.15,1.62-6,2.26-8.33,4.68-.44,8.92-.92,13.17-1.2,2.59-.17,5.36-.6,7.78.06,5.63,1.55,7.33,9.06,3.08,13.28-3.38,3.36-7.1,6.39-12.46,7.29"/><path class="cls-4" d="M651.89,509c3.78-12,3.78-12,.23-19.94l9.85-3.86c2,1,4.47,2.37,7,3.61,3.78,1.86,4.9,3.8,4.36,7.73-1.53,11-10.89,16.46-21.42,12.46"/><path class="cls-4" d="M474.52,605.44l5.27,12.09c2.42,5.55,1.94,7.46-2.78,11.1-4.37,3.37-8.49,3.53-12.5.31-2.18-1.76-4.19-3.73-6.77-6.05,5.72-4.23,7.63-10.24,7.48-17.45Z"/><path class="cls-4" d="M602.26,462.9c5.55-1,10.67-1.19,15.4,2,5.52,3.74,6.12,8.77,1.06,12.94a29.18,29.18,0,0,1-8.49,4.83c-4.6,1.67-11-1.44-12.48-6-.54-1.63,0-3.84.66-5.59,1-2.66,2.39-5.15,3.85-8.2"/><path class="cls-4" d="M454.08,497.48c3.8,2.45,7,4.68,10.35,6.63,3.11,1.8,5,4.75,4.76,7.87a9.29,9.29,0,0,1-6.38,8.42,12.9,12.9,0,0,1-13.43-2.89c-3.57-3.25-4.07-7.4-2.54-12,1.36-4.15,2.7-8,7.24-8"/><path class="cls-4" d="M438.78,386.07c6.23,1.66,12,1.5,17.39-2.32.66,3,1.2,5.56,1.48,6.85-2.36,4.74-4.69,8.43-6,12.44-1.1,3.28-3.13,4.15-5.91,3.81-5.23-.65-9.44-3.39-12.84-7.33-2.08-2.4-1.52-4.94.28-7.2,1.63-2,3.49-3.9,5.63-6.25"/><path class="cls-4" d="M465.3,579.82c7-.32,11,3.8,15.36,7.4,2.2,1.83,2.35,4,1.19,6.44-3.42,7.25-14.68,9.77-20.82,4.62a9.86,9.86,0,0,1-.92-13.5c1.59-1.77,3.45-3.31,5.19-5"/><path class="cls-4" d="M606.27,436c-1.51-4.93-2.81-9.19-4.24-13.88a56.44,56.44,0,0,0,4.58-5c3.19-4.31,5.65-5.67,9.59-4.35,4.21,1.41,7.18,4.08,7.77,8.83a12.53,12.53,0,0,1-10.78,14.09c-2.36.33-4.78.25-6.92.34"/><path class="cls-4" d="M652.87,627.53l-7.9-9.25c-.26.29-.52.58-.79.86.15-3,.53-6,.4-9s.19-5.87,3.29-7.15c3.46-1.43,7.34-2.73,10.44.39a34.48,34.48,0,0,1,6,8.42c1.67,3.28.65,6.39-2.32,8.71l-9.09,7.06"/><path class="cls-4" d="M436.6,380.87a51.73,51.73,0,0,0,1.07-6.91,35.77,35.77,0,0,0-.9-5.89c6.08-1.19,11.31-3.57,13.26-10.23l7.34,2.93c3.24,6.48,3.42,12.08-2.2,17.34s-11.45,5.54-18.57,2.76"/><path class="cls-4" d="M683.8,443.47l15.83,2.89c1.47,2.61,3,5.24,4.44,7.88,2.06,3.66,1.47,6-2.21,8.15a14.58,14.58,0,0,1-11.34,1.91c-7.7-2-10.48-6.42-8.68-14.12.54-2.32,1.33-4.59,2-6.71"/><path class="cls-4" d="M530.06,526.06c-8.59,0-13.66-5.22-13.48-12.13.12-4.5,5.8-8.55,11.09-7.53a35.34,35.34,0,0,1,8.68,2.85c3,1.48,5.25,4,5.43,7.66.15,3.33-2.16,5.25-4.72,6.53a52.08,52.08,0,0,1-7,2.62"/><path class="cls-4" d="M456.38,665.6c-.41,5.9-4.42,8.49-7.95,11.29-4.87,3.86-10.42,5.51-16.65,4.17-4.18-.91-5.11-2.64-3.55-6.53,4-10,12.41-13.95,22.67-10.58,1.8.58,3.62,1.09,5.48,1.65"/><path class="cls-4" d="M629.94,347.43c-.55-5.15-.85-9.7-1.58-14.18-.83-5.15,2.49-9.65,8.14-10.51,6.37-1,9.19,1,10,7.06,1.57,11.92-5.66,19.42-16.55,17.63"/><path class="cls-4" d="M561.64,559.33a15.64,15.64,0,0,1,.7-3.26,17,17,0,0,0-.06-14.62c-1.53-3.3-.6-5.33,1.91-7.22,3,.71,6.07,1.21,8.95,2.16a10.11,10.11,0,0,1,4.24,2.77c6,6.78,4.83,13.86-3,18.6a14.87,14.87,0,0,1-12.79,1.57"/><path class="cls-4" d="M466.87,415.2l11.4-4.88,3.92,5c-2.37,5.73-4.74,11.49-7.3,17.67-2.2.8-5.45,1.77-8.52,3.12-3.46,1.53-6.91,1.45-8.35-.8-1.74-2.72-.15-4.75,1.4-7.07,2.63-3.94,4.75-8.22,7.45-13"/><path class="cls-4" d="M511.9,683.56,498.6,676c2.94-2.16,7-4.58,10.37-7.79s5.73-7.11,8.5-10.65c6.35,1.84,9.24,5.77,8,11.46-1.74,8-6.51,13.19-13.57,14.59"/><path class="cls-4" d="M671.84,642.56l7.86,4.4c-1.55,5.12-3.94,10.41.61,15.08-3.39,4.54-6.53,5.54-12,4.16-7.68-1.94-11.2-6.92-10.83-15,5.15-1.66,10.92-2.77,14.34-8.63"/><path class="cls-4" d="M627.45,435.76c.81-6.09,1.55-11.62,2.38-17.85,2.31,0,5.48-.88,7.69.2a36.48,36.48,0,0,1,10.4,7.67c2.78,3,1.85,7-1.21,10-5.27,5.19-13.9,4.89-19.26,0"/><path class="cls-4" d="M664,362.12c2.38-6.4,7.12-8.79,11.74-9.83,3.68-.84,7.94.82,11.93,1.5.47.07.89.92,1.17,1.48,1.76,3.49.2,10.46-2.93,13.29-3.88,3.52-9.09,4.15-13.14,1.17-3.11-2.28-5.85-5.05-8.77-7.61"/><path class="cls-4" d="M450.89,647.52c-2.73-.68-5-.9-6.88-1.79-4.37-2-5-4-3.48-8.77.47-1.45.8-2.94,1.2-4.42,1.1-4.08,4.82-7,8.7-5.74a31,31,0,0,1,10.67,5.88c3.9,3.43,3,9-1.51,11.59-2.76,1.57-6,2.28-8.7,3.25"/><path class="cls-4" d="M324.35,422.09c5.32,7.53,12.1,9.77,20.44,9.42.21,2.18.4,4.21.55,5.86l-15.44,4a13.39,13.39,0,0,1-14.84-5.55,5.93,5.93,0,0,1,.95-7.71c2.42-2.11,5.19-3.79,8.34-6"/><path class="cls-4" d="M567.51,455.9l-6.39-11.61,4.67-11.39c8.43-1.26,16.32,5.59,15.46,14-.9,8.8-5.84,11.79-13.74,9"/><path class="cls-4" d="M526,658.41c-2.36-4.28-4.46-7.29-5.73-10.62-1.46-3.82,1.53-9,5.88-11.26,6.65-3.46,16.61.94,18.62,8.23,1.08,3.91-.18,6-4.26,5.87-5.74-.22-10.25,1.62-14.51,7.78"/><path class="cls-4" d="M434.24,343.88c2.48.41,5.26.27,7.38,1.37,4.07,2.11,5.29,6.29,4.08,11.31-.94,3.91-4.08,6.49-8.46,6.95-.43,0-.87,0-1.3,0-10.41.25-15-7.18-10.3-16.56,1-1.93,2.26-3.11,4.61-2.77,1.28.19,2.6.17,3.9.24l.09-.58"/><path class="cls-4" d="M397.87,306.42c.58,7.25,6,10.39,11.82,13-1.77,6.92-7.55,10.87-14,9.82-5.81-.95-10.68-6.64-10.14-11.84.72-6.89,5-10.81,12.33-11"/><path class="cls-4" d="M385.74,329.2c-1.43,3.16-2.11,6.68-6.52,6.4s-8.22-1.06-10-5.88c-1.13-3.06-2.76-5.94-4.17-8.9-1.86-3.9-1.34-5.83,2.24-8.33,3-2.1,8.76-2.36,11.75-.17a5,5,0,0,1,2,3.63c-.47,5.15,1.5,9.36,4.67,13.25"/><path class="cls-4" d="M487.68,486.88c-3.34,3.7-6.72,7.1-9.67,10.83-4,5-13,1.87-15.52-1.91a3.43,3.43,0,0,1-.8-1.74,16.93,16.93,0,0,1,7.21-13.37c3.16-2.33,7.7-1.71,11.39,1.18,1.2.94,2.46,1.81,3.72,2.67,1.09.74,2.21,1.41,3.67,2.34"/><path class="cls-4" d="M594.09,729.38c-.37-7.22-4.83-10.71-9.22-15.38,1.89-1.58,3.76-3,5.49-4.61,2.37-2.19,11-3.85,14-2.54,3.46,1.53,4.62,4.61,4.81,8,.27,5-1.82,9-6.32,11.35-2.45,1.27-5.21,1.93-8.72,3.18"/><path class="cls-4" d="M658.83,396.19,652,391.81a11.82,11.82,0,0,0,3.89-11.3,8.46,8.46,0,0,1,8-9.83,9.12,9.12,0,0,1,9.44,8.92c.08,3.65-.83,7.07-3.93,9.35-3.48,2.55-7.12,4.89-10.59,7.24"/><path class="cls-4" d="M569.72,511c4-.34,7.47,1.58,10.78,3.76s5.92,4.62,5.07,9.09a11.19,11.19,0,0,1-9,8.53,25,25,0,0,1-7.82-.1c-4.33-.77-6.72-6.27-4.72-10.22,1.76-3.47,3.54-6.93,5.64-11.06"/><path class="cls-4" d="M760.89,504.54a13.57,13.57,0,0,1,1.91,2.15c5.77,9.06,5.3,12.74-6.95,15.8-4.38,1.09-8.89-.69-12.15-3.72-1.69-1.56-2.51-4.55-2.81-7-.4-3.3,1.22-4.55,4.63-5,4.68-.6,9.34-1.34,15.37-2.23"/><path class="cls-4" d="M493.7,541.29c.7,3.16-1.14,5.13-4.4,6.42a25.87,25.87,0,0,0-5,3c-3.14,2.19-7.38,2.34-10.13.23s-3.39-5.67-2.35-9.39c1.8-6.39,7.59-8.18,12.49-10.35,4.33-1.92,9.38,3.7,9.42,10.12"/><path class="cls-4" d="M663.08,466c10.15.64,10.15.64,15.54-3.06,2.64,2,5.94,3.33,5.63,7.87-.36,5.33-2.18,9.84-6.08,13.29-2.62,2.32-10.66,1.27-12.75-1.6-.88-1.21-.73-3.19-.95-4.84-.48-3.76-.9-7.53-1.39-11.66"/><path class="cls-4" d="M590.09,776.8c2.26-6.87,4.08-12.38,6-18.15a12,12,0,0,1,13.75,7.12c1.82,4.54-.65,12.16-5.22,14.34-1.94.93-4.64.57-7,.38-3.31-.27-6.59-.94-7.55-3.69"/><path class="cls-4" d="M612.7,722.55c6.8-8,13.12-9.31,21.95-4.95,5.67,2.8,6.24,8.43,1.3,12.65-4.41,3.77-13,3.4-17.61-1a76.72,76.72,0,0,1-5.64-6.73"/><path class="cls-4" d="M592.25,498.57c9.85-.86,15.53,3.46,15.51,11.32,0,1.4-.37,3.38-1.32,4.08-4.89,3.65-10.16,6.61-16.19,6.15l-6.49-8.64c7.25-1.11,8.18-6.71,8.49-12.91"/><path class="cls-4" d="M359.08,366.63c3.19.45,5.78,1.24,8.32,1.1,4.37-.25,6.25,2,7.52,5.71s2.14,7.46-.44,10.62-6.3,3.68-10.18,2.14c-2.22-.88-4.66-1.43-6.62-2.71-3.64-2.36-4-5-1.77-8.83a33,33,0,0,0,2.06-4.07,40.56,40.56,0,0,0,1.11-4"/><path class="cls-4" d="M502,634.54c0,8.61-6.12,12.14-13.57,7.87-10.54-6-10.87-7.76-3.06-17.07a5.07,5.07,0,0,1,2.48-1.87c4.83-1,14.92,3.53,14.15,11.07"/><path class="cls-4" d="M588.29,764.42c-.4,9.42-6.75,13.2-13.95,9.44a20.46,20.46,0,0,1-4.9-3.19c-2.42-2.35-5.56-4.63-4.54-8.66.6-2.36,7.44-6,10.39-5.7,4.19.36,8.21,1.41,11.08,4.78a15.91,15.91,0,0,1,1.92,3.33"/><path class="cls-4" d="M627.8,503.8c4.6-3.51,4.15-8.53,4.32-13l12-4.26c1.11,1.81,2.39,3.83,3.59,5.89,3,5.09,2.76,9.52-.67,14-2.09,2.75-7.71,3.5-12.18,1.4-2.36-1.11-4.54-2.58-7.1-4.06"/><path class="cls-4" d="M650.13,362.44a10.91,10.91,0,0,1-9-3.88c-2.52-2.85-2.34-6.77.86-8.49a64.7,64.7,0,0,1,12.7-5.2c3.77-1.09,7.85,1.34,9.22,4.6,1.17,2.8.13,6.07-2.77,8.65-3.83,3.42-6.14,4.36-11,4.32"/><path class="cls-4" d="M386.6,420.71c3.61-4.92,4.67-9.67,1-14.14l16.49.9,5.69,4.77c.2,5.92-2.33,10.18-8.22,12.32s-10.44,0-14.93-3.85"/><path class="cls-4" d="M668.05,419.63l8.7-4.12c8.11,2.31,10.82,6.48,9,14.19-1.58,6.72-8.32,10.27-16.11,8.78-.54-6.24-1.06-12.38-1.61-18.85"/><path class="cls-4" d="M617,671.31c-.14,4.77-2.61,7.73-6.56,8.38-8.18,1.34-16.87-5.68-16.07-13.12a6.17,6.17,0,0,1,1.83-3.88c5.63-4.38,18.5-.19,20.53,6.57a10.27,10.27,0,0,1,.27,2"/><path class="cls-4" d="M398.53,675.29c7.43-9.43,17.52-9.49,27.5-11.21,1.13,4.48-1.54,7.46-3.47,10.3-2.69,4-6,7.83-11.17,8.38-2.74.29-6,.21-8.26-1.1s-3.2-4.3-4.6-6.37"/><path class="cls-4" d="M712.67,431.27c3.82,1,7.12,1.05,9.33,2.63s3.62,4.41,4.36,7c1.06,3.74-3.9,11.41-7.58,12.75-5.31,1.93-10.46-.93-14.44-8.28,4.87-2.83,8.12-6.94,8.33-14.1"/><path class="cls-4" d="M645.91,548.45c6.27-9.26,14.23-7.69,22.17-5,5.23,1.74,6,6.3,2.23,10.23a14.13,14.13,0,0,1-21-.36,53.72,53.72,0,0,1-3.4-4.83"/><path class="cls-4" d="M638.25,463.6,649.86,459c5.51,2.34,7.94,8.27,10.13,13.69,2.51,6.18-2.6,11.85-9.32,11.42a38.94,38.94,0,0,1-5-1c1.31-7.72-.7-14.33-7.37-19.46"/><path class="cls-4" d="M683.24,648.89l17.39-3.25,4.45,4.1c-.61,4.68-1.17,9-1.84,14-7.16.78-13.91-.66-19.6-5.74-3.26-2.93-2.13-6.27-.4-9.16"/><path class="cls-4" d="M633.42,692.72c-1.83-7.57-6.13-12.36-13.9-14.23a26.42,26.42,0,0,0,1.45-3.75c.89-4.06,2.52-8,7-8.38,4.71-.35,8.86,2.28,11.9,5.86,2.13,2.52,1.77,5.62.36,8.63-.89,1.9-2.13,4.08-1.91,6,.39,3.5-1.38,4.66-4.9,5.89"/><path class="cls-4" d="M581.08,474c-1.61-4.87-3-9.17-4.46-13.46,2-2.15,4.16-4.55,6.39-6.88a4.91,4.91,0,0,1,2.09-1.47c5.7-1.42,13,5.67,11.81,11.42-1.66,8.1-7,11.53-15.83,10.39"/><path class="cls-4" d="M710.82,619.09c-2.62,13.46,5.69,19.51,20.81,22.77-1,1.25-1.67,2.59-2.75,3.27-6.89,4.34-14,4.21-21.2.72-2.79-1.36-4.48-3.46-3.14-6.89,2.12-5.49,2.13-11.09.33-17.14l6-2.73"/><path class="cls-4" d="M678.09,600.69c2.41,4.08,4.78,7.74,6.8,11.6,3.19,6.07-2.08,14.41-8.87,14-2.28-.14-4.51-1.13-7.22-1.86,5.72-8.64,1.8-15.59-2.84-23l12.13-.76"/><path class="cls-4" d="M443.53,545.07c7.06.18,12.22-3.52,16-9.32,6.18,3.23,7.78,7.55,5.32,14-2.54,6.63-10.78,10.74-16.92,8.89-1.42-4.38-2.73-8.45-4.37-13.53"/><path class="cls-4" d="M451.41,770.36c-.06-3-.23-4.9,3-5.48a29.72,29.72,0,0,0,8.36-3.22c3.93-2.07,7.49-2,10.75.85,2.8,2.42,3.73,5.6,2.06,9.45a21.82,21.82,0,0,1-4.61,6.94c-2.66,2.54-6,2.3-7.84-.54-2.77-4.34-6.9-6.41-11.69-8"/><path class="cls-4" d="M485.68,650.82c0,5.77-5.72,11.88-11.46,12.26-2.82.18-5.67.14-8.45.57s-4-1-4.55-3.41c-.93-4,.59-6.93,4.43-9,2.1-1.12,4-2.82,6.17-3.59a34.18,34.18,0,0,1,9.33-2c3.13-.16,4.54,2.12,4.53,5.18"/><path class="cls-4" d="M623,753.43c-1.89-4.7-4.78-8.38-10.41-9.29.16-4,.19-7.58,3.74-9.6,4.91,1.09,9.5,2.29,14.17,3.07a7.56,7.56,0,0,1,6.56,5.53c.93,2.94-.85,4.64-2.72,6.73-3,3.31-6.42,4.09-11.34,3.56"/><path class="cls-4" d="M649.27,420.76l7-4.75c8.18,4.68,11.51,12.12,8.62,18.9-2.7,6.34-10.18,9.32-18.19,6.65,6.28-6.2,8.95-13,2.54-20.8"/><path class="cls-4" d="M737.59,488.65c5.68,0,10.44.3,15.14-.11,3.13-.27,5.06.71,6.32,3.34a7.25,7.25,0,0,1-1.62,8.36c-5.17,4.42-17.37,3.73-21.83-1.23-2.52-2.79-1.77-6.26,2-10.36"/><path class="cls-4" d="M729.57,446c.34-1.6.65-3.08.89-4.18,4.77-.64,9.68-.26,13.54-2.09s6.63-5.89,10.22-9.27a8.72,8.72,0,0,1,3.67,9.59c-1.21,5.18-4,9.18-9.49,10.66-6.85,1.86-12.92.13-18.83-4.71"/><path class="cls-4" d="M530.49,672.68c-.53-3.76-1.14-7.16-1.43-10.59a6.17,6.17,0,0,1,1-3.62c2.46-3.76,8.42-5.06,13-3a9,9,0,0,1,5,10.33,23.5,23.5,0,0,1-2.06,5.51c-1.06,2.11-2.59,3.36-5.3,2.45a23.25,23.25,0,0,0-5.18-.67c-1.7-.16-3.4-.26-5-.38"/><path class="cls-4" d="M390.26,332.31c5.61.33,7.13,4.08,8.22,8.25,1.57,6,.65,8.59-4.34,12.13-4.16,2.95-8.2,2.91-12.78-.14-4-2.7-4.61-5.63-1.57-9.28a13.6,13.6,0,0,1,4-3.26c4.87-2.57,4.92-2.5,6.46-7.7"/><path class="cls-4" d="M495.85,482.07c-5.13.19-12.82-5.28-13.8-9.28a5.37,5.37,0,0,1,.74-4.26,50.51,50.51,0,0,1,7.25-6.44c2.23-1.68,4.27-1.5,6.09,1.11,1.35,1.93,3.45,3.32,5,5.13,3.46,4,3.51,5.62-.11,9.53a39.69,39.69,0,0,1-5.18,4.21"/><path class="cls-4" d="M618.2,369.38,610,360.23l-2.94,2.07c.82-2.65,1.26-5.51,2.55-7.9,1.59-3,4.15-5.43,7.89-4.92,3.4.46,6.35,2.3,7.39,5.76a54,54,0,0,1,1.74,9.64c.31,2.78-1.29,4.55-3.88,5.34-1.87.57-3.79,1-5.69,1.46l1.1-2.3"/><path class="cls-4" d="M454.16,410l6.22,4.12c.23,7.68-3.4,13-9.65,14.14-4.5.85-7.39-.45-9.94-4.48-1.94-3.05-1.93-8.49.31-11.13a5.73,5.73,0,0,1,3.31-1.52c2.95-.49,5.94-.71,9.75-1.13"/><path class="cls-4" d="M466.79,743.84c0-2.43.74-4.19,3.68-5.1a13.88,13.88,0,0,1,11.36,1c3,1.71,6.31,4,6,7.9-.3,4.17-3.32,7.08-6.9,9S469.5,754.83,468.3,751a69,69,0,0,1-1.51-7.19"/><path class="cls-4" d="M709,382.12c4.24,3.27,5.68,7.06,4.23,11.52-1.84,5.66-5.42,8.33-12.11,9a58.65,58.65,0,0,0-4.11-4.93,42.69,42.69,0,0,0-4.53-3.42l3-8.85L709,382.12"/><path class="cls-4" d="M502.52,702.61c1.68-1.09,3.73-2.29,5.64-3.69,4.05-3,8.49-2.76,11.53.67a9.41,9.41,0,0,1-.06,12c-2.87,3.08-6.12,5.59-10.7,6.32l-4.59-2.78c-.61-4.19-1.2-8.19-1.82-12.48"/><path class="cls-4" d="M659.09,595.62,642,601l-3.36-3.54a22,22,0,0,0,7.5-13.57c.85-5.61,7.8-7.1,11.8-3,4.48,4.54,4.63,7.38,1.2,14.72"/><path class="cls-4" d="M569.84,385.73c-2.18-1.55-3.58-2.59-5-3.56a11.1,11.1,0,0,1-3.28-15.31,5.25,5.25,0,0,1,1.73-1.83c5.39-2.93,14.54.92,15.91,7a7.84,7.84,0,0,1-1.32,5.89c-2.23,2.85-5.18,5.15-8,7.85"/><path class="cls-4" d="M355.45,349.93l17.95-2.34a82.84,82.84,0,0,0,4.08,7.24c2.4,3.49,2,6-1.61,7.87-4.77,2.49-16.51.33-19.54-4-1.92-2.73-2.41-6-.88-8.8"/><path class="cls-4" d="M687.34,570.93c-7.42,7.16-17.85,7.65-24.65,1.53-2-1.79-3.64-3.77-2.74-6.86a5.66,5.66,0,0,1,6.65-4.15c6.65,1.47,14.08,1.28,19.19,7a19.93,19.93,0,0,1,1.55,2.44"/><path class="cls-4" d="M444.36,319.54a28.75,28.75,0,0,1-1.07,5.21c-1.63,4-3.48,7.92-5.28,11.86a6.63,6.63,0,0,1-7.61,3.65c-3.16-.78-4-2.22-3.89-6.46.05-1.5.44-3.23-.15-4.47-1.7-3.59-.71-6.19,2-8.73.65-.61.44-2.13.6-3.06l15.4,2"/><path class="cls-4" d="M631.52,662c1.94-3.46,3.55-7,5.79-10.15,3.21-4.49,6.87-5.47,10.6-3.5,4.13,2.18,6.9,8.18,4.9,12.26-1.25,2.56-3.8,4.56-6,6.55-2.89,2.61-5.15.07-7.56-1.24s-5-2.55-7.74-3.92"/><path class="cls-4" d="M580.33,665.71l10.82-6.15c0,7,.12,13,0,19-.12,4.22-1.39,5.42-5.52,5.57a26.41,26.41,0,0,1-6.53-.54c-5.66-1.27-7-4.84-3.86-9.63,1.76-2.69,3.42-5.46,5.13-8.22"/><path class="cls-4" d="M497.43,546c-.69-7.16.42-9.91,4.64-11.91,3.76-1.78,12.88-.58,15.63,2.06,2.95,2.82,3,6.83,0,9.79-4.43,4.46-9.69,5.19-15.15,2.22a55.41,55.41,0,0,0-5.15-2.16"/><path class="cls-4" d="M385.07,425.85c-9.77,11.62-5.76,19.93,5.25,25.81a46,46,0,0,0-4.39,3.25c-4,3.75-8.71,4.35-13,1.51-3.87-2.54-4.28-5.84-1.17-9.22,7.94-8.66,8.17-11,2.19-21.3a29.18,29.18,0,0,1-1.3-3.24c4.38,2.28,9.68-3.44,12.43,3.19"/><path class="cls-4" d="M573.39,609.6c-4.56-.22-8.61-1.54-11.31-5.55a9,9,0,0,1,1.25-11.93c3.35-2.92,8.32-2.6,11.76,1.06a31.29,31.29,0,0,1,4.59,6.36c3,5.43-.06,10.12-6.29,10.06"/><path class="cls-4" d="M621.59,480.13c4.46-3.55,3.85-8.33,3.66-13.23,1.9-.22,3.49-.09,4.83-.62,3.74-1.49,6.32,0,8.61,2.78,2.66,3.21,4.1,6.79,2.82,11-1.75,5.7-7.51,7.86-12.62,4.8-2.23-1.34-4.38-2.81-7.3-4.69"/><path class="cls-4" d="M546,610.14c-3.2,0-6.07-.35-7.1-4.21-.38-1.41-1.48-2.64-2.3-3.92-2.82-4.42-2.26-6.69,2.35-9.35,6.86-4,15.72.24,16.25,7.72.46,6.4-2.76,9.81-9.2,9.76"/><path class="cls-4" d="M544.65,635.09c-6.46-4.45-13.11-5.33-20.12-2.87-1-7.35,1-12.24,5.78-14.46,3.57-1.66,11.69.63,14.9,4.21s3.06,7.16-.56,13.12"/><path class="cls-4" d="M401.48,334.47l14.22-10.59c3.28.94,5.4,3.52,5.2,8.21a31.79,31.79,0,0,0,.9,7.08c.8,4.22-.35,6-4.47,5.78a55.41,55.41,0,0,1-9.72-1.54,5.27,5.27,0,0,1-2.89-2.28c-1.23-2-2.11-4.28-3.24-6.66"/><path class="cls-4" d="M575.09,710.76c-.17-4.44-4.56-6.91-4.26-11.52.2-3.1-.38-6.29,3.31-7.66s7.51-2.21,11,.9A10.63,10.63,0,0,1,588,704.39c-1.71,4.35-6.62,7-12.9,6.37"/><path class="cls-4" d="M318.52,446.19l8.93,1c1.42,7.41,2.7,14.14,4.07,21.3-3.46,3.63-10.6,4.12-14.48.55-2.1-1.92-2.44-4.24-1-6.47,3.18-4.89,3.51-10.15,2.47-16.42"/><path class="cls-4" d="M331.74,476.14a23.87,23.87,0,0,1-2.49,2.05c-4.93,2.69-10,5.17-14.79,8.06-3.58,2.15-6.3.29-9-1.36a6.6,6.6,0,0,1-3.46-7.12c.89-6.47,2-8.17,7.22-9.89,3.66,2.62,6.62,5.67,10.22,7,3.42,1.3,7.5.83,12.35,1.23"/><path class="cls-4" d="M622.25,641.27c2.34.65,5.42.59,6.86,2.09,2.45,2.56,2.79,6.34,1.92,9.89-1.15,4.65-5.6,7.13-10,5.36a28.78,28.78,0,0,1-7.2-4.39c-2.52-2-3.73-4.55-2.16-8.06,1.48-3.32,3.69-4.65,7.16-4.34,1.08.09,2.18,0,3.27,0l.18-.56"/><path class="cls-4" d="M564.28,785.59c.77-4.57,2.63-6.49,7.54-6.72a59.92,59.92,0,0,1,12.92.33c2,.33,4,2.46,5.31,4.3,1.55,2.22.66,4.88-1.31,6.48-2.81,2.29-6,4.11-8.27,4.51a77.12,77.12,0,0,0-7.39-5.28c-2.57-1.43-5.46-2.28-8.8-3.62"/><path class="cls-4" d="M496.45,567.85c-3-.62-6.08-.89-8.89-2-3.66-1.38-5.1-5.07-2.8-7.93a24.86,24.86,0,0,1,8.47-6.74c3.67-1.72,11.69,3,12.56,6.88.95,4.19-1.37,10.14-9.34,9.74"/><path class="cls-4" d="M543,573.4c-1.91-3.35-3.52-6.15-5.18-9,.61-1.16,1.67-2.44,1.92-3.86.58-3.26,2.39-5.13,5.51-5.6,3.75-.57,7.52-.41,10.54,2.26,2.47,2.19,2.49,6.18.3,9.63-1.5,2.37-3,4.7-4.77,7.33L543,573.4"/><path class="cls-4" d="M363.53,424.46c2.21,2.89,4.23,5.46,6.17,8.09,1.56,2.12,3.19,4.26,1.83,7.16s-4,2.8-6.7,2.9c-4.77.18-9.17-.61-12.71-4.07-3-3-3.09-5.31-.34-8.55a15.08,15.08,0,0,1,11.75-5.53"/><path class="cls-4" d="M642.45,622.12l5.77,5.43c-1,2.68-2.15,4.2-1.94,5.48,1.42,8.38-3.59,12-10.56,14.25l-4.67-8.08,1.65-12.63,9.75-4.45"/><path class="cls-4" d="M404.6,481.75c-1.64,3.87-3.06,7-4.32,10.25-1.61,4.11-5.61,5.85-8.65,2.85a29.44,29.44,0,0,1-7-10.75c-1.68-4.76,2-7.87,7.21-7.82s9.8,1.2,12.78,5.47"/><path class="cls-4" d="M565.46,401.74c-6-.49-9.75,2.9-13.85,7-1.18-1.63-2.72-2.83-2.93-4.22-.64-4.25-1.49-8.66-.92-12.83.7-5.19,4.17-6.67,9.21-5.1,6,1.89,8.54,6.14,8.49,15.16"/><path class="cls-4" d="M565.49,480a60.71,60.71,0,0,1-6.06-1.61c-3.91-1.48-6.22-6.08-4.08-9.45s5.41-6.33,9.85-6.81c4.1-.45,7.14,1.33,9.22,4.93,2.74,4.74,2.23,7.5-2.53,10.39-2,1.21-4.36,1.76-6.4,2.55"/><path class="cls-4" d="M463.58,669.72c4.87.31,9.17.55,13.45.86a16,16,0,0,1,3.86.58c3.17,1,5.18,3.21,5.45,6.63.23,3.07-1.64,5.33-5.29,6.58-4.29,1.45-8.17.19-11.78-2.08-1.46-.92-2.64-2.27-4-3.29-4.73-3.41-4.79-3.59-1.64-9.28"/><path class="cls-4" d="M593.8,750.8c-6.24-.37-8.89-2.86-8.64-8.12s3.82-8.52,9.42-8.49a17,17,0,0,1,5.74.76c6.13,2.27,7.17,7.3,2.64,12-3.31,3.4-5,4.13-9.16,3.89"/><path class="cls-4" d="M543.08,505.68a45.8,45.8,0,0,0,5.1-4.35c2.05-2.31,4.49-2.44,7.14-1.91,6.11,1.23,8.59,4.66,7.44,10.76-.47,2.47-1.68,4.8-2.56,7.22a65.33,65.33,0,0,0-6.91-.75,40.88,40.88,0,0,0-5.59.68c-1.56-3.93-3-7.65-4.62-11.65"/><path class="cls-4" d="M493.32,393.05c1.59,2.15,2.91,4,4.31,5.82,2.45,3.17,2.73,6.1.79,9a7.94,7.94,0,0,1-8.74,2.93,14.74,14.74,0,0,1-9.16-8.81c-1.64-4.24.71-7.49,3.71-10.29l9.09,1.31"/><path class="cls-4" d="M587.24,381.67c5.6.77,10.57,1,15.3,2.18,8.09,2,10.26,7.4,6.48,14.87a22.21,22.21,0,0,1-2.41,3.18l-11.7-2.11c-.52-3.21-.55-6.57-1.7-9.49-1.06-2.68-3.31-4.9-6-8.63"/><path class="cls-4" d="M715.55,594.87c6.66,6.78,14.35,7.84,22.64,7,.39,6.55-3.88,9.16-8.08,11.26-4.81,2.41-9.44.87-13.37-2.52-5-4.3-3.5-9.37-1.19-15.79"/><path class="cls-4" d="M418.43,620.68c5.85,4.17,13.85,3.93,18,11-1,3.09-.54,7.29-5.49,8.19A14.57,14.57,0,0,1,417.68,636c-2.72-2.61-2.31-9.92.75-15.3"/><path class="cls-4" d="M444.11,749.18c-7.27,0-9.94-2.24-10.64-7.72-.47-3.74,1.18-6,5-6.72,2.55-.51,5.08-1.19,7.66-1.5,3.93-.49,6.7,1.39,8.4,4.85,2.1,4.3.9,7.66-3.63,9.36a49.68,49.68,0,0,1-6.81,1.73"/><path class="cls-4" d="M295,515.3l3.78,13.81c-.59,2-2.72,3.53-6,1.93a111.5,111.5,0,0,1-12.49-7c-3.31-2.2-4.3-5.35-3.23-7.75s5.38-4.35,8.53-3.63c3.38.76,6.69,1.87,9.4,2.65"/><path class="cls-4" d="M578.25,410.8,593,404.33c-.09-.38-.19-.75-.28-1.12,2.77.57,5.6.94,8.28,1.77,2.9.9,4.05,3,3.42,6.16-1.29,6.38-5.77,8.93-11.83,7.06-3.93-1.22-8.09-1.71-12.78-2.66-.43-1.26-1-3.06-1.59-4.74"/><path class="cls-4" d="M565.9,732.3c-2.19-7.49-6.64-11.82-14.84-11.66v-5.47c3.1-3,5.86-5.41,8.2-8.15a6.39,6.39,0,0,1,8.51-1.52c2.33,1.46,4.09,6,2.46,8.06-4.48,5.6-4,12-4.33,18.74"/><path class="cls-4" d="M418.14,366.82l9.53,3.94c3.61,1.52,5.14,3.88,4.54,7-.74,3.8-3.55,6.42-7.21,6.33-4.71-.12-9-1.51-12.4-5-4.5-4.73-3.1-9.67,3.19-11.46,1-.3,2-.65,2.35-.74"/><path class="cls-4" d="M711,523.63c4.94.32,9.38.07,13.56,1,5.91,1.29,7.32,7.35,3.08,11.68a17.37,17.37,0,0,1-2.06,1.63,11.42,11.42,0,0,1-12.37,1.64c-4.52-2-2.09-6.62-3.34-9.89-.52-1.37.56-3.34,1.13-6"/><path class="cls-4" d="M498.67,773.36c0-.12-.17-1-.41-1.77-1.54-5.2-1.14-6.87,2.38-9.59,4.06-3.14,8.11-3.61,11.44-1.32a9,9,0,0,1,3.47,10.45c-1,3.18-2.88,6.08-4.46,9.28l-12.42-7"/><path class="cls-4" d="M366.25,599.13c-.33-2-.6-3.63-.82-5l10.7-4.22c3.79,1.59,8.55,3.19,12.91,5.55,4.59,2.49,4.61,5.3.69,8.63-4.82,4.08-6.62,4-11.61-.31-3.59-3.13-4.76-3.61-11.87-4.7"/><path class="cls-4" d="M572.46,392.15c3.14-1.93,5.92-3.31,8.3-5.2s4.35-1.41,6.4.34a10.07,10.07,0,0,1-2.29,16.49,19.3,19.3,0,0,1-3.13,1c-7.65,2-8.5,1.41-9-6.62-.11-2-.22-3.92-.33-6"/><path class="cls-4" d="M340.74,464.14h5.82l7.91,10.46.91-.55c.19,2.33.38,4.67.56,6.9-8.25,3.31-16.9,1-21.47-5.51l6.27-11.3"/><path class="cls-4" d="M489.22,737.59c3-.23,5.76-.83,8.43-.57,3.37.33,5.53,2.64,6,6a13.16,13.16,0,0,1-4.95,12.71c-2.48,2.08-4.93,4.19-8,6.78l-6.62-2.21c9.14-10.76,9.51-12.32,5.08-22.72"/><path class="cls-4" d="M677.73,398.14c-.77-1-1.49-2.11-2.37-3.07s-1.92-1.78-3.48-3.19c5-4.34,6.15-10.13,5.38-16.66l6.77-.79c2.32,3.29,4.76,6.32,6.72,9.65,1.83,3.1-1.14,8.78-5.3,10.71-2.18,1-4.4,1.91-7.72,3.35"/><path class="cls-4" d="M590.57,495.2a19,19,0,0,0-14.16-7.91c-1.87-.16-3.56-2.58-5.64-4.21l7.49-5.89c3.14.23,5.93.57,8.72.6,4.48.06,8.87,2.77,9.65,6.17,1,4.21-1.28,8.55-6.06,11.24"/><path class="cls-4" d="M288.52,448.18c-.1-4.81,3-7,7.56-5.69s8.72,3.32,11.2,7.9c1.22,2.27,2.25,4.43.84,6.71-1.67,2.71-4.21,4.55-7.56,4.35-4.41-.26-11.95-8.74-12-13.27"/><path class="cls-4" d="M627.41,774.84c-4.63-2.29-7.85-4-11.2-5.48-2.15-.93-3-3-1.23-3.77,5.69-2.6,10.27-8.49,17.61-6.55a17.18,17.18,0,0,1,4.86,1.69c3.16,2,3.22,6.86-.36,9.41-3.08,2.21-6.9,3.4-9.68,4.7"/><path class="cls-4" d="M503.25,507.33c-6.31-.6-11.12-2.65-14.06-8-2.08-3.8-.77-7.71,3.19-10a7.77,7.77,0,0,1,9.72,1.94,69.23,69.23,0,0,0,5.09,6c1.91,1.9,3.07,4.28,1.62,6.42-1.16,1.71-3.66,2.52-5.56,3.73"/><path class="cls-4" d="M404.05,452l4.25,7.16c-.62,4.82-2.47,8.53-7.63,10.11-4.05,1.25-8.59.5-10.53-2.42-1.79-2.69-.85-9,1.83-11.48,3.39-3.17,7.49-4,12.08-3.37"/><path class="cls-4" d="M569.47,723.53c.29-.62.74-3.69,2.33-4.48,3.71-1.85,8-2.45,11.81.33a18.63,18.63,0,0,1,3.22,3.24c4.51,5.51,2.77,10.5-4.14,12.07-7.22,1.64-13.4-2.76-13.22-11.16"/><path class="cls-4" d="M348.39,706.57c3.85.91,7.52,1.47,11,2.67,4.46,1.56,7.06,5.66,6.14,8.81-1.34,4.56-5.68,6.93-10.88,5.93-9.28-1.78-12.12-9-6.24-17.41"/><path class="cls-4" d="M603.6,573.21c-.8-3.36-1.69-6.7-2.35-10.08-1-5.43,3.52-9.64,8.72-7.93a13.73,13.73,0,0,1,8.54,7.7,7.52,7.52,0,0,1-4.08,9.83c-2.39,1-7.12,1.22-10.83.48"/><path class="cls-4" d="M510,555c5.55-2.6,9.94-5.6,15.53-4.28a16.42,16.42,0,0,1,4.28,1.41c3.95,2.19,5.24,4.54,4.59,7.81-.54,2.73-3.53,4.83-7.46,5.27-5,.56-9.67-.47-13.25-4.2-1.49-1.56-2.34-3.74-3.69-6"/><path class="cls-4" d="M426.85,402.42c-2.86,1.4-5.4,2.6-7.91,3.87-4.72,2.39-5,2.37-10.19-1.91,4.23-4.93,7.07-10.61,5.56-17.34l16.09,1.15c-3.21,4-5.16,8.68-3.55,14.23"/><path class="cls-4" d="M563.45,426.79c-2.49-2.33-4.52-4.31-6.63-6.19-4.4-3.93-4.84-6.35-1.66-9.82,4-4.4,8.92-5.2,12.64-1.95,3.16,2.77,5,6.31,4,10.47-1,3.95-3.57,6.93-8.3,7.49"/><path class="cls-4" d="M409.15,535l10.51-8.22,5.63,1.68c4.13,1.22,7.23,4,7.12,6.7-.18,4.16-3.28,5.86-6.63,7.22A12.45,12.45,0,0,1,409.15,535"/><path class="cls-4" d="M535.38,486a44.2,44.2,0,0,1,5.7,1.65c5.63,2.39,6.65,6.9,2.72,11.5a7.75,7.75,0,0,1-8.95,2.44c-3.5-1.22-8.05-.74-9.38-5.88-1.28-4.95-.15-7.67,4.71-9a42.86,42.86,0,0,1,5.2-.7"/><path class="cls-4" d="M612.34,519.36c.3-1.36.69-2.79.93-4.24.87-5.34,2.21-6.89,6.83-7.77,5.18-1,11.32,1.36,13.29,4.94,1.22,2.19.08,3.72-1.18,5.26-4.94,6-12.13,6.69-19.87,1.81"/><path class="cls-4" d="M436.28,409.12c-.67,6.94-1.21,12.7-1.79,18.66-4.28.9-9.93-2.29-12.12-7.37-2.41-5.59-1.13-10.05,3.59-13.22,2.45-1.65,4.71-2.08,7.18-.13a36.73,36.73,0,0,0,3.14,2.06"/><path class="cls-4" d="M511.8,609.6l-4.49-.66c-1-3.36-1.54-6.52-2.79-9.39s-6.13-2.79-6.34-7.42c5.26-1.57,11.33-2.14,13.16-8.59,7.61,2.42,8.39,4,5.5,10.6-.94,2.16-2.24,4.15-3.29,6.26a18.25,18.25,0,0,0-1.69,4.17,28.14,28.14,0,0,0-.06,5"/><path class="cls-4" d="M553.17,480.12c4.18,1.18,7.68,2.18,11.2,3.15,4.4,1.21,7.16,5.48,6,9.35s-5.14,5.72-9.9,4.33c-1.25-.36-2.5-.77-3.77-1.07s-2.52-.49-3.68-.71l-3.87-10.79,4-4.26"/><path class="cls-4" d="M446.33,320.2a15.14,15.14,0,0,1,1.12-2.68c1.61-2.5,3.57-4.81,5-7.43a10.48,10.48,0,0,1,8.31-5.6c3.14-.45,6.39-.1,9.39-.1,1.83,6.4,1.86,6.44-2.37,9.22-3.27,2.15-6.42,4.68-10,6.13-3.22,1.3-6.94,1.37-10.44,2-.33-.51-.66-1-1-1.53"/><path class="cls-4" d="M362.83,692.17c.69-6.53-2.59-11.26-7.36-15.13,5.32-5.76,16-5.35,19.83.82a8.52,8.52,0,0,1,.58,6.1c-1.45,5-5.69,7.53-13.05,8.21"/><path class="cls-4" d="M486.15,599.41c2.4,0,4.91-.43,7.17.11a19.6,19.6,0,0,1,7.52,3.38c2.5,2,2.06,4.59-.6,6.56a40.15,40.15,0,0,1-5.61,3.41c-5.78,2.94-13.75-1.16-14.78-7.53-.59-3.68,2.24-6.5,6.3-5.93"/><path class="cls-4" d="M641.42,414.83l-3.84-13.55c2.39-4,7.11-5,12.34-4.64a4.84,4.84,0,0,1,2.81,1.42c2.76,2.79,2.72,9.27.06,12.84-3.58,4.82-7,5.82-11.37,3.93"/><path class="cls-4" d="M472.06,354.57c-5.57,3.39-11.17,2.91-16.58,1-4.53-1.59-4.22-7.13.44-10.29,3.23-2.2,6.6-4.2,10.05-6.37,1.74,2,4.37,3.91,5.37,6.46s.54,6,.72,9.18"/><path class="cls-4" d="M455.62,531.57c-6.47,8.52-10.61,9.84-18,6.73q-.94-6.33-1.89-12.57L446.11,521c5.72,1.2,3.31,9.17,9.51,10.55"/><path class="cls-4" d="M514.27,610.15c.75-7.71,3.47-10.7,9.54-10.51,5.67.18,9.59,4.87,9.64,11.56l-11,7.7-8.23-8.75"/><path class="cls-4" d="M586.57,363.87c-.23-1.95-.75-3.31-.46-4.47a11.67,11.67,0,0,0-1.81-9.91c-2.07-3.1-1.22-5.09,2.18-6.55,3.82-1.64,11,1.16,13.74,5.34,1.69,2.59.69,6.59-2.79,9.9a20,20,0,0,1-10.86,5.69"/><path class="cls-4" d="M677.25,545.19c6.61,3.9,13,5.46,20.26,3.41.21,3.75.39,6.93.56,10l-7,5.23-15.84-8.74q.81-3.95,2.06-9.95"/><path class="cls-4" d="M420.91,440.63c1.46,6.58,6.64,8.29,11.58,10.47-.76,4.82-4.21,6.24-8.1,7.07-4.25.91-8.27.64-11.65-2.53-4.67-4.39-3.62-10.64,2.3-13.24a54.31,54.31,0,0,1,5.87-1.77"/><path class="cls-4" d="M600.13,523.68c6.37-3.26,12.16-.95,17.38,3.72,3.35,3,3.37,6.63.16,9.67-2.88,2.72-6.41,4-10.27,2.83a6.07,6.07,0,0,1-3.44-3.27c-1.47-4-2.45-8.14-3.83-13"/><path class="cls-4" d="M522.49,759.81c-3.43-2.27-6.54-4.17-9.47-6.34a5.23,5.23,0,0,1-1.89-3.11c-.82-5.26,6.23-11,11.25-9.27a11.19,11.19,0,0,1,7.57,9.06c.72,3.81-2,6-4.49,8.12a11.6,11.6,0,0,1-3,1.54"/><path class="cls-4" d="M594.83,703.3,589,688.8l8-9c1.55,1.71,3,3.6,4.79,5.2,3.25,3,5.8,6.21,4.53,10.87-1.07,3.91-6.76,7.28-11.53,7.47"/><path class="cls-4" d="M597.92,449.49c2.35-1.82,4.32-3.51,6.45-5,3-2,6.17-3.32,9.9-2.47,3,.69,5.42,2,5.77,5.39.33,3.25-.26,5.93-3.56,7.74-6.24,3.44-13.64,2.65-17.26-2.32a13.71,13.71,0,0,1-1.3-3.38"/><path class="cls-4" d="M462.32,322.26c3.79-1.88,7-3.72,10.36-5.07,4.23-1.7,10.16,1.9,11.73,6.8,1.09,3.42-1.33,7.73-5.66,8.91-2.37.64-5.1.29-7.62,0-3.07-.38-3.92-2.62-4.49-5.49-.32-1.61-2.34-2.88-4.32-5.13"/><path class="cls-4" d="M747.18,418.81c3.48,8.32,1.74,14.8-5.09,17.69-3,1.28-6.76,1.05-10.17,1-4.08-.11-4-4.6-7-6.31,3.1-3.11,5.92-4.48,9.66-4.8,2.42-.21,4.78-1.92,7-3.24a59.73,59.73,0,0,0,5.64-4.31"/><path class="cls-4" d="M507.26,692.27c-.18,4.07-4.91,7.41-10.12,7.15-4.83-.25-9.31-4.68-9.27-9.2,0-3.87,5.3-7.51,10.7-7.4a8.82,8.82,0,0,1,8.69,9.45"/><path class="cls-4" d="M344.8,380.11c.52,2.13,1,3.8,1.33,5.5,1,5.42-2.62,9.55-8.05,9a22.54,22.54,0,0,1-6.33-1.68c-4-1.67-4.7-3.29-3.56-7.57a6.6,6.6,0,0,1,.2-.63c.86-2.4,1.1-5.54,2.79-6.94,1.08-.9,4.28.84,6.55,1.27s4.31.65,7.07,1.05"/><path class="cls-4" d="M697.64,564c3.7,1.8,7.82,3.32,11.42,5.67,3.78,2.47,3.76,5.66.48,8.74a11.6,11.6,0,0,1-9.6,3.37c-3.46-.43-6.51-2.19-7.4-5.67-1.15-4.47-.55-8.75,5.1-12.11"/><path class="cls-4" d="M431.22,734.4c-.9,3.3-1.74,6.39-2.8,10.24-4.2-.54-8.28-.78-12.22-1.67a7.08,7.08,0,0,1-5.57-6.52c-.34-3.31,1.74-5.1,4.62-6.29,1.78-.74,3.43-1.8,5.2-2.74l10.77,7"/><path class="cls-4" d="M545,540.65c.14,5.14-2.48,8.23-6.68,7.52-4.74-.79-9.42-2.63-11.8-7.22-1-1.92-.92-4.56-.76-6.84.07-1,1.37-2.32,2.43-2.8,3.76-1.73,14.13,2.42,15.91,6.26a16.75,16.75,0,0,1,.9,3.08"/><path class="cls-4" d="M537.67,775c.94-2.16,1.48-3.32,2-4.5,2.45-5.94,6.09-7.66,12.07-5.72,4.46,1.45,7.81,6.44,6.64,9.88-1.39,4.05-7.58,7.05-11.77,5.32-2.94-1.21-5.59-3.1-8.9-5"/><path class="cls-4" d="M712.91,372.46c6.73.89,11.12,4.79,14.69,9.45,2.78,3.64.93,7.63-1.16,11-2,3.2-5.15,3.57-9,2.62-.32-6.12.19-12.61-6.71-16.28.73-2.29,1.43-4.45,2.19-6.82"/><path class="cls-4" d="M500.94,818.83c-8.46,1.51-12,.12-15.5-5.83,1.39-2.69,2.77-5.32,4.11-8,2.33-4.62,9.58-5.23,12.45-.87,2,3.08,3.89,6.33.92,10.09-1,1.3-1.38,3.14-2,4.59"/><path class="cls-4" d="M637.11,735.51c1.93-2.78,3.5-5.11,5.14-7.39a7.61,7.61,0,0,1,9.13-3.13c3.76,1.13,4,4,4,7.26-.15,7.78-3.09,10.44-12.71,11.07-1.78-2.5-3.64-5.12-5.54-7.81"/><path class="cls-4" d="M543.91,696c2-3,3.25-4.5,4.17-6.2,1.61-3,2.7-6.32.9-9.41s-.13-4.37,2.55-6.47c3.51,4,7.41,7.77,10.51,12.11,2.63,3.69-1.15,10.53-6,10.88-3.61.26-7.3-.5-12.16-.91"/><path class="cls-4" d="M542,446.75c9.07-1.64,14.35-.18,16.63,4.47,3.11,6.32-2.56,8.84-5.64,12.85l-12.35-5.82c.43-3.66.88-7.47,1.36-11.5"/><path class="cls-4" d="M646.64,673.33l10.76-7.08c4.92,1.9,10.06,3.61,14.93,5.9a7.48,7.48,0,0,1,3.77,4.65c.21,1.11-1.94,3.07-3.44,4a17.27,17.27,0,0,1-5.56,1.73c-2,.42-3.85.15-5-2-2.9-5.23-7.3-7.23-13.19-5.91a4.1,4.1,0,0,1-1.85-.38c-.12,0-.16-.37-.39-.93"/><path class="cls-4" d="M596,633.81c7.43,3.37,10.16,8.83,8.16,14.94-1.85,5.64-7.21,8.39-14,7.17l-3.07-9.69c4.16-2.56,8.46-5.86,8.9-12.42"/><path class="cls-4" d="M441.44,614c-.09,4-3.58,7.37-8.29,7.59a17.13,17.13,0,0,1-5.78-1c-4.74-1.51-6.67-3.59-6.33-6.39.44-3.56,5-7.4,9-7.37a48.47,48.47,0,0,1,5.88.53c4.17.55,5.65,2.35,5.56,6.59"/><path class="cls-4" d="M661.58,696.43c5.12,8.7,12.94,10.55,22.08,9.72-.43,2.84-.74,4.93-1,6.88-4.34,2.22-8.36,5.08-13.07,2.38a34,34,0,0,1-6.27-5.28c-.9-.87-1.27-2.28-2.1-3.26-3.89-4.62-3.92-4.59.4-10.44"/><path class="cls-4" d="M709.74,652.31h19.14c.5,4.25,1.63,9.23-3.83,12.52a10.87,10.87,0,0,1-12.88-.81c-3.92-3.3-4.62-6.45-2.43-11.71"/><path class="cls-4" d="M543.05,441.61c-3.52-4.39-1.34-9.14-1.85-13.51-.11-.9,2.12-2.6,3.55-3.05,4.37-1.35,8.93.77,11.76,5.05,2.41,3.64,2,6.18-2,11.51Z"/><path class="cls-4" d="M400.13,353l4.43-5.77,14.71,2.43c2,7.74.21,11.78-5.91,13.67-4.85,1.5-10.12-2.54-13.23-10.33"/><path class="cls-4" d="M484.26,786.77l-9.7-4.7c3.82-5,7.11-10.32,5.95-17.55,4.79,0,8.34,1.6,11.05,5,2.92,3.61,2.74,6.29-.47,9.83-2.17,2.39-4.36,4.76-6.83,7.46"/><path class="cls-4" d="M373.29,467.14c-5.06,5.67-13.88,6.36-18.66,1.39-1.11-1.15-1.54-3.6-1.27-5.28.56-3.46,4.14-6.7,7.05-6.83,4.34-.2,8.28.77,10.54,5a56.24,56.24,0,0,1,2.34,5.76"/><path class="cls-4" d="M588.36,378.18v-6.13c3.77-1.69,7.54-3.32,11.27-5.05,4.88-2.27,10-.3,11.31,4.85.7,2.64.49,5.52.73,8.93-4.49-1-8.19-2.09-12-2.51s-7.36-.09-11.35-.09"/><path class="cls-4" d="M696.76,484.18l-9.45-6.65c.26-2.51.57-5.49.93-8.88H703.9c2.42,2.62,4.27,5.94,2.46,10.2-1.92,4.54-5.73,5.67-9.6,5.33"/><path class="cls-4" d="M372.45,530c-3.14.84-5.93,1.22-8.39,2.33-4.37,2-8.55.6-11.36-4.23-1.82-3.12-.72-7.57,2.45-9.91,3.69-2.72,9.15-2.11,11.7,1.71,2.16,3.22,3.79,6.79,5.6,10.1"/><path class="cls-4" d="M341,458.78c-5.12,0-8.56-2.85-8.53-7,.05-5.27,4.76-9.44,10.54-9.31,5.18.12,7.75,3.27,7.55,9.29-.12,3.7-4.66,7-9.56,7"/><path class="cls-4" d="M351.26,699.06l-10.58-14.59,7.94-6.12c8.48,4.19,11.06,8.07,9.93,14.86-.79,4.7-2.69,6-7.29,5.85"/><path class="cls-4" d="M659.94,412.46V399c6.55-4,9.72-4.24,12.67-.8s2.71,10.48-.41,14-7.35,3.55-12.26.31"/><path class="cls-4" d="M550.81,651.2c-.88-4.67-1.6-8.49-2.37-12.55l4.06-3c4.45-3.34,8.5-2.78,11.77,1.63,3.08,4.15,2.49,8.28-2,11.32-3.45,2.37-7.26,4-11.49,2.61"/><path class="cls-4" d="M651.43,644.63c1-4.51,2-8.85,3.05-13.88.93-.41,2.45-1.18,4-1.72,3.37-1.14,6.62-.8,8.93,2,2.16,2.66,1.43,5.78.2,8.65a11,11,0,0,1-16.22,4.91"/><path class="cls-4" d="M606.27,603.23c.44-11.41,2.94-8.6-5.41-20.43,6.12-1.27,10.72,1.7,14.84,5.15,3.95,3.32,4.58,8.17,2.32,11.84s-5.91,4.81-11.75,3.44"/><path class="cls-4" d="M434.55,761.43a12.22,12.22,0,0,1,11.18,3.9,4.59,4.59,0,0,1,.75,5.94c-2.94,5.58-9.91,8.34-15.67,5.92-3-1.26-3.95-5.23-1.84-8.31,1.72-2.51,3.65-4.88,5.58-7.45"/><path class="cls-4" d="M614.85,402.09c5.24-7.16,1.37-14.49,2.65-21.41a27.89,27.89,0,0,0,.17-3.52l3.07-.27c2.59,5.93,4.81,11.47,7.42,16.83,1.46,3,1.85,5.89,0,8.61-1.77,2.52-4.65,2-7.22,1.62a51.69,51.69,0,0,1-6-1.86"/><path class="cls-4" d="M596.08,620.33c.23,5.4-3.25,7.84-7.31,6.42a48.48,48.48,0,0,0-8-2.2c-4.41-.72-6-3.11-4.37-7.25,2.53-6.56,11.84-7.93,16.79-2.29,1.52,1.73,2.29,4.1,2.94,5.32"/><path class="cls-4" d="M567.21,501.78l9-10.23c3.44.62,7.7,1.05,10.47,5.21,1.74,2.61,2.23,5.24,1,8s-3.86,2.61-6.26,2.38c-5.27-.51-11.17.42-14.16-5.38"/><path class="cls-4" d="M536.1,692.55c-2.59-.43-4.77-.67-6.88-1.17a5.35,5.35,0,0,1-4.41-5c-.29-2.5.65-4,2.7-5.41,5.33-3.69,11.5-3.79,15.61.08,3.84,3.61,3.17,8.4-1.66,10.49-1.75.76-3.81.76-5.36,1"/><path class="cls-4" d="M451.12,342.36c-2.52-1.39-6.19-2.19-7.29-4.32-1.5-2.91.58-6.05,3.06-8.6,3.46-3.55,7.09-4.58,11.73-2.68,4.44,1.83,5.6,5.17,2.95,9.35-1.79,2.83-6.38,5.32-10.45,6.25"/><path class="cls-4" d="M341.29,341.45l8.62,6A4.37,4.37,0,0,1,350,349c-.78,3.21-.21,7.18-5,8-4.11.74-11.52-1.72-13.64-4.87a6.35,6.35,0,0,1,3.44-9.46c2.07-.58,4.21-.86,6.47-1.31"/><path class="cls-4" d="M330.53,530.26c-.2,3.52-.35,6.29-.51,9.18-6.92,3.5-15.37,2.54-20.58-2.64-.82-.81-1.76-2.47-1.44-3.22a4.63,4.63,0,0,1,3.13-2.58,32.91,32.91,0,0,0,12-2.59c1.88-.85,5.05,1.18,7.44,1.85"/><path class="cls-4" d="M483.36,505c4.34,4.33,8.74,6.87,14.19,7.45,2.64.28,3.4,2.55,3.47,4.84.1,2.91-2.56,6.23-5.48,6.43-4.12.27-7.76.12-10.69-4.31-3.05-4.6-4.89-8.51-1.49-14.41"/><path class="cls-4" d="M523.42,798.65c.31-4.15.39-7.61.92-11,.2-1.3,1.56-3.55,2.17-3.48,3.76.45,7.71.89,11.1,2.43,2.46,1.11,2.47,7.2.78,10.37-1.86,3.46-5.2,4.95-9.51,3.89a37.23,37.23,0,0,1-5.46-2.21"/><path class="cls-4" d="M294.14,600.47c-6.86,2.51-10.33,1.37-14.11-4-4.91-7-4-9.85,3.92-13.27,2.78-1.2,5.4-3.23,8.48.33-1.51,5.42-4.58,11.39,1.71,17"/><path class="cls-4" d="M330.29,693.27c5.36-.5,8.62,2.08,11.27,5.35a5.93,5.93,0,0,1-4.2,9.72A14.79,14.79,0,0,1,325,703.58c-2.15-2.2-1.28-4.87-.51-7.38,1-3.39,4.06-2.6,5.8-2.93"/><path class="cls-4" d="M693.76,358.77c6.56-.9,9.74.62,10.93,5.2,1.66,6.42-.08,11.31-4.56,12.78-4.81,1.59-7.57.06-10.28-5.41,1.37-4.41,2.65-8.5,3.91-12.57"/><path class="cls-4" d="M439.4,314.88c-6.13,0-8.66-1.84-8.56-6.31.13-5.44,3.39-9.27,7.92-9.26,5.44,0,10.32,3.8,10,7.95a7.9,7.9,0,0,1-9.38,7.62"/><path class="cls-4" d="M502.28,445.83c-.15,6.81-5.67,11.95-11.87,11.15a5.75,5.75,0,0,1-5.41-4.89c-.74-3.48.69-9,3-9.41,3.54-.63,6.84-2.67,10.79-1.53,2.69.78,3.57,2.19,3.48,4.68"/><path class="cls-4" d="M555.56,629.56a56.41,56.41,0,0,0-2-6.79,46.81,46.81,0,0,0-3.37-5.46c3.35-6.08,9.35-7.06,13.38-2a19.76,19.76,0,0,1,3.89,7.33c1.22,5-2.09,8.17-7.28,7.53l-4.6-.58"/><path class="cls-4" d="M300.23,494.67v11.79c-4.57,2.75-13.07,2.22-16.8-1.25-2.08-1.94-1.69-4.46-.78-6.7,1-2.43,2.33-4.81,5.71-4.26a50.06,50.06,0,0,0,5.8.85,55,55,0,0,0,6.07-.43"/><path class="cls-4" d="M437.11,713.39c4.64,0,8.22,3.36,8.7,7,.44,3.35-1.39,5.17-4.33,6.39-6.08,2.54-9.76,2-13.45-2.25-2.57-3-2.52-5.7.76-7.63,2.93-1.72,6.32-2.67,8.32-3.49"/><path class="cls-4" d="M403.7,535.68c2.13,3.16,3.72,5.9,5.71,8.33,1.54,1.86,2.31,3.62,1.38,5.94a5.85,5.85,0,0,1-5.39,4.1,27.35,27.35,0,0,1-5.83-.6c-2.95-.54-5.39-2-6.44-4.91-1.19-3.36,1.17-5.32,3.32-7.17,2.47-2.1,5.09-4,7.25-5.69"/><path class="cls-4" d="M397.3,589.64c6.2-4.51,11.86-2.62,17.15.87,4.29,2.84,3.79,7-.92,8.77a21.3,21.3,0,0,1-6.94,1.45c-7.78.2-10.27-2.79-9.29-11.09"/><path class="cls-4" d="M378.16,689.73c4.13-4.72,1.59-13.07,10.52-16.27.67,1,1.26,2.61,2.41,3.42,2.85,2,5.27,4.43,4.44,8-1,4.13-4.21,6.5-8.36,7.45a8.82,8.82,0,0,1-9-2.57"/><path class="cls-4" d="M455.36,651.53c-5,5.15-10.72,8.16-18,6.72-5.73-1.13-7.62-3.46-7.79-9.36,0-1.3,0-2.6,0-3.92,3-2,5.45-2,8,1,4.66,5.39,11.13,5.47,17.82,5.6"/><path class="cls-4" d="M620.49,343.35l-10.43,3.81c-2-1.74-4.17-3.5-6.14-5.48s-2.09-4.19.22-6.16c.5-.42,1-.82,1.48-1.28,2.63-2.54,4.84-5.74,9.41-3.45,4.38,2.2,6.33,5.43,6,11.14a5.86,5.86,0,0,1-.52,1.42"/><path class="cls-4" d="M629.53,708.69c1.5-3.14,3.21-6.14,4.37-9.34s3.28-5.22,6.49-5.81c2.1-.38,5.53,3.36,6.55,6.66s.75,6.08-2.05,8.33c-4.23,3.39-10.76,3.39-15.36.16"/><path class="cls-4" d="M678.66,412.69c.19-3.16.3-5.1.41-7,.27-4.5,1.48-6,5.84-7.33,4-1.21,7.77-.09,9.9,3,2.83,4-1.07,11.33-6.87,12.12-2.85.39-5.87-.41-9.28-.72"/><path class="cls-4" d="M735.47,418.46l-6.83-18.31,5.62-4.67c4.4,1.63,8.67,4.47,9.66,10.23,1.15,6.73-4.19,9.34-8.45,12.75"/><path class="cls-4" d="M452.14,793.21A14.31,14.31,0,0,1,440,786.4c-1.37-2-1.18-3.81,1.43-5.29,7.1-4,11.72-3.47,15.76,2.29,1.41,2,2.74,4.08,1.34,6.57a6.1,6.1,0,0,1-6.38,3.24"/><path class="cls-4" d="M464.11,374.35h12c.49,4.73,1,9.19,1.42,13.5-6,2.46-12.08,1.76-15-1.49-2.23-2.45-1.61-7.22,1.57-12"/><path class="cls-4" d="M348.94,518.3c-.54,3.5-2.33,5.15-6.05,5.49-2.69.24-5.33,1.67-7.88,2.81-3.64,1.64-6.71.65-8.48-3-2-4-1.26-7,2.52-8.73,3.28-1.5,6.47-2.78,10.26,0,2.65,1.92,6.39,2.35,9.63,3.45"/><path class="cls-4" d="M333.87,580.33V567.57c5.76-3,9.23-2.2,12.7,2.77.12.18.23.38.34.56,1.55,2.55,4.37,5,2.47,8.23-2,3.45-5.85,3.55-9.38,3.09a36.58,36.58,0,0,1-6.13-1.89"/><path class="cls-4" d="M414.82,413c.22,8.39,3.29,14.64,10.77,17.88-.06.77.05,1.25-.13,1.56-.68,1.12-1.46,2.18-2.2,3.27l-.72-1.47c-3.79,0-7.57-.06-11.36,0-1.29,0-2.66.79-3.85.53-1.78-.38-4.22-.92-4.95-2.21-1.17-2,.87-3.49,2.69-4.47,5.86-3.16,8.3-8.58,9.75-15.12"/><path class="cls-4" d="M345.6,526.94l8.85,10c-.7,3.2-1.45,6.51-6.11,6.63-4.93.14-10.81-2.72-12.19-6.27-1.21-3.12.13-5.73,2.6-7.4,2.06-1.38,4.64-2,6.85-2.92"/><path class="cls-4" d="M684.52,718.24c4.75.6,9.54,4.32,10.05,7.81a9.85,9.85,0,0,1-1.33,6c-1.15,1.94-3.19,1.35-5.2.5a35.34,35.34,0,0,0-7.48-2c-3.07-.55-4.46-2.52-4.94-5.29-.52-3,1.57-4.16,4-5,2-.71,3.9-1.57,4.92-2"/><path class="cls-4" d="M556,701.87c-.4,7.87-4.29,10.34-11.34,7.4-2.78-1.17-5.77-1.86-8.82-2.82a.82.82,0,0,1-.27-.33c-.91-2.86-2.84-6,0-8.53,2.5-2.23,5.34-.24,8,.59,4.12,1.3,8.28,2.47,12.43,3.69"/><path class="cls-4" d="M376.51,646.18a98.67,98.67,0,0,1,19.15-.3c2.18.18,3.29,1.79,3.12,4.19-.39,5.82-6.83,10.29-12.24,8.31a6.05,6.05,0,0,1-2.39-2c-2.36-3-4.61-6.15-7.64-10.22"/><path class="cls-4" d="M334.37,608.38l10.95-13.85c-.46.1.6-.1,1.64-.35,4.63-1.14,9.78,2.1,10.45,6.58a6.11,6.11,0,0,1-6.7,6.91c-2.8-.22-5.59-1.25-8.36-1.14s-5.35,1.2-8,1.85"/><path class="cls-4" d="M698,487.88c1.19.41,2.94.63,3,1.1,1,6.31,5.19,9.82,11.05,12.37-4.4,5.86-8.36,11.38-2.94,18.09l-4.07,4.82-4.21-2.51c.83-1.86,1.69-3.54,2.32-5.31a13.59,13.59,0,0,0-3.15-14.65c-4-4.11-4.29-8.23-2-13.91"/><path class="cls-4" d="M382.71,384.86c-1,6.58-1.71,11.45-2.63,16.28-.53,2.81-2.61,4-5.36,3.64-3.49-.45-7.13-1-8.9-4.59-1.27-2.57.27-4.7,2.06-6.41,3.85-3.7,8.51-6,14.83-8.92"/><path class="cls-4" d="M312,368.35c2.56,3.24,4.25,6,6.58,8.14,2,1.82,2.11,3.61,1.45,5.79-.74,2.48-2.25,4.32-5,4.41a11.61,11.61,0,0,1-10.58-5.31c-1.72-2.62-1.16-5.58,1.06-7.77a79.12,79.12,0,0,1,6.51-5.26"/><path class="cls-4" d="M479,354.67c-1-5.6-1.82-9.78-2.59-13.95,3.73-3,7.18-1.8,10.59.69s5.81,5.89,6,10.3c.13,2.8-1.27,4.64-4.35,4.31-3.38-.36-6.74-.93-9.66-1.35"/><path class="cls-4" d="M495.53,587.76a19.82,19.82,0,0,1-2.58-.2c-3.69-.66-6.24-2.92-6.36-5.54s2.62-6.64,5.31-7.57a16.07,16.07,0,0,1,3.83-.77c6-.54,8.38,1.36,8.6,6.74s-1.93,7.42-8.8,7.34"/><path class="cls-4" d="M330.36,415.67l14.27-2.87a46.62,46.62,0,0,1,3.12,6.1c1.71,4.76-.34,7.68-5.34,8a14.68,14.68,0,0,1-10.35-3.21c-3.18-2.52-3.35-3.65-1.7-8"/><path class="cls-4" d="M723,457.93c-.42-.27-.19-.2-.07,0,1.73,2.43,4.49,4.75,2.75,8.08-1.84,3.54-5.2,5.15-9.19,5.35-2.32.12-4.24-.46-5.57-2.63a59.21,59.21,0,0,0-3.8-5c.68-1.79,1.42-3.77,2.17-5.78Z"/><path class="cls-4" d="M423.31,580.57c-4.09-.33-7-2-8.73-5.42s.48-6.37,2.2-9c1.4-2.19,5.31-2.34,7.65-.61,1.21.9,2.18,2.13,3.33,3.12,2.37,2,5,4.19,3.52,7.65s-5,3.76-8,4.31"/><path class="cls-4" d="M615.33,772.87a34.91,34.91,0,0,1,4.89,2.41c4.06,2.75,4.81,7.51,1,10.5-2.55,2-6.26,2.76-9.58,3.43-3,.61-6.21.22-7.72-2.68l11.42-13.66"/><path class="cls-4" d="M411.61,704.93c-3.52-.09-10.44-5-11.63-8.21-1.09-3,1.84-7.74,4.75-7,4.31,1.08,9.15,1.8,11.87,6a9.83,9.83,0,0,1,1.4,4.86c.11,3.5-1.48,4.46-6.39,4.34"/><path class="cls-4" d="M519.23,777.64c1.46-4.57,2.76-8.68,4.23-13.31a12.16,12.16,0,0,1,10.81-.22,4.5,4.5,0,0,1,2.34,3.31c-.28,7.93-9.53,13.45-17.38,10.22"/><path class="cls-4" d="M528.35,737.94a34.66,34.66,0,0,1,2.88-3.26c2.58-2.32,5.46-3.62,9-2.1,3.19,1.37,4.55,3.85,4.65,7.23.12,4.06-1.15,7.24-4.94,9.2-2.4,1.24-4.26.72-5.64-1.41-2-3.07-3.84-6.23-5.93-9.66"/><path class="cls-4" d="M364.08,391.5c-2.79,4-5.14,7.67-7.75,11.11a5.89,5.89,0,0,1-8.61,1.29c-2.43-1.76-2.44-4.86-.32-8.15,2-3.05,3.69-6.26,5.62-9.56l11.06,5.31"/><path class="cls-4" d="M295,606c1.55.8,3,1.64,4.58,2.37,6.45,3,7.17,4.35,6,11-.65,3.61-2.17,4.76-5.89,4.25-4.19-.57-7.32-2.61-8.79-6.78-1.65-4.69.39-8,4.13-10.83"/><path class="cls-4" d="M539.72,481.1c-8-.2-8.38-.49-8.14-7.07a25.15,25.15,0,0,1,1.23-6.34,4.5,4.5,0,0,1,2-2.45c2.55-1.41,10.83,2.74,12.15,5.94s-.89,8.22-4.64,9.59a7.31,7.31,0,0,1-2.56.33"/><path class="cls-4" d="M436.64,480.12c-3.28,4.57-6.94,7.73-12.68,6.92-4.81-.68-6-3.18-3.54-7.24,4-6.71,4.11-7.39,2.5-15.37a9.9,9.9,0,0,1,1.83-.37,14.82,14.82,0,0,1,2.28.39c-.3,7.17,2.54,12.65,9.61,15.67"/><path class="cls-4" d="M396.78,356.38l9.55,11.13c-2.64,4.06-4.76,4.89-10.3,3.69-5.88-1.27-9.73-4.59-10.56-11.09l11.31-3.73"/><path class="cls-4" d="M335.55,360.88l16.49.87c.08.12.32.31.31.48-.31,3.66,1.43,8.13-3.3,10.21s-9.43.45-13.62-1.93c-1.07-.61-1.64-2.92-1.6-4.43s1-3.26,1.72-5.2"/><path class="cls-4" d="M318.79,492.07c1,1.57,2,3,2.79,4.52,2.29,4.17,1.82,7.73-1.25,10-2.32,1.68-9,.73-10.91-1.8a21.62,21.62,0,0,1-3.06-5.65c-1.22-3.43.58-6,4.2-6.3,2.56-.25,5.13-.46,8.23-.73"/><path class="cls-4" d="M382.69,618.53c.55-2.28,1.06-4.36,1.51-6.19,6.35-4,11.92-2,17.36,1.21a6.11,6.11,0,0,1,2.36,7.44c-.95,2.17-4,3.14-6.78,2-2.43-1-4.7-2.41-7.18-3.2a52,52,0,0,0-7.27-1.26"/><path class="cls-4" d="M584.78,543.5l-5.13-7.32a48.12,48.12,0,0,0,5.68-4.77,54.29,54.29,0,0,0,4.39-6.53c4.71.09,8.88,3.46,8.87,7.71a5.11,5.11,0,0,1-2,3.59c-3.7,2.54-7.62,4.75-11.86,7.32"/><path class="cls-4" d="M491.15,417.75c5.24,8.12,5.13,12.51-.2,17.75a5.47,5.47,0,0,1-9.23-2.52c-1.63-5.76,3-13.44,9.43-15.23"/><path class="cls-4" d="M339.85,658.74l2.73-6.41h10.88c.9,4.15,1.75,8.14,2.64,12.13.48,2.17.2,4.12-2.19,4.77-2.13.59-4.18.57-5.9-1.55-2.45-3-5.26-5.8-8.16-8.94"/><path class="cls-4" d="M378.79,614.82c-3.36,5.18-7.24,7.09-12.41,6.12-6.24-1.18-8-2.82-9-8.3,8.52-5.71,15.84-5,21.42,2.18"/><path class="cls-4" d="M429.47,546.66a93.7,93.7,0,0,1,7.62,6.38c3.36,3.46,2.49,6.4-2.11,7.66-4.08,1.12-8.17,1.65-11.9-1.14s-3.82-7.17,0-9.79a43.5,43.5,0,0,1,6.4-3.11"/><path class="cls-4" d="M667,596.45c2.16-5.77.89-11.07-2.9-16l17.63,2c.83,9.92-5,15.79-14.73,14"/><path class="cls-4" d="M489.81,717.3c-3.85-1-7.27-1.64-10.43-2.9-1.77-.71-3.12-2.49-4.51-3.65,4.14-2.52,7.73-4.58,11.19-6.83,2.39-1.55,7.55-1.76,9.26.12,2.22,2.47.85,4.91-.57,7.21a33.88,33.88,0,0,1-2.57,3.81,22.19,22.19,0,0,1-2.37,2.24"/><path class="cls-4" d="M454.11,581l-11.93-6.68L439.84,565c5.05-3.49,8.93-2.2,15.7,5.32,3,3.33,2.65,6-1.43,10.7"/><path class="cls-4" d="M359.58,701.5c8.07-7,14.2-7.45,21.64-1.67-.2,3.18-2.1,5.52-4.48,7.46-3.11,2.54-6.26,2.39-9.47-.08-2.41-1.86-4.89-3.64-7.69-5.71"/><path class="cls-4" d="M447.55,612.89a30.54,30.54,0,0,1,0-4.59,7.17,7.17,0,0,1,7.54-5.86c4,.39,6.56,3,5.7,7.22a16.61,16.61,0,0,1-4.28,8.44c-1.46,1.39-5,1.44-7.28.9-3.4-.78-1.73-3.86-1.72-6.11"/><path class="cls-4" d="M318.48,662.08c-6.77,3.72-13.17,3.08-17.22-1.64-2-2.38-2.86-5-1-7.78s4.53-2.13,7.08-1.22a37.36,37.36,0,0,1,6.61,2.77c2.88,1.72,5.21,4,4.56,7.87"/><path class="cls-4" d="M358.58,570c1.85.52,4.26.57,5.74,1.77a26.44,26.44,0,0,1,6.37,7.26c1.42,2.53-.74,6.53-3.73,7.42-4.35,1.28-8.58,1.08-11.7-2,1.15-5,2.16-9.39,3.32-14.46"/><path class="cls-4" d="M550.86,814.05c-5.51,0-8.11-2.52-7.38-7.34a4.94,4.94,0,0,1,.89-2.33c3-3.66,11.38-4.59,15.18-1.76,2.68,2,3.1,4.15,1,6.69a12.31,12.31,0,0,1-9.69,4.74"/><path class="cls-4" d="M399.75,634.16c-4.09,5.88-11,8.22-17.18,6a5.21,5.21,0,0,1-2.85-7,6.61,6.61,0,0,1,6.67-4.37c5,.24,9.86,1.3,13.36,5.42"/><path class="cls-4" d="M386.83,699.88c9.24-2.51,11.78,5.16,16.82,8.63-3.65,5.57-5.45,6.31-10.78,4.59a31.71,31.71,0,0,1-3.62-1.5c-4.25-2-4.87-3.13-3.83-7.58a42.73,42.73,0,0,1,1.41-4.14"/><path class="cls-4" d="M493.4,732.67c1.3-3.86.15-8.55,4.85-11.21,1.81-1,2.94-3.49,5.5-2.16,2.95,1.53,5.75,3.41,5.77,7.25,0,3.42-1,6.43-3.89,8.38l-12.23-2.26"/><path class="cls-4" d="M581.1,215.75c.55.5.87.7.84.77-4.48,12.46-.2,23.65,5.3,34.51,2.46,4.85,5.7,9.31,8.57,14a8.53,8.53,0,0,1,1.62,5.15c-1.27-.87-2.82-1.51-3.76-2.66a74.08,74.08,0,0,1-16.29-33.92c-1.16-6.24-.57-12.45,3.72-17.81"/><path class="cls-4" d="M440.3,585.72a42.88,42.88,0,0,1,5.63,3c2.09,1.47,3.55,4,2.06,6.24a9,9,0,0,1-5.64,3.65c-2.45.32-5.11-.81-7.64-1.42-3.34-.81-4.61-3.3-4.36-6.41.28-3.43,2.63-4.78,5.92-4.75.87,0,1.74-.14,4-.35"/><path class="cls-4" d="M400.65,441.37,398,445.93c-4.44-.34-8.15-1.53-10.74-5.38-2.44-3.63-2.54-5.78-.66-9.07s4.64-2.46,7.41-1.8l1.71.42c1.59,3.65,3.11,7.17,4.9,11.27"/><path class="cls-4" d="M293.72,558.81c-1.55,6.15-4.65,8.83-10.29,9-4,.14-7.22-2.19-8.51-6.73a4.55,4.55,0,0,1,5.29-6.1c4.42.94,8.72,2.42,13.51,3.82"/><path class="cls-4" d="M467.91,574.54c-1.18-3.55-2.52-6.53-3.09-9.66a6.62,6.62,0,0,1,1.36-5.11c.81-.83,3.46-.86,4.67-.17,4.44,2.54,8.47,5.62,8.22,11.6-.14,3.41-1.35,4.66-4.8,4.64a24.13,24.13,0,0,1-4.56-.44,6.13,6.13,0,0,1-1.8-.86"/><path class="cls-4" d="M443.9,433.74c-.79,4.73-1.43,8.55-2.1,12.51-5.31,1.8-9.43-1.06-13.31-3.58-2.82-1.84-1.57-7.51,2.15-8.41,4.15-1,8.66-2.17,13.26-.52"/><path class="cls-4" d="M411.6,622.88c.15,13.1.15,13.1,5.41,19.19-3.76,3.58-10,4-13.14.59a5.64,5.64,0,0,1-1.08-4.07c.45-3.36,1.34-6.66,2.18-10.62l6.63-5.09"/><path class="cls-4" d="M581.12,643.44a55.06,55.06,0,0,1-5.66-1.07c-3.42-1-4.6-3.32-3.88-7.08.69-3.57,2.13-4.83,6-4.26a29,29,0,0,1,9.27,2.53c4.12,2.16,4,5.47,0,7.92-1.78,1.08-4,1.41-5.66,2"/><path class="cls-4" d="M618.16,460l8.21-11.75a8.25,8.25,0,0,1,8.46,3.78c2.93,4.23,2.06,8.08-2.87,9.82s-9.85,1.91-13.8-1.85"/><path class="cls-4" d="M643.3,687.8c1.12-2,2.29-4.06,3.44-6.13,1.79-3.23,5-4.19,8.2-2.42,2.74,1.53,5.58,6.56,4.82,9.51a6.5,6.5,0,0,1-3.1,3.78c-4.76,2.35-10,.38-13.36-4.74"/><path class="cls-4" d="M480.16,372.81c.11-.22.6-2.42,1.4-2.54,2.23-.35,5.13-.6,6.78.53a16.79,16.79,0,0,1,5.65,7,7.68,7.68,0,0,1-.83,6.51c-.87,1.15-4,1.31-5.84.86-5-1.24-7-4.72-7.16-12.35"/><path class="cls-4" d="M361.07,476.14c12.37-.31,15.85-3,18.47-13.82,4,.37,1.93,3.42,2.39,5.28.51,2.07,1.09,4.13,1.7,6.45a29.31,29.31,0,0,0-3,4c-1.38,2.54-3.5,2.87-6.05,2.79-4.09-.12-8.18,0-12.93,0-.15-1.25-.34-2.79-.57-4.64"/><path class="cls-4" d="M608.33,632.12c4.47-6.68,15-7.77,19.91-2.3,2.1,2.36.3,6.44-3.48,7.39-6.49,1.65-11.86-.45-16.43-5.09"/><path class="cls-4" d="M419.12,714.31c-.3,2.61-.68,4.54-.71,6.48-.05,3.2-2.09,5.3-4.68,5.34-3,0-6.13-1.3-9.13-2.27-.41-.13-.65-1.58-.58-2.38.34-3.91,2-7.16,5.49-9.11s6.63-.58,9.61,1.94"/><path class="cls-4" d="M555.34,534.77h-6l1.1-1.21-8.27-8.18c4.14-4.62,9.82-6.69,13.35-4.16,3.11,2.23,3.15,7.44-.21,13.55"/><path class="cls-4" d="M309.75,427.26c-.24,2.4-.37,3.89-.55,5.37-.73,6.09-2.72,7.41-8.66,5.73-.62-.18-1.22-.43-1.84-.67-4.23-1.67-6.13-3.74-5.67-6.17s4-5.77,7.22-5.76,6.19.94,9.5,1.5"/><path class="cls-4" d="M420.93,519.91c-1.32-3.16-4.18-6.13-.29-9.81,5.14,2.39,10.61,4.39,16.68,3.71,1-.11,2.86.94,3,1.7a5,5,0,0,1-1.09,4C436.37,522,433,523.27,429,522c-2.48-.77-5-1.33-8.09-2.12"/><path class="cls-4" d="M320.93,588.35c6-.29,8.75,4.33,12.61,6.9,2.3,1.54,1.45,3.83-.36,5.62-3.61,3.55-9.26,3.25-15-.93.51-1.78,1.13-3.61,1.57-5.48s.76-3.85,1.19-6.11"/><path class="cls-4" d="M643.58,721.59l-3-5.19c3.38-2.22,6.64-4.63,10.16-6.57,1.55-.85,3.93-1.49,5.39-.9s2.37,2.77,2.93,4.46a9.62,9.62,0,0,1-.09,4.55c-.53,2.68-2,4.09-5.08,3.73s-6.46-.08-10.35-.08"/><path class="cls-4" d="M400,516.42l9.82.49c.66.71,1,1,1.21,1.34,2.94,6.51,1.59,9.56-5.33,11.17-2.84.66-6,1.59-8.88-1.41,1-3.57,2-7.28,3.18-11.59"/><path class="cls-4" d="M550,745.52l14.64-8.6c3.91,1.73,5.35,3.64,4.67,6.65-.9,4-4.45,7.29-8,7.1-4.29-.22-8.74-.42-11.27-5.15"/><path class="cls-4" d="M378.56,571.15c7.36-1.46,11.9,1.7,12.31,9.12.21,3.68-1.79,6.1-5.11,6.2-4.52.13-7.11-1.81-7.18-5.51-.07-3.22,0-6.45,0-9.81"/><path class="cls-4" d="M303.42,583.66c4.38.08,8.07,4.19,7.89,8.8a6.18,6.18,0,0,1-6.13,5.61c-4.53,0-8.71-4-8.58-8.14.11-4,2.68-6.35,6.82-6.27"/><path class="cls-4" d="M619.18,300.7c-2.48-1.07-3.95-1.45-5.12-2.26-10.53-7.25-20.31-15.4-28.52-25.24-3.67-4.38-6.66-9.26-6.25-15.56,6.54,15.84,20,25.23,32.51,35.54,2,1.68,4.1,3.31,6.12,5,.3.25.39.76,1.26,2.52"/><path class="cls-4" d="M505.58,569.68l4.36-5.8c3.13,1.61,6.14,3.29,9.26,4.74,3.73,1.73,4.77,5.14,2.15,8.3-2.39,2.9-5.33,4.56-8.35,3-2.75-3.77-5-6.88-7.42-10.21"/><path class="cls-4" d="M320.47,639.22c-5.05-.52-8.47-2.6-10.53-6.55-1.72-3.33-.38-5.35,3.33-5.61,5.06-.36,9.3,1.89,13.41,4.26a3.21,3.21,0,0,1-.05,5.77,42.1,42.1,0,0,1-6.16,2.13"/><path class="cls-4" d="M423.09,587.35c4.24,1.61,1.39,4.38,2.08,6.22.75,2,1.19,4.17,1.93,6.87-2.37,2.24-4.91,4.9-7.72,7.22s-1.46,7.13-4.86,9.1l-6.94-11.21c3.66-1.38,8.32-2.49,12.28-4.8,4.83-2.8,3.38-8.25,3.23-13.4"/><path class="cls-4" d="M304.14,630a52.27,52.27,0,0,1,1.77,6.68,47.73,47.73,0,0,1,.07,6.44c-5,2-9.23,1.54-11.48-1.32-2.13-2.7-1.91-5.84-.68-8.74,2-4.64,6.11-3.18,10.32-3.06"/><path class="cls-4" d="M298.63,562.59c2.35,2.63,4.93,5.17,7.09,8a3.36,3.36,0,0,1-1.53,5.44,30.69,30.69,0,0,1-10.05,1.85c-1.36,0-3.33-2.13-3.88-3.7-.4-1.12.84-3.11,1.8-4.37,1.69-2.21,3.72-4.16,6.57-7.26"/><path class="cls-4" d="M686.33,481.58c2.87,2.45,6.1,4.66,5.83,9.31-.22,3.89-1.6,5.69-5.52,5.79a19.55,19.55,0,0,1-7.59-1.11c-2.8-1.14-3.09-4.44-1-6.41,2.67-2.49,5.38-4.93,8.27-7.58"/><path class="cls-4" d="M640.38,459.83c0-9.65-4.52-15.49-15.84-16.27l-2.48-6.24c6.64,4,12.3,6.6,18.87,5.81a1.79,1.79,0,0,1,1.2.39c3.4,2.74,4.08,6.7,4.18,10.64.09,3.33-2.34,4.84-5.93,5.67"/><path class="cls-4" d="M527.77,805.28H536c4,5.18,4,7.69,0,11.17-3.07,2.71-7.63,2.94-10.08.5s-1.6-7.23,1.81-11.67"/><path class="cls-4" d="M340.13,555.73c-3.75,2.16-6.07,3.79-8.62,4.88-2.84,1.22-7.3-.36-8.71-2.81-1.59-2.77-.14-5.16,1.5-7.19,1.33-1.66,3.19-2.89,5.08-4.54l10.75,9.66"/><path class="cls-4" d="M304.65,672.91c5.37-1.77,9.62.26,13.78,1.76a5.72,5.72,0,0,1,3.16,7c-1,2.71-4.7,4.57-7.61,3.14-4.71-2.3-8.88-5.38-9.33-11.94"/><path class="cls-4" d="M550.7,737.36c-3.5-5.39-7.83-8.73-15.05-9.73,5.15-1.36,8.85-2.36,12.56-3.29a7.62,7.62,0,0,1,2.6-.21c3.11.33,6.48.76,7.62,4.16,1.22,3.67-1.88,5.44-4.32,7.27a28.48,28.48,0,0,1-3.41,1.8"/><path class="cls-4" d="M315,549.26c-.43,3.13-.9,6.53-1.37,9.91-9.07,2-14.13-7.07-10.41-16.83L315,549.26"/><path class="cls-4" d="M331.19,614.73c-3.39,5.21-4.58,5.36-15.09,1.9-1.09-4.31-2.17-8.58-3.42-13.49,6,4.51,14.8,3.69,18.51,11.59"/><path class="cls-4" d="M650.54,559.93l6.26,2.54v11.61L644.09,578l-3.46-5.65c5.74-2.27,9.58-5.78,9.91-12.37"/><path class="cls-4" d="M599.19,628.77c4.13-6.39,1.89-11.74-1.46-17.19l4.6-2.87c4.45,3.7,9,7,7.24,13.55-1.35,5-4,6.6-10.38,6.51"/><path class="cls-4" d="M295.9,539.45c-.77,3.41-1.51,6.75-2.28,10.2-6.2,1.11-9.76-2.36-12.87-6.43-2.07-2.71-1.3-5.33.95-7.54l14.2,3.77"/><path class="cls-4" d="M661.94,751.22c-.72,3.44-2.21,5.91-5.81,6.26-4.21.4-8.36,0-11.69-2.9-2.34-2-.43-6.92,3.25-7.28,5.08-.49,10.5-.87,14.25,3.92"/><path class="cls-4" d="M596,553.06c-4.41,0-8.16-1.72-8.41-3.76s3.24-6.8,6.05-8.16c3.37-1.63,9.9,1.74,10.5,5.42s-3.22,6.56-8.14,6.5"/><path class="cls-4" d="M419.66,648.57a15.3,15.3,0,0,1,2.94,2.82c1.93,3,.11,7.42-3.39,7.34a42.12,42.12,0,0,1-12-2.42c-2.43-.8-2.3-1.51-2-6.72l14.41-1"/><path class="cls-4" d="M632,403.88c.8.51,1.28.65,1.51,1,1.57,2.14,4.69,3.84,2.23,7.21-1.83,2.52-6.45,3.5-9.53,2.07a2.14,2.14,0,0,1-.55-.35c-4.47-4.12-9.64-5.76-15.6-3.89-.46-5.35.41-6.18,4.31-4.66a35.49,35.49,0,0,0,4.2,1.75c5,1.24,10,1.66,13.43-3.11"/><path class="cls-4" d="M498.9,794.48a27.62,27.62,0,0,1-4-.84c-3-1.06-3.7-2.76-2.11-5.5a23.68,23.68,0,0,1,2.84-3.57c3.66-4.21,5.7-4.31,9.57-.6,1.81,1.75,3.19,3.6,2.25,6.33s-2.94,3.64-5.46,4c-.86.13-1.74.11-3.13.18"/><path class="cls-4" d="M323.8,395.24c3.9,1.58,6.45,2.91,9.16,3.64a55.6,55.6,0,0,0,7.74,1c1.65,6.2-.27,8.85-6.13,8.67-5.2-.16-8.57-3.22-10.89-7.36-.75-1.34,0-3.54.12-6"/><path class="cls-4" d="M370.11,560.14,372,553c9.29-1.75,10.83-.8,14.16,8.34-5.62,4.28-11.09,3.94-16.06-1.16"/><path class="cls-4" d="M464.33,447.21c-7.52,3.27-14.46.85-16.93-5.31-1.07-2.66.5-5.61,4.38-8.22,4.12,6.53,4.12,6.53,11.62,8.5.28,1.49.58,3.14.93,5"/><path class="cls-4" d="M481.54,525.92c-12.08,6.56-13.94,6.6-18.27,0a18.06,18.06,0,0,0,13.23-12.6l5,12.62"/><path class="cls-4" d="M564.26,580.92c-1.66,0-2.1,0-2.53,0-2.69-.17-5.52-.28-6-3.73-.43-2.85,2-5.6,5.47-6.34a22.35,22.35,0,0,1,5.87-.5,5.46,5.46,0,0,1,5.52,5.4c.26,3.57-2.12,4.45-4.92,4.86-1.52.22-3,.29-3.37.32"/><path class="cls-4" d="M445.62,753.27l11.62-4.39c2.65,1.24,6,2.45,5.79,6.44-.1,2.3-5.55,5.7-8.73,5.95-5.05.4-8.07-2.34-8.68-8"/><path class="cls-4" d="M524.81,580.82c.63-3.8,1.21-7.35,1.86-11.31a31.52,31.52,0,0,0,3.89-1.24c3.12-1.4,5,.19,6.62,2.52a6.17,6.17,0,0,1-.65,7.83c-3.43,3.54-7.39,4.27-11.72,2.2"/><path class="cls-4" d="M332.24,480l5.6,4.28c-2.84,5.21-2.62,10.07,2.24,14.25-3.37,1.74-5.65.14-7.5-1.55a32.9,32.9,0,0,1-5.94-7,5.22,5.22,0,0,1,.13-4.65c1.26-1.94,3.34-3.36,5.47-5.36"/><path class="cls-4" d="M396.71,560c3.07,0,5.68-.11,8.27,0,3.58.19,4.54,1.47,4,5a8.09,8.09,0,0,1-10.23,6.39c-2-.57-3.67-1.93-5.52-2.94,1.36-3.32,2.44-6,3.44-8.44"/><path class="cls-4" d="M333.79,637.55c3.47-1,5.88-1.77,8.35-2.28,3.71-.75,9.09,3.23,9.74,7,.53,3.14-1.66,5.47-5,5.09-5.95-.68-9.34-4.83-13.09-9.85"/><path class="cls-4" d="M295.78,478.76c.71,3.09,1.34,5.81,2,8.7-3,3.71-6.75,3.2-10.63,1.77s-4.8-5.29-2.25-8.34c2.42-2.89,6.21-3.69,10.88-2.13"/><path class="cls-4" d="M520.2,735.2c-.88-.52-3.52-1.18-4.23-2.72s.27-4.1,1.28-5.74a7.86,7.86,0,0,1,10.28-2.82c1.92.89,4.21,1.83,3.51,4.68-.75,3.11-6.14,6.73-10.84,6.6"/><path class="cls-4" d="M427.58,688.87c4.76,1.67,7.78,4,9.41,7.87,1.4,3.32-.2,6.11-3.75,6.76-5.92,1.08-10-3.17-8.46-8.93.49-1.82,1.67-3.46,2.8-5.7"/><path class="cls-4" d="M356.22,560.09c-7-.26-9.14-2.48-8.21-7.41.87-4.62,4.51-6.32,8.64-3.91a18.46,18.46,0,0,1,3.51,2.8c1.51,1.49,3.92,3.27,2.31,5.41-1.21,1.61-3.89,2.13-6,3.08-.36.17-.86,0-.3,0"/><path class="cls-4" d="M601.17,753.47c2.27-1.84,4.23-3.5,6.27-5,2.55-1.94,5.11-.8,7.24.6,2.46,1.62,4.31,4.42,3.21,7.21-.83,2.13-3.44,3.56-5.07,5.12l-11.65-7.89"/><path class="cls-4" d="M665,717.85l5.8,2.35c.67,3.42,1.3,6.72,2,10.27l-10.17,3.85c-4.49-6.15.12-10.88,2.38-16.47"/><path class="cls-4" d="M444,498.3c-1.57,1.42-3.18,2.78-4.69,4.26-3.32,3.27-7.15,2.85-11,1.39-2.69-1-3.09-2.95-1.43-5.17,4.8-6.45,11.39-6.65,17.09-.48"/><path class="cls-4" d="M352.33,631.38c8.06-.79,14.19-.29,18.58,5.79-1.82,4.77-6,4.66-9.83,4.59-6.63-.12-4.82-6.84-8.75-10.38"/><path class="cls-4" d="M544.84,784.68c4.68,1.39,9.69-.52,13.65,3-.63,6.88-1.09,7.34-7.55,7.63-1.09.05-2.16.21-3.25.3s-2.05.13-3,.2a6.22,6.22,0,0,1-.49-1.58c.16-3,.38-6,.61-9.55"/><path class="cls-4" d="M370.7,535.14l12.68,7.17c-5.23,4-10.21,5.16-15.73,3.58-3.66-1-4.38-3.38-1.93-6.44,1.43-1.78,3.5-3.06,5-4.31"/><path class="cls-4" d="M567.11,805.94l-6.68-9.27c.22-.44.54-1.21,1-1.93,1.17-2,2-4.66,5.14-4.1,3.29.6,5.29,2.78,6.36,5.87.93,2.69.89,5.18-1.74,7-1.41,1-2.91,1.79-4,2.47"/><path class="cls-4" d="M482.4,733.26l-7.46-1.51,5-13.64a8.11,8.11,0,0,1,8.12,5.62c1.48,4.44-2.94,6.62-5.62,9.53"/><path class="cls-4" d="M412,504.63c-.8,6.46-2.31,7.5-8.79,6.67-6.64-.85-8-2.52-7.1-8.51,5.88-5,10.37.81,15.89,1.84"/><path class="cls-4" d="M412.81,483.2c2.29,5.66,2.29,5.66,8.64,10.42-1.08,1.78-2.16,3.58-3.31,5.47-5-1.14-10.1-1.75-11.08-7.7-.7-4.26,1.95-6.74,5.75-8.19"/><path class="cls-4" d="M533.22,587c3-3.11,5.69-5.89,8.4-8.63a4.74,4.74,0,0,1,8.18,2.2c.44,2-.12,4.18-.23,6.26-3.39.46-6.27.48-8.9,1.31s-5.1,1-7.45-1.14"/><path class="cls-4" d="M651.56,322.68c5.45-.24,10.05,2.8,10,7.76,0,2.34-1.64,4.92-3.19,6.86-1.14,1.44-3.35,2-5.28,3.11-.55-6.49-1-12.11-1.49-17.73"/><path class="cls-4" d="M515.92,527.3c-6.72,3.61-15.23,0-20.49,7.74l-4.55-6.54c5.67.09,10.8-2.49,15.73-6,2.52-1.78,5.88.18,9.31,4.77"/><path class="cls-4" d="M328.55,668.18c6.09-2.54,11.37-1.41,14.38,2.76,1.94,2.7-.51,7.2-4.21,7.73a7,7,0,0,1-7.47-4.09c-.95-1.94-1.69-4-2.7-6.4"/><path class="cls-4" d="M539,723.48c-3.63-.1-6.73-2.94-6.43-5.91.27-2.75,3.47-5.49,6.41-5.5,4.08,0,8.24,3.2,8,6.15s-3.91,5.36-8,5.26"/><path class="cls-4" d="M560.58,755.77c-.37,1.22-.75,2.44-1.09,3.55-.61.16-1.1.47-1.38.34-6.34-3-12.78-4.35-19.66-1.79-1.3.48-2.88.19-5,.29.64-2,1.08-3.33,1.7-5.24,5.06,1.55,9.69,1.22,12.37-2.94l13.1,5.79"/><path class="cls-4" d="M350.83,511.6c-3.1-.76-5.22-1.24-7.33-1.8s-3.71-2.24-2.92-4.31c.68-1.81,2.44-4.29,3.94-4.45a16.3,16.3,0,0,1,8.09,1.7c1.89.86,3.75,3,2.33,5.36-.95,1.59-2.94,2.55-4.11,3.5"/><path class="cls-4" d="M336.51,619.56c3.39-2,6.35-4.6,10.56-4.41,3.89.17,6.7,2.29,6.51,5-.25,3.56-3.58,5.81-7.59,4.81-3.48-.87-7.35-1.26-9.48-5.35"/><path class="cls-4" d="M338.33,651.68c-1.91,4.8-4.71,5.67-8,5.69a4.4,4.4,0,0,1-4.59-2.93c-1.17-2.79-2.75-5.4-4.29-8.33,2.92-3.45,5.61.12,8.25,1.09,2.94,1.09,5.61,2.89,8.59,4.48"/><path class="cls-4" d="M314.69,578.22q.58-4.89,1.14-9.66c3.63-.55,9.24,2.35,9.78,5,.63,3.08-.91,6.7-3.36,7.9-3.76,1.86-5.64-.69-7.56-3.19"/><path class="cls-4" d="M377.93,486.52c.78,2,1.61,3.36,1.85,4.83.43,2.7-.77,4.67-3.56,5.27a11.36,11.36,0,0,1-3.9.17c-2.48-.33-5.61,0-5.66-3.88-.05-4.37,2.64-7.37,6.55-7.2a38.65,38.65,0,0,1,4.72.81"/><path class="cls-4" d="M321.4,515.24a55.54,55.54,0,0,1-3.9,5.92c-2.59,3-5.92,1.33-8.54.31a12.6,12.6,0,0,1-5.47-5.05c-.41-.68,1.65-2.9,2.05-3.55l15.86,2.37"/><path class="cls-4" d="M461.55,395.9l13.81,2.6c.31,4.5-3.35,6.5-6.37,7.78-1.7.72-5-.9-6.85-2.4-2.59-2.14-2.92-5.18-.59-8"/><path class="cls-4" d="M404.27,476.07l11.54-10.6c4,3.3,5.14,6.81,3,10-2.49,3.65-8.06,4-14.5.61"/><path class="cls-4" d="M565.17,358.52c2-6.32,5.12-9.46,8.88-9.1s5.64,3.26,6.26,10.18l-15.14-1.08"/><path class="cls-4" d="M474.15,692.51a15.08,15.08,0,0,1,2.23.22c4.3,1.12,6.2,3,6,5.76-.24,3.47-3.05,6.08-7.19,6.4a54.08,54.08,0,0,1-6.17-.24c1.77-4.19,3.36-7.93,5.13-12.14"/><path class="cls-4" d="M381.63,412.13c-.16.91.09,2.95-.78,3.74-4.09,3.7-15.29,1.61-18.08-3.21-.47-.82-.35-2-.53-3.07l19.39,2.54"/><path class="cls-4" d="M550.76,538.66c7.56,1.39,9.26,5,6.24,13.55l-10.57-1.83c1.38-3.73,2.76-7.5,4.33-11.72"/><path class="cls-4" d="M568.64,649.25l2.38-4.54c3.32,1.48,6.54,2.66,9.5,4.29,5.08,2.81,5.32,6.68.6,11.82-2.47-5.65-6.79-9.27-12.48-11.57"/><path class="cls-4" d="M350.37,496.18a91,91,0,0,1-8.45-4.36c-.72-.47-1.07-2.51-.67-3.43a3.93,3.93,0,0,1,3-1.84,37.4,37.4,0,0,1,7.74.94c2.48.55,4.56,1.93,4.1,4.9s-2.62,3.74-5.72,3.79"/><path class="cls-4" d="M560.14,700.89c5.74-6.44,9-12.39,3-20l5.63-1.15,5.94,8.11c-6.47,1.8-9.31,6.14-8.14,13.09Z"/><path class="cls-4" d="M506.8,798.93c2.42-4.72,4.16-8.13,6.11-11.95,2.68-.28,5.82-.72,7.44,2.81,1,2.24-1.41,6-5.08,7.5-2.32.93-5,1-8.47,1.64"/><path class="cls-4" d="M377.28,366.87l3.93-2.23c2.83,4.72,6.34,8.88,4.57,14.55-.4,1.29-2.69,2-4.46,3.22-1.43-5.52-2.61-10.05-4-15.54"/><path class="cls-4" d="M483.41,441.84a33.84,33.84,0,0,1-2.26,3.08c-3.74,4-5.44,3.9-8.89-.41-1.41-1.76-2.95-3.48-.86-5.72a5.46,5.46,0,0,1,7.37-.37c1.38,1,2.78,2.05,4.64,3.42"/><path class="cls-4" d="M400.57,666.06c-1.42,4-4.25,4.69-7.05,4.06a25.92,25.92,0,0,1-8.72-3.64c-1.28-.88-.91-3.56,1.45-3.85a19.79,19.79,0,0,1,7,.38c2.46.61,4.73,1.94,7.29,3"/><path class="cls-4" d="M375.87,659.4c-4.19,4.68-6.93,5.83-10.09,3.71a6.39,6.39,0,0,1-2.6-4.55c0-1.12,2-2.93,3.35-3.23,3.71-.84,7.41-.68,9.34,4.07"/><path class="cls-4" d="M463.75,361.2c5.51-.11,8.29.91,12.74,4.44-1.73,3.63-3.64,4.68-7.26,4.19-5-.67-4.88-4.65-5.48-8.63"/><path class="cls-4" d="M522.41,584.74c3,.72,6.47-.48,7.18,3.26.58,3,7.12,3.91,2.48,8.75l-7.71-1.49c-.6-3.25-1.18-6.38-2-10.52"/><path class="cls-4" d="M572.52,747.06c.31-3.26.58-6,.9-9.45l8.16.9v9.82l-9.06-1.27"/><path class="cls-4" d="M329.54,356c.63,1.1,1.77,2.17,1.59,2.94a53.32,53.32,0,0,1-3.33,11c-.92,1.94-3.07.82-4.31-.59-2.24-2.57-1.71-7.68,1-9.84,1.17-.94,2.47-1.72,5.05-3.48"/><path class="cls-4" d="M661.49,340.51l8.16-4c5.48,4.27,5.49,6.78-.41,12.15l-7.75-8.13"/><path class="cls-4" d="M596.12,784.12c3.25,1.1,4.29,4.3,5.35,7.46-4.86,4.29-6.78,5.1-12.08,5.25,2.08-3.94,4.19-7.92,6.73-12.71"/><path class="cls-4" d="M436.11,487.3c3.53-1.68,4.49-6.53,9.7-6.21.57,4.48-1.13,9.57,4.54,12.62l-1.71,1-12.53-7.43"/><path class="cls-4" d="M524.88,693.73l5,2c.57,4.08,1.34,7.42,1.37,10.77,0,1.76-1.24,3.52-3.13,5-.61-3.05-1.28-6.09-1.81-9.17-.46-2.72-4.27-4.78-1.44-8.57"/><path class="cls-4" d="M519.46,815c-3.14,6.28-5.55,7.25-11.91,5.08,2.17-8.94,4.23-9.9,11.91-5.08"/><path class="cls-4" d="M662.62,366,652,372.69l-7.38-6.11c4-.26,6.87-.54,9.74-.6,2.61-.06,5.1-4.12,8.24,0"/><path class="cls-4" d="M615,731.61,608.75,737l-4.4-5.33,6.76-5.47,3.89,5.44"/><path class="cls-4" d="M361.54,420.22l-7.27,1.57c-.48-3.72-.88-6.86-1.33-10.41l3.48-.33,5.12,9.17"/><path class="cls-4" d="M519.75,694.05l-7.64-1.1c-.73-4.77-.73-4.77,6.45-6.34,2.29,3.15,2.29,3.15,1.19,7.44"/><path class="cls-4" d="M468.26,640.43v-5.69l9.19-1c.46,1.55.88,2.94,1.43,4.78l-10.62,1.86"/><path class="cls-4" d="M369.35,504l-3.45,8.86-3.65-.69c.49-3.31.92-6.29,1.4-9.55l5.7,1.38"/><path class="cls-4" d="M521.49,806.74c-4-1.42-8.6-.4-13.73-3.39,4.52-1.12,7.71-2.1,11-2.66,3-.52,3.74,1.16,2.75,6"/><path class="cls-4" d="M511.5,733.69l4.46,4.18L509.45,744l-2.34-6.17,4.39-4.18"/><path class="cls-4" d="M358.13,446.45l7.33.35c-.37,2.32-.66,4.16-.95,6-6.19-.32-6.19-.32-6.38-6.31"/><path class="cls-4" d="M494.89,360.68c-4.21,2.81-6.84,5.6-11.62,4.31l-1-4.93,12.64.62"/><path class="cls-4" d="M517.92,654.08,511,644l4.64-2c1.11,4.12,2.12,7.89,3.14,11.65l-.85.44"/><path class="cls-4" d="M642.22,364.74l-7.65-.5c-.67-4-1.3-7.86-1.93-11.64,2-1.16,3.31-.84,3.23,1.36-.18,4.46,2.18,7.41,6.35,10.78"/><path class="cls-4" d="M459.34,481.94l-3.14,6.49c-2.49-.74-5.38-.31-4.92-3.95.32-2.48,3.08-3.39,8.06-2.54"/><path class="cls-4" d="M726.31,451.32l10.22,6.4-4.68,3.83c-1.49-3.58-5.21-5.51-5.54-10.23"/><path class="cls-4" d="M290.6,465.24l8.91,4c-.62,2.23-1.18,4.08-3.86,3.41-2.94-.74-4.75-3.29-5-7.41"/><path class="cls-4" d="M450.25,708c-4.62,5.7-6.85-1.09-10.42-.87,1.66-3.13,1.66-3.13,10.42.87"/><path class="cls-4" d="M425.55,683,419,689l-3.26-2.83c3.7-.91,4.39-6.72,9.78-3.2"/><path class="cls-4" d="M628.14,323.66c-.69,1.53-1.39,3.07-2.28,5l-7.66-4.26,9.17-2.16.77,1.4"/><path class="cls-4" d="M632.8,392.43l7.27,1.7L633.31,400c-.16-2.29-.31-4.52-.51-7.58"/><path class="cls-4" d="M400.05,581.46V576c2.36.25,4.66-2,7.84.85l-7.84,4.65"/><path class="cls-4" d="M397.42,535.14l-6.35,4.31-2.22-3.74c2.83-.93,4.92-4.44,8.57-.57"/><path class="cls-4" d="M506,518.42c.44-3.51-.83-6.88,4.12-7.12.28,2,.55,4,.88,6.43l-5,.69"/><path class="cls-4" d="M651.05,697.64c4.59,1.21,4.59,1.21,2.64,7.17-3.11-1.5-1.82-4.28-2.64-7.17"/><path class="cls-4" d="M382.42,671.29l-3,2.86L374.24,671c3.19-1.58,5.59-4.52,8.18.25"/><path class="cls-4" d="M493.51,593.58l-6.64.56c.12-1.55.21-2.72.34-4.52l6.79,2.23c-.16.57-.33,1.15-.49,1.73"/><path class="cls-4" d="M408.52,732.34c-6.43,1-7.84.39-8.63-3.86l8.63,3.86"/><path class="cls-4" d="M553.78,589.31c1.28-1.89-.2-6,5.45-5.22l-4.18,6.11Z"/><path class="cls-4" d="M607.27,636l5.58,3.83-3,2.71L607.27,636"/><path class="cls-4" d="M401,657.7l7.25,4.79c-4.36.5-5.74-2.46-8.12-3.6l.87-1.19"/><path class="cls-4" d="M435.85,753.84c2.48-1.38,4.72-1.82,6,1.49l-6-1.49"/><path class="cls-4" d="M562.9,779c.85-3.28,1.27-4.89,1.81-7l3.44,3.08L562.9,779"/><path class="cls-4" d="M477.19,556.05c1.23.46,2.47.88,3.65,1.44a10.75,10.75,0,0,1-.49,1.65l-3.57-1.36c.14-.58.28-1.15.41-1.73"/><path class="cls-4" d="M571.84,617.51l-3.06-3.92c.94-.24,1.55-.63,2-.48,1.91.63,1.89.68,1.06,4.4"/><path class="cls-4" d="M463.1,744.71c-3.48-2.31-3.26-3.89-2.14-5.43.21-.29,1.68-.12,1.69,0,.21,1.48.28,3,.45,5.47"/><path class="cls-4" d="M524,529.52l-2.77,4.53c-1.59-3.37-.39-4,2.77-4.53"/></g></g></svg>